<svg xmlns="http://www.w3.org/2000/svg" viewBox="0 0 206.65 357.19"><path d="M4.65 12.78h8.93V10.8H7V.18H4.65v12.6zm16.63.18c1.28 0 2.44-.28 3.47-.84a6.28 6.28 0 0 0 2.43-2.31c.6-.98.88-2.1.88-3.33s-.3-2.35-.88-3.33A6.21 6.21 0 0 0 24.75.84C23.72.28 22.56 0 21.28 0s-2.44.28-3.47.84-1.84 1.33-2.43 2.32-.88 2.1-.88 3.32.3 2.33.88 3.32 1.4 1.76 2.43 2.32 2.2.84 3.47.84h0zm0-2.05c-.84 0-1.6-.2-2.27-.57a4 4 0 0 1-1.58-1.58 4.6 4.6 0 0 1-.58-2.28 4.6 4.6 0 0 1 .58-2.28 4 4 0 0 1 1.58-1.58c.67-.38 1.43-.57 2.27-.57s1.6.2 2.27.57a4 4 0 0 1 1.58 1.58 4.6 4.6 0 0 1 .58 2.28 4.6 4.6 0 0 1-.58 2.28 4 4 0 0 1-1.58 1.58c-.67.38-1.43.57-2.27.57h0zm17.84-.65c-.74.43-1.6.65-2.6.65-.88 0-1.66-.2-2.35-.58a4.17 4.17 0 0 1-1.62-1.58c-.4-.67-.58-1.43-.58-2.27 0-.86.2-1.63.58-2.3S33.5 3 34.18 2.6c.7-.37 1.48-.56 2.37-.56 1.36 0 2.5.48 3.47 1.44l1.48-1.44A5.67 5.67 0 0 0 39.32.52C38.45.17 37.5 0 36.44 0c-1.3 0-2.46.28-3.5.84a6.24 6.24 0 0 0-2.44 2.31c-.6.98-.88 2.1-.88 3.33s.3 2.35.88 3.33a6.28 6.28 0 0 0 2.43 2.31c1.03.56 2.2.84 3.47.84a8.85 8.85 0 0 0 2.66-.41c.86-.28 1.62-.67 2.27-1.2v-5h-2.2v3.92zm11.18 2.7c1.28 0 2.44-.28 3.47-.84a6.28 6.28 0 0 0 2.43-2.31c.6-.98.88-2.1.88-3.33s-.3-2.35-.88-3.33A6.21 6.21 0 0 0 53.76.84C52.73.28 51.57 0 50.3 0s-2.44.28-3.47.84S45 2.17 44.4 3.16s-.88 2.1-.88 3.32.3 2.33.88 3.32 1.4 1.76 2.43 2.32 2.2.84 3.47.84h0zm0-2.05c-.84 0-1.6-.2-2.27-.57a4 4 0 0 1-1.58-1.58 4.6 4.6 0 0 1-.58-2.28 4.6 4.6 0 0 1 .58-2.28 4 4 0 0 1 1.58-1.58c.67-.38 1.43-.57 2.27-.57s1.6.2 2.27.57a4 4 0 0 1 1.58 1.58 4.6 4.6 0 0 1 .58 2.28 4.6 4.6 0 0 1-.58 2.28 4 4 0 0 1-1.58 1.58c-.67.38-1.43.57-2.27.57h0z"/><path d="M41.72 79.24H.25c-.14 0-.25-.1-.25-.25v-21.8c0-.14.1-.25.25-.25h41.47c.14 0 .25.1.25.25V79c0 .14-.12.25-.25.25zM.5 78.74h40.97v-21.3H.5v21.3z" fill="#484756"/><path d="M14.8 64.73v-1.3H8.67v8.4h1.56V68.6h4.06v-1.32h-4.06v-2.56h4.58v.01zm5.1 7.2c1.16 0 2.06-.33 2.7-.98s.97-1.6.97-2.8V63.4h-1.54v4.68c0 1.65-.7 2.47-2.12 2.47s-2.14-.82-2.14-2.47V63.4H16.2v4.74c0 1.22.32 2.15.97 2.8.64.65 1.55.98 2.7.98h0zm11.8-8.5v5.7l-4.63-5.7h-1.3v8.4h1.55v-5.7l4.63 5.7h1.3v-8.4H31.7z"/><path d="M54.8 244.07H.25c-.14 0-.25-.1-.25-.25V222c0-.14.1-.25.25-.25H54.8c.14 0 .25.1.25.25v21.8c0 .14-.1.25-.25.25zm-54.3-.5h54.05v-21.3H.5v21.3z" fill="#484756"/><path d="M11.95 236.82c.74 0 1.36-.1 1.87-.34.5-.22.9-.52 1.15-.9a2.25 2.25 0 0 0 .38-1.26c0-.54-.14-.98-.43-1.3a2.43 2.43 0 0 0-1.03-.7c-.4-.16-.9-.3-1.54-.45l-1.08-.3c-.26-.1-.48-.2-.65-.36a.78.78 0 0 1-.26-.6c0-.34.15-.62.45-.83s.76-.3 1.37-.3c.38 0 .76.06 1.16.17a5.04 5.04 0 0 1 1.15.49l.5-1.2c-.36-.24-.8-.42-1.28-.55-.5-.13-1-.2-1.5-.2-.74 0-1.36.1-1.87.34-.5.22-.9.53-1.14.9s-.38.8-.38 1.27c0 .55.14 1 .43 1.3a2.4 2.4 0 0 0 1.02.7l1.55.46 1.08.3c.26.1.48.2.65.37s.26.35.26.6c0 .33-.15.6-.46.8s-.77.3-1.4.3c-.5 0-1-.1-1.5-.26s-.92-.4-1.27-.67l-.54 1.2c.35.3.83.55 1.43.73.63.2 1.26.28 1.9.28h0zm8.88 0a4.94 4.94 0 0 0 2.32-.56 4.14 4.14 0 0 0 1.62-1.54c.4-.66.6-1.4.6-2.22s-.2-1.56-.6-2.22a4.14 4.14 0 0 0-1.62-1.54c-.7-.37-1.46-.56-2.32-.56a4.94 4.94 0 0 0-2.32.56c-.7.36-1.23.9-1.62 1.55s-.6 1.4-.6 2.2c0 .82.2 1.55.6 2.2s.93 1.18 1.62 1.55 1.46.56 2.32.56h0zm0-1.37a3.05 3.05 0 0 1-1.51-.38 2.7 2.7 0 0 1-1.06-1.06c-.26-.45-.38-.96-.38-1.52s.13-1.07.38-1.52a2.84 2.84 0 0 1 1.06-1.06 3.05 3.05 0 0 1 1.51-.38 3.05 3.05 0 0 1 1.51.38 2.7 2.7 0 0 1 1.06 1.06c.26.45.38.96.38 1.52s-.13 1.07-.38 1.52a2.84 2.84 0 0 1-1.06 1.06c-.45.26-.95.38-1.5.38h0zm6.2 1.25h5.95v-1.32h-4.4v-7.08h-1.56v8.4zm7.2 0h1.56v-8.4h-1.56v8.4zm3.87 0h3.67c.9 0 1.7-.17 2.4-.52s1.24-.84 1.62-1.48.58-1.37.58-2.2-.2-1.57-.58-2.2c-.38-.64-.92-1.13-1.62-1.48s-1.5-.52-2.4-.52H38.1v8.4zm1.56-1.32v-5.76h2.04c.62 0 1.16.12 1.63.35.47.24.83.57 1.08 1s.38.94.38 1.52-.13 1.08-.38 1.52-.6.77-1.08 1-1 .35-1.63.35h-2.04z"/><path d="M105.38 250.27l-.33.01v-.01h-15V357.2h15v-.01l.33.01c20.42 0 36.42-23.48 36.42-53.46s-16-53.46-36.42-53.46zm0 91.24c-.1 0-.22-.01-.33-.02v-75.53c.1 0 .22-.02.33-.02 9.67 0 20.45 15.52 20.45 37.78 0 22.28-10.78 37.8-20.45 37.8zm-53.2-30.4c-11.64 0-21.1 9.47-21.1 21.1s9.47 21.1 21.1 21.1 21.1-9.47 21.1-21.1-9.47-21.1-21.1-21.1zm0 30.4a9.29 9.29 0 0 1-9.28-9.28 9.29 9.29 0 0 1 9.28-9.28 9.29 9.29 0 0 1 9.28 9.28c0 5.1-4.16 9.28-9.28 9.28zm-18.53-62.28h-17.2v-13.95H45.5v-15H1.46V357.2h15V294.2h17.2v-15zm130.7-28.95h-15V357.2h45v-15h-30v-91.92zm-100.88 14.9c-11.64 0-21.1 9.47-21.1 21.1s9.47 21.1 21.1 21.1 21.1-9.47 21.1-21.1-9.47-21.1-21.1-21.1zm0 30.4a9.29 9.29 0 0 1-9.28-9.28 9.29 9.29 0 0 1 9.28-9.28 9.29 9.29 0 0 1 9.28 9.28 9.29 9.29 0 0 1-9.28 9.28zm143.17-30.3v-15H172.3v84.1h34.37v-15H187.3V294.2h8.48v-15h-8.48v-13.94h19.36z" fill="#ee4523"/><path d="M33.66 113.22h-17.2V99.27H45.5v-15H1.46V191.2h15v-62.98h17.2z" fill="#f29137"/><path d="M206.65 99.28v-15H172.3v84.1h34.36v-15H187.3v-25.18h8.48v-15h-8.48V99.28z" fill="#f1c719"/><path d="M164.36 84.28h-15V191.2h45v-15h-30z" fill="#ee4523"/><path d="M46.2 168.53a9.58 9.58 0 0 1-4.63-1.26l-2.87-1.75c-2.04-1.4-2.66-4-2.16-6.06.47-1.93 1.54-3.54 2.73-5.08l1.18-1.4c.34-.47.72-.53 1.24-.34 1.48.55 2.85 1.3 4.06 2.3 3.1 2.58 5.08 5.8 5.67 9.84.08.5-.01.92-.3 1.33-1.2 1.7-2.8 2.55-4.92 2.43z" fill="#f05f23"/><path d="M55.9 145.55c1.55-.01 3.05.35 4.48.95 3.08 1.3 5.5 3.44 7.55 6.04.8 1.02 1.46 2.13 2.13 3.23.3.5.24.84-.1 1.27a20.63 20.63 0 0 1-2.87 2.89c-2.58 2.14-5.4 3.88-8.5 5.15-.44.18-.78.27-1.16-.18-.27-.33-.26-.57-.12-.9 1.03-2.53 1.4-5.17 1.35-7.88-.08-3.6-.82-7-2.67-10.13-.05-.1-.17-.2-.07-.43z" fill="#f06023"/><path d="M26.98 175.86c-.4-.5-.6-1.04-.5-1.67.47.07.94.22 1.4.2 2.3-.07 4.5.45 6.72.95 2.83.64 5.64.75 8.46.06 1.7-.42 3.45-.7 5-1.6h1.23c-.33 4.02-.02 7.97 1.64 11.68-.2.3-.47.2-.7.2-1.77.05-3.53.06-5.3-.05-3.55-.22-6.84-1.25-9.8-3.24.1-.05.2-.08.26-.16.7-1.1 1.8-1.8 2.8-2.6.78-.62 1.58-1.2 2.38-1.8-.64-.2-1.25-.1-1.82-.2l-7.15-1.32c-1.54-.23-3.06-.57-4.63-.45z" fill="#ea3f25"/><path d="M42.57 150.83c2.94-2.63 6.1-4.58 9.98-5.16.55-.08.9.07 1.2.5 1.35 1.9 2.12 4.02 2.55 6.28.6 3.12.54 6.22-.3 9.3a15.71 15.71 0 0 1-.38 1.16c-.26.7-.27.7-1 .54-.07-.01-.14-.05-.2-.04-1.2.26-1.36-.57-1.65-1.45-1.63-5-4.8-8.7-9.65-10.85-.15-.07-.3-.15-.56-.28zm23.9 29.84c-2.26 2.33-4.72 4.24-7.84 5.2-1.57.5-3.15.4-4.75.38-.4 0-.5-.3-.64-.56-.97-1.74-1.54-3.62-1.86-5.58-.32-1.92-.33-3.86-.2-5.8.06-.87.08-.87.88-1.1.75-.23 1.5-.47 2.17-.86.35-.2.54-.13.77.17.56.73 1.2 1.38 1.84 2.05 2.4 2.55 5.3 4.33 8.54 5.6.32.12.63.25.94.38.02-.01.04.03.14.13z" fill="#f06023"/><path d="M48.06 173.8c-1.56.9-3.3 1.18-5 1.6-2.82.7-5.63.58-8.46-.06-2.2-.5-4.42-1-6.72-.95-.47.01-.93-.13-1.4-.2-.12-1.2.3-2.27.86-3.3.54-.95 1.22-1.8 1.88-2.65.62-.8 1.48-.88 2.4-.7 1 .2 1.93.62 2.85 1.05l6.83 3.14c2.17 1 4.4 1.8 6.77 2.07z" fill="#f58620"/><path d="M71.3 158.58c.16.02.2.12.23.2 1.44 3.52 1.87 7.14.97 10.87-.2.83-.2.83-1.05.9-4.3.26-8.45-.5-12.53-1.8-.47-.15-.42-.34-.4-.73.05-.66.35-.95.96-1.2 4.42-1.9 8.4-4.45 11.6-8.08.05-.07.15-.1.2-.15zm.3 14.04c-.18.8-.5 1.42-.82 2.06a25.6 25.6 0 0 1-2.26 3.63c-.34.46-.63.64-1.26.44-4.23-1.35-7.74-3.76-10.56-7.17-.15-.18-.5-.38-.2-.68.27-.27.48-.7 1-.6.3.07.6.15.88.25 4.16 1.38 8.43 2.12 12.82 2 .1 0 .2.03.4.06z" fill="#f06023"/><path d="M26.98 175.86c1.57-.13 3.1.2 4.62.46l7.15 1.32c.58.1 1.2.01 1.82.2l-2.38 1.8c-1 .8-2.1 1.5-2.8 2.6-.05.08-.17.1-.26.16-1.62-.75-6.56-4.47-7.67-5.78-.2-.22-.4-.44-.47-.76z" fill="#f05f23"/><path d="M62.1 139.82c-2.4-.04-4.74-.3-7.03-1.06-.68-.22-1.34-.53-1.92-.93-1.4-.98-2.92-1.76-4.5-2.4-1.27-.52-2.42-1.28-3.44-2.18-1.48-1.3-2.3-3-2.28-5 .04-3 .4-6 1.5-8.82.53-1.36 1.27-2.62 2-3.88l2.65-5.02c.32-.73.4-1.55.38-2.36-.03-2.63 1-4.83 2.82-6.65 1.08-1.07 2.35-1.9 3.82-2.4 1.57-.52 3.1-.44 4.62.2.46.2.95.37 1.32.68.72.62 1.54.63 2.42.7 1.88.14 3.53-.52 5.18-1.26l2.44-1.15c2.44-1.14 4.8-.84 7.17.22.73.33 1.46.7 2.05 1.27 1.7 1.65 2.3 3.63 1.98 6-.2 1.56-.7 3-1.27 4.44-.46 1.16-.55 2.36-.43 3.57.06.6.42 1.16.82 1.64l1.37 1.64c1.08 1.42 1.34 3.08 1.1 4.77-.3 2.1-.8 4.2-1.47 6.22-.52 1.6-1.2 3.12-2.28 4.44-.72.87-1.6 1.56-2.56 2.12-1.8 1.05-3.73 1.84-5.74 2.4-1.5.4-2.95.95-4.4 1.5-1.45.55-2.92 1.05-4.45 1.3-.62.1-1.25.01-1.88.01zm.33-8.56c4.4.04 8.05-3.46 8.05-7.83 0-4.54-3.53-7.9-7.8-8-4.37-.1-7.92 3.44-8.04 7.74-.1 4.2 3.3 8.02 7.8 8.1z" fill="#fdf1e2"/><path d="M62.43 131.26c-4.5-.07-7.9-3.88-7.78-8.1.1-4.3 3.67-7.84 8.04-7.74 4.27.1 7.8 3.46 7.8 8-.01 4.37-3.65 7.86-8.06 7.83zm2.88-12.4c-.88-.02-1.72.94-1.4 1.8.35.93.57 1.88.75 2.85.14.8.93 1.27 1.66 1.17.74-.1 1.37-.75 1.34-1.55-.04-1.24-.28-2.45-1-3.52-.3-.46-.75-.7-1.37-.76z" fill="#f9b633"/><path d="M65.3 118.86c.62.05 1.06.3 1.37.77.7 1.07.95 2.28 1 3.52.03.8-.6 1.44-1.34 1.55-.73.1-1.52-.38-1.66-1.17-.17-.98-.4-1.92-.75-2.85-.33-.88.52-1.84 1.4-1.82z" fill="#fdf1e2"/><path d="M91.3 189c-.48-.57-.44-1.27-.44-1.98l.02-100.66c.04-1.1.3-1.44 1.33-1.62 1.54-.26 3.1-.44 4.66-.46 9.26-.1 17.25 3.37 24.16 9.85 3.36 3.15 6.12 6.84 8.44 10.93l1.53 2.67c.02.13.08.23.2.3.01.2.06.38.26.44l-.01-.02c-.1.55.2.97.4 1.4 1.07 2.3 1.88 4.7 2.58 7.12a61.71 61.71 0 0 1 1.65 7.42c.44 2.82.8 5.64.8 8.5v7.1c-.18.23-.16.5-.18.77-.1 1.04-.15 2.08-.3 3.12-.7 5.23-1.96 10.3-3.85 15.18-.12.32-.28.63-.28 1-.3.53-.83.96-.66 1.7-.4.16-.45.6-.62.9l-1.7 3.37c-3.18 5.82-7.2 10.86-12.26 14.93-.5.4-1.06.67-1.44 1.2-.1.1-.22.2-.33.32-.4.01-.66.3-.96.5-3.44 2.3-7.1 4-11.04 5.03-1.9.5-3.85.7-5.78 1l-3.48-.03c-.32 0-.66.06-.96-.12-.34-.2-.65-.25-1 .03-.2.2-.5.12-.75.12zm24.56-21h-2.2c-.33 0-.64.05-.94.22-.27.16-.46.36-.46.72s.18.56.46.72c.54.33 1.16.3 1.7.18 1.18-.3 2.37-.14 3.56-.2.3-.01.6.01.86-.07.45-.13.73-.67.58-1.1-.14-.42-.42-.8-.9-.64-.93.3-1.87.06-2.65.16zm-3.3-51.43l4.93-.4c.44-.04.73-.33.8-.8.1-.53-.25-.75-.63-.94-.24-.1-.5-.18-.74-.1-.85.3-1.72.15-2.58.2-.64.05-1.3.14-1.92.28-.47.1-.72.66-.64 1.2.08.5.37.64.77.55zm2.92-9.24c.38 0 .75-.03.85-.52.1-.5.02-.94-.5-1.15-.2-.08-.4-.18-.6-.24-1.33-.38-2.65-.77-3.95-1.26-.42-.16-.88-.24-1.16.27-.2.38.01.9.5 1.28.14.1.32.18.5.24.8.3 1.56.65 2.37.84.68.15 1.3.52 2 .54zm-11.12 37.45c.02-.36-.1-.65-.53-.82-1.05-.43-2.04-1-3-1.64-.37-.25-.76-.46-1.17-.6-.65-.24-1.06.18-.97.9.05.4.28.62.56.82.3.2.62.4.94.6.9.58 1.87 1.03 2.78 1.6.83.52 1.4.15 1.4-.85zm-2.98 32.58c-.1.03-.16.04-.22.07-1.43.73-2.86 1.47-4.2 2.4-.45.3-.54.8-.33 1.2.25.48.6.57 1.2.27 1.17-.6 2.22-1.44 3.47-1.86.32-.1.52-.4.74-.66.17-.2.43-.4.24-.7-.22-.34-.46-.7-.9-.72zm28.3-31.47V144c-.01-.34-.13-.6-.47-.7-.3-.08-.56.03-.78.27-.3.3-.23.7-.27 1.08-.17 1.44-.03 2.92-.56 4.3-.17.44.14.9.6 1.04.63.2 1.2-.22 1.24-1.05.04-1.08.4-2.13.23-3.06zm-21.6-8.92c.01-.27-.07-.53-.13-.8-.24-1.2-.6-2.38-.95-3.56-.2-.74-.6-1.07-1.1-.9-.58.2-.77.62-.57 1.4.18.67.36 1.34.62 1.98.3.72.32 1.5.57 2.22.2.54.6.64 1.06.54.46-.1.52-.47.5-.9zm14.4-4.54c.08-.85-.44-1.3-1.1-1.03-.18.07-.3.22-.4.37-.84 1.23-1.27 2.68-1.87 4.03-.2.43.18.6.4.86.2.23.4.27.68.13a1.35 1.35 0 0 0 .66-.73c.45-1.1.84-2.2 1.48-3.2.1-.14.12-.35.15-.43zm-3.66 10.36c-.4-.1-.8.2-1.22.4-.66.3-1.35.55-2 .88a.91.91 0 0 0-.45 1.16c.18.45.55.62 1.06.45.34-.1.68-.26 1-.42.6-.3 1.18-.56 1.85-.6s1.03-.4 1.02-.94c-.01-.55-.44-.9-1.27-.9zm-24.5-50.86c.43-.02.96.08 1-.36.08-.84.73-1.1 1.16-1.57.27-.3.57-.58.76-.98.2-.4.17-.73-.15-1.03-.35-.33-.76-.4-1.07-.03-.7.83-1.6 1.44-2.34 2.23-.3.32-.54.66-.35 1.12.2.47.57.66.98.62zm21.63 60.35c.01-.38-.07-.72-.46-.8-.4-.1-.8-.08-1.04.38-.58 1.08-.93 2.27-1.3 3.43-.2.65.13 1.36.58 1.45.6.1.8-.42 1-.86l.1-.2.96-2.7c.07-.22.17-.42.16-.67zM104.4 95.12v-.58c-.03-.7-.36-1.2-.78-1.2-.37.02-.9.62-.95 1.14-.03.27-.01.54-.01.8-.01.58.04 1.15-.16 1.72-.1.28-.07.62-.05.92.05.6.43 1 .9.96.5-.05.83-.38.82-.9-.02-1.05.1-2.08.24-2.88zm16.12 66.5c.06 0 .1 0 .13-.01 1.08-.5 2.18-1 3.24-1.55.4-.2.5-.68.26-1.1-.2-.4-.5-.6-1-.42-.97.4-1.95.78-2.87 1.32a1.81 1.81 0 0 0-.34.28c-.26.27-.34.6-.2.95.14.34.46.45.76.54zM108.4 126c.5-.01 1.02.04 1.52-.02.5-.07.9-.44.96-.97.07-.5-.3-.82-.73-.84a34.47 34.47 0 0 0-3.05 0c-.42.02-.94.67-.94 1.02 0 .42.44.78 1.03.8.4.02.8 0 1.2 0zm-5.53 36.3c.01-.24-.02-.55-.32-.72-.33-.17-.63-.1-.9.16a3.54 3.54 0 0 0-.55.71c-.4.64-.82 1.26-1.23 1.9-.38.57-.34 1.04.13 1.4.4.3.85.22 1.2-.3.45-.65.87-1.32 1.28-2 .18-.32.36-.66.37-1.14zm23.76-40.8c0-.02-.1-.17-.24-.32-.4-.44-.96-.45-1.45.01-.54.5-1 1.1-1.43 1.73-.3.43-.48.77-.04 1.2.4.37.8.36 1.15-.03.6-.62 1.18-1.25 1.76-1.88.14-.15.24-.3.25-.7zm.03-11.88c-.02.6 0 .98.36 1.14.38.17.74.03.95-.33a14.03 14.03 0 0 0 1.26-2.69c.14-.42-.1-.75-.43-.98-.35-.25-.63-.05-.85.23-.66.84-1.07 1.82-1.3 2.63zm-28.53 6.15c-.1.54.2 1.02.68 1.1.42.07.86-.22.96-.73.15-.75.24-1.5.36-2.27.1-.6-.12-1.03-.6-1.15-.45-.1-.9.2-1.03.78l-.38 2.27zm-1.37 35.22v1.04c0 .53.24.9.72 1 .4.08.76-.4.8-1.03.04-.65-.01-1.3.15-1.94.14-.56-.32-1.15-.77-1.17-.46-.02-.84.36-.9.95-.03.38-.01.77-.01 1.15zm23.55-29.18c-.17.04-.4.05-.37.37a.27.27 0 0 0 .28.27c.22 0 .42-.1.44-.38 0-.2-.17-.2-.35-.26z" fill="#eab020"/><path d="M131.63 161.76c-.17-.74.37-1.16.66-1.7.9-.7 1.42-1.74 2.04-2.68.48-.72 1.06-1.23 1.83-1.57 2.16-.95 2.67-3.1 1.24-5.08-.2-.28-.4-.54-.46-.9-.3-1.85-.5-3.68.27-5.47.4-.9.4-1.88.36-2.85-.03-.6-.16-1.15-.67-1.5v-7.1c0-2.86-.36-5.68-.8-8.5-.4-2.52-.95-5-1.65-7.42s-1.5-4.83-2.58-7.12c-.2-.44-.5-.86-.4-1.4 1 1.23 1.73 2.68 2.5 4.08 3.75 6.94 6.2 14.38 7.2 22.33 1.4 10.87.14 21.35-4.54 31.18-5.74 12.05-14.76 19.88-27.05 23.3-.35.1-.7.14-1.07.22.2-.98.66-1.76 1.56-2.2.2-.1.36-.27.5-.44.28-.35.6-.4 1.04-.42 2.24-.13 2.97-1.08 3.4-2.76.1-.4.18-.82.27-1.24.1-.1.22-.2.33-.32.62.07 1.22-.05 1.83-.15 6.7-1.14 11.18-5.15 13.5-11.9.93-2.7 1.14-5.52.7-8.37z" fill="#efc41b"/><path d="M115.28 182.5l-.27 1.24c-.42 1.67-1.15 2.62-3.4 2.76-.43.03-.76.07-1.04.42-.14.17-.3.35-.5.44-.9.44-1.34 1.22-1.56 2.2-.7.66-1.45.8-2.4.65-1.32-.2-2.66.13-3.97.37-.2.04-.4.2-.56.33-.85.7-1.82.9-2.85.9-.87.01-1.55-.3-1.9-1.23.01-.6.27-1.1.63-1.56l5.78-1c3.94-1.04 7.6-2.74 11.04-5.03.32-.2.6-.5.98-.5z" fill="#41803d"/><path d="M97.5 189.03c-.36.45-.62.95-.63 1.56-1.55.01-3.1-.27-4.62-.47-.7-.1-.8-.28-.92-1.13.25-.01.54.1.74-.08.34-.3.65-.25 1-.03.3.18.64.12.96.12l3.48.03zm34-80.56c-.2-.07-.26-.24-.26-.44.16.1.24.25.26.44zm-.28-.44a.41.41 0 0 1-.2-.3c.12.05.2.15.2.3z" fill="#efc41b"/><path d="M131.63 161.76c.45 2.85.24 5.67-.7 8.36-2.32 6.76-6.82 10.77-13.5 11.9-.6.1-1.2.22-1.83.15.38-.54.96-.82 1.44-1.2 5.05-4.07 9.07-9.1 12.26-14.93.6-1.1 1.13-2.25 1.7-3.37.18-.33.23-.75.62-.9z" fill="#e94325"/><path d="M136.9 140c.5.36.64.9.67 1.5.05.97.04 1.95-.36 2.85-.78 1.8-.6 3.62-.27 5.47.06.36.26.62.46.9 1.43 2 .92 4.13-1.24 5.08-.77.34-1.35.85-1.83 1.57-.62.94-1.14 1.98-2.04 2.68 0-.36.16-.67.28-1 1.9-4.9 3.15-9.96 3.85-15.18.14-1.03.2-2.08.3-3.12.03-.27.01-.54.2-.77z" fill="#3d7f3c"/><path d="M115.87 168c.78-.1 1.72.14 2.64-.16.47-.16.74.22.9.64a.91.91 0 0 1-.58 1.09c-.27.08-.57.05-.86.07-1.18.06-2.37-.1-3.56.2-.54.13-1.15.15-1.7-.18-.27-.17-.46-.36-.46-.72s.2-.56.46-.72c.3-.17.6-.22.94-.22h2.22zm-3.3-51.43c-.4.1-.7-.06-.76-.54-.08-.53.18-1.08.64-1.2.63-.14 1.27-.23 1.92-.28.86-.07 1.73.1 2.58-.2.23-.1.5-.02.74.1.4.18.72.4.63.94-.08.47-.37.76-.8.8l-4.94.4zm2.92-9.24c-.7-.02-1.32-.38-2-.54-.8-.2-1.6-.55-2.37-.84-.17-.06-.34-.13-.5-.24-.5-.37-.7-.9-.5-1.28.28-.5.74-.43 1.16-.27 1.3.5 2.62.88 3.95 1.26.2.06.4.15.6.24.5.2.6.65.5 1.15-.1.48-.48.52-.86.52zm-11.12 37.45c.02 1-.56 1.37-1.4.85l-2.78-1.6-.94-.6c-.28-.2-.5-.43-.56-.82-.1-.74.32-1.15.97-.9.4.15.8.37 1.17.6a17.48 17.48 0 0 0 3 1.64c.44.17.57.46.54.82zm-2.98 32.58c.44.02.68.38.9.72.2.3-.07.5-.24.7-.22.25-.43.55-.74.66-1.25.43-2.3 1.27-3.47 1.86-.6.3-.95.2-1.2-.27-.22-.4-.12-.9.33-1.2 1.34-.92 2.77-1.66 4.2-2.4.06-.03.13-.04.22-.07zm28.3-31.46c.2.93-.2 1.98-.25 3.06-.04.83-.6 1.24-1.24 1.05-.46-.14-.77-.6-.6-1.04.53-1.4.4-2.87.56-4.3.05-.38-.02-.77.27-1.08.23-.23.47-.35.78-.27.33.1.46.35.47.7v1.9zm-21.6-8.93c.01.4-.05.8-.5.9-.47.1-.87 0-1.06-.54-.25-.72-.28-1.5-.57-2.22-.25-.64-.44-1.3-.62-1.98-.2-.78-.02-1.2.57-1.4.5-.17.9.16 1.1.9l.95 3.56c.06.26.15.52.13.8zm14.38-4.54c-.03.08-.06.28-.16.44-.64 1-1.04 2.1-1.48 3.2a1.35 1.35 0 0 1-.66.73c-.28.14-.5.1-.68-.13-.2-.25-.58-.43-.4-.86.6-1.35 1.03-2.8 1.87-4.03.1-.16.22-.3.4-.37.66-.26 1.18.17 1.1 1.02zm-3.66 10.37c.83.01 1.26.35 1.27.92.01.52-.35.9-1.02.94s-1.26.3-1.85.6c-.32.16-.66.3-1 .42-.5.17-.88 0-1.06-.45-.17-.43-.01-.93.45-1.16.65-.33 1.33-.6 2-.88.42-.2.83-.5 1.22-.4zm-24.5-50.87c-.4.05-.8-.14-1-.62-.2-.46.05-.8.35-1.12.74-.8 1.63-1.4 2.34-2.23.3-.36.72-.3 1.07.03.32.3.34.63.15 1.03s-.5.67-.76.98c-.42.5-1.07.73-1.16 1.57-.04.43-.57.34-1 .36zm21.63 60.35c.01.24-.08.45-.16.67l-.96 2.7c-.03.07-.05.14-.1.2-.22.44-.4.97-1 .86-.46-.1-.8-.8-.58-1.45.37-1.17.72-2.35 1.3-3.43.25-.46.64-.48 1.04-.38s.47.44.46.8zM104.4 95.12c-.13.8-.26 1.83-.24 2.88.01.52-.32.86-.82.9-.46.04-.84-.36-.9-.96-.02-.3-.05-.64.05-.92.2-.57.15-1.15.16-1.72l.01-.8c.06-.52.58-1.12.95-1.14.43-.02.75.47.78 1.2v.58zm16.1 66.5c-.3-.1-.62-.2-.77-.54s-.07-.68.2-.95c.1-.1.2-.2.34-.28.92-.54 1.9-.92 2.87-1.32.48-.2.78.03 1 .42.24.43.13.9-.26 1.1l-3.24 1.55c-.03.01-.07 0-.12.01zM108.4 126h-1.2c-.6-.03-1.03-.4-1.03-.8 0-.35.52-1 .94-1.02h3.05c.42.02.8.35.73.84-.07.53-.46.9-.96.97s-1.02.01-1.52.01zm-5.54 36.28c0 .5-.2.83-.38 1.15l-1.28 2c-.36.52-.8.6-1.2.3-.46-.35-.5-.82-.13-1.4l1.23-1.9a4.21 4.21 0 0 1 .55-.71c.26-.27.57-.34.9-.16.3.15.33.47.33.7zm23.76-40.78c-.01.4-.1.55-.24.7l-1.76 1.88c-.37.38-.76.4-1.15.03-.44-.42-.27-.76.04-1.2.44-.6.9-1.22 1.43-1.73.5-.46 1.06-.44 1.45-.01l.23.33zm.03-11.9c.22-.8.62-1.8 1.3-2.63.22-.28.5-.48.85-.23.32.23.57.56.43.98-.32.95-.75 1.84-1.26 2.7-.2.36-.57.5-.95.33-.37-.16-.38-.53-.37-1.14zm-28.53 6.16l.4-2.26c.12-.57.57-.9 1.03-.78.47.12.68.55.6 1.15l-.36 2.27c-.1.5-.54.8-.96.73-.47-.08-.78-.56-.7-1.1zm-1.37 35.22l.01-1.15c.05-.6.43-.97.9-.95.45.02.92.6.77 1.17-.17.65-.1 1.3-.15 1.94-.04.62-.4 1.1-.8 1.03-.48-.1-.72-.47-.72-1v-1.04z" fill="#efc419"/><path d="M120.3 121.8c.18.05.35.06.34.26-.01.28-.2.37-.44.38a.27.27 0 0 1-.28-.27c-.01-.33.2-.34.38-.37z" fill="#eec56b"/></svg>