<svg xmlns="http://www.w3.org/2000/svg" viewBox="0 0 220.3 278.4"><path d="M12.8 254.4c-1 0-1.9-.2-2.8-.5-.9-.4-1.6-.9-2.3-1.6-.6-.7-1.1-1.5-1.5-2.5s-.6-2.2-.6-3.4c0-1.3.2-2.4.6-3.4s.9-1.9 1.5-2.6c.7-.7 1.4-1.2 2.3-1.6a6.71 6.71 0 0 1 2.8-.6c1 0 1.9.2 2.6.6.8.4 1.4.9 1.9 1.4l-1.5 1.8c-.4-.4-.9-.7-1.3-1-.5-.3-1-.4-1.6-.4s-1.2.1-1.8.4c-.5.3-1 .6-1.4 1.1s-.7 1.1-.9 1.8-.3 1.5-.3 2.4c0 1.8.4 3.2 1.1 4.2.8 1 1.8 1.5 3.2 1.5.7 0 1.3-.1 1.9-.4.5-.3 1-.7 1.5-1.2l1.5 1.7c-.6.7-1.4 1.3-2.2 1.7s-1.7.6-2.7.6zm12.1 0c-.7 0-1.4-.1-2.1-.4s-1.3-.7-1.8-1.2-.9-1.2-1.2-1.9c-.3-.8-.5-1.6-.5-2.6s.2-1.8.5-2.6.7-1.4 1.2-1.9 1.1-.9 1.8-1.2 1.4-.4 2.1-.4 1.4.1 2.1.4 1.3.7 1.8 1.2.9 1.2 1.2 1.9c.3.8.5 1.6.5 2.6s-.2 1.8-.5 2.6-.7 1.4-1.2 1.9-1.1.9-1.8 1.2-1.4.4-2.1.4zm0-2.2c.9 0 1.5-.4 2-1.1s.7-1.7.7-2.8c0-1.2-.2-2.1-.7-2.9-.5-.7-1.2-1.1-2-1.1-.9 0-1.5.4-2 1.1s-.7 1.7-.7 2.9.2 2.1.7 2.8c.4.7 1.1 1.1 2 1.1zm11 2.2c-1 0-1.7-.3-2.1-.9s-.6-1.4-.6-2.4v-13.9H36v14c0 .3.1.6.2.7a.76.76 0 0 0 .4.2h.5l.4 2.1c-.5.2-1 .2-1.6.2zm6.5 0c-1 0-1.7-.3-2.1-.9s-.6-1.4-.6-2.4v-13.9h2.8v14c0 .3.1.6.2.7a.76.76 0 0 0 .4.2h.5l.4 2.1c-.5.2-1 .2-1.6.2zm6.7 0c-1 0-1.9-.3-2.5-.9s-1-1.5-1-2.5c0-.6.1-1.2.4-1.7s.7-.9 1.2-1.3c.6-.4 1.3-.6 2.2-.9l3.1-.6c0-.3-.1-.6-.1-.9-.1-.3-.2-.5-.4-.7s-.4-.4-.6-.5c-.3-.1-.6-.2-1-.2-.6 0-1.1.1-1.7.3a11.94 11.94 0 0 0-1.6.8l-1-1.8c.7-.4 1.4-.8 2.2-1.1s1.7-.5 2.6-.5c1.5 0 2.6.4 3.3 1.3s1.1 2.1 1.1 3.8v7H53l-.2-1.3h-.1c-.5.4-1.1.8-1.7 1.1-.6.5-1.2.6-1.9.6zm.9-2.1c.5 0 .9-.1 1.3-.3s.8-.5 1.3-1v-2.6c-.8.1-1.5.2-2 .4s-1 .3-1.3.5-.6.4-.7.7-.2.5-.2.8c0 .5.2.9.5 1.1.2.3.6.4 1.1.4zm14.3 2.1a3.81 3.81 0 0 1-1.7-.4 15.26 15.26 0 0 1-1.6-1.1h0l-.2 1.2h-2.2v-16.9h2.8v4.4l-.1 2c.5-.4 1-.8 1.6-1.1s1.2-.4 1.8-.4c.7 0 1.4.1 2 .4s1.1.7 1.5 1.2.7 1.1.9 1.9c.2.7.3 1.6.3 2.5 0 1-.1 1.9-.4 2.7s-.6 1.4-1.1 2c-.5.5-1 1-1.6 1.2-.7.3-1.4.4-2 .4zm-.6-2.2c.8 0 1.4-.3 2-1 .5-.7.8-1.7.8-3 0-1.2-.2-2.1-.6-2.8s-1-1-1.9-1c-.8 0-1.7.4-2.6 1.3v5.5c.4.4.8.6 1.2.8.4.1.7.2 1.1.2zm13.2 2.2c-.7 0-1.4-.1-2.1-.4s-1.3-.7-1.8-1.2-.9-1.2-1.2-1.9c-.3-.8-.5-1.6-.5-2.6s.2-1.8.5-2.6.7-1.4 1.2-1.9 1.1-.9 1.8-1.2 1.4-.4 2.1-.4 1.4.1 2.1.4 1.3.7 1.8 1.2.9 1.2 1.2 1.9c.3.8.5 1.6.5 2.6s-.2 1.8-.5 2.6-.7 1.4-1.2 1.9-1.1.9-1.8 1.2-1.4.4-2.1.4zm0-2.2c.9 0 1.5-.4 2-1.1s.7-1.7.7-2.8c0-1.2-.2-2.1-.7-2.9-.5-.7-1.2-1.1-2-1.1-.9 0-1.5.4-2 1.1s-.7 1.7-.7 2.9.2 2.1.7 2.8c.4.7 1.1 1.1 2 1.1zm8.3 2v-11.8h2.3l.2 2.1h.1c.4-.8.9-1.3 1.5-1.7s1.2-.6 1.8-.6 1 .1 1.3.2l-.5 2.4c-.2-.1-.4-.1-.6-.1h-.6c-.5 0-.9.2-1.5.6-.5.4-.9 1-1.3 1.9v7.2h-2.7v-.2zm11.2.2c-1 0-1.9-.3-2.5-.9s-1-1.5-1-2.5c0-.6.1-1.2.4-1.7s.7-.9 1.2-1.3c.6-.4 1.3-.6 2.2-.9l3.1-.6c0-.3-.1-.6-.1-.9-.1-.3-.2-.5-.4-.7s-.4-.4-.6-.5c-.3-.1-.6-.2-1-.2-.6 0-1.1.1-1.7.3a11.94 11.94 0 0 0-1.6.8l-1-1.8c.7-.4 1.4-.8 2.2-1.1s1.7-.5 2.6-.5c1.5 0 2.6.4 3.3 1.3s1.1 2.1 1.1 3.8v7h-2.3l-.2-1.3h-.1c-.5.4-1.1.8-1.7 1.1-.6.5-1.2.6-1.9.6zm.8-2.1c.5 0 .9-.1 1.3-.3s.8-.5 1.3-1v-2.6c-.8.1-1.5.2-2 .4s-1 .3-1.3.5-.6.4-.7.7-.2.5-.2.8c0 .5.2.9.5 1.1.2.3.6.4 1.1.4zm12.4 2.1c-.7 0-1.3-.1-1.7-.3-.5-.2-.8-.5-1.2-.9-.3-.4-.5-.8-.6-1.3s-.2-1.1-.2-1.7v-5.6h-1.7v-2.1l1.8-.1.3-3.2h2.3v3.2h3v2.2h-3v5.6c0 1.4.5 2.1 1.7 2.1.2 0 .4 0 .6-.1.2 0 .4-.1.6-.2l.5 2c-.3.1-.7.2-1.1.3s-.8.1-1.3.1zm4.5-.2v-11.8h2.8v11.8h-2.8zm1.4-13.9c-.5 0-.9-.1-1.2-.4s-.5-.7-.5-1.1.2-.8.5-1.1.7-.5 1.2-.5.9.2 1.2.5.5.7.5 1.1-.2.8-.5 1.1-.7.4-1.2.4zm9.7 14.1c-.7 0-1.4-.1-2.1-.4s-1.3-.7-1.8-1.2-.9-1.2-1.2-1.9c-.3-.8-.5-1.6-.5-2.6s.2-1.8.5-2.6.7-1.4 1.2-1.9 1.1-.9 1.8-1.2 1.4-.4 2.1-.4 1.4.1 2.1.4 1.3.7 1.8 1.2.9 1.2 1.2 1.9c.3.8.5 1.6.5 2.6s-.2 1.8-.5 2.6-.7 1.4-1.2 1.9-1.1.9-1.8 1.2-1.4.4-2.1.4zm0-2.2c.9 0 1.5-.4 2-1.1s.7-1.7.7-2.8c0-1.2-.2-2.1-.7-2.9-.5-.7-1.2-1.1-2-1.1s-1.5.4-2 1.1-.7 1.7-.7 2.9.2 2.1.7 2.8 1.1 1.1 2 1.1zm8.3 2v-11.8h2.3l.2 1.6h.1c.5-.5 1.1-.9 1.7-1.3s1.3-.6 2.2-.6c1.3 0 2.2.4 2.8 1.2s.9 1.9.9 3.4v7.4h-2.8v-7c0-1-.1-1.7-.4-2.1s-.8-.6-1.4-.6c-.5 0-1 .1-1.4.4-.4.2-.8.6-1.3 1.1v8.2h-2.9v.1zm24.3.2c-.9 0-1.7-.1-2.5-.4-.7-.3-1.3-.7-1.9-1.3-.5-.6-.9-1.3-1.2-2.2s-.4-2-.4-3.3v-8.8h2.8v9c0 .8.1 1.6.2 2.2a9.75 9.75 0 0 0 .6 1.4c.3.4.6.6 1 .8.4.1.8.2 1.3.2s.9-.1 1.3-.2c.4-.2.7-.4 1-.8s.5-.8.7-1.4.2-1.3.2-2.2v-9h2.7v8.8c0 1.3-.1 2.4-.4 3.3s-.7 1.6-1.2 2.2-1.1 1-1.9 1.3c-.5.3-1.4.4-2.3.4zm12.8 0c-.8 0-1.6-.2-2.4-.5s-1.5-.7-2-1.2l1.3-1.8c.5.4 1 .7 1.6 1 .5.2 1.1.3 1.7.3s1.1-.1 1.4-.4.5-.6.5-1c0-.2-.1-.4-.2-.6s-.3-.4-.6-.5c-.2-.1-.5-.3-.8-.4s-.6-.3-.9-.4c-.4-.1-.8-.3-1.2-.5s-.8-.4-1.1-.7-.6-.6-.8-.9c-.2-.4-.3-.8-.3-1.3 0-1 .4-1.9 1.1-2.5.8-.7 1.8-1 3.1-1 .8 0 1.5.1 2.2.4s1.2.6 1.7 1l-1.3 1.7c-.4-.3-.8-.5-1.3-.7a3.08 3.08 0 0 0-1.3-.3c-.6 0-1 .1-1.3.4-.3.2-.4.5-.4.9 0 .2.1.4.2.6s.3.3.6.4c.2.1.5.2.8.4l.9.3c.4.1.8.3 1.2.5s.8.4 1.1.7.6.6.8 1 .3.8.3 1.4c0 .5-.1 1-.3 1.4s-.5.8-.9 1.1-.9.6-1.4.8c-.6.3-1.3.4-2 .4zm12 0c-.8 0-1.6-.1-2.3-.4s-1.3-.7-1.8-1.2-.9-1.2-1.2-1.9c-.3-.8-.4-1.6-.4-2.6s.2-1.8.5-2.6.7-1.4 1.2-1.9a6.57 6.57 0 0 1 1.7-1.2c.7-.3 1.3-.4 2-.4.8 0 1.5.1 2.1.4s1.1.7 1.5 1.1c.4.5.7 1.1.9 1.8s.3 1.4.3 2.3v.8c0 .2 0 .4-.1.6h-7.5c.1 1.1.5 1.9 1.1 2.4.6.6 1.4.8 2.4.8.5 0 1-.1 1.4-.2l1.3-.6.9 1.7c-.6.4-1.2.7-1.9.9-.6.1-1.3.2-2.1.2zm-3.1-7.2h5.2c0-.9-.2-1.6-.6-2.1s-1-.8-1.8-.8c-.7 0-1.3.2-1.8.7-.6.5-.9 1.2-1 2.2zm10.6 7v-9.6h-1.6v-2.1l1.6-.1v-1.2c0-.6.1-1.2.2-1.7a2.73 2.73 0 0 1 .7-1.3 2.73 2.73 0 0 1 1.2-.9c.5-.2 1.1-.3 1.8-.3.4 0 .8 0 1.2.1l1 .3-.5 2.1a3.08 3.08 0 0 0-1.3-.3c-1 0-1.5.7-1.5 2v1.3h2.3v2.2h-2.3v9.6h-2.8v-.1zm10.6.2c-1.3 0-2.2-.4-2.8-1.2s-.9-2-.9-3.5v-7.4h2.8v7c0 1 .1 1.7.4 2.1s.8.6 1.4.6c.5 0 1-.1 1.3-.4.4-.3.8-.7 1.3-1.2v-8h2.8v11.8h-2.3l-.2-1.7h-.1c-.5.6-1.1 1.1-1.7 1.5-.4.3-1.2.4-2 .4zm12.5 0c-1 0-1.7-.3-2.1-.9s-.6-1.4-.6-2.4v-13.9h2.8v14c0 .3.1.6.2.7a.76.76 0 0 0 .4.2h.5l.4 2.1c-.5.2-1 .2-1.6.2zM49.9 278.2v-9.6h-1.6v-2.1l1.6-.1v-1.2c0-.6.1-1.2.2-1.7a2.73 2.73 0 0 1 .7-1.3 2.73 2.73 0 0 1 1.2-.9c.5-.2 1.1-.3 1.8-.3.4 0 .8 0 1.2.1l1 .3-.5 2.1a3.08 3.08 0 0 0-1.3-.3c-1 0-1.5.7-1.5 2v1.3H55v2.2h-2.3v9.6h-2.8v-.1zm11.7.2c-.7 0-1.4-.1-2.1-.4s-1.3-.7-1.8-1.2-.9-1.2-1.2-1.9c-.3-.8-.5-1.6-.5-2.6s.2-1.8.5-2.6.7-1.4 1.2-1.9 1.1-.9 1.8-1.2 1.4-.4 2.1-.4 1.4.1 2.1.4 1.3.7 1.8 1.2.9 1.2 1.2 1.9c.3.8.5 1.6.5 2.6s-.2 1.8-.5 2.6-.7 1.4-1.2 1.9-1.1.9-1.8 1.2-1.4.4-2.1.4zm0-2.2c.9 0 1.5-.4 2-1.1s.7-1.7.7-2.8c0-1.2-.2-2.1-.7-2.9-.5-.7-1.2-1.1-2-1.1-.9 0-1.5.4-2 1.1s-.7 1.7-.7 2.9.2 2.1.7 2.8c.4.7 1.1 1.1 2 1.1zm8.3 2v-11.8h2.3l.2 2.1h.1c.4-.8.9-1.3 1.5-1.7s1.2-.6 1.8-.6 1 .1 1.3.2l-.5 2.4c-.2-.1-.4-.1-.6-.1h-.6c-.5 0-.9.2-1.5.6-.5.4-.9 1-1.3 1.9v7.2h-2.7v-.2zm14 0v-15.7h5c.8 0 1.6.1 2.2.2.7.1 1.3.3 1.8.6s.9.7 1.2 1.2.4 1.1.4 1.8c0 .8-.2 1.4-.6 2.1-.4.6-.9 1.1-1.6 1.3v.1c.9.2 1.6.6 2.1 1.2.6.6.9 1.4.9 2.5 0 .8-.2 1.5-.5 2-.3.6-.7 1.1-1.3 1.4-.5.4-1.2.7-1.9.9s-1.5.3-2.4.3h-5.3v.1zm2.7-9.2h2c1.1 0 1.9-.2 2.4-.6s.7-.9.7-1.6c0-.8-.3-1.3-.8-1.6s-1.3-.5-2.3-.5h-2v4.3zm0 7H89c1.1 0 2-.2 2.7-.6.6-.4.9-1.1.9-2 0-.8-.3-1.4-.9-1.8s-1.5-.6-2.7-.6h-2.3l-.1 5zm14.8 2.4c-1.3 0-2.2-.4-2.8-1.2s-.9-2-.9-3.5v-7.4h2.8v7c0 1 .1 1.7.4 2.1s.8.6 1.4.6c.5 0 1-.1 1.3-.4.4-.3.8-.7 1.3-1.2v-8h2.8v11.8h-2.3l-.2-1.7h-.1c-.5.6-1.1 1.1-1.7 1.5-.5.3-1.2.4-2 .4zm13.1 0c-.8 0-1.6-.2-2.4-.5s-1.5-.7-2-1.2l1.3-1.8c.5.4 1 .7 1.6 1 .5.2 1.1.3 1.7.3s1.1-.1 1.4-.4.5-.6.5-1c0-.2-.1-.4-.2-.6s-.3-.4-.6-.5c-.2-.1-.5-.3-.8-.4s-.6-.3-.9-.4c-.4-.1-.8-.3-1.2-.5s-.8-.4-1.1-.7-.6-.6-.8-.9c-.2-.4-.3-.8-.3-1.3 0-1 .4-1.9 1.2-2.5.8-.7 1.8-1 3.1-1 .8 0 1.5.1 2.2.4s1.2.6 1.7 1l-1.3 1.7c-.4-.3-.8-.5-1.3-.7a3.08 3.08 0 0 0-1.3-.3c-.6 0-1 .1-1.3.4-.3.2-.4.5-.4.9 0 .2.1.4.2.6s.3.3.6.4c.2.1.5.2.8.4l.9.3c.4.1.8.3 1.2.5s.8.4 1.1.7.6.6.8 1 .3.8.3 1.4c0 .5-.1 1-.3 1.4s-.5.8-.9 1.1-.9.6-1.4.8c-.7.3-1.4.4-2.1.4zm7-.2v-11.8h2.8v11.8h-2.8zm1.4-13.9c-.5 0-.9-.1-1.2-.4s-.5-.7-.5-1.1c0-.5.2-.8.5-1.1s.7-.5 1.2-.5.9.2 1.2.5.5.7.5 1.1c0 .5-.2.8-.5 1.1s-.7.4-1.2.4zm4.9 13.9v-11.8h2.3l.2 1.6h.1c.5-.5 1.1-1 1.7-1.3.6-.4 1.3-.6 2.2-.6 1.3 0 2.2.4 2.8 1.2s.9 1.9.9 3.4v7.4h-2.8v-7c0-1-.1-1.7-.4-2.1s-.8-.6-1.4-.6c-.5 0-1 .1-1.4.4-.4.2-.8.6-1.3 1.1v8.2l-2.9.1zm18.4.2c-.8 0-1.6-.1-2.3-.4s-1.3-.7-1.8-1.2-.9-1.2-1.2-1.9c-.3-.8-.4-1.6-.4-2.6s.2-1.8.5-2.6.7-1.4 1.2-1.9a6.57 6.57 0 0 1 1.7-1.2c.7-.3 1.3-.4 2-.4.8 0 1.5.1 2.1.4s1.1.7 1.5 1.1c.4.5.7 1.1.9 1.8s.3 1.4.3 2.3v.8c0 .2 0 .4-.1.6h-7.5c.1 1.1.5 1.9 1.1 2.4.6.6 1.4.8 2.4.8.5 0 1-.1 1.4-.2l1.3-.6.9 1.7c-.6.4-1.2.7-1.9.9-.6.1-1.3.2-2.1.2zm-3.1-7.2h5.2c0-.9-.2-1.6-.6-2.1s-1-.8-1.8-.8c-.7 0-1.3.2-1.8.7-.6.5-.9 1.2-1 2.2zm13.5 7.2c-.8 0-1.6-.2-2.4-.5s-1.5-.7-2-1.2l1.3-1.8c.5.4 1 .7 1.6 1 .5.2 1.1.3 1.7.3s1.1-.1 1.4-.4.5-.6.5-1c0-.2-.1-.4-.2-.6s-.3-.4-.6-.5c-.2-.1-.5-.3-.8-.4s-.6-.3-.9-.4c-.4-.1-.8-.3-1.2-.5s-.8-.4-1.1-.7-.6-.6-.8-.9c-.2-.4-.3-.8-.3-1.3 0-1 .4-1.9 1.1-2.5.8-.7 1.8-1 3.1-1 .8 0 1.5.1 2.2.4s1.2.6 1.7 1l-1.3 1.7c-.4-.3-.8-.5-1.3-.7a3.08 3.08 0 0 0-1.3-.3c-.6 0-1 .1-1.3.4-.3.2-.4.5-.4.9 0 .2.1.4.2.6s.3.3.6.4c.2.1.5.2.8.4l.9.3c.4.1.8.3 1.2.5s.8.4 1.1.7.6.6.8 1 .3.8.3 1.4c0 .5-.1 1-.3 1.4s-.5.8-.9 1.1-.9.6-1.4.8c-.6.3-1.3.4-2 .4zm10.3 0c-.8 0-1.6-.2-2.4-.5s-1.5-.7-2-1.2l1.3-1.8c.5.4 1 .7 1.6 1 .5.2 1.1.3 1.7.3s1.1-.1 1.4-.4.5-.6.5-1c0-.2-.1-.4-.2-.6s-.3-.4-.6-.5c-.2-.1-.5-.3-.8-.4s-.6-.3-.9-.4c-.4-.1-.8-.3-1.2-.5s-.8-.4-1.1-.7-.6-.6-.8-.9c-.2-.4-.3-.8-.3-1.3 0-1 .4-1.9 1.1-2.5.8-.7 1.8-1 3.1-1 .8 0 1.5.1 2.2.4s1.2.6 1.7 1l-1.3 1.7c-.4-.3-.8-.5-1.3-.7a3.08 3.08 0 0 0-1.3-.3c-.6 0-1 .1-1.3.4-.3.2-.4.5-.4.9 0 .2.1.4.2.6s.3.3.6.4c.2.1.5.2.8.4l.9.3c.4.1.8.3 1.2.5s.8.4 1.1.7.6.6.8 1 .3.8.3 1.4c0 .5-.1 1-.3 1.4s-.5.8-.9 1.1-.9.6-1.4.8c-.6.3-1.3.4-2 .4z"/><path d="M110.2 220.4C49.5 220.4 0 170.9 0 110.2S49.5 0 110.2 0s110.2 49.4 110.2 110.2c0 60.7-49.5 110.2-110.2 110.2zm0-191.6c-44.9 0-81.4 36.5-81.4 81.4s36.5 81.4 81.4 81.4 81.4-36.5 81.4-81.4-36.5-81.4-81.4-81.4z" fill="#484756"/><path d="M110 220.3a108.65 108.65 0 0 1-50.7-12.5c-19.9-10.4-36-26.4-46.4-46.2C2.5 141.9-1.7 119.6.8 97.3l28.6 3.3c-1.9 16.6 1.2 33 8.9 47.7 7.8 14.7 19.6 26.5 34.4 34.2 14.6 7.7 31.1 10.6 47.6 8.6s31.7-9 44.1-20c12.4-11.1 21.1-25.4 25-41.5s2.9-32.8-3-48.3c-6-15.6-16.4-28.7-29.9-38.1-13.7-9.4-29.7-14.4-46.3-14.4V0c22.4 0 44.1 6.7 62.5 19.4C191 32 205 49.8 213.2 70.9c8 21.1 9.4 43.6 4.1 65.4-5.3 21.7-17 41.2-33.8 56.1s-37.4 24.3-59.7 27c-4.6.6-9.2.9-13.8.9z" fill="#fd920f"/><circle cx="110.2" cy="110.2" r="68" fill="#ed7d31"/><path d="M81.9 95.9v2.3c0 .7-.1 1.2-.2 1.7-.1.4-.3.8-.4 1.1l-11.8 24.3c-.2.5-.6.9-1 1.3-.4.3-1 .5-1.8.5h-3.9l12.1-23.8c.5-1 1.1-1.8 1.7-2.5H61.5c-.3 0-.6-.1-.9-.4-.2-.2-.4-.5-.4-.9v-3.6h21.7zm15.8 11.7c1.2 0 2.3.2 3.4.6s2.1 1 3 1.8c.8.8 1.5 1.7 2 2.9s.8 2.5.8 4.1c0 1.5-.3 2.8-.8 4.1s-1.3 2.4-2.2 3.3c-1 .9-2.1 1.7-3.5 2.2s-2.8.8-4.5.8-3.2-.3-4.5-.8-2.4-1.3-3.4-2.2c-.9-1-1.7-2.1-2.2-3.4-.5-1.4-.7-2.8-.7-4.5 0-1.5.3-3 .9-4.5.6-1.6 1.5-3.2 2.8-4.8l7.4-10c.3-.3.6-.6 1.1-.9.5-.2 1.1-.4 1.7-.4h4.7l-9.2 11.3c-.2.2-.4.5-.6.7s-.3.4-.5.7c.6-.3 1.2-.5 1.9-.7.8-.2 1.6-.3 2.4-.3zm-7.5 9.7c0 .9.1 1.7.3 2.4s.6 1.3 1.1 1.8a6.57 6.57 0 0 0 1.7 1.2c.7.3 1.5.4 2.4.4.8 0 1.6-.1 2.3-.4s1.3-.7 1.8-1.2.9-1.1 1.2-1.8.4-1.5.4-2.3c0-.9-.1-1.7-.4-2.4s-.7-1.3-1.2-1.8-1.1-.9-1.8-1.1c-.7-.3-1.5-.4-2.3-.4s-1.6.1-2.3.4-1.3.7-1.8 1.2-.9 1.1-1.1 1.8c-.1.7-.3 1.4-.3 2.2zm19.6 6.9c0-.4.1-.9.2-1.3.2-.4.4-.7.7-1s.7-.5 1.1-.7.8-.3 1.3-.3a3.08 3.08 0 0 1 1.3.3c.4.2.7.4 1 .7s.5.6.7 1 .3.8.3 1.3-.1.9-.3 1.3-.4.7-.7 1-.6.5-1 .7-.8.3-1.3.3-.9-.1-1.3-.3-.8-.4-1.1-.7-.5-.6-.7-1c-.1-.4-.2-.9-.2-1.3zm19.6-9.5c-1.1 0-2.1-.2-3.2-.6-1-.4-2-.9-2.8-1.7s-1.5-1.7-1.9-2.8c-.5-1.1-.7-2.4-.7-3.9 0-1.4.3-2.7.8-3.9s1.2-2.3 2.2-3.2c.9-.9 2.1-1.6 3.4-2.2a12.17 12.17 0 0 1 4.3-.8c1.6 0 3 .3 4.3.8s2.4 1.2 3.3 2.1 1.6 2 2.1 3.3.7 2.7.7 4.2c0 1-.1 1.9-.3 2.7-.2.9-.4 1.7-.7 2.5s-.7 1.6-1.1 2.3l-1.4 2.3-7.1 10.2c-.2.3-.6.6-1.1.9-.5.2-1 .3-1.6.3h-4.9l9.7-12.1c.2-.3.5-.6.7-.9l.6-.9c-.7.5-1.5.8-2.4 1.1-1.1.2-2 .3-2.9.3zm7.2-9.4c0-.8-.1-1.6-.4-2.3s-.6-1.2-1.1-1.7-1-.8-1.7-1.1c-.6-.2-1.4-.4-2.1-.4-.8 0-1.5.1-2.2.4-.6.3-1.2.6-1.7 1.1-.4.5-.8 1-1 1.7-.2.6-.4 1.4-.4 2.1 0 1.7.4 3.1 1.3 4s2.2 1.4 3.8 1.4c.9 0 1.6-.1 2.3-.4s1.2-.6 1.7-1.1.8-1 1-1.7c.4-.5.5-1.2.5-2zm15.3 8.6c0 .6-.1 1.2-.3 1.7s-.5 1-.9 1.4-.8.7-1.3.9-1 .3-1.6.3-1.2-.1-1.7-.3-.9-.5-1.3-.9-.7-.8-.9-1.4c-.2-.5-.3-1.1-.3-1.7 0-.7.1-1.3.3-1.8s.5-1 .9-1.4.8-.7 1.3-.9 1.1-.3 1.7-.3 1.2.1 1.7.3 1 .5 1.3.9c.4.4.7.8.9 1.4.1.5.2 1.1.2 1.8zm-2.9 0c0-.4 0-.7-.1-1s-.2-.5-.3-.6c-.1-.2-.3-.3-.4-.3-.2-.1-.3-.1-.5-.1s-.4 0-.5.1c-.2.1-.3.2-.4.3l-.3.6c-.1.3-.1.6-.1 1s0 .7.1 1 .2.5.3.6c.1.2.2.3.4.3a.9.9 0 0 0 .5.1c.2 0 .4 0 .5-.1.2-.1.3-.2.4-.3l.3-.6c.1-.3.1-.6.1-1zm8.4-3.7l.4-.4c.2-.1.4-.2.7-.2h2.7l-13.1 16.9c-.1.2-.3.3-.5.4s-.4.1-.6.1h-2.8l13.2-16.8zm4.5 12.8c0 .6-.1 1.2-.3 1.8-.2.5-.5 1-.9 1.4s-.8.7-1.3.9-1 .3-1.6.3-1.2-.1-1.7-.3-.9-.5-1.3-.9-.7-.8-.9-1.4c-.2-.5-.3-1.1-.3-1.8s.1-1.3.3-1.8.5-1 .9-1.4.8-.7 1.3-.9 1.1-.3 1.7-.3 1.2.1 1.7.3 1 .5 1.3.9c.4.4.7.8.9 1.4.1.6.2 1.1.2 1.8zm-2.8 0c0-.4 0-.7-.1-1s-.2-.5-.3-.6c-.1-.2-.3-.3-.4-.3-.2-.1-.3-.1-.5-.1s-.4 0-.5.1c-.2.1-.3.2-.4.3l-.3.6c-.1.3-.1.6-.1 1s0 .7.1 1 .2.5.3.6.2.3.4.3a.9.9 0 0 0 .5.1c.2 0 .4 0 .5-.1.2-.1.3-.2.4-.3l.3-.6c0-.3.1-.6.1-1z" fill="#fff"/></svg>