<?xml version="1.0" encoding="utf-8"?>
<!-- Generator: Adobe Illustrator 24.1.0, SVG Export Plug-In . SVG Version: 6.00 Build 0)  -->
<svg version="1.1" id="Layer_1" xmlns="http://www.w3.org/2000/svg" xmlns:xlink="http://www.w3.org/1999/xlink" x="0px" y="0px"
	 viewBox="0 0 212.45 342.96" style="enable-background:new 0 0 212.45 342.96;" xml:space="preserve">
<style type="text/css">
	.st0{fill:#484756;}
</style>
<g>
	<g>
		<path d="M5.73,12.78h2.34V2.16h4.18V0.18H1.56v1.98h4.18V12.78L5.73,12.78z M24.4,0.18h-2.3l-3.73,6.14l-3.69-6.14h-2.5l4.95,8.19
			v4.41h2.34V8.33L24.4,0.18L24.4,0.18z M31.13,0.18h-5.18v12.6h2.34V9.14h2.84c1.09,0,2.04-0.18,2.85-0.54s1.43-0.88,1.86-1.56
			c0.43-0.68,0.65-1.47,0.65-2.39c0-0.92-0.22-1.72-0.65-2.39c-0.43-0.67-1.05-1.19-1.86-1.55S32.22,0.18,31.13,0.18L31.13,0.18
			L31.13,0.18z M31.02,7.16h-2.74v-5h2.74c1.02,0,1.79,0.22,2.32,0.65c0.53,0.43,0.79,1.05,0.79,1.85c0,0.8-0.26,1.42-0.79,1.85
			C32.82,6.95,32.04,7.16,31.02,7.16L31.02,7.16L31.02,7.16z M44.92,12.96c1.28,0,2.44-0.28,3.47-0.84
			c1.03-0.56,1.84-1.33,2.43-2.31c0.59-0.98,0.88-2.09,0.88-3.33c0-1.24-0.29-2.35-0.88-3.33c-0.59-0.98-1.4-1.76-2.43-2.31
			C47.36,0.28,46.2,0,44.92,0c-1.28,0-2.44,0.28-3.47,0.84c-1.03,0.56-1.84,1.33-2.43,2.32c-0.59,0.99-0.88,2.1-0.88,3.32
			s0.29,2.33,0.88,3.32c0.59,0.99,1.4,1.76,2.43,2.32C42.48,12.68,43.63,12.96,44.92,12.96L44.92,12.96L44.92,12.96z M44.92,10.91
			c-0.84,0-1.6-0.19-2.27-0.57c-0.67-0.38-1.2-0.91-1.58-1.58c-0.38-0.68-0.58-1.44-0.58-2.28c0-0.84,0.19-1.6,0.58-2.28
			c0.38-0.68,0.91-1.21,1.58-1.58c0.67-0.38,1.43-0.57,2.27-0.57c0.84,0,1.6,0.19,2.27,0.57c0.67,0.38,1.2,0.91,1.58,1.58
			c0.38,0.68,0.58,1.44,0.58,2.28c0,0.84-0.19,1.6-0.58,2.28c-0.38,0.68-0.91,1.21-1.58,1.58C46.51,10.72,45.76,10.91,44.92,10.91
			L44.92,10.91L44.92,10.91z M62.81,10.26c-0.74,0.43-1.61,0.65-2.59,0.65c-0.88,0-1.66-0.19-2.35-0.58
			c-0.69-0.38-1.23-0.91-1.62-1.58c-0.39-0.67-0.58-1.43-0.58-2.27c0-0.86,0.19-1.63,0.58-2.3c0.39-0.67,0.93-1.19,1.62-1.57
			c0.69-0.37,1.48-0.56,2.37-0.56c1.36,0,2.51,0.48,3.47,1.44l1.48-1.44c-0.59-0.67-1.31-1.18-2.18-1.53C62.14,0.17,61.18,0,60.13,0
			c-1.3,0-2.46,0.28-3.5,0.84c-1.04,0.56-1.85,1.33-2.44,2.31c-0.59,0.98-0.88,2.09-0.88,3.33c0,1.24,0.29,2.35,0.88,3.33
			c0.59,0.98,1.4,1.75,2.43,2.31c1.03,0.56,2.19,0.84,3.47,0.84c0.91,0,1.8-0.14,2.66-0.41c0.86-0.28,1.62-0.67,2.27-1.19V6.34
			h-2.21V10.26L62.81,10.26z M78.88,12.78l-2.9-4.14c0.86-0.34,1.53-0.85,1.99-1.53c0.46-0.68,0.69-1.5,0.69-2.45
			c0-0.92-0.22-1.72-0.65-2.39c-0.43-0.67-1.05-1.19-1.86-1.55S74.4,0.18,73.3,0.18h-5.18v12.6h2.34V9.11h2.84
			c0.22,0,0.38-0.01,0.49-0.02l2.57,3.69H78.88L78.88,12.78z M76.31,4.66c0,0.8-0.26,1.43-0.79,1.86c-0.53,0.44-1.3,0.66-2.32,0.66
			h-2.74V2.16h2.74c1.02,0,1.79,0.22,2.32,0.65C76.05,3.24,76.31,3.86,76.31,4.66L76.31,4.66L76.31,4.66z M90.73,12.78h2.45
			l-5.69-12.6h-2.3l-5.67,12.6h2.41l1.24-2.92h6.3L90.73,12.78L90.73,12.78z M83.96,8.03l2.36-5.51l2.38,5.51H83.96L83.96,8.03z
			 M99.98,0.18H94.8v12.6h2.34V9.14h2.84c1.09,0,2.04-0.18,2.85-0.54s1.43-0.88,1.86-1.56c0.43-0.68,0.65-1.47,0.65-2.39
			c0-0.92-0.22-1.72-0.65-2.39c-0.43-0.67-1.05-1.19-1.86-1.55S101.07,0.18,99.98,0.18L99.98,0.18L99.98,0.18z M99.87,7.16h-2.74v-5
			h2.74c1.02,0,1.79,0.22,2.32,0.65c0.53,0.43,0.79,1.05,0.79,1.85c0,0.8-0.26,1.42-0.79,1.85C101.67,6.95,100.89,7.16,99.87,7.16
			L99.87,7.16L99.87,7.16z M116.74,0.18v5.2h-6.52v-5.2h-2.34v12.6h2.34v-5.4h6.52v5.4h2.34V0.18H116.74L116.74,0.18z M132.85,0.18
			h-2.3l-3.73,6.14l-3.69-6.14h-2.5l4.95,8.19v4.41h2.34V8.33L132.85,0.18L132.85,0.18z"/>
	</g>
	<g>
		<path class="st0" d="M180.86,89.92H0.25C0.11,89.92,0,89.81,0,89.67V67.86c0-0.14,0.11-0.25,0.25-0.25h180.61
			c0.14,0,0.25,0.11,0.25,0.25v21.81C181.11,89.81,181,89.92,180.86,89.92z M0.5,89.42h180.11V68.11H0.5V89.42z"/>
	</g>
	<g>
		<path d="M11.18,82.5c0.74,0,1.36-0.11,1.87-0.34c0.51-0.22,0.89-0.52,1.15-0.9c0.25-0.38,0.38-0.8,0.38-1.26
			c0-0.54-0.14-0.98-0.43-1.3c-0.28-0.32-0.63-0.56-1.03-0.71c-0.4-0.16-0.91-0.31-1.54-0.45c-0.46-0.11-0.82-0.21-1.08-0.3
			c-0.26-0.09-0.48-0.21-0.65-0.36C9.68,76.73,9.6,76.54,9.6,76.3c0-0.34,0.15-0.62,0.45-0.83c0.3-0.21,0.76-0.31,1.37-0.31
			c0.38,0,0.76,0.06,1.16,0.17c0.4,0.11,0.78,0.28,1.15,0.49l0.49-1.21c-0.36-0.24-0.79-0.42-1.28-0.55c-0.5-0.13-1-0.19-1.51-0.19
			c-0.74,0-1.36,0.11-1.87,0.34c-0.51,0.22-0.89,0.53-1.14,0.91c-0.25,0.38-0.38,0.8-0.38,1.27c0,0.55,0.14,0.99,0.43,1.31
			c0.28,0.32,0.62,0.56,1.02,0.71c0.4,0.15,0.91,0.3,1.55,0.46c0.46,0.11,0.82,0.21,1.08,0.3c0.26,0.09,0.48,0.21,0.65,0.37
			c0.17,0.16,0.26,0.35,0.26,0.59c0,0.33-0.15,0.59-0.46,0.79c-0.31,0.2-0.77,0.3-1.4,0.3c-0.5,0-1.01-0.09-1.51-0.26
			c-0.5-0.17-0.92-0.39-1.27-0.67l-0.54,1.21c0.35,0.3,0.83,0.55,1.43,0.73C9.91,82.41,10.53,82.5,11.18,82.5L11.18,82.5L11.18,82.5
			z M22.25,75.29v-1.31h-6.13v8.4h1.56v-3.22h4.06v-1.32h-4.06v-2.56H22.25L22.25,75.29z M30.5,73.98h-3.46v8.4h1.56v-2.42h1.9
			c0.73,0,1.36-0.12,1.9-0.36c0.54-0.24,0.95-0.59,1.24-1.04c0.29-0.45,0.43-0.98,0.43-1.59c0-0.62-0.14-1.15-0.43-1.6
			c-0.29-0.45-0.7-0.79-1.24-1.03C31.86,74.1,31.23,73.98,30.5,73.98L30.5,73.98L30.5,73.98z M30.43,78.64h-1.82V75.3h1.82
			c0.68,0,1.2,0.14,1.55,0.43c0.35,0.29,0.53,0.7,0.53,1.24c0,0.54-0.18,0.95-0.53,1.24C31.63,78.49,31.11,78.64,30.43,78.64
			L30.43,78.64L30.43,78.64z M42.92,82.38l-1.93-2.76c0.58-0.22,1.02-0.56,1.33-1.02c0.31-0.46,0.46-1,0.46-1.63
			c0-0.62-0.14-1.15-0.43-1.6c-0.29-0.45-0.7-0.79-1.24-1.03c-0.54-0.24-1.17-0.36-1.9-0.36h-3.46v8.4h1.56v-2.45h1.9
			c0.14,0,0.25,0,0.32-0.01l1.72,2.46H42.92L42.92,82.38z M41.21,76.97c0,0.54-0.18,0.95-0.53,1.24c-0.35,0.29-0.87,0.44-1.55,0.44
			h-1.82V75.3h1.82c0.68,0,1.2,0.14,1.55,0.43C41.03,76.02,41.21,76.43,41.21,76.97L41.21,76.97L41.21,76.97z M48.43,82.5
			c0.86,0,1.63-0.19,2.32-0.56c0.69-0.37,1.23-0.89,1.62-1.54c0.39-0.66,0.59-1.4,0.59-2.22c0-0.82-0.2-1.56-0.59-2.22
			c-0.39-0.66-0.93-1.17-1.62-1.54c-0.69-0.37-1.46-0.56-2.32-0.56c-0.86,0-1.63,0.19-2.32,0.56c-0.69,0.37-1.23,0.89-1.62,1.55
			c-0.39,0.66-0.59,1.4-0.59,2.21c0,0.82,0.2,1.55,0.59,2.21c0.39,0.66,0.93,1.18,1.62,1.55C46.8,82.31,47.57,82.5,48.43,82.5
			L48.43,82.5L48.43,82.5z M48.43,81.13c-0.56,0-1.06-0.13-1.51-0.38c-0.45-0.25-0.8-0.6-1.06-1.06c-0.26-0.45-0.38-0.96-0.38-1.52
			c0-0.56,0.13-1.07,0.38-1.52c0.26-0.45,0.61-0.8,1.06-1.06c0.45-0.25,0.95-0.38,1.51-0.38c0.56,0,1.06,0.13,1.51,0.38
			c0.45,0.25,0.8,0.6,1.06,1.06c0.26,0.45,0.38,0.96,0.38,1.52c0,0.56-0.13,1.07-0.38,1.52c-0.26,0.45-0.61,0.8-1.06,1.06
			C49.49,81.01,48.99,81.13,48.43,81.13L48.43,81.13L48.43,81.13z M57.9,82.38h3.67c0.9,0,1.69-0.17,2.39-0.52
			c0.7-0.35,1.24-0.84,1.62-1.48s0.58-1.37,0.58-2.2c0-0.83-0.19-1.57-0.58-2.2c-0.38-0.64-0.92-1.13-1.62-1.48
			c-0.7-0.35-1.49-0.52-2.39-0.52H57.9V82.38L57.9,82.38z M59.46,81.06V75.3h2.04c0.62,0,1.16,0.12,1.63,0.35
			c0.47,0.24,0.83,0.57,1.08,1.01c0.25,0.44,0.38,0.94,0.38,1.52c0,0.58-0.13,1.08-0.38,1.52c-0.25,0.44-0.61,0.77-1.08,1.01
			c-0.47,0.24-1.01,0.35-1.63,0.35H59.46L59.46,81.06z M67.8,82.38h1.56v-8.4H67.8V82.38L67.8,82.38z M74.22,82.5
			c0.74,0,1.36-0.11,1.87-0.34c0.51-0.22,0.89-0.52,1.15-0.9c0.25-0.38,0.38-0.8,0.38-1.26c0-0.54-0.14-0.98-0.43-1.3
			c-0.28-0.32-0.63-0.56-1.03-0.71c-0.4-0.16-0.91-0.31-1.54-0.45c-0.46-0.11-0.82-0.21-1.08-0.3c-0.26-0.09-0.48-0.21-0.65-0.36
			c-0.17-0.15-0.26-0.35-0.26-0.59c0-0.34,0.15-0.62,0.45-0.83c0.3-0.21,0.76-0.31,1.37-0.31c0.38,0,0.76,0.06,1.16,0.17
			c0.4,0.11,0.78,0.28,1.15,0.49l0.49-1.21c-0.36-0.24-0.79-0.42-1.28-0.55c-0.5-0.13-1-0.19-1.51-0.19c-0.74,0-1.36,0.11-1.87,0.34
			c-0.51,0.22-0.89,0.53-1.14,0.91c-0.25,0.38-0.38,0.8-0.38,1.27c0,0.55,0.14,0.99,0.43,1.31c0.28,0.32,0.62,0.56,1.02,0.71
			c0.4,0.15,0.91,0.3,1.55,0.46c0.46,0.11,0.82,0.21,1.08,0.3c0.26,0.09,0.48,0.21,0.65,0.37c0.17,0.16,0.26,0.35,0.26,0.59
			c0,0.33-0.15,0.59-0.46,0.79c-0.31,0.2-0.77,0.3-1.4,0.3c-0.5,0-1.01-0.09-1.51-0.26c-0.5-0.17-0.92-0.39-1.27-0.67l-0.54,1.21
			c0.35,0.3,0.83,0.55,1.43,0.73C72.94,82.41,73.57,82.5,74.22,82.5L74.22,82.5L74.22,82.5z M82.6,73.98h-3.46v8.4h1.56v-2.42h1.9
			c0.73,0,1.36-0.12,1.9-0.36c0.54-0.24,0.95-0.59,1.24-1.04c0.29-0.45,0.43-0.98,0.43-1.59c0-0.62-0.14-1.15-0.43-1.6
			c-0.29-0.45-0.7-0.79-1.24-1.03C83.97,74.1,83.33,73.98,82.6,73.98L82.6,73.98L82.6,73.98z M82.53,78.64h-1.82V75.3h1.82
			c0.68,0,1.2,0.14,1.55,0.43c0.35,0.29,0.53,0.7,0.53,1.24c0,0.54-0.18,0.95-0.53,1.24C83.73,78.49,83.21,78.64,82.53,78.64
			L82.53,78.64L82.53,78.64z M87.85,82.38h5.95v-1.32h-4.39v-7.08h-1.56V82.38L87.85,82.38z M101.31,82.38h1.63l-3.79-8.4h-1.54
			l-3.78,8.4h1.61l0.83-1.94h4.2L101.31,82.38L101.31,82.38z M96.8,79.21l1.57-3.67l1.58,3.67H96.8L96.8,79.21z M110.91,73.98h-1.54
			l-2.48,4.09l-2.46-4.09h-1.67l3.3,5.46v2.94h1.56v-2.96L110.91,73.98L110.91,73.98z"/>
	</g>
	<g>
		<path d="M12.96,105.78H9.74l-0.77,2.29H7.6l3.05-8.46h1.42l3.05,8.46h-1.39L12.96,105.78z M10.07,104.72h2.55l-1.26-3.71h-0.04
			L10.07,104.72z"/>
		<path d="M16.07,108.06v-8.46h3.38c1.5,0,2.48,0.83,2.48,2.11c0,0.9-0.66,1.7-1.51,1.84v0.05c1.15,0.13,1.92,0.94,1.92,2.07
			c0,1.49-1.08,2.39-2.88,2.39H16.07z M17.38,103.21h1.47c1.14,0,1.76-0.47,1.76-1.31c0-0.79-0.54-1.22-1.49-1.22h-1.75V103.21z
			 M19.19,106.99c1.18,0,1.81-0.49,1.81-1.4s-0.64-1.38-1.89-1.38h-1.73v2.78H19.19z"/>
		<path d="M23.18,103.83c0-2.68,1.51-4.37,3.87-4.37c1.92,0,3.36,1.18,3.59,2.94h-1.3c-0.23-1.08-1.14-1.79-2.29-1.79
			c-1.54,0-2.53,1.26-2.53,3.22c0,1.97,0.98,3.22,2.54,3.22c1.18,0,2.02-0.6,2.28-1.62h1.31c-0.32,1.75-1.65,2.77-3.59,2.77
			C24.68,108.2,23.18,106.53,23.18,103.83z"/>
		<path d="M34.82,99.61c2.51,0,4,1.55,4,4.21c0,2.67-1.48,4.24-4,4.24h-2.98v-8.46H34.82z M33.15,106.93h1.55
			c1.79,0,2.78-1.1,2.78-3.09c0-1.99-1-3.09-2.78-3.09h-1.55V106.93z"/>
		<path d="M45.46,108.06h-5.37v-8.46h5.37v1.13H41.4v2.47h3.84v1.09H41.4v2.62h4.05V108.06z"/>
		<path d="M46.82,108.06v-8.46h5.28v1.13h-3.97v2.68h3.63v1.11h-3.63v3.54H46.82z"/>
		<path d="M56.89,108.2c-2.42,0-3.94-1.69-3.94-4.41c0-2.67,1.52-4.33,3.93-4.33c1.88,0,3.3,1.11,3.6,2.8h-1.35
			c-0.32-1.05-1.14-1.65-2.24-1.65c-1.62,0-2.59,1.18-2.59,3.17c0,2.02,1,3.27,2.61,3.27c1.37,0,2.32-0.88,2.34-2.16v-0.15h-2.19
			v-1.06h3.48v0.86C60.54,106.84,59.18,108.2,56.89,108.2z"/>
		<path d="M67.48,108.06v-3.74h-4.34v3.74h-1.31v-8.46h1.31v3.57h4.34v-3.57h1.31v8.46H67.48z"/>
		<path d="M70.36,108.06v-8.46h1.31v8.46H70.36z"/>
		<path d="M73.98,105.89c0.02,0.7,0.53,1.18,1.26,1.18c0.86,0,1.33-0.52,1.33-1.48v-5.99h1.31v5.99c0,1.68-0.98,2.65-2.63,2.65
			c-1.52,0-2.56-0.95-2.56-2.36H73.98z"/>
		<path d="M79.47,108.06v-8.46h1.31v4.03h0.05l3.53-4.03h1.56l-3.35,3.74l3.63,4.71h-1.63l-2.93-3.81l-0.87,0.99v2.82H79.47z"/>
		<path d="M92.31,108.06h-5.25v-8.46h1.31v7.32h3.94V108.06z"/>
		<path d="M100.8,108.06v-6.22h-0.04l-2.55,6.22h-0.97l-2.55-6.22h-0.04v6.22h-1.2v-8.46h1.52l2.74,6.74h0.05l2.73-6.74H102v8.46
			H100.8z"/>
		<path d="M103.57,108.06v-8.46h1.19l4.38,6.23h0.05v-6.23h1.28v8.46h-1.18l-4.38-6.23h-0.05v6.23H103.57z"/>
		<path d="M119.65,103.84c0,2.69-1.53,4.37-3.96,4.37c-2.44,0-3.96-1.68-3.96-4.37s1.52-4.37,3.96-4.37
			C118.12,99.47,119.65,101.15,119.65,103.84z M113.07,103.84c0,1.97,1.01,3.21,2.62,3.21s2.61-1.24,2.61-3.21
			c0-1.97-1.01-3.22-2.61-3.22S113.07,101.86,113.07,103.84z"/>
		<path d="M124.08,99.61c1.64,0,2.78,1.13,2.78,2.78c0,1.65-1.17,2.79-2.82,2.79h-1.82v2.89h-1.31v-8.46H124.08z M122.22,104.07
			h1.51c1.14,0,1.79-0.62,1.79-1.68s-0.65-1.68-1.79-1.68h-1.51V104.07z"/>
		<path d="M127.72,103.84c0-2.68,1.54-4.37,3.97-4.37c2.43,0,3.96,1.68,3.96,4.37c0,1.59-0.53,2.84-1.5,3.59l1.13,1.54h-1.35
			l-0.74-1.01c-0.45,0.17-0.95,0.25-1.5,0.25C129.24,108.2,127.72,106.52,127.72,103.84z M132.44,106.96l-1.06-1.44h1.35l0.64,0.87
			c0.59-0.54,0.93-1.44,0.93-2.55c0-1.97-1.02-3.23-2.62-3.23c-1.61,0-2.62,1.26-2.62,3.23c0,1.97,1.01,3.23,2.62,3.23
			C131.95,107.07,132.21,107.03,132.44,106.96z"/>
		<path d="M138.22,108.06h-1.31v-8.46h3.28c1.74,0,2.82,1.01,2.82,2.58c0,1.14-0.61,2.07-1.64,2.41l1.89,3.46h-1.51l-1.72-3.25h-1.8
			V108.06z M138.22,103.75h1.84c1.01,0,1.59-0.56,1.59-1.52c0-0.94-0.62-1.52-1.63-1.52h-1.8V103.75z"/>
		<path d="M145.18,105.74c0.12,0.84,0.91,1.34,2.04,1.34c1.07,0,1.84-0.55,1.84-1.31c0-0.66-0.45-1.07-1.58-1.31l-0.92-0.19
			c-1.69-0.36-2.46-1.14-2.46-2.36c0-1.45,1.27-2.44,3.07-2.44c1.79,0,3.02,1.01,3.06,2.49h-1.27c-0.08-0.85-0.78-1.37-1.8-1.37
			c-0.99,0-1.72,0.48-1.72,1.25c0,0.62,0.43,1.03,1.53,1.26l0.93,0.19c1.77,0.38,2.5,1.08,2.5,2.31c0,1.59-1.25,2.6-3.22,2.6
			c-1.91,0-3.18-0.96-3.26-2.46H145.18z"/>
		<path d="M153.67,108.06v-7.32h-2.59v-1.13h6.49v1.13h-2.58v7.32H153.67z"/>
		<path d="M159.96,104.98c0,1.21,0.76,2.06,2.11,2.06s2.12-0.85,2.12-2.06v-5.37h1.31v5.48c0,1.82-1.3,3.11-3.42,3.11
			s-3.42-1.29-3.42-3.11v-5.48h1.31V104.98z"/>
		<path d="M169.45,108.06l-3.02-8.46h1.42l2.3,6.98h0.04l2.31-6.98h1.4l-3.02,8.46H169.45z"/>
		<path d="M177.85,108.06h-1.24l-2.28-8.46h1.37l1.56,6.62h0.05l1.79-6.62h1.22l1.79,6.62h0.05l1.56-6.62h1.37l-2.29,8.46h-1.24
			l-1.83-6.38h-0.06L177.85,108.06z"/>
		<path d="M188.42,103.83v-0.04l-2.78-4.18h1.56l2.09,3.27h0.05l2.11-3.27h1.48l-2.87,4.22v0.04l2.81,4.2h-1.54l-2.1-3.22h-0.04
			l-2.13,3.22h-1.45L188.42,103.83z"/>
		<path d="M196.33,108.06v-3.46l-2.98-4.99h1.46l2.16,3.73h0.04l2.16-3.73h1.45l-2.98,4.99v3.46H196.33z"/>
	</g>
	<g>
		<path d="M201.22,107.17l4.63-6.38v-0.05h-4.49v-1.13h6.1v0.9l-4.61,6.38v0.04h4.72v1.14h-6.35V107.17z"/>
	</g>
	<g>
		<path d="M7.83,120.95c0-1.08,0.83-1.74,2.29-1.82l1.69-0.1v-0.47c0-0.69-0.46-1.1-1.24-1.1c-0.73,0-1.19,0.35-1.3,0.9h-1.2
			c0.07-1.11,1.02-1.93,2.54-1.93c1.49,0,2.45,0.79,2.45,2.03v4.25h-1.21v-1.01h-0.03c-0.36,0.69-1.14,1.12-1.95,1.12
			C8.67,122.81,7.83,122.06,7.83,120.95z M11.81,120.39v-0.49L10.29,120c-0.76,0.05-1.18,0.39-1.18,0.91c0,0.54,0.45,0.89,1.12,0.89
			C11.12,121.81,11.81,121.2,11.81,120.39z"/>
		<path d="M15.59,121.65h-0.02v1.05h-1.23v-8.46h1.27v3.34h0.03c0.37-0.71,1.07-1.15,1.95-1.15c1.55,0,2.57,1.23,2.57,3.18
			c0,1.96-1.01,3.19-2.57,3.19C16.67,122.81,15.97,122.37,15.59,121.65z M15.6,119.62c0,1.28,0.67,2.12,1.63,2.12
			c1,0,1.61-0.81,1.61-2.12c0-1.29-0.62-2.12-1.61-2.12C16.27,117.51,15.6,118.35,15.6,119.62z"/>
		<path d="M25.21,118.66c-0.13-0.66-0.62-1.18-1.45-1.18c-0.98,0-1.62,0.81-1.62,2.14c0,1.35,0.65,2.14,1.63,2.14
			c0.78,0,1.29-0.43,1.44-1.14h1.22c-0.13,1.31-1.18,2.2-2.67,2.2c-1.76,0-2.91-1.21-2.91-3.2c0-1.96,1.15-3.19,2.9-3.19
			c1.59,0,2.55,1.02,2.67,2.23H25.21z"/>
		<path d="M27.05,119.62c0-1.95,1.03-3.18,2.58-3.18c0.88,0,1.59,0.45,1.93,1.12h0.02v-3.32h1.27v8.46h-1.23v-1.05h-0.02
			c-0.36,0.7-1.07,1.15-1.96,1.15C28.08,122.81,27.05,121.57,27.05,119.62z M28.35,119.62c0,1.3,0.63,2.12,1.63,2.12
			c0.97,0,1.62-0.83,1.62-2.12c0-1.28-0.65-2.12-1.62-2.12C28.97,117.51,28.35,118.33,28.35,119.62z"/>
		<path d="M39.44,120.89c-0.18,1.12-1.24,1.93-2.65,1.93c-1.81,0-2.91-1.22-2.91-3.17c0-1.93,1.11-3.22,2.85-3.22
			c1.71,0,2.78,1.21,2.78,3.08v0.43h-4.35v0.08c0,1.07,0.64,1.78,1.66,1.78c0.72,0,1.25-0.36,1.42-0.9H39.44z M35.16,119.05h3.08
			c-0.03-0.94-0.63-1.61-1.51-1.61S35.23,118.12,35.16,119.05z"/>
		<path d="M40.86,117.54h-0.85v-0.99h0.85v-0.6c0-1.2,0.56-1.76,1.82-1.76c0.26,0,0.54,0.03,0.71,0.06v0.94
			c-0.12-0.02-0.29-0.04-0.46-0.04c-0.55,0-0.81,0.28-0.81,0.82v0.58h1.25v0.99h-1.23v5.16h-1.27V117.54z"/>
		<path d="M44.3,123.18h1.27c0.18,0.52,0.74,0.86,1.46,0.86c0.99,0,1.58-0.56,1.58-1.41v-1.01h-0.02c-0.35,0.67-1.07,1.11-1.95,1.11
			c-1.55,0-2.56-1.21-2.56-3.13c0-1.94,1.01-3.16,2.59-3.16c0.87,0,1.59,0.44,1.96,1.15h0.02v-1.05h1.23v6.05
			c0,1.47-1.14,2.43-2.89,2.43C45.54,125.02,44.46,124.25,44.3,123.18z M48.62,119.6c0-1.27-0.65-2.1-1.64-2.1
			c-0.97,0-1.61,0.81-1.61,2.1c0,1.29,0.63,2.07,1.61,2.07C47.97,121.68,48.62,120.88,48.62,119.6z"/>
		<path d="M51.18,114.25h1.25v3.32h0.03c0.34-0.72,1.01-1.14,1.95-1.14c1.35,0,2.16,0.9,2.16,2.3v3.97h-1.27v-3.73
			c0-0.91-0.46-1.45-1.35-1.45c-0.94,0-1.51,0.64-1.51,1.62v3.56h-1.27V114.25z"/>
		<path d="M57.74,114.82c0-0.4,0.33-0.73,0.73-0.73s0.73,0.32,0.73,0.73c0,0.4-0.32,0.73-0.73,0.73S57.74,115.22,57.74,114.82z
			 M57.84,116.54h1.27v6.16h-1.27V116.54z"/>
		<path d="M61.71,123c0,1.25-0.65,1.85-2.02,1.85c-0.06,0-0.26,0-0.29-0.01v-1c0.02,0,0.16,0.01,0.18,0.01
			c0.63,0,0.86-0.23,0.86-0.86v-6.45h1.27V123z M60.33,114.82c0-0.4,0.33-0.73,0.73-0.73c0.41,0,0.73,0.32,0.73,0.73
			c0,0.4-0.32,0.73-0.73,0.73C60.66,115.54,60.33,115.22,60.33,114.82z"/>
		<path d="M66.81,116.54h1.49l-2.55,2.65l2.65,3.51h-1.47l-2.09-2.74l-0.53,0.52v2.21h-1.27v-8.46h1.27v4.93h0.01L66.81,116.54z"/>
		<path d="M69.1,114.25h1.27v8.46H69.1V114.25z"/>
		<path d="M71.67,116.54h1.21v1.04h0.03c0.28-0.69,0.92-1.14,1.75-1.14c0.86,0,1.48,0.44,1.72,1.21h0.03
			c0.32-0.75,1.04-1.21,1.92-1.21c1.22,0,2.02,0.81,2.02,2.03v4.24h-1.27v-3.93c0-0.8-0.43-1.25-1.18-1.25s-1.27,0.56-1.27,1.34
			v3.85h-1.24v-4.03c0-0.71-0.45-1.16-1.17-1.16c-0.75,0-1.28,0.59-1.28,1.38v3.81h-1.27V116.54z"/>
		<path d="M81.56,116.54h1.21v1.03h0.03c0.33-0.7,0.99-1.14,1.94-1.14c1.36,0,2.14,0.87,2.14,2.28v3.99h-1.27v-3.74
			c0-0.93-0.43-1.44-1.31-1.44c-0.89,0-1.46,0.63-1.46,1.59v3.59h-1.27V116.54z"/>
		<path d="M87.82,119.62c0-1.98,1.17-3.19,2.92-3.19s2.92,1.21,2.92,3.19c0,1.99-1.16,3.2-2.92,3.2S87.82,121.61,87.82,119.62z
			 M92.38,119.62c0-1.37-0.64-2.15-1.63-2.15s-1.63,0.79-1.63,2.15c0,1.37,0.64,2.16,1.63,2.16
			C91.74,121.78,92.38,120.99,92.38,119.62z"/>
		<path d="M100.45,119.62c0,1.95-1.03,3.19-2.57,3.19c-0.88,0-1.59-0.43-1.94-1.12h-0.03v3.05h-1.27v-8.2h1.22v1.06h0.02
			c0.36-0.71,1.07-1.16,1.96-1.16C99.42,116.44,100.45,117.67,100.45,119.62z M99.15,119.62c0-1.29-0.63-2.12-1.63-2.12
			c-0.97,0-1.62,0.84-1.62,2.12c0,1.28,0.64,2.12,1.62,2.12C98.53,121.74,99.15,120.92,99.15,119.62z"/>
		<path d="M105.7,117.6h0.03v-1.06h1.23v8.2h-1.27v-3.08h-0.02c-0.35,0.69-1.07,1.14-1.95,1.14c-1.55,0-2.56-1.24-2.56-3.19
			s1.01-3.18,2.59-3.18C104.63,116.44,105.33,116.89,105.7,117.6z M105.69,119.62c0-1.28-0.67-2.12-1.64-2.12
			c-0.99,0-1.61,0.81-1.61,2.12s0.62,2.12,1.61,2.12C105.02,121.74,105.69,120.9,105.69,119.62z"/>
		<path d="M108.21,116.54h1.21v1.05h0.03c0.21-0.72,0.76-1.15,1.48-1.15c0.18,0,0.34,0.03,0.43,0.05v1.18
			c-0.1-0.04-0.32-0.07-0.57-0.07c-0.81,0-1.32,0.54-1.32,1.42v3.69h-1.27V116.54z"/>
		<path d="M114.41,116.43c1.44,0,2.37,0.8,2.41,1.93h-1.19c-0.07-0.6-0.51-0.97-1.22-0.97c-0.69,0-1.14,0.33-1.14,0.83
			c0,0.39,0.28,0.65,0.95,0.8l1,0.23c1.26,0.29,1.74,0.79,1.74,1.68c0,1.12-1.05,1.9-2.5,1.9c-1.54,0-2.47-0.76-2.58-1.93h1.25
			c0.12,0.64,0.56,0.96,1.33,0.96c0.76,0,1.23-0.32,1.23-0.82c0-0.4-0.23-0.63-0.9-0.79l-1-0.23c-1.17-0.27-1.75-0.83-1.75-1.73
			C112.03,117.18,112.99,116.43,114.41,116.43z"/>
		<path d="M119.58,115.08v1.46h1.17v1h-1.17v3.4c0,0.53,0.23,0.77,0.75,0.77c0.13,0,0.33-0.01,0.42-0.03v1
			c-0.14,0.04-0.42,0.06-0.7,0.06c-1.25,0-1.73-0.47-1.73-1.66v-3.54h-0.9v-1h0.9v-1.46H119.58z"/>
		<path d="M127.07,122.7h-1.21v-1.04h-0.03c-0.34,0.74-0.97,1.15-1.91,1.15c-1.34,0-2.16-0.87-2.16-2.29v-3.99h1.27v3.74
			c0,0.94,0.45,1.44,1.32,1.44c0.91,0,1.46-0.63,1.46-1.59v-3.59h1.27V122.7z"/>
		<path d="M131.37,122.7h-1.36l-2.22-6.16h1.35l1.55,4.93h0.02l1.55-4.93h1.32L131.37,122.7z"/>
		<path d="M140.75,122.7h-1.32l-1.29-4.62h-0.03l-1.28,4.62h-1.31l-1.69-6.16h1.27l1.12,4.85h0.02l1.28-4.85h1.22l1.29,4.85h0.03
			l1.12-4.85h1.25L140.75,122.7z"/>
		<path d="M145.49,120.44l-1.37,2.27h-1.37l2.03-3.08l-2-3.09h1.42l1.35,2.23h0.02l1.33-2.23h1.39l-2.02,3.05l2,3.12h-1.39
			l-1.36-2.27H145.49z"/>
		<path d="M149.2,124.97v-1.03c0.09,0.02,0.3,0.02,0.41,0.02c0.59,0,0.9-0.25,1.1-0.88c0-0.01,0.11-0.38,0.11-0.38l-2.23-6.17h1.37
			l1.56,5.02h0.02l1.56-5.02h1.34l-2.31,6.49c-0.53,1.49-1.14,1.97-2.41,1.97C149.61,125,149.29,124.99,149.2,124.97z"/>
		<path d="M155.05,121.89l3.29-4.32v-0.02h-3.26v-1.01h4.72v0.87l-3.21,4.27v0.02h3.24v1.01h-4.78V121.89z"/>
	</g>
	<g>
		<path d="M7.96,134.55c0-2.68,1.22-4.38,3.24-4.38s3.23,1.69,3.23,4.37c0,2.7-1.2,4.4-3.23,4.4
			C9.16,138.95,7.96,137.25,7.96,134.55z M13.1,134.55c0-2.02-0.7-3.28-1.9-3.28s-1.91,1.26-1.91,3.28c0,2.04,0.69,3.29,1.91,3.29
			C12.42,137.85,13.1,136.6,13.1,134.55z"/>
		<path d="M17.74,131.64h-0.03l-2.21,1.52v-1.24l2.23-1.58h1.29v8.46h-1.28V131.64z"/>
		<path d="M23.97,130.18c1.66,0,2.78,1.06,2.78,2.39c0,0.97-0.46,1.65-1.97,3.16l-1.92,1.93v0.03h4.03v1.11h-5.78v-0.9l2.98-3.01
			c1.11-1.14,1.37-1.57,1.37-2.23c0-0.78-0.59-1.39-1.48-1.39c-0.97,0-1.7,0.66-1.7,1.56h-1.24
			C21.02,131.29,22.27,130.18,23.97,130.18z"/>
		<path d="M29.89,133.92h0.99c0.97,0,1.62-0.57,1.62-1.36s-0.51-1.31-1.51-1.31c-0.94,0-1.62,0.5-1.68,1.34h-1.23
			c0.11-1.48,1.26-2.42,2.91-2.42c1.72,0,2.78,0.94,2.78,2.2c0,1.06-0.74,1.77-1.78,1.99v0.03c1.24,0.11,2.07,0.87,2.07,2.05
			c0,1.49-1.3,2.5-3.06,2.5c-1.81,0-3.02-1-3.11-2.46h1.26c0.06,0.83,0.79,1.36,1.85,1.36c1.03,0,1.72-0.59,1.73-1.41
			c0.01-0.97-0.69-1.51-1.82-1.51h-1.03V133.92z"/>
		<path d="M39.35,137.11h-4.23v-1.14c0.73-1.36,1.69-2.88,3.59-5.63h1.9v5.67h1.17v1.1h-1.17v1.68h-1.26V137.11z M36.34,136.02h3.02
			v-4.67h-0.02c-1.46,2.1-2.33,3.43-3,4.63V136.02z"/>
		<path d="M42.82,136.44h1.25c0.09,0.84,0.81,1.41,1.75,1.41c1.07,0,1.81-0.74,1.81-1.8c0-1.04-0.74-1.79-1.8-1.79
			c-0.76,0-1.36,0.32-1.72,0.94h-1.15l0.42-4.88h5.04v1.11h-3.98l-0.26,2.68h0.03c0.38-0.57,1.08-0.89,1.92-0.89
			c1.62,0,2.78,1.17,2.78,2.79c0,1.73-1.28,2.93-3.11,2.93C44.12,138.95,42.89,137.92,42.82,136.44z"/>
		<path d="M49.85,134.68c0-2.83,1.25-4.51,3.37-4.51c1.51,0,2.68,0.88,2.93,2.21h-1.32c-0.23-0.7-0.81-1.11-1.62-1.11
			c-1.34,0-2.08,1.23-2.1,3.33h0.02c0.34-0.77,1.2-1.37,2.34-1.37c1.62,0,2.78,1.18,2.78,2.78c0,1.7-1.3,2.93-3.09,2.93
			C51.45,138.95,49.85,137.74,49.85,134.68z M54.96,136.07c0-1.03-0.74-1.76-1.78-1.76s-1.8,0.73-1.8,1.73c0,1.01,0.79,1.8,1.79,1.8
			S54.96,137.06,54.96,136.07z"/>
		<path d="M61.61,131.47v-0.03h-4.46v-1.11h5.75v1.14l-3.67,7.32h-1.38L61.61,131.47z"/>
		<path d="M63.92,136.5c0-1.08,0.76-1.93,1.88-2.17v-0.03c-0.96-0.27-1.57-0.99-1.57-1.89c0-1.29,1.22-2.24,2.89-2.24
			c1.68,0,2.88,0.94,2.88,2.25c0,0.88-0.6,1.6-1.56,1.88v0.03c1.11,0.25,1.88,1.1,1.88,2.17c0,1.44-1.33,2.44-3.2,2.44
			C65.25,138.95,63.92,137.93,63.92,136.5z M68.96,136.41c0-0.87-0.76-1.49-1.84-1.49s-1.85,0.62-1.85,1.49
			c0,0.86,0.77,1.48,1.85,1.48S68.96,137.27,68.96,136.41z M68.71,132.54c0-0.78-0.66-1.32-1.59-1.32c-0.94,0-1.59,0.54-1.59,1.32
			c0,0.77,0.65,1.32,1.59,1.32C68.05,133.87,68.71,133.32,68.71,132.54z"/>
		<path d="M71.39,136.76h1.32c0.22,0.71,0.83,1.1,1.65,1.1c1.38,0,2.08-1.27,2.09-3.35h-0.02c-0.34,0.83-1.23,1.38-2.32,1.38
			c-1.59,0-2.81-1.16-2.81-2.78c0-1.7,1.3-2.93,3.09-2.93c1.63,0,3.33,1.11,3.33,4.27c0,2.83-1.25,4.51-3.37,4.51
			C72.81,138.95,71.63,138.07,71.39,136.76z M76.19,133.08c0-1.01-0.79-1.79-1.79-1.79s-1.8,0.78-1.8,1.76
			c0,1.03,0.76,1.76,1.79,1.76C75.42,134.82,76.19,134.08,76.19,133.08z"/>
	</g>
	<g>
		<path d="M78.71,134.55c0-2.68,1.22-4.38,3.24-4.38s3.23,1.69,3.23,4.37c0,2.7-1.2,4.4-3.23,4.4
			C79.92,138.95,78.71,137.25,78.71,134.55z M83.86,134.55c0-2.02-0.7-3.28-1.9-3.28s-1.91,1.26-1.91,3.28
			c0,2.04,0.69,3.29,1.91,3.29C83.17,137.85,83.86,136.6,83.86,134.55z"/>
	</g>
	<g>
		<path class="st0" d="M180.86,189.01H0.25c-0.14,0-0.25-0.11-0.25-0.25v-21.81c0-0.14,0.11-0.25,0.25-0.25h180.61
			c0.14,0,0.25,0.11,0.25,0.25v21.81C181.11,188.9,181,189.01,180.86,189.01z M0.5,188.51h180.11V167.2H0.5V188.51z"/>
	</g>
	<g>
		<path d="M11.18,181.62c0.74,0,1.36-0.11,1.87-0.34c0.51-0.22,0.89-0.52,1.15-0.9c0.25-0.38,0.38-0.8,0.38-1.26
			c0-0.54-0.14-0.98-0.43-1.3c-0.28-0.32-0.63-0.56-1.03-0.71c-0.4-0.16-0.91-0.31-1.54-0.45c-0.46-0.11-0.82-0.21-1.08-0.3
			c-0.26-0.09-0.48-0.21-0.65-0.36c-0.17-0.15-0.26-0.35-0.26-0.59c0-0.34,0.15-0.62,0.45-0.83c0.3-0.21,0.76-0.31,1.37-0.31
			c0.38,0,0.76,0.06,1.16,0.17c0.4,0.11,0.78,0.28,1.15,0.49l0.49-1.21c-0.36-0.24-0.79-0.42-1.28-0.55c-0.5-0.13-1-0.19-1.51-0.19
			c-0.74,0-1.36,0.11-1.87,0.34c-0.51,0.22-0.89,0.53-1.14,0.91c-0.25,0.38-0.38,0.8-0.38,1.27c0,0.55,0.14,0.99,0.43,1.31
			c0.28,0.32,0.62,0.56,1.02,0.71c0.4,0.15,0.91,0.3,1.55,0.46c0.46,0.11,0.82,0.21,1.08,0.3c0.26,0.09,0.48,0.21,0.65,0.37
			c0.17,0.16,0.26,0.35,0.26,0.59c0,0.33-0.15,0.59-0.46,0.79c-0.31,0.2-0.77,0.3-1.4,0.3c-0.5,0-1.01-0.09-1.51-0.26
			c-0.5-0.17-0.92-0.39-1.27-0.67l-0.54,1.21c0.35,0.3,0.83,0.55,1.43,0.73C9.91,181.53,10.53,181.62,11.18,181.62L11.18,181.62
			L11.18,181.62z M22.27,174.41v-1.31h-6.13v8.4h1.56v-3.22h4.06v-1.32H17.7v-2.56H22.27L22.27,174.41z M31.01,181.62
			c0.69,0,1.32-0.12,1.89-0.36c0.57-0.24,1.05-0.59,1.45-1.04l-1.01-0.96c-0.61,0.66-1.36,1-2.24,1c-0.58,0-1.09-0.13-1.55-0.38
			c-0.46-0.25-0.81-0.6-1.07-1.05c-0.26-0.45-0.38-0.96-0.38-1.52c0-0.57,0.13-1.08,0.38-1.52c0.26-0.45,0.61-0.8,1.07-1.05
			s0.97-0.38,1.55-0.38c0.89,0,1.64,0.33,2.24,0.98l1.01-0.95c-0.39-0.46-0.87-0.8-1.44-1.04c-0.57-0.24-1.2-0.36-1.88-0.36
			c-0.85,0-1.61,0.19-2.3,0.56c-0.68,0.37-1.22,0.89-1.61,1.54c-0.39,0.66-0.59,1.4-0.59,2.22c0,0.82,0.19,1.56,0.58,2.22
			c0.39,0.66,0.92,1.17,1.61,1.54C29.39,181.43,30.16,181.62,31.01,181.62L31.01,181.62L31.01,181.62z M39.78,181.62
			c0.86,0,1.63-0.19,2.32-0.56c0.69-0.37,1.23-0.89,1.62-1.54c0.39-0.66,0.59-1.4,0.59-2.22c0-0.82-0.2-1.56-0.59-2.22
			c-0.39-0.66-0.93-1.17-1.62-1.54c-0.69-0.37-1.46-0.56-2.32-0.56c-0.86,0-1.63,0.19-2.32,0.56c-0.69,0.37-1.23,0.89-1.62,1.55
			c-0.39,0.66-0.59,1.4-0.59,2.21c0,0.82,0.2,1.55,0.59,2.21c0.39,0.66,0.93,1.18,1.62,1.55C38.15,181.43,38.92,181.62,39.78,181.62
			L39.78,181.62L39.78,181.62z M39.78,180.25c-0.56,0-1.06-0.13-1.51-0.38c-0.45-0.25-0.8-0.6-1.06-1.06
			c-0.26-0.45-0.38-0.96-0.38-1.52c0-0.56,0.13-1.07,0.38-1.52c0.26-0.45,0.61-0.8,1.06-1.06c0.45-0.25,0.95-0.38,1.51-0.38
			c0.56,0,1.06,0.13,1.51,0.38c0.45,0.25,0.8,0.6,1.06,1.06c0.26,0.45,0.38,0.96,0.38,1.52c0,0.56-0.13,1.07-0.38,1.52
			c-0.26,0.45-0.61,0.8-1.06,1.06C40.84,180.13,40.34,180.25,39.78,180.25L39.78,180.25L39.78,180.25z M55.16,181.5l-0.01-8.4h-1.28
			l-3.28,5.57l-3.34-5.57h-1.28v8.4h1.49V176l2.76,4.54h0.7l2.76-4.61l0.01,5.57H55.16L55.16,181.5z M60.9,173.1h-3.46v8.4H59v-2.42
			h1.9c0.73,0,1.36-0.12,1.9-0.36c0.54-0.24,0.95-0.59,1.24-1.04c0.29-0.45,0.43-0.98,0.43-1.59c0-0.62-0.14-1.15-0.43-1.6
			c-0.29-0.45-0.7-0.79-1.24-1.03C62.26,173.22,61.63,173.1,60.9,173.1L60.9,173.1L60.9,173.1z M60.83,177.76H59v-3.34h1.82
			c0.68,0,1.2,0.14,1.55,0.43c0.35,0.29,0.53,0.7,0.53,1.24c0,0.54-0.18,0.95-0.53,1.24C62.02,177.61,61.51,177.76,60.83,177.76
			L60.83,177.76L60.83,177.76z M72.45,181.5h1.63l-3.79-8.4h-1.54l-3.78,8.4h1.61l0.83-1.94h4.2L72.45,181.5L72.45,181.5z
			 M67.94,178.33l1.57-3.67l1.58,3.67H67.94L67.94,178.33z M79.05,181.62c0.69,0,1.32-0.12,1.89-0.36c0.57-0.24,1.05-0.59,1.45-1.04
			l-1.01-0.96c-0.61,0.66-1.36,1-2.24,1c-0.58,0-1.09-0.13-1.55-0.38c-0.46-0.25-0.81-0.6-1.07-1.05c-0.26-0.45-0.38-0.96-0.38-1.52
			c0-0.57,0.13-1.08,0.38-1.52c0.26-0.45,0.61-0.8,1.07-1.05s0.97-0.38,1.55-0.38c0.89,0,1.64,0.33,2.24,0.98l1.01-0.95
			c-0.39-0.46-0.87-0.8-1.44-1.04c-0.57-0.24-1.2-0.36-1.88-0.36c-0.85,0-1.61,0.19-2.3,0.56c-0.68,0.37-1.22,0.89-1.61,1.54
			c-0.39,0.66-0.59,1.4-0.59,2.22c0,0.82,0.19,1.56,0.58,2.22c0.39,0.66,0.92,1.17,1.61,1.54
			C77.44,181.43,78.21,181.62,79.05,181.62L79.05,181.62L79.05,181.62z M85.61,181.5h1.56v-7.08h2.78v-1.32h-7.13v1.32h2.78V181.5
			L85.61,181.5z M96.17,181.5h1.56v-7.08h2.78v-1.32h-7.13v1.32h2.78V181.5L96.17,181.5z M103.26,180.19v-2.32h4.06v-1.28h-4.06
			v-2.18h4.57v-1.31h-6.13v8.4h6.3v-1.31H103.26L103.26,180.19z M116.84,181.5l-3.16-4.34l2.94-4.06h-1.69l-2.12,2.99l-2.15-2.99
			h-1.76l2.95,4.12l-3.12,4.28h1.78l2.26-3.19l2.28,3.19H116.84L116.84,181.5z M119.78,181.5h1.56v-7.08h2.78v-1.32H117v1.32h2.78
			V181.5L119.78,181.5z M134.54,173.1v3.47h-4.34v-3.47h-1.56v8.4h1.56v-3.6h4.34v3.6h1.56v-8.4H134.54L134.54,173.1z
			 M139.93,180.19v-2.32h4.06v-1.28h-4.06v-2.18h4.57v-1.31h-6.13v8.4h6.3v-1.31H139.93L139.93,180.19z M152.71,181.5h1.63
			l-3.79-8.4h-1.54l-3.78,8.4h1.61l0.83-1.94h4.2L152.71,181.5L152.71,181.5z M148.2,178.33l1.57-3.67l1.58,3.67H148.2L148.2,178.33
			z M161.54,173.1l-2.82,6.48l-2.8-6.48h-1.69l3.67,8.4h1.54l3.66-8.4H161.54L161.54,173.1z M171.09,173.1h-1.54l-2.48,4.09
			l-2.46-4.09h-1.67l3.3,5.46v2.94h1.56v-2.96L171.09,173.1L171.09,173.1z"/>
	</g>
	<g>
		<path d="M7.61,207.18l2.47-8h2.91l2.45,8h-2.47l-0.39-1.6H10.3l-0.4,1.6H7.61z M11.39,201.13l-0.7,2.81h1.49l-0.68-2.81H11.39z"/>
		<path d="M16.42,199.18h3.77c1.52,0,2.55,0.72,2.55,1.96c0,1.07-0.73,1.62-1.49,1.73v0.11c0.82,0.04,1.84,0.6,1.84,1.92
			c0,1.47-1.28,2.28-2.77,2.28h-3.91V199.18z M18.71,202.35h0.81c0.69,0,0.98-0.37,0.98-0.81c0-0.47-0.34-0.8-0.94-0.8h-0.86V202.35
			z M18.71,205.62h0.89c0.81,0,1.15-0.41,1.15-0.94c0-0.54-0.36-0.93-1.11-0.93h-0.94V205.62z"/>
		<path d="M26.4,203.58c0,1.2,0.46,1.85,1.26,1.85c0.76,0,1.17-0.59,1.18-1.35h2.19v0.32c-0.01,1.76-1.42,2.92-3.39,2.92
			c-2.33,0-3.62-1.47-3.62-3.76v-0.77c0-2.29,1.28-3.75,3.62-3.75c1.97,0,3.38,1.15,3.39,2.94v0.32h-2.19
			c-0.01-0.78-0.43-1.37-1.18-1.37c-0.8,0-1.26,0.66-1.26,1.86V203.58z"/>
		<path d="M35.75,199.18c2.57,0,3.66,1.55,3.66,3.96c0,2.44-1.13,4.04-3.66,4.04h-3.38v-8H35.75z M34.69,205.39h0.66
			c1.22,0,1.7-0.73,1.7-2.19c0-1.46-0.48-2.23-1.7-2.23h-0.66V205.39z"/>
		<path d="M46.33,207.18h-5.61v-8h5.61v1.79h-3.32v1.39h3.11v1.63h-3.11v1.39h3.32V207.18z"/>
		<path d="M47.83,207.18v-8h5.59V201h-3.28v1.59h2.96v1.76h-2.96v2.83H47.83z"/>
		<path d="M59.24,201.88c-0.06-0.51-0.47-0.97-1.21-0.97c-0.87,0-1.34,0.65-1.34,1.82v0.87c0,0.98,0.29,1.86,1.39,1.86
			c0.83,0,1.22-0.53,1.22-1.05v-0.16h-1.11v-1.55h3.28v1.52c0,1.56-0.97,3.11-3.45,3.11c-2.63,0-3.68-1.72-3.68-3.71v-0.91
			c0-2.11,1.28-3.65,3.7-3.65c2.31,0,3.4,1.44,3.43,2.84H59.24z"/>
		<path d="M67.64,207.18v-3.09h-2.49v3.09h-2.31v-8h2.31v3.06h2.49v-3.06h2.31v8H67.64z"/>
		<path d="M71.65,207.18v-8h2.31v8H71.65z"/>
		<path d="M77.32,204.32c0,0.6,0.32,0.97,0.85,0.97c0.6,0,0.82-0.36,0.82-0.99v-5.12h2.32v5.15c0,1.99-1.19,2.99-3.12,2.99
			c-2.2,0-3.09-1.51-3.09-3H77.32z"/>
		<path d="M87.52,202.67l2.77,4.51h-2.69l-1.76-2.99l-0.6,0.74v2.25h-2.31v-8h2.31v3.21h0.11l2.44-3.21h2.43L87.52,202.67z"/>
		<path d="M96.45,207.18h-5.33v-8h2.31v6.09h3.01V207.18z"/>
		<path d="M97.61,207.18v-8h2.41l1.8,3.84h0.08l1.81-3.84h2.39v8h-2.08v-4.6h-0.11l-1.45,3.17h-1.25l-1.46-3.17h-0.11v4.6H97.61z"/>
		<path d="M107.79,207.18v-8h1.76l2.85,4.11h0.09v-4.11h2.13v8h-1.74l-2.87-4.17h-0.09v4.17H107.79z"/>
		<path d="M119.7,207.32c-2.39,0-3.72-1.46-3.72-3.71v-0.83c0-2.27,1.33-3.73,3.72-3.73c2.4,0,3.71,1.48,3.71,3.73v0.83
			C123.42,205.86,122.11,207.32,119.7,207.32z M119.7,200.89c-0.83,0-1.35,0.64-1.35,1.86v0.87c0,1.22,0.52,1.85,1.35,1.85
			s1.35-0.63,1.35-1.85v-0.87C121.05,201.54,120.53,200.89,119.7,200.89z"/>
		<path d="M131.26,202.08c0,1.55-0.96,2.85-2.94,2.85h-1.24v2.25h-2.31v-8h3.57C130.33,199.18,131.26,200.55,131.26,202.08z
			 M127.75,200.9h-0.67v2.34h0.67c0.71,0,1.17-0.42,1.17-1.17C128.93,201.31,128.46,200.9,127.75,200.9z"/>
		<path d="M137.23,207.84l-0.4-0.63c-0.29,0.07-0.62,0.11-0.95,0.11c-2.3,0-3.72-1.51-3.72-3.73v-0.79c0-2.24,1.42-3.76,3.72-3.76
			c2.3,0,3.71,1.52,3.71,3.76v0.79c0,1.2-0.4,2.17-1.14,2.83l0.9,1.42H137.23z M135.79,205.67c0.04,0,0.06-0.01,0.09-0.02
			l-0.66-1.05h1.88l0.07,0.09c0.11-0.28,0.18-0.63,0.18-1.05v-0.87c0-1.23-0.59-1.89-1.46-1.89c-0.87,0-1.46,0.66-1.46,1.89v0.87
			C134.42,204.95,134.96,205.63,135.79,205.67z"/>
		<path d="M147.66,201.9c0,1.29-0.91,2.04-1.41,2.26l1.58,3.02h-2.55l-1.3-2.72h-0.75v2.72h-2.27v-8h3.59
			C146.59,199.18,147.66,200.27,147.66,201.9z M144.19,202.9c0.6,0,1.08-0.32,1.08-1c0-0.69-0.5-1.04-1.07-1.04h-0.97v2.04H144.19z"
			/>
		<path d="M150.8,204.78c0.02,0.42,0.45,0.83,1.25,0.83c0.79,0,1.09-0.32,1.09-0.7c0-0.44-0.4-0.6-1.14-0.74l-1.01-0.19
			c-1.31-0.24-2.24-0.91-2.24-2.35c0-1.62,1.32-2.57,3.27-2.57c2.19,0,3.21,1.24,3.22,2.48h-2.1c-0.03-0.38-0.38-0.8-1.12-0.8
			c-0.66,0-0.97,0.32-0.97,0.7c0,0.37,0.39,0.57,1.05,0.68l1.06,0.18c1.14,0.19,2.24,0.77,2.24,2.37c0,1.55-1.12,2.67-3.42,2.67
			c-2.53,0-3.35-1.31-3.37-2.54H150.8z"/>
		<path d="M158.16,207.18v-6.13h-2.07v-1.86h6.46v1.86h-2.07v6.13H158.16z"/>
		<path d="M168.15,204.1v-4.92h2.32v5.23c0,1.76-1.34,2.91-3.49,2.91c-2.15,0-3.49-1.14-3.49-2.91v-5.23h2.31v4.92
			c0,0.92,0.49,1.31,1.17,1.31S168.15,205.01,168.15,204.1z"/>
		<path d="M171.35,199.18h2.7l1.23,5.61h0.11l1.2-5.61h2.53l-2.36,8h-3.01L171.35,199.18z"/>
		<path d="M181.37,207.18l-1.99-8h2.4l0.83,5.01h0.11l1.2-5.01h1.8l1.19,5.01h0.11l0.81-5.01h2.4l-1.99,8h-2.17l-1.22-4.59h-0.08
			l-1.22,4.59H181.37z"/>
		<path d="M195.72,203.16l2.4,4.02h-2.59l-1.31-2.4h-0.09l-1.31,2.4h-2.45l2.3-4.03l-2.3-3.97h2.7l1.2,2.5h0.09l1.19-2.5h2.58
			L195.72,203.16z"/>
		<path d="M200.65,207.18v-2.51l-2.68-5.48h2.52l1.32,3.19h0.09l1.33-3.19h2.43l-2.68,5.41v2.58H200.65z"/>
		<path d="M206.22,205.73l3.33-4.63v-0.11h-3.29v-1.81h6.05v1.45l-3.32,4.62v0.11h3.46v1.81h-6.23V205.73z"/>
	</g>
	<g>
		<path d="M7.91,220c0-1.17,0.81-1.92,2.28-1.92h1.38v-0.48c0-0.38-0.26-0.59-0.67-0.59c-0.42,0-0.67,0.24-0.69,0.57H8.13
			c0.03-0.99,0.63-2.14,2.8-2.14c1.58,0,2.84,0.58,2.84,2.25v4.14h-2.09v-0.74h-0.11c-0.17,0.4-0.64,0.83-1.58,0.83
			C8.77,221.91,7.91,221.21,7.91,220z M11.57,219.78v-0.58h-0.7c-0.47,0-0.77,0.24-0.77,0.6c0,0.39,0.35,0.6,0.71,0.6
			C11.2,220.41,11.57,220.16,11.57,219.78z"/>
		<path d="M17.6,220.82h-0.11v1h-2.24v-8.42h2.24v3.12h0.11c0.22-0.65,0.88-1.05,1.76-1.05c1.44,0,2.26,1.07,2.26,2.94v0.53
			c0,1.87-0.83,2.95-2.26,2.95C18.49,221.88,17.83,221.47,17.6,220.82z M19.3,218.86v-0.38c0-0.84-0.33-1.32-0.9-1.32
			s-0.91,0.49-0.91,1.31v0.42c0,0.8,0.35,1.3,0.91,1.3C18.97,220.19,19.3,219.7,19.3,218.86z"/>
		<path d="M22.62,218.41c0-1.83,1.19-3.01,3.05-3.01c1.74,0,2.84,1.03,2.85,2.58h-1.99c-0.02-0.5-0.32-0.9-0.78-0.9
			c-0.53,0-0.87,0.52-0.87,1.33v0.42c0,0.92,0.32,1.44,0.87,1.44c0.51,0,0.76-0.31,0.78-0.88h1.99c-0.01,1.59-1.06,2.55-2.87,2.55
			c-1.9,0-3.04-1.15-3.04-3.09V218.41z"/>
		<path d="M33.52,216.51h0.11v-3.11h2.24v8.42h-2.24v-1.01h-0.11c-0.22,0.64-0.89,1.07-1.78,1.07c-1.38,0-2.26-1.05-2.26-2.94v-0.54
			c0-1.9,0.88-2.93,2.27-2.93C32.63,215.46,33.29,215.87,33.52,216.51z M31.81,218.48v0.39c0,0.88,0.38,1.32,0.9,1.32
			s0.91-0.43,0.91-1.31v-0.42c0-0.87-0.39-1.29-0.91-1.29C32.18,217.16,31.81,217.6,31.81,218.48z"/>
		<path d="M37.13,218.89v-0.45c0-2.08,1.4-3.04,3.05-3.04c1.79,0,3.01,1.14,3.01,3.04v0.67h-3.88v0.28c0,0.62,0.45,0.96,0.95,0.96
			c0.49,0,0.89-0.24,0.91-0.64h2c-0.02,0.93-0.82,2.24-2.9,2.24C38.43,221.94,37.13,220.97,37.13,218.89z M41.06,217.92
			L41.06,217.92c0-0.59-0.33-0.98-0.86-0.98c-0.52,0-0.89,0.39-0.89,0.97v0.01H41.06z"/>
		<path d="M45,217.3h-0.99v-1.65H45v-0.62c0-1.31,0.66-1.8,2.41-1.8c0.37,0,0.85,0.03,1.11,0.07v1.45
			c-0.11-0.02-0.39-0.03-0.61-0.03c-0.52,0-0.76,0.15-0.76,0.5v0.43h1.35v1.65h-1.29v4.52H45V217.3z"/>
		<path d="M53.59,221.56v-0.85h-0.11c-0.22,0.56-0.83,0.98-1.75,0.98c-1.37,0-2.25-1.01-2.25-2.98v-0.27c0-1.97,0.88-2.98,2.25-2.98
			c0.9,0,1.54,0.42,1.75,1.05h0.11v-0.99h2.23v6.26c0,1.87-1.8,2.34-3.25,2.34c-2.07,0-2.95-0.96-2.96-1.99h2.1
			c0.09,0.35,0.46,0.48,0.91,0.48C53.29,222.61,53.59,222.24,53.59,221.56z M51.81,218.48v0.36c0,0.88,0.37,1.32,0.9,1.32
			s0.89-0.45,0.89-1.3v-0.39c0-0.86-0.37-1.3-0.89-1.3C52.17,217.16,51.81,217.6,51.81,218.48z"/>
		<path d="M57.34,213.4h2.23v3.19h0.11c0.15-0.47,0.67-1.15,1.78-1.15c1.23,0,2.05,0.76,2.05,2.29v4.1h-2.23v-3.53
			c0-0.84-0.46-1.03-0.83-1.03c-0.45,0-0.88,0.35-0.88,1.09v3.47h-2.23V213.4z"/>
		<path d="M66.15,212.74c0.77,0,1.28,0.41,1.28,1.04s-0.5,1.03-1.28,1.03c-0.77,0-1.28-0.4-1.28-1.03
			C64.87,213.15,65.37,212.74,66.15,212.74z M65.04,215.52h2.23v6.3h-2.23V215.52z"/>
		<path d="M71.14,221.93c0,1.34-0.94,2.1-2.54,2.1c-0.23,0-0.58-0.02-0.71-0.04v-1.52c0.07,0.02,0.18,0.02,0.29,0.02
			c0.51,0,0.74-0.19,0.74-0.6v-6.38h2.23V221.93z M70.02,212.74c0.77,0,1.28,0.41,1.28,1.04s-0.5,1.03-1.28,1.03
			c-0.77,0-1.28-0.4-1.28-1.03C68.75,213.15,69.25,212.74,70.02,212.74z"/>
		<path d="M74.95,221.82h-2.24v-8.42h2.24v4.46h0.11l1.48-2.34h2.48l-2.06,2.7l2.21,3.6H76.6l-1.37-2.39l-0.28,0.38V221.82z"/>
		<path d="M80.24,213.4h2.24v8.42h-2.24V213.4z"/>
		<path d="M84.04,215.52h2.16v1.09h0.11c0.12-0.49,0.62-1.18,1.73-1.18c0.95,0,1.52,0.5,1.69,1.18h0.09c0.16-0.53,0.8-1.18,1.9-1.18
			c1.25,0,1.96,0.84,1.96,2.04v4.35h-2.23v-3.62c0-0.8-0.39-1-0.76-1c-0.43,0-0.77,0.29-0.77,1.02v3.59H87.8v-3.62
			c0-0.81-0.41-1-0.76-1c-0.4,0-0.76,0.25-0.76,1.01v3.6h-2.24V215.52z"/>
		<path d="M95.15,215.52h2.16v1.07h0.11c0.15-0.48,0.7-1.15,1.83-1.15c1.25,0,2.04,0.76,2.04,2.29v4.1h-2.23v-3.53
			c0-0.84-0.47-1.03-0.81-1.03c-0.46,0-0.86,0.35-0.86,1.09v3.47h-2.24V215.52z"/>
		<path d="M108.73,218.45v0.38c0,2-1.15,3.12-3.1,3.12c-1.96,0-3.12-1.11-3.12-3.11v-0.38c0-1.81,1.17-3.06,3.12-3.06
			C107.57,215.4,108.73,216.63,108.73,218.45z M104.79,218.42v0.5c0,0.62,0.15,1.39,0.84,1.39s0.84-0.77,0.84-1.39v-0.5
			c0-0.69-0.17-1.39-0.84-1.39S104.79,217.74,104.79,218.42z"/>
		<path d="M112.33,220.82h-0.11v3.09h-2.24v-8.39h2.24v1h0.11c0.25-0.67,0.91-1.05,1.76-1.05c1.44,0,2.26,1.07,2.26,2.94v0.53
			c0,1.87-0.83,2.95-2.26,2.95C113.24,221.88,112.59,221.49,112.33,220.82z M114.03,218.86v-0.38c0-0.84-0.33-1.32-0.9-1.32
			c-0.56,0-0.91,0.49-0.91,1.31v0.42c0,0.8,0.35,1.29,0.91,1.29C113.7,220.19,114.03,219.7,114.03,218.86z"/>
		<path d="M121.4,216.52h0.11v-1h2.24v8.39h-2.24v-3.09h-0.11c-0.21,0.64-0.9,1.06-1.77,1.06c-1.43,0-2.26-1.08-2.26-2.95v-0.53
			c0-1.86,0.83-2.94,2.26-2.94C120.51,215.46,121.2,215.87,121.4,216.52z M119.69,218.48v0.39c0,0.83,0.34,1.32,0.9,1.32
			c0.57,0,0.91-0.49,0.91-1.31v-0.42c0-0.8-0.35-1.29-0.91-1.29S119.69,217.66,119.69,218.48z"/>
		<path d="M125.26,215.52h2.24v1.01h0.11c0.09-0.44,0.56-1.1,1.39-1.1c0.32,0,0.52,0.02,0.64,0.06v1.88
			c-0.14-0.06-0.45-0.09-0.77-0.09c-0.91,0-1.29,0.5-1.29,1.35v3.19h-2.31V215.52z"/>
		<path d="M133.32,215.4c1.49,0,2.61,0.62,2.61,1.96H134c-0.04-0.28-0.27-0.56-0.71-0.56c-0.46,0-0.66,0.22-0.66,0.49
			c0,0.52,1.08,0.58,1.72,0.68c1.15,0.18,1.8,0.74,1.8,1.8c0,1.32-1.01,2.17-2.95,2.17c-1.88,0-2.82-0.86-2.82-1.98h2.16
			c0.03,0.31,0.32,0.57,0.77,0.57c0.48,0,0.69-0.22,0.69-0.5c0-0.47-0.79-0.49-1.54-0.63c-1.07-0.21-1.94-0.74-1.94-1.96
			C130.53,215.96,131.82,215.4,133.32,215.4z"/>
		<path d="M138.02,214.1h2.15v1.55h1.37v1.65h-1.37v2.24c0,0.47,0.28,0.66,0.77,0.66c0.26,0,0.47-0.01,0.6-0.02v1.56
			c-0.16,0.03-0.6,0.08-1.13,0.08c-1.66,0-2.46-0.46-2.46-1.81v-2.72H137v-1.65h1.02V214.1z"/>
		<path d="M148.85,221.82h-2.16v-1.05h-0.11c-0.15,0.48-0.71,1.14-1.82,1.14c-1.25,0-2.04-0.73-2.04-2.27v-4.12h2.23v3.55
			c0,0.85,0.47,1.01,0.81,1.01c0.43,0,0.86-0.33,0.86-1.04v-3.53h2.23V221.82z"/>
		<path d="M149.75,215.52h2.41l0.81,4.37h0.09l0.97-4.37h2.34l-2.1,6.3h-2.61L149.75,215.52z"/>
		<path d="M165.02,221.82h-2.38l-0.93-4.01h-0.08l-0.92,4.01h-2.4l-1.58-6.3h2.27l0.65,4.22h0.09l0.88-4.22h2.1l0.9,4.22h0.09
			l0.65-4.22h2.23L165.02,221.82z"/>
		<path d="M170.38,219.98h-0.09l-0.87,1.84h-2.31l1.78-3.15l-1.89-3.15h2.54l0.86,1.82h0.09l0.87-1.82h2.43l-1.97,3.13l1.86,3.16
			h-2.42L170.38,219.98z"/>
		<path d="M179.06,221.38l-0.15,0.41c-0.61,1.59-1.54,2.24-3.25,2.24c-0.4,0-0.91-0.04-1.13-0.09v-1.49
			c0.11,0.02,0.35,0.04,0.57,0.04c0.7,0,1.03-0.21,1.04-0.69l0.01-0.06l-1.99-6.22h2.46l0.88,4.55h0.09l0.94-4.55h2.37
			C179.98,218.5,179.09,221.31,179.06,221.38z"/>
		<path d="M181.67,220.7l2.57-3.42v-0.09h-2.47v-1.66h5.14v1.31l-2.36,3.22v0.09h2.49v1.68h-5.36V220.7z"/>
	</g>
	<g>
		<path d="M8.07,233.67c0-2.37,1.29-3.91,3.33-3.91c2.04,0,3.29,1.49,3.29,3.91v0.43c0,2.36-1.32,3.93-3.34,3.93
			c-2.02,0-3.28-1.52-3.28-3.93V233.67z M10.39,234.1c0,1.35,0.36,2.12,0.98,2.12c0.62,0,0.99-0.77,0.99-2.12v-0.42
			c0-1.34-0.36-2.09-0.99-2.09c-0.63,0-0.98,0.75-0.98,2.09V234.1z"/>
		<path d="M17.77,237.9v-5.95h-0.11l-1.77,1.22v-1.98l1.88-1.29h2.29v8H17.77z"/>
		<path d="M21.95,232.52v-0.13c0-1.23,0.89-2.62,3.02-2.62c1.86,0,3.05,1,3.05,2.31c0,1.24-0.84,1.93-1.45,2.55l-1.38,1.39v0.09
			h2.95v1.8h-6.05v-1.42l2.81-2.76c0.41-0.4,0.86-0.84,0.86-1.4c0-0.41-0.35-0.79-0.84-0.79c-0.5,0-0.82,0.39-0.82,0.83
			c0,0.06,0.01,0.12,0.01,0.16H21.95z"/>
		<path d="M31.49,232.96h0.87c0.57,0,0.93-0.34,0.93-0.76c-0.01-0.46-0.42-0.76-0.91-0.76c-0.59,0-0.96,0.42-0.97,0.85H29.3
			c0.05-1.58,1.23-2.52,3.19-2.53c1.88,0,3.02,0.87,3.02,2.14c0,1.14-0.93,1.65-1.48,1.73v0.12c0.8,0.06,1.69,0.65,1.69,1.88
			c0.01,1.69-1.65,2.41-3.3,2.41c-2.14,0-3.19-1.21-3.2-2.54h2.09c0.01,0.49,0.48,0.83,1.09,0.83c0.63,0,1.05-0.35,1.05-0.85
			c0-0.46-0.36-0.86-1.04-0.86h-0.91V232.96z"/>
		<path d="M42.77,229.9v4.98h0.89v1.77h-0.89v1.25h-2.14v-1.25h-3.84v-1.8c0.84-1.69,1.8-3.32,2.72-4.95H42.77z M40.63,234.88v-3.39
			h-0.11c-0.63,1.1-1.22,2.16-1.78,3.36v0.03H40.63z"/>
		<path d="M46.91,235.58c0.06,0.39,0.51,0.71,1.07,0.71c0.65,0,1.11-0.45,1.11-1.1c0-0.62-0.45-1.08-1.08-1.08
			c-0.54,0-0.84,0.33-0.94,0.54H45l0.3-4.76h5.45v1.78h-3.67l-0.12,1.49h0.11c0.15-0.26,0.68-0.69,1.61-0.69
			c1.35,0,2.59,0.9,2.59,2.64c0,1.81-1.34,2.92-3.28,2.92s-3.13-1.1-3.15-2.46H46.91z"/>
		<path d="M56.79,232.03c-0.14-0.32-0.46-0.53-0.87-0.53c-0.97,0-1.37,1.24-1.28,2.09h0.14c0.26-0.53,0.83-0.98,1.78-0.98
			c1.3,0,2.53,0.85,2.53,2.56c0,1.81-1.35,2.87-3.21,2.87c-1.21,0-2.22-0.45-2.83-1.44c-0.39-0.64-0.61-1.51-0.61-2.64
			c0-2.72,1.28-4.18,3.48-4.18c2.04,0,2.96,1.26,3.01,2.26H56.79z M55.87,236.31c0.6,0,1.01-0.41,1.01-1.06
			c0-0.63-0.4-1.05-1.01-1.05c-0.62,0-1.01,0.44-1.01,1.06C54.86,235.89,55.26,236.31,55.87,236.31z"/>
		<path d="M66.3,229.9v1.82l-3.21,6.18h-2.43l3.33-6.12v-0.08h-3.77v-1.8H66.3z"/>
		<path d="M67.35,235.68c0-1.29,0.96-1.83,1.76-1.96v-0.09c-0.86-0.24-1.44-0.77-1.44-1.77c0-1.2,1.17-2.09,3.13-2.09
			s3.13,0.9,3.13,2.09c0,1.01-0.59,1.53-1.44,1.77v0.09c0.8,0.12,1.76,0.67,1.76,1.96c0,1.38-1.27,2.36-3.45,2.36
			S67.35,237.06,67.35,235.68z M71.93,235.48c0-0.63-0.5-1.04-1.14-1.04c-0.63,0-1.13,0.42-1.13,1.04c0,0.62,0.5,1.03,1.13,1.03
			C71.44,236.52,71.93,236.11,71.93,235.48z M71.73,232.17c0-0.52-0.41-0.88-0.94-0.88c-0.52,0-0.93,0.36-0.93,0.88
			c0,0.52,0.4,0.88,0.93,0.88C71.32,233.05,71.73,232.69,71.73,232.17z"/>
		<path d="M77.72,235.79c0.06,0.28,0.44,0.53,0.9,0.53c0.88,0,1.36-0.9,1.31-2.09H79.8c-0.18,0.47-0.78,0.93-1.75,0.93
			c-1.28,0-2.61-0.8-2.61-2.56s1.35-2.84,3.22-2.84c1.97,0,3.43,1.21,3.43,4.1c0,2.7-1.25,4.17-3.49,4.17
			c-2.04,0-2.95-1.24-2.99-2.24H77.72z M78.63,231.45c-0.6,0-1.01,0.42-1.01,1.06c0,0.64,0.4,1.06,1.01,1.06
			c0.61,0,1.01-0.43,1.01-1.07C79.64,231.88,79.25,231.45,78.63,231.45z"/>
	</g>
	<g>
		<path d="M83.46,233.67c0-2.37,1.29-3.91,3.33-3.91c2.04,0,3.29,1.49,3.29,3.91v0.43c0,2.36-1.32,3.93-3.34,3.93
			c-2.02,0-3.28-1.52-3.28-3.93V233.67z M85.78,234.1c0,1.35,0.36,2.12,0.98,2.12c0.62,0,0.99-0.77,0.99-2.12v-0.42
			c0-1.34-0.36-2.09-0.99-2.09c-0.63,0-0.98,0.75-0.98,2.09V234.1z"/>
	</g>
	<g>
		<path class="st0" d="M180.86,293.81H0.25c-0.14,0-0.25-0.11-0.25-0.25v-21.81c0-0.14,0.11-0.25,0.25-0.25h180.61
			c0.14,0,0.25,0.11,0.25,0.25v21.81C181.11,293.7,181,293.81,180.86,293.81z M0.5,293.31h180.11V272H0.5V293.31z"/>
	</g>
	<g>
		<path d="M11.18,286.5c0.74,0,1.36-0.11,1.87-0.34c0.51-0.22,0.89-0.52,1.15-0.9c0.25-0.38,0.38-0.8,0.38-1.26
			c0-0.54-0.14-0.98-0.43-1.3c-0.28-0.32-0.63-0.56-1.03-0.71c-0.4-0.16-0.91-0.31-1.54-0.45c-0.46-0.11-0.82-0.21-1.08-0.3
			c-0.26-0.09-0.48-0.21-0.65-0.36c-0.17-0.15-0.26-0.35-0.26-0.59c0-0.34,0.15-0.62,0.45-0.83c0.3-0.21,0.76-0.31,1.37-0.31
			c0.38,0,0.76,0.06,1.16,0.17c0.4,0.11,0.78,0.28,1.15,0.49l0.49-1.21c-0.36-0.24-0.79-0.42-1.28-0.55c-0.5-0.13-1-0.19-1.51-0.19
			c-0.74,0-1.36,0.11-1.87,0.34c-0.51,0.22-0.89,0.53-1.14,0.91c-0.25,0.38-0.38,0.8-0.38,1.27c0,0.55,0.14,0.99,0.43,1.31
			c0.28,0.32,0.62,0.56,1.02,0.71c0.4,0.15,0.91,0.3,1.55,0.46c0.46,0.11,0.82,0.21,1.08,0.3c0.26,0.09,0.48,0.21,0.65,0.37
			c0.17,0.16,0.26,0.35,0.26,0.59c0,0.33-0.15,0.59-0.46,0.79c-0.31,0.2-0.77,0.3-1.4,0.3c-0.5,0-1.01-0.09-1.51-0.26
			c-0.5-0.17-0.92-0.39-1.27-0.67l-0.54,1.21c0.35,0.3,0.83,0.55,1.43,0.73C9.91,286.41,10.53,286.5,11.18,286.5L11.18,286.5
			L11.18,286.5z M22.28,279.29v-1.31h-6.13v8.4h1.56v-3.22h4.06v-1.32h-4.06v-2.56H22.28L22.28,279.29z M31.04,286.5
			c0.69,0,1.32-0.12,1.89-0.36c0.57-0.24,1.05-0.59,1.45-1.04l-1.01-0.96c-0.61,0.66-1.36,1-2.24,1c-0.58,0-1.09-0.13-1.55-0.38
			c-0.46-0.25-0.81-0.6-1.07-1.05c-0.26-0.45-0.38-0.96-0.38-1.52c0-0.57,0.13-1.08,0.38-1.52c0.26-0.45,0.61-0.8,1.07-1.05
			s0.97-0.38,1.55-0.38c0.89,0,1.64,0.33,2.24,0.98l1.01-0.95c-0.39-0.46-0.87-0.8-1.44-1.04c-0.57-0.24-1.2-0.36-1.88-0.36
			c-0.85,0-1.61,0.19-2.3,0.56c-0.68,0.37-1.22,0.89-1.61,1.54c-0.39,0.66-0.59,1.4-0.59,2.22c0,0.82,0.19,1.56,0.58,2.22
			c0.39,0.66,0.92,1.17,1.61,1.54C29.43,286.31,30.19,286.5,31.04,286.5L31.04,286.5L31.04,286.5z M39.83,286.5
			c0.86,0,1.63-0.19,2.32-0.56c0.69-0.37,1.23-0.89,1.62-1.54c0.39-0.66,0.59-1.4,0.59-2.22c0-0.82-0.2-1.56-0.59-2.22
			c-0.39-0.66-0.93-1.17-1.62-1.54c-0.69-0.37-1.46-0.56-2.32-0.56c-0.86,0-1.63,0.19-2.32,0.56c-0.69,0.37-1.23,0.89-1.62,1.55
			c-0.39,0.66-0.59,1.4-0.59,2.21c0,0.82,0.2,1.55,0.59,2.21c0.39,0.66,0.93,1.18,1.62,1.55C38.2,286.31,38.97,286.5,39.83,286.5
			L39.83,286.5L39.83,286.5z M39.83,285.13c-0.56,0-1.06-0.13-1.51-0.38c-0.45-0.25-0.8-0.6-1.06-1.06
			c-0.26-0.45-0.38-0.96-0.38-1.52c0-0.56,0.13-1.07,0.38-1.52c0.26-0.45,0.61-0.8,1.06-1.06c0.45-0.25,0.95-0.38,1.51-0.38
			c0.56,0,1.06,0.13,1.51,0.38c0.45,0.25,0.8,0.6,1.06,1.06c0.26,0.45,0.38,0.96,0.38,1.52c0,0.56-0.13,1.07-0.38,1.52
			c-0.26,0.45-0.61,0.8-1.06,1.06C40.89,285.01,40.39,285.13,39.83,285.13L39.83,285.13L39.83,285.13z M55.22,286.38l-0.01-8.4
			h-1.28l-3.28,5.57l-3.34-5.57h-1.28v8.4h1.49v-5.5l2.76,4.54h0.7l2.76-4.61l0.01,5.57H55.22L55.22,286.38z M60.97,277.98h-3.46
			v8.4h1.56v-2.42h1.9c0.73,0,1.36-0.12,1.9-0.36c0.54-0.24,0.95-0.59,1.24-1.04c0.29-0.45,0.43-0.98,0.43-1.59
			c0-0.62-0.14-1.15-0.43-1.6c-0.29-0.45-0.7-0.79-1.24-1.03C62.33,278.1,61.7,277.98,60.97,277.98L60.97,277.98L60.97,277.98z
			 M60.9,282.64h-1.82v-3.34h1.82c0.68,0,1.2,0.14,1.55,0.43c0.35,0.29,0.53,0.7,0.53,1.24c0,0.54-0.18,0.95-0.53,1.24
			C62.09,282.49,61.58,282.64,60.9,282.64L60.9,282.64L60.9,282.64z M72.54,286.38h1.63l-3.79-8.4h-1.54l-3.78,8.4h1.61l0.83-1.94
			h4.2L72.54,286.38L72.54,286.38z M68.03,283.21l1.57-3.67l1.58,3.67H68.03L68.03,283.21z M79.15,286.5c0.69,0,1.32-0.12,1.89-0.36
			c0.57-0.24,1.05-0.59,1.45-1.04l-1.01-0.96c-0.61,0.66-1.36,1-2.24,1c-0.58,0-1.09-0.13-1.55-0.38c-0.46-0.25-0.81-0.6-1.07-1.05
			c-0.26-0.45-0.38-0.96-0.38-1.52c0-0.57,0.13-1.08,0.38-1.52c0.26-0.45,0.61-0.8,1.07-1.05s0.97-0.38,1.55-0.38
			c0.89,0,1.64,0.33,2.24,0.98l1.01-0.95c-0.39-0.46-0.87-0.8-1.44-1.04c-0.57-0.24-1.2-0.36-1.88-0.36c-0.85,0-1.61,0.19-2.3,0.56
			c-0.68,0.37-1.22,0.89-1.61,1.54c-0.39,0.66-0.59,1.4-0.59,2.22c0,0.82,0.19,1.56,0.58,2.22c0.39,0.66,0.92,1.17,1.61,1.54
			C77.54,286.31,78.3,286.5,79.15,286.5L79.15,286.5L79.15,286.5z M85.71,286.38h1.56v-7.08h2.78v-1.32h-7.13v1.32h2.78V286.38
			L85.71,286.38z M96.3,286.38h1.56v-7.08h2.78v-1.32h-7.13v1.32h2.78V286.38L96.3,286.38z M103.4,285.07v-2.32h4.06v-1.28h-4.06
			v-2.18h4.57v-1.31h-6.13v8.4h6.3v-1.31H103.4L103.4,285.07z M117,286.38l-3.16-4.34l2.94-4.06h-1.69l-2.12,2.99l-2.15-2.99h-1.76
			l2.95,4.12l-3.12,4.28h1.78l2.26-3.19l2.28,3.19H117L117,286.38z M119.95,286.38h1.56v-7.08h2.78v-1.32h-7.13v1.32h2.78V286.38
			L119.95,286.38z M128.83,286.38h5.95v-1.32h-4.39v-7.08h-1.56V286.38L128.83,286.38z M136.04,286.38h1.56v-8.4h-1.56V286.38
			L136.04,286.38z M145.63,284.7c-0.5,0.29-1.07,0.43-1.73,0.43c-0.58,0-1.11-0.13-1.57-0.38c-0.46-0.26-0.82-0.61-1.08-1.06
			c-0.26-0.45-0.39-0.95-0.39-1.51c0-0.58,0.13-1.09,0.39-1.54c0.26-0.45,0.62-0.8,1.08-1.04c0.46-0.25,0.99-0.37,1.58-0.37
			c0.9,0,1.68,0.32,2.32,0.96l0.98-0.96c-0.39-0.45-0.88-0.79-1.45-1.02c-0.58-0.23-1.22-0.35-1.92-0.35
			c-0.86,0-1.64,0.19-2.33,0.56c-0.69,0.37-1.23,0.89-1.63,1.54c-0.39,0.66-0.59,1.4-0.59,2.22c0,0.82,0.2,1.56,0.59,2.22
			c0.39,0.66,0.93,1.17,1.62,1.54c0.69,0.37,1.46,0.56,2.32,0.56c0.61,0,1.2-0.09,1.78-0.28s1.08-0.45,1.51-0.79v-3.35h-1.48V284.7
			L145.63,284.7z M155.08,277.98v3.47h-4.34v-3.47h-1.56v8.4h1.56v-3.6h4.34v3.6h1.56v-8.4H155.08L155.08,277.98z M160.63,286.38
			h1.56v-7.08h2.78v-1.32h-7.13v1.32h2.78V286.38L160.63,286.38z"/>
	</g>
	<g>
		<path d="M7.78,312.06l2.87-7.99h0.84l2.87,7.99h-0.9l-0.85-2.5H9.53l-0.85,2.5H7.78z M11.04,305.12l-1.28,3.73h2.59l-1.28-3.73
			H11.04z"/>
		<path d="M15.85,304.06h2.89c1.36,0,2.21,0.76,2.21,1.96c0,0.94-0.5,1.54-1.28,1.78v0.04c1.07,0.15,1.75,0.85,1.75,1.98
			c0,1.38-1.04,2.23-2.77,2.23h-2.79V304.06z M16.71,307.56h1.38c1.34,0,2-0.43,2-1.38c0-0.84-0.54-1.33-1.47-1.33h-1.9V307.56z
			 M16.71,311.27h1.54c1.61,0,2.29-0.43,2.29-1.42c0-0.98-0.68-1.52-1.78-1.52h-2.04V311.27z"/>
		<path d="M23.83,308.69c0,1.71,0.79,2.75,2.26,2.75c1.11,0,1.9-0.63,2-1.52h0.86c-0.11,1.31-1.29,2.3-2.86,2.3
			c-2.02,0-3.11-1.32-3.11-3.53v-1.24c0-2.19,1.12-3.57,3.11-3.57c1.59,0,2.75,1.05,2.85,2.42v0.01h-0.86
			c-0.1-0.92-0.89-1.64-2-1.64c-1.44,0-2.25,1.09-2.25,2.8V308.69z"/>
		<path d="M33.34,304.06c2.33,0,3.51,1.39,3.51,4s-1.17,4-3.51,4h-2.45v-7.99H33.34z M31.75,311.27h1.56c1.79,0,2.65-1.09,2.65-3.21
			s-0.87-3.22-2.65-3.22h-1.56V311.27z"/>
		<path d="M43.46,312.06h-4.71v-7.99h4.71v0.78H39.6v2.74h3.64v0.78H39.6v2.91h3.86V312.06z"/>
		<path d="M45.45,312.06v-7.99h4.63v0.78h-3.78v2.88h3.47v0.79h-3.47v3.54H45.45z"/>
		<path d="M56.56,306.17c-0.21-0.88-0.92-1.5-2.01-1.5c-1.42,0-2.26,1.05-2.26,2.79v1.15c0,1.79,0.84,2.84,2.3,2.84
			c1.34,0,2.06-0.75,2.06-1.85v-0.86h-2.17v-0.78h3.02v1.64c0,1.55-1.09,2.63-2.89,2.63c-2.02,0-3.16-1.34-3.16-3.62v-1.15
			c0-2.2,1.19-3.57,3.14-3.57c1.56,0,2.65,0.94,2.85,2.29H56.56z"/>
		<path d="M64.56,312.06v-3.77h-4.22v3.77h-0.86v-7.99h0.86v3.45h4.22v-3.45h0.86v7.99H64.56z"/>
		<path d="M67.75,312.06v-7.99h0.86v7.99H67.75z"/>
		<path d="M70.94,310.3c0.02,0.63,0.52,1.14,1.29,1.14c0.9,0,1.41-0.53,1.41-1.54v-5.83h0.86v5.74c0,1.54-0.85,2.42-2.27,2.42
			c-1.32,0-2.13-0.83-2.13-1.92H70.94z"/>
		<path d="M79.29,307.48l3.21,4.57h-1.1l-2.75-3.97l-1.01,1.08v2.89h-0.86v-7.99h0.86v3.97h0.04l3.62-3.97h1.04L79.29,307.48z"/>
		<path d="M88.54,312.06h-4.63v-7.99h0.86v7.21h3.78V312.06z"/>
		<path d="M90.04,312.06v-7.99h0.83l2.75,6.47h0.04l2.74-6.47h0.83v7.99h-0.79v-6.12H96.4l-2.37,5.5h-0.78l-2.38-5.5h-0.04v6.12
			H90.04z"/>
		<path d="M99.58,312.06v-7.99h0.86l4.17,6.52h0.05v-6.52h0.86v7.99h-0.86l-4.18-6.52h-0.04v6.52H99.58z"/>
		<path d="M110.65,312.22c-1.91,0-3.14-1.31-3.14-3.54v-1.24c0-2.24,1.23-3.55,3.14-3.55c1.92,0,3.15,1.31,3.15,3.56v1.24
			C113.8,310.92,112.57,312.22,110.65,312.22z M110.65,304.67c-1.31,0-2.29,0.93-2.29,2.76v1.25c0,1.83,0.97,2.76,2.29,2.76
			s2.29-0.93,2.29-2.76v-1.25C112.94,305.6,111.96,304.67,110.65,304.67z"/>
		<path d="M121.13,306.51c0,1.46-1,2.44-2.51,2.44h-1.96v3.11h-0.86v-7.99h2.82C120.14,304.06,121.13,305.04,121.13,306.51z
			 M118.59,304.84h-1.93v3.32h1.93c1.05,0,1.66-0.61,1.66-1.66S119.64,304.84,118.59,304.84z"/>
		<path d="M127.83,312.99l-0.78-1.07c-0.42,0.2-0.9,0.3-1.44,0.3c-1.96,0-3.14-1.36-3.14-3.55v-1.23c0-2.19,1.18-3.55,3.14-3.55
			c1.96,0,3.15,1.36,3.15,3.55v1.23c0,1.21-0.36,2.19-1.04,2.8l1.11,1.52H127.83z M125.62,311.43c0.35,0,0.66-0.06,0.94-0.18
			l-1.11-1.51h1.02l0.76,1.04c0.45-0.48,0.69-1.21,0.69-2.1v-1.24c0-1.69-0.87-2.76-2.29-2.76s-2.29,1.06-2.29,2.76v1.24
			C123.33,310.37,124.19,311.43,125.62,311.43z"/>
		<path d="M136.09,306.4c0,1.09-0.58,1.9-1.52,2.21l1.66,3.44h-0.98l-1.54-3.26h-2.08v3.26h-0.86v-7.99h2.81
			C135.12,304.06,136.09,304.98,136.09,306.4z M133.43,308.01c1.15,0,1.78-0.54,1.78-1.55c0-1.03-0.64-1.62-1.73-1.62h-1.84v3.17
			H133.43z"/>
		<path d="M138.42,310.07c0.15,0.79,0.88,1.37,2.04,1.37c1.18,0,1.93-0.59,1.93-1.51c0-0.72-0.44-1.12-1.41-1.37l-1.37-0.37
			c-1.18-0.31-1.84-1.04-1.84-2.07c0-1.31,1.12-2.26,2.71-2.26c1.52,0,2.57,0.84,2.69,2.04h-0.88c-0.15-0.75-0.8-1.25-1.83-1.25
			c-1.08,0-1.81,0.59-1.81,1.45c0,0.63,0.42,1.05,1.2,1.26l1.34,0.36c1.43,0.39,2.09,1.03,2.09,2.16c0,1.42-1.15,2.34-2.92,2.34
			c-1.65,0-2.71-0.91-2.82-2.15H138.42z"/>
		<path d="M146.78,312.06v-7.21h-2.48v-0.78h5.83v0.78h-2.48v7.21H146.78z"/>
		<path d="M156.56,309.3v-5.23h0.86v5.23c0,1.76-1.18,2.93-2.98,2.93s-2.98-1.17-2.98-2.93v-5.23h0.86v5.23
			c0,1.32,0.81,2.15,2.12,2.15S156.56,310.61,156.56,309.3z"/>
		<path d="M158.76,304.06h0.98l2.34,6.96h0.05l2.35-6.96h0.97l-2.92,7.99h-0.84L158.76,304.06z"/>
		<path d="M168.21,312.06l-2.21-7.99h1.01l1.58,6.64h0.05l1.68-6.64h0.9l1.68,6.64h0.05l1.58-6.64h1.01l-2.21,7.99h-0.77l-1.77-6.58
			h-0.04l-1.77,6.58H168.21z"/>
		<path d="M179.73,308.1l2.63,3.96h-1.05l-2.11-3.28h-0.05l-2.12,3.28h-0.98l2.65-4.03l-2.62-3.97h1.04l2.13,3.28h0.05l2.12-3.28h1
			L179.73,308.1z"/>
		<path d="M185.53,312.06v-3.52l-2.68-4.48h0.99l2.1,3.63h0.05l2.1-3.63h0.99l-2.69,4.47v3.52H185.53z"/>
	</g>
	<g>
		<path d="M189.97,311.44l4.45-6.54v-0.06h-4.29v-0.77h5.36v0.62l-4.42,6.54v0.06h4.51v0.77h-5.61V311.44z"/>
	</g>
	<g>
		<path d="M8.17,324.93c0-1.05,0.74-1.78,2.14-1.78h1.68v-0.66c0-0.87-0.55-1.26-1.41-1.26c-0.86,0-1.21,0.35-1.34,0.79H8.41
			c0.09-1,0.92-1.54,2.21-1.54c1.22,0,2.22,0.55,2.22,2v4.24h-0.82v-0.86h-0.04c-0.29,0.49-0.86,0.96-1.8,0.96
			C8.98,326.8,8.17,326.06,8.17,324.93z M11.98,324.6v-0.74h-1.66c-0.91,0-1.28,0.46-1.28,1.05c0,0.77,0.62,1.14,1.33,1.14
			C11.29,326.05,11.98,325.43,11.98,324.6z"/>
		<path d="M15.84,325.76H15.8v0.94h-0.81v-8.42h0.85v3.3h0.04c0.19-0.66,0.95-1.11,1.85-1.11c1.44,0,2.36,1.01,2.36,2.6v1.14
			c0,1.59-0.93,2.6-2.4,2.6C16.83,326.8,16.12,326.4,15.84,325.76z M19.25,324.01v-0.73c0-1.3-0.62-2.06-1.68-2.06
			s-1.73,0.75-1.73,1.93v1.08c0,1.05,0.73,1.82,1.76,1.82C18.64,326.05,19.25,325.3,19.25,324.01z"/>
		<path d="M21.67,323.09c0-1.61,0.97-2.62,2.5-2.62c1.51,0,2.27,0.95,2.3,1.8h-0.84c-0.08-0.4-0.4-1.03-1.44-1.03
			c-1.08,0-1.66,0.73-1.66,1.9v1.02c0,1.15,0.63,1.87,1.67,1.87c0.99,0,1.36-0.47,1.48-0.95h0.84c-0.04,0.82-0.74,1.72-2.34,1.72
			c-1.54,0-2.5-1.01-2.5-2.64V323.09z"/>
		<path d="M32.19,321.52h0.04v-3.23h0.85v8.42h-0.81v-1.01h-0.04c-0.16,0.59-0.91,1.11-1.89,1.11c-1.42,0-2.37-1-2.37-2.53v-1.26
			c0-1.55,0.98-2.54,2.4-2.54C31.29,320.47,31.95,320.91,32.19,321.52z M28.82,323.22v0.83c0,1.26,0.65,2,1.68,2
			c1.06,0,1.72-0.77,1.72-1.9v-1.13c0-1.03-0.73-1.79-1.75-1.79C29.47,321.22,28.82,321.95,28.82,323.22z"/>
		<path d="M34.98,324.12v-0.95c0-1.66,1.03-2.7,2.48-2.7s2.48,1.04,2.48,2.7v0.69h-4.11v0.32c0,1.07,0.59,1.88,1.7,1.88
			c0.81,0,1.31-0.4,1.42-0.81h0.9c-0.09,0.63-0.82,1.56-2.31,1.56C35.91,326.8,34.98,325.75,34.98,324.12z M39.08,323.19v-0.1
			c0-1.14-0.65-1.87-1.63-1.87s-1.63,0.73-1.63,1.87v0.1H39.08z"/>
		<path d="M42.27,321.28h-1.05v-0.71h1.05v-0.64c0-1.15,0.53-1.69,1.83-1.69c0.26,0,0.54,0.02,0.66,0.04V319
			c-0.1-0.01-0.4-0.02-0.56-0.02c-0.76,0-1.08,0.23-1.08,1.01v0.58h1.48v0.71h-1.48v5.43h-0.84V321.28z"/>
		<path d="M50.19,326.55v-0.98h-0.05c-0.22,0.5-0.84,1.01-1.76,1.01c-1.36,0-2.44-0.96-2.44-2.54v-1.01c0-1.6,1.09-2.55,2.43-2.55
			c0.97,0,1.62,0.58,1.82,1.06h0.04v-0.96h0.81v5.95c0,1.63-1.04,2.41-2.61,2.41c-1.51,0-2.26-0.79-2.34-1.64h0.88
			c0.08,0.46,0.6,0.89,1.49,0.89C49.61,328.18,50.19,327.56,50.19,326.55z M46.79,323.22v0.62c0,1.2,0.73,1.99,1.75,1.99
			c1.07,0,1.65-0.88,1.65-1.8v-0.96c0-0.96-0.62-1.83-1.66-1.83C47.48,321.22,46.79,322.01,46.79,323.22z"/>
		<path d="M53.13,318.28h0.84v3.43h0.05c0.13-0.45,0.64-1.24,1.93-1.24c1.19,0,2.07,0.69,2.07,2.06v4.18h-0.85v-3.91
			c0-0.99-0.55-1.57-1.47-1.57c-1.15,0-1.73,0.91-1.73,2.02v3.46h-0.84V318.28z"/>
		<path d="M60.75,318.02c0.38,0,0.66,0.28,0.66,0.66c0,0.36-0.28,0.64-0.66,0.64c-0.36,0-0.64-0.28-0.64-0.64
			C60.1,318.3,60.39,318.02,60.75,318.02z M60.33,320.57h0.84v6.13h-0.84V320.57z"/>
		<path d="M64.5,326.9c0,1.38-0.57,1.93-1.55,1.93c-0.18,0-0.46-0.02-0.55-0.05v-0.7c0.09,0.02,0.25,0.03,0.39,0.03
			c0.64,0,0.87-0.38,0.87-1.22v-6.33h0.84V326.9z M64.08,318.02c0.38,0,0.66,0.28,0.66,0.66c0,0.37-0.28,0.64-0.66,0.64
			c-0.36,0-0.64-0.28-0.64-0.64C63.43,318.3,63.72,318.02,64.08,318.02z"/>
		<path d="M67.7,326.7h-0.84v-8.42h0.84v5.14h0.04l2.7-2.85h1l-2.48,2.65l2.64,3.49h-1.02l-2.24-2.95l-0.63,0.62V326.7z"/>
		<path d="M73.03,318.28h0.85v8.42h-0.85V318.28z"/>
		<path d="M76.1,320.57h0.84v0.98h0.05c0.14-0.43,0.53-1.08,1.67-1.08c0.95,0,1.54,0.52,1.73,1.18h0.04
			c0.24-0.59,0.81-1.18,1.88-1.18c1.24,0,2.02,0.67,2.02,1.92v4.31h-0.84v-4.08c0-0.84-0.48-1.39-1.38-1.39
			c-0.85,0-1.46,0.66-1.46,1.53v3.95h-0.85v-4.04c0-0.84-0.52-1.44-1.4-1.44c-0.86,0-1.44,0.66-1.44,1.54v3.94H76.1V320.57z"/>
		<path d="M86.47,320.57h0.84v1.14h0.05c0.16-0.51,0.6-1.24,1.89-1.24c1.24,0,2.1,0.68,2.1,2.04v4.19H90.5v-3.92
			c0-0.99-0.52-1.56-1.44-1.56c-1.18,0-1.75,0.91-1.75,2.02v3.46h-0.84V320.57z"/>
		<path d="M98.37,323.15v0.97c0,1.72-1.12,2.68-2.58,2.68c-1.49,0-2.59-0.95-2.59-2.68v-0.97c0-1.66,1.11-2.68,2.59-2.68
			C97.24,320.47,98.37,321.44,98.37,323.15z M94.04,323.25v0.78c0,1.25,0.67,2.02,1.75,2.02c1.07,0,1.73-0.76,1.73-2.02v-0.78
			c0-1.23-0.69-2.03-1.73-2.03C94.74,321.22,94.04,322.02,94.04,323.25z"/>
		<path d="M101.14,325.76h-0.05v2.97h-0.84v-8.17h0.8v1.02h0.05c0.23-0.63,0.92-1.11,1.88-1.11c1.43,0,2.36,1.01,2.36,2.6v1.14
			c0,1.62-0.96,2.6-2.4,2.6C102.03,326.8,101.41,326.38,101.14,325.76z M104.49,324v-0.73c0-1.31-0.63-2.05-1.69-2.05
			s-1.71,0.75-1.71,1.9v1.14c0,1.04,0.7,1.79,1.73,1.79C103.85,326.05,104.49,325.32,104.49,324z"/>
		<path d="M111.16,321.56h0.05v-1h0.8v8.16h-0.84v-2.99h-0.05c-0.26,0.65-0.98,1.06-1.85,1.06c-1.43,0-2.35-1.01-2.35-2.58v-1.17
			c0-1.56,0.94-2.59,2.37-2.59C110.16,320.47,110.87,320.89,111.16,321.56z M107.77,323.22v0.83c0,1.25,0.63,2,1.68,2
			c1.04,0,1.71-0.74,1.71-1.9v-1.14c0-1.04-0.72-1.79-1.73-1.79C108.4,321.22,107.77,321.99,107.77,323.22z"/>
		<path d="M114.27,320.57h0.84v0.98h0.04c0.15-0.43,0.62-1.08,1.73-1.08c0.13,0,0.26,0.02,0.38,0.03v0.79
			c-0.09-0.02-0.29-0.03-0.48-0.03c-1.08,0-1.68,0.66-1.68,1.58v3.86h-0.84V320.57z"/>
		<path d="M120.64,320.47c1.34,0,2.14,0.73,2.14,1.68h-0.8c-0.04-0.45-0.45-0.97-1.38-0.97c-0.76,0-1.34,0.35-1.34,1.01
			c0,0.76,0.77,0.89,1.53,1.04c1.15,0.22,2.14,0.5,2.14,1.71c0,1.21-1,1.87-2.37,1.87c-1.36,0-2.25-0.63-2.25-1.68h0.83
			c0.08,0.56,0.47,0.98,1.45,0.98c1.02,0,1.49-0.46,1.49-1.07c0-0.74-0.7-0.89-1.58-1.07c-1.16-0.25-2.08-0.5-2.08-1.68
			C118.43,321.03,119.48,320.47,120.64,320.47z"/>
		<path d="M125.07,319.03h0.84v1.54h1.44v0.71h-1.44v3.8c0,0.76,0.25,0.96,1.04,0.96c0.15,0,0.4-0.02,0.5-0.03v0.71
			c-0.09,0.02-0.52,0.05-0.71,0.05c-1.4,0-1.68-0.54-1.68-1.72v-3.76h-0.98v-0.71h0.98V319.03z"/>
		<path d="M133.96,326.7h-0.85v-1.05h-0.05c-0.18,0.52-0.76,1.15-1.86,1.15c-1.22,0-2.11-0.54-2.11-1.96v-4.27h0.85v4.05
			c0,1.04,0.63,1.44,1.45,1.44c1,0,1.72-0.76,1.72-1.6v-3.88h0.85V326.7z"/>
		<path d="M135.39,320.57h0.94l1.65,5.21h0.04l1.75-5.21h0.91l-2.24,6.13h-0.85L135.39,320.57z"/>
		<path d="M147.73,326.7h-0.83l-1.48-4.89h-0.02l-1.45,4.89h-0.84l-1.73-6.13h0.96l1.18,4.99h0.04l1.45-4.99h0.81l1.48,4.99h0.04
			l1.2-4.99h0.85L147.73,326.7z"/>
		<path d="M152.81,324.31h-0.04l-1.57,2.39h-0.97l2.09-3.04l-2.09-3.1h1.02l1.52,2.38h0.04l1.56-2.38h0.97l-2.1,3.01l2.13,3.13
			h-1.02L152.81,324.31z"/>
		<path d="M159.45,326.76l-0.15,0.4c-0.45,1.21-1.03,1.68-1.99,1.68c-0.16,0-0.39-0.02-0.54-0.05v-0.72
			c0.1,0.02,0.33,0.04,0.44,0.04c0.67,0,1.04-0.3,1.25-1l0.09-0.31l-2.29-6.23h0.94l1.76,5.26h0.04l1.75-5.26h0.9L159.45,326.76z"/>
	</g>
	<g>
		<path d="M162.82,326.1l3.39-4.72v-0.06h-3.42v-0.75h4.48v0.61l-3.4,4.73v0.05h3.42v0.75h-4.47V326.1z"/>
	</g>
	<g>
		<path d="M8.27,338.64c0-2.44,1.03-4.03,2.79-4.03c1.75,0,2.78,1.58,2.78,4.03v0.31c0,2.43-1.03,4-2.78,4c-1.75,0-2.78-1.57-2.78-4
			V338.64z M9.11,338.94c0,2.03,0.77,3.25,1.94,3.25c1.17,0,1.93-1.22,1.93-3.25v-0.3c0-2.03-0.76-3.26-1.93-3.26
			c-1.17,0-1.94,1.24-1.94,3.26V338.94z"/>
		<path d="M17.5,342.78v-7.03h-0.05l-1.88,1.35v-0.9l1.92-1.41h0.84v7.99H17.5z"/>
		<path d="M20.83,336.94v-0.03c0-1.19,0.86-2.3,2.46-2.3c1.48,0,2.42,0.94,2.42,2.17c0,0.98-0.59,1.66-1.32,2.51l-2.31,2.67v0.06
			h3.8v0.77h-5.03v-0.56l3.05-3.53c0.46-0.52,0.94-1.1,0.94-1.87c0-0.87-0.64-1.45-1.56-1.45c-1.02,0-1.61,0.73-1.61,1.54v0.03
			H20.83z"/>
		<path d="M28.97,338.28h0.8c0.93,0,1.59-0.63,1.59-1.49c-0.01-0.83-0.64-1.41-1.58-1.41c-0.93,0-1.51,0.57-1.56,1.19H27.4
			c0.03-0.94,0.82-1.94,2.38-1.95c1.48-0.01,2.43,0.89,2.46,2.03s-0.88,1.84-1.51,1.94v0.05c0.7,0.08,1.76,0.64,1.79,1.95
			c0.02,1.36-1.11,2.37-2.76,2.37c-1.53,0-2.51-0.87-2.56-1.98h0.81c0.07,0.68,0.77,1.22,1.78,1.22c1.14,0.01,1.86-0.68,1.86-1.61
			c-0.01-0.94-0.77-1.55-1.82-1.55h-0.86V338.28z"/>
		<path d="M38.59,334.79v5.49h1.07v0.77h-1.07v1.73h-0.82v-1.73h-3.89v-0.78c0.89-1.59,2.41-3.88,3.43-5.48H38.59z M37.77,340.28
			v-4.72h-0.05c-0.84,1.25-2.19,3.35-2.95,4.66v0.05H37.77z"/>
		<path d="M41.88,340.98c0.15,0.83,0.94,1.21,1.77,1.21c0.91,0,1.82-0.7,1.82-1.97c0-1.12-0.85-1.83-1.83-1.83
			c-0.9,0-1.45,0.53-1.68,0.94h-0.73l0.36-4.55h4.37v0.77h-3.63l-0.23,2.81h0.05c0.17-0.26,0.73-0.72,1.65-0.72
			c1.42,0,2.55,0.98,2.55,2.57c0,1.61-1.11,2.74-2.76,2.74c-1.45,0-2.46-0.86-2.54-1.97H41.88z"/>
		<path d="M52.29,336.37c-0.09-0.4-0.56-0.97-1.54-0.97c-1.24,0-2.05,1.21-2.06,3.53v0.04h0.05c0.22-0.62,0.9-1.3,2.1-1.3
			c1.27,0,2.5,0.91,2.5,2.55c0,1.72-1.15,2.72-2.68,2.72c-0.88,0-1.74-0.35-2.26-1.27c-0.33-0.57-0.54-1.39-0.54-2.54
			c0-2.99,1.14-4.49,2.94-4.49c1.44,0,2.31,0.89,2.38,1.73H52.29z M50.65,342.19c1.01,0,1.83-0.63,1.83-1.92
			c0-1.24-0.88-1.85-1.82-1.85c-1.07,0-1.84,0.77-1.84,1.84C48.82,341.46,49.66,342.19,50.65,342.19z"/>
		<path d="M59.73,334.79v0.8l-3.31,7.19h-0.9l3.33-7.17v-0.06h-4.09v-0.77H59.73z"/>
		<path d="M61.11,340.61c0-1.27,0.97-1.88,1.63-2.03v-0.05c-0.54-0.17-1.32-0.72-1.32-1.79c0-1.24,1.04-2.13,2.46-2.13
			c1.41,0,2.45,0.89,2.45,2.13c0,1.08-0.81,1.63-1.32,1.79v0.05c0.67,0.15,1.63,0.77,1.63,2.02c0,1.39-1.18,2.34-2.78,2.34
			C62.26,342.95,61.11,342,61.11,340.61z M65.8,340.58c0-0.95-0.82-1.62-1.92-1.62c-1.11,0-1.93,0.67-1.93,1.62
			c0,0.96,0.83,1.62,1.93,1.62C64.97,342.21,65.8,341.55,65.8,340.58z M65.49,336.79c0-0.85-0.67-1.42-1.61-1.42
			s-1.62,0.57-1.62,1.42s0.69,1.44,1.62,1.44S65.49,337.64,65.49,336.79z"/>
		<path d="M69.21,341.31c0.12,0.42,0.62,0.87,1.45,0.87c1.55,0,2.14-1.51,2.1-3.53h-0.05c-0.26,0.7-0.91,1.32-2.04,1.32
			c-1.41,0-2.54-1.01-2.54-2.68c0-1.67,1.18-2.68,2.71-2.68c1.34,0,2.77,0.77,2.77,3.94c0,2.92-0.94,4.39-2.96,4.39
			c-1.37,0-2.2-0.75-2.3-1.63H69.21z M70.77,335.36c-0.98,0-1.79,0.73-1.79,1.94c0,1.28,0.86,1.89,1.81,1.89
			c0.93,0,1.8-0.61,1.8-1.84C72.6,336.1,71.82,335.36,70.77,335.36z"/>
	</g>
	<g>
		<path d="M75.28,338.64c0-2.44,1.03-4.03,2.79-4.03c1.75,0,2.78,1.58,2.78,4.03v0.31c0,2.43-1.03,4-2.78,4
			c-1.75,0-2.78-1.57-2.78-4V338.64z M76.13,338.94c0,2.03,0.77,3.25,1.94,3.25c1.17,0,1.93-1.22,1.93-3.25v-0.3
			c0-2.03-0.76-3.26-1.93-3.26c-1.17,0-1.94,1.24-1.94,3.26V338.94z"/>
	</g>
</g>
</svg>
