<?xml version="1.0" encoding="utf-8"?>
<!-- Generator: Adobe Illustrator 24.1.0, SVG Export Plug-In . SVG Version: 6.00 Build 0)  -->
<svg version="1.1" id="Layer_1" xmlns="http://www.w3.org/2000/svg" xmlns:xlink="http://www.w3.org/1999/xlink" x="0px" y="0px"
	 viewBox="0 0 220.3 278.4" style="enable-background:new 0 0 220.3 278.4;" xml:space="preserve">
<style type="text/css">
	.st0{fill:#484756;}
	.st1{fill:#FD920F;}
	.st2{fill:#ED7D31;}
	.st3{fill:#FFFFFF;}
</style>
<g>
	<path d="M49.3,254.4c-1.1,0-2.1-0.2-3.1-0.6c-1-0.4-1.8-1-2.6-1.7l1.6-1.9c0.6,0.5,1.2,1,1.9,1.3s1.4,0.5,2.2,0.5
		c0.9,0,1.6-0.2,2-0.6c0.5-0.4,0.7-0.9,0.7-1.5c0-0.3-0.1-0.6-0.2-0.8c-0.1-0.2-0.3-0.4-0.5-0.6c-0.2-0.2-0.5-0.3-0.8-0.5
		c-0.3-0.1-0.6-0.3-1-0.4l-2.2-0.9c-0.4-0.2-0.8-0.4-1.1-0.6c-0.4-0.2-0.7-0.5-1-0.9c-0.3-0.3-0.6-0.7-0.7-1.2
		c-0.2-0.4-0.3-1-0.3-1.5c0-0.6,0.1-1.2,0.4-1.7c0.3-0.5,0.6-1,1.1-1.4s1-0.7,1.7-0.9s1.4-0.3,2.1-0.3c0.9,0,1.8,0.2,2.6,0.6
		c0.8,0.4,1.6,0.8,2.2,1.4L53,242c-0.5-0.4-1-0.7-1.6-1c-0.5-0.2-1.1-0.4-1.8-0.4c-0.8,0-1.3,0.2-1.8,0.5c-0.4,0.3-0.7,0.8-0.7,1.3
		c0,0.3,0.1,0.6,0.2,0.8c0.1,0.2,0.3,0.4,0.6,0.6c0.2,0.2,0.5,0.3,0.8,0.5c0.3,0.1,0.6,0.3,0.9,0.4l2.1,0.9c0.5,0.2,0.9,0.4,1.3,0.7
		c0.4,0.3,0.7,0.6,1,0.9c0.3,0.3,0.5,0.7,0.7,1.2c0.2,0.4,0.2,0.9,0.2,1.5s-0.1,1.2-0.4,1.8c-0.3,0.6-0.6,1.1-1.1,1.5
		s-1.1,0.8-1.8,1C51,254.3,50.2,254.4,49.3,254.4z M57.5,254.2v-16.9h2.8v4.4l-0.1,2.3c0.5-0.5,1-0.9,1.6-1.2
		c0.6-0.4,1.3-0.6,2.1-0.6c1.3,0,2.2,0.4,2.8,1.2s0.9,1.9,0.9,3.4v7.4h-2.8v-7c0-1-0.1-1.7-0.4-2.1c-0.3-0.4-0.8-0.6-1.4-0.6
		c-0.5,0-1,0.1-1.4,0.4c-0.4,0.2-0.8,0.6-1.3,1.1v8.2L57.5,254.2L57.5,254.2z M73.8,254.4c-1,0-1.9-0.3-2.5-0.9
		c-0.6-0.6-1-1.5-1-2.5c0-0.6,0.1-1.2,0.4-1.7s0.7-0.9,1.2-1.3c0.6-0.4,1.3-0.6,2.2-0.9c0.9-0.2,1.9-0.4,3.1-0.6
		c0-0.3-0.1-0.6-0.1-0.9c-0.1-0.3-0.2-0.5-0.4-0.7c-0.2-0.2-0.4-0.4-0.6-0.5c-0.3-0.1-0.6-0.2-1-0.2c-0.6,0-1.1,0.1-1.7,0.3
		c-0.5,0.2-1.1,0.5-1.6,0.8l-1-1.8c0.7-0.4,1.4-0.8,2.2-1.1c0.8-0.3,1.7-0.5,2.6-0.5c1.5,0,2.6,0.4,3.3,1.3c0.7,0.9,1.1,2.1,1.1,3.8
		v7h-2.3l-0.2-1.3h-0.1c-0.5,0.4-1.1,0.8-1.7,1.1C75.1,254.3,74.5,254.4,73.8,254.4z M74.6,252.3c0.5,0,0.9-0.1,1.3-0.3
		s0.8-0.5,1.3-1v-2.6c-0.8,0.1-1.5,0.2-2,0.4s-1,0.3-1.3,0.5s-0.6,0.4-0.7,0.7s-0.2,0.5-0.2,0.8c0,0.5,0.2,0.9,0.5,1.1
		C73.7,252.2,74.1,252.3,74.6,252.3z M83.2,254.2v-11.8h2.3l0.2,2.1h0.1c0.4-0.8,0.9-1.3,1.5-1.7s1.2-0.6,1.8-0.6
		c0.6,0,1,0.1,1.3,0.2l-0.5,2.4c-0.2-0.1-0.4-0.1-0.6-0.1s-0.4,0-0.6,0c-0.5,0-0.9,0.2-1.5,0.6c-0.5,0.4-0.9,1-1.3,1.9v7.2h-2.7
		V254.2z M97,254.4c-0.8,0-1.6-0.1-2.3-0.4c-0.7-0.3-1.3-0.7-1.8-1.2s-0.9-1.2-1.2-1.9c-0.3-0.8-0.4-1.6-0.4-2.6s0.2-1.8,0.5-2.6
		s0.7-1.4,1.2-1.9s1.1-0.9,1.7-1.2c0.7-0.3,1.3-0.4,2-0.4c0.8,0,1.5,0.1,2.1,0.4c0.6,0.3,1.1,0.7,1.5,1.1c0.4,0.5,0.7,1.1,0.9,1.8
		c0.2,0.7,0.3,1.4,0.3,2.3c0,0.3,0,0.5,0,0.8c0,0.2,0,0.4-0.1,0.6h-7.5c0.1,1.1,0.5,1.9,1.1,2.4c0.6,0.6,1.4,0.8,2.4,0.8
		c0.5,0,1-0.1,1.4-0.2c0.4-0.2,0.9-0.4,1.3-0.6l0.9,1.7c-0.6,0.4-1.2,0.7-1.9,0.9C98.4,254.3,97.7,254.4,97,254.4z M93.8,247.2H99
		c0-0.9-0.2-1.6-0.6-2.1s-1-0.8-1.8-0.8c-0.7,0-1.3,0.2-1.8,0.7C94.3,245.5,94,246.2,93.8,247.2z M108.2,254.4
		c-1.5,0-2.7-0.5-3.5-1.6c-0.9-1.1-1.3-2.6-1.3-4.5c0-1,0.1-1.8,0.4-2.6s0.7-1.4,1.1-1.9c0.5-0.5,1-0.9,1.6-1.2s1.2-0.4,1.9-0.4
		c0.7,0,1.2,0.1,1.7,0.4c0.5,0.2,0.9,0.5,1.4,0.9l-0.1-1.9v-4.3h2.8v16.9h-2.3l-0.2-1.3h-0.1c-0.4,0.4-0.9,0.8-1.5,1.1
		C109.4,254.3,108.8,254.4,108.2,254.4z M108.9,252.2c0.9,0,1.7-0.4,2.5-1.3v-5.5c-0.4-0.4-0.8-0.6-1.2-0.8
		c-0.4-0.1-0.8-0.2-1.2-0.2c-0.8,0-1.4,0.3-1.9,1s-0.8,1.6-0.8,2.9c0,1.3,0.2,2.3,0.7,2.9C107.3,251.8,108,252.2,108.9,252.2z
		 M122.6,254.2v-15.7h9.5v2.3h-6.7v4.4h5.7v2.3h-5.7v6.5h-2.8V254.2z M139,254.4c-0.7,0-1.4-0.1-2.1-0.4c-0.7-0.3-1.3-0.7-1.8-1.2
		s-0.9-1.2-1.2-1.9c-0.3-0.8-0.5-1.6-0.5-2.6s0.2-1.8,0.5-2.6s0.7-1.4,1.2-1.9s1.1-0.9,1.8-1.2s1.4-0.4,2.1-0.4
		c0.7,0,1.4,0.1,2.1,0.4c0.7,0.3,1.3,0.7,1.8,1.2s0.9,1.2,1.2,1.9c0.3,0.8,0.5,1.6,0.5,2.6s-0.2,1.8-0.5,2.6s-0.7,1.4-1.2,1.9
		s-1.1,0.9-1.8,1.2C140.5,254.3,139.8,254.4,139,254.4z M139,252.2c0.9,0,1.5-0.4,2-1.1c0.5-0.7,0.7-1.7,0.7-2.8
		c0-1.2-0.2-2.1-0.7-2.9c-0.5-0.7-1.2-1.1-2-1.1s-1.5,0.4-2,1.1c-0.5,0.7-0.7,1.7-0.7,2.9s0.2,2.1,0.7,2.8
		C137.5,251.8,138.2,252.2,139,252.2z M152.2,254.4c-0.7,0-1.4-0.1-2.1-0.4c-0.7-0.3-1.3-0.7-1.8-1.2s-0.9-1.2-1.2-1.9
		c-0.3-0.8-0.5-1.6-0.5-2.6s0.2-1.8,0.5-2.6s0.7-1.4,1.2-1.9s1.1-0.9,1.8-1.2s1.4-0.4,2.1-0.4c0.7,0,1.4,0.1,2.1,0.4
		c0.7,0.3,1.3,0.7,1.8,1.2s0.9,1.2,1.2,1.9c0.3,0.8,0.5,1.6,0.5,2.6s-0.2,1.8-0.5,2.6s-0.7,1.4-1.2,1.9s-1.1,0.9-1.8,1.2
		S152.9,254.4,152.2,254.4z M152.2,252.2c0.9,0,1.5-0.4,2-1.1c0.5-0.7,0.7-1.7,0.7-2.8c0-1.2-0.2-2.1-0.7-2.9
		c-0.5-0.7-1.2-1.1-2-1.1s-1.5,0.4-2,1.1c-0.5,0.7-0.7,1.7-0.7,2.9s0.2,2.1,0.7,2.8C150.6,251.8,151.3,252.2,152.2,252.2z
		 M164.6,254.4c-1.5,0-2.7-0.5-3.5-1.6c-0.9-1.1-1.3-2.6-1.3-4.5c0-1,0.1-1.8,0.4-2.6c0.3-0.8,0.7-1.4,1.1-1.9
		c0.5-0.5,1-0.9,1.6-1.2s1.2-0.4,1.9-0.4s1.2,0.1,1.7,0.4c0.5,0.2,0.9,0.5,1.4,0.9l-0.1-1.9v-4.3h2.8v16.9h-2.3l-0.2-1.3H168
		c-0.4,0.4-0.9,0.8-1.5,1.1C165.9,254.3,165.3,254.4,164.6,254.4z M165.3,252.2c0.9,0,1.7-0.4,2.5-1.3v-5.5
		c-0.4-0.4-0.8-0.6-1.2-0.8c-0.4-0.1-0.8-0.2-1.2-0.2c-0.8,0-1.4,0.3-1.9,1s-0.8,1.6-0.8,2.9c0,1.3,0.2,2.3,0.7,2.9
		C163.8,251.8,164.4,252.2,165.3,252.2z M54.8,278.2v-15.7h4.9c0.9,0,1.7,0.1,2.4,0.2c0.8,0.2,1.4,0.4,1.9,0.8
		c0.5,0.4,1,0.9,1.3,1.5s0.5,1.4,0.5,2.3s-0.2,1.6-0.5,2.3c-0.3,0.6-0.7,1.2-1.3,1.6c-0.5,0.4-1.2,0.7-1.9,0.9
		c-0.7,0.2-1.5,0.3-2.3,0.3h-2.3v5.7h-2.7V278.2z M57.6,270.2h2c2.3,0,3.4-1,3.4-2.8c0-1-0.3-1.7-0.9-2c-0.6-0.4-1.5-0.6-2.6-0.6
		h-1.9V270.2z M68.5,278.2v-11.8h2.8v11.8H68.5z M69.9,264.3c-0.5,0-0.9-0.1-1.2-0.4c-0.3-0.3-0.5-0.7-0.5-1.1
		c0-0.5,0.2-0.8,0.5-1.1c0.3-0.3,0.7-0.5,1.2-0.5s0.9,0.2,1.2,0.5c0.3,0.3,0.5,0.7,0.5,1.1c0,0.5-0.2,0.8-0.5,1.1
		C70.8,264.2,70.4,264.3,69.9,264.3z M79.7,278.4c-0.8,0-1.5-0.1-2.3-0.4c-0.7-0.3-1.3-0.7-1.8-1.2s-0.9-1.2-1.2-1.9
		c-0.3-0.8-0.4-1.6-0.4-2.6s0.2-1.8,0.5-2.6c0.3-0.8,0.8-1.4,1.3-1.9s1.2-0.9,1.9-1.2c0.7-0.3,1.5-0.4,2.3-0.4s1.4,0.1,2,0.4
		s1.1,0.6,1.5,0.9l-1.3,1.8c-0.3-0.3-0.6-0.5-1-0.6c-0.3-0.2-0.6-0.2-1-0.2c-1,0-1.7,0.4-2.3,1.1c-0.6,0.7-0.9,1.7-0.9,2.9
		c0,1.2,0.3,2.1,0.9,2.8c0.6,0.7,1.3,1.1,2.3,1.1c0.5,0,0.9-0.1,1.3-0.3c0.4-0.2,0.8-0.4,1.1-0.7l1.1,1.8c-0.6,0.5-1.2,0.8-1.8,1.1
		C81,278.3,80.3,278.4,79.7,278.4z M89.1,278.4c-0.8,0-1.6-0.2-2.4-0.5s-1.5-0.7-2-1.2l1.3-1.8c0.5,0.4,1,0.7,1.6,1
		c0.5,0.2,1.1,0.3,1.7,0.3s1.1-0.1,1.4-0.4s0.5-0.6,0.5-1c0-0.2-0.1-0.4-0.2-0.6s-0.3-0.4-0.6-0.5c-0.2-0.1-0.5-0.3-0.8-0.4
		s-0.6-0.3-0.9-0.4c-0.4-0.1-0.8-0.3-1.2-0.5c-0.4-0.2-0.8-0.4-1.1-0.7c-0.3-0.3-0.6-0.6-0.8-0.9c-0.2-0.4-0.3-0.8-0.3-1.3
		c0-1,0.4-1.9,1.1-2.5c0.8-0.7,1.8-1,3.1-1c0.8,0,1.5,0.1,2.2,0.4s1.2,0.6,1.7,1l-1.3,1.7c-0.4-0.3-0.8-0.5-1.3-0.7
		c-0.4-0.2-0.9-0.3-1.3-0.3c-0.6,0-1,0.1-1.3,0.4c-0.3,0.2-0.4,0.5-0.4,0.9c0,0.2,0.1,0.4,0.2,0.6s0.3,0.3,0.6,0.4
		c0.2,0.1,0.5,0.2,0.8,0.4c0.3,0.1,0.6,0.2,0.9,0.3c0.4,0.1,0.8,0.3,1.2,0.5c0.4,0.2,0.8,0.4,1.1,0.7c0.3,0.3,0.6,0.6,0.8,1
		c0.2,0.4,0.3,0.8,0.3,1.4c0,0.5-0.1,1-0.3,1.4c-0.2,0.4-0.5,0.8-0.9,1.1c-0.4,0.3-0.9,0.6-1.4,0.8
		C90.5,278.3,89.8,278.4,89.1,278.4z M107.2,278.4c-1,0-2-0.2-2.8-0.6s-1.6-0.9-2.2-1.6s-1.1-1.6-1.4-2.6s-0.5-2.1-0.5-3.4
		s0.2-2.4,0.5-3.4s0.8-1.9,1.4-2.5c0.6-0.7,1.3-1.2,2.2-1.6s1.8-0.6,2.8-0.6s2,0.2,2.8,0.6s1.6,0.9,2.2,1.6s1.1,1.5,1.4,2.5
		s0.5,2.1,0.5,3.4s-0.2,2.4-0.5,3.4s-0.8,1.9-1.4,2.6s-1.3,1.2-2.2,1.6C109.2,278.3,108.3,278.4,107.2,278.4z M107.2,276
		c0.6,0,1.2-0.1,1.7-0.4s0.9-0.7,1.3-1.1c0.4-0.5,0.6-1.1,0.8-1.8c0.2-0.7,0.3-1.5,0.3-2.4c0-1.8-0.4-3.1-1.1-4.1s-1.7-1.5-2.9-1.5
		c-1.2,0-2.2,0.5-3,1.5c-0.7,1-1.1,2.4-1.1,4.1c0,0.9,0.1,1.7,0.3,2.4c0.2,0.7,0.5,1.3,0.8,1.8c0.4,0.5,0.8,0.9,1.3,1.1
		C106.1,275.9,106.6,276,107.2,276z M117.1,278.2v-11.8h2.3l0.2,1.6h0.1c0.5-0.5,1.1-1,1.7-1.3c0.6-0.4,1.3-0.6,2.2-0.6
		c1.3,0,2.2,0.4,2.8,1.2c0.6,0.8,0.9,1.9,0.9,3.4v7.4h-2.8v-7c0-1-0.1-1.7-0.4-2.1s-0.8-0.6-1.4-0.6c-0.5,0-1,0.1-1.4,0.4
		c-0.4,0.2-0.8,0.6-1.3,1.1v8.2L117.1,278.2L117.1,278.2z M133.1,278.4c-1,0-1.7-0.3-2.1-0.9c-0.4-0.6-0.6-1.4-0.6-2.4v-13.9h2.8v14
		c0,0.3,0.1,0.6,0.2,0.7c0.1,0.1,0.3,0.2,0.4,0.2c0.1,0,0.1,0,0.2,0c0.1,0,0.2,0,0.3,0l0.4,2.1C134.2,278.4,133.8,278.4,133.1,278.4
		z M137,278.2v-11.8h2.8v11.8H137z M138.4,264.3c-0.5,0-0.9-0.1-1.2-0.4s-0.5-0.7-0.5-1.1c0-0.5,0.2-0.8,0.5-1.1
		c0.3-0.3,0.7-0.5,1.2-0.5s0.9,0.2,1.2,0.5s0.5,0.7,0.5,1.1c0,0.5-0.2,0.8-0.5,1.1C139.3,264.2,138.8,264.3,138.4,264.3z
		 M143.2,278.2v-11.8h2.3l0.2,1.6h0.1c0.5-0.5,1.1-1,1.7-1.3c0.6-0.4,1.3-0.6,2.2-0.6c1.3,0,2.2,0.4,2.8,1.2
		c0.6,0.8,0.9,1.9,0.9,3.4v7.4h-2.8v-7c0-1-0.1-1.7-0.4-2.1c-0.3-0.4-0.8-0.6-1.4-0.6c-0.5,0-1,0.1-1.4,0.4
		c-0.4,0.2-0.8,0.6-1.3,1.1v8.2L143.2,278.2L143.2,278.2z M161.7,278.4c-0.8,0-1.6-0.1-2.3-0.4s-1.3-0.7-1.8-1.2s-0.9-1.2-1.2-1.9
		c-0.3-0.8-0.4-1.6-0.4-2.6s0.2-1.8,0.5-2.6c0.3-0.8,0.7-1.4,1.2-1.9s1.1-0.9,1.7-1.2c0.7-0.3,1.3-0.4,2-0.4c0.8,0,1.5,0.1,2.1,0.4
		s1.1,0.7,1.5,1.1c0.4,0.5,0.7,1.1,0.9,1.8c0.2,0.7,0.3,1.4,0.3,2.3c0,0.3,0,0.5,0,0.8c0,0.2,0,0.4-0.1,0.6h-7.5
		c0.1,1.1,0.5,1.9,1.1,2.4c0.6,0.6,1.4,0.8,2.4,0.8c0.5,0,1-0.1,1.4-0.2c0.4-0.2,0.9-0.4,1.3-0.6l0.9,1.7c-0.6,0.4-1.2,0.7-1.9,0.9
		C163.1,278.3,162.4,278.4,161.7,278.4z M158.5,271.2h5.2c0-0.9-0.2-1.6-0.6-2.1c-0.4-0.5-1-0.8-1.8-0.8c-0.7,0-1.3,0.2-1.8,0.7
		C159,269.5,158.6,270.2,158.5,271.2z"/>
</g>
<g>
	<path class="st0" d="M110.2,220.4C49.5,220.4,0,170.9,0,110.2C0,49.5,49.5,0,110.2,0c60.7,0,110.2,49.4,110.2,110.2
		C220.4,170.9,170.9,220.4,110.2,220.4z M110.2,28.8c-44.9,0-81.4,36.5-81.4,81.4c0,44.9,36.5,81.4,81.4,81.4
		c44.9,0,81.4-36.5,81.4-81.4C191.6,65.3,155.1,28.8,110.2,28.8z"/>
</g>
<g>
	<path class="st1" d="M110.2,220.3c-10.7,0-21.5-1.6-31.9-4.7c-24.3-7.3-45.5-23-59.6-44.2c-14.2-21.2-20.6-46.8-18.1-72
		c2.4-25.1,13.6-49,31.6-67.1l20.4,20.3c-13.3,13.4-21.6,31-23.4,49.6c-1.9,18.7,2.9,37.6,13.3,53.3C53,171,68.6,182.6,86.6,188
		c18,5.4,37.5,4.5,54.8-2.7c17.4-7.1,31.8-20.2,40.6-36.8c8.9-16.5,11.7-35.7,8.1-54.3c-3.6-18.3-13.6-35.1-28.2-47.1
		c-14.6-11.9-32.9-18.4-51.7-18.4V0c25.3,0,50.1,8.9,69.9,24.9c19.8,16.3,33.3,38.9,38.2,63.8c4.9,25,1.1,51.1-10.9,73.4
		c-12,22.5-31.5,40.2-55,49.8C138.9,217.5,124.6,220.3,110.2,220.3z"/>
</g>
<g>
	<circle class="st2" cx="110.2" cy="110.2" r="68"/>
</g>
<g>
	<path class="st3" d="M70.7,127.5c-1.6,0-3.1-0.2-4.4-0.6s-2.5-1-3.4-1.8s-1.7-1.7-2.2-2.9c-0.5-1.1-0.8-2.4-0.8-3.7
		c0-1.8,0.5-3.4,1.4-4.7c0.9-1.3,2.3-2.2,4.2-2.8c-1.5-0.6-2.7-1.5-3.4-2.7s-1.1-2.6-1.1-4.2c0-1.2,0.2-2.3,0.7-3.3s1.2-1.9,2-2.7
		c0.9-0.8,1.9-1.4,3.1-1.8c1.2-0.4,2.5-0.6,4-0.6c1.4,0,2.8,0.2,3.9,0.6c1.2,0.4,2.2,1,3.1,1.8c0.9,0.7,1.5,1.6,2,2.7
		c0.5,1,0.7,2.1,0.7,3.3c0,1.6-0.4,3-1.1,4.2c-0.8,1.2-1.9,2.1-3.4,2.7c1.9,0.6,3.3,1.6,4.2,2.8c0.9,1.3,1.4,2.8,1.4,4.7
		c0,1.4-0.3,2.6-0.8,3.7s-1.2,2.1-2.2,2.9c-0.9,0.8-2.1,1.4-3.4,1.8C73.8,127.2,72.4,127.5,70.7,127.5z M70.7,123.3
		c0.9,0,1.6-0.1,2.3-0.4c0.7-0.3,1.2-0.6,1.7-1.1c0.5-0.4,0.8-1,1-1.6s0.3-1.3,0.3-2c0-1.7-0.5-3-1.4-3.9s-2.3-1.3-3.9-1.3
		c-1.7,0-3,0.4-3.9,1.3s-1.4,2.2-1.4,3.9c0,0.7,0.1,1.4,0.3,2c0.2,0.6,0.6,1.1,1,1.6c0.5,0.4,1,0.8,1.7,1.1
		C69.1,123.2,69.9,123.3,70.7,123.3z M70.7,108.9c0.9,0,1.6-0.1,2.2-0.4s1.1-0.6,1.4-1.1c0.4-0.5,0.6-1,0.8-1.6
		c0.2-0.6,0.2-1.2,0.2-1.8c0-0.6-0.1-1.1-0.3-1.7c-0.2-0.5-0.5-1-0.8-1.4c-0.4-0.4-0.8-0.7-1.4-1c-0.6-0.2-1.3-0.4-2-0.4
		s-1.5,0.1-2,0.4c-0.6,0.2-1.1,0.6-1.4,1c-0.4,0.4-0.7,0.9-0.8,1.4c-0.2,0.5-0.3,1.1-0.3,1.7s0.1,1.2,0.2,1.8
		c0.2,0.6,0.4,1.1,0.8,1.6c0.4,0.4,0.8,0.8,1.4,1.1C69.2,108.8,69.9,108.9,70.7,108.9z M106.9,95.9v2.3c0,0.7-0.1,1.2-0.2,1.7
		c-0.1,0.4-0.3,0.8-0.4,1.1l-11.8,24.3c-0.2,0.5-0.6,0.9-1,1.3c-0.4,0.3-1,0.5-1.8,0.5h-3.9l12.1-23.8c0.5-1,1.1-1.8,1.7-2.5H86.5
		c-0.3,0-0.6-0.1-0.9-0.4c-0.2-0.2-0.4-0.5-0.4-0.9v-3.6H106.9z M109.8,124.2c0-0.4,0.1-0.9,0.2-1.3c0.2-0.4,0.4-0.7,0.7-1
		c0.3-0.3,0.7-0.5,1.1-0.7s0.8-0.3,1.3-0.3c0.4,0,0.9,0.1,1.3,0.3c0.4,0.2,0.7,0.4,1,0.7c0.3,0.3,0.5,0.6,0.7,1s0.3,0.8,0.3,1.3
		s-0.1,0.9-0.3,1.3c-0.2,0.4-0.4,0.7-0.7,1c-0.3,0.3-0.6,0.5-1,0.7s-0.8,0.3-1.3,0.3s-0.9-0.1-1.3-0.3c-0.4-0.2-0.8-0.4-1.1-0.7
		c-0.3-0.3-0.5-0.6-0.7-1C109.9,125.1,109.8,124.6,109.8,124.2z M139.3,98.2c0,0.8-0.2,1.4-0.7,1.9s-1.3,0.7-2.4,0.7h-8.6l-1.1,6.5
		c1.4-0.3,2.7-0.4,3.9-0.4c1.6,0,3.1,0.2,4.3,0.7s2.3,1.2,3.1,2c0.8,0.9,1.5,1.9,1.9,3c0.4,1.2,0.6,2.4,0.6,3.7
		c0,1.7-0.3,3.2-0.9,4.5c-0.6,1.4-1.4,2.5-2.4,3.5s-2.3,1.7-3.7,2.2s-2.9,0.8-4.6,0.8c-1,0-1.9-0.1-2.8-0.3
		c-0.9-0.2-1.7-0.5-2.5-0.8s-1.5-0.7-2.1-1.2c-0.6-0.4-1.2-0.9-1.7-1.4l1.6-2.3c0.3-0.5,0.8-0.7,1.4-0.7c0.4,0,0.7,0.1,1.1,0.3
		c0.4,0.2,0.8,0.5,1.3,0.8s1.1,0.5,1.7,0.8c0.6,0.2,1.4,0.3,2.4,0.3s1.8-0.2,2.6-0.5s1.4-0.8,1.9-1.3c0.5-0.6,0.9-1.2,1.1-2
		c0.3-0.8,0.4-1.6,0.4-2.6c0-1.7-0.5-3-1.5-4s-2.4-1.4-4.3-1.4c-1.5,0-3,0.3-4.5,0.8l-3.3-0.9l2.6-15.1h15.4v2.4H139.3z
		 M151.9,113.9c0,0.6-0.1,1.2-0.3,1.7s-0.5,1-0.9,1.4s-0.8,0.7-1.3,0.9c-0.5,0.2-1,0.3-1.6,0.3s-1.2-0.1-1.7-0.3
		c-0.5-0.2-0.9-0.5-1.3-0.9c-0.4-0.4-0.7-0.8-0.9-1.4c-0.2-0.5-0.3-1.1-0.3-1.7c0-0.7,0.1-1.3,0.3-1.8s0.5-1,0.9-1.4
		s0.8-0.7,1.3-0.9c0.5-0.2,1.1-0.3,1.7-0.3c0.6,0,1.2,0.1,1.7,0.3c0.5,0.2,1,0.5,1.3,0.9c0.4,0.4,0.7,0.8,0.9,1.4
		C151.8,112.6,151.9,113.2,151.9,113.9z M149,113.9c0-0.4,0-0.7-0.1-1s-0.2-0.5-0.3-0.6c-0.1-0.2-0.3-0.3-0.4-0.3
		c-0.2-0.1-0.3-0.1-0.5-0.1s-0.4,0-0.5,0.1c-0.2,0.1-0.3,0.2-0.4,0.3c-0.1,0.2-0.2,0.4-0.3,0.6c-0.1,0.3-0.1,0.6-0.1,1s0,0.7,0.1,1
		s0.2,0.5,0.3,0.6c0.1,0.2,0.2,0.3,0.4,0.3c0.2,0.1,0.3,0.1,0.5,0.1s0.4,0,0.5-0.1c0.2-0.1,0.3-0.2,0.4-0.3c0.1-0.2,0.2-0.4,0.3-0.6
		C149,114.6,149,114.3,149,113.9z M157.4,110.2c0.1-0.1,0.3-0.3,0.4-0.4c0.2-0.1,0.4-0.2,0.7-0.2h2.7l-13.1,16.9
		c-0.1,0.2-0.3,0.3-0.5,0.4s-0.4,0.1-0.6,0.1h-2.8L157.4,110.2z M161.9,123c0,0.6-0.1,1.2-0.3,1.8c-0.2,0.5-0.5,1-0.9,1.4
		s-0.8,0.7-1.3,0.9c-0.5,0.2-1,0.3-1.6,0.3s-1.2-0.1-1.7-0.3c-0.5-0.2-0.9-0.5-1.3-0.9c-0.4-0.4-0.7-0.8-0.9-1.4
		c-0.2-0.5-0.3-1.1-0.3-1.8c0-0.7,0.1-1.3,0.3-1.8s0.5-1,0.9-1.4s0.8-0.7,1.3-0.9c0.5-0.2,1.1-0.3,1.7-0.3s1.2,0.1,1.7,0.3
		c0.5,0.2,1,0.5,1.3,0.9c0.4,0.4,0.7,0.8,0.9,1.4C161.8,121.8,161.9,122.3,161.9,123z M159.1,123c0-0.4,0-0.7-0.1-1
		s-0.2-0.5-0.3-0.6c-0.1-0.2-0.3-0.3-0.4-0.3c-0.2-0.1-0.3-0.1-0.5-0.1s-0.4,0-0.5,0.1c-0.2,0.1-0.3,0.2-0.4,0.3
		c-0.1,0.2-0.2,0.4-0.3,0.6c-0.1,0.3-0.1,0.6-0.1,1s0,0.7,0.1,1s0.2,0.5,0.3,0.6s0.2,0.3,0.4,0.3c0.2,0.1,0.3,0.1,0.5,0.1
		s0.4,0,0.5-0.1c0.2-0.1,0.3-0.2,0.4-0.3c0.1-0.2,0.2-0.4,0.3-0.6C159,123.7,159.1,123.4,159.1,123z"/>
</g>
</svg>
