<?xml version="1.0" encoding="utf-8"?>
<!-- Generator: Adobe Illustrator 24.1.0, SVG Export Plug-In . SVG Version: 6.00 Build 0)  -->
<svg version="1.1" id="Layer_1" xmlns="http://www.w3.org/2000/svg" xmlns:xlink="http://www.w3.org/1999/xlink" x="0px" y="0px"
	 viewBox="0 0 220.3 278.4" style="enable-background:new 0 0 220.3 278.4;" xml:space="preserve">
<style type="text/css">
	.st0{fill:#484756;}
	.st1{fill:#FD920F;}
	.st2{fill:#ED7D31;}
	.st3{fill:#FFFFFF;}
</style>
<g>
	<path d="M12.8,254.4c-1,0-1.9-0.2-2.8-0.5c-0.9-0.4-1.6-0.9-2.3-1.6c-0.6-0.7-1.1-1.5-1.5-2.5s-0.6-2.2-0.6-3.4
		c0-1.3,0.2-2.4,0.6-3.4s0.9-1.9,1.5-2.6c0.7-0.7,1.4-1.2,2.3-1.6c0.9-0.4,1.8-0.6,2.8-0.6s1.9,0.2,2.6,0.6c0.8,0.4,1.4,0.9,1.9,1.4
		l-1.5,1.8c-0.4-0.4-0.9-0.7-1.3-1c-0.5-0.3-1-0.4-1.6-0.4s-1.2,0.1-1.8,0.4c-0.5,0.3-1,0.6-1.4,1.1s-0.7,1.1-0.9,1.8
		s-0.3,1.5-0.3,2.4c0,1.8,0.4,3.2,1.1,4.2c0.8,1,1.8,1.5,3.2,1.5c0.7,0,1.3-0.1,1.9-0.4c0.5-0.3,1-0.7,1.5-1.2l1.5,1.7
		c-0.6,0.7-1.4,1.3-2.2,1.7C14.7,254.2,13.8,254.4,12.8,254.4z M24.9,254.4c-0.7,0-1.4-0.1-2.1-0.4c-0.7-0.3-1.3-0.7-1.8-1.2
		s-0.9-1.2-1.2-1.9c-0.3-0.8-0.5-1.6-0.5-2.6s0.2-1.8,0.5-2.6s0.7-1.4,1.2-1.9s1.1-0.9,1.8-1.2c0.7-0.3,1.4-0.4,2.1-0.4
		s1.4,0.1,2.1,0.4c0.7,0.3,1.3,0.7,1.8,1.2s0.9,1.2,1.2,1.9c0.3,0.8,0.5,1.6,0.5,2.6s-0.2,1.8-0.5,2.6s-0.7,1.4-1.2,1.9
		s-1.1,0.9-1.8,1.2C26.3,254.3,25.6,254.4,24.9,254.4z M24.9,252.2c0.9,0,1.5-0.4,2-1.1c0.5-0.7,0.7-1.7,0.7-2.8
		c0-1.2-0.2-2.1-0.7-2.9c-0.5-0.7-1.2-1.1-2-1.1c-0.9,0-1.5,0.4-2,1.1c-0.5,0.7-0.7,1.7-0.7,2.9s0.2,2.1,0.7,2.8
		C23.3,251.8,24,252.2,24.9,252.2z M35.9,254.4c-1,0-1.7-0.3-2.1-0.9c-0.4-0.6-0.6-1.4-0.6-2.4v-13.9H36v14c0,0.3,0.1,0.6,0.2,0.7
		c0.1,0.1,0.3,0.2,0.4,0.2c0.1,0,0.1,0,0.2,0c0.1,0,0.2,0,0.3,0l0.4,2.1C37,254.4,36.5,254.4,35.9,254.4z M42.4,254.4
		c-1,0-1.7-0.3-2.1-0.9c-0.4-0.6-0.6-1.4-0.6-2.4v-13.9h2.8v14c0,0.3,0.1,0.6,0.2,0.7c0.1,0.1,0.3,0.2,0.4,0.2c0.1,0,0.1,0,0.2,0
		c0.1,0,0.2,0,0.3,0l0.4,2.1C43.5,254.4,43,254.4,42.4,254.4z M49.1,254.4c-1,0-1.9-0.3-2.5-0.9c-0.6-0.6-1-1.5-1-2.5
		c0-0.6,0.1-1.2,0.4-1.7c0.3-0.5,0.7-0.9,1.2-1.3c0.6-0.4,1.3-0.6,2.2-0.9c0.9-0.2,1.9-0.4,3.1-0.6c0-0.3-0.1-0.6-0.1-0.9
		c-0.1-0.3-0.2-0.5-0.4-0.7s-0.4-0.4-0.6-0.5c-0.3-0.1-0.6-0.2-1-0.2c-0.6,0-1.1,0.1-1.7,0.3c-0.5,0.2-1.1,0.5-1.6,0.8l-1-1.8
		c0.7-0.4,1.4-0.8,2.2-1.1s1.7-0.5,2.6-0.5c1.5,0,2.6,0.4,3.3,1.3c0.7,0.9,1.1,2.1,1.1,3.8v7H53l-0.2-1.3h-0.1
		c-0.5,0.4-1.1,0.8-1.7,1.1C50.4,254.3,49.8,254.4,49.1,254.4z M50,252.3c0.5,0,0.9-0.1,1.3-0.3c0.4-0.2,0.8-0.5,1.3-1v-2.6
		c-0.8,0.1-1.5,0.2-2,0.4s-1,0.3-1.3,0.5s-0.6,0.4-0.7,0.7c-0.1,0.3-0.2,0.5-0.2,0.8c0,0.5,0.2,0.9,0.5,1.1
		C49.1,252.2,49.5,252.3,50,252.3z M64.3,254.4c-0.5,0-1.1-0.1-1.7-0.4c-0.5-0.3-1.1-0.7-1.6-1.1h0l-0.2,1.2h-2.2v-16.9h2.8v4.4
		l-0.1,2c0.5-0.4,1-0.8,1.6-1.1s1.2-0.4,1.8-0.4c0.7,0,1.4,0.1,2,0.4c0.6,0.3,1.1,0.7,1.5,1.2s0.7,1.1,0.9,1.9
		c0.2,0.7,0.3,1.6,0.3,2.5c0,1-0.1,1.9-0.4,2.7s-0.6,1.4-1.1,2c-0.5,0.5-1,1-1.6,1.2C65.6,254.3,64.9,254.4,64.3,254.4z M63.7,252.2
		c0.8,0,1.4-0.3,2-1c0.5-0.7,0.8-1.7,0.8-3c0-1.2-0.2-2.1-0.6-2.8s-1-1-1.9-1c-0.8,0-1.7,0.4-2.6,1.3v5.5c0.4,0.4,0.8,0.6,1.2,0.8
		C63,252.1,63.3,252.2,63.7,252.2z M76.9,254.4c-0.7,0-1.4-0.1-2.1-0.4c-0.7-0.3-1.3-0.7-1.8-1.2s-0.9-1.2-1.2-1.9
		c-0.3-0.8-0.5-1.6-0.5-2.6s0.2-1.8,0.5-2.6s0.7-1.4,1.2-1.9s1.1-0.9,1.8-1.2c0.7-0.3,1.4-0.4,2.1-0.4s1.4,0.1,2.1,0.4
		c0.7,0.3,1.3,0.7,1.8,1.2s0.9,1.2,1.2,1.9c0.3,0.8,0.5,1.6,0.5,2.6s-0.2,1.8-0.5,2.6s-0.7,1.4-1.2,1.9s-1.1,0.9-1.8,1.2
		C78.3,254.3,77.6,254.4,76.9,254.4z M76.9,252.2c0.9,0,1.5-0.4,2-1.1c0.5-0.7,0.7-1.7,0.7-2.8c0-1.2-0.2-2.1-0.7-2.9
		c-0.5-0.7-1.2-1.1-2-1.1c-0.9,0-1.5,0.4-2,1.1c-0.5,0.7-0.7,1.7-0.7,2.9s0.2,2.1,0.7,2.8C75.3,251.8,76,252.2,76.9,252.2z
		 M85.2,254.2v-11.8h2.3l0.2,2.1h0.1c0.4-0.8,0.9-1.3,1.5-1.7s1.2-0.6,1.8-0.6c0.6,0,1,0.1,1.3,0.2l-0.5,2.4
		c-0.2-0.1-0.4-0.1-0.6-0.1s-0.4,0-0.6,0c-0.5,0-0.9,0.2-1.5,0.6c-0.5,0.4-0.9,1-1.3,1.9v7.2h-2.7V254.2z M96.4,254.4
		c-1,0-1.9-0.3-2.5-0.9c-0.6-0.6-1-1.5-1-2.5c0-0.6,0.1-1.2,0.4-1.7s0.7-0.9,1.2-1.3c0.6-0.4,1.3-0.6,2.2-0.9
		c0.9-0.2,1.9-0.4,3.1-0.6c0-0.3-0.1-0.6-0.1-0.9c-0.1-0.3-0.2-0.5-0.4-0.7c-0.2-0.2-0.4-0.4-0.6-0.5c-0.3-0.1-0.6-0.2-1-0.2
		c-0.6,0-1.1,0.1-1.7,0.3c-0.5,0.2-1.1,0.5-1.6,0.8l-1-1.8c0.7-0.4,1.4-0.8,2.2-1.1c0.8-0.3,1.7-0.5,2.6-0.5c1.5,0,2.6,0.4,3.3,1.3
		c0.7,0.9,1.1,2.1,1.1,3.8v7h-2.3l-0.2-1.3H100c-0.5,0.4-1.1,0.8-1.7,1.1C97.7,254.3,97.1,254.4,96.4,254.4z M97.2,252.3
		c0.5,0,0.9-0.1,1.3-0.3s0.8-0.5,1.3-1v-2.6c-0.8,0.1-1.5,0.2-2,0.4s-1,0.3-1.3,0.5s-0.6,0.4-0.7,0.7s-0.2,0.5-0.2,0.8
		c0,0.5,0.2,0.9,0.5,1.1C96.3,252.2,96.7,252.3,97.2,252.3z M109.6,254.4c-0.7,0-1.3-0.1-1.7-0.3c-0.5-0.2-0.8-0.5-1.2-0.9
		c-0.3-0.4-0.5-0.8-0.6-1.3s-0.2-1.1-0.2-1.7v-5.6h-1.7v-2.1l1.8-0.1l0.3-3.2h2.3v3.2h3v2.2h-3v5.6c0,1.4,0.5,2.1,1.7,2.1
		c0.2,0,0.4,0,0.6-0.1c0.2,0,0.4-0.1,0.6-0.2l0.5,2c-0.3,0.1-0.7,0.2-1.1,0.3C110.5,254.4,110.1,254.4,109.6,254.4z M114.1,254.2
		v-11.8h2.8v11.8H114.1z M115.5,240.3c-0.5,0-0.9-0.1-1.2-0.4c-0.3-0.3-0.5-0.7-0.5-1.1s0.2-0.8,0.5-1.1s0.7-0.5,1.2-0.5
		s0.9,0.2,1.2,0.5c0.3,0.3,0.5,0.7,0.5,1.1s-0.2,0.8-0.5,1.1C116.4,240.2,116,240.3,115.5,240.3z M125.2,254.4
		c-0.7,0-1.4-0.1-2.1-0.4c-0.7-0.3-1.3-0.7-1.8-1.2s-0.9-1.2-1.2-1.9c-0.3-0.8-0.5-1.6-0.5-2.6s0.2-1.8,0.5-2.6s0.7-1.4,1.2-1.9
		s1.1-0.9,1.8-1.2c0.7-0.3,1.4-0.4,2.1-0.4s1.4,0.1,2.1,0.4c0.7,0.3,1.3,0.7,1.8,1.2s0.9,1.2,1.2,1.9c0.3,0.8,0.5,1.6,0.5,2.6
		s-0.2,1.8-0.5,2.6s-0.7,1.4-1.2,1.9s-1.1,0.9-1.8,1.2C126.6,254.3,125.9,254.4,125.2,254.4z M125.2,252.2c0.9,0,1.5-0.4,2-1.1
		c0.5-0.7,0.7-1.7,0.7-2.8c0-1.2-0.2-2.1-0.7-2.9c-0.5-0.7-1.2-1.1-2-1.1s-1.5,0.4-2,1.1c-0.5,0.7-0.7,1.7-0.7,2.9s0.2,2.1,0.7,2.8
		C123.7,251.8,124.3,252.2,125.2,252.2z M133.5,254.2v-11.8h2.3l0.2,1.6h0.1c0.5-0.5,1.1-0.9,1.7-1.3c0.6-0.4,1.3-0.6,2.2-0.6
		c1.3,0,2.2,0.4,2.8,1.2s0.9,1.9,0.9,3.4v7.4h-2.8v-7c0-1-0.1-1.7-0.4-2.1c-0.3-0.4-0.8-0.6-1.4-0.6c-0.5,0-1,0.1-1.4,0.4
		c-0.4,0.2-0.8,0.6-1.3,1.1v8.2h-2.9V254.2z M157.8,254.4c-0.9,0-1.7-0.1-2.5-0.4c-0.7-0.3-1.3-0.7-1.9-1.3
		c-0.5-0.6-0.9-1.3-1.2-2.2s-0.4-2-0.4-3.3v-8.8h2.8v9c0,0.8,0.1,1.6,0.2,2.2c0.2,0.6,0.4,1,0.6,1.4c0.3,0.4,0.6,0.6,1,0.8
		c0.4,0.1,0.8,0.2,1.3,0.2s0.9-0.1,1.3-0.2c0.4-0.2,0.7-0.4,1-0.8c0.3-0.4,0.5-0.8,0.7-1.4c0.2-0.6,0.2-1.3,0.2-2.2v-9h2.7v8.8
		c0,1.3-0.1,2.4-0.4,3.3c-0.3,0.9-0.7,1.6-1.2,2.2c-0.5,0.6-1.1,1-1.9,1.3C159.6,254.3,158.7,254.4,157.8,254.4z M170.6,254.4
		c-0.8,0-1.6-0.2-2.4-0.5c-0.8-0.3-1.5-0.7-2-1.2l1.3-1.8c0.5,0.4,1,0.7,1.6,1c0.5,0.2,1.1,0.3,1.7,0.3c0.6,0,1.1-0.1,1.4-0.4
		c0.3-0.3,0.5-0.6,0.5-1c0-0.2-0.1-0.4-0.2-0.6c-0.1-0.2-0.3-0.4-0.6-0.5c-0.2-0.1-0.5-0.3-0.8-0.4c-0.3-0.1-0.6-0.3-0.9-0.4
		c-0.4-0.1-0.8-0.3-1.2-0.5s-0.8-0.4-1.1-0.7s-0.6-0.6-0.8-0.9c-0.2-0.4-0.3-0.8-0.3-1.3c0-1,0.4-1.9,1.1-2.5c0.8-0.7,1.8-1,3.1-1
		c0.8,0,1.5,0.1,2.2,0.4c0.7,0.3,1.2,0.6,1.7,1l-1.3,1.7c-0.4-0.3-0.8-0.5-1.3-0.7c-0.4-0.2-0.9-0.3-1.3-0.3c-0.6,0-1,0.1-1.3,0.4
		c-0.3,0.2-0.4,0.5-0.4,0.9c0,0.2,0.1,0.4,0.2,0.6c0.1,0.2,0.3,0.3,0.6,0.4c0.2,0.1,0.5,0.2,0.8,0.4c0.3,0.1,0.6,0.2,0.9,0.3
		c0.4,0.1,0.8,0.3,1.2,0.5s0.8,0.4,1.1,0.7s0.6,0.6,0.8,1s0.3,0.8,0.3,1.4c0,0.5-0.1,1-0.3,1.4s-0.5,0.8-0.9,1.1s-0.9,0.6-1.4,0.8
		C172,254.3,171.3,254.4,170.6,254.4z M182.6,254.4c-0.8,0-1.6-0.1-2.3-0.4c-0.7-0.3-1.3-0.7-1.8-1.2s-0.9-1.2-1.2-1.9
		c-0.3-0.8-0.4-1.6-0.4-2.6s0.2-1.8,0.5-2.6s0.7-1.4,1.2-1.9s1.1-0.9,1.7-1.2c0.7-0.3,1.3-0.4,2-0.4c0.8,0,1.5,0.1,2.1,0.4
		c0.6,0.3,1.1,0.7,1.5,1.1c0.4,0.5,0.7,1.1,0.9,1.8s0.3,1.4,0.3,2.3c0,0.3,0,0.5,0,0.8c0,0.2,0,0.4-0.1,0.6h-7.5
		c0.1,1.1,0.5,1.9,1.1,2.4c0.6,0.6,1.4,0.8,2.4,0.8c0.5,0,1-0.1,1.4-0.2c0.4-0.2,0.9-0.4,1.3-0.6l0.9,1.7c-0.6,0.4-1.2,0.7-1.9,0.9
		C184.1,254.3,183.4,254.4,182.6,254.4z M179.5,247.2h5.2c0-0.9-0.2-1.6-0.6-2.1c-0.4-0.5-1-0.8-1.8-0.8c-0.7,0-1.3,0.2-1.8,0.7
		C179.9,245.5,179.6,246.2,179.5,247.2z M190.1,254.2v-9.6h-1.6v-2.1l1.6-0.1v-1.2c0-0.6,0.1-1.2,0.2-1.7c0.1-0.5,0.4-1,0.7-1.3
		c0.3-0.4,0.7-0.7,1.2-0.9s1.1-0.3,1.8-0.3c0.4,0,0.8,0,1.2,0.1s0.7,0.2,1,0.3l-0.5,2.1c-0.4-0.2-0.9-0.3-1.3-0.3
		c-1,0-1.5,0.7-1.5,2v1.3h2.3v2.2h-2.3v9.6h-2.8V254.2z M200.7,254.4c-1.3,0-2.2-0.4-2.8-1.2s-0.9-2-0.9-3.5v-7.4h2.8v7
		c0,1,0.1,1.7,0.4,2.1c0.3,0.4,0.8,0.6,1.4,0.6c0.5,0,1-0.1,1.3-0.4c0.4-0.3,0.8-0.7,1.3-1.2v-8h2.8v11.8h-2.3l-0.2-1.7h-0.1
		c-0.5,0.6-1.1,1.1-1.7,1.5C202.3,254.3,201.5,254.4,200.7,254.4z M213.2,254.4c-1,0-1.7-0.3-2.1-0.9c-0.4-0.6-0.6-1.4-0.6-2.4
		v-13.9h2.8v14c0,0.3,0.1,0.6,0.2,0.7c0.1,0.1,0.3,0.2,0.4,0.2c0.1,0,0.1,0,0.2,0c0.1,0,0.2,0,0.3,0l0.4,2.1
		C214.3,254.4,213.8,254.4,213.2,254.4z M49.9,278.2v-9.6h-1.6v-2.1l1.6-0.1v-1.2c0-0.6,0.1-1.2,0.2-1.7c0.1-0.5,0.4-1,0.7-1.3
		c0.3-0.4,0.7-0.7,1.2-0.9c0.5-0.2,1.1-0.3,1.8-0.3c0.4,0,0.8,0,1.2,0.1s0.7,0.2,1,0.3l-0.5,2.1c-0.4-0.2-0.9-0.3-1.3-0.3
		c-1,0-1.5,0.7-1.5,2v1.3H55v2.2h-2.3v9.6h-2.8V278.2z M61.6,278.4c-0.7,0-1.4-0.1-2.1-0.4c-0.7-0.3-1.3-0.7-1.8-1.2
		s-0.9-1.2-1.2-1.9c-0.3-0.8-0.5-1.6-0.5-2.6s0.2-1.8,0.5-2.6c0.3-0.8,0.7-1.4,1.2-1.9s1.1-0.9,1.8-1.2c0.7-0.3,1.4-0.4,2.1-0.4
		c0.7,0,1.4,0.1,2.1,0.4s1.3,0.7,1.8,1.2s0.9,1.2,1.2,1.9c0.3,0.8,0.5,1.6,0.5,2.6s-0.2,1.8-0.5,2.6c-0.3,0.8-0.7,1.4-1.2,1.9
		s-1.1,0.9-1.8,1.2C63,278.3,62.3,278.4,61.6,278.4z M61.6,276.2c0.9,0,1.5-0.4,2-1.1s0.7-1.7,0.7-2.8c0-1.2-0.2-2.1-0.7-2.9
		c-0.5-0.7-1.2-1.1-2-1.1c-0.9,0-1.5,0.4-2,1.1s-0.7,1.7-0.7,2.9c0,1.2,0.2,2.1,0.7,2.8C60,275.8,60.7,276.2,61.6,276.2z
		 M69.9,278.2v-11.8h2.3l0.2,2.1h0.1c0.4-0.8,0.9-1.3,1.5-1.7c0.6-0.4,1.2-0.6,1.8-0.6c0.6,0,1,0.1,1.3,0.2l-0.5,2.4
		c-0.2-0.1-0.4-0.1-0.6-0.1s-0.4,0-0.6,0c-0.5,0-0.9,0.2-1.5,0.6c-0.5,0.4-0.9,1-1.3,1.9v7.2h-2.7V278.2z M83.9,278.2v-15.7h5
		c0.8,0,1.6,0.1,2.2,0.2c0.7,0.1,1.3,0.3,1.8,0.6c0.5,0.3,0.9,0.7,1.2,1.2c0.3,0.5,0.4,1.1,0.4,1.8c0,0.8-0.2,1.4-0.6,2.1
		c-0.4,0.6-0.9,1.1-1.6,1.3v0.1c0.9,0.2,1.6,0.6,2.1,1.2c0.6,0.6,0.9,1.4,0.9,2.5c0,0.8-0.2,1.5-0.5,2c-0.3,0.6-0.7,1.1-1.3,1.4
		c-0.5,0.4-1.2,0.7-1.9,0.9c-0.7,0.2-1.5,0.3-2.4,0.3h-5.3V278.2z M86.6,269h2c1.1,0,1.9-0.2,2.4-0.6s0.7-0.9,0.7-1.6
		c0-0.8-0.3-1.3-0.8-1.6c-0.5-0.3-1.3-0.5-2.3-0.5h-2C86.6,264.7,86.6,269,86.6,269z M86.6,276H89c1.1,0,2-0.2,2.7-0.6
		c0.6-0.4,0.9-1.1,0.9-2c0-0.8-0.3-1.4-0.9-1.8S90.2,271,89,271h-2.3L86.6,276L86.6,276z M101.4,278.4c-1.3,0-2.2-0.4-2.8-1.2
		c-0.6-0.8-0.9-2-0.9-3.5v-7.4h2.8v7c0,1,0.1,1.7,0.4,2.1s0.8,0.6,1.4,0.6c0.5,0,1-0.1,1.3-0.4c0.4-0.3,0.8-0.7,1.3-1.2v-8h2.8v11.8
		h-2.3l-0.2-1.7h-0.1c-0.5,0.6-1.1,1.1-1.7,1.5C102.9,278.3,102.2,278.4,101.4,278.4z M114.5,278.4c-0.8,0-1.6-0.2-2.4-0.5
		s-1.5-0.7-2-1.2l1.3-1.8c0.5,0.4,1,0.7,1.6,1c0.5,0.2,1.1,0.3,1.7,0.3s1.1-0.1,1.4-0.4s0.5-0.6,0.5-1c0-0.2-0.1-0.4-0.2-0.6
		s-0.3-0.4-0.6-0.5c-0.2-0.1-0.5-0.3-0.8-0.4s-0.6-0.3-0.9-0.4c-0.4-0.1-0.8-0.3-1.2-0.5c-0.4-0.2-0.8-0.4-1.1-0.7
		c-0.3-0.3-0.6-0.6-0.8-0.9c-0.2-0.4-0.3-0.8-0.3-1.3c0-1,0.4-1.9,1.2-2.5c0.8-0.7,1.8-1,3.1-1c0.8,0,1.5,0.1,2.2,0.4s1.2,0.6,1.7,1
		l-1.3,1.7c-0.4-0.3-0.8-0.5-1.3-0.7c-0.4-0.2-0.9-0.3-1.3-0.3c-0.6,0-1,0.1-1.3,0.4c-0.3,0.2-0.4,0.5-0.4,0.9
		c0,0.2,0.1,0.4,0.2,0.6s0.3,0.3,0.6,0.4c0.2,0.1,0.5,0.2,0.8,0.4c0.3,0.1,0.6,0.2,0.9,0.3c0.4,0.1,0.8,0.3,1.2,0.5
		c0.4,0.2,0.8,0.4,1.1,0.7c0.3,0.3,0.6,0.6,0.8,1c0.2,0.4,0.3,0.8,0.3,1.4c0,0.5-0.1,1-0.3,1.4c-0.2,0.4-0.5,0.8-0.9,1.1
		c-0.4,0.3-0.9,0.6-1.4,0.8C115.9,278.3,115.2,278.4,114.5,278.4z M121.5,278.2v-11.8h2.8v11.8H121.5z M122.9,264.3
		c-0.5,0-0.9-0.1-1.2-0.4c-0.3-0.3-0.5-0.7-0.5-1.1c0-0.5,0.2-0.8,0.5-1.1c0.3-0.3,0.7-0.5,1.2-0.5s0.9,0.2,1.2,0.5
		c0.3,0.3,0.5,0.7,0.5,1.1c0,0.5-0.2,0.8-0.5,1.1C123.8,264.2,123.4,264.3,122.9,264.3z M127.8,278.2v-11.8h2.3l0.2,1.6h0.1
		c0.5-0.5,1.1-1,1.7-1.3c0.6-0.4,1.3-0.6,2.2-0.6c1.3,0,2.2,0.4,2.8,1.2c0.6,0.8,0.9,1.9,0.9,3.4v7.4h-2.8v-7c0-1-0.1-1.7-0.4-2.1
		c-0.3-0.4-0.8-0.6-1.4-0.6c-0.5,0-1,0.1-1.4,0.4c-0.4,0.2-0.8,0.6-1.3,1.1v8.2L127.8,278.2L127.8,278.2z M146.2,278.4
		c-0.8,0-1.6-0.1-2.3-0.4s-1.3-0.7-1.8-1.2s-0.9-1.2-1.2-1.9c-0.3-0.8-0.4-1.6-0.4-2.6s0.2-1.8,0.5-2.6c0.3-0.8,0.7-1.4,1.2-1.9
		s1.1-0.9,1.7-1.2c0.7-0.3,1.3-0.4,2-0.4c0.8,0,1.5,0.1,2.1,0.4s1.1,0.7,1.5,1.1c0.4,0.5,0.7,1.1,0.9,1.8c0.2,0.7,0.3,1.4,0.3,2.3
		c0,0.3,0,0.5,0,0.8c0,0.2,0,0.4-0.1,0.6h-7.5c0.1,1.1,0.5,1.9,1.1,2.4c0.6,0.6,1.4,0.8,2.4,0.8c0.5,0,1-0.1,1.4-0.2
		c0.4-0.2,0.9-0.4,1.3-0.6l0.9,1.7c-0.6,0.4-1.2,0.7-1.9,0.9C147.7,278.3,147,278.4,146.2,278.4z M143.1,271.2h5.2
		c0-0.9-0.2-1.6-0.6-2.1c-0.4-0.5-1-0.8-1.8-0.8c-0.7,0-1.3,0.2-1.8,0.7C143.5,269.5,143.2,270.2,143.1,271.2z M156.6,278.4
		c-0.8,0-1.6-0.2-2.4-0.5c-0.8-0.3-1.5-0.7-2-1.2l1.3-1.8c0.5,0.4,1,0.7,1.6,1c0.5,0.2,1.1,0.3,1.7,0.3c0.6,0,1.1-0.1,1.4-0.4
		c0.3-0.3,0.5-0.6,0.5-1c0-0.2-0.1-0.4-0.2-0.6c-0.1-0.2-0.3-0.4-0.6-0.5c-0.2-0.1-0.5-0.3-0.8-0.4s-0.6-0.3-0.9-0.4
		c-0.4-0.1-0.8-0.3-1.2-0.5s-0.8-0.4-1.1-0.7c-0.3-0.3-0.6-0.6-0.8-0.9c-0.2-0.4-0.3-0.8-0.3-1.3c0-1,0.4-1.9,1.1-2.5
		c0.8-0.7,1.8-1,3.1-1c0.8,0,1.5,0.1,2.2,0.4s1.2,0.6,1.7,1l-1.3,1.7c-0.4-0.3-0.8-0.5-1.3-0.7c-0.4-0.2-0.9-0.3-1.3-0.3
		c-0.6,0-1,0.1-1.3,0.4c-0.3,0.2-0.4,0.5-0.4,0.9c0,0.2,0.1,0.4,0.2,0.6c0.1,0.2,0.3,0.3,0.6,0.4c0.2,0.1,0.5,0.2,0.8,0.4
		c0.3,0.1,0.6,0.2,0.9,0.3c0.4,0.1,0.8,0.3,1.2,0.5s0.8,0.4,1.1,0.7c0.3,0.3,0.6,0.6,0.8,1s0.3,0.8,0.3,1.4c0,0.5-0.1,1-0.3,1.4
		s-0.5,0.8-0.9,1.1c-0.4,0.3-0.9,0.6-1.4,0.8C158,278.3,157.3,278.4,156.6,278.4z M166.9,278.4c-0.8,0-1.6-0.2-2.4-0.5
		c-0.8-0.3-1.5-0.7-2-1.2l1.3-1.8c0.5,0.4,1,0.7,1.6,1c0.5,0.2,1.1,0.3,1.7,0.3c0.6,0,1.1-0.1,1.4-0.4c0.3-0.3,0.5-0.6,0.5-1
		c0-0.2-0.1-0.4-0.2-0.6c-0.1-0.2-0.3-0.4-0.6-0.5c-0.2-0.1-0.5-0.3-0.8-0.4s-0.6-0.3-0.9-0.4c-0.4-0.1-0.8-0.3-1.2-0.5
		s-0.8-0.4-1.1-0.7c-0.3-0.3-0.6-0.6-0.8-0.9c-0.2-0.4-0.3-0.8-0.3-1.3c0-1,0.4-1.9,1.1-2.5c0.8-0.7,1.8-1,3.1-1
		c0.8,0,1.5,0.1,2.2,0.4s1.2,0.6,1.7,1l-1.3,1.7c-0.4-0.3-0.8-0.5-1.3-0.7c-0.4-0.2-0.9-0.3-1.3-0.3c-0.6,0-1,0.1-1.3,0.4
		c-0.3,0.2-0.4,0.5-0.4,0.9c0,0.2,0.1,0.4,0.2,0.6c0.1,0.2,0.3,0.3,0.6,0.4c0.2,0.1,0.5,0.2,0.8,0.4c0.3,0.1,0.6,0.2,0.9,0.3
		c0.4,0.1,0.8,0.3,1.2,0.5s0.8,0.4,1.1,0.7c0.3,0.3,0.6,0.6,0.8,1s0.3,0.8,0.3,1.4c0,0.5-0.1,1-0.3,1.4s-0.5,0.8-0.9,1.1
		c-0.4,0.3-0.9,0.6-1.4,0.8C168.3,278.3,167.6,278.4,166.9,278.4z"/>
</g>
<g>
	<path class="st0" d="M110.2,220.4C49.5,220.4,0,170.9,0,110.2C0,49.5,49.5,0,110.2,0c60.7,0,110.2,49.4,110.2,110.2
		C220.4,170.9,170.9,220.4,110.2,220.4z M110.2,28.8c-44.9,0-81.4,36.5-81.4,81.4c0,44.9,36.5,81.4,81.4,81.4
		c44.9,0,81.4-36.5,81.4-81.4C191.6,65.3,155.1,28.8,110.2,28.8z"/>
</g>
<g>
	<path class="st1" d="M110,220.3c-17.6,0-34.9-4.2-50.7-12.5c-19.9-10.4-36-26.4-46.4-46.2c-10.4-19.7-14.6-42-12.1-64.3l28.6,3.3
		c-1.9,16.6,1.2,33,8.9,47.7c7.8,14.7,19.6,26.5,34.4,34.2c14.6,7.7,31.1,10.6,47.6,8.6c16.5-2,31.7-9,44.1-20
		c12.4-11.1,21.1-25.4,25-41.5c3.9-16.1,2.9-32.8-3-48.3c-6-15.6-16.4-28.7-29.9-38.1c-13.7-9.4-29.7-14.4-46.3-14.4V0
		c22.4,0,44.1,6.7,62.5,19.4c18.3,12.6,32.3,30.4,40.5,51.5c8,21.1,9.4,43.6,4.1,65.4c-5.3,21.7-17,41.2-33.8,56.1
		c-16.8,14.9-37.4,24.3-59.7,27C119.2,220,114.6,220.3,110,220.3z"/>
</g>
<g>
	<circle class="st2" cx="110.2" cy="110.2" r="68"/>
</g>
<g>
	<path class="st3" d="M81.9,95.9v2.3c0,0.7-0.1,1.2-0.2,1.7c-0.1,0.4-0.3,0.8-0.4,1.1l-11.8,24.3c-0.2,0.5-0.6,0.9-1,1.3
		c-0.4,0.3-1,0.5-1.8,0.5h-3.9l12.1-23.8c0.5-1,1.1-1.8,1.7-2.5H61.5c-0.3,0-0.6-0.1-0.9-0.4c-0.2-0.2-0.4-0.5-0.4-0.9v-3.6H81.9z
		 M97.7,107.6c1.2,0,2.3,0.2,3.4,0.6s2.1,1,3,1.8c0.8,0.8,1.5,1.7,2,2.9c0.5,1.2,0.8,2.5,0.8,4.1c0,1.5-0.3,2.8-0.8,4.1
		c-0.5,1.3-1.3,2.4-2.2,3.3c-1,0.9-2.1,1.7-3.5,2.2s-2.8,0.8-4.5,0.8s-3.2-0.3-4.5-0.8s-2.4-1.3-3.4-2.2c-0.9-1-1.7-2.1-2.2-3.4
		c-0.5-1.4-0.7-2.8-0.7-4.5c0-1.5,0.3-3,0.9-4.5c0.6-1.6,1.5-3.2,2.8-4.8l7.4-10c0.3-0.3,0.6-0.6,1.1-0.9c0.5-0.2,1.1-0.4,1.7-0.4
		h4.7l-9.2,11.3c-0.2,0.2-0.4,0.5-0.6,0.7s-0.3,0.4-0.5,0.7c0.6-0.3,1.2-0.5,1.9-0.7C96.1,107.7,96.9,107.6,97.7,107.6z M90.2,117.3
		c0,0.9,0.1,1.7,0.3,2.4c0.2,0.7,0.6,1.3,1.1,1.8s1.1,0.9,1.7,1.2c0.7,0.3,1.5,0.4,2.4,0.4c0.8,0,1.6-0.1,2.3-0.4
		c0.7-0.3,1.3-0.7,1.8-1.2s0.9-1.1,1.2-1.8c0.3-0.7,0.4-1.5,0.4-2.3c0-0.9-0.1-1.7-0.4-2.4c-0.3-0.7-0.7-1.3-1.2-1.8
		s-1.1-0.9-1.8-1.1c-0.7-0.3-1.5-0.4-2.3-0.4s-1.6,0.1-2.3,0.4c-0.7,0.3-1.3,0.7-1.8,1.2s-0.9,1.1-1.1,1.8
		C90.4,115.8,90.2,116.5,90.2,117.3z M109.8,124.2c0-0.4,0.1-0.9,0.2-1.3c0.2-0.4,0.4-0.7,0.7-1c0.3-0.3,0.7-0.5,1.1-0.7
		s0.8-0.3,1.3-0.3c0.4,0,0.9,0.1,1.3,0.3c0.4,0.2,0.7,0.4,1,0.7c0.3,0.3,0.5,0.6,0.7,1s0.3,0.8,0.3,1.3s-0.1,0.9-0.3,1.3
		c-0.2,0.4-0.4,0.7-0.7,1c-0.3,0.3-0.6,0.5-1,0.7s-0.8,0.3-1.3,0.3s-0.9-0.1-1.3-0.3c-0.4-0.2-0.8-0.4-1.1-0.7
		c-0.3-0.3-0.5-0.6-0.7-1C109.9,125.1,109.8,124.6,109.8,124.2z M129.4,114.7c-1.1,0-2.1-0.2-3.2-0.6c-1-0.4-2-0.9-2.8-1.7
		c-0.8-0.8-1.5-1.7-1.9-2.8c-0.5-1.1-0.7-2.4-0.7-3.9c0-1.4,0.3-2.7,0.8-3.9c0.5-1.2,1.2-2.3,2.2-3.2c0.9-0.9,2.1-1.6,3.4-2.2
		c1.3-0.5,2.8-0.8,4.3-0.8c1.6,0,3,0.3,4.3,0.8s2.4,1.2,3.3,2.1c0.9,0.9,1.6,2,2.1,3.3s0.7,2.7,0.7,4.2c0,1-0.1,1.9-0.3,2.7
		c-0.2,0.9-0.4,1.7-0.7,2.5s-0.7,1.6-1.1,2.3c-0.4,0.7-0.9,1.5-1.4,2.3l-7.1,10.2c-0.2,0.3-0.6,0.6-1.1,0.9c-0.5,0.2-1,0.3-1.6,0.3
		h-4.9l9.7-12.1c0.2-0.3,0.5-0.6,0.7-0.9s0.4-0.6,0.6-0.9c-0.7,0.5-1.5,0.8-2.4,1.1C131.2,114.6,130.3,114.7,129.4,114.7z
		 M136.6,105.3c0-0.8-0.1-1.6-0.4-2.3c-0.3-0.7-0.6-1.2-1.1-1.7s-1-0.8-1.7-1.1c-0.6-0.2-1.4-0.4-2.1-0.4c-0.8,0-1.5,0.1-2.2,0.4
		c-0.6,0.3-1.2,0.6-1.7,1.1c-0.4,0.5-0.8,1-1,1.7c-0.2,0.6-0.4,1.4-0.4,2.1c0,1.7,0.4,3.1,1.3,4s2.2,1.4,3.8,1.4
		c0.9,0,1.6-0.1,2.3-0.4s1.2-0.6,1.7-1.1s0.8-1,1-1.7C136.5,106.8,136.6,106.1,136.6,105.3z M151.9,113.9c0,0.6-0.1,1.2-0.3,1.7
		s-0.5,1-0.9,1.4s-0.8,0.7-1.3,0.9c-0.5,0.2-1,0.3-1.6,0.3s-1.2-0.1-1.7-0.3c-0.5-0.2-0.9-0.5-1.3-0.9c-0.4-0.4-0.7-0.8-0.9-1.4
		c-0.2-0.5-0.3-1.1-0.3-1.7c0-0.7,0.1-1.3,0.3-1.8s0.5-1,0.9-1.4s0.8-0.7,1.3-0.9c0.5-0.2,1.1-0.3,1.7-0.3c0.6,0,1.2,0.1,1.7,0.3
		c0.5,0.2,1,0.5,1.3,0.9c0.4,0.4,0.7,0.8,0.9,1.4C151.8,112.6,151.9,113.2,151.9,113.9z M149,113.9c0-0.4,0-0.7-0.1-1
		s-0.2-0.5-0.3-0.6c-0.1-0.2-0.3-0.3-0.4-0.3c-0.2-0.1-0.3-0.1-0.5-0.1s-0.4,0-0.5,0.1c-0.2,0.1-0.3,0.2-0.4,0.3
		c-0.1,0.2-0.2,0.4-0.3,0.6c-0.1,0.3-0.1,0.6-0.1,1s0,0.7,0.1,1s0.2,0.5,0.3,0.6c0.1,0.2,0.2,0.3,0.4,0.3c0.2,0.1,0.3,0.1,0.5,0.1
		s0.4,0,0.5-0.1c0.2-0.1,0.3-0.2,0.4-0.3c0.1-0.2,0.2-0.4,0.3-0.6C149,114.6,149,114.3,149,113.9z M157.4,110.2
		c0.1-0.1,0.3-0.3,0.4-0.4c0.2-0.1,0.4-0.2,0.7-0.2h2.7l-13.1,16.9c-0.1,0.2-0.3,0.3-0.5,0.4s-0.4,0.1-0.6,0.1h-2.8L157.4,110.2z
		 M161.9,123c0,0.6-0.1,1.2-0.3,1.8c-0.2,0.5-0.5,1-0.9,1.4s-0.8,0.7-1.3,0.9c-0.5,0.2-1,0.3-1.6,0.3s-1.2-0.1-1.7-0.3
		c-0.5-0.2-0.9-0.5-1.3-0.9c-0.4-0.4-0.7-0.8-0.9-1.4c-0.2-0.5-0.3-1.1-0.3-1.8c0-0.7,0.1-1.3,0.3-1.8s0.5-1,0.9-1.4
		s0.8-0.7,1.3-0.9c0.5-0.2,1.1-0.3,1.7-0.3c0.6,0,1.2,0.1,1.7,0.3c0.5,0.2,1,0.5,1.3,0.9c0.4,0.4,0.7,0.8,0.9,1.4
		C161.8,121.8,161.9,122.3,161.9,123z M159.1,123c0-0.4,0-0.7-0.1-1s-0.2-0.5-0.3-0.6c-0.1-0.2-0.3-0.3-0.4-0.3
		c-0.2-0.1-0.3-0.1-0.5-0.1s-0.4,0-0.5,0.1c-0.2,0.1-0.3,0.2-0.4,0.3c-0.1,0.2-0.2,0.4-0.3,0.6c-0.1,0.3-0.1,0.6-0.1,1s0,0.7,0.1,1
		s0.2,0.5,0.3,0.6s0.2,0.3,0.4,0.3c0.2,0.1,0.3,0.1,0.5,0.1s0.4,0,0.5-0.1c0.2-0.1,0.3-0.2,0.4-0.3c0.1-0.2,0.2-0.4,0.3-0.6
		C159,123.7,159.1,123.4,159.1,123z"/>
</g>
</svg>
