<?xml version="1.0" encoding="utf-8"?>
<!-- Generator: Adobe Illustrator 24.1.0, SVG Export Plug-In . SVG Version: 6.00 Build 0)  -->
<svg version="1.1" id="Layer_1" xmlns="http://www.w3.org/2000/svg" xmlns:xlink="http://www.w3.org/1999/xlink" x="0px" y="0px"
	 viewBox="0 0 220.3 283.3" style="enable-background:new 0 0 220.3 283.3;" xml:space="preserve">
<style type="text/css">
	.st0{fill:#484756;}
	.st1{fill:#FD920F;}
	.st2{fill:#ED7D31;}
	.st3{fill:#FFFFFF;}
</style>
<g>
	<path d="M64.4,254.2v-15.7h5c0.8,0,1.6,0.1,2.2,0.2c0.7,0.1,1.3,0.3,1.8,0.6s0.9,0.7,1.2,1.2c0.3,0.5,0.4,1.1,0.4,1.8
		c0,0.8-0.2,1.4-0.6,2.1c-0.4,0.6-0.9,1.1-1.6,1.3v0.1c0.9,0.2,1.6,0.6,2.1,1.2c0.6,0.6,0.9,1.4,0.9,2.5c0,0.8-0.2,1.5-0.5,2
		c-0.3,0.6-0.7,1.1-1.3,1.4c-0.5,0.4-1.2,0.7-1.9,0.9c-0.7,0.2-1.5,0.3-2.4,0.3L64.4,254.2L64.4,254.2z M67.1,245h2
		c1.1,0,1.9-0.2,2.4-0.6c0.5-0.4,0.7-0.9,0.7-1.6c0-0.8-0.3-1.3-0.8-1.6s-1.3-0.5-2.3-0.5h-2C67.1,240.7,67.1,245,67.1,245z
		 M67.1,252h2.3c1.1,0,2-0.2,2.7-0.6c0.6-0.4,0.9-1.1,0.9-2c0-0.8-0.3-1.4-0.9-1.8c-0.6-0.4-1.5-0.6-2.7-0.6h-2.3V252z M83.4,254.4
		c-0.8,0-1.6-0.1-2.3-0.4c-0.7-0.3-1.3-0.7-1.8-1.2s-0.9-1.2-1.2-1.9c-0.3-0.8-0.4-1.6-0.4-2.6s0.2-1.8,0.5-2.6s0.7-1.4,1.2-1.9
		s1.1-0.9,1.7-1.2c0.7-0.3,1.3-0.4,2-0.4c0.8,0,1.5,0.1,2.1,0.4c0.6,0.3,1.1,0.7,1.5,1.1c0.4,0.5,0.7,1.1,0.9,1.8
		c0.2,0.7,0.3,1.4,0.3,2.3c0,0.3,0,0.5,0,0.8c0,0.2,0,0.4-0.1,0.6h-7.5c0.1,1.1,0.5,1.9,1.1,2.4c0.6,0.6,1.4,0.8,2.4,0.8
		c0.5,0,1-0.1,1.4-0.2c0.4-0.2,0.9-0.4,1.3-0.6l0.9,1.7c-0.6,0.4-1.2,0.7-1.9,0.9C84.9,254.3,84.2,254.4,83.4,254.4z M80.3,247.2
		h5.2c0-0.9-0.2-1.6-0.6-2.1s-1-0.8-1.8-0.8c-0.7,0-1.3,0.2-1.8,0.7C80.8,245.5,80.4,246.2,80.3,247.2z M94.5,254.4
		c-0.7,0-1.3-0.1-1.7-0.3c-0.5-0.2-0.8-0.5-1.1-0.9c-0.3-0.4-0.5-0.8-0.6-1.3s-0.2-1.1-0.2-1.7v-5.6H89v-2.1l1.8-0.1l0.3-3.2h2.3
		v3.2h3v2.2h-3v5.6c0,1.4,0.6,2.1,1.7,2.1c0.2,0,0.4,0,0.6-0.1c0.2,0,0.4-0.1,0.6-0.2l0.5,2c-0.3,0.1-0.7,0.2-1.1,0.3
		S94.9,254.4,94.5,254.4z M100.9,254.2l-3.1-11.8h2.8l1.4,6.1c0.1,0.6,0.2,1.1,0.3,1.7c0.1,0.6,0.2,1.1,0.3,1.7h0.1
		c0.1-0.6,0.2-1.1,0.3-1.7c0.1-0.6,0.3-1.1,0.4-1.7l1.5-6.1h2.5l1.6,6.1c0.1,0.6,0.3,1.1,0.4,1.7c0.1,0.6,0.3,1.1,0.4,1.7h0.1
		c0.1-0.6,0.2-1.1,0.3-1.7c0.1-0.6,0.2-1.1,0.3-1.7l1.4-6.1h2.6l-3,11.8h-3.3l-1.4-5.5c-0.1-0.6-0.2-1.1-0.4-1.7
		c-0.1-0.6-0.2-1.1-0.4-1.8h-0.1c-0.1,0.6-0.2,1.2-0.3,1.8c-0.1,0.6-0.2,1.1-0.4,1.7l-1.3,5.5H100.9z M121.8,254.4
		c-0.8,0-1.6-0.1-2.3-0.4c-0.7-0.3-1.3-0.7-1.8-1.2s-0.9-1.2-1.2-1.9c-0.3-0.8-0.4-1.6-0.4-2.6s0.2-1.8,0.5-2.6s0.7-1.4,1.2-1.9
		s1.1-0.9,1.7-1.2c0.7-0.3,1.3-0.4,2-0.4c0.8,0,1.5,0.1,2.1,0.4c0.6,0.3,1.1,0.7,1.5,1.1c0.4,0.5,0.7,1.1,0.9,1.8
		c0.2,0.7,0.3,1.4,0.3,2.3c0,0.3,0,0.5,0,0.8c0,0.2,0,0.4-0.1,0.6h-7.5c0.1,1.1,0.5,1.9,1.1,2.4c0.6,0.6,1.4,0.8,2.4,0.8
		c0.5,0,1-0.1,1.4-0.2c0.4-0.2,0.9-0.4,1.3-0.6l0.9,1.7c-0.6,0.4-1.2,0.7-1.9,0.9C123.2,254.3,122.5,254.4,121.8,254.4z
		 M118.6,247.2h5.2c0-0.9-0.2-1.6-0.6-2.1s-1-0.8-1.8-0.8c-0.7,0-1.3,0.2-1.8,0.7C119.1,245.5,118.8,246.2,118.6,247.2z
		 M133.9,254.4c-0.8,0-1.6-0.1-2.3-0.4c-0.7-0.3-1.3-0.7-1.8-1.2s-0.9-1.2-1.2-1.9c-0.3-0.8-0.4-1.6-0.4-2.6s0.2-1.8,0.5-2.6
		s0.7-1.4,1.2-1.9s1.1-0.9,1.7-1.2c0.7-0.3,1.3-0.4,2-0.4c0.8,0,1.5,0.1,2.1,0.4c0.6,0.3,1.1,0.7,1.5,1.1c0.4,0.5,0.7,1.1,0.9,1.8
		s0.3,1.4,0.3,2.3c0,0.3,0,0.5,0,0.8c0,0.2,0,0.4-0.1,0.6h-7.5c0.1,1.1,0.5,1.9,1.1,2.4c0.6,0.6,1.4,0.8,2.4,0.8
		c0.5,0,1-0.1,1.4-0.2c0.4-0.2,0.9-0.4,1.3-0.6l0.9,1.7c-0.6,0.4-1.2,0.7-1.9,0.9C135.4,254.3,134.7,254.4,133.9,254.4z
		 M130.8,247.2h5.2c0-0.9-0.2-1.6-0.6-2.1c-0.4-0.5-1-0.8-1.8-0.8c-0.7,0-1.3,0.2-1.8,0.7C131.2,245.5,130.9,246.2,130.8,247.2z
		 M141,254.2v-11.8h2.3l0.2,1.6h0.1c0.5-0.5,1.1-0.9,1.7-1.3c0.6-0.4,1.3-0.6,2.2-0.6c1.3,0,2.2,0.4,2.8,1.2s0.9,1.9,0.9,3.4v7.4
		h-2.8v-7c0-1-0.1-1.7-0.4-2.1c-0.3-0.4-0.8-0.6-1.4-0.6c-0.5,0-1,0.1-1.4,0.4c-0.4,0.2-0.8,0.6-1.3,1.1v8.2H141V254.2z M60.4,269.8
		l-0.6,1.9h4l-0.6-1.9c-0.3-0.8-0.5-1.7-0.7-2.6s-0.4-1.7-0.7-2.6h-0.1c-0.2,0.9-0.4,1.8-0.7,2.6C60.9,268.1,60.6,269,60.4,269.8z
		 M55.1,278.2l5.1-15.7h3.3l5.1,15.7h-2.9l-1.2-4.2h-5.3l-1.2,4.2H55.1z M74.4,283.3c-0.7,0-1.4-0.1-2-0.2s-1.1-0.3-1.5-0.6
		c-0.4-0.3-0.8-0.6-1-1s-0.4-0.8-0.4-1.3s0.1-1,0.4-1.4s0.7-0.8,1.2-1.1v-0.1c-0.3-0.2-0.6-0.4-0.8-0.8c-0.2-0.3-0.3-0.7-0.3-1.2
		s0.1-0.9,0.4-1.2c0.3-0.4,0.6-0.7,0.9-0.9v-0.1c-0.4-0.3-0.8-0.7-1.1-1.2c-0.3-0.5-0.5-1.2-0.5-1.9c0-0.7,0.1-1.3,0.4-1.8
		s0.6-1,1-1.3c0.4-0.4,0.9-0.6,1.5-0.8c0.6-0.2,1.1-0.3,1.8-0.3c0.3,0,0.6,0,0.9,0.1c0.3,0,0.6,0.1,0.8,0.2h4.2v2h-2.2
		c0.2,0.2,0.4,0.5,0.5,0.9c0.1,0.3,0.2,0.7,0.2,1.1c0,0.7-0.1,1.2-0.4,1.7c-0.2,0.5-0.5,0.9-0.9,1.2c-0.4,0.3-0.9,0.6-1.4,0.8
		c-0.5,0.2-1.1,0.3-1.7,0.3c-0.3,0-0.5,0-0.8-0.1s-0.5-0.1-0.8-0.2c-0.2,0.2-0.3,0.3-0.4,0.5s-0.1,0.4-0.1,0.6
		c0,0.3,0.1,0.6,0.4,0.8c0.3,0.2,0.8,0.3,1.5,0.3h2.1c1.4,0,2.5,0.2,3.2,0.7c0.7,0.4,1.1,1.2,1.1,2.2c0,0.6-0.2,1.1-0.5,1.6
		s-0.7,0.9-1.2,1.3s-1.2,0.7-2,0.9C76.2,283.2,75.3,283.3,74.4,283.3z M74.5,272.7c0.6,0,1-0.2,1.4-0.6s0.6-1,0.6-1.8
		c0-0.7-0.2-1.3-0.6-1.7c-0.4-0.4-0.9-0.6-1.4-0.6c-0.6,0-1.1,0.2-1.5,0.6s-0.6,1-0.6,1.7c0,0.8,0.2,1.4,0.6,1.8
		S73.9,272.7,74.5,272.7z M74.8,281.6c1,0,1.7-0.2,2.3-0.6c0.6-0.4,0.9-0.8,0.9-1.3s-0.2-0.8-0.6-0.9c-0.4-0.2-0.9-0.2-1.5-0.2h-1.6
		c-0.6,0-1.2-0.1-1.6-0.2c-0.6,0.5-0.9,1-0.9,1.6c0,0.5,0.3,0.9,0.8,1.2C73.1,281.4,73.9,281.6,74.8,281.6z M87.4,278.4
		c-0.8,0-1.6-0.1-2.3-0.4c-0.7-0.3-1.3-0.7-1.8-1.2s-0.9-1.2-1.2-1.9c-0.3-0.8-0.4-1.6-0.4-2.6s0.2-1.8,0.5-2.6
		c0.3-0.8,0.7-1.4,1.2-1.9s1.1-0.9,1.7-1.2c0.7-0.3,1.3-0.4,2-0.4c0.8,0,1.5,0.1,2.1,0.4s1.1,0.7,1.5,1.1c0.4,0.5,0.7,1.1,0.9,1.8
		c0.2,0.7,0.3,1.4,0.3,2.3c0,0.3,0,0.5,0,0.8c0,0.2,0,0.4-0.1,0.6h-7.5c0.1,1.1,0.5,1.9,1.1,2.4c0.6,0.6,1.4,0.8,2.4,0.8
		c0.5,0,1-0.1,1.4-0.2c0.4-0.2,0.9-0.4,1.3-0.6l0.9,1.7c-0.6,0.4-1.2,0.7-1.9,0.9C88.8,278.3,88.1,278.4,87.4,278.4z M84.2,271.2
		h5.2c0-0.9-0.2-1.6-0.6-2.1s-1-0.8-1.8-0.8c-0.7,0-1.3,0.2-1.8,0.7C84.7,269.5,84.4,270.2,84.2,271.2z M97.8,278.4
		c-0.8,0-1.6-0.2-2.4-0.5s-1.5-0.7-2-1.2l1.3-1.8c0.5,0.4,1,0.7,1.6,1c0.5,0.2,1.1,0.3,1.7,0.3s1.1-0.1,1.4-0.4s0.5-0.6,0.5-1
		c0-0.2-0.1-0.4-0.2-0.6s-0.3-0.4-0.6-0.5c-0.2-0.1-0.5-0.3-0.8-0.4s-0.6-0.3-0.9-0.4c-0.4-0.1-0.8-0.3-1.2-0.5
		c-0.4-0.2-0.8-0.4-1.1-0.7c-0.3-0.3-0.6-0.6-0.8-0.9c-0.2-0.4-0.3-0.8-0.3-1.3c0-1,0.4-1.9,1.1-2.5c0.8-0.7,1.8-1,3.1-1
		c0.8,0,1.5,0.1,2.2,0.4s1.2,0.6,1.7,1l-1.3,1.7c-0.4-0.3-0.8-0.5-1.3-0.7c-0.4-0.2-0.9-0.3-1.3-0.3c-0.6,0-1,0.1-1.3,0.4
		c-0.3,0.2-0.4,0.5-0.4,0.9c0,0.2,0.1,0.4,0.2,0.6s0.3,0.3,0.6,0.4c0.2,0.1,0.5,0.2,0.8,0.4c0.3,0.1,0.6,0.2,0.9,0.3
		c0.4,0.1,0.8,0.3,1.2,0.5c0.4,0.2,0.8,0.4,1.1,0.7c0.3,0.3,0.6,0.6,0.8,1c0.2,0.4,0.3,0.8,0.3,1.4c0,0.5-0.1,1-0.3,1.4
		c-0.2,0.4-0.5,0.8-0.9,1.1c-0.4,0.3-0.9,0.6-1.4,0.8C99.1,278.3,98.5,278.4,97.8,278.4z M108.7,278.2v-1.6c1.1-1,2-2,2.8-2.8
		c0.9-0.9,1.6-1.7,2.2-2.4c0.6-0.7,1.1-1.4,1.4-2.1c0.3-0.6,0.5-1.2,0.5-1.8c0-0.8-0.2-1.5-0.6-1.9c-0.4-0.5-1.1-0.7-1.9-0.7
		c-0.6,0-1.1,0.2-1.6,0.5s-0.9,0.7-1.3,1.2l-1.5-1.5c0.7-0.8,1.4-1.3,2.2-1.7c0.8-0.4,1.7-0.6,2.7-0.6c0.7,0,1.4,0.1,2,0.3
		c0.6,0.2,1.1,0.5,1.5,1c0.4,0.4,0.7,0.9,1,1.5c0.2,0.6,0.4,1.2,0.4,1.9c0,0.7-0.2,1.4-0.5,2.1s-0.7,1.4-1.2,2.1s-1.1,1.4-1.7,2.2
		c-0.7,0.8-1.4,1.5-2.1,2.3c0.4,0,0.8-0.1,1.3-0.1s0.9-0.1,1.2-0.1h3.7v2.3L108.7,278.2L108.7,278.2z M125.9,278.4
		c-1.2,0-2.3-0.2-3.1-0.6c-0.8-0.4-1.5-0.9-2.1-1.5l1.3-1.8c0.5,0.4,1,0.8,1.6,1.2c0.6,0.3,1.2,0.5,2,0.5c0.9,0,1.6-0.3,2.1-0.8
		c0.6-0.5,0.8-1.2,0.8-2.2c0-0.9-0.3-1.6-0.8-2.1s-1.2-0.7-2-0.7c-0.5,0-0.9,0.1-1.2,0.2c-0.3,0.1-0.7,0.3-1.2,0.6l-1.3-0.8l0.5-7.5
		h8.1v2.3h-5.7l-0.3,3.7c0.3-0.2,0.6-0.3,0.9-0.4s0.7-0.1,1.1-0.1c0.7,0,1.3,0.1,1.8,0.3c0.6,0.2,1.1,0.5,1.5,0.9s0.8,0.9,1,1.5
		c0.3,0.6,0.4,1.3,0.4,2.1c0,0.8-0.2,1.6-0.5,2.2c-0.3,0.7-0.7,1.2-1.2,1.7c-0.5,0.4-1.1,0.8-1.7,1
		C127.3,278.3,126.6,278.4,125.9,278.4z M133.4,273.1v-2h5.7v2H133.4z M145.9,278.4c-1.2,0-2.3-0.2-3.1-0.6s-1.5-0.9-2.1-1.5
		l1.3-1.8c0.5,0.5,1,0.9,1.6,1.2c0.6,0.3,1.3,0.5,2,0.5c0.8,0,1.5-0.2,2-0.6s0.8-1,0.8-1.7c0-0.4-0.1-0.8-0.2-1.1
		c-0.1-0.3-0.4-0.6-0.7-0.8c-0.3-0.2-0.8-0.4-1.4-0.5c-0.6-0.1-1.3-0.2-2.2-0.2v-2c0.8,0,1.4-0.1,1.9-0.2s0.9-0.3,1.2-0.5
		s0.5-0.5,0.7-0.8c0.1-0.3,0.2-0.6,0.2-1c0-0.6-0.2-1.1-0.6-1.5c-0.4-0.4-0.9-0.6-1.7-0.6c-0.6,0-1.2,0.1-1.7,0.4s-1,0.6-1.4,1
		l-1.4-1.7c0.7-0.6,1.3-1,2.1-1.4s1.6-0.5,2.5-0.5c0.7,0,1.4,0.1,2,0.3c0.6,0.2,1.1,0.4,1.6,0.8c0.4,0.3,0.8,0.8,1,1.3
		s0.4,1.1,0.4,1.7c0,0.9-0.2,1.6-0.7,2.2s-1.1,1-1.9,1.3v0.1c0.9,0.2,1.7,0.7,2.3,1.3c0.6,0.6,0.9,1.5,0.9,2.5
		c0,0.7-0.1,1.3-0.4,1.9c-0.3,0.5-0.7,1-1.1,1.4c-0.5,0.4-1,0.7-1.7,0.9C147.3,278.3,146.6,278.4,145.9,278.4z M158.2,278.4
		c-1.2,0-2.3-0.2-3.1-0.6s-1.5-0.9-2.1-1.5l1.3-1.8c0.5,0.4,1,0.8,1.6,1.2c0.6,0.3,1.2,0.5,2,0.5c0.9,0,1.6-0.3,2.1-0.8
		c0.6-0.5,0.8-1.2,0.8-2.2c0-0.9-0.3-1.6-0.8-2.1s-1.2-0.7-2-0.7c-0.5,0-0.9,0.1-1.2,0.2s-0.7,0.3-1.2,0.6l-1.3-0.8l0.5-7.5h8.1v2.3
		H157l-0.3,3.7c0.3-0.2,0.6-0.3,0.9-0.4c0.3-0.1,0.7-0.1,1.1-0.1c0.7,0,1.3,0.1,1.8,0.3c0.6,0.2,1.1,0.5,1.5,0.9s0.8,0.9,1,1.5
		c0.3,0.6,0.4,1.3,0.4,2.1c0,0.8-0.2,1.6-0.5,2.2c-0.3,0.7-0.7,1.2-1.2,1.7s-1.1,0.8-1.7,1C159.5,278.3,158.9,278.4,158.2,278.4z"/>
</g>
<g>
	<path class="st0" d="M110.2,220.4C49.5,220.4,0,170.9,0,110.2C0,49.5,49.5,0,110.2,0c60.7,0,110.2,49.4,110.2,110.2
		C220.4,170.9,170.9,220.4,110.2,220.4z M110.2,28.8c-44.9,0-81.4,36.5-81.4,81.4c0,44.9,36.5,81.4,81.4,81.4
		c44.9,0,81.4-36.5,81.4-81.4C191.6,65.3,155.1,28.8,110.2,28.8z"/>
</g>
<g>
	<path class="st1" d="M181.2,194.5l-18.6-21.9c12.9-10.9,22-25.2,26.3-41.4c4.3-16.3,3.5-33.2-2.2-48.8
		c-5.8-15.8-16.1-29.3-29.9-38.9c-13.7-9.6-29.8-14.7-46.6-14.7V0c22.8,0,44.6,6.9,63.2,19.9c18.5,13,32.5,31.2,40.3,52.5
		c7.8,21.2,8.8,44,3,66.1C210.8,160.5,198.5,179.8,181.2,194.5z"/>
</g>
<g>
	<circle class="st2" cx="110.2" cy="110.2" r="68"/>
</g>
<g>
	<path class="st3" d="M71.7,95.6c1.4,0,2.7,0.2,3.9,0.6c1.2,0.4,2.2,1,3,1.7s1.4,1.6,1.9,2.5c0.4,1,0.7,2,0.7,3.2
		c0,1-0.1,1.9-0.3,2.6c-0.2,0.7-0.5,1.4-1,2c-0.4,0.6-0.9,1-1.6,1.4c-0.6,0.4-1.3,0.7-2.1,1c1.9,0.6,3.3,1.5,4.2,2.7
		c0.9,1.2,1.4,2.7,1.4,4.5c0,1.6-0.3,2.9-0.9,4.1s-1.4,2.2-2.3,3c-1,0.8-2.1,1.4-3.4,1.8s-2.6,0.6-4.1,0.6c-1.6,0-2.9-0.2-4.1-0.5
		c-1.2-0.4-2.2-0.9-3-1.6s-1.6-1.6-2.2-2.6c-0.6-1-1.1-2.2-1.6-3.5l2.3-1c0.4-0.2,0.8-0.3,1.2-0.3c0.4,0,0.7,0.1,1,0.2
		c0.3,0.2,0.5,0.4,0.7,0.7c0.3,0.5,0.5,1,0.8,1.5s0.7,0.9,1.1,1.3s0.9,0.7,1.5,0.9c0.6,0.2,1.3,0.3,2.1,0.3c0.9,0,1.7-0.1,2.4-0.4
		c0.7-0.3,1.2-0.7,1.7-1.2s0.8-1,1-1.6s0.3-1.2,0.3-1.8c0-0.7-0.1-1.4-0.2-2c-0.2-0.6-0.5-1.1-1-1.6c-0.5-0.4-1.2-0.8-2.2-1
		c-0.9-0.2-2.2-0.4-3.8-0.4v-3.8c1.3,0,2.4-0.1,3.3-0.4c0.9-0.2,1.5-0.5,2-0.9s0.9-0.9,1.1-1.5s0.3-1.2,0.3-1.9
		c0-1.5-0.4-2.6-1.2-3.3c-0.8-0.8-1.9-1.1-3.3-1.1c-1.3,0-2.3,0.3-3.1,1c-0.8,0.7-1.4,1.5-1.7,2.6c-0.2,0.5-0.4,0.9-0.7,1.2
		c-0.3,0.2-0.7,0.3-1.2,0.3c-0.2,0-0.5,0-0.7-0.1l-2.8-0.5c0.2-1.5,0.6-2.8,1.2-3.9c0.6-1.1,1.4-2.1,2.3-2.8c0.9-0.8,2-1.3,3.2-1.7
		C69,95.8,70.3,95.6,71.7,95.6z M95.8,127.5c-1.6,0-3.1-0.2-4.4-0.6s-2.5-1-3.4-1.8s-1.7-1.7-2.2-2.9c-0.5-1.1-0.8-2.4-0.8-3.7
		c0-1.8,0.5-3.4,1.4-4.7c0.9-1.3,2.3-2.2,4.2-2.8c-1.5-0.6-2.7-1.5-3.4-2.7c-0.7-1.2-1.1-2.6-1.1-4.2c0-1.2,0.2-2.3,0.7-3.3
		s1.2-1.9,2-2.7c0.9-0.8,1.9-1.4,3.1-1.8s2.5-0.6,4-0.6s2.8,0.2,3.9,0.6c1.2,0.4,2.2,1,3.1,1.8c0.9,0.7,1.5,1.6,2,2.7
		c0.5,1,0.7,2.1,0.7,3.3c0,1.6-0.4,3-1.1,4.2c-0.8,1.2-1.9,2.1-3.4,2.7c1.9,0.6,3.3,1.6,4.2,2.8c0.9,1.3,1.4,2.8,1.4,4.7
		c0,1.4-0.3,2.6-0.8,3.7s-1.2,2.1-2.2,2.9c-0.9,0.8-2.1,1.4-3.4,1.8C98.8,127.2,97.4,127.5,95.8,127.5z M95.8,123.3
		c0.9,0,1.6-0.1,2.3-0.4c0.7-0.3,1.2-0.6,1.7-1.1c0.5-0.4,0.8-1,1-1.6s0.3-1.3,0.3-2c0-1.7-0.5-3-1.4-3.9s-2.3-1.3-3.9-1.3
		c-1.7,0-3,0.4-3.9,1.3s-1.4,2.2-1.4,3.9c0,0.7,0.1,1.4,0.3,2c0.2,0.6,0.6,1.1,1,1.6c0.5,0.4,1,0.8,1.7,1.1
		C94.1,123.2,94.9,123.3,95.8,123.3z M95.8,108.9c0.9,0,1.6-0.1,2.2-0.4s1.1-0.6,1.4-1.1c0.4-0.5,0.6-1,0.8-1.6
		c0.2-0.6,0.2-1.2,0.2-1.8c0-0.6-0.1-1.1-0.3-1.7c-0.2-0.5-0.5-1-0.8-1.4c-0.4-0.4-0.8-0.7-1.4-1c-0.6-0.2-1.3-0.4-2-0.4
		s-1.5,0.1-2,0.4c-0.6,0.2-1.1,0.6-1.4,1c-0.4,0.4-0.7,0.9-0.8,1.4c-0.2,0.5-0.3,1.1-0.3,1.7s0.1,1.2,0.2,1.8
		c0.2,0.6,0.4,1.1,0.8,1.6c0.4,0.4,0.8,0.8,1.4,1.1C94.2,108.8,94.9,108.9,95.8,108.9z M109.8,124.2c0-0.4,0.1-0.9,0.2-1.3
		c0.2-0.4,0.4-0.7,0.7-1c0.3-0.3,0.7-0.5,1.1-0.7s0.8-0.3,1.3-0.3c0.4,0,0.9,0.1,1.3,0.3c0.4,0.2,0.7,0.4,1,0.7
		c0.3,0.3,0.5,0.6,0.7,1s0.3,0.8,0.3,1.3s-0.1,0.9-0.3,1.3c-0.2,0.4-0.4,0.7-0.7,1c-0.3,0.3-0.6,0.5-1,0.7s-0.8,0.3-1.3,0.3
		s-0.9-0.1-1.3-0.3c-0.4-0.2-0.8-0.4-1.1-0.7c-0.3-0.3-0.5-0.6-0.7-1C109.9,125.1,109.8,124.6,109.8,124.2z M129.4,114.7
		c-1.1,0-2.1-0.2-3.2-0.6c-1-0.4-2-0.9-2.8-1.7c-0.8-0.8-1.5-1.7-1.9-2.8c-0.5-1.1-0.7-2.4-0.7-3.9c0-1.4,0.3-2.7,0.8-3.9
		c0.5-1.2,1.2-2.3,2.2-3.2c0.9-0.9,2.1-1.6,3.4-2.2c1.3-0.5,2.8-0.8,4.3-0.8c1.6,0,3,0.3,4.3,0.8s2.4,1.2,3.3,2.1
		c0.9,0.9,1.6,2,2.1,3.3s0.7,2.7,0.7,4.2c0,1-0.1,1.9-0.3,2.7c-0.2,0.9-0.4,1.7-0.7,2.5s-0.7,1.6-1.1,2.3c-0.4,0.7-0.9,1.5-1.4,2.3
		l-7.1,10.2c-0.2,0.3-0.6,0.6-1.1,0.9c-0.5,0.2-1,0.3-1.6,0.3h-4.9l9.7-12.1c0.2-0.3,0.5-0.6,0.7-0.9s0.4-0.6,0.6-0.9
		c-0.7,0.5-1.5,0.8-2.4,1.1C131.2,114.6,130.3,114.7,129.4,114.7z M136.6,105.3c0-0.8-0.1-1.6-0.4-2.3c-0.3-0.7-0.6-1.2-1.1-1.7
		s-1-0.8-1.7-1.1c-0.6-0.2-1.4-0.4-2.1-0.4c-0.8,0-1.5,0.1-2.2,0.4c-0.6,0.3-1.2,0.6-1.7,1.1c-0.4,0.5-0.8,1-1,1.7
		c-0.2,0.6-0.4,1.4-0.4,2.1c0,1.7,0.4,3.1,1.3,4s2.2,1.4,3.8,1.4c0.9,0,1.6-0.1,2.3-0.4s1.2-0.6,1.7-1.1s0.8-1,1-1.7
		C136.5,106.8,136.6,106.1,136.6,105.3z M151.9,113.9c0,0.6-0.1,1.2-0.3,1.7s-0.5,1-0.9,1.4s-0.8,0.7-1.3,0.9
		c-0.5,0.2-1,0.3-1.6,0.3s-1.2-0.1-1.7-0.3c-0.5-0.2-0.9-0.5-1.3-0.9c-0.4-0.4-0.7-0.8-0.9-1.4c-0.2-0.5-0.3-1.1-0.3-1.7
		c0-0.7,0.1-1.3,0.3-1.8s0.5-1,0.9-1.4s0.8-0.7,1.3-0.9c0.5-0.2,1.1-0.3,1.7-0.3c0.6,0,1.2,0.1,1.7,0.3c0.5,0.2,1,0.5,1.3,0.9
		c0.4,0.4,0.7,0.8,0.9,1.4C151.8,112.6,151.9,113.2,151.9,113.9z M149,113.9c0-0.4,0-0.7-0.1-1s-0.2-0.5-0.3-0.6
		c-0.1-0.2-0.3-0.3-0.4-0.3c-0.2-0.1-0.3-0.1-0.5-0.1s-0.4,0-0.5,0.1c-0.2,0.1-0.3,0.2-0.4,0.3c-0.1,0.2-0.2,0.4-0.3,0.6
		c-0.1,0.3-0.1,0.6-0.1,1s0,0.7,0.1,1s0.2,0.5,0.3,0.6c0.1,0.2,0.2,0.3,0.4,0.3c0.2,0.1,0.3,0.1,0.5,0.1s0.4,0,0.5-0.1
		c0.2-0.1,0.3-0.2,0.4-0.3c0.1-0.2,0.2-0.4,0.3-0.6C149,114.6,149,114.3,149,113.9z M157.4,110.2c0.1-0.1,0.3-0.3,0.4-0.4
		c0.2-0.1,0.4-0.2,0.7-0.2h2.7l-13.1,16.9c-0.1,0.2-0.3,0.3-0.5,0.4s-0.4,0.1-0.6,0.1h-2.8L157.4,110.2z M161.9,123
		c0,0.6-0.1,1.2-0.3,1.8c-0.2,0.5-0.5,1-0.9,1.4s-0.8,0.7-1.3,0.9c-0.5,0.2-1,0.3-1.6,0.3s-1.2-0.1-1.7-0.3
		c-0.5-0.2-0.9-0.5-1.3-0.9c-0.4-0.4-0.7-0.8-0.9-1.4c-0.2-0.5-0.3-1.1-0.3-1.8c0-0.7,0.1-1.3,0.3-1.8s0.5-1,0.9-1.4
		s0.8-0.7,1.3-0.9c0.5-0.2,1.1-0.3,1.7-0.3c0.6,0,1.2,0.1,1.7,0.3c0.5,0.2,1,0.5,1.3,0.9c0.4,0.4,0.7,0.8,0.9,1.4
		C161.8,121.8,161.9,122.3,161.9,123z M159.1,123c0-0.4,0-0.7-0.1-1s-0.2-0.5-0.3-0.6c-0.1-0.2-0.3-0.3-0.4-0.3
		c-0.2-0.1-0.3-0.1-0.5-0.1s-0.4,0-0.5,0.1c-0.2,0.1-0.3,0.2-0.4,0.3c-0.1,0.2-0.2,0.4-0.3,0.6c-0.1,0.3-0.1,0.6-0.1,1s0,0.7,0.1,1
		s0.2,0.5,0.3,0.6s0.2,0.3,0.4,0.3c0.2,0.1,0.3,0.1,0.5,0.1s0.4,0,0.5-0.1c0.2-0.1,0.3-0.2,0.4-0.3c0.1-0.2,0.2-0.4,0.3-0.6
		C159,123.7,159.1,123.4,159.1,123z"/>
</g>
</svg>
