<svg xmlns="http://www.w3.org/2000/svg" xmlns:xlink="http://www.w3.org/1999/xlink" viewBox="0 0 848.27 391.96"><path d="M290 26.74c1.03 0 1.98-.18 2.84-.54s1.58-.88 2.17-1.57l-1.5-1.44a4.36 4.36 0 0 1-3.37 1.49c-.86 0-1.64-.2-2.32-.57s-1.22-.9-1.6-1.57-.58-1.43-.58-2.3c0-.85.2-1.6.58-2.3a4.12 4.12 0 0 1 1.6-1.58c.68-.38 1.46-.57 2.32-.57 1.33 0 2.45.5 3.37 1.48l1.5-1.42a5.85 5.85 0 0 0-2.16-1.57c-.85-.36-1.8-.54-2.83-.54-1.27 0-2.42.28-3.45.84s-1.83 1.33-2.42 2.3-.88 2.1-.88 3.33.3 2.35.87 3.33 1.4 1.75 2.4 2.3c1.03.58 2.18.86 3.45.86h0zm13.1 0c1.28 0 2.44-.28 3.47-.84a6.28 6.28 0 0 0 2.43-2.31c.6-.98.88-2.1.88-3.33s-.3-2.35-.88-3.33a6.21 6.21 0 0 0-2.43-2.31c-1.03-.56-2.2-.84-3.47-.84s-2.44.28-3.47.84-1.84 1.33-2.43 2.32-.88 2.1-.88 3.32.3 2.33.88 3.32 1.4 1.76 2.43 2.32c1.02.56 2.18.84 3.47.84h0zm0-2.05c-.84 0-1.6-.2-2.27-.57s-1.2-.9-1.58-1.58a4.6 4.6 0 0 1-.58-2.28c0-.84.2-1.6.58-2.28a4 4 0 0 1 1.58-1.58c.67-.38 1.43-.57 2.27-.57s1.6.2 2.27.57 1.2.9 1.58 1.58a4.6 4.6 0 0 1 .58 2.28c0 .84-.2 1.6-.58 2.28a4 4 0 0 1-1.58 1.58c-.68.38-1.43.57-2.27.57h0zm9.23 1.87h8.93v-1.98h-6.6V13.96h-2.34v12.6zm16.63.18c1.28 0 2.44-.28 3.47-.84a6.28 6.28 0 0 0 2.43-2.31c.6-.98.88-2.1.88-3.33s-.3-2.35-.88-3.33a6.21 6.21 0 0 0-2.43-2.31c-1.03-.56-2.2-.84-3.47-.84s-2.44.28-3.47.84-1.84 1.33-2.43 2.32-.88 2.1-.88 3.32.3 2.33.88 3.32 1.4 1.76 2.43 2.32 2.2.84 3.47.84h0zm0-2.05c-.84 0-1.6-.2-2.27-.57s-1.2-.9-1.58-1.58a4.6 4.6 0 0 1-.58-2.28c0-.84.2-1.6.58-2.28a4 4 0 0 1 1.58-1.58c.67-.38 1.43-.57 2.27-.57s1.6.2 2.27.57 1.2.9 1.58 1.58a4.6 4.6 0 0 1 .58 2.28c0 .84-.2 1.6-.58 2.28a4 4 0 0 1-1.58 1.58c-.67.38-1.43.57-2.27.57h0zm20 1.87l-2.9-4.14c.86-.34 1.53-.85 2-1.53s.7-1.5.7-2.45c0-.92-.22-1.72-.65-2.4s-1.05-1.2-1.86-1.55-1.76-.54-2.85-.54h-5.18v12.6h2.34V22.9h2.84l.5-.02 2.57 3.7h2.52zm-2.57-8.12c0 .8-.26 1.43-.8 1.86-.53.44-1.3.66-2.32.66h-2.74v-5.02h2.74c1.02 0 1.8.22 2.32.65.52.43.8 1.05.8 1.85h0zm8.83 8.3c1.1 0 2.04-.17 2.8-.5.77-.34 1.34-.8 1.72-1.35s.57-1.2.57-1.9c0-.82-.2-1.46-.64-1.94s-.94-.84-1.54-1.07-1.37-.46-2.3-.68l-1.62-.45c-.4-.13-.72-.3-.98-.54s-.4-.52-.4-.88c0-.52.23-.93.67-1.24.45-.3 1.14-.47 2.06-.47a6.43 6.43 0 0 1 1.75.25c.6.17 1.18.4 1.73.74l.74-1.82c-.54-.36-1.18-.64-1.93-.83-.74-.2-1.5-.3-2.27-.3-1.1 0-2.04.17-2.8.5-.76.34-1.33.8-1.7 1.36s-.57 1.2-.57 1.9c0 .83.2 1.5.64 1.97a3.87 3.87 0 0 0 1.53 1.07c.6.23 1.37.46 2.33.68l1.62.45c.4.13.72.32.98.55s.4.53.4.9c0 .5-.23.9-.7 1.2s-1.16.45-2.1.45c-.76 0-1.5-.13-2.26-.4s-1.38-.6-1.9-1l-.8 1.82c.53.46 1.24.82 2.15 1.1s1.85.42 2.82.42h0z"/><path d="M284.1 87.86h81.64v81.64H284.1z" fill="#ef4b24"/><path d="M320.3 133.36l-2.25-3.22c.67-.26 1.2-.66 1.55-1.2s.54-1.17.54-1.9c0-.72-.17-1.34-.5-1.86-.34-.52-.82-.92-1.45-1.2s-1.37-.42-2.22-.42h-4.03v9.8h1.82v-2.86h2.58l2 2.87h1.95v-.01zm-2-6.3c0 .63-.2 1.1-.62 1.45s-1 .5-1.8.5h-2.13v-3.9h2.13c.8 0 1.4.17 1.8.5.4.34.62.82.62 1.45h0zm10.73 2.62c0-.77-.16-1.44-.48-2.02s-.77-1.04-1.34-1.36-1.23-.48-1.95-.48c-.74 0-1.4.16-2 .5s-1.05.78-1.38 1.36-.5 1.24-.5 1.97c0 .74.17 1.4.5 1.98s.82 1.04 1.45 1.36c.63.33 1.35.5 2.17.5.64 0 1.22-.1 1.74-.3.5-.2.94-.5 1.27-.9l-.94-1.08c-.53.54-1.2.8-2.03.8-.64 0-1.18-.16-1.62-.48a2.03 2.03 0 0 1-.8-1.31H329c.02-.22.02-.4.02-.5h0zm-3.78-2.47c.57 0 1.05.17 1.43.5.38.34.6.77.7 1.32h-4.24c.08-.55.32-1 .7-1.32.38-.33.85-.5 1.4-.5h0zm11.07-4.24v3.84a2.73 2.73 0 0 0-1.05-.76c-.4-.17-.86-.25-1.36-.25a3.93 3.93 0 0 0-1.94.48c-.57.32-1.02.77-1.35 1.34-.33.58-.5 1.25-.5 2 0 .76.16 1.43.5 2s.78 1.03 1.35 1.35 1.22.48 1.94.48c.5 0 .98-.1 1.4-.27a2.72 2.72 0 0 0 1.07-.8v.97h1.68v-10.4h-1.75zm-2.2 9c-.42 0-.8-.1-1.13-.3-.34-.2-.6-.46-.8-.82-.2-.35-.3-.77-.3-1.23 0-.47.1-.88.3-1.23s.46-.63.8-.82a2.26 2.26 0 0 1 1.13-.29c.42 0 .8.1 1.13.3.34.2.6.46.8.82.2.35.3.77.3 1.23 0 .47-.1.88-.3 1.23s-.46.63-.8.82a2.12 2.12 0 0 1-1.13.3h0z" fill="#fff"/><path d="M284.1 188.07h81.64v81.64H284.1z" fill="#f58b1f"/><path d="M303.68 233.58c1 0 1.9-.22 2.7-.65s1.43-1.03 1.9-1.8.7-1.63.7-2.6-.23-1.82-.7-2.6-1.1-1.37-1.9-1.8-1.7-.65-2.7-.65-1.9.22-2.7.65a4.84 4.84 0 0 0-1.89 1.81c-.46.77-.7 1.63-.7 2.58s.23 1.8.7 2.58a4.91 4.91 0 0 0 1.89 1.81c.8.44 1.7.65 2.7.65h0zm0-1.6c-.65 0-1.24-.15-1.76-.44a3.16 3.16 0 0 1-1.23-1.23 3.53 3.53 0 0 1-.45-1.77 3.53 3.53 0 0 1 .45-1.77 3.16 3.16 0 0 1 1.23-1.23c.52-.3 1.1-.44 1.76-.44s1.24.15 1.76.44a3.16 3.16 0 0 1 1.23 1.23 3.53 3.53 0 0 1 .45 1.77 3.53 3.53 0 0 1-.45 1.77 3.16 3.16 0 0 1-1.23 1.23c-.52.3-1.1.44-1.76.44h0zm8.7-4.93v-1.1h-1.67v7.48h1.75v-3.63c0-.75.2-1.32.57-1.7.38-.4.9-.6 1.6-.6.12 0 .26.01.4.04v-1.67c-1.27 0-2.16.4-2.66 1.18h0zm7.07-1.18a6.22 6.22 0 0 0-1.75.24c-.55.16-1.02.4-1.4.7l.7 1.27c.28-.23.62-.42 1.03-.55a4.07 4.07 0 0 1 1.24-.2c.62 0 1.08.14 1.4.42s.47.68.47 1.2v.1h-1.93c-1.07 0-1.86.2-2.36.6s-.75.94-.75 1.62c0 .43.1.8.34 1.15a2.27 2.27 0 0 0 .97.8c.42.2.9.3 1.47.3s1.04-.1 1.43-.26c.4-.17.7-.42.92-.75v.9h1.65v-4.38c0-1.06-.3-1.86-.88-2.4-.58-.5-1.42-.78-2.52-.78h0zm-.24 6.4c-.45 0-.8-.1-1.05-.28s-.38-.44-.38-.76c0-.66.5-1 1.5-1h1.8v.87c-.14.37-.38.66-.72.86s-.73.3-1.17.3h0zm10.12-6.4c-.55 0-1.05.1-1.48.27-.44.18-.8.44-1.1.78v-.97h-1.67v7.48h1.75v-3.78c0-.73.2-1.3.56-1.67.37-.4.88-.58 1.53-.58.57 0 1 .17 1.32.5s.46.82.46 1.48v4.06h1.75v-4.28c0-1.08-.28-1.9-.85-2.45-.58-.56-1.33-.84-2.28-.84h0zm11.1.1v1c-.3-.36-.67-.63-1.1-.8s-.94-.27-1.48-.27c-.7 0-1.35.15-1.93.45-.57.3-1.03.72-1.36 1.27s-.5 1.17-.5 1.88.17 1.34.5 1.9.78.98 1.36 1.28c.57.3 1.22.45 1.93.45a3.8 3.8 0 0 0 1.41-.25 2.97 2.97 0 0 0 1.09-.74v.4c0 .77-.2 1.33-.57 1.7-.38.37-.98.56-1.8.56-.5 0-1.02-.08-1.52-.24s-.9-.38-1.24-.65l-.78 1.32c.42.35.95.6 1.6.8.64.18 1.33.27 2.04.27 2.7 0 4.03-1.32 4.03-3.95v-6.34h-1.66zm-2.33 5.65c-.67 0-1.22-.2-1.65-.6-.42-.4-.64-.9-.64-1.55 0-.63.2-1.13.64-1.53.42-.4.97-.6 1.65-.6.66 0 1.2.2 1.63.6s.64.9.64 1.53-.2 1.15-.64 1.55c-.42.4-.96.6-1.63.6h0zm13.32-1.87c0-.77-.16-1.44-.48-2.02s-.77-1.04-1.34-1.36-1.23-.48-1.95-.48c-.74 0-1.4.16-2 .5s-1.05.78-1.38 1.37c-.33.58-.5 1.24-.5 1.97 0 .74.17 1.4.5 1.98s.82 1.04 1.45 1.36c.63.33 1.35.5 2.17.5.64 0 1.22-.1 1.74-.3.5-.2.94-.5 1.27-.9l-.94-1.08c-.53.54-1.2.8-2.03.8-.64 0-1.18-.16-1.62-.48a2.03 2.03 0 0 1-.8-1.31h5.87l.02-.52zm-3.78-2.47c.57 0 1.05.17 1.43.5.38.34.6.77.7 1.32h-4.24c.08-.55.32-1 .7-1.32.37-.33.85-.5 1.4-.5h0z" fill="#fff"/><path d="M284.1 288.28h81.64v81.64H284.1z"/><path d="M313.1 328.67c.4-.2.7-.5.92-.87a2.48 2.48 0 0 0 .34-1.29c0-.8-.3-1.42-.94-1.87s-1.52-.68-2.67-.68h-4.6v9.8h4.87c1.25 0 2.2-.23 2.86-.7.65-.46.98-1.12.98-1.97 0-.62-.16-1.13-.48-1.55a2.58 2.58 0 0 0-1.29-.88h0zm-2.55-3.28c.63 0 1.12.1 1.46.34s.5.57.5 1.02c0 .44-.17.77-.5 1s-.83.34-1.46.34h-2.58v-2.7h2.58zm.37 6.94H308v-2.83h2.94c1.4 0 2.1.47 2.1 1.4 0 .95-.7 1.42-2.1 1.42h0zm5.7 1.43h1.75v-10.4h-1.75v10.4zm6.9-7.56a6.22 6.22 0 0 0-1.75.24c-.55.16-1.02.4-1.4.7l.7 1.27c.28-.23.62-.42 1.03-.55a4.07 4.07 0 0 1 1.24-.2c.62 0 1.08.14 1.4.42s.47.68.47 1.2v.1h-1.93c-1.07 0-1.86.2-2.36.6s-.75.94-.75 1.62c0 .43.1.8.34 1.15a2.27 2.27 0 0 0 .97.8c.42.2.9.3 1.47.3s1.04-.1 1.43-.26c.4-.17.7-.42.92-.75v.9h1.65v-4.38c0-1.06-.3-1.86-.88-2.4-.58-.5-1.42-.78-2.52-.78h0zm-.24 6.4c-.45 0-.8-.1-1.05-.28s-.38-.44-.38-.76c0-.66.5-1 1.5-1h1.8v.87c-.14.37-.38.66-.72.86s-.73.3-1.17.3h0zm9.3 1.27c.73 0 1.37-.15 1.93-.45s.98-.73 1.27-1.3l-1.34-.78a2.13 2.13 0 0 1-.8.78c-.32.17-.67.26-1.06.26-.66 0-1.2-.2-1.63-.64-.42-.42-.64-1-.64-1.7s.2-1.28.64-1.7.97-.64 1.62-.64c.38 0 .73.1 1.06.26a2.06 2.06 0 0 1 .8.78l1.34-.78a2.94 2.94 0 0 0-1.25-1.29c-.56-.3-1.2-.45-1.94-.45-.78 0-1.48.16-2.1.5s-1.1.78-1.43 1.36c-.35.58-.52 1.24-.52 1.97 0 .74.17 1.4.52 1.98s.83 1.04 1.44 1.36 1.3.48 2.08.48h0zm10.34-.1h2.13l-3.42-4.34 3.12-3.14h-2.1l-3.63 3.36v-6.27h-1.75v10.4h1.75v-1.97l1.3-1.23 2.6 3.2z" fill="#fff"/><path d="M383.9 87.86h81.64v81.64H383.9z" fill="#ffc416"/><path d="M410.16 123.56h-1.8l-2.9 4.77-2.87-4.77h-1.95l3.85 6.37v3.43h1.82v-3.46l3.84-6.34zm8.02 6.1c0-.77-.16-1.44-.48-2.02s-.77-1.04-1.34-1.36-1.23-.48-1.95-.48c-.74 0-1.4.16-2 .5s-1.05.78-1.38 1.36-.5 1.24-.5 1.97c0 .74.17 1.4.5 1.98s.82 1.04 1.45 1.36c.63.33 1.35.5 2.17.5.64 0 1.22-.1 1.74-.3.5-.2.94-.5 1.27-.9l-.94-1.08c-.53.54-1.2.8-2.03.8-.64 0-1.18-.16-1.62-.48a2.03 2.03 0 0 1-.8-1.31h5.87l.02-.5zm-3.78-2.47c.57 0 1.05.17 1.43.5.38.34.6.77.7 1.32h-4.24c.08-.55.32-1 .7-1.32.38-.33.85-.5 1.4-.5h0zm5.43 6.16h1.75v-10.4h-1.75v10.4zm4.02 0h1.75v-10.4h-1.75v10.4zm7.38.1c.77 0 1.45-.16 2.06-.5s1.08-.78 1.42-1.36.5-1.24.5-1.98-.17-1.4-.5-1.97c-.34-.58-.8-1.03-1.42-1.36s-1.3-.5-2.06-.5-1.44.16-2.04.5c-.6.33-1.08.78-1.42 1.36s-.5 1.24-.5 1.97c0 .74.17 1.4.5 1.98a3.51 3.51 0 0 0 1.42 1.36c.6.33 1.28.5 2.04.5h0zm0-1.5c-.64 0-1.17-.2-1.6-.64s-.62-1-.62-1.7.2-1.26.62-1.7c.42-.43.95-.64 1.6-.64s1.18.2 1.6.64.63 1 .63 1.7-.2 1.26-.63 1.7c-.43.43-.96.64-1.6.64h0zm15.8-6.05l-2.03 5.54-2.02-5.54h-1.47l-2.06 5.5-1.97-5.5h-1.65l2.74 7.47h1.68l1.96-5.15 1.93 5.15h1.68l2.76-7.47h-1.55z" fill="#fff"/><path d="M483.7 87.86h81.64v81.64H483.7z" fill="#0fae7e"/><path d="M513 133.36h1.82v-8.26h3.25v-1.54h-8.32v1.54H513v8.26zm13.27-3.7c0-.77-.16-1.44-.48-2.02s-.77-1.04-1.34-1.36-1.23-.48-1.95-.48c-.74 0-1.4.16-2 .5s-1.05.78-1.38 1.36-.5 1.24-.5 1.97c0 .74.17 1.4.5 1.98s.82 1.04 1.45 1.36c.63.33 1.35.5 2.17.5.64 0 1.22-.1 1.74-.3.5-.2.94-.5 1.27-.9l-.94-1.08c-.53.54-1.2.8-2.03.8-.64 0-1.18-.16-1.62-.48a2.03 2.03 0 0 1-.8-1.31h5.87l.02-.5zm-3.78-2.47c.57 0 1.05.17 1.43.5.38.34.6.77.7 1.32h-4.24c.08-.55.32-1 .7-1.32.38-.33.85-.5 1.4-.5h0zm8.3-1.4a6.22 6.22 0 0 0-1.75.24c-.55.16-1.02.4-1.4.7l.7 1.27c.28-.23.62-.42 1.03-.55a4.07 4.07 0 0 1 1.24-.2c.62 0 1.08.14 1.4.42s.47.68.47 1.2v.1h-1.93c-1.07 0-1.86.2-2.36.6a1.99 1.99 0 0 0-.75 1.62c0 .43.1.8.34 1.15a2.27 2.27 0 0 0 .97.8c.42.2.9.3 1.47.3s1.04-.1 1.43-.26c.4-.17.7-.42.92-.75v.9h1.65v-4.38c0-1.06-.3-1.86-.88-2.4-.58-.5-1.42-.78-2.52-.78h0zm-.24 6.4c-.45 0-.8-.1-1.05-.28s-.38-.44-.38-.76c0-.66.5-1 1.5-1h1.8v.87c-.14.37-.38.66-.72.86s-.73.3-1.17.3h0zm5.85 1.17h1.75v-10.4h-1.75v10.4z" fill="#fff"/><path d="M383.9 288.28h81.64v81.64H383.9z" fill="#3d803d"/><path d="M410.85 331.8c-.58.34-1.25.5-2.02.5-.68 0-1.3-.15-1.83-.45a3.24 3.24 0 0 1-1.26-1.23c-.3-.52-.45-1.1-.45-1.76 0-.67.15-1.27.45-1.8a3.15 3.15 0 0 1 1.26-1.22c.54-.3 1.15-.43 1.84-.43a3.66 3.66 0 0 1 2.7 1.12l1.15-1.12c-.46-.52-1.02-.92-1.7-1.2s-1.42-.4-2.24-.4c-1 0-1.92.22-2.72.65-.8.43-1.44 1.03-1.9 1.8s-.7 1.63-.7 2.6.23 1.82.7 2.6 1.1 1.37 1.9 1.8 1.7.65 2.7.65c.7 0 1.4-.1 2.07-.32s1.26-.52 1.76-.92v-3.9h-1.72v3.05h.01zm5.63-4.42v-1.1h-1.67v7.48h1.75v-3.63c0-.75.2-1.32.57-1.7.38-.4.9-.6 1.6-.6.12 0 .26.01.4.04v-1.67c-1.27 0-2.16.4-2.66 1.18h0zm11.25 2.7c0-.77-.16-1.44-.48-2.02s-.77-1.04-1.34-1.36-1.23-.48-1.95-.48c-.74 0-1.4.16-2 .5s-1.05.78-1.38 1.36-.5 1.24-.5 1.97c0 .74.17 1.4.5 1.98s.82 1.04 1.45 1.36c.63.33 1.35.5 2.17.5.64 0 1.22-.1 1.74-.3.5-.2.94-.5 1.27-.9l-.94-1.08c-.53.54-1.2.8-2.03.8-.64 0-1.18-.16-1.62-.48a2.03 2.03 0 0 1-.8-1.31h5.87l.02-.5zm-3.78-2.47c.57 0 1.05.17 1.43.5.38.34.6.77.7 1.32h-4.24c.08-.55.32-1 .7-1.32.38-.33.85-.5 1.4-.5h0zm12.5 2.47c0-.77-.16-1.44-.48-2.02s-.77-1.04-1.34-1.36-1.23-.48-1.95-.48c-.74 0-1.4.16-2 .5s-1.05.78-1.38 1.36-.5 1.24-.5 1.97c0 .74.17 1.4.5 1.98s.82 1.04 1.45 1.36c.63.33 1.35.5 2.17.5.64 0 1.22-.1 1.74-.3.5-.2.94-.5 1.27-.9l-.94-1.08c-.53.54-1.2.8-2.03.8-.64 0-1.18-.16-1.62-.48a2.03 2.03 0 0 1-.8-1.31h5.87c.02-.22.02-.4.02-.5h0zm-3.78-2.47c.57 0 1.05.17 1.43.5.38.34.6.77.7 1.32h-4.24c.08-.55.32-1 .7-1.32.38-.33.85-.5 1.4-.5h0zm9.72-1.4c-.55 0-1.05.1-1.48.27-.44.18-.8.44-1.1.78v-.97h-1.67v7.48h1.75v-3.78c0-.73.2-1.3.56-1.67.37-.4.88-.58 1.53-.58.57 0 1 .17 1.32.5s.46.82.46 1.48v4.06h1.75v-4.28c0-1.08-.28-1.9-.85-2.45-.58-.56-1.34-.84-2.28-.84h0z" fill="#fff"/><path d="M483.7 188.07h81.64v81.64H483.7z" fill="#484756"/><path d="M516.34 228.35c.4-.2.7-.5.92-.87a2.48 2.48 0 0 0 .34-1.29c0-.8-.3-1.42-.94-1.87s-1.52-.68-2.67-.68h-4.6v9.8h4.87c1.25 0 2.2-.23 2.86-.7.65-.46.98-1.12.98-1.97 0-.62-.16-1.13-.48-1.55a2.58 2.58 0 0 0-1.29-.88h0zm-2.55-3.28c.63 0 1.12.1 1.46.34s.5.57.5 1-.17.77-.5 1-.83.34-1.46.34h-2.58v-2.7h2.58v.01zm.37 6.94h-2.94v-2.83h2.94c1.4 0 2.1.47 2.1 1.4 0 .95-.7 1.42-2.1 1.42h0zm5.7 1.43h1.75v-10.4h-1.75v10.4zm9.5-7.47v3.78c0 .73-.18 1.3-.55 1.67-.37.4-.87.58-1.5.58-.56 0-1-.17-1.3-.5s-.46-.83-.46-1.5v-4.03h-1.75v4.27c0 1.1.3 1.92.86 2.47.57.56 1.36.83 2.36.83.5 0 .94-.1 1.36-.27a2.73 2.73 0 0 0 1.05-.78v.95h1.67v-7.48h-1.76v.01zm11.05 3.78c0-.77-.16-1.44-.48-2.02s-.77-1.04-1.34-1.36-1.22-.48-1.95-.48c-.74 0-1.4.16-2 .5s-1.05.78-1.38 1.37c-.33.58-.5 1.24-.5 1.97 0 .74.17 1.4.5 1.98s.82 1.04 1.45 1.36c.63.33 1.35.5 2.17.5.64 0 1.22-.1 1.74-.3.5-.2.94-.5 1.27-.9l-.94-1.08c-.53.54-1.2.8-2.03.8-.64 0-1.18-.16-1.62-.48a2.03 2.03 0 0 1-.8-1.31h5.87v-.52zm-3.78-2.47c.57 0 1.05.17 1.43.5.38.34.6.77.7 1.32h-4.24c.08-.55.32-1 .7-1.32.37-.33.85-.5 1.4-.5h0z" fill="#fff"/><path d="M483.7 288.28h81.64v81.64H483.7z" fill="#f5efcc"/><path d="M511.24 323.96h-4.03v9.8h1.82v-2.83h2.2c.85 0 1.6-.14 2.22-.42s1.1-.68 1.45-1.2.5-1.15.5-1.86c0-.72-.17-1.34-.5-1.86-.34-.52-.82-.92-1.45-1.2s-1.37-.42-2.22-.42h0zm-.08 5.43h-2.13v-3.9h2.13c.8 0 1.4.17 1.8.5.4.34.62.82.62 1.44 0 .63-.2 1.1-.62 1.44-.42.35-1.02.5-1.8.5h0zm13.04.68c0-.77-.16-1.44-.48-2.02s-.77-1.04-1.34-1.36-1.23-.48-1.95-.48c-.74 0-1.4.16-2 .5s-1.05.78-1.38 1.36-.5 1.24-.5 1.97c0 .74.17 1.4.5 1.98s.82 1.04 1.45 1.36c.63.33 1.35.5 2.17.5.64 0 1.22-.1 1.74-.3.5-.2.94-.5 1.27-.9l-.94-1.08c-.53.54-1.2.8-2.03.8-.64 0-1.18-.16-1.62-.48a2.03 2.03 0 0 1-.8-1.31h5.87c.02-.22.02-.4.02-.5h0zm-3.78-2.47c.57 0 1.05.17 1.43.5.38.34.6.77.7 1.32h-4.24c.08-.55.32-1 .7-1.32.38-.33.85-.5 1.4-.5h0zm8.3-1.4a6.22 6.22 0 0 0-1.75.24c-.55.16-1.02.4-1.4.7l.7 1.27c.28-.23.62-.42 1.03-.55a4.07 4.07 0 0 1 1.24-.2c.62 0 1.08.14 1.4.42s.47.68.47 1.2v.1h-1.93c-1.07 0-1.86.2-2.36.6s-.75.94-.75 1.62c0 .43.1.8.34 1.15a2.27 2.27 0 0 0 .97.8c.42.2.9.3 1.47.3s1.04-.1 1.43-.26c.4-.17.7-.42.92-.75v.9h1.65v-4.38c0-1.06-.3-1.86-.88-2.4-.57-.5-1.42-.78-2.52-.78h0zm-.24 6.4c-.45 0-.8-.1-1.05-.28s-.38-.44-.38-.76c0-.66.5-1 1.5-1h1.8v.87c-.14.37-.38.66-.72.86s-.73.3-1.17.3h0zm7.52-5.2v-1.1h-1.67v7.48h1.75v-3.63c0-.75.2-1.32.57-1.7.38-.4.9-.6 1.6-.6.12 0 .26.01.4.04v-1.67c-1.27 0-2.15.4-2.66 1.18h0zm4.3 6.36h1.75v-10.4h-1.75v10.4z" fill="#484756"/><path d="M641.56 26.56h2.34V15.94h4.18v-1.98h-10.7v1.98h4.18v10.62h-.01zm18.66-12.6h-2.3l-3.73 6.14-3.7-6.14H648l4.95 8.2v4.4h2.34V22.1l4.93-8.15zm6.74 0h-5.18v12.6h2.34v-3.64h2.84c1.1 0 2.04-.18 2.85-.54s1.43-.88 1.86-1.56.65-1.47.65-2.4-.22-1.72-.65-2.4-1.05-1.2-1.86-1.55-1.76-.53-2.85-.53h0zm-.1 7h-2.74v-5h2.74c1.02 0 1.8.22 2.32.65s.8 1.05.8 1.85-.26 1.42-.8 1.85-1.3.65-2.32.65h0zm13.9 5.8c1.28 0 2.44-.28 3.47-.84a6.28 6.28 0 0 0 2.43-2.31c.6-.98.88-2.1.88-3.33s-.3-2.35-.88-3.33a6.21 6.21 0 0 0-2.43-2.31c-1.03-.56-2.2-.84-3.47-.84s-2.44.28-3.47.84-1.84 1.33-2.43 2.32-.88 2.1-.88 3.32.3 2.33.88 3.32 1.4 1.76 2.43 2.32 2.2.84 3.47.84h0zm0-2.05c-.84 0-1.6-.2-2.27-.57s-1.2-.9-1.58-1.58a4.6 4.6 0 0 1-.58-2.28c0-.84.2-1.6.58-2.28a4 4 0 0 1 1.58-1.58c.67-.38 1.43-.57 2.27-.57s1.6.2 2.27.57 1.2.9 1.58 1.58a4.6 4.6 0 0 1 .58 2.28c0 .84-.2 1.6-.58 2.28a4 4 0 0 1-1.58 1.58c-.67.38-1.43.57-2.27.57h0zm17.9-.65c-.74.43-1.6.65-2.6.65-.88 0-1.66-.2-2.35-.58a4.17 4.17 0 0 1-1.62-1.58c-.4-.67-.58-1.43-.58-2.27 0-.86.2-1.63.58-2.3s.93-1.2 1.62-1.57c.7-.37 1.48-.56 2.37-.56 1.36 0 2.5.48 3.47 1.44l1.48-1.44a5.67 5.67 0 0 0-2.18-1.53c-.86-.35-1.82-.52-2.88-.52-1.3 0-2.46.28-3.5.84a6.24 6.24 0 0 0-2.44 2.31c-.6.98-.88 2.1-.88 3.33s.3 2.35.88 3.33a6.28 6.28 0 0 0 2.43 2.31c1.03.56 2.2.84 3.47.84a8.85 8.85 0 0 0 2.66-.41c.86-.28 1.62-.67 2.27-1.2v-5.02h-2.2v3.92zm16.07 2.52l-2.9-4.14c.86-.34 1.53-.85 2-1.53s.7-1.5.7-2.45c0-.92-.22-1.72-.65-2.4s-1.05-1.2-1.86-1.55-1.76-.54-2.85-.54h-5.18v12.6h2.34V22.9h2.84l.5-.02 2.57 3.7h2.52zm-2.57-8.12c0 .8-.26 1.43-.8 1.86-.53.44-1.3.66-2.32.66h-2.74v-5.02h2.74c1.02 0 1.8.22 2.32.65.52.43.8 1.05.8 1.85h0zm14.4 8.12H729l-5.7-12.6H721l-5.67 12.6h2.4l1.24-2.92h6.3l1.26 2.92zm-6.77-4.75l2.36-5.5 2.38 5.5h-4.74zm16.02-7.85h-5.18v12.6h2.34v-3.64h2.84c1.1 0 2.04-.18 2.85-.54s1.43-.88 1.86-1.56.65-1.47.65-2.4-.22-1.72-.65-2.4-1.05-1.2-1.86-1.55-1.75-.53-2.85-.53h0zm-.1 7h-2.74v-5h2.74c1.02 0 1.8.22 2.32.65s.8 1.05.8 1.85-.26 1.42-.8 1.85-1.3.65-2.32.65h0zm16.86-7v5.2h-6.52v-5.2h-2.34v12.6h2.34v-5.4h6.52v5.4h2.34v-12.6h-2.34zm16.1 0h-2.3l-3.73 6.14-3.7-6.14h-2.5l4.95 8.2v4.4h2.34V22.1l4.93-8.15z"/><path d="M816.68 103.7h-180.6c-.14 0-.25-.1-.25-.25v-21.8c0-.14.1-.25.25-.25h180.6c.14 0 .25.1.25.25v21.8c0 .14-.1.25-.25.25zm-180.36-.5h180.1V81.9h-180.1v21.3z" fill="#484756"/><path d="M647 96.28c.74 0 1.36-.1 1.87-.34.5-.22.9-.52 1.15-.9a2.25 2.25 0 0 0 .38-1.26c0-.54-.14-.98-.43-1.3a2.43 2.43 0 0 0-1.03-.7c-.4-.16-.9-.3-1.54-.45l-1.08-.3c-.26-.1-.48-.2-.65-.36a.78.78 0 0 1-.26-.6c0-.34.15-.62.45-.83s.76-.3 1.37-.3c.38 0 .76.06 1.16.17a5.04 5.04 0 0 1 1.15.49l.5-1.2c-.36-.24-.8-.42-1.28-.55-.5-.13-1-.2-1.5-.2-.74 0-1.36.1-1.87.34-.5.22-.9.53-1.14.9s-.38.8-.38 1.27c0 .55.14 1 .43 1.3a2.4 2.4 0 0 0 1.02.7l1.55.46 1.08.3c.26.1.48.2.65.37s.26.35.26.6c0 .33-.15.6-.46.8s-.77.3-1.4.3c-.5 0-1-.1-1.5-.26s-.92-.4-1.27-.67l-.54 1.2c.35.3.83.55 1.43.73.63.2 1.26.28 1.9.28h0zm11.06-7.2v-1.3h-6.13v8.4h1.56v-3.22h4.06v-1.32h-4.06v-2.56h4.57v.01zm8.26-1.3h-3.46v8.4h1.56v-2.42h1.9c.73 0 1.36-.12 1.9-.36s.95-.6 1.24-1.04.43-.98.43-1.6-.14-1.15-.43-1.6-.7-.8-1.24-1.03-1.18-.36-1.9-.36h0zm-.08 4.66h-1.82V89.1h1.82c.68 0 1.2.14 1.55.43s.53.7.53 1.24-.18.95-.53 1.24c-.35.28-.87.43-1.55.43h0zm12.5 3.74l-1.93-2.76c.58-.22 1.02-.56 1.33-1.02s.46-1 .46-1.63c0-.62-.14-1.15-.43-1.6s-.7-.8-1.24-1.03-1.17-.36-1.9-.36h-3.46v8.4h1.56V93.7h2.22l1.72 2.46h1.67zm-1.72-5.4c0 .54-.18.95-.53 1.24s-.87.44-1.55.44h-1.82V89.1h1.82c.68 0 1.2.14 1.55.43s.53.7.53 1.24h0zm7.22 5.53a4.94 4.94 0 0 0 2.32-.56 4.14 4.14 0 0 0 1.62-1.54c.4-.66.6-1.4.6-2.22s-.2-1.56-.6-2.22a4.14 4.14 0 0 0-1.62-1.54c-.7-.37-1.46-.56-2.32-.56a4.94 4.94 0 0 0-2.32.56c-.7.36-1.23.9-1.62 1.55s-.6 1.4-.6 2.2c0 .82.2 1.55.6 2.2s.93 1.18 1.62 1.55c.7.38 1.47.56 2.32.56h0zm0-1.37a3.05 3.05 0 0 1-1.51-.38 2.7 2.7 0 0 1-1.06-1.06c-.26-.45-.38-.96-.38-1.52s.13-1.07.38-1.52a2.84 2.84 0 0 1 1.06-1.06 3.05 3.05 0 0 1 1.51-.38 3.05 3.05 0 0 1 1.51.38 2.7 2.7 0 0 1 1.06 1.06c.26.45.38.96.38 1.52s-.13 1.07-.38 1.52a2.84 2.84 0 0 1-1.06 1.06c-.44.26-.95.38-1.5.38h0zm9.47 1.25h3.67c.9 0 1.7-.17 2.4-.52s1.24-.84 1.62-1.48.58-1.37.58-2.2-.2-1.57-.58-2.2c-.38-.64-.92-1.13-1.62-1.48s-1.5-.52-2.4-.52h-3.67v8.4zm1.56-1.32V89.1h2.04c.62 0 1.16.12 1.63.35.47.24.83.57 1.08 1s.38.94.38 1.52-.13 1.08-.38 1.52-.6.77-1.08 1-1 .35-1.63.35h-2.04zm8.34 1.32h1.56v-8.4h-1.56v8.4zm6.42.12c.74 0 1.36-.1 1.87-.34.5-.22.9-.52 1.15-.9a2.25 2.25 0 0 0 .38-1.26c0-.54-.14-.98-.43-1.3a2.43 2.43 0 0 0-1.03-.7c-.4-.16-.9-.3-1.54-.45l-1.08-.3c-.26-.1-.48-.2-.65-.36a.78.78 0 0 1-.26-.6c0-.34.15-.62.45-.83s.76-.3 1.37-.3c.38 0 .76.06 1.16.17a5.04 5.04 0 0 1 1.15.49l.5-1.2c-.36-.24-.8-.42-1.28-.55-.5-.13-1-.2-1.5-.2-.74 0-1.36.1-1.87.34-.5.22-.9.53-1.14.9s-.38.8-.38 1.27c0 .55.14 1 .43 1.3a2.4 2.4 0 0 0 1.02.7l1.55.46 1.08.3c.26.1.48.2.65.37s.26.35.26.6c0 .33-.15.6-.46.8s-.77.3-1.4.3c-.5 0-1-.1-1.5-.26s-.92-.4-1.27-.67l-.54 1.2c.35.3.83.55 1.43.73a6.59 6.59 0 0 0 1.91.28h0zm8.4-8.52h-3.46v8.4h1.56v-2.42h1.9c.73 0 1.36-.12 1.9-.36s.95-.6 1.24-1.04.43-.98.43-1.6-.14-1.15-.43-1.6-.7-.8-1.24-1.03-1.17-.36-1.9-.36h0zm-.07 4.66h-1.82V89.1h1.82c.68 0 1.2.14 1.55.43s.53.7.53 1.24-.18.95-.53 1.24c-.36.28-.87.43-1.55.43h0zm5.3 3.74h5.95v-1.32h-4.4V87.8h-1.56v8.4zm13.47 0h1.63l-3.8-8.4h-1.54l-3.78 8.4h1.6l.83-1.94h4.2l.84 1.94zm-4.5-3.17l1.57-3.67 1.58 3.67h-3.15zm14.1-5.23h-1.54l-2.48 4.1-2.46-4.1h-1.67l3.3 5.46v2.94h1.56v-3l3.3-5.44zm-97.93 31.77h-3.22l-.77 2.3h-1.37l3.05-8.46h1.42l3.05 8.46h-1.4l-.77-2.3zm-2.9-1.05h2.55l-1.26-3.7h-.04l-1.25 3.7zm6 3.34v-8.46h3.38c1.5 0 2.48.83 2.48 2.1 0 .9-.66 1.7-1.5 1.84v.05c1.15.13 1.92.94 1.92 2.07 0 1.5-1.08 2.4-2.88 2.4h-3.4zm1.3-4.86h1.47c1.14 0 1.76-.47 1.76-1.3 0-.8-.54-1.22-1.5-1.22h-1.75V117zm1.8 3.78c1.18 0 1.8-.5 1.8-1.4s-.64-1.38-1.9-1.38h-1.73v2.78h1.8zm4-3.15c0-2.68 1.5-4.37 3.87-4.37 1.92 0 3.36 1.18 3.6 2.94h-1.3c-.23-1.08-1.14-1.8-2.3-1.8-1.54 0-2.53 1.26-2.53 3.22 0 1.97.98 3.22 2.54 3.22 1.18 0 2.02-.6 2.28-1.62h1.3c-.32 1.75-1.65 2.77-3.6 2.77-2.38 0-3.88-1.68-3.88-4.37zm11.65-4.22c2.5 0 4 1.55 4 4.2 0 2.67-1.48 4.24-4 4.24h-2.98v-8.46h2.98zm-1.67 7.32h1.55c1.8 0 2.78-1.1 2.78-3.1s-1-3.1-2.78-3.1h-1.55v6.18zm12.3 1.13h-5.37v-8.46h5.37v1.13h-4.05V117h3.84v1.1h-3.84v2.62h4.05v1.15zm1.36 0v-8.46h5.28v1.13h-3.97v2.68h3.63v1.1h-3.63v3.54h-1.3zm10.08.15c-2.42 0-3.94-1.7-3.94-4.4 0-2.67 1.52-4.33 3.93-4.33 1.88 0 3.3 1.1 3.6 2.8h-1.35c-.32-1.05-1.14-1.65-2.24-1.65-1.62 0-2.6 1.18-2.6 3.17 0 2.02 1 3.27 2.6 3.27 1.37 0 2.32-.88 2.34-2.16v-.15h-2.2v-1.06h3.48v.86c-.01 2.3-1.36 3.66-3.65 3.66zm10.58-.15v-3.74h-4.34v3.74h-1.3v-8.46h1.3v3.57h4.34v-3.57h1.3v8.46h-1.3zm2.9 0v-8.46h1.3v8.46h-1.3zm3.6-2.17c.02.7.53 1.18 1.26 1.18.86 0 1.33-.52 1.33-1.48v-6h1.3v6c0 1.68-.98 2.65-2.63 2.65-1.52 0-2.56-.95-2.56-2.36h1.3zm5.5 2.17v-8.46h1.3v4.03h.05l3.53-4.03h1.56l-3.35 3.74 3.63 4.7h-1.63l-2.93-3.8-.87 1v2.82h-1.3zm12.83 0h-5.25v-8.46h1.3v7.32h3.94v1.14zm8.5 0v-6.22h-.04l-2.55 6.22h-.97l-2.55-6.22h-.04v6.22h-1.2v-8.46h1.52l2.74 6.74h.05l2.73-6.74h1.52v8.46h-1.2zm2.78 0v-8.46h1.2l4.38 6.23h.05v-6.23h1.28v8.46h-1.18l-4.38-6.23h-.05v6.23h-1.3zm16.08-4.23c0 2.7-1.53 4.37-3.96 4.37-2.44 0-3.96-1.68-3.96-4.37s1.52-4.37 3.96-4.37c2.43 0 3.96 1.68 3.96 4.37zm-6.58 0c0 1.97 1 3.2 2.62 3.2s2.6-1.24 2.6-3.2-1-3.22-2.6-3.22-2.62 1.25-2.62 3.22zm11-4.22c1.64 0 2.78 1.13 2.78 2.78s-1.17 2.8-2.82 2.8h-1.82v2.9h-1.3v-8.46h3.17zm-1.86 4.47h1.5c1.14 0 1.8-.62 1.8-1.68s-.65-1.68-1.8-1.68h-1.5v3.36zm5.5-.25c0-2.68 1.54-4.37 3.97-4.37s3.96 1.68 3.96 4.37c0 1.6-.53 2.84-1.5 3.6l1.13 1.54h-1.35l-.74-1c-.45.17-.95.25-1.5.25-2.45 0-3.97-1.7-3.97-4.37zm4.73 3.12l-1.06-1.44h1.35l.64.87c.6-.54.93-1.44.93-2.55 0-1.97-1.02-3.23-2.62-3.23s-2.62 1.26-2.62 3.23 1 3.23 2.62 3.23a3.1 3.1 0 0 0 .76-.1zm5.77 1.1h-1.3v-8.46H776c1.74 0 2.82 1 2.82 2.58 0 1.14-.6 2.07-1.64 2.4l1.9 3.46h-1.5l-1.72-3.25h-1.8v3.26zm0-4.32h1.84c1 0 1.6-.56 1.6-1.52 0-.94-.62-1.52-1.63-1.52h-1.8v3.04zm6.96 2c.12.84.9 1.34 2.04 1.34 1.07 0 1.84-.55 1.84-1.3 0-.66-.45-1.07-1.58-1.3l-.92-.2c-1.7-.36-2.46-1.14-2.46-2.36 0-1.45 1.27-2.44 3.07-2.44s3.02 1 3.06 2.5h-1.27c-.08-.85-.78-1.37-1.8-1.37-1 0-1.72.48-1.72 1.25 0 .62.43 1.03 1.53 1.26l.93.2c1.77.38 2.5 1.08 2.5 2.3 0 1.6-1.25 2.6-3.22 2.6-1.9 0-3.18-.96-3.26-2.46H781zm8.5 2.32v-7.32h-2.6v-1.13h6.5v1.13h-2.58v7.32h-1.32zm6.3-3.1c0 1.2.76 2.06 2.1 2.06s2.12-.85 2.12-2.06v-5.37h1.3v5.48c0 1.82-1.3 3.1-3.42 3.1s-3.42-1.3-3.42-3.1v-5.48h1.3v5.37zm9.48 3.1l-3.02-8.46h1.42l2.3 6.98h.04l2.3-6.98h1.4l-3.02 8.46h-1.43zm8.4 0h-1.24l-2.28-8.46h1.37l1.56 6.62h.05l1.8-6.62h1.22l1.8 6.62h.05l1.56-6.62h1.37l-2.3 8.46h-1.24l-1.83-6.38h-.06l-1.82 6.38zm10.57-4.25v-.04l-2.78-4.18h1.56l2.1 3.27h.05l2.1-3.27h1.48l-2.87 4.22v.04l2.8 4.2h-1.54l-2.1-3.22H825l-2.13 3.22h-1.45l2.8-4.24zm7.9 4.25v-3.46l-2.98-5h1.46l2.16 3.73h.04l2.16-3.73h1.45l-2.98 5v3.46h-1.3zm4.9-.9l4.63-6.38v-.05h-4.5v-1.13h6.1v.9l-4.6 6.38v.04h4.72v1.14h-6.35v-.9zm-193.4 13.78c0-1.08.83-1.74 2.3-1.82l1.7-.1v-.47c0-.7-.46-1.1-1.24-1.1-.73 0-1.2.35-1.3.9h-1.2c.07-1.1 1.02-1.93 2.54-1.93 1.5 0 2.45.8 2.45 2.03v4.25h-1.2v-1h-.03c-.36.7-1.14 1.12-1.95 1.12-1.2-.01-2.04-.76-2.04-1.87zm3.98-.55v-.5l-1.52.1c-.76.05-1.18.4-1.18.9 0 .54.45.9 1.12.9.9.01 1.58-.6 1.58-1.4zm3.8 1.26h-.02v1.05h-1.23v-8.46h1.27v3.34h.03a2.14 2.14 0 0 1 1.95-1.15c1.55 0 2.57 1.23 2.57 3.18 0 1.96-1 3.2-2.57 3.2-.93 0-1.62-.44-2-1.15zm0-2.04c0 1.28.67 2.12 1.63 2.12 1 0 1.6-.8 1.6-2.12 0-1.3-.62-2.12-1.6-2.12-.95.01-1.63.85-1.63 2.12zm9.62-.96c-.13-.66-.62-1.18-1.45-1.18-.98 0-1.62.8-1.62 2.14 0 1.35.65 2.14 1.63 2.14.78 0 1.3-.43 1.44-1.14h1.22c-.13 1.3-1.18 2.2-2.67 2.2-1.76 0-2.9-1.2-2.9-3.2 0-1.96 1.15-3.2 2.9-3.2 1.6 0 2.55 1.02 2.67 2.23h-1.2zm1.84.96c0-1.95 1.03-3.18 2.58-3.18.88 0 1.6.45 1.93 1.12h.02v-3.32h1.27v8.46h-1.23v-1.05h-.02c-.36.7-1.07 1.15-1.96 1.15-1.56.01-2.6-1.23-2.6-3.18zm1.3 0c0 1.3.63 2.12 1.63 2.12.97 0 1.62-.83 1.62-2.12 0-1.28-.65-2.12-1.62-2.12-1 .01-1.63.83-1.63 2.12zm11.08 1.28c-.18 1.12-1.24 1.93-2.65 1.93-1.8 0-2.9-1.22-2.9-3.17 0-1.93 1.1-3.22 2.85-3.22 1.7 0 2.78 1.2 2.78 3.08v.43H671v.08c0 1.07.64 1.78 1.66 1.78.72 0 1.25-.36 1.42-.9h1.2zm-4.27-1.84h3.08c-.03-.94-.63-1.6-1.5-1.6s-1.5.67-1.57 1.6z"/><path d="M676.68 131.32h-.85v-1h.85v-.6c0-1.2.56-1.76 1.82-1.76.26 0 .54.03.7.06v.94a3.03 3.03 0 0 0-.46-.04c-.55 0-.8.28-.8.82v.58h1.25v1h-1.23v5.16h-1.27v-5.16zm3.45 5.65h1.27c.18.52.74.86 1.46.86 1 0 1.58-.56 1.58-1.4v-1h-.02c-.35.67-1.07 1.1-1.95 1.1-1.55 0-2.56-1.2-2.56-3.13 0-1.94 1-3.16 2.6-3.16.87 0 1.6.44 1.96 1.15h.02v-1.05h1.23v6.05c0 1.47-1.14 2.43-2.9 2.43-1.46 0-2.53-.78-2.7-1.84zm4.32-3.58c0-1.27-.65-2.1-1.64-2.1-.97 0-1.6.8-1.6 2.1s.63 2.07 1.6 2.07c1 0 1.64-.8 1.64-2.07zm2.55-5.36h1.25v3.32h.03c.34-.72 1-1.14 1.95-1.14 1.35 0 2.16.9 2.16 2.3v3.97h-1.27v-3.73c0-.9-.46-1.45-1.35-1.45-.94 0-1.5.64-1.5 1.62v3.56H687v-8.45zm6.56.57c0-.4.33-.73.73-.73s.73.32.73.73c0 .4-.32.73-.73.73s-.73-.33-.73-.73zm.1 1.72h1.27v6.16h-1.27v-6.16zm3.87 6.46c0 1.25-.65 1.85-2.02 1.85-.06 0-.26 0-.3-.01v-1c.02 0 .16.01.18.01.63 0 .86-.23.86-.86v-6.45h1.27v6.46zm-1.37-8.18c0-.4.33-.73.73-.73a.72.72 0 0 1 .73.73c0 .4-.32.73-.73.73-.4 0-.73-.33-.73-.73zm6.48 1.72h1.5l-2.55 2.65 2.65 3.5h-1.47l-2.1-2.74-.53.52v2.2h-1.27V128h1.27v4.93h.01l2.5-2.62zm2.28-2.3h1.27v8.46h-1.27v-8.46zm2.58 2.3h1.2v1.04h.03c.28-.7.92-1.14 1.75-1.14.86 0 1.48.44 1.72 1.2h.03c.32-.75 1.04-1.2 1.92-1.2 1.22 0 2.02.8 2.02 2.03v4.24h-1.27v-3.93c0-.8-.43-1.25-1.18-1.25s-1.27.56-1.27 1.34v3.85h-1.24v-4.03c0-.7-.45-1.16-1.17-1.16-.75 0-1.28.6-1.28 1.38v3.8h-1.27v-6.18zm9.9 0h1.2v1.03h.03c.33-.7 1-1.14 1.94-1.14 1.36 0 2.14.87 2.14 2.28v4h-1.27v-3.74c0-.93-.43-1.44-1.3-1.44-.9 0-1.46.63-1.46 1.6v3.6h-1.27v-6.16zm6.25 3.08c0-1.98 1.17-3.2 2.92-3.2s2.92 1.2 2.92 3.2-1.16 3.2-2.92 3.2-2.92-1.2-2.92-3.2zm4.55 0c0-1.37-.64-2.15-1.63-2.15s-1.63.8-1.63 2.15c0 1.37.64 2.16 1.63 2.16s1.63-.78 1.63-2.16zm8.08 0c0 1.95-1.03 3.2-2.57 3.2-.88 0-1.6-.43-1.94-1.12h-.03v3.05h-1.27v-8.2h1.22v1.06h.02c.36-.7 1.07-1.16 1.96-1.16 1.58 0 2.6 1.23 2.6 3.18zm-1.3 0c0-1.3-.63-2.12-1.63-2.12-.97 0-1.62.84-1.62 2.12s.64 2.12 1.62 2.12c1 0 1.63-.82 1.63-2.12zm6.54-2.02h.03v-1.06h1.23v8.2h-1.27v-3.08h-.02c-.35.7-1.07 1.14-1.95 1.14-1.55 0-2.56-1.24-2.56-3.2s1-3.18 2.6-3.18c.9.01 1.6.46 1.95 1.17zm0 2.02c0-1.28-.67-2.12-1.64-2.12-1 0-1.6.8-1.6 2.12s.62 2.12 1.6 2.12c.97 0 1.64-.83 1.64-2.12zm2.5-3.08h1.2v1.05h.03c.2-.72.76-1.15 1.48-1.15.18 0 .34.03.43.05v1.18c-.1-.04-.32-.07-.57-.07-.8 0-1.32.54-1.32 1.42v3.7H744v-6.17zm6.2-.12c1.44 0 2.37.8 2.4 1.93h-1.2c-.07-.6-.5-.97-1.22-.97-.7 0-1.14.33-1.14.83 0 .4.28.65.95.8l1 .23c1.26.3 1.74.8 1.74 1.68 0 1.12-1.05 1.9-2.5 1.9-1.54 0-2.47-.76-2.58-1.93h1.25c.12.64.56.96 1.33.96.76 0 1.23-.32 1.23-.82 0-.4-.23-.63-.9-.8l-1-.23c-1.17-.27-1.75-.83-1.75-1.73 0-1.1.96-1.86 2.37-1.86zm5.17-1.34v1.46h1.17v1h-1.17v3.4c0 .53.23.77.75.77.13 0 .33-.01.42-.03v1c-.14.04-.42.06-.7.06-1.25 0-1.73-.47-1.73-1.66v-3.54h-.9v-1h.9v-1.46h1.26zm7.5 7.64h-1.2v-1.04h-.03c-.34.74-.97 1.15-1.9 1.15-1.34 0-2.16-.87-2.16-2.3v-4h1.27v3.74c0 .94.45 1.44 1.32 1.44.9 0 1.46-.63 1.46-1.6v-3.6h1.27v6.17zm4.3 0h-1.36l-2.22-6.16h1.35l1.55 4.93h.02l1.55-4.93h1.32l-2.2 6.16zm9.38 0h-1.32l-1.3-4.62h-.03l-1.28 4.62h-1.3l-1.7-6.16h1.27l1.12 4.85h.02l1.28-4.85h1.22l1.3 4.85h.03l1.12-4.85h1.25l-1.68 6.16zm4.74-2.28l-1.37 2.27h-1.37l2.03-3.08-2-3.1h1.42l1.35 2.23h.02l1.33-2.23h1.4l-2.02 3.05 2 3.12h-1.4l-1.36-2.27h-.03zm3.7 4.53v-1.03a2.68 2.68 0 0 0 .4.02c.6 0 .9-.25 1.1-.88 0-.01.1-.38.1-.38l-2.23-6.17h1.37l1.56 5.02h.02l1.56-5.02h1.34l-2.3 6.5c-.53 1.5-1.14 1.97-2.4 1.97a2.98 2.98 0 0 1-.52-.02zm5.86-3.08l3.3-4.32v-.02h-3.26v-1h4.72v.87l-3.2 4.27v.02h3.24v1h-4.78v-.82zm-147.1 12.67c0-2.68 1.22-4.38 3.24-4.38s3.23 1.7 3.23 4.37c0 2.7-1.2 4.4-3.23 4.4-2.04 0-3.24-1.7-3.24-4.4zm5.15 0c0-2.02-.7-3.28-1.9-3.28s-1.9 1.26-1.9 3.28c0 2.04.7 3.3 1.9 3.3s1.9-1.24 1.9-3.3zm4.64-2.92h-.03l-2.2 1.52v-1.24l2.23-1.58h1.3v8.46h-1.28v-7.16zm6.23-1.46c1.66 0 2.78 1.06 2.78 2.4 0 .97-.46 1.65-1.97 3.16l-1.92 1.93v.03h4.03v1.1h-5.78v-.9l2.98-3c1.1-1.14 1.37-1.57 1.37-2.23 0-.78-.6-1.4-1.48-1.4-.97 0-1.7.66-1.7 1.56h-1.24c-.01-1.54 1.23-2.65 2.93-2.65zm5.9 3.74h1c.97 0 1.62-.57 1.62-1.36s-.5-1.3-1.5-1.3c-.94 0-1.62.5-1.68 1.34h-1.23c.1-1.48 1.26-2.42 2.9-2.42 1.72 0 2.78.94 2.78 2.2 0 1.06-.74 1.77-1.78 2v.03c1.24.1 2.07.87 2.07 2.05 0 1.5-1.3 2.5-3.06 2.5-1.8 0-3.02-1-3.1-2.46h1.26c.06.83.8 1.36 1.85 1.36 1.03 0 1.72-.6 1.73-1.4.01-.97-.7-1.5-1.82-1.5h-1.03v-1zm9.48 3.2h-4.23v-1.14c.73-1.36 1.7-2.88 3.6-5.63h1.9v5.67h1.17v1.1h-1.17v1.68h-1.26v-1.68zm-3-1.08h3.02v-4.67h-.02l-3 4.63v.04zm6.46.4h1.25c.1.84.8 1.4 1.75 1.4 1.07 0 1.8-.74 1.8-1.8a1.72 1.72 0 0 0-1.8-1.79c-.76 0-1.36.32-1.72.94h-1.15l.42-4.88h5.04v1.1h-3.98l-.26 2.68h.03c.38-.57 1.08-.9 1.92-.9 1.62 0 2.78 1.17 2.78 2.8 0 1.73-1.28 2.93-3.1 2.93-1.67.01-2.9-1.02-2.98-2.5zm7.04-1.76c0-2.83 1.25-4.5 3.37-4.5 1.5 0 2.68.88 2.93 2.2h-1.32c-.23-.7-.8-1.1-1.62-1.1-1.34 0-2.08 1.23-2.1 3.33h.02c.34-.77 1.2-1.37 2.34-1.37 1.62 0 2.78 1.18 2.78 2.78 0 1.7-1.3 2.93-3.1 2.93-1.7.02-3.3-1.2-3.3-4.26zm5.1 1.4c0-1.03-.74-1.76-1.78-1.76s-1.8.73-1.8 1.73a1.79 1.79 0 0 0 1.8 1.8c1 0 1.8-.78 1.8-1.77zm6.65-4.6v-.03h-4.46v-1.1h5.75v1.14l-3.67 7.32h-1.38l3.76-7.32zm2.32 5.05c0-1.08.76-1.93 1.88-2.17v-.03c-.96-.27-1.57-1-1.57-1.9 0-1.3 1.22-2.24 2.9-2.24s2.88.94 2.88 2.25c0 .88-.6 1.6-1.56 1.88v.03c1.1.25 1.88 1.1 1.88 2.17 0 1.44-1.33 2.44-3.2 2.44-1.88 0-3.2-1-3.2-2.44zm5.04-.1c0-.87-.76-1.5-1.84-1.5s-1.85.62-1.85 1.5c0 .86.77 1.48 1.85 1.48s1.84-.62 1.84-1.48zm-.26-3.86c0-.78-.66-1.32-1.6-1.32s-1.6.54-1.6 1.32c0 .77.65 1.32 1.6 1.32.93 0 1.6-.55 1.6-1.32zm2.67 4.2h1.32c.22.7.83 1.1 1.65 1.1 1.38 0 2.08-1.27 2.1-3.35h-.02c-.34.83-1.23 1.38-2.32 1.38-1.6 0-2.8-1.16-2.8-2.78 0-1.7 1.3-2.93 3.1-2.93 1.63 0 3.33 1.1 3.33 4.27 0 2.83-1.25 4.5-3.37 4.5-1.53-.01-2.72-.88-2.96-2.2zm4.8-3.67a1.77 1.77 0 0 0-1.79-1.79c-1 0-1.8.78-1.8 1.76 0 1.03.76 1.76 1.8 1.76 1.02 0 1.8-.73 1.8-1.73zm2.54 1.47c0-2.68 1.22-4.38 3.24-4.38s3.23 1.7 3.23 4.37c0 2.7-1.2 4.4-3.23 4.4-2.04 0-3.24-1.7-3.24-4.4zm5.14 0c0-2.02-.7-3.28-1.9-3.28s-1.9 1.26-1.9 3.28c0 2.04.7 3.3 1.9 3.3s1.9-1.24 1.9-3.3z"/><use xlink:href="#B" fill="#484756"/><path d="M647 195.4c.74 0 1.36-.1 1.87-.34.5-.22.9-.52 1.15-.9a2.25 2.25 0 0 0 .38-1.26c0-.54-.14-.98-.43-1.3a2.43 2.43 0 0 0-1.03-.7c-.4-.16-.9-.3-1.54-.45l-1.08-.3c-.26-.1-.48-.2-.65-.36a.78.78 0 0 1-.26-.6c0-.34.15-.62.45-.83s.76-.3 1.37-.3c.38 0 .76.06 1.16.17a5.04 5.04 0 0 1 1.15.49l.5-1.2c-.36-.24-.8-.42-1.28-.55-.5-.13-1-.2-1.5-.2-.74 0-1.36.1-1.87.34-.5.22-.9.53-1.14.9s-.38.8-.38 1.27c0 .55.14 1 .43 1.3a2.4 2.4 0 0 0 1.02.7l1.55.46 1.08.3c.26.1.48.2.65.37s.26.35.26.6c0 .33-.15.6-.46.8s-.77.3-1.4.3c-.5 0-1-.1-1.5-.26s-.92-.4-1.27-.67l-.54 1.2c.35.3.83.55 1.43.73.63.2 1.26.28 1.9.28h0zm11.08-7.2v-1.3h-6.13v8.4h1.56v-3.22h4.06v-1.32h-4.06v-2.56h4.57 0zm8.74 7.2c.7 0 1.32-.12 1.9-.36s1.05-.6 1.45-1.04l-1-.96a2.93 2.93 0 0 1-2.24 1c-.58 0-1.1-.13-1.55-.38a2.7 2.7 0 0 1-1.07-1.05c-.26-.45-.38-.96-.38-1.52 0-.57.13-1.08.38-1.52a2.7 2.7 0 0 1 1.07-1.05c.46-.25.97-.38 1.55-.38a2.93 2.93 0 0 1 2.24.98l1-.95a3.76 3.76 0 0 0-1.44-1.04c-.57-.24-1.2-.36-1.88-.36a4.92 4.92 0 0 0-2.3.56 4.16 4.16 0 0 0-1.6 1.54c-.4.66-.6 1.4-.6 2.22s.2 1.56.58 2.22a4.02 4.02 0 0 0 1.6 1.54c.68.37 1.44.55 2.3.55h0zm8.77 0a4.94 4.94 0 0 0 2.32-.56 4.14 4.14 0 0 0 1.62-1.54c.4-.66.6-1.4.6-2.22s-.2-1.56-.6-2.22a4.14 4.14 0 0 0-1.62-1.54c-.7-.37-1.46-.56-2.32-.56a4.94 4.94 0 0 0-2.32.56c-.7.36-1.23.9-1.62 1.55s-.6 1.4-.6 2.2c0 .82.2 1.55.6 2.2s.93 1.18 1.62 1.55c.7.38 1.47.56 2.32.56h0zm0-1.37a3.05 3.05 0 0 1-1.51-.38 2.7 2.7 0 0 1-1.06-1.06c-.26-.45-.38-.96-.38-1.52s.13-1.07.38-1.52a2.84 2.84 0 0 1 1.06-1.06 3.05 3.05 0 0 1 1.51-.38 3.05 3.05 0 0 1 1.51.38 2.7 2.7 0 0 1 1.06 1.06c.26.45.38.96.38 1.52s-.13 1.07-.38 1.52a2.84 2.84 0 0 1-1.06 1.06c-.44.26-.95.38-1.5.38h0zm15.4 1.25l-.01-8.4h-1.28l-3.28 5.57-3.34-5.57h-1.28v8.4h1.5v-5.5l2.76 4.54h.7l2.76-4.6.01 5.57H691zm5.73-8.4h-3.46v8.4h1.56v-2.42h1.9c.73 0 1.36-.12 1.9-.36s.95-.6 1.24-1.04.43-.98.43-1.6-.14-1.15-.43-1.6-.7-.8-1.24-1.03-1.17-.36-1.9-.36h0zm-.07 4.66h-1.82v-3.34h1.82c.68 0 1.2.14 1.55.43s.53.7.53 1.24-.18.95-.53 1.24c-.35.28-.87.43-1.55.43h0zm11.63 3.74h1.63l-3.8-8.4h-1.54l-3.78 8.4h1.6l.83-1.94h4.2l.84 1.94zm-4.5-3.17l1.57-3.67 1.58 3.67h-3.15zm11.1 3.3c.7 0 1.32-.12 1.9-.36s1.05-.6 1.45-1.04l-1-.96a2.93 2.93 0 0 1-2.24 1c-.58 0-1.1-.13-1.55-.38a2.7 2.7 0 0 1-1.07-1.05c-.26-.45-.38-.96-.38-1.52 0-.57.13-1.08.38-1.52a2.7 2.7 0 0 1 1.07-1.05c.46-.25.97-.38 1.55-.38a2.93 2.93 0 0 1 2.24.98l1-.95a3.76 3.76 0 0 0-1.44-1.04c-.57-.24-1.2-.36-1.88-.36a4.92 4.92 0 0 0-2.3.56 4.16 4.16 0 0 0-1.6 1.54c-.4.66-.6 1.4-.6 2.22s.2 1.56.58 2.22a4.02 4.02 0 0 0 1.6 1.54c.67.37 1.44.55 2.3.55h0zm6.55-.12H723v-7.08h2.78v-1.32h-7.13v1.32h2.78v7.08h.01zm10.56 0h1.56v-7.08h2.78v-1.32h-7.13v1.32h2.78v7.08h.01zm7.1-1.3v-2.32h4.06v-1.28h-4.06v-2.18h4.57v-1.3h-6.13v8.4h6.3V194h-4.74zm13.6 1.3l-3.16-4.34 2.94-4.06h-1.7l-2.12 3-2.15-3h-1.76l2.95 4.12-3.12 4.28h1.78l2.26-3.2 2.28 3.2h1.8zm2.94 0h1.56v-7.08h2.78v-1.32h-7.13v1.32h2.78v7.08h.01zm14.76-8.4v3.47h-4.34v-3.47h-1.56v8.4h1.56v-3.6h4.34v3.6h1.56v-8.4h-1.56zm5.38 7.1v-2.32h4.06v-1.28h-4.06v-2.18h4.57v-1.3h-6.13v8.4h6.3V194h-4.74zm12.78 1.3h1.63l-3.8-8.4h-1.54l-3.78 8.4h1.6l.83-1.94h4.2l.84 1.94zm-4.5-3.17l1.57-3.67 1.58 3.67h-3.15zm13.35-5.23l-2.82 6.48-2.8-6.48h-1.7l3.67 8.4h1.54l3.66-8.4h-1.56zm9.55 0h-1.54l-2.48 4.1-2.46-4.1h-1.67l3.3 5.46v2.94h1.56v-2.96l3.3-5.44zm-163.52 34.07l2.47-8h2.9l2.45 8h-2.47l-.4-1.6h-2.27l-.4 1.6h-2.3zm3.8-6.04l-.7 2.8h1.5l-.68-2.8h-.1zm5.02-1.96h3.77c1.52 0 2.55.72 2.55 1.96 0 1.07-.73 1.62-1.5 1.73v.1c.82.04 1.84.6 1.84 1.92 0 1.47-1.28 2.28-2.77 2.28h-3.9v-8zm2.3 3.17h.8c.7 0 .98-.37.98-.8 0-.47-.34-.8-.94-.8h-.86v1.6zm0 3.27h.9c.8 0 1.15-.4 1.15-.94s-.36-.93-1.1-.93h-.94v1.87zm7.68-2.03c0 1.2.46 1.85 1.26 1.85.76 0 1.17-.6 1.18-1.35h2.2v.32c-.01 1.76-1.42 2.92-3.4 2.92-2.33 0-3.62-1.47-3.62-3.76v-.77c0-2.3 1.28-3.75 3.62-3.75 1.97 0 3.38 1.15 3.4 2.94v.32h-2.2c-.01-.78-.43-1.37-1.18-1.37-.8 0-1.26.66-1.26 1.86v.8zm9.35-4.4c2.57 0 3.66 1.55 3.66 3.96 0 2.44-1.13 4.04-3.66 4.04h-3.38v-8h3.38zm-1.07 6.2h.66c1.22 0 1.7-.73 1.7-2.2s-.48-2.23-1.7-2.23h-.66v4.42zm11.65 1.8h-5.6v-8h5.6v1.8h-3.32v1.4h3.1v1.63h-3.1v1.4h3.32v1.8zm1.5 0v-8h5.6v1.82h-3.28v1.6h2.96v1.76h-2.96v2.83h-2.3zm11.4-5.3c-.06-.5-.47-.97-1.2-.97-.87 0-1.34.65-1.34 1.82v.87c0 .98.3 1.86 1.4 1.86.83 0 1.22-.53 1.22-1.05v-.16H694v-1.55h3.28v1.5c0 1.56-.97 3.1-3.45 3.1-2.63 0-3.68-1.72-3.68-3.7v-.9c0-2.1 1.28-3.65 3.7-3.65 2.3 0 3.4 1.44 3.43 2.84h-2.23zm8.4 5.3v-3.1h-2.5v3.1h-2.3v-8h2.3v3.06h2.5v-3.06h2.3v8h-2.3zm4 0v-8h2.3v8h-2.3zm5.67-2.86c0 .6.32.97.85.97.6 0 .82-.36.82-1v-5.12h2.32v5.15c0 2-1.2 3-3.12 3-2.2 0-3.1-1.5-3.1-3h2.22zm10.2-1.64l2.77 4.5h-2.7l-1.76-3-.6.74v2.25h-2.3v-8h2.3v3.2h.1l2.44-3.2h2.43l-2.7 3.5zm8.93 4.5h-5.33v-8h2.3v6.1h3v1.9zm1.16 0v-8h2.4l1.8 3.84h.08l1.8-3.84h2.4v8h-2.08v-4.6h-.1l-1.45 3.17h-1.25l-1.46-3.17h-.1v4.6h-2.03zm10.2 0v-8h1.76l2.85 4.1h.1v-4.1h2.13v8h-1.74l-2.87-4.17h-.1v4.17h-2.13zm11.9.14c-2.4 0-3.72-1.46-3.72-3.7v-.83c0-2.27 1.33-3.73 3.72-3.73 2.4 0 3.7 1.48 3.7 3.73v.83c0 2.25-1.3 3.7-3.7 3.7zm0-6.42c-.83 0-1.35.64-1.35 1.86v.87c0 1.22.52 1.85 1.35 1.85s1.35-.63 1.35-1.85v-.87c0-1.22-.53-1.86-1.35-1.86zm11.57 1.18c0 1.55-.96 2.85-2.94 2.85h-1.24v2.25h-2.3v-8h3.57c2 0 2.92 1.38 2.92 2.9zm-3.5-1.17h-.67v2.34h.67c.7 0 1.17-.42 1.17-1.17 0-.76-.46-1.17-1.17-1.17zm9.45 6.93l-.4-.63c-.3.07-.62.1-.95.1-2.3 0-3.72-1.5-3.72-3.73v-.8c0-2.24 1.42-3.76 3.72-3.76s3.7 1.52 3.7 3.76v.8c0 1.2-.4 2.17-1.14 2.83l.9 1.42h-2.12zm-1.43-2.17c.04 0 .06-.01.1-.02l-.66-1.05h1.88l.07.1c.1-.28.18-.63.18-1.05v-.87c0-1.23-.6-1.9-1.46-1.9s-1.46.66-1.46 1.9v.87c-.02 1.3.52 2 1.36 2.03zm11.86-3.77a2.51 2.51 0 0 1-1.41 2.26l1.58 3.02h-2.55l-1.3-2.72h-.75v2.72h-2.27v-8h3.6c2.05 0 3.1 1.1 3.1 2.72zm-3.46 1c.6 0 1.08-.32 1.08-1 0-.7-.5-1.04-1.07-1.04h-.97v2.04h.96zm6.6 1.88c.02.42.45.83 1.25.83s1.1-.32 1.1-.7c0-.44-.4-.6-1.14-.74l-1-.2c-1.3-.24-2.24-.9-2.24-2.35 0-1.62 1.32-2.57 3.27-2.57 2.2 0 3.2 1.24 3.22 2.48H789c-.03-.38-.38-.8-1.12-.8-.66 0-.97.32-.97.7 0 .37.4.57 1.05.68l1.06.18c1.14.2 2.24.77 2.24 2.37 0 1.55-1.12 2.67-3.42 2.67-2.53 0-3.35-1.3-3.37-2.54h2.2zm7.35 2.4v-6.13h-2.07v-1.86h6.46v1.86h-2.07v6.13h-2.32zm10-3.06v-4.92h2.32v5.23c0 1.76-1.34 2.9-3.5 2.9s-3.5-1.14-3.5-2.9v-5.23h2.3v4.92c0 .92.5 1.3 1.17 1.3s1.18-.4 1.18-1.3zm3.2-4.94h2.7l1.23 5.6h.1l1.2-5.6h2.53l-2.36 8h-3l-2.4-8zm10.02 8l-2-8h2.4l.83 5h.1l1.2-5h1.8l1.2 5h.1l.8-5h2.4l-2 8h-2.17l-1.22-4.6h-.08l-1.22 4.6h-2.18zm14.34-4.02l2.4 4.02h-2.6l-1.3-2.4h-.1l-1.3 2.4h-2.45l2.3-4.03-2.3-3.97h2.7l1.2 2.5h.1l1.2-2.5h2.58l-2.4 3.98z"/><path d="M836.48 220.96v-2.5l-2.68-5.48h2.52l1.32 3.2h.1l1.33-3.2h2.43l-2.68 5.4v2.58h-2.33zm5.56-1.46l3.33-4.63v-.1h-3.3v-1.8h6.05v1.45l-3.32 4.62v.1h3.46v1.8h-6.23v-1.44zm-198.3 14.28c0-1.17.8-1.92 2.28-1.92h1.38v-.48c0-.38-.26-.6-.67-.6-.42 0-.67.24-.7.57h-2.1c.03-1 .63-2.14 2.8-2.14 1.58 0 2.84.58 2.84 2.25v4.14h-2.1v-.74h-.1c-.17.4-.64.83-1.58.83-1.2-.01-2.07-.7-2.07-1.92zm3.67-.22v-.58h-.7c-.47 0-.77.24-.77.6 0 .4.35.6.7.6.38.01.76-.23.76-.62zm6.02 1.04h-.1v1h-2.24v-8.42h2.24v3.12h.1c.22-.65.88-1.05 1.76-1.05 1.44 0 2.26 1.07 2.26 2.94v.53c0 1.87-.83 2.95-2.26 2.95-.86-.01-1.53-.4-1.76-1.07zm1.7-1.96v-.38c0-.84-.33-1.32-.9-1.32s-.9.5-.9 1.3v.42c0 .8.35 1.3.9 1.3s.9-.5.9-1.33zm3.32-.44c0-1.83 1.2-3 3.05-3 1.74 0 2.84 1.03 2.85 2.58h-2c-.02-.5-.32-.9-.78-.9-.53 0-.87.52-.87 1.33v.42c0 .92.32 1.44.87 1.44.5 0 .76-.3.78-.88h2c-.01 1.6-1.06 2.55-2.87 2.55-1.9 0-3.04-1.15-3.04-3.1v-.44zm10.9-1.9h.1v-3.1h2.24v8.42h-2.24v-1h-.1c-.22.64-.9 1.07-1.78 1.07-1.38 0-2.26-1.05-2.26-2.94v-.54c0-1.9.88-2.93 2.27-2.93.9 0 1.55.4 1.77 1.04zm-1.7 1.97v.4c0 .88.38 1.32.9 1.32s.9-.43.9-1.3v-.42c0-.87-.4-1.3-.9-1.3s-.9.43-.9 1.3zm5.32.4v-.45c0-2.08 1.4-3.04 3.05-3.04 1.8 0 3 1.14 3 3.04v.67h-3.88v.28c0 .62.45.96.95.96s.9-.24.9-.64h2c-.02.93-.82 2.24-2.9 2.24-1.84 0-3.14-.98-3.14-3.06zm3.92-.96h0c0-.6-.33-.98-.86-.98-.52 0-.9.4-.9.97h1.75zm3.95-.63h-1v-1.65h1v-.62c0-1.3.66-1.8 2.4-1.8.37 0 .85.03 1.1.07v1.45a4.75 4.75 0 0 0-.6-.03c-.52 0-.76.15-.76.5v.43h1.35v1.65h-1.3v4.52h-2.22v-4.52zm8.6 4.27v-.85h-.1c-.22.56-.83.98-1.75.98-1.37 0-2.25-1-2.25-2.98v-.27c0-1.97.88-2.98 2.25-2.98.9 0 1.54.42 1.75 1.05h.1v-1h2.23v6.26c0 1.87-1.8 2.34-3.25 2.34-2.07 0-2.95-.96-2.96-2h2.1c.1.35.46.48.9.48.66-.01.97-.38.97-1.05zm-1.8-3.1v.36c0 .88.37 1.32.9 1.32s.9-.45.9-1.3v-.4c0-.86-.37-1.3-.9-1.3-.54 0-.9.43-.9 1.3zm5.55-5.07h2.23v3.2h.1c.15-.47.67-1.15 1.78-1.15 1.23 0 2.05.76 2.05 2.3v4.1h-2.23v-3.53c0-.84-.46-1.03-.83-1.03-.45 0-.88.35-.88 1.1v3.47h-2.23v-8.43zm8.8-.65c.77 0 1.28.4 1.28 1.04s-.5 1.03-1.28 1.03c-.77 0-1.28-.4-1.28-1.03 0-.64.5-1.04 1.28-1.04zm-1.12 2.77h2.23v6.3h-2.23v-6.3zm6.1 6.4c0 1.34-.94 2.1-2.54 2.1a6.52 6.52 0 0 1-.71-.04v-1.52a1.28 1.28 0 0 0 .3.02c.5 0 .74-.2.74-.6v-6.38h2.23v6.42zm-1.1-9.18c.77 0 1.28.4 1.28 1.04s-.5 1.03-1.28 1.03c-.77 0-1.28-.4-1.28-1.03 0-.64.5-1.04 1.28-1.04zm4.92 9.08h-2.24v-8.42h2.24v4.46h.1l1.48-2.34h2.48l-2.06 2.7 2.2 3.6h-2.58l-1.37-2.4-.28.38v2zm5.28-8.42h2.24v8.42h-2.24v-8.42zm3.8 2.12h2.16v1.1h.1c.12-.5.62-1.18 1.73-1.18.95 0 1.52.5 1.7 1.18h.1c.16-.53.8-1.18 1.9-1.18 1.25 0 1.96.84 1.96 2.04v4.35h-2.23V232c0-.8-.4-1-.76-1-.43 0-.77.3-.77 1.02v3.6h-2.12V232c0-.8-.4-1-.76-1-.4 0-.76.25-.76 1v3.6h-2.24v-6.28zm11.12 0h2.16v1.07h.1c.15-.48.7-1.15 1.83-1.15 1.25 0 2.04.76 2.04 2.3v4.1h-2.23v-3.53c0-.84-.47-1.03-.8-1.03-.46 0-.86.35-.86 1.1v3.47h-2.24v-6.3zm13.57 2.93v.38c0 2-1.15 3.12-3.1 3.12-1.96 0-3.12-1.1-3.12-3.1v-.38c0-1.8 1.17-3.06 3.12-3.06s3.1 1.23 3.1 3.05zm-3.94-.03v.5c0 .62.15 1.4.84 1.4s.84-.77.84-1.4v-.5c0-.7-.17-1.4-.84-1.4s-.84.72-.84 1.4zm7.54 2.4h-.1v3.1h-2.24v-8.4h2.24v1h.1c.25-.67.9-1.05 1.76-1.05 1.44 0 2.26 1.07 2.26 2.94v.53c0 1.87-.83 2.95-2.26 2.95-.85-.01-1.5-.4-1.76-1.07zm1.7-1.96v-.38c0-.84-.33-1.32-.9-1.32-.56 0-.9.5-.9 1.3v.42c0 .8.35 1.3.9 1.3.57.01.9-.48.9-1.32zm7.37-2.34h.1v-1h2.24v8.4h-2.24v-3.1h-.1c-.2.64-.9 1.06-1.77 1.06-1.43 0-2.26-1.08-2.26-2.95v-.53c0-1.86.83-2.94 2.26-2.94.9.01 1.57.42 1.77 1.06zm-1.7 1.96v.4c0 .83.34 1.32.9 1.32.57 0 .9-.5.9-1.3v-.42c0-.8-.35-1.3-.9-1.3s-.9.5-.9 1.3zm5.56-2.96h2.24v1h.1c.1-.44.56-1.1 1.4-1.1.32 0 .52.02.64.06v1.88c-.14-.06-.45-.1-.77-.1-.9 0-1.3.5-1.3 1.35v3.2h-2.3v-6.3zm8.06-.12c1.5 0 2.6.62 2.6 1.96h-1.93c-.04-.28-.27-.56-.7-.56-.46 0-.66.22-.66.5 0 .52 1.08.58 1.72.68 1.15.18 1.8.74 1.8 1.8 0 1.32-1 2.17-2.95 2.17-1.88 0-2.82-.86-2.82-1.98h2.16c.03.3.32.57.77.57.48 0 .7-.22.7-.5 0-.47-.8-.5-1.54-.63-1.07-.2-1.94-.74-1.94-1.96.01-1.48 1.3-2.04 2.8-2.04zm4.7-1.28H776v1.55h1.37v1.65H776v2.24c0 .47.28.66.77.66l.6-.02v1.56c-.16.03-.6.08-1.13.08-1.66 0-2.46-.46-2.46-1.8v-2.72h-.96v-1.65h1.02v-1.54zm10.84 7.7h-2.16v-1.05h-.1c-.15.48-.7 1.14-1.82 1.14-1.25 0-2.04-.73-2.04-2.27v-4.12h2.23v3.55c0 .85.47 1 .8 1 .43 0 .86-.33.86-1.04v-3.53h2.23v6.3zm.9-6.3h2.4l.8 4.37h.1l.97-4.37h2.34l-2.1 6.3h-2.6l-1.9-6.3zm15.27 6.3h-2.38l-.93-4h-.08l-.92 4h-2.4l-1.58-6.3h2.27l.65 4.22h.1l.88-4.22h2.1l.9 4.22h.1l.65-4.22h2.23l-1.57 6.3zm5.36-1.84h-.1l-.87 1.84h-2.3l1.78-3.15-1.9-3.15h2.54l.86 1.82h.1l.87-1.82h2.43l-1.97 3.13 1.86 3.16h-2.42l-.88-1.83zm8.68 1.4l-.15.4c-.6 1.6-1.54 2.24-3.25 2.24-.4 0-.9-.04-1.13-.1v-1.5c.1.02.35.04.57.04.7 0 1.03-.2 1.04-.7l.01-.06-2-6.22h2.46l.88 4.55h.1l.94-4.55h2.37l-1.84 5.86zm2.62-.68l2.57-3.42v-.1h-2.47v-1.66h5.14v1.3l-2.36 3.22v.1h2.5v1.68h-5.36v-1.13z"/><use xlink:href="#C"/><path d="M653.6 251.68v-5.95h-.1l-1.77 1.22v-1.98l1.88-1.3h2.3v8h-2.3zm4.17-5.38v-.13c0-1.23.9-2.62 3.02-2.62 1.86 0 3.05 1 3.05 2.3 0 1.24-.84 1.93-1.45 2.55l-1.38 1.4v.1h2.95v1.8h-6.05v-1.42l2.8-2.76c.4-.4.86-.84.86-1.4 0-.4-.35-.8-.84-.8-.5 0-.82.4-.82.83 0 .06.01.12.01.16h-2.16zm9.55.44h.87c.57 0 .93-.34.93-.76-.01-.46-.42-.76-.9-.76-.6 0-.96.42-.97.85h-2.12c.05-1.58 1.23-2.52 3.2-2.53 1.88 0 3.02.87 3.02 2.14 0 1.14-.93 1.65-1.48 1.73v.12a1.79 1.79 0 0 1 1.69 1.88c.01 1.7-1.65 2.4-3.3 2.4-2.14 0-3.2-1.2-3.2-2.54h2.1c.01.5.48.83 1.1.83.63 0 1.05-.35 1.05-.85 0-.46-.36-.86-1.04-.86h-.9v-1.66zm11.28-3.06v4.98h.9v1.77h-.9v1.25h-2.14v-1.25h-3.84v-1.8l2.72-4.95h3.26zm-2.15 4.98v-3.4h-.1l-1.78 3.36v.03h1.9zm6.28.7c.06.4.5.7 1.07.7.65 0 1.1-.45 1.1-1.1 0-.62-.45-1.08-1.08-1.08-.54 0-.84.33-.94.54h-2.06l.3-4.76h5.45v1.78h-3.67l-.12 1.5h.1c.15-.26.68-.7 1.6-.7 1.35 0 2.6.9 2.6 2.64 0 1.8-1.34 2.92-3.28 2.92s-3.13-1.1-3.15-2.46h2.06zm9.87-3.55c-.14-.32-.46-.53-.87-.53-.97 0-1.37 1.24-1.28 2.1h.14c.26-.53.83-.98 1.78-.98 1.3 0 2.53.85 2.53 2.56 0 1.8-1.35 2.87-3.2 2.87-1.2 0-2.22-.45-2.83-1.44-.4-.64-.6-1.5-.6-2.64 0-2.72 1.28-4.18 3.48-4.18 2.04 0 2.96 1.26 3 2.26h-2.14zm-.92 4.27c.6 0 1-.4 1-1.06 0-.63-.4-1.05-1-1.05-.62 0-1 .44-1 1.06 0 .63.4 1.05 1 1.05zm10.44-6.4v1.82l-3.2 6.18h-2.43l3.33-6.12v-.08h-3.77v-1.8h6.08zm1.05 5.78c0-1.3.96-1.83 1.76-1.96v-.1c-.86-.24-1.44-.77-1.44-1.77 0-1.2 1.17-2.1 3.13-2.1s3.13.9 3.13 2.1c0 1-.6 1.53-1.44 1.77v.1c.8.12 1.76.67 1.76 1.96 0 1.38-1.27 2.36-3.45 2.36s-3.45-.98-3.45-2.36zm4.6-.2c0-.63-.5-1.04-1.14-1.04-.63 0-1.13.42-1.13 1.04s.5 1.03 1.13 1.03c.64 0 1.14-.4 1.14-1.03zm-.2-3.3c0-.52-.4-.88-.94-.88-.52 0-.93.36-.93.88s.4.88.93.88.94-.37.94-.88zm5.98 3.6c.06.28.44.53.9.53.88 0 1.36-.9 1.3-2.1h-.13c-.18.47-.78.93-1.75.93-1.28 0-2.6-.8-2.6-2.56s1.35-2.84 3.22-2.84c1.97 0 3.43 1.2 3.43 4.1 0 2.7-1.25 4.17-3.5 4.17-2.04 0-2.95-1.24-3-2.24h2.1zm.9-4.33c-.6 0-1 .42-1 1.06s.4 1.06 1 1.06 1-.43 1-1.07c0-.63-.4-1.05-1-1.05z"/><use xlink:href="#C" x="75.38"/><use xlink:href="#B" y="104.8" fill="#484756"/><path d="M647 300.28c.74 0 1.36-.1 1.87-.34.5-.22.9-.52 1.15-.9a2.25 2.25 0 0 0 .38-1.26c0-.54-.14-.98-.43-1.3a2.43 2.43 0 0 0-1.03-.7c-.4-.16-.9-.3-1.54-.45l-1.08-.3c-.26-.1-.48-.2-.65-.36a.78.78 0 0 1-.26-.6c0-.34.15-.62.45-.83s.76-.3 1.37-.3c.38 0 .76.06 1.16.17a5.04 5.04 0 0 1 1.15.49l.5-1.2c-.36-.24-.8-.42-1.28-.55-.5-.13-1-.2-1.5-.2-.74 0-1.36.1-1.87.34-.5.22-.9.53-1.14.9s-.38.8-.38 1.27c0 .55.14 1 .43 1.3a2.4 2.4 0 0 0 1.02.7l1.55.46 1.08.3c.26.1.48.2.65.37s.26.35.26.6c0 .33-.15.6-.46.8s-.77.3-1.4.3c-.5 0-1-.1-1.5-.26s-.92-.4-1.27-.67l-.54 1.2c.35.3.83.55 1.43.73.63.2 1.26.28 1.9.28h0zm11.1-7.2v-1.3h-6.13v8.4h1.56v-3.22h4.06v-1.32h-4.06v-2.56h4.57v.01zm8.76 7.2c.7 0 1.32-.12 1.9-.36s1.05-.6 1.45-1.04l-1-.96a2.93 2.93 0 0 1-2.24 1c-.58 0-1.1-.13-1.55-.38a2.7 2.7 0 0 1-1.07-1.05c-.26-.45-.38-.96-.38-1.52 0-.57.13-1.08.38-1.52a2.7 2.7 0 0 1 1.07-1.05c.46-.25.97-.38 1.55-.38a2.93 2.93 0 0 1 2.24.98l1-.95a3.76 3.76 0 0 0-1.44-1.04c-.57-.24-1.2-.36-1.88-.36a4.92 4.92 0 0 0-2.3.56 4.16 4.16 0 0 0-1.6 1.54c-.4.66-.6 1.4-.6 2.22s.2 1.56.58 2.22a4.02 4.02 0 0 0 1.6 1.54c.67.37 1.44.55 2.3.55h0zm8.78 0a4.94 4.94 0 0 0 2.32-.56 4.14 4.14 0 0 0 1.62-1.54c.4-.66.6-1.4.6-2.22s-.2-1.56-.6-2.22a4.14 4.14 0 0 0-1.62-1.54c-.7-.37-1.46-.56-2.32-.56a4.94 4.94 0 0 0-2.32.56c-.7.36-1.23.9-1.62 1.55s-.6 1.4-.6 2.2c0 .82.2 1.55.6 2.2s.93 1.18 1.62 1.55c.7.38 1.46.56 2.32.56h0zm0-1.37a3.05 3.05 0 0 1-1.51-.38 2.7 2.7 0 0 1-1.06-1.06c-.26-.45-.38-.96-.38-1.52s.13-1.07.38-1.52a2.84 2.84 0 0 1 1.06-1.06 3.05 3.05 0 0 1 1.51-.38 3.05 3.05 0 0 1 1.51.38 2.7 2.7 0 0 1 1.06 1.06c.26.45.38.96.38 1.52s-.13 1.07-.38 1.52a2.84 2.84 0 0 1-1.06 1.06c-.45.26-.95.38-1.5.38h0zm15.4 1.25l-.01-8.4h-1.28l-3.28 5.57-3.34-5.57h-1.28v8.4h1.5v-5.5l2.76 4.54h.7l2.76-4.6.01 5.57h1.47zm5.74-8.4h-3.46v8.4h1.56v-2.42h1.9c.73 0 1.36-.12 1.9-.36s.95-.6 1.24-1.04.43-.98.43-1.6-.14-1.15-.43-1.6-.7-.8-1.24-1.03c-.53-.24-1.17-.36-1.9-.36h0zm-.07 4.66h-1.82v-3.34h1.82c.68 0 1.2.14 1.55.43s.53.7.53 1.24-.18.95-.53 1.24c-.35.28-.87.43-1.55.43h0zm11.64 3.74H710l-3.8-8.4h-1.54l-3.78 8.4h1.6l.83-1.94h4.2l.84 1.94zm-4.5-3.17l1.57-3.67L707 297h-3.15zm11.12 3.3c.7 0 1.32-.12 1.9-.36s1.05-.6 1.45-1.04l-1-.96a2.93 2.93 0 0 1-2.24 1c-.58 0-1.1-.13-1.55-.38a2.7 2.7 0 0 1-1.07-1.05c-.26-.45-.38-.96-.38-1.52 0-.57.13-1.08.38-1.52a2.7 2.7 0 0 1 1.07-1.05c.46-.25.97-.38 1.55-.38a2.93 2.93 0 0 1 2.24.98l1-.95a3.76 3.76 0 0 0-1.44-1.04c-.57-.24-1.2-.36-1.88-.36a4.92 4.92 0 0 0-2.3.56c-.7.36-1.22.9-1.6 1.54-.4.66-.6 1.4-.6 2.22s.2 1.56.58 2.22a4.02 4.02 0 0 0 1.6 1.54c.68.37 1.45.55 2.3.55h0zm6.57-.12h1.56v-7.08h2.78v-1.32h-7.13v1.32h2.78v7.08h.01zm10.58 0h1.56v-7.08h2.78v-1.32h-7.13v1.32h2.78v7.08h.01zm7.1-1.3v-2.32h4.06v-1.28h-4.06v-2.18h4.57v-1.3h-6.13v8.4h6.3v-1.3h-4.74zm13.6 1.3l-3.16-4.34 2.94-4.06h-1.7l-2.12 3-2.15-3h-1.76l2.95 4.12-3.12 4.28h1.78l2.26-3.2 2.28 3.2h1.8zm2.95 0h1.56v-7.08h2.78v-1.32h-7.13v1.32h2.78v7.08h.01zm8.88 0h5.95v-1.32h-4.4v-7.08h-1.56v8.4zm7.2 0h1.56v-8.4h-1.56v8.4zm9.6-1.68c-.5.3-1.07.43-1.73.43-.58 0-1.1-.13-1.57-.38a2.82 2.82 0 0 1-1.08-1.06 2.95 2.95 0 0 1-.4-1.5c0-.58.13-1.1.4-1.54a2.64 2.64 0 0 1 1.08-1.04c.46-.25 1-.37 1.58-.37a3.17 3.17 0 0 1 2.32.96l.98-.96c-.4-.45-.88-.8-1.45-1.02-.58-.23-1.22-.35-1.92-.35a4.98 4.98 0 0 0-2.33.56c-.7.36-1.23.9-1.63 1.54-.4.66-.6 1.4-.6 2.22s.2 1.56.6 2.22a4.14 4.14 0 0 0 1.62 1.54c.7.37 1.46.56 2.32.56.6 0 1.2-.1 1.78-.28s1.08-.45 1.5-.8v-3.35h-1.48v2.62zm9.46-6.72v3.47h-4.34v-3.47H785v8.4h1.56v-3.6h4.34v3.6h1.56v-8.4h-1.55zm5.54 8.4H798v-7.08h2.78v-1.32h-7.13v1.32h2.78v7.08h.01zM643.6 325.84l2.87-8h.84l2.87 8h-.9l-.85-2.5h-3.08l-.85 2.5h-.9zm3.27-6.93l-1.28 3.73h2.6l-1.28-3.73h-.03zm4.8-1.06h2.9c1.36 0 2.2.76 2.2 1.96 0 .94-.5 1.54-1.28 1.78v.04c1.07.15 1.75.85 1.75 1.98 0 1.38-1.04 2.23-2.77 2.23h-2.8v-8zm.86 3.5h1.38c1.34 0 2-.43 2-1.38 0-.84-.54-1.33-1.47-1.33h-1.9v2.7zm0 3.7h1.54c1.6 0 2.3-.43 2.3-1.42 0-.98-.68-1.52-1.78-1.52h-2.04v2.94zm7.12-2.58c0 1.7.8 2.75 2.26 2.75 1.1 0 1.9-.63 2-1.52h.86c-.1 1.3-1.3 2.3-2.86 2.3-2.02 0-3.1-1.32-3.1-3.53v-1.24c0-2.2 1.12-3.57 3.1-3.57 1.6 0 2.75 1.05 2.85 2.42v.01h-.86c-.1-.92-.9-1.64-2-1.64-1.44 0-2.25 1.1-2.25 2.8v1.22zm9.52-4.62c2.33 0 3.5 1.4 3.5 4s-1.17 4-3.5 4h-2.45v-8h2.45zm-1.6 7.2h1.56c1.8 0 2.65-1.1 2.65-3.2s-.87-3.22-2.65-3.22h-1.56v6.43zm11.7.8h-4.7v-8h4.7v.78h-3.86v2.74h3.64v.78h-3.64v2.9h3.86v.78zm2 0v-8h4.63v.78h-3.78v2.88h3.47v.8h-3.47v3.54h-.85zm11.1-5.88c-.2-.88-.92-1.5-2-1.5-1.42 0-2.26 1.05-2.26 2.8v1.15c0 1.8.84 2.84 2.3 2.84 1.34 0 2.06-.75 2.06-1.85v-.86h-2.17v-.78h3.02v1.64c0 1.55-1.1 2.63-2.9 2.63-2.02 0-3.16-1.34-3.16-3.62v-1.15c0-2.2 1.2-3.57 3.14-3.57 1.56 0 2.65.94 2.85 2.3h-.88zm8.02 5.88v-3.77h-4.22v3.77h-.86v-8h.86v3.45h4.22v-3.45h.86v8h-.86zm3.17 0v-8h.86v8h-.86zm3.2-1.76c.02.63.52 1.14 1.3 1.14.9 0 1.4-.53 1.4-1.54v-5.83h.86v5.74c0 1.54-.85 2.42-2.27 2.42-1.32 0-2.13-.83-2.13-1.92h.84zm8.34-2.8l3.2 4.57h-1.1l-2.75-3.97-1 1.08v2.9h-.86v-8h.86v3.97h.04l3.62-3.97h1.04l-3.05 3.42zm9.27 4.57h-4.63v-8h.86v7.2h3.78v.78zm1.5 0v-8h.83l2.75 6.47h.04l2.74-6.47h.83v8h-.8v-6.12h-.05l-2.37 5.5h-.78l-2.38-5.5h-.04v6.12h-.78zm9.53 0v-8h.86l4.17 6.52h.05v-6.52h.86v8h-.86l-4.18-6.52h-.04v6.52h-.86zm11.08.16c-1.9 0-3.14-1.3-3.14-3.54v-1.24c0-2.24 1.23-3.55 3.14-3.55 1.92 0 3.15 1.3 3.15 3.56v1.24c-.01 2.22-1.24 3.53-3.15 3.53zm0-7.55c-1.3 0-2.3.93-2.3 2.76v1.25c0 1.83.97 2.76 2.3 2.76s2.3-.93 2.3-2.76v-1.25c0-1.83-.98-2.76-2.3-2.76z"/><path d="M756.96 320.3c0 1.46-1 2.44-2.5 2.44h-1.96v3.1h-.86v-8h2.82c1.5 0 2.5.97 2.5 2.44zm-2.55-1.67h-1.93v3.32h1.93c1.05 0 1.66-.6 1.66-1.66s-.6-1.66-1.66-1.66zm9.25 8.14l-.78-1.07c-.42.2-.9.3-1.44.3-1.96 0-3.14-1.36-3.14-3.55v-1.23c0-2.2 1.18-3.55 3.14-3.55s3.15 1.36 3.15 3.55v1.23c0 1.2-.36 2.2-1.04 2.8l1.1 1.52h-1zm-2.22-1.55c.35 0 .66-.06.94-.18l-1.1-1.5h1.02l.76 1.04c.45-.48.7-1.2.7-2.1v-1.24c0-1.7-.87-2.76-2.3-2.76s-2.3 1.06-2.3 2.76v1.24c0 1.7.86 2.75 2.28 2.75zm10.48-5.04c0 1.1-.58 1.9-1.52 2.2l1.66 3.44h-.98l-1.54-3.26h-2.08v3.26h-.86v-8h2.8c1.53.01 2.5.93 2.5 2.34zm-2.66 1.6c1.15 0 1.78-.54 1.78-1.55 0-1.03-.64-1.62-1.73-1.62h-1.84v3.17h1.8zm5 2.08c.15.8.88 1.37 2.04 1.37 1.18 0 1.93-.6 1.93-1.5 0-.72-.44-1.12-1.4-1.37l-1.37-.37c-1.18-.3-1.84-1.04-1.84-2.07 0-1.3 1.12-2.26 2.7-2.26 1.52 0 2.57.84 2.7 2.04h-.88c-.15-.75-.8-1.25-1.83-1.25-1.08 0-1.8.6-1.8 1.45 0 .63.42 1.05 1.2 1.26l1.34.36c1.43.4 2.1 1.03 2.1 2.16 0 1.42-1.15 2.34-2.92 2.34-1.65 0-2.7-.9-2.82-2.15h.88zm8.35 1.98v-7.2h-2.48v-.78h5.83v.78h-2.48v7.2h-.87zm9.78-2.76v-5.23h.86v5.23c0 1.76-1.18 2.93-2.98 2.93s-2.98-1.17-2.98-2.93v-5.23h.86v5.23c0 1.32.8 2.15 2.12 2.15s2.12-.83 2.12-2.15zm2.2-5.23h.98l2.34 6.96h.05l2.35-6.96h.97l-2.92 8h-.84l-2.93-8zm9.46 8l-2.2-8h1l1.58 6.64h.05l1.68-6.64h.9l1.68 6.64h.05l1.58-6.64h1l-2.2 8h-.77l-1.77-6.58h-.04l-1.77 6.58h-.77zm11.5-3.96l2.63 3.96h-1.05l-2.1-3.28h-.05l-2.12 3.28h-.98l2.65-4.03-2.62-3.97h1.04l2.13 3.28h.05l2.12-3.28h1l-2.7 4.04zm5.8 3.96v-3.52l-2.68-4.48h1l2.1 3.63h.05l2.1-3.63h1l-2.7 4.47v3.52h-.86zm4.44-.62l4.45-6.54v-.06h-4.3v-.77h5.36v.62l-4.4 6.53v.06h4.5v.77h-5.6v-.62zM644 338.7c0-1.05.74-1.78 2.14-1.78h1.68v-.66c0-.87-.55-1.26-1.4-1.26s-1.2.35-1.34.8h-.83c.1-1 .92-1.54 2.2-1.54 1.22 0 2.22.55 2.22 2v4.24h-.82v-.86h-.04c-.3.5-.86.96-1.8.96-1.2-.01-2-.76-2-1.9zm3.82-.33v-.74h-1.66c-.9 0-1.28.46-1.28 1.05 0 .77.62 1.14 1.33 1.14.9.01 1.6-.62 1.6-1.45zm3.85 1.17h-.04v.94h-.8v-8.42h.85v3.3h.04c.2-.66.95-1.1 1.85-1.1 1.44 0 2.36 1 2.36 2.6V338c0 1.6-.93 2.6-2.4 2.6-.87 0-1.58-.4-1.85-1.05zm3.4-1.74v-.73c0-1.3-.62-2.06-1.68-2.06s-1.73.75-1.73 1.93v1.08c0 1.05.73 1.82 1.76 1.82 1.04 0 1.65-.76 1.65-2.04zm2.43-.92c0-1.6.97-2.62 2.5-2.62 1.5 0 2.27.95 2.3 1.8h-.84c-.08-.4-.4-1.03-1.44-1.03-1.08 0-1.66.73-1.66 1.9v1.02c0 1.15.63 1.87 1.67 1.87 1 0 1.36-.47 1.48-.95h.84c-.04.82-.74 1.72-2.34 1.72-1.54 0-2.5-1-2.5-2.64v-1.07zm10.5-1.58h.04v-3.23h.85v8.42h-.8v-1h-.04c-.16.6-.9 1.1-1.9 1.1-1.42 0-2.37-1-2.37-2.53v-1.26c0-1.55.98-2.54 2.4-2.54.92-.01 1.6.44 1.82 1.04zm-3.36 1.7v.83c0 1.26.65 2 1.68 2 1.06 0 1.72-.77 1.72-1.9v-1.13c0-1.03-.73-1.8-1.75-1.8-1 0-1.65.72-1.65 2zm6.16.9v-.95c0-1.66 1.03-2.7 2.48-2.7s2.48 1.04 2.48 2.7v.7h-4.1v.32c0 1.07.6 1.88 1.7 1.88.8 0 1.3-.4 1.42-.8h.9c-.1.63-.82 1.56-2.3 1.56-1.62 0-2.56-1.05-2.56-2.7zm4.1-.92v-.1c0-1.14-.65-1.87-1.63-1.87s-1.63.73-1.63 1.87v.1h3.26zm3.2-1.92h-1.05v-.7h1.05v-.64c0-1.15.53-1.7 1.83-1.7.26 0 .54.02.66.04v.72c-.1-.01-.4-.02-.56-.02-.76 0-1.08.23-1.08 1v.58h1.48v.7h-1.48v5.43h-.84v-5.43zm7.9 5.27v-.98h-.05c-.22.5-.84 1-1.76 1-1.36 0-2.44-.96-2.44-2.54v-1c0-1.6 1.1-2.55 2.43-2.55.97 0 1.62.58 1.82 1.06h.04v-.96h.8v5.95c0 1.63-1.04 2.4-2.6 2.4-1.5 0-2.26-.8-2.34-1.64h.88c.08.46.6.9 1.5.9 1.15-.01 1.73-.62 1.73-1.64zm-3.4-3.32v.62c0 1.2.73 2 1.75 2 1.07 0 1.65-.88 1.65-1.8v-.96c0-.96-.62-1.83-1.66-1.83-1.04-.02-1.74.76-1.74 1.98zm6.35-4.94h.84v3.43h.05c.13-.45.64-1.24 1.93-1.24 1.2 0 2.07.7 2.07 2.06v4.18H693v-3.9c0-1-.55-1.57-1.47-1.57-1.15 0-1.73.9-1.73 2.02v3.46h-.84v-8.43zm7.62-.27a.64.64 0 0 1 .66.66c0 .36-.28.64-.66.64a.63.63 0 0 1-.64-.64c0-.38.28-.66.64-.66zm-.42 2.55h.85v6.13h-.84v-6.13zm4.18 6.35c0 1.38-.57 1.93-1.55 1.93-.18 0-.46-.02-.55-.05v-.7a2.13 2.13 0 0 0 .39.03c.64 0 .87-.38.87-1.22v-6.33h.84v6.34zm-.43-8.9a.64.64 0 0 1 .66.66c0 .37-.28.64-.66.64a.63.63 0 0 1-.64-.64c0-.38.28-.66.64-.66zm3.62 8.7h-.84v-8.42h.84v5.14h.04l2.7-2.85h1l-2.48 2.65 2.64 3.5h-1.02l-2.24-2.95-.63.62v2.32zm5.33-8.43h.85v8.42h-.85v-8.42zm3.07 2.28h.84v.98h.05c.14-.43.53-1.08 1.67-1.08.95 0 1.54.52 1.73 1.18h.04c.24-.6.8-1.18 1.88-1.18 1.24 0 2.02.67 2.02 1.92v4.3h-.84v-4.08c0-.84-.48-1.4-1.38-1.4-.85 0-1.46.66-1.46 1.53v3.95h-.85v-4.04c0-.84-.52-1.44-1.4-1.44-.86 0-1.44.66-1.44 1.54v3.94h-.84v-6.14zm10.38 0h.84v1.14h.05c.16-.5.6-1.24 1.9-1.24 1.24 0 2.1.68 2.1 2.04v4.2h-.85v-3.92c0-1-.52-1.56-1.44-1.56-1.18 0-1.75.9-1.75 2.02v3.46h-.84v-6.13zm11.9 2.6v.97c0 1.72-1.12 2.68-2.58 2.68-1.5 0-2.6-.95-2.6-2.68v-.97c0-1.66 1.1-2.68 2.6-2.68 1.45-.01 2.58.96 2.58 2.68zm-4.33.1v.78c0 1.25.67 2.02 1.75 2.02 1.07 0 1.73-.76 1.73-2.02v-.78c0-1.23-.7-2.03-1.73-2.03-1.05 0-1.75.8-1.75 2.03zm7.1 2.5h-.05v2.97h-.84v-8.17h.8v1.02h.05c.23-.63.92-1.1 1.88-1.1 1.43 0 2.36 1 2.36 2.6V338c0 1.62-.96 2.6-2.4 2.6-.9 0-1.53-.43-1.8-1.05zm3.34-1.75v-.73c0-1.3-.63-2.05-1.7-2.05s-1.7.75-1.7 1.9v1.14c0 1.04.7 1.8 1.73 1.8s1.67-.74 1.67-2.05zm6.67-2.44h.05v-1h.8v8.16H747v-3h-.05c-.26.65-.98 1.06-1.85 1.06-1.43 0-2.35-1-2.35-2.58v-1.17c0-1.56.94-2.6 2.37-2.6.88.01 1.58.43 1.87 1.1zM743.6 337v.83c0 1.25.63 2 1.68 2 1.04 0 1.7-.74 1.7-1.9v-1.14c0-1.04-.72-1.8-1.73-1.8-1.03 0-1.66.76-1.66 2zm6.5-2.65h.84v.98h.04c.15-.43.62-1.08 1.73-1.08.13 0 .26.02.38.03v.8c-.1-.02-.3-.03-.48-.03-1.08 0-1.68.66-1.68 1.58v3.86h-.84v-6.13zm6.37-.1c1.34 0 2.14.73 2.14 1.68h-.8c-.04-.45-.45-.97-1.38-.97-.76 0-1.34.35-1.34 1 0 .76.77.9 1.53 1.04 1.15.22 2.14.5 2.14 1.7s-1 1.87-2.37 1.87c-1.36 0-2.25-.63-2.25-1.68h.83c.08.56.47.98 1.45.98 1.02 0 1.5-.46 1.5-1.07 0-.74-.7-.9-1.58-1.07-1.16-.25-2.08-.5-2.08-1.68.01-1.26 1.06-1.82 2.22-1.82zm4.43-1.43h.84v1.54h1.44v.7h-1.44v3.8c0 .76.25.96 1.04.96.15 0 .4-.02.5-.03v.7a6.2 6.2 0 0 1-.71.05c-1.4 0-1.68-.54-1.68-1.72v-3.76h-.98v-.7h.98v-1.55zm8.9 7.68h-.85v-1.05h-.05c-.18.52-.76 1.15-1.86 1.15-1.22 0-2.1-.54-2.1-1.96v-4.27h.85v4.05c0 1.04.63 1.44 1.45 1.44 1 0 1.72-.76 1.72-1.6v-3.88h.85v6.12z"/><path d="M771.2 334.35h.94l1.65 5.2h.04l1.75-5.2h.9l-2.24 6.13h-.85l-2.2-6.13zm12.36 6.15h-.83l-1.48-4.9h-.02l-1.45 4.9h-.84l-1.73-6.13h.96l1.18 5h.04l1.45-5h.8l1.48 5h.04l1.2-5h.85l-1.66 6.13zm5.07-2.4h-.04l-1.57 2.4h-.97l2.1-3.04-2.1-3.1h1.02l1.52 2.38h.04l1.56-2.38h.97l-2.1 3 2.13 3.13h-1.02l-1.54-2.4zm6.64 2.44l-.15.4c-.45 1.2-1.03 1.68-2 1.68a3.19 3.19 0 0 1-.54-.05v-.72a3.13 3.13 0 0 0 .44.04c.67 0 1.04-.3 1.25-1l.1-.3-2.3-6.23h.94l1.76 5.26h.04l1.75-5.26h.9l-2.2 6.2zm3.38-.66l3.4-4.72v-.06h-3.42v-.75h4.48v.6l-3.4 4.73v.05h3.42v.75h-4.47v-.6zM644.1 352.42c0-2.44 1.03-4.03 2.8-4.03 1.75 0 2.78 1.58 2.78 4.03v.3c0 2.43-1.03 4-2.78 4s-2.78-1.57-2.78-4v-.3zm.85.3c0 2.03.77 3.25 1.94 3.25s1.93-1.22 1.93-3.25v-.3c0-2.03-.76-3.26-1.93-3.26s-1.94 1.24-1.94 3.26v.3zm8.37 3.84v-7.03h-.05l-1.88 1.35v-.9l1.92-1.4h.84v8h-.83zm3.33-5.84v-.03c0-1.2.86-2.3 2.46-2.3 1.48 0 2.42.94 2.42 2.17 0 .98-.6 1.66-1.32 2.5l-2.3 2.67v.06h3.8v.77h-5.03V356l3.05-3.53c.46-.52.94-1.1.94-1.87 0-.87-.64-1.45-1.56-1.45-1.02 0-1.6.73-1.6 1.54v.03h-.84zm8.15 1.34h.8c.93 0 1.6-.63 1.6-1.5-.01-.83-.64-1.4-1.58-1.4-.93 0-1.5.57-1.56 1.2h-.83c.03-.94.82-1.94 2.38-1.95 1.48-.01 2.43.9 2.46 2.03s-.88 1.84-1.5 1.94v.05c.7.08 1.76.64 1.8 1.95.02 1.36-1.1 2.37-2.76 2.37-1.53 0-2.5-.87-2.56-1.98h.8c.07.68.77 1.22 1.78 1.22 1.14.01 1.86-.68 1.86-1.6-.01-.94-.77-1.55-1.82-1.55h-.86v-.76zm9.6-3.5v5.5h1.07v.77h-1.07v1.73h-.82v-1.73h-3.9v-.78l3.43-5.48h1.28zm-.82 5.5v-4.72h-.05L670.6 354v.05h3zm4.12.7c.15.83.94 1.2 1.77 1.2.9 0 1.82-.7 1.82-1.97 0-1.12-.85-1.83-1.83-1.83-.9 0-1.45.53-1.68.94h-.73l.36-4.55h4.37v.77h-3.63l-.23 2.8h.05c.17-.26.73-.72 1.65-.72 1.42 0 2.55.98 2.55 2.57 0 1.6-1.1 2.74-2.76 2.74-1.45 0-2.46-.86-2.54-1.97h.83zm10.4-4.62c-.1-.4-.56-.97-1.54-.97-1.24 0-2.05 1.2-2.06 3.53v.04h.05c.22-.62.9-1.3 2.1-1.3 1.27 0 2.5.9 2.5 2.55 0 1.72-1.15 2.72-2.68 2.72-.88 0-1.74-.35-2.26-1.27-.33-.57-.54-1.4-.54-2.54 0-3 1.14-4.5 2.94-4.5 1.44 0 2.3.9 2.38 1.73h-.9zm-1.63 5.82c1 0 1.83-.63 1.83-1.92 0-1.24-.88-1.85-1.82-1.85-1.07 0-1.84.77-1.84 1.84 0 1.2.84 1.93 1.83 1.93zm9.08-7.4v.8l-3.3 7.2h-.9l3.33-7.17v-.06h-4.1v-.77h4.97zm1.4 5.83c0-1.27.97-1.88 1.63-2.03v-.05c-.54-.17-1.32-.72-1.32-1.8 0-1.24 1.04-2.13 2.46-2.13 1.4 0 2.45.9 2.45 2.13 0 1.08-.8 1.63-1.32 1.8v.05c.67.15 1.63.77 1.63 2.02 0 1.4-1.18 2.34-2.78 2.34s-2.75-.94-2.75-2.33zm4.68-.03c0-.95-.82-1.62-1.92-1.62s-1.93.67-1.93 1.62c0 .96.83 1.62 1.93 1.62s1.92-.66 1.92-1.62zm-.3-3.8c0-.85-.67-1.42-1.6-1.42s-1.62.57-1.62 1.42.7 1.44 1.62 1.44 1.6-.6 1.6-1.44zm3.72 4.53c.12.42.62.87 1.45.87 1.55 0 2.14-1.5 2.1-3.53h-.05c-.26.7-.9 1.32-2.04 1.32-1.4 0-2.54-1-2.54-2.68s1.18-2.68 2.7-2.68c1.34 0 2.77.77 2.77 3.94 0 2.92-.94 4.4-2.96 4.4-1.37 0-2.2-.75-2.3-1.63h.86zm1.56-5.94c-.98 0-1.8.73-1.8 1.94 0 1.28.86 1.9 1.8 1.9.93 0 1.8-.6 1.8-1.84.01-1.26-.78-2-1.82-2zm4.5 3.26c0-2.44 1.03-4.03 2.8-4.03 1.75 0 2.78 1.58 2.78 4.03v.3c0 2.43-1.03 4-2.78 4s-2.78-1.57-2.78-4v-.3zm.84.3c0 2.03.77 3.25 1.94 3.25s1.93-1.22 1.93-3.25v-.3c0-2.03-.76-3.26-1.93-3.26s-1.94 1.24-1.94 3.26v.3z"/><path d="M243.47 391.96h-.5V0h.5v391.96zm359.72-8.9h-.5V0h.5v383.07z" fill="#cbcaca"/><path d="M4.65 26.56h8.93v-1.98H7V13.96H4.65v12.6zm16.63.18c1.28 0 2.44-.28 3.47-.84a6.28 6.28 0 0 0 2.43-2.31c.6-.98.88-2.1.88-3.33s-.3-2.35-.88-3.33a6.21 6.21 0 0 0-2.43-2.31c-1.03-.56-2.2-.84-3.47-.84s-2.44.28-3.47.84-1.84 1.33-2.43 2.32-.88 2.1-.88 3.32.3 2.33.88 3.32 1.4 1.76 2.43 2.32 2.2.84 3.47.84h0zm0-2.05c-.84 0-1.6-.2-2.27-.57a4 4 0 0 1-1.58-1.58 4.6 4.6 0 0 1-.58-2.28 4.6 4.6 0 0 1 .58-2.28 4 4 0 0 1 1.58-1.58c.67-.38 1.43-.57 2.27-.57s1.6.2 2.27.57a4 4 0 0 1 1.58 1.58 4.6 4.6 0 0 1 .58 2.28 4.6 4.6 0 0 1-.58 2.28 4 4 0 0 1-1.58 1.58c-.67.38-1.43.57-2.27.57h0zm17.84-.65c-.74.43-1.6.65-2.6.65-.88 0-1.66-.2-2.35-.58a4.17 4.17 0 0 1-1.62-1.58c-.4-.67-.58-1.43-.58-2.27 0-.86.2-1.63.58-2.3s.93-1.2 1.62-1.57c.7-.37 1.48-.56 2.37-.56 1.36 0 2.5.48 3.47 1.44l1.48-1.44a5.67 5.67 0 0 0-2.18-1.53c-.86-.35-1.82-.52-2.88-.52-1.3 0-2.46.28-3.5.84a6.24 6.24 0 0 0-2.44 2.31c-.6.98-.88 2.1-.88 3.33s.3 2.35.88 3.33a6.28 6.28 0 0 0 2.43 2.31c1.03.56 2.2.84 3.47.84a8.85 8.85 0 0 0 2.66-.41c.86-.28 1.62-.67 2.27-1.2V20.1h-2.2v3.92zm11.18 2.7c1.28 0 2.44-.28 3.47-.84a6.28 6.28 0 0 0 2.43-2.31c.6-.98.88-2.1.88-3.33s-.3-2.35-.88-3.33a6.21 6.21 0 0 0-2.43-2.31c-1.03-.56-2.2-.84-3.47-.84s-2.44.28-3.47.84-1.84 1.33-2.43 2.32-.88 2.1-.88 3.32.3 2.33.88 3.32 1.4 1.76 2.43 2.32 2.2.84 3.47.84h0zm0-2.05c-.84 0-1.6-.2-2.27-.57a4 4 0 0 1-1.58-1.58 4.6 4.6 0 0 1-.58-2.28 4.6 4.6 0 0 1 .58-2.28 4 4 0 0 1 1.58-1.58c.67-.38 1.43-.57 2.27-.57s1.6.2 2.27.57a4 4 0 0 1 1.58 1.58 4.6 4.6 0 0 1 .58 2.28 4.6 4.6 0 0 1-.58 2.28 4 4 0 0 1-1.58 1.58c-.67.38-1.43.57-2.27.57h0z"/><path d="M41.72 93.02H.25c-.14 0-.25-.1-.25-.25v-21.8c0-.14.1-.25.25-.25h41.47c.14 0 .25.1.25.25v21.8c0 .14-.12.25-.25.25zM.5 92.52h40.97V71.2H.5v21.3z" fill="#484756"/><path d="M14.8 78.5v-1.3H8.67v8.4h1.56v-3.22h4.06v-1.32h-4.06V78.5h4.58zm5.1 7.2c1.16 0 2.06-.33 2.7-.98s.97-1.6.97-2.8V77.2h-1.54v4.68c0 1.65-.7 2.47-2.12 2.47s-2.14-.82-2.14-2.47V77.2H16.2v4.74c0 1.22.32 2.15.97 2.8.64.66 1.55.98 2.7.98h0zm11.8-8.5v5.7l-4.63-5.7h-1.3v8.4h1.55v-5.7l4.63 5.7h1.3v-8.4H31.7z"/><path d="M54.8 257.86H.25c-.14 0-.25-.1-.25-.25v-21.8c0-.14.1-.25.25-.25H54.8c.14 0 .25.1.25.25v21.8c0 .14-.1.25-.25.25zm-54.3-.5h54.05v-21.3H.5v21.3z" fill="#484756"/><path d="M11.95 250.6c.74 0 1.36-.1 1.87-.34.5-.22.9-.52 1.15-.9a2.25 2.25 0 0 0 .38-1.26c0-.54-.14-.98-.43-1.3a2.43 2.43 0 0 0-1.03-.7c-.4-.16-.9-.3-1.54-.45l-1.08-.3c-.26-.1-.48-.2-.65-.36a.78.78 0 0 1-.26-.6c0-.34.15-.62.45-.83s.76-.3 1.37-.3c.38 0 .76.06 1.16.17a5.04 5.04 0 0 1 1.15.49l.5-1.2c-.36-.24-.8-.42-1.28-.55-.5-.13-1-.2-1.5-.2-.74 0-1.36.1-1.87.34-.5.22-.9.53-1.14.9s-.38.8-.38 1.27c0 .55.14 1 .43 1.3a2.4 2.4 0 0 0 1.02.7l1.55.46 1.08.3c.26.1.48.2.65.37s.26.35.26.6c0 .33-.15.6-.46.8s-.77.3-1.4.3c-.5 0-1-.1-1.5-.26s-.92-.4-1.27-.67l-.54 1.2c.35.3.83.55 1.43.73.63.2 1.26.28 1.9.28h0zm8.88 0a4.94 4.94 0 0 0 2.32-.56 4.14 4.14 0 0 0 1.62-1.54c.4-.66.6-1.4.6-2.22s-.2-1.56-.6-2.22a4.14 4.14 0 0 0-1.62-1.54c-.7-.37-1.46-.56-2.32-.56a4.94 4.94 0 0 0-2.32.56c-.7.36-1.23.9-1.62 1.55s-.6 1.4-.6 2.2c0 .82.2 1.55.6 2.2s.93 1.18 1.62 1.55c.7.38 1.46.56 2.32.56h0zm0-1.37a3.05 3.05 0 0 1-1.51-.38 2.7 2.7 0 0 1-1.06-1.06c-.26-.45-.38-.96-.38-1.52s.13-1.07.38-1.52a2.84 2.84 0 0 1 1.06-1.06 3.05 3.05 0 0 1 1.51-.38 3.05 3.05 0 0 1 1.51.38 2.7 2.7 0 0 1 1.06 1.06c.26.45.38.96.38 1.52s-.13 1.07-.38 1.52a2.84 2.84 0 0 1-1.06 1.06c-.45.26-.95.38-1.5.38h0zm6.2 1.25h5.95v-1.32h-4.4v-7.08h-1.56v8.4zm7.2 0h1.56v-8.4h-1.56v8.4zm3.87 0h3.67c.9 0 1.7-.17 2.4-.52s1.24-.84 1.62-1.48.58-1.37.58-2.2-.2-1.57-.58-2.2c-.38-.64-.92-1.13-1.62-1.48s-1.5-.52-2.4-.52H38.1v8.4zm1.56-1.32v-5.76h2.04c.62 0 1.16.12 1.63.35.47.24.83.57 1.08 1s.38.94.38 1.52-.13 1.08-.38 1.52-.6.77-1.08 1-1 .35-1.63.35h-2.04z"/><path d="M105.38 264.05l-.33.01v-.01h-15v106.92h15v-.01l.33.01c20.42 0 36.42-23.48 36.42-53.46 0-29.97-16-53.46-36.42-53.46zm0 91.24c-.1 0-.22-.01-.33-.02v-75.53c.1 0 .22-.02.33-.02 9.67 0 20.45 15.52 20.45 37.78 0 22.28-10.78 37.8-20.45 37.8zm-53.2-30.4c-11.64 0-21.1 9.47-21.1 21.1s9.47 21.1 21.1 21.1 21.1-9.47 21.1-21.1-9.47-21.1-21.1-21.1zm0 30.4a9.29 9.29 0 0 1-9.28-9.28 9.29 9.29 0 0 1 9.28-9.28 9.29 9.29 0 0 1 9.28 9.28 9.29 9.29 0 0 1-9.28 9.28zM33.66 293h-17.2v-13.95H45.5v-15H1.46v106.92h15V308h17.2v-15zm130.7-28.95h-15v106.92h45v-15h-30v-91.92zm-100.88 14.9c-11.64 0-21.1 9.47-21.1 21.1s9.47 21.1 21.1 21.1 21.1-9.47 21.1-21.1-9.47-21.1-21.1-21.1zm0 30.4a9.29 9.29 0 0 1-9.28-9.28 9.29 9.29 0 0 1 9.28-9.28 9.29 9.29 0 0 1 9.28 9.28 9.29 9.29 0 0 1-9.28 9.28zm143.17-30.3v-15H172.3v84.1h34.37v-15H187.3V308h8.48v-15h-8.48v-13.94h19.36z" fill="#ee4523"/><path d="M33.66 127h-17.2v-13.94H45.5v-15H1.46v106.92h15V142h17.2z" fill="#f29137"/><path d="M206.65 113.06v-15H172.3v84.12h34.36v-15H187.3V142h8.48v-15h-8.48v-13.94z" fill="#f1c719"/><path d="M164.36 98.06h-15v106.92h45v-15h-30z" fill="#ee4523"/><path d="M46.2 182.32a9.58 9.58 0 0 1-4.63-1.26l-2.87-1.75c-2.04-1.4-2.66-4-2.16-6.06.47-1.93 1.54-3.54 2.73-5.08l1.18-1.4c.34-.47.72-.53 1.24-.34 1.48.55 2.85 1.3 4.06 2.3 3.1 2.58 5.08 5.8 5.67 9.84.08.5-.01.92-.3 1.33-1.2 1.7-2.8 2.54-4.92 2.43z" fill="#f05f23"/><path d="M55.9 159.34c1.55-.01 3.05.35 4.48.95 3.08 1.3 5.5 3.44 7.55 6.04.8 1.02 1.46 2.13 2.13 3.23.3.5.24.84-.1 1.27a20.63 20.63 0 0 1-2.87 2.89c-2.58 2.14-5.4 3.88-8.5 5.15-.44.18-.78.27-1.16-.18-.27-.33-.26-.57-.12-.9 1.03-2.53 1.4-5.17 1.35-7.88-.08-3.6-.82-7-2.67-10.13-.05-.1-.17-.22-.07-.43z" fill="#f06023"/><path d="M26.98 189.65c-.4-.5-.6-1.04-.5-1.67.47.07.94.22 1.4.2 2.3-.07 4.5.45 6.72.95 2.83.64 5.64.75 8.46.06 1.7-.42 3.45-.7 5-1.6h1.23c-.33 4.02-.02 7.97 1.64 11.68-.2.3-.47.2-.7.2-1.77.05-3.53.06-5.3-.05-3.55-.22-6.84-1.25-9.8-3.24.1-.05.2-.08.26-.16.7-1.1 1.8-1.8 2.8-2.6.78-.62 1.58-1.2 2.38-1.8-.64-.2-1.25-.1-1.82-.2l-7.15-1.32c-1.54-.24-3.06-.58-4.63-.45z" fill="#ea3f25"/><path d="M42.57 164.62c2.94-2.63 6.1-4.58 9.98-5.16.55-.08.9.07 1.2.5 1.35 1.9 2.12 4.02 2.55 6.28.6 3.12.54 6.22-.3 9.3a15.71 15.71 0 0 1-.38 1.16c-.26.7-.27.7-1 .54-.07-.01-.14-.05-.2-.04-1.2.26-1.36-.57-1.65-1.45-1.63-5-4.8-8.7-9.65-10.85-.15-.07-.3-.16-.56-.28zm23.9 29.84c-2.26 2.33-4.72 4.24-7.84 5.2-1.57.5-3.15.4-4.75.38-.4 0-.5-.3-.64-.56-.97-1.74-1.54-3.62-1.86-5.58-.32-1.92-.33-3.86-.2-5.8.06-.87.08-.87.88-1.1.75-.23 1.5-.47 2.17-.86.35-.2.54-.13.77.17.56.73 1.2 1.38 1.84 2.05 2.4 2.55 5.3 4.33 8.54 5.6.32.12.63.25.94.38.02-.02.04.02.14.13z" fill="#f06023"/><path d="M48.06 187.6c-1.56.9-3.3 1.18-5 1.6-2.82.7-5.63.58-8.46-.06-2.2-.5-4.42-1-6.72-.95-.47.01-.93-.13-1.4-.2-.12-1.2.3-2.27.86-3.3.54-.95 1.22-1.8 1.88-2.65.62-.8 1.48-.88 2.4-.7 1 .2 1.93.62 2.85 1.05l6.83 3.14c2.17 1 4.4 1.8 6.77 2.07z" fill="#f58620"/><path d="M71.3 172.36c.16.02.2.12.23.2 1.44 3.52 1.87 7.14.97 10.87-.2.83-.2.83-1.05.9-4.3.26-8.45-.5-12.53-1.8-.47-.15-.42-.34-.4-.73.05-.66.35-.95.96-1.2 4.42-1.9 8.4-4.45 11.6-8.08.05-.07.15-.1.2-.15zm.3 14.04c-.18.8-.5 1.42-.82 2.06a25.6 25.6 0 0 1-2.26 3.63c-.34.46-.63.64-1.26.44-4.23-1.35-7.74-3.76-10.56-7.17-.15-.18-.5-.38-.2-.68.27-.27.48-.7 1-.6.3.07.6.15.88.25 4.16 1.38 8.43 2.12 12.82 2 .1 0 .2.03.4.06z" fill="#f06023"/><path d="M26.98 189.65c1.57-.13 3.1.2 4.62.46l7.15 1.32c.58.1 1.2.01 1.82.2l-2.38 1.8c-1 .8-2.1 1.5-2.8 2.6-.05.08-.17.1-.26.16-1.62-.75-6.56-4.47-7.67-5.78-.2-.23-.4-.45-.47-.76z" fill="#f05f23"/><path d="M62.1 153.6c-2.4-.04-4.74-.3-7.03-1.06-.68-.22-1.34-.53-1.92-.93-1.4-.98-2.92-1.76-4.5-2.4-1.27-.52-2.42-1.28-3.44-2.18-1.48-1.3-2.3-3-2.28-5 .04-3 .4-6 1.5-8.82.53-1.36 1.27-2.62 2-3.88l2.65-5.02c.32-.73.4-1.55.38-2.36-.03-2.63 1-4.83 2.82-6.65 1.08-1.07 2.35-1.9 3.82-2.4 1.57-.52 3.1-.44 4.62.2.46.2.95.37 1.32.68.72.62 1.54.63 2.42.7 1.88.14 3.53-.52 5.18-1.26l2.44-1.15c2.44-1.14 4.8-.84 7.17.22.73.33 1.46.7 2.05 1.27 1.7 1.65 2.3 3.63 1.98 6-.2 1.56-.7 3-1.27 4.44-.46 1.16-.55 2.36-.43 3.57.06.6.42 1.16.82 1.64l1.37 1.64c1.08 1.42 1.34 3.08 1.1 4.77-.3 2.1-.8 4.2-1.47 6.22-.52 1.6-1.2 3.12-2.28 4.44-.72.87-1.6 1.56-2.56 2.12-1.8 1.05-3.73 1.84-5.74 2.4-1.5.4-2.95.95-4.4 1.5-1.45.55-2.92 1.05-4.45 1.3-.62.1-1.25.01-1.88.01zm.33-8.56c4.4.04 8.05-3.46 8.05-7.83 0-4.54-3.53-7.9-7.8-8-4.37-.1-7.92 3.44-8.04 7.74-.1 4.2 3.3 8.02 7.8 8.1z" fill="#fdf1e2"/><path d="M62.43 145.04c-4.5-.07-7.9-3.88-7.78-8.1.1-4.3 3.67-7.84 8.04-7.74 4.27.1 7.8 3.46 7.8 8-.01 4.37-3.65 7.87-8.06 7.83zm2.88-12.4c-.88-.02-1.72.94-1.4 1.8.35.93.57 1.88.75 2.85.14.8.93 1.27 1.66 1.17.74-.1 1.37-.75 1.34-1.55-.04-1.24-.28-2.45-1-3.52-.3-.46-.75-.7-1.37-.76z" fill="#f9b633"/><path d="M65.3 132.64c.62.05 1.06.3 1.37.77.7 1.07.95 2.28 1 3.52.03.8-.6 1.44-1.34 1.55-.73.1-1.52-.38-1.66-1.17-.17-.98-.4-1.92-.75-2.85-.33-.87.52-1.84 1.4-1.82z" fill="#fdf1e2"/><path d="M91.3 202.78c-.48-.57-.44-1.27-.44-1.98l.02-100.66c.04-1.1.3-1.44 1.33-1.62 1.54-.26 3.1-.44 4.66-.46 9.26-.1 17.25 3.37 24.16 9.85 3.36 3.15 6.12 6.84 8.44 10.93l1.53 2.67c.02.13.08.23.2.3.01.2.06.38.26.44l-.01-.02c-.1.55.2.97.4 1.4 1.07 2.3 1.88 4.7 2.58 7.12a61.71 61.71 0 0 1 1.65 7.42c.44 2.82.8 5.64.8 8.5v7.1c-.18.23-.16.5-.18.77-.1 1.04-.15 2.08-.3 3.12-.7 5.23-1.96 10.3-3.85 15.18-.12.32-.28.63-.28 1-.3.53-.83.96-.66 1.7-.4.16-.45.6-.62.9l-1.7 3.37c-3.18 5.82-7.2 10.86-12.26 14.93-.5.4-1.06.67-1.44 1.2-.1.1-.22.2-.33.32-.4.01-.66.3-.96.5-3.44 2.3-7.1 4-11.04 5.03-1.9.5-3.85.7-5.78 1l-3.48-.03c-.32 0-.66.06-.96-.12-.34-.2-.65-.25-1 .03-.2.2-.5.1-.75.12zm24.56-21h-2.2c-.33 0-.64.05-.94.22-.27.16-.46.36-.46.72s.18.56.46.72c.54.33 1.16.3 1.7.18 1.18-.3 2.37-.14 3.56-.2.3-.01.6.01.86-.07.45-.13.73-.67.58-1.1-.14-.42-.42-.8-.9-.64-.93.3-1.87.07-2.65.16zm-3.3-51.43l4.93-.4c.44-.04.73-.33.8-.8.1-.53-.25-.75-.63-.94-.24-.1-.5-.18-.74-.1-.85.3-1.72.15-2.58.2-.64.05-1.3.14-1.92.28-.47.1-.72.66-.64 1.2.08.5.37.64.77.55zm2.92-9.24c.38 0 .75-.03.85-.52.1-.5.02-.94-.5-1.15-.2-.08-.4-.18-.6-.24-1.33-.38-2.65-.77-3.95-1.26-.42-.16-.88-.24-1.16.27-.2.38.01.9.5 1.28.14.1.32.18.5.24.8.3 1.56.65 2.37.84.68.16 1.3.52 2 .54zm-11.12 37.46c.02-.36-.1-.65-.53-.82-1.05-.43-2.04-1-3-1.64-.37-.25-.76-.46-1.17-.6-.65-.24-1.06.18-.97.9.05.4.28.62.56.82.3.2.62.4.94.6.9.58 1.87 1.03 2.78 1.6.83.52 1.4.14 1.4-.85zm-2.98 32.57c-.1.03-.16.04-.22.07-1.43.73-2.86 1.47-4.2 2.4-.45.3-.54.8-.33 1.2.25.48.6.57 1.2.27 1.17-.6 2.22-1.44 3.47-1.86.32-.1.52-.4.74-.66.17-.2.43-.4.24-.7-.22-.34-.46-.7-.9-.72zm28.3-31.47v-1.9c-.01-.34-.13-.6-.47-.7-.3-.08-.56.03-.78.27-.3.3-.23.7-.27 1.08-.17 1.44-.03 2.92-.56 4.3-.17.44.14.9.6 1.04.63.2 1.2-.22 1.24-1.05.04-1.08.4-2.12.23-3.06zm-21.6-8.9c.01-.27-.07-.53-.13-.8-.24-1.2-.6-2.38-.95-3.56-.2-.74-.6-1.07-1.1-.9-.58.2-.77.62-.57 1.4.18.67.36 1.34.62 1.98.3.72.32 1.5.57 2.22.2.54.6.64 1.06.54.46-.1.52-.48.5-.9zm14.4-4.55c.08-.85-.44-1.3-1.1-1.03-.18.07-.3.22-.4.37-.84 1.23-1.27 2.68-1.87 4.03-.2.43.18.6.4.86.2.23.4.27.68.13a1.35 1.35 0 0 0 .66-.73c.45-1.1.84-2.2 1.48-3.2.1-.14.12-.34.15-.43zm-3.66 10.37c-.4-.1-.8.2-1.22.4-.66.3-1.35.55-2 .88a.91.91 0 0 0-.45 1.16c.18.45.55.62 1.06.45.34-.1.68-.26 1-.42.6-.3 1.18-.56 1.85-.6s1.03-.4 1.02-.94c-.01-.56-.44-.9-1.27-.9zm-24.5-50.87c.43-.02.96.08 1-.36.08-.84.73-1.1 1.16-1.57.27-.3.57-.58.76-.98.2-.4.17-.73-.15-1.03-.35-.33-.76-.4-1.07-.03-.7.83-1.6 1.44-2.34 2.23-.3.32-.54.66-.35 1.12.2.47.57.67.98.62zm21.63 60.36c.01-.38-.07-.72-.46-.8-.4-.1-.8-.08-1.04.38-.58 1.08-.93 2.27-1.3 3.43-.2.65.13 1.36.58 1.45.6.1.8-.42 1-.86l.1-.2.96-2.7c.07-.22.17-.43.16-.67zM104.4 108.9v-.58c-.03-.7-.36-1.2-.78-1.2-.37.02-.9.62-.95 1.14-.03.27-.01.54-.01.8-.01.58.04 1.15-.16 1.72-.1.28-.07.62-.05.92.05.6.43 1 .9.96.5-.05.83-.38.82-.9-.02-1.05.1-2.08.24-2.88zm16.12 66.5c.06 0 .1 0 .13-.01 1.08-.5 2.18-1 3.24-1.55.4-.2.5-.68.26-1.1-.2-.4-.5-.6-1-.42-.97.4-1.95.78-2.87 1.32a1.81 1.81 0 0 0-.34.28c-.26.27-.34.6-.2.95.14.35.46.45.76.54zm-12.12-35.64c.5-.01 1.02.04 1.52-.02.5-.07.9-.44.96-.97.07-.5-.3-.82-.73-.84a34.47 34.47 0 0 0-3.05 0c-.42.02-.94.67-.94 1.02 0 .42.44.78 1.03.8.4.02.8 0 1.2 0zm-5.53 36.3c.01-.24-.02-.55-.32-.72-.33-.17-.63-.1-.9.16a3.54 3.54 0 0 0-.55.71c-.4.64-.82 1.26-1.23 1.9-.38.57-.34 1.04.13 1.4.4.3.85.22 1.2-.3.45-.65.87-1.32 1.28-2 .18-.3.36-.65.37-1.14zm23.76-40.8c0-.02-.1-.17-.24-.32-.4-.44-.96-.45-1.45.01-.54.5-1 1.1-1.43 1.73-.3.43-.48.77-.04 1.2.4.37.8.36 1.15-.03a103.14 103.14 0 0 0 1.76-1.88c.14-.14.24-.3.25-.7zm.03-11.87c-.02.6 0 .98.36 1.14.38.17.74.03.95-.33a14.03 14.03 0 0 0 1.26-2.69c.14-.42-.1-.75-.43-.98-.35-.25-.63-.05-.85.23-.66.83-1.07 1.8-1.3 2.63zm-28.53 6.15c-.1.54.2 1.02.68 1.1.42.07.86-.22.96-.73.15-.75.24-1.5.36-2.27.1-.6-.12-1.03-.6-1.15-.45-.1-.9.2-1.03.78l-.38 2.27zm-1.37 35.2v1.04c0 .53.24.9.72 1 .4.08.76-.4.8-1.03.04-.65-.01-1.3.15-1.94.14-.56-.32-1.15-.77-1.17-.46-.02-.84.36-.9.95-.03.38-.01.77-.01 1.15zm23.55-29.18c-.17.04-.4.05-.37.37a.27.27 0 0 0 .28.27c.22 0 .42-.1.44-.38 0-.2-.17-.2-.35-.26z" fill="#eab020"/><path d="M131.63 175.54c-.17-.74.37-1.16.66-1.7.9-.7 1.42-1.74 2.04-2.68.48-.72 1.06-1.23 1.83-1.57 2.16-.95 2.67-3.1 1.24-5.08-.2-.28-.4-.54-.46-.9-.3-1.85-.5-3.68.27-5.47.4-.9.4-1.88.36-2.85-.03-.6-.16-1.15-.67-1.5v-7.1c0-2.86-.36-5.68-.8-8.5-.4-2.52-.95-5-1.65-7.42s-1.5-4.83-2.58-7.12c-.2-.44-.5-.86-.4-1.4 1 1.23 1.73 2.68 2.5 4.08 3.75 6.94 6.2 14.38 7.2 22.33 1.4 10.87.14 21.35-4.54 31.18-5.74 12.05-14.76 19.88-27.05 23.3-.35.1-.7.14-1.07.22.2-.98.66-1.76 1.56-2.2.2-.1.36-.27.5-.44.28-.35.6-.4 1.04-.42 2.24-.13 2.97-1.08 3.4-2.76.1-.4.18-.82.27-1.24.1-.1.22-.2.33-.32.62.07 1.22-.05 1.83-.15 6.7-1.14 11.18-5.15 13.5-11.9.93-2.7 1.14-5.52.7-8.37z" fill="#efc41b"/><path d="M115.28 196.28l-.27 1.24c-.42 1.67-1.15 2.62-3.4 2.76-.43.03-.76.07-1.04.42-.14.17-.3.35-.5.44-.9.44-1.34 1.22-1.56 2.2-.7.66-1.45.8-2.4.65-1.32-.2-2.66.13-3.97.37-.2.04-.4.2-.56.33-.85.7-1.82.9-2.85.9-.87.01-1.55-.3-1.9-1.23.01-.6.27-1.1.63-1.56l5.78-1c3.94-1.04 7.6-2.74 11.04-5.03.32-.2.6-.48.98-.5z" fill="#41803d"/><path d="M97.5 202.8c-.36.45-.62.95-.63 1.56-1.55.01-3.1-.27-4.62-.47-.7-.1-.8-.28-.92-1.13.25-.01.54.1.74-.08.34-.3.65-.25 1-.03.3.18.64.12.96.12l3.48.03zm34-80.54c-.2-.07-.26-.24-.26-.44a.54.54 0 0 1 .26.44zm-.28-.46a.41.41 0 0 1-.2-.3c.12.05.2.15.2.3z" fill="#efc41b"/><path d="M131.63 175.54c.45 2.85.24 5.67-.7 8.36-2.32 6.76-6.82 10.77-13.5 11.9-.6.1-1.2.22-1.83.15.38-.54.96-.82 1.44-1.2 5.05-4.07 9.07-9.1 12.26-14.93.6-1.1 1.13-2.25 1.7-3.37.18-.32.23-.75.62-.9z" fill="#e94325"/><path d="M136.9 153.78c.5.36.64.9.67 1.5.05.97.04 1.95-.36 2.85-.78 1.8-.6 3.62-.27 5.47.06.36.26.62.46.9 1.43 2 .92 4.13-1.24 5.08-.77.34-1.35.85-1.83 1.57-.62.94-1.14 1.98-2.04 2.68 0-.36.16-.67.28-1 1.9-4.9 3.15-9.96 3.85-15.18.14-1.03.2-2.08.3-3.12.03-.26.01-.54.2-.77z" fill="#3d7f3c"/><path d="M115.87 181.78c.78-.1 1.72.14 2.64-.16.47-.16.74.22.9.64a.91.91 0 0 1-.58 1.09c-.27.08-.57.05-.86.07-1.18.06-2.37-.1-3.56.2-.54.13-1.15.15-1.7-.18-.27-.17-.46-.36-.46-.72s.2-.56.46-.72c.3-.17.6-.22.94-.22h2.22zm-3.3-51.43c-.4.1-.7-.06-.76-.54-.08-.53.18-1.08.64-1.2.63-.14 1.27-.23 1.92-.28.86-.07 1.73.1 2.58-.2.23-.1.5-.02.74.1.4.18.72.4.63.94-.08.47-.37.76-.8.8l-4.94.4zm2.92-9.25c-.7-.02-1.32-.38-2-.54-.8-.2-1.6-.55-2.37-.84-.17-.06-.34-.13-.5-.24-.5-.37-.7-.9-.5-1.28.28-.5.74-.43 1.16-.27 1.3.5 2.62.88 3.95 1.26.2.06.4.15.6.24.5.2.6.65.5 1.15s-.48.52-.86.52zm-11.12 37.47c.02 1-.56 1.37-1.4.85l-2.78-1.6-.94-.6c-.28-.2-.5-.43-.56-.82-.1-.74.32-1.15.97-.9.4.15.8.37 1.17.6a17.48 17.48 0 0 0 3 1.64c.44.16.57.46.54.82zm-2.98 32.57c.44.02.68.38.9.72.2.3-.07.5-.24.7-.22.25-.43.55-.74.66-1.25.43-2.3 1.27-3.47 1.86-.6.3-.95.2-1.2-.27-.22-.4-.12-.9.33-1.2 1.34-.92 2.77-1.66 4.2-2.4.06-.03.13-.04.22-.07zm28.3-31.47c.2.93-.2 1.98-.25 3.06-.04.83-.6 1.24-1.24 1.05-.46-.14-.77-.6-.6-1.04.53-1.4.4-2.87.56-4.3.05-.38-.02-.77.27-1.08.23-.23.47-.35.78-.27.33.1.46.35.47.7v1.9zm-21.6-8.9c.01.4-.05.8-.5.9-.47.1-.87 0-1.06-.54-.25-.72-.28-1.5-.57-2.22-.25-.64-.44-1.3-.62-1.98-.2-.78-.02-1.2.57-1.4.5-.17.9.16 1.1.9l.95 3.56c.06.26.15.5.13.8zm14.38-4.56c-.03.08-.06.28-.16.44-.64 1-1.04 2.1-1.48 3.2a1.35 1.35 0 0 1-.66.73c-.28.14-.5.1-.68-.13-.2-.25-.58-.43-.4-.86.6-1.35 1.03-2.8 1.87-4.03.1-.16.22-.3.4-.37.66-.26 1.18.17 1.1 1.02zm-3.66 10.38c.83.01 1.26.35 1.27.92.01.52-.35.9-1.02.94s-1.26.3-1.85.6c-.32.16-.66.3-1 .42-.5.17-.88 0-1.06-.45-.17-.43-.01-.93.45-1.16.65-.33 1.33-.6 2-.88.42-.2.83-.5 1.22-.4zm-24.5-50.88c-.4.05-.8-.14-1-.62-.2-.46.05-.8.35-1.12.74-.8 1.63-1.4 2.34-2.23.3-.36.72-.3 1.07.03.32.3.34.63.15 1.03s-.5.67-.76.98c-.42.5-1.07.73-1.16 1.57-.04.44-.57.34-1 .36zm21.63 60.37c.01.24-.08.45-.16.67l-.96 2.7c-.03.07-.05.14-.1.2-.22.44-.4.97-1 .86-.46-.1-.8-.8-.58-1.45.37-1.17.72-2.35 1.3-3.43.25-.46.64-.48 1.04-.38s.47.43.46.8zM104.4 108.9c-.13.8-.26 1.83-.24 2.88.01.52-.32.86-.82.9-.46.04-.84-.36-.9-.96-.02-.3-.05-.64.05-.92.2-.57.15-1.15.16-1.72l.01-.8c.06-.52.58-1.12.95-1.14.43-.02.75.47.78 1.2v.58zm16.1 66.5c-.3-.1-.62-.2-.77-.54s-.07-.68.2-.95c.1-.1.2-.2.34-.28.92-.54 1.9-.92 2.87-1.32.48-.2.78.03 1 .42.24.43.13.9-.26 1.1l-3.24 1.55c-.03.01-.07.01-.12.01zm-12.1-35.63h-1.2c-.6-.03-1.03-.4-1.03-.8 0-.35.52-1 .94-1.02h3.05c.42.02.8.35.73.84-.07.53-.46.9-.96.97s-1.02.01-1.52.01zm-5.54 36.3c0 .5-.2.83-.38 1.15l-1.28 2c-.36.52-.8.6-1.2.3-.46-.35-.5-.82-.13-1.4l1.23-1.9a4.21 4.21 0 0 1 .55-.71c.26-.27.57-.34.9-.16.3.16.33.47.33.7zm23.76-40.8c-.01.4-.1.55-.24.7l-1.76 1.88c-.37.38-.76.4-1.15.03-.44-.42-.27-.76.04-1.2.44-.6.9-1.22 1.43-1.73.5-.46 1.06-.44 1.45-.01l.23.33zm.03-11.87c.22-.8.62-1.8 1.3-2.63.22-.28.5-.48.85-.23.32.23.57.56.43.98-.32.95-.75 1.84-1.26 2.7-.2.36-.57.5-.95.33-.37-.16-.38-.53-.37-1.14zm-28.53 6.15l.4-2.26c.12-.57.57-.9 1.03-.78.47.12.68.55.6 1.15l-.36 2.27c-.1.5-.54.8-.96.73-.47-.1-.78-.57-.7-1.1zm-1.37 35.2l.01-1.15c.05-.6.43-.97.9-.95.45.02.92.6.77 1.17-.17.65-.1 1.3-.15 1.94-.04.62-.4 1.1-.8 1.03-.48-.1-.72-.47-.72-1v-1.04z" fill="#efc419"/><path d="M120.3 135.58c.18.05.35.06.34.26-.01.28-.2.37-.44.38a.27.27 0 0 1-.28-.27c-.01-.32.2-.33.38-.37z" fill="#eec56b"/><defs ><path id="B" d="M816.68 202.8h-180.6c-.14 0-.25-.1-.25-.25v-21.8c0-.14.1-.25.25-.25h180.6c.14 0 .25.1.25.25v21.8c0 .14-.1.25-.25.25zm-180.36-.5h180.1v-21.3h-180.1v21.3z"/><path id="C" d="M643.9 247.46c0-2.37 1.3-3.9 3.33-3.9s3.3 1.5 3.3 3.9v.43c0 2.36-1.32 3.93-3.34 3.93s-3.28-1.52-3.28-3.93v-.43zm2.32.42c0 1.35.36 2.12.98 2.12s1-.77 1-2.12v-.42c0-1.34-.36-2.1-1-2.1s-.98.75-.98 2.1v.42z"/></defs></svg>