<?xml version="1.0" encoding="utf-8"?>
<!-- Generator: Adobe Illustrator 24.1.0, SVG Export Plug-In . SVG Version: 6.00 Build 0)  -->
<svg version="1.1" id="Layer_1" xmlns="http://www.w3.org/2000/svg" xmlns:xlink="http://www.w3.org/1999/xlink" x="0px" y="0px"
	 viewBox="0 0 206.65 357.19" style="enable-background:new 0 0 206.65 357.19;" xml:space="preserve">
<style type="text/css">
	.st0{fill:none;}
	.st1{fill:#484756;}
	.st2{fill:#EE4523;}
	.st3{fill:#F29137;}
	.st4{fill:#F1C719;}
	.st5{fill:#F05F23;}
	.st6{fill:#F06023;}
	.st7{fill:#EA3F25;}
	.st8{fill:#F58620;}
	.st9{fill:#FDF1E2;}
	.st10{fill:#F9B633;}
	.st11{fill:#EAB020;}
	.st12{fill:#EFC41B;}
	.st13{fill:#41803D;}
	.st14{fill:#E94325;}
	.st15{fill:#3D7F3C;}
	.st16{fill:#EFC419;}
	.st17{fill:#EEC56B;}
</style>
<g>
	<g>
		<polyline class="st0" points="206.39,356.22 0.23,356.22 0.23,248.7 206.39,248.7 206.39,356.22 		"/>
	</g>
	<g>
		<polyline class="st0" points="206.15,192.78 0.23,192.78 0.23,84.54 206.15,84.54 206.15,192.78 		"/>
	</g>
	<g>
		<path d="M4.65,12.78h8.93V10.8H6.99V0.18H4.65V12.78L4.65,12.78z M21.28,12.96c1.28,0,2.44-0.28,3.47-0.84
			c1.03-0.56,1.84-1.33,2.43-2.31c0.59-0.98,0.88-2.09,0.88-3.33c0-1.24-0.29-2.35-0.88-3.33c-0.59-0.98-1.4-1.76-2.43-2.31
			C23.72,0.28,22.56,0,21.28,0C20,0,18.84,0.28,17.81,0.84c-1.03,0.56-1.84,1.33-2.43,2.32c-0.59,0.99-0.88,2.1-0.88,3.32
			s0.29,2.33,0.88,3.32c0.59,0.99,1.4,1.76,2.43,2.32C18.84,12.68,20,12.96,21.28,12.96L21.28,12.96L21.28,12.96z M21.28,10.91
			c-0.84,0-1.6-0.19-2.27-0.57c-0.67-0.38-1.2-0.91-1.58-1.58c-0.38-0.68-0.58-1.44-0.58-2.28c0-0.84,0.19-1.6,0.58-2.28
			c0.38-0.68,0.91-1.21,1.58-1.58c0.67-0.38,1.43-0.57,2.27-0.57c0.84,0,1.6,0.19,2.27,0.57c0.67,0.38,1.2,0.91,1.58,1.58
			c0.38,0.68,0.58,1.44,0.58,2.28c0,0.84-0.19,1.6-0.58,2.28c-0.38,0.68-0.91,1.21-1.58,1.58C22.88,10.72,22.12,10.91,21.28,10.91
			L21.28,10.91L21.28,10.91z M39.12,10.26c-0.74,0.43-1.61,0.65-2.59,0.65c-0.88,0-1.66-0.19-2.35-0.58
			c-0.69-0.38-1.23-0.91-1.62-1.58c-0.39-0.67-0.58-1.43-0.58-2.27c0-0.86,0.19-1.63,0.58-2.3c0.39-0.67,0.93-1.19,1.62-1.57
			c0.69-0.37,1.48-0.56,2.37-0.56c1.36,0,2.51,0.48,3.47,1.44l1.48-1.44c-0.59-0.67-1.31-1.18-2.18-1.53C38.45,0.17,37.49,0,36.44,0
			c-1.3,0-2.46,0.28-3.5,0.84c-1.04,0.56-1.85,1.33-2.44,2.31c-0.59,0.98-0.88,2.09-0.88,3.33c0,1.24,0.29,2.35,0.88,3.33
			c0.59,0.98,1.4,1.75,2.43,2.31c1.03,0.56,2.19,0.84,3.47,0.84c0.91,0,1.8-0.14,2.66-0.41c0.86-0.28,1.62-0.67,2.27-1.19V6.34
			h-2.21V10.26L39.12,10.26z"/>
	</g>
	<g>
		<path d="M50.29,12.96c1.28,0,2.44-0.28,3.47-0.84c1.03-0.56,1.84-1.33,2.43-2.31c0.59-0.98,0.88-2.09,0.88-3.33
			c0-1.24-0.29-2.35-0.88-3.33c-0.59-0.98-1.4-1.76-2.43-2.31C52.73,0.28,51.57,0,50.29,0c-1.28,0-2.44,0.28-3.47,0.84
			c-1.03,0.56-1.84,1.33-2.43,2.32c-0.59,0.99-0.88,2.1-0.88,3.32s0.29,2.33,0.88,3.32c0.59,0.99,1.4,1.76,2.43,2.32
			C47.85,12.68,49.01,12.96,50.29,12.96L50.29,12.96L50.29,12.96z M50.29,10.91c-0.84,0-1.6-0.19-2.27-0.57
			c-0.67-0.38-1.2-0.91-1.58-1.58c-0.38-0.68-0.58-1.44-0.58-2.28c0-0.84,0.19-1.6,0.58-2.28c0.38-0.68,0.91-1.21,1.58-1.58
			c0.67-0.38,1.43-0.57,2.27-0.57c0.84,0,1.6,0.19,2.27,0.57c0.67,0.38,1.2,0.91,1.58,1.58c0.38,0.68,0.58,1.44,0.58,2.28
			c0,0.84-0.19,1.6-0.58,2.28c-0.38,0.68-0.91,1.21-1.58,1.58C51.89,10.72,51.13,10.91,50.29,10.91L50.29,10.91L50.29,10.91z"/>
	</g>
	<g>
		<path class="st1" d="M41.72,79.24H0.25C0.11,79.24,0,79.13,0,78.99V57.18c0-0.14,0.11-0.25,0.25-0.25h41.47
			c0.14,0,0.25,0.11,0.25,0.25v21.81C41.97,79.13,41.85,79.24,41.72,79.24z M0.5,78.74h40.97V57.43H0.5V78.74z"/>
	</g>
	<g>
		<path d="M14.81,64.73v-1.31H8.67v8.4h1.56V68.6h4.06v-1.32h-4.06v-2.56H14.81L14.81,64.73z M19.91,71.94
			c1.16,0,2.06-0.33,2.71-0.98c0.64-0.65,0.97-1.59,0.97-2.8v-4.74h-1.54v4.68c0,1.65-0.71,2.47-2.12,2.47
			c-1.42,0-2.14-0.82-2.14-2.47v-4.68h-1.56v4.74c0,1.22,0.32,2.15,0.97,2.8C17.84,71.61,18.75,71.94,19.91,71.94L19.91,71.94
			L19.91,71.94z"/>
	</g>
	<g>
		<polygon points="31.71,63.42 31.71,69.11 27.08,63.42 25.79,63.42 25.79,71.82 27.34,71.82 27.34,66.13 31.97,71.82 33.26,71.82 
			33.26,63.42 31.71,63.42 		"/>
	</g>
	<g>
		<path class="st1" d="M54.8,244.07H0.25c-0.14,0-0.25-0.11-0.25-0.25v-21.81c0-0.14,0.11-0.25,0.25-0.25H54.8
			c0.14,0,0.25,0.11,0.25,0.25v21.81C55.05,243.96,54.94,244.07,54.8,244.07z M0.5,243.57h54.05v-21.31H0.5V243.57z"/>
	</g>
	<g>
		<path d="M11.95,236.82c0.74,0,1.36-0.11,1.87-0.34c0.51-0.22,0.89-0.52,1.15-0.9c0.25-0.38,0.38-0.8,0.38-1.26
			c0-0.54-0.14-0.98-0.43-1.3c-0.28-0.32-0.63-0.56-1.03-0.71c-0.4-0.16-0.91-0.31-1.54-0.45c-0.46-0.11-0.82-0.21-1.08-0.3
			c-0.26-0.09-0.48-0.21-0.65-0.36c-0.17-0.15-0.26-0.35-0.26-0.59c0-0.34,0.15-0.62,0.45-0.83c0.3-0.21,0.76-0.31,1.37-0.31
			c0.38,0,0.76,0.06,1.16,0.17c0.4,0.11,0.78,0.28,1.15,0.49l0.49-1.21c-0.36-0.24-0.79-0.42-1.28-0.55c-0.5-0.13-1-0.19-1.51-0.19
			c-0.74,0-1.36,0.11-1.87,0.34c-0.51,0.22-0.89,0.53-1.14,0.91c-0.25,0.38-0.38,0.8-0.38,1.27c0,0.55,0.14,0.99,0.43,1.31
			c0.28,0.32,0.62,0.56,1.02,0.71c0.4,0.15,0.91,0.3,1.55,0.46c0.46,0.11,0.82,0.21,1.08,0.3c0.26,0.09,0.48,0.21,0.65,0.37
			c0.17,0.16,0.26,0.35,0.26,0.59c0,0.33-0.15,0.59-0.46,0.79c-0.31,0.2-0.77,0.3-1.4,0.3c-0.5,0-1.01-0.09-1.51-0.26
			c-0.5-0.17-0.92-0.39-1.27-0.67l-0.54,1.21c0.35,0.3,0.83,0.55,1.43,0.73C10.67,236.73,11.3,236.82,11.95,236.82L11.95,236.82
			L11.95,236.82z M20.83,236.82c0.86,0,1.63-0.19,2.32-0.56c0.69-0.37,1.23-0.89,1.62-1.54c0.39-0.66,0.59-1.4,0.59-2.22
			c0-0.82-0.2-1.56-0.59-2.22c-0.39-0.66-0.93-1.17-1.62-1.54c-0.69-0.37-1.46-0.56-2.32-0.56c-0.86,0-1.63,0.19-2.32,0.56
			c-0.69,0.37-1.23,0.89-1.62,1.55c-0.39,0.66-0.59,1.4-0.59,2.21c0,0.82,0.2,1.55,0.59,2.21c0.39,0.66,0.93,1.18,1.62,1.55
			C19.2,236.63,19.97,236.82,20.83,236.82L20.83,236.82L20.83,236.82z M20.83,235.45c-0.56,0-1.06-0.13-1.51-0.38
			c-0.45-0.25-0.8-0.6-1.06-1.06c-0.26-0.45-0.38-0.96-0.38-1.52c0-0.56,0.13-1.07,0.38-1.52c0.26-0.45,0.61-0.8,1.06-1.06
			c0.45-0.25,0.95-0.38,1.51-0.38c0.56,0,1.06,0.13,1.51,0.38c0.45,0.25,0.8,0.6,1.06,1.06c0.26,0.45,0.38,0.96,0.38,1.52
			c0,0.56-0.13,1.07-0.38,1.52c-0.26,0.45-0.61,0.8-1.06,1.06C21.89,235.33,21.39,235.45,20.83,235.45L20.83,235.45L20.83,235.45z
			 M27.02,236.7h5.95v-1.32h-4.39v-7.08h-1.56V236.7L27.02,236.7z M34.22,236.7h1.56v-8.4h-1.56V236.7L34.22,236.7z"/>
	</g>
	<g>
		<path d="M38.09,236.7h3.67c0.9,0,1.69-0.17,2.39-0.52c0.7-0.35,1.24-0.84,1.62-1.48c0.38-0.64,0.58-1.37,0.58-2.2
			c0-0.83-0.19-1.57-0.58-2.2c-0.38-0.64-0.92-1.13-1.62-1.48c-0.7-0.35-1.49-0.52-2.39-0.52h-3.67V236.7L38.09,236.7z
			 M39.65,235.38v-5.76h2.04c0.62,0,1.16,0.12,1.63,0.35c0.47,0.24,0.83,0.57,1.08,1.01c0.25,0.44,0.38,0.94,0.38,1.52
			c0,0.58-0.13,1.08-0.38,1.52c-0.25,0.44-0.61,0.77-1.08,1.01c-0.47,0.24-1.01,0.35-1.63,0.35H39.65L39.65,235.38z"/>
	</g>
	<path class="st2" d="M105.38,250.27c-0.11,0-0.22,0-0.33,0.01v-0.01h-15v106.92h15v-0.01c0.11,0,0.22,0.01,0.33,0.01
		c20.42,0,36.42-23.48,36.42-53.46C141.8,273.75,125.8,250.27,105.38,250.27z M105.38,341.51c-0.11,0-0.22-0.01-0.33-0.02v-75.53
		c0.11,0,0.22-0.02,0.33-0.02c9.67,0,20.45,15.52,20.45,37.78C125.83,326,115.05,341.51,105.38,341.51z M52.19,311.11
		c-11.64,0-21.11,9.47-21.11,21.11c0,11.64,9.47,21.11,21.11,21.11s21.11-9.47,21.11-21.11C73.3,320.58,63.83,311.11,52.19,311.11z
		 M52.19,341.5c-5.12,0-9.28-4.16-9.28-9.28c0-5.12,4.16-9.28,9.28-9.28c5.12,0,9.28,4.16,9.28,9.28
		C61.47,337.33,57.31,341.5,52.19,341.5z M33.66,279.22h-17.2v-13.95h29.04v-15H1.46v106.92h15v-62.98h17.2V279.22z M164.36,250.27
		h-15v106.92h45v-15h-30V250.27z M63.48,265.18c-11.64,0-21.11,9.47-21.11,21.11c0,11.64,9.47,21.11,21.11,21.11
		s21.11-9.47,21.11-21.11C84.59,274.65,75.12,265.18,63.48,265.18z M63.48,295.57c-5.12,0-9.28-4.16-9.28-9.28
		c0-5.12,4.16-9.28,9.28-9.28c5.12,0,9.28,4.16,9.28,9.28C72.76,291.41,68.6,295.57,63.48,295.57z M206.65,265.27v-15h-34.36v84.11
		h15v0h19.37v-15h-19.37v-25.18h8.48v-15h-8.48v-13.94H206.65z"/>
	<g>
		<polygon class="st3" points="33.66,113.22 16.46,113.22 16.46,99.27 45.49,99.27 45.49,84.28 1.46,84.28 1.46,191.2 16.46,191.2 
			16.46,128.22 33.66,128.22 		"/>
		<polygon class="st4" points="206.65,99.28 206.65,84.28 172.29,84.28 172.29,168.39 187.29,168.39 187.29,168.39 206.65,168.39 
			206.65,153.4 187.29,153.4 187.29,128.22 195.77,128.22 195.77,113.22 187.29,113.22 187.29,99.28 		"/>
		<polygon class="st2" points="164.36,84.28 149.36,84.28 149.36,191.2 194.35,191.2 194.35,176.2 164.36,176.2 		"/>
		<g>
			<path class="st5" d="M46.21,168.53c-1.62-0.02-3.17-0.44-4.63-1.26c-0.98-0.55-1.94-1.12-2.87-1.75
				c-2.04-1.41-2.66-3.99-2.16-6.06c0.47-1.93,1.54-3.54,2.73-5.08c0.37-0.48,0.82-0.92,1.18-1.41c0.34-0.47,0.72-0.53,1.24-0.34
				c1.48,0.55,2.85,1.29,4.06,2.3c3.09,2.58,5.08,5.81,5.67,9.84c0.08,0.51-0.01,0.92-0.3,1.33
				C49.94,167.81,48.34,168.65,46.21,168.53z"/>
			<path class="st6" d="M55.9,145.55c1.55-0.01,3.05,0.35,4.48,0.95c3.08,1.29,5.5,3.44,7.55,6.04c0.8,1.02,1.46,2.13,2.13,3.23
				c0.3,0.49,0.24,0.84-0.11,1.27c-0.86,1.06-1.82,2.02-2.87,2.89c-2.58,2.14-5.4,3.88-8.51,5.15c-0.44,0.18-0.78,0.27-1.16-0.18
				c-0.27-0.33-0.26-0.57-0.12-0.91c1.03-2.53,1.41-5.17,1.35-7.88c-0.08-3.59-0.82-7.01-2.67-10.13
				C55.92,145.87,55.8,145.77,55.9,145.55z"/>
			<path class="st7" d="M26.98,175.86c-0.4-0.49-0.59-1.04-0.51-1.67c0.47,0.07,0.94,0.22,1.4,0.2c2.3-0.07,4.51,0.45,6.72,0.95
				c2.83,0.64,5.64,0.75,8.46,0.06c1.7-0.42,3.45-0.71,5.01-1.6c0.37,0,0.74,0,1.23,0c-0.33,4.02-0.02,7.97,1.64,11.68
				c-0.21,0.3-0.47,0.2-0.69,0.2c-1.77,0.05-3.53,0.06-5.3-0.05c-3.55-0.22-6.84-1.25-9.81-3.24c0.09-0.05,0.21-0.08,0.26-0.16
				c0.71-1.11,1.81-1.8,2.81-2.6c0.78-0.62,1.58-1.2,2.38-1.8c-0.64-0.19-1.25-0.1-1.82-0.2c-2.39-0.41-4.76-0.93-7.15-1.32
				C30.07,176.08,28.55,175.74,26.98,175.86z"/>
			<path class="st6" d="M42.57,150.83c2.94-2.63,6.1-4.58,9.98-5.16c0.55-0.08,0.89,0.07,1.2,0.51c1.35,1.89,2.12,4.02,2.55,6.28
				c0.59,3.12,0.54,6.22-0.29,9.29c-0.11,0.39-0.24,0.78-0.38,1.16c-0.26,0.7-0.27,0.69-1,0.54c-0.07-0.01-0.14-0.05-0.2-0.04
				c-1.21,0.26-1.36-0.57-1.65-1.45c-1.63-5.01-4.8-8.69-9.65-10.85C42.98,151.04,42.83,150.96,42.57,150.83z"/>
			<path class="st6" d="M66.46,180.67c-2.26,2.33-4.72,4.24-7.84,5.21c-1.57,0.49-3.15,0.39-4.75,0.38c-0.4,0-0.49-0.31-0.64-0.56
				c-0.97-1.74-1.54-3.62-1.86-5.58c-0.32-1.92-0.33-3.86-0.19-5.8c0.06-0.87,0.08-0.87,0.88-1.11c0.75-0.23,1.49-0.47,2.17-0.86
				c0.35-0.2,0.54-0.13,0.77,0.17c0.56,0.73,1.21,1.38,1.84,2.05c2.4,2.55,5.3,4.33,8.54,5.59c0.32,0.12,0.63,0.25,0.94,0.38
				C66.34,180.53,66.36,180.57,66.46,180.67z"/>
			<path class="st8" d="M48.06,173.8c-1.56,0.89-3.31,1.18-5.01,1.6c-2.82,0.69-5.63,0.58-8.46-0.06c-2.21-0.5-4.42-1.01-6.72-0.95
				c-0.47,0.01-0.93-0.13-1.4-0.2c-0.12-1.2,0.29-2.27,0.86-3.29c0.54-0.95,1.22-1.8,1.88-2.65c0.62-0.8,1.48-0.88,2.4-0.71
				c1.01,0.19,1.93,0.62,2.85,1.05c2.27,1.05,4.55,2.09,6.83,3.14C43.46,172.73,45.68,173.54,48.06,173.8z"/>
			<path class="st6" d="M71.31,158.58c0.16,0.02,0.19,0.12,0.23,0.21c1.44,3.52,1.87,7.14,0.97,10.87c-0.2,0.83-0.2,0.83-1.05,0.89
				c-4.3,0.26-8.45-0.51-12.53-1.8c-0.47-0.15-0.42-0.34-0.39-0.73c0.05-0.66,0.35-0.95,0.96-1.21c4.42-1.89,8.39-4.45,11.61-8.08
				C71.16,158.66,71.26,158.62,71.31,158.58z"/>
			<path class="st6" d="M71.6,172.62c-0.18,0.79-0.5,1.42-0.82,2.06c-0.65,1.28-1.41,2.48-2.26,3.63c-0.34,0.46-0.63,0.64-1.26,0.44
				c-4.23-1.35-7.74-3.76-10.56-7.17c-0.15-0.18-0.49-0.38-0.2-0.68c0.27-0.27,0.48-0.71,0.99-0.59c0.3,0.07,0.59,0.15,0.88,0.25
				c4.16,1.38,8.43,2.12,12.82,2C71.29,172.56,71.39,172.59,71.6,172.62z"/>
			<path class="st5" d="M26.98,175.86c1.57-0.13,3.1,0.21,4.62,0.46c2.39,0.38,4.76,0.9,7.15,1.32c0.58,0.1,1.19,0.01,1.82,0.2
				c-0.79,0.6-1.6,1.18-2.38,1.8c-1,0.8-2.1,1.49-2.81,2.6c-0.05,0.08-0.17,0.11-0.26,0.16c-1.62-0.75-6.56-4.47-7.67-5.78
				C27.26,176.4,27.04,176.18,26.98,175.86z"/>
		</g>
		<g>
			<path class="st9" d="M62.1,139.82c-2.39-0.04-4.74-0.31-7.03-1.06c-0.68-0.22-1.34-0.53-1.92-0.93c-1.41-0.98-2.92-1.76-4.5-2.41
				c-1.27-0.52-2.42-1.28-3.44-2.18c-1.48-1.31-2.3-3-2.28-5c0.04-3.01,0.39-5.99,1.49-8.82c0.53-1.36,1.27-2.62,2.01-3.88
				c0.95-1.64,1.88-3.29,2.65-5.02c0.32-0.73,0.39-1.55,0.38-2.36c-0.03-2.63,0.99-4.83,2.82-6.65c1.08-1.07,2.35-1.91,3.82-2.4
				c1.57-0.52,3.11-0.44,4.62,0.21c0.46,0.2,0.95,0.37,1.32,0.68c0.72,0.62,1.54,0.63,2.42,0.7c1.88,0.14,3.53-0.52,5.18-1.26
				c0.82-0.37,1.63-0.77,2.44-1.15c2.44-1.14,4.81-0.84,7.17,0.22c0.73,0.33,1.46,0.69,2.05,1.27c1.71,1.65,2.29,3.63,1.98,5.99
				c-0.21,1.56-0.7,3.01-1.27,4.44c-0.46,1.16-0.55,2.36-0.43,3.57c0.06,0.61,0.42,1.16,0.82,1.64c0.45,0.55,0.94,1.07,1.37,1.64
				c1.08,1.42,1.34,3.08,1.1,4.77c-0.29,2.11-0.8,4.19-1.47,6.22c-0.52,1.6-1.21,3.12-2.28,4.44c-0.72,0.87-1.6,1.56-2.56,2.12
				c-1.8,1.05-3.73,1.84-5.74,2.39c-1.5,0.41-2.95,0.95-4.39,1.5c-1.45,0.55-2.92,1.05-4.45,1.31
				C63.36,139.9,62.73,139.82,62.1,139.82z M62.43,131.26c4.41,0.04,8.05-3.46,8.05-7.83c0-4.54-3.53-7.91-7.8-8
				c-4.37-0.1-7.92,3.44-8.04,7.74C54.54,127.38,57.93,131.19,62.43,131.26z"/>
			<path class="st10" d="M62.43,131.26c-4.5-0.07-7.89-3.88-7.78-8.09c0.11-4.3,3.67-7.84,8.04-7.74c4.27,0.1,7.8,3.46,7.8,8
				C70.48,127.8,66.84,131.29,62.43,131.26z M65.31,118.86c-0.88-0.02-1.72,0.94-1.39,1.81c0.35,0.93,0.57,1.88,0.75,2.85
				c0.14,0.79,0.93,1.27,1.66,1.17c0.74-0.1,1.37-0.75,1.34-1.55c-0.04-1.24-0.28-2.45-0.99-3.52
				C66.37,119.16,65.93,118.91,65.31,118.86z"/>
			<path class="st9" d="M65.31,118.86c0.62,0.05,1.06,0.29,1.37,0.77c0.71,1.07,0.95,2.28,0.99,3.52c0.03,0.8-0.6,1.44-1.34,1.55
				c-0.73,0.1-1.52-0.38-1.66-1.17c-0.17-0.98-0.4-1.92-0.75-2.85C63.59,119.8,64.44,118.84,65.31,118.86z"/>
		</g>
		<g>
			<path class="st11" d="M91.31,188.99c-0.48-0.57-0.44-1.27-0.44-1.98c0.01-29.12,0.02-58.24,0.02-87.36c0-4.16,0-8.32,0-12.48
				c0-0.27-0.01-0.54,0-0.82c0.04-1.1,0.29-1.44,1.33-1.62c1.54-0.26,3.1-0.44,4.66-0.46c9.26-0.1,17.25,3.37,24.16,9.85
				c3.36,3.15,6.12,6.84,8.44,10.93c0.51,0.89,1.02,1.78,1.53,2.67c0.02,0.13,0.08,0.23,0.2,0.29c0,0,0,0,0,0
				c0.01,0.2,0.06,0.38,0.26,0.44c0,0-0.01-0.02-0.01-0.02c-0.11,0.55,0.2,0.97,0.4,1.41c1.07,2.29,1.88,4.69,2.58,7.12
				c0.7,2.43,1.25,4.9,1.65,7.42c0.44,2.82,0.8,5.64,0.8,8.5c0,2.37,0,4.73,0,7.1c-0.18,0.23-0.16,0.5-0.18,0.77
				c-0.09,1.04-0.15,2.08-0.29,3.12c-0.7,5.23-1.96,10.3-3.85,15.18c-0.12,0.32-0.28,0.63-0.28,0.99c-0.29,0.53-0.83,0.96-0.66,1.69
				c-0.4,0.16-0.45,0.59-0.62,0.91c-0.58,1.12-1.11,2.27-1.71,3.37c-3.18,5.82-7.2,10.86-12.26,14.93
				c-0.49,0.39-1.06,0.67-1.44,1.21c-0.11,0.11-0.22,0.21-0.33,0.32c-0.39,0.01-0.66,0.29-0.96,0.49c-3.44,2.29-7.1,4-11.04,5.03
				c-1.9,0.5-3.85,0.7-5.78,1c-1.16-0.01-2.32-0.02-3.48-0.03c-0.32,0-0.66,0.06-0.96-0.12c-0.34-0.21-0.65-0.25-0.99,0.03
				C91.85,189.08,91.56,188.99,91.31,188.99z M115.87,168c-0.84,0-1.53,0.01-2.21,0c-0.33,0-0.64,0.05-0.94,0.22
				c-0.27,0.16-0.46,0.36-0.46,0.72c0,0.36,0.18,0.56,0.46,0.72c0.54,0.33,1.16,0.31,1.69,0.18c1.18-0.3,2.37-0.14,3.56-0.2
				c0.29-0.01,0.59,0.01,0.86-0.07c0.45-0.13,0.73-0.67,0.58-1.09c-0.14-0.42-0.42-0.8-0.89-0.64
				C117.59,168.14,116.65,167.9,115.87,168z M112.58,116.57c1.64-0.13,3.29-0.25,4.93-0.4c0.44-0.04,0.73-0.33,0.81-0.8
				c0.09-0.53-0.25-0.75-0.63-0.94c-0.24-0.11-0.51-0.18-0.74-0.09c-0.85,0.31-1.72,0.15-2.58,0.21c-0.64,0.05-1.29,0.14-1.92,0.28
				c-0.47,0.1-0.72,0.66-0.64,1.19C111.89,116.51,112.18,116.66,112.58,116.57z M115.5,107.33c0.38,0,0.75-0.03,0.85-0.52
				c0.1-0.5,0.02-0.94-0.49-1.15c-0.2-0.08-0.4-0.18-0.61-0.24c-1.33-0.38-2.65-0.77-3.95-1.26c-0.42-0.16-0.88-0.24-1.16,0.27
				c-0.21,0.38,0.01,0.91,0.5,1.28c0.14,0.11,0.32,0.18,0.49,0.24c0.79,0.29,1.56,0.65,2.37,0.84
				C114.18,106.94,114.8,107.31,115.5,107.33z M104.38,144.78c0.02-0.36-0.11-0.65-0.53-0.82c-1.05-0.43-2.04-0.99-3-1.64
				c-0.37-0.25-0.76-0.46-1.17-0.61c-0.65-0.24-1.06,0.18-0.97,0.91c0.05,0.39,0.28,0.62,0.56,0.82c0.31,0.21,0.62,0.39,0.94,0.59
				c0.9,0.58,1.87,1.03,2.78,1.6C103.82,146.15,104.4,145.78,104.38,144.78z M101.4,177.36c-0.09,0.03-0.16,0.04-0.22,0.07
				c-1.43,0.73-2.86,1.47-4.2,2.39c-0.45,0.31-0.54,0.8-0.33,1.2c0.25,0.48,0.61,0.57,1.2,0.27c1.17-0.6,2.22-1.44,3.47-1.86
				c0.32-0.11,0.52-0.41,0.74-0.66c0.17-0.19,0.43-0.39,0.24-0.69C102.08,177.74,101.84,177.38,101.4,177.36z M129.7,145.89
				c0-0.74,0.01-1.32,0-1.9c-0.01-0.34-0.13-0.6-0.47-0.69c-0.31-0.08-0.56,0.03-0.78,0.27c-0.3,0.31-0.23,0.7-0.27,1.08
				c-0.17,1.44-0.03,2.92-0.56,4.31c-0.17,0.44,0.14,0.9,0.61,1.04c0.63,0.19,1.2-0.22,1.24-1.05
				C129.51,147.87,129.88,146.82,129.7,145.89z M108.09,136.97c0.01-0.27-0.07-0.53-0.13-0.79c-0.24-1.21-0.61-2.38-0.95-3.56
				c-0.21-0.74-0.61-1.07-1.11-0.9c-0.58,0.2-0.77,0.62-0.57,1.4c0.18,0.67,0.36,1.34,0.62,1.98c0.29,0.72,0.32,1.5,0.57,2.22
				c0.19,0.54,0.59,0.64,1.06,0.54C108.04,137.77,108.1,137.39,108.09,136.97z M122.48,132.43c0.08-0.85-0.44-1.29-1.09-1.03
				c-0.18,0.07-0.29,0.22-0.4,0.37c-0.84,1.23-1.27,2.68-1.87,4.03c-0.19,0.43,0.18,0.61,0.39,0.86c0.19,0.23,0.4,0.27,0.68,0.13
				c0.32-0.16,0.52-0.4,0.66-0.73c0.45-1.09,0.84-2.21,1.48-3.2C122.42,132.72,122.45,132.51,122.48,132.43z M118.82,142.79
				c-0.39-0.1-0.79,0.2-1.22,0.39c-0.66,0.3-1.35,0.55-2,0.88c-0.46,0.23-0.62,0.74-0.45,1.16c0.18,0.45,0.55,0.62,1.06,0.45
				c0.34-0.11,0.68-0.26,1.01-0.42c0.59-0.3,1.18-0.56,1.85-0.61c0.67-0.05,1.03-0.41,1.02-0.94
				C120.08,143.15,119.65,142.8,118.82,142.79z M94.32,91.93c0.43-0.02,0.96,0.08,1.01-0.36c0.08-0.84,0.73-1.09,1.16-1.57
				c0.27-0.31,0.57-0.58,0.76-0.98c0.19-0.41,0.17-0.73-0.15-1.03c-0.35-0.33-0.76-0.39-1.07-0.03c-0.71,0.83-1.6,1.44-2.34,2.23
				c-0.3,0.32-0.54,0.66-0.35,1.12C93.53,91.78,93.91,91.97,94.32,91.93z M115.95,152.28c0.01-0.38-0.07-0.72-0.46-0.81
				c-0.4-0.1-0.79-0.08-1.04,0.38c-0.58,1.08-0.93,2.27-1.3,3.43c-0.21,0.65,0.13,1.36,0.58,1.45c0.6,0.11,0.79-0.42,1.01-0.86
				c0.03-0.07,0.06-0.14,0.09-0.21c0.32-0.9,0.63-1.81,0.96-2.71C115.86,152.73,115.96,152.53,115.95,152.28z M104.39,95.12
				c0-0.35,0-0.47,0-0.58c-0.03-0.71-0.36-1.2-0.78-1.19c-0.37,0.02-0.89,0.62-0.95,1.14c-0.03,0.27-0.01,0.54-0.01,0.81
				c-0.01,0.58,0.04,1.15-0.16,1.72c-0.09,0.28-0.07,0.62-0.05,0.92c0.05,0.59,0.43,1,0.89,0.96c0.5-0.05,0.83-0.38,0.82-0.9
				C104.13,96.95,104.26,95.92,104.39,95.12z M120.51,161.63c0.06,0,0.1,0,0.13-0.01c1.08-0.51,2.18-0.99,3.24-1.55
				c0.39-0.21,0.49-0.68,0.26-1.11c-0.21-0.39-0.51-0.61-0.99-0.42c-0.97,0.4-1.95,0.78-2.87,1.32c-0.12,0.07-0.24,0.18-0.34,0.28
				c-0.26,0.27-0.34,0.6-0.19,0.95C119.89,161.43,120.21,161.54,120.51,161.63z M108.39,125.99c0,0,0-0.01,0-0.01
				c0.51,0,1.02,0.05,1.52-0.01c0.51-0.07,0.89-0.44,0.96-0.97c0.07-0.49-0.31-0.82-0.73-0.84c-1.02-0.05-2.04-0.04-3.05,0
				c-0.42,0.02-0.94,0.67-0.94,1.02c0,0.42,0.44,0.78,1.03,0.81C107.59,126.01,107.99,125.99,108.39,125.99z M102.86,162.28
				c0.01-0.24-0.02-0.55-0.32-0.72c-0.33-0.17-0.63-0.1-0.89,0.16c-0.21,0.21-0.39,0.44-0.55,0.71c-0.39,0.64-0.82,1.26-1.23,1.89
				c-0.38,0.57-0.34,1.04,0.13,1.39c0.41,0.31,0.85,0.22,1.21-0.3c0.45-0.65,0.87-1.32,1.28-1.99
				C102.67,163.1,102.85,162.76,102.86,162.28z M126.62,121.49c0-0.02-0.11-0.17-0.24-0.32c-0.39-0.44-0.96-0.45-1.45,0.01
				c-0.54,0.51-0.99,1.11-1.43,1.73c-0.31,0.43-0.48,0.77-0.04,1.19c0.39,0.37,0.79,0.36,1.15-0.03c0.6-0.62,1.18-1.25,1.76-1.88
				C126.51,122.04,126.61,121.89,126.62,121.49z M126.65,109.61c-0.02,0.61,0,0.98,0.36,1.14c0.38,0.17,0.74,0.03,0.95-0.33
				c0.51-0.85,0.94-1.75,1.26-2.69c0.14-0.42-0.11-0.75-0.43-0.98c-0.35-0.25-0.63-0.05-0.85,0.23
				C127.28,107.82,126.87,108.8,126.65,109.61z M98.12,115.76c-0.1,0.54,0.21,1.02,0.68,1.1c0.42,0.07,0.86-0.22,0.96-0.73
				c0.15-0.75,0.24-1.51,0.36-2.27c0.1-0.6-0.12-1.03-0.59-1.15c-0.45-0.11-0.91,0.21-1.03,0.78
				C98.37,114.25,98.25,115.01,98.12,115.76z M96.75,150.98C96.75,150.98,96.75,150.98,96.75,150.98c0,0.35,0,0.69,0,1.04
				c0,0.53,0.24,0.9,0.72,1c0.39,0.08,0.76-0.41,0.8-1.03c0.04-0.65-0.01-1.29,0.15-1.94c0.14-0.56-0.32-1.15-0.77-1.17
				c-0.46-0.02-0.84,0.36-0.89,0.95C96.73,150.21,96.75,150.6,96.75,150.98z M120.3,121.8c-0.17,0.04-0.39,0.05-0.37,0.37
				c0.01,0.18,0.14,0.27,0.28,0.27c0.22,0,0.42-0.1,0.44-0.38C120.65,121.86,120.48,121.85,120.3,121.8z"/>
			<path class="st12" d="M131.63,161.76c-0.17-0.74,0.37-1.16,0.66-1.69c0.9-0.71,1.42-1.74,2.04-2.68
				c0.48-0.72,1.06-1.23,1.83-1.57c2.16-0.95,2.67-3.09,1.24-5.08c-0.2-0.28-0.4-0.54-0.46-0.9c-0.31-1.85-0.5-3.68,0.27-5.47
				c0.39-0.9,0.4-1.88,0.36-2.85c-0.03-0.59-0.16-1.15-0.67-1.51c0-2.37,0-4.73,0-7.1c0-2.86-0.36-5.68-0.8-8.5
				c-0.39-2.52-0.95-4.99-1.65-7.42c-0.7-2.43-1.51-4.83-2.58-7.12c-0.21-0.44-0.51-0.86-0.4-1.41c1.01,1.23,1.73,2.68,2.49,4.08
				c3.75,6.94,6.2,14.38,7.21,22.33c1.39,10.87,0.14,21.35-4.54,31.18c-5.74,12.05-14.76,19.88-27.05,23.3
				c-0.35,0.1-0.71,0.14-1.07,0.22c0.21-0.98,0.66-1.76,1.56-2.2c0.19-0.09,0.36-0.27,0.5-0.44c0.28-0.35,0.61-0.4,1.04-0.42
				c2.24-0.13,2.97-1.08,3.39-2.76c0.1-0.41,0.18-0.82,0.27-1.24c0.11-0.11,0.22-0.21,0.33-0.32c0.62,0.07,1.22-0.05,1.83-0.15
				c6.69-1.14,11.18-5.15,13.51-11.91C131.87,167.42,132.08,164.61,131.63,161.76z"/>
			<path class="st13" d="M115.28,182.5c-0.09,0.41-0.17,0.83-0.27,1.24c-0.42,1.67-1.15,2.62-3.39,2.76
				c-0.43,0.03-0.76,0.07-1.04,0.42c-0.14,0.17-0.31,0.35-0.5,0.44c-0.89,0.44-1.34,1.22-1.56,2.2c-0.7,0.66-1.45,0.8-2.4,0.65
				c-1.32-0.2-2.66,0.13-3.97,0.37c-0.2,0.04-0.39,0.2-0.56,0.33c-0.85,0.69-1.82,0.89-2.85,0.91c-0.87,0.01-1.55-0.31-1.89-1.23
				c0.01-0.61,0.27-1.11,0.63-1.56c1.93-0.3,3.88-0.5,5.78-1c3.94-1.04,7.6-2.74,11.04-5.03
				C114.62,182.79,114.89,182.51,115.28,182.5z"/>
			<path class="st12" d="M97.49,189.03c-0.36,0.45-0.62,0.95-0.63,1.56c-1.55,0.01-3.09-0.27-4.62-0.47
				c-0.69-0.09-0.8-0.28-0.92-1.13c0.25-0.01,0.54,0.09,0.74-0.08c0.34-0.29,0.65-0.25,0.99-0.03c0.3,0.18,0.64,0.12,0.96,0.12
				C95.17,189.01,96.33,189.02,97.49,189.03z"/>
			<path class="st12" d="M131.49,108.47c-0.21-0.07-0.26-0.24-0.26-0.44C131.39,108.12,131.47,108.28,131.49,108.47z"/>
			<path class="st12" d="M131.22,108.03c-0.11-0.06-0.18-0.16-0.2-0.29C131.14,107.79,131.21,107.89,131.22,108.03z"/>
			<path class="st14" d="M131.63,161.76c0.45,2.85,0.24,5.67-0.69,8.36c-2.32,6.76-6.82,10.77-13.51,11.91
				c-0.61,0.1-1.21,0.22-1.83,0.15c0.38-0.54,0.96-0.82,1.44-1.21c5.05-4.07,9.07-9.1,12.26-14.93c0.6-1.1,1.13-2.25,1.71-3.37
				C131.19,162.34,131.24,161.92,131.63,161.76z"/>
			<path class="st15" d="M136.9,140c0.51,0.36,0.64,0.91,0.67,1.51c0.05,0.97,0.04,1.95-0.36,2.85c-0.78,1.79-0.59,3.62-0.27,5.47
				c0.06,0.36,0.26,0.62,0.46,0.9c1.43,1.99,0.92,4.13-1.24,5.08c-0.77,0.34-1.35,0.85-1.83,1.57c-0.62,0.94-1.14,1.98-2.04,2.68
				c0-0.36,0.16-0.67,0.28-0.99c1.89-4.89,3.15-9.96,3.85-15.18c0.14-1.03,0.2-2.08,0.29-3.12C136.74,140.5,136.72,140.23,136.9,140
				z"/>
			<path class="st16" d="M115.87,168c0.78-0.09,1.72,0.14,2.64-0.16c0.47-0.16,0.74,0.22,0.89,0.64c0.14,0.42-0.14,0.96-0.58,1.09
				c-0.27,0.08-0.57,0.05-0.86,0.07c-1.18,0.06-2.37-0.1-3.56,0.2c-0.54,0.13-1.15,0.15-1.69-0.18c-0.27-0.17-0.46-0.36-0.46-0.72
				c0-0.36,0.19-0.56,0.46-0.72c0.3-0.17,0.61-0.22,0.94-0.22C114.35,168,115.03,168,115.87,168z"/>
			<path class="st16" d="M112.58,116.57c-0.4,0.09-0.69-0.06-0.76-0.54c-0.08-0.53,0.18-1.08,0.64-1.19
				c0.63-0.14,1.27-0.23,1.92-0.28c0.86-0.07,1.73,0.1,2.58-0.21c0.23-0.09,0.5-0.02,0.74,0.09c0.39,0.18,0.72,0.41,0.63,0.94
				c-0.08,0.47-0.37,0.76-0.81,0.8C115.87,116.32,114.23,116.44,112.58,116.57z"/>
			<path class="st16" d="M115.5,107.33c-0.7-0.02-1.32-0.38-1.99-0.54c-0.81-0.19-1.59-0.55-2.37-0.84
				c-0.17-0.06-0.34-0.13-0.49-0.24c-0.49-0.37-0.71-0.9-0.5-1.28c0.28-0.51,0.74-0.43,1.16-0.27c1.3,0.49,2.62,0.88,3.95,1.26
				c0.21,0.06,0.41,0.15,0.61,0.24c0.51,0.21,0.59,0.65,0.49,1.15C116.25,107.29,115.88,107.33,115.5,107.33z"/>
			<path class="st16" d="M104.38,144.78c0.02,1-0.56,1.37-1.4,0.85c-0.91-0.57-1.87-1.03-2.78-1.6c-0.31-0.2-0.63-0.38-0.94-0.59
				c-0.28-0.19-0.51-0.43-0.56-0.82c-0.09-0.74,0.32-1.15,0.97-0.91c0.41,0.15,0.81,0.37,1.17,0.61c0.95,0.64,1.95,1.21,3,1.64
				C104.28,144.13,104.41,144.42,104.38,144.78z"/>
			<path class="st16" d="M101.4,177.36c0.44,0.02,0.68,0.38,0.9,0.72c0.19,0.3-0.07,0.5-0.24,0.69c-0.22,0.25-0.43,0.55-0.74,0.66
				c-1.25,0.43-2.31,1.27-3.47,1.86c-0.59,0.3-0.95,0.21-1.2-0.27c-0.22-0.41-0.12-0.9,0.33-1.2c1.34-0.92,2.77-1.66,4.2-2.39
				C101.24,177.4,101.31,177.39,101.4,177.36z"/>
			<path class="st16" d="M129.7,145.89c0.19,0.93-0.19,1.98-0.25,3.06c-0.04,0.83-0.61,1.24-1.24,1.05
				c-0.46-0.14-0.77-0.6-0.61-1.04c0.53-1.39,0.39-2.87,0.56-4.31c0.05-0.38-0.02-0.77,0.27-1.08c0.23-0.23,0.47-0.35,0.78-0.27
				c0.33,0.09,0.46,0.35,0.47,0.69C129.7,144.57,129.7,145.15,129.7,145.89z"/>
			<path class="st16" d="M108.09,136.97c0.01,0.41-0.05,0.79-0.51,0.89c-0.47,0.1-0.87,0-1.06-0.54c-0.25-0.72-0.28-1.5-0.57-2.22
				c-0.25-0.64-0.44-1.31-0.62-1.98c-0.21-0.78-0.02-1.2,0.57-1.4c0.51-0.17,0.9,0.16,1.11,0.9c0.34,1.18,0.71,2.35,0.95,3.56
				C108.02,136.44,108.11,136.7,108.09,136.97z"/>
			<path class="st16" d="M122.48,132.43c-0.03,0.08-0.06,0.28-0.16,0.44c-0.64,0.99-1.04,2.11-1.48,3.2
				c-0.14,0.33-0.34,0.57-0.66,0.73c-0.28,0.14-0.49,0.1-0.68-0.13c-0.2-0.25-0.58-0.43-0.39-0.86c0.61-1.35,1.03-2.8,1.87-4.03
				c0.11-0.16,0.22-0.3,0.4-0.37C122.04,131.15,122.56,131.58,122.48,132.43z"/>
			<path class="st16" d="M118.82,142.79c0.83,0.01,1.26,0.35,1.27,0.92c0.01,0.52-0.35,0.89-1.02,0.94
				c-0.67,0.05-1.26,0.31-1.85,0.61c-0.32,0.16-0.66,0.31-1.01,0.42c-0.51,0.17-0.88,0-1.06-0.45c-0.17-0.43-0.01-0.93,0.45-1.16
				c0.65-0.33,1.33-0.59,2-0.88C118.02,142.99,118.43,142.69,118.82,142.79z"/>
			<path class="st16" d="M94.32,91.93c-0.41,0.05-0.79-0.14-0.99-0.62c-0.19-0.46,0.05-0.8,0.35-1.12c0.74-0.79,1.63-1.4,2.34-2.23
				c0.31-0.36,0.72-0.3,1.07,0.03c0.32,0.3,0.34,0.63,0.15,1.03c-0.19,0.4-0.49,0.67-0.76,0.98c-0.42,0.49-1.07,0.73-1.16,1.57
				C95.28,92,94.75,91.91,94.32,91.93z"/>
			<path class="st16" d="M115.95,152.28c0.01,0.24-0.08,0.45-0.16,0.67c-0.33,0.9-0.64,1.81-0.96,2.71
				c-0.03,0.07-0.05,0.14-0.09,0.21c-0.22,0.44-0.41,0.97-1.01,0.86c-0.46-0.09-0.79-0.79-0.58-1.45c0.37-1.17,0.72-2.35,1.3-3.43
				c0.25-0.46,0.64-0.48,1.04-0.38C115.88,151.57,115.96,151.91,115.95,152.28z"/>
			<path class="st16" d="M104.39,95.12c-0.13,0.8-0.26,1.83-0.24,2.88c0.01,0.52-0.32,0.86-0.82,0.9c-0.46,0.04-0.84-0.36-0.89-0.96
				c-0.02-0.31-0.05-0.64,0.05-0.92c0.2-0.57,0.15-1.15,0.16-1.72c0.01-0.27-0.02-0.55,0.01-0.81c0.06-0.52,0.58-1.12,0.95-1.14
				c0.43-0.02,0.75,0.47,0.78,1.19C104.39,94.66,104.39,94.77,104.39,95.12z"/>
			<path class="st16" d="M120.51,161.63c-0.3-0.09-0.62-0.19-0.77-0.54c-0.15-0.35-0.07-0.68,0.19-0.95
				c0.1-0.11,0.21-0.21,0.34-0.28c0.92-0.54,1.9-0.92,2.87-1.32c0.48-0.2,0.78,0.03,0.99,0.42c0.24,0.43,0.13,0.9-0.26,1.11
				c-1.06,0.56-2.16,1.04-3.24,1.55C120.6,161.63,120.56,161.62,120.51,161.63z"/>
			<path class="st16" d="M108.39,125.99c-0.4,0-0.8,0.02-1.2,0c-0.59-0.03-1.03-0.39-1.03-0.81c0-0.35,0.52-1,0.94-1.02
				c1.02-0.05,2.04-0.05,3.05,0c0.42,0.02,0.8,0.35,0.73,0.84c-0.07,0.53-0.46,0.9-0.96,0.97c-0.5,0.07-1.02,0.01-1.52,0.01
				C108.39,125.98,108.39,125.99,108.39,125.99z"/>
			<path class="st16" d="M102.86,162.28c0,0.49-0.19,0.83-0.38,1.15c-0.41,0.68-0.83,1.35-1.28,1.99c-0.36,0.52-0.8,0.61-1.21,0.3
				c-0.46-0.35-0.51-0.82-0.13-1.39c0.41-0.63,0.84-1.25,1.23-1.89c0.16-0.26,0.34-0.49,0.55-0.71c0.26-0.27,0.57-0.34,0.89-0.16
				C102.84,161.72,102.86,162.04,102.86,162.28z"/>
			<path class="st16" d="M126.62,121.49c-0.01,0.4-0.11,0.55-0.24,0.69c-0.59,0.63-1.17,1.26-1.76,1.88
				c-0.37,0.38-0.76,0.4-1.15,0.03c-0.44-0.42-0.27-0.76,0.04-1.19c0.44-0.61,0.89-1.22,1.43-1.73c0.49-0.46,1.06-0.44,1.45-0.01
				C126.51,121.32,126.62,121.47,126.62,121.49z"/>
			<path class="st16" d="M126.65,109.61c0.22-0.81,0.62-1.79,1.3-2.63c0.22-0.28,0.5-0.48,0.85-0.23c0.32,0.23,0.57,0.56,0.43,0.98
				c-0.32,0.95-0.75,1.84-1.26,2.69c-0.21,0.36-0.57,0.49-0.95,0.33C126.65,110.59,126.64,110.22,126.65,109.61z"/>
			<path class="st16" d="M98.12,115.76c0.13-0.75,0.24-1.51,0.39-2.26c0.12-0.57,0.57-0.89,1.03-0.78c0.47,0.12,0.68,0.55,0.59,1.15
				c-0.12,0.76-0.21,1.52-0.36,2.27c-0.1,0.51-0.54,0.81-0.96,0.73C98.34,116.79,98.03,116.31,98.12,115.76z"/>
			<path class="st16" d="M96.75,150.98c0-0.39-0.03-0.77,0.01-1.15c0.05-0.59,0.43-0.97,0.89-0.95c0.45,0.02,0.92,0.61,0.77,1.17
				c-0.17,0.65-0.11,1.3-0.15,1.94c-0.04,0.62-0.41,1.11-0.8,1.03c-0.48-0.1-0.72-0.47-0.72-1
				C96.75,151.67,96.75,151.33,96.75,150.98C96.75,150.98,96.75,150.98,96.75,150.98z"/>
			<path class="st17" d="M120.3,121.8c0.18,0.05,0.35,0.06,0.34,0.26c-0.01,0.28-0.21,0.37-0.44,0.38c-0.14,0-0.27-0.09-0.28-0.27
				C119.91,121.84,120.13,121.83,120.3,121.8z"/>
		</g>
	</g>
</g>
</svg>
