<svg xmlns="http://www.w3.org/2000/svg" viewBox="0 0 282.07 356.14"><path d="M6.73 12.96c1.03 0 1.98-.18 2.84-.54s1.58-.88 2.17-1.57l-1.5-1.44a4.36 4.36 0 0 1-3.37 1.49c-.86 0-1.64-.2-2.32-.57s-1.22-.9-1.6-1.57c-.4-.67-.58-1.43-.58-2.28s.2-1.6.58-2.3c.38-.67.9-1.2 1.6-1.57.68-.38 1.46-.57 2.32-.57 1.33 0 2.45.5 3.37 1.48l1.5-1.42A5.85 5.85 0 0 0 9.58.54C8.72.18 7.78 0 6.75 0 5.48 0 4.33.28 3.3.84S1.47 2.17.88 3.15 0 5.24 0 6.48.3 8.83.87 9.8s1.4 1.75 2.4 2.3c1.03.56 2.18.84 3.45.84h0zm13.1 0c1.28 0 2.44-.28 3.47-.84a6.28 6.28 0 0 0 2.43-2.31c.6-.98.88-2.1.88-3.33s-.3-2.35-.88-3.33A6.21 6.21 0 0 0 23.31.84C22.28.28 21.12 0 19.84 0s-2.44.28-3.47.84-1.84 1.33-2.43 2.32-.88 2.1-.88 3.32.3 2.33.88 3.32 1.4 1.76 2.43 2.32c1.02.56 2.18.84 3.47.84h0zm0-2.05c-.84 0-1.6-.2-2.27-.57s-1.2-.9-1.58-1.58a4.6 4.6 0 0 1-.58-2.28c0-.84.2-1.6.58-2.28.38-.67.9-1.2 1.58-1.58s1.43-.57 2.27-.57 1.6.2 2.27.57 1.2.9 1.58 1.58a4.6 4.6 0 0 1 .58 2.28c0 .84-.2 1.6-.58 2.28a4 4 0 0 1-1.58 1.58c-.68.38-1.43.57-2.27.57h0zm9.23 1.87H38V10.8h-6.6V.18h-2.34v12.6zm16.63.18c1.28 0 2.44-.28 3.47-.84a6.28 6.28 0 0 0 2.43-2.31c.6-.98.88-2.1.88-3.33s-.3-2.35-.88-3.33A6.21 6.21 0 0 0 49.17.84C48.14.28 47 0 45.7 0c-1.28 0-2.44.28-3.47.84S40.4 2.17 39.8 3.16s-.88 2.1-.88 3.32.3 2.33.88 3.32 1.4 1.76 2.43 2.32 2.2.84 3.47.84h0zm0-2.05c-.84 0-1.6-.2-2.27-.57s-1.2-.9-1.58-1.58a4.6 4.6 0 0 1-.58-2.28c0-.84.2-1.6.58-2.28a4 4 0 0 1 1.58-1.58c.67-.38 1.43-.57 2.27-.57s1.6.2 2.27.57 1.2.9 1.58 1.58a4.6 4.6 0 0 1 .58 2.28c0 .84-.2 1.6-.58 2.28a4 4 0 0 1-1.58 1.58c-.67.38-1.43.57-2.27.57h0zm20 1.87l-2.9-4.14c.86-.34 1.53-.85 2-1.53s.7-1.5.7-2.45c0-.92-.22-1.72-.65-2.4s-1.05-1.2-1.86-1.55S61.2.18 60.12.18h-5.18v12.6h2.34V9.1h2.84.5l2.57 3.7h2.52zm-2.57-8.12c0 .8-.26 1.43-.8 1.86-.53.44-1.3.66-2.32.66h-2.74V2.16h2.74c1.02 0 1.8.22 2.32.65.52.43.8 1.05.8 1.85h0zm8.83 8.3c1.1 0 2.04-.17 2.8-.5.77-.34 1.34-.8 1.72-1.35s.57-1.2.57-1.9c0-.82-.2-1.46-.64-1.94s-.94-.84-1.54-1.07-1.37-.46-2.3-.68l-1.62-.45c-.4-.13-.72-.3-.98-.54s-.4-.52-.4-.88c0-.52.23-.93.67-1.24.45-.3 1.14-.47 2.06-.47a6.43 6.43 0 0 1 1.75.25c.6.17 1.18.4 1.73.74l.74-1.82C76 .76 75.35.48 74.6.3S73.1 0 72.34 0c-1.1 0-2.04.17-2.8.5-.76.34-1.33.8-1.7 1.36s-.57 1.2-.57 1.9c0 .83.2 1.5.64 1.97a3.87 3.87 0 0 0 1.53 1.07c.6.23 1.37.46 2.33.68l1.62.45c.4.13.72.32.98.55s.4.53.4.9c0 .5-.23.9-.7 1.2s-1.16.45-2.1.45c-.76 0-1.5-.13-2.26-.4s-1.38-.6-1.9-1l-.8 1.83c.53.46 1.24.82 2.15 1.1.9.27 1.84.4 2.8.4h0z"/><path d="M.82 74.08h81.64v81.64H.82z" fill="#ef4b24"/><path d="M37.02 119.58l-2.25-3.22c.67-.26 1.2-.66 1.55-1.2s.54-1.17.54-1.9c0-.72-.17-1.34-.5-1.86-.34-.52-.82-.92-1.45-1.2s-1.37-.42-2.22-.42h-4.03v9.8h1.82v-2.86h2.2l.38-.01 2 2.87H37v-.01zm-2-6.3c0 .63-.2 1.1-.62 1.45s-1 .5-1.8.5h-2.13v-3.9h2.13c.8 0 1.4.17 1.8.5.4.34.62.82.62 1.45h0zm10.73 2.6c0-.77-.16-1.44-.48-2.02s-.77-1.04-1.34-1.36-1.23-.48-1.95-.48c-.74 0-1.4.16-2 .5s-1.05.78-1.38 1.36-.5 1.24-.5 1.97c0 .74.17 1.4.5 1.98s.82 1.04 1.45 1.36c.63.33 1.35.5 2.17.5.64 0 1.22-.1 1.74-.3.5-.2.94-.5 1.27-.9l-.94-1.08c-.53.54-1.2.8-2.03.8-.64 0-1.18-.16-1.62-.48a2.03 2.03 0 0 1-.8-1.31h5.87l.02-.5zm-3.78-2.46c.57 0 1.05.17 1.43.5.38.34.6.77.7 1.32h-4.24c.08-.55.32-1 .7-1.32.38-.33.85-.5 1.4-.5h0zm11.08-4.22v3.84a2.73 2.73 0 0 0-1.05-.76c-.4-.17-.86-.25-1.36-.25a3.93 3.93 0 0 0-1.94.48c-.57.32-1.02.77-1.35 1.34-.33.58-.5 1.25-.5 2 0 .76.16 1.43.5 2s.78 1.03 1.35 1.35 1.22.48 1.94.48c.5 0 .98-.1 1.4-.27a2.72 2.72 0 0 0 1.07-.8v.97h1.68v-10.4h-1.75zm-2.2 9c-.42 0-.8-.1-1.13-.3-.34-.2-.6-.46-.8-.82-.2-.35-.3-.77-.3-1.23 0-.47.1-.88.3-1.23s.46-.63.8-.82a2.26 2.26 0 0 1 1.13-.29c.42 0 .8.1 1.13.3.34.2.6.46.8.82.2.35.3.77.3 1.23 0 .47-.1.88-.3 1.23s-.46.63-.8.82a2.12 2.12 0 0 1-1.13.3h0z" fill="#fff"/><path d="M.82 174.3h81.64v81.64H.82z" fill="#f58b1f"/><path d="M20.4 219.8c1 0 1.9-.22 2.7-.65s1.43-1.03 1.9-1.8.7-1.63.7-2.6-.23-1.82-.7-2.6-1.1-1.37-1.9-1.8-1.7-.65-2.7-.65-1.9.22-2.7.65a4.84 4.84 0 0 0-1.89 1.81c-.46.77-.7 1.63-.7 2.58s.23 1.8.7 2.58a4.91 4.91 0 0 0 1.89 1.81c.8.43 1.7.65 2.7.65h0zm0-1.6c-.65 0-1.24-.15-1.76-.44a3.16 3.16 0 0 1-1.23-1.23 3.53 3.53 0 0 1-.45-1.77 3.53 3.53 0 0 1 .45-1.77 3.16 3.16 0 0 1 1.23-1.23c.52-.3 1.1-.44 1.76-.44s1.24.15 1.76.44a3.16 3.16 0 0 1 1.23 1.23 3.53 3.53 0 0 1 .45 1.77 3.53 3.53 0 0 1-.45 1.77 3.16 3.16 0 0 1-1.23 1.23c-.52.3-1.1.44-1.76.44h0zm8.7-4.92v-1.1h-1.67v7.48h1.75v-3.63c0-.75.2-1.32.57-1.7.38-.4.9-.6 1.6-.6.12 0 .26.01.4.04v-1.67c-1.27 0-2.16.4-2.66 1.18h0zm7.07-1.18a6.22 6.22 0 0 0-1.75.24c-.55.16-1.02.4-1.4.7l.7 1.27c.28-.23.62-.42 1.03-.55a4.07 4.07 0 0 1 1.24-.2c.62 0 1.08.14 1.4.42s.47.68.47 1.2v.1h-1.93c-1.07 0-1.86.2-2.36.6s-.75.94-.75 1.62c0 .43.1.8.34 1.15a2.27 2.27 0 0 0 .97.8c.42.2.9.3 1.47.3s1.04-.1 1.43-.26c.4-.17.7-.42.92-.75v.9h1.65v-4.38c0-1.06-.3-1.86-.88-2.4-.58-.52-1.42-.78-2.52-.78h0zm-.24 6.38c-.45 0-.8-.1-1.05-.28s-.38-.44-.38-.76c0-.66.5-1 1.5-1h1.8v.87c-.14.37-.38.66-.72.86s-.73.3-1.17.3h0zm10.12-6.38c-.55 0-1.05.1-1.48.27-.44.18-.8.44-1.1.78v-.97h-1.67v7.48h1.75v-3.78c0-.73.2-1.3.56-1.67.37-.4.88-.58 1.53-.58.57 0 1 .17 1.32.5s.46.82.46 1.48v4.06h1.75v-4.28c0-1.08-.28-1.9-.85-2.45-.58-.56-1.33-.84-2.28-.84h0zm11.1.08v1c-.3-.36-.67-.63-1.1-.8s-.94-.27-1.48-.27c-.7 0-1.35.15-1.93.45-.57.3-1.03.72-1.36 1.27s-.5 1.17-.5 1.88.17 1.34.5 1.9.78.98 1.36 1.28c.57.3 1.22.45 1.93.45a3.8 3.8 0 0 0 1.41-.25 2.97 2.97 0 0 0 1.09-.74v.4c0 .77-.2 1.33-.57 1.7-.38.37-.98.56-1.8.56-.5 0-1.02-.08-1.52-.24s-.9-.38-1.24-.65l-.78 1.32c.42.35.95.6 1.6.8.64.18 1.33.27 2.04.27 2.7 0 4.03-1.32 4.03-3.95v-6.34h-1.66zm-2.33 5.66c-.67 0-1.22-.2-1.65-.6-.42-.4-.64-.9-.64-1.55 0-.63.2-1.13.64-1.53.42-.4.97-.6 1.65-.6.66 0 1.2.2 1.63.6s.64.9.64 1.53-.2 1.15-.64 1.55c-.42.4-.97.6-1.63.6h0zm13.32-1.88c0-.77-.16-1.44-.48-2.02s-.77-1.04-1.34-1.36-1.23-.48-1.95-.48c-.74 0-1.4.16-2 .5s-1.05.78-1.38 1.37c-.33.58-.5 1.24-.5 1.97 0 .74.17 1.4.5 1.98s.82 1.04 1.45 1.36c.63.33 1.35.5 2.17.5.64 0 1.22-.1 1.74-.3.5-.2.94-.5 1.27-.9l-.94-1.08c-.53.54-1.2.8-2.03.8-.64 0-1.18-.16-1.62-.48a2.03 2.03 0 0 1-.8-1.31h5.87l.02-.52zm-3.78-2.46c.57 0 1.05.17 1.43.5.38.34.6.77.7 1.32h-4.24c.08-.55.32-1 .7-1.32.37-.33.85-.5 1.4-.5h0z" fill="#fff"/><path d="M.82 274.5h81.64v81.64H.82z"/><path d="M29.84 314.88c.4-.2.7-.5.92-.87a2.48 2.48 0 0 0 .34-1.29c0-.8-.3-1.42-.94-1.87s-1.52-.68-2.67-.68h-4.6v9.8h4.87c1.25 0 2.2-.23 2.86-.7.65-.46.98-1.12.98-1.97 0-.62-.16-1.13-.48-1.55-.32-.4-.75-.7-1.3-.88h0zm-2.55-3.27c.63 0 1.12.1 1.46.34s.5.57.5 1.02c0 .44-.17.77-.5 1s-.83.34-1.46.34H24.7v-2.7h2.58zm.37 6.94h-2.94v-2.83h2.94c1.4 0 2.1.47 2.1 1.4 0 .95-.7 1.42-2.1 1.42h0zm5.7 1.43h1.75v-10.4h-1.75v10.4zm6.9-7.56a6.22 6.22 0 0 0-1.75.24c-.55.16-1.02.4-1.4.7l.7 1.27c.28-.23.62-.42 1.03-.55a4.07 4.07 0 0 1 1.24-.2c.62 0 1.08.14 1.4.42s.47.68.47 1.2v.1H40c-1.07 0-1.86.2-2.36.6s-.75.94-.75 1.62c0 .43.1.8.34 1.15a2.27 2.27 0 0 0 .97.8c.42.2.9.3 1.47.3s1.04-.1 1.43-.26c.4-.17.7-.42.92-.75v.9h1.65v-4.38c0-1.06-.3-1.86-.88-2.4-.58-.52-1.42-.78-2.52-.78h0zm-.24 6.38c-.45 0-.8-.1-1.05-.28s-.38-.44-.38-.76c0-.66.5-1 1.5-1h1.8v.87c-.14.37-.38.66-.72.86s-.73.3-1.17.3h0zm9.3 1.28c.73 0 1.37-.15 1.93-.45s.98-.73 1.27-1.3l-1.34-.78a2.13 2.13 0 0 1-.8.78c-.32.17-.67.26-1.06.26-.66 0-1.2-.2-1.63-.64-.42-.42-.64-1-.64-1.7s.2-1.28.64-1.7.97-.64 1.62-.64c.38 0 .73.1 1.06.26a2.06 2.06 0 0 1 .8.78l1.34-.78a2.94 2.94 0 0 0-1.25-1.29c-.56-.3-1.2-.45-1.94-.45-.78 0-1.48.16-2.1.5s-1.1.78-1.43 1.36c-.35.58-.52 1.24-.52 1.97 0 .74.17 1.4.52 1.98s.83 1.04 1.44 1.36c.6.3 1.3.48 2.08.48h0zm10.34-.1h2.13l-3.42-4.34 3.12-3.14h-2.1l-3.63 3.36v-6.27H54v10.4h1.75V318l1.3-1.23 2.6 3.2z" fill="#fff"/><path d="M100.62 74.08h81.64v81.64h-81.64z" fill="#ffc416"/><path d="M126.9 109.78h-1.8l-2.9 4.77-2.87-4.77h-1.95l3.85 6.37v3.43h1.82v-3.46l3.84-6.34zm8.02 6.1c0-.77-.16-1.44-.48-2.02s-.77-1.04-1.34-1.36-1.23-.48-1.95-.48c-.74 0-1.4.16-2 .5s-1.05.78-1.38 1.36-.5 1.24-.5 1.97c0 .74.17 1.4.5 1.98s.82 1.04 1.45 1.36c.63.33 1.35.5 2.17.5.64 0 1.22-.1 1.74-.3.5-.2.94-.5 1.27-.9l-.94-1.08c-.53.54-1.2.8-2.03.8-.64 0-1.18-.16-1.62-.48a2.03 2.03 0 0 1-.8-1.31h5.87v-.5zm-3.78-2.46c.57 0 1.05.17 1.43.5.38.34.6.77.7 1.32H129c.08-.55.32-1 .7-1.32s.86-.5 1.42-.5h0zm5.43 6.16h1.75v-10.4h-1.75v10.4zm4.02 0h1.75v-10.4h-1.75v10.4zm7.38.1c.77 0 1.45-.16 2.06-.5s1.08-.78 1.42-1.36.5-1.24.5-1.98-.17-1.4-.5-1.97c-.34-.58-.8-1.03-1.42-1.36s-1.3-.5-2.06-.5-1.44.16-2.04.5c-.6.33-1.08.78-1.42 1.36s-.5 1.24-.5 1.97c0 .74.17 1.4.5 1.98a3.51 3.51 0 0 0 1.42 1.36c.6.32 1.28.5 2.04.5h0zm0-1.5c-.64 0-1.17-.2-1.6-.64s-.62-1-.62-1.7.2-1.26.62-1.7c.42-.43.95-.64 1.6-.64s1.18.2 1.6.64.63 1 .63 1.7-.2 1.26-.63 1.7c-.43.43-.96.64-1.6.64h0zm15.8-6.08l-2.03 5.55-2.02-5.55h-1.47l-2.06 5.52-1.97-5.52h-1.65l2.74 7.48h1.68l1.96-5.15 1.93 5.15h1.68l2.76-7.48h-1.55z" fill="#fff"/><path d="M200.43 74.08h81.64v81.64h-81.64z" fill="#0fae7e"/><path d="M229.74 119.58h1.82v-8.26h3.25v-1.54h-8.32v1.54h3.25v8.26zm13.27-3.7c0-.77-.16-1.44-.48-2.02s-.77-1.04-1.34-1.36-1.23-.48-1.95-.48c-.74 0-1.4.16-2 .5s-1.05.78-1.38 1.36-.5 1.24-.5 1.97c0 .74.17 1.4.5 1.98s.82 1.04 1.45 1.36c.63.33 1.35.5 2.17.5.64 0 1.22-.1 1.74-.3.5-.2.94-.5 1.27-.9l-.94-1.08c-.53.54-1.2.8-2.03.8-.64 0-1.18-.16-1.62-.48a2.03 2.03 0 0 1-.8-1.31H243v-.5zm-3.78-2.46c.57 0 1.05.17 1.43.5.38.34.6.77.7 1.32h-4.24c.08-.55.32-1 .7-1.32.38-.33.85-.5 1.4-.5h0zm8.3-1.4a6.22 6.22 0 0 0-1.75.24c-.55.16-1.02.4-1.4.7l.7 1.27c.28-.23.62-.42 1.03-.55a4.07 4.07 0 0 1 1.24-.2c.62 0 1.08.14 1.4.42s.47.68.47 1.2v.1h-1.93c-1.07 0-1.86.2-2.36.6a1.99 1.99 0 0 0-.75 1.62c0 .43.1.8.34 1.15a2.27 2.27 0 0 0 .97.8c.42.2.9.3 1.47.3s1.04-.1 1.43-.26c.4-.17.7-.42.92-.75v.9h1.65v-4.38c0-1.06-.3-1.86-.88-2.4-.58-.52-1.42-.78-2.52-.78h0zm-.24 6.38c-.45 0-.8-.1-1.05-.28s-.38-.44-.38-.76c0-.66.5-1 1.5-1h1.8v.87c-.14.37-.38.66-.72.86s-.73.3-1.17.3h0zm5.85 1.18h1.75v-10.4h-1.75v10.4z" fill="#fff"/><path d="M100.62 274.5h81.64v81.64h-81.64z" fill="#3d803d"/><path d="M127.58 318.02c-.58.34-1.25.5-2.02.5-.68 0-1.3-.15-1.83-.45a3.24 3.24 0 0 1-1.26-1.23c-.3-.52-.45-1.1-.45-1.76 0-.67.15-1.27.45-1.8a3.15 3.15 0 0 1 1.26-1.22c.54-.3 1.15-.43 1.84-.43a3.66 3.66 0 0 1 2.7 1.12l1.15-1.12c-.46-.52-1.02-.92-1.7-1.2s-1.42-.4-2.24-.4c-1 0-1.92.22-2.72.65-.8.43-1.44 1.03-1.9 1.8s-.7 1.63-.7 2.6.23 1.82.7 2.6 1.1 1.37 1.9 1.8 1.7.65 2.7.65c.7 0 1.4-.1 2.07-.32s1.26-.52 1.76-.92v-3.9h-1.72v3.05h.01zm5.63-4.42v-1.1h-1.67V320h1.75v-3.63c0-.75.2-1.32.57-1.7.38-.4.9-.6 1.6-.6.12 0 .26.01.4.04v-1.67c-1.27 0-2.16.4-2.66 1.18h0zm11.25 2.68c0-.77-.16-1.44-.48-2.02s-.77-1.04-1.34-1.36-1.23-.48-1.95-.48c-.74 0-1.4.16-2 .5s-1.05.78-1.38 1.36-.5 1.24-.5 1.97c0 .74.17 1.4.5 1.98s.82 1.04 1.45 1.36c.63.33 1.35.5 2.17.5.64 0 1.22-.1 1.74-.3.5-.2.94-.5 1.27-.9l-.94-1.08c-.53.54-1.2.8-2.03.8-.64 0-1.18-.16-1.62-.48a2.03 2.03 0 0 1-.8-1.31h5.87l.02-.5zm-3.78-2.46c.57 0 1.05.17 1.43.5.38.34.6.77.7 1.32h-4.24c.08-.55.32-1 .7-1.32.38-.33.85-.5 1.4-.5h0zm12.5 2.46c0-.77-.16-1.44-.48-2.02s-.77-1.04-1.34-1.36-1.23-.48-1.95-.48c-.74 0-1.4.16-2 .5s-1.05.78-1.38 1.36-.5 1.24-.5 1.97c0 .74.17 1.4.5 1.98s.82 1.04 1.45 1.36c.63.33 1.35.5 2.17.5.64 0 1.22-.1 1.74-.3.5-.2.94-.5 1.27-.9l-.94-1.08c-.53.54-1.2.8-2.03.8-.64 0-1.18-.16-1.62-.48a2.03 2.03 0 0 1-.8-1.31h5.87l.02-.5zm-3.78-2.46c.57 0 1.05.17 1.43.5.38.34.6.77.7 1.32h-4.24c.08-.55.32-1 .7-1.32.38-.33.85-.5 1.4-.5h0zm9.72-1.4c-.55 0-1.05.1-1.48.27-.44.18-.8.44-1.1.78v-.97h-1.67v7.48h1.75v-3.78c0-.73.2-1.3.56-1.67.37-.4.88-.58 1.53-.58.57 0 1 .17 1.32.5s.46.82.46 1.48V320h1.75v-4.28c0-1.08-.28-1.9-.85-2.45-.58-.56-1.34-.84-2.28-.84h0z" fill="#fff"/><path d="M200.43 174.3h81.64v81.64h-81.64z" fill="#484756"/><path d="M233.07 214.56c.4-.2.7-.5.92-.87a2.48 2.48 0 0 0 .34-1.29c0-.8-.3-1.42-.94-1.87s-1.52-.68-2.67-.68h-4.6v9.8H231c1.25 0 2.2-.23 2.86-.7.65-.46.98-1.12.98-1.97 0-.62-.16-1.13-.48-1.55-.32-.4-.75-.7-1.3-.88h0zm-2.55-3.27c.63 0 1.12.1 1.46.34s.5.57.5 1-.17.77-.5 1-.83.34-1.46.34h-2.58v-2.7h2.58v.01zm.36 6.94h-2.94v-2.83h2.94c1.4 0 2.1.47 2.1 1.4.01.95-.7 1.42-2.1 1.42h0zm5.7 1.43h1.75v-10.4h-1.75v10.4zm9.5-7.48v3.78c0 .73-.18 1.3-.55 1.67-.37.4-.87.58-1.5.58-.56 0-1-.17-1.3-.5s-.46-.83-.46-1.5v-4.03h-1.75v4.27c0 1.1.3 1.92.86 2.47.57.56 1.36.83 2.36.83.5 0 .94-.1 1.36-.27a2.73 2.73 0 0 0 1.05-.78v.95h1.67v-7.48h-1.76v.01zm11.04 3.78c0-.77-.16-1.44-.48-2.02s-.77-1.04-1.34-1.36-1.22-.48-1.95-.48c-.74 0-1.4.16-2 .5s-1.05.78-1.38 1.37c-.33.58-.5 1.24-.5 1.97 0 .74.17 1.4.5 1.98s.82 1.04 1.45 1.36c.63.33 1.35.5 2.17.5.64 0 1.22-.1 1.74-.3.5-.2.94-.5 1.27-.9l-.94-1.08c-.53.54-1.2.8-2.03.8-.64 0-1.18-.16-1.62-.48a2.03 2.03 0 0 1-.8-1.31h5.87c.02-.22.02-.4.02-.52h0zm-3.78-2.46c.57 0 1.05.17 1.43.5.38.34.6.77.7 1.32h-4.24c.08-.55.32-1 .7-1.32.38-.33.85-.5 1.4-.5h0z" fill="#fff"/><path d="M200.43 274.5h81.64v81.64h-81.64z" fill="#f5efcc"/><path d="M227.97 310.18h-4.03v9.8h1.82v-2.83h2.2c.85 0 1.6-.14 2.22-.42s1.1-.68 1.45-1.2.5-1.15.5-1.86c0-.72-.17-1.34-.5-1.86-.34-.52-.82-.92-1.45-1.2s-1.37-.42-2.22-.42h0zm-.08 5.43h-2.13v-3.9h2.13c.8 0 1.4.17 1.8.5.4.34.62.82.62 1.44 0 .63-.2 1.1-.62 1.44s-1.02.5-1.8.5h0zm13.04.67c0-.77-.16-1.44-.48-2.02s-.77-1.04-1.34-1.36-1.23-.48-1.95-.48c-.74 0-1.4.16-2 .5s-1.05.78-1.38 1.36-.5 1.24-.5 1.97c0 .74.17 1.4.5 1.98s.82 1.04 1.45 1.36c.63.33 1.35.5 2.17.5.64 0 1.22-.1 1.74-.3.5-.2.94-.5 1.27-.9l-.94-1.08c-.53.54-1.2.8-2.03.8-.64 0-1.18-.16-1.62-.48a2.03 2.03 0 0 1-.8-1.31h5.87v-.5zm-3.78-2.46c.57 0 1.05.17 1.43.5.38.34.6.77.7 1.32h-4.24c.08-.55.32-1 .7-1.32.38-.33.85-.5 1.4-.5h0zm8.3-1.4a6.22 6.22 0 0 0-1.75.24c-.55.16-1.02.4-1.4.7l.7 1.27c.28-.23.62-.42 1.03-.55a4.07 4.07 0 0 1 1.24-.2c.62 0 1.08.14 1.4.42s.47.68.47 1.2v.1h-1.93c-1.07 0-1.86.2-2.36.6s-.75.94-.75 1.62c0 .43.1.8.34 1.15a2.27 2.27 0 0 0 .97.8c.42.2.9.3 1.47.3s1.04-.1 1.43-.26c.4-.17.7-.42.92-.75v.9h1.65v-4.38c0-1.06-.3-1.86-.88-2.4-.57-.52-1.42-.78-2.52-.78h0zm-.24 6.38c-.45 0-.8-.1-1.05-.28s-.38-.44-.38-.76c0-.66.5-1 1.5-1h1.8v.87c-.14.37-.38.66-.72.86s-.73.3-1.17.3h0zm7.52-5.2v-1.1h-1.67v7.5h1.75v-3.63c0-.75.2-1.32.57-1.7.38-.4.9-.6 1.6-.6.12 0 .26.01.4.04v-1.67c-1.27 0-2.15.4-2.66 1.18h0zm4.3 6.38h1.75v-10.4h-1.75v10.4z" fill="#484756"/></svg>