<?xml version="1.0" encoding="utf-8"?>
<!-- Generator: Adobe Illustrator 24.1.0, SVG Export Plug-In . SVG Version: 6.00 Build 0)  -->
<svg version="1.1" id="Layer_1" xmlns="http://www.w3.org/2000/svg" xmlns:xlink="http://www.w3.org/1999/xlink" x="0px" y="0px"
	 viewBox="0 0 282.07 356.14" style="enable-background:new 0 0 282.07 356.14;" xml:space="preserve">
<style type="text/css">
	.st0{fill:#EF4B24;}
	.st1{fill:#FFFFFF;}
	.st2{fill:#F58B1F;}
	.st3{fill:#FFC416;}
	.st4{fill:#0FAE7E;}
	.st5{fill:#3D803D;}
	.st6{fill:#484756;}
	.st7{fill:#F5EFCC;}
</style>
<g>
	<g>
		<path d="M6.73,12.96c1.03,0,1.98-0.18,2.84-0.54c0.86-0.36,1.58-0.88,2.17-1.57l-1.51-1.44c-0.91,1-2.03,1.49-3.37,1.49
			c-0.86,0-1.64-0.19-2.32-0.57c-0.68-0.38-1.22-0.9-1.6-1.57C2.55,8.09,2.36,7.33,2.36,6.48c0-0.85,0.19-1.61,0.58-2.29
			C3.32,3.52,3.85,3,4.54,2.62c0.68-0.38,1.46-0.57,2.32-0.57c1.33,0,2.45,0.49,3.37,1.48l1.51-1.42c-0.59-0.68-1.31-1.21-2.16-1.57
			C8.72,0.18,7.78,0,6.75,0C5.48,0,4.33,0.28,3.3,0.84S1.47,2.17,0.88,3.15C0.29,4.13,0,5.24,0,6.48c0,1.24,0.29,2.35,0.87,3.33
			c0.58,0.98,1.39,1.75,2.41,2.31C4.31,12.68,5.46,12.96,6.73,12.96L6.73,12.96L6.73,12.96z M19.84,12.96
			c1.28,0,2.44-0.28,3.47-0.84c1.03-0.56,1.84-1.33,2.43-2.31c0.59-0.98,0.88-2.09,0.88-3.33c0-1.24-0.29-2.35-0.88-3.33
			c-0.59-0.98-1.4-1.76-2.43-2.31C22.28,0.28,21.12,0,19.84,0c-1.28,0-2.44,0.28-3.47,0.84c-1.03,0.56-1.84,1.33-2.43,2.32
			c-0.59,0.99-0.88,2.1-0.88,3.32s0.29,2.33,0.88,3.32c0.59,0.99,1.4,1.76,2.43,2.32C17.39,12.68,18.55,12.96,19.84,12.96
			L19.84,12.96L19.84,12.96z M19.84,10.91c-0.84,0-1.6-0.19-2.27-0.57c-0.67-0.38-1.2-0.91-1.58-1.58
			c-0.38-0.68-0.58-1.44-0.58-2.28c0-0.84,0.19-1.6,0.58-2.28C16.37,3.53,16.9,3,17.57,2.62c0.67-0.38,1.43-0.57,2.27-0.57
			c0.84,0,1.6,0.19,2.27,0.57C22.78,3,23.3,3.53,23.69,4.2c0.38,0.68,0.58,1.44,0.58,2.28c0,0.84-0.19,1.6-0.58,2.28
			c-0.38,0.68-0.91,1.21-1.58,1.58C21.43,10.72,20.68,10.91,19.84,10.91L19.84,10.91L19.84,10.91z M29.07,12.78H38V10.8h-6.59V0.18
			h-2.34V12.78L29.07,12.78z M45.7,12.96c1.28,0,2.44-0.28,3.47-0.84c1.03-0.56,1.84-1.33,2.43-2.31c0.59-0.98,0.88-2.09,0.88-3.33
			c0-1.24-0.29-2.35-0.88-3.33c-0.59-0.98-1.4-1.76-2.43-2.31C48.14,0.28,46.99,0,45.7,0c-1.28,0-2.44,0.28-3.47,0.84
			c-1.03,0.56-1.84,1.33-2.43,2.32c-0.59,0.99-0.88,2.1-0.88,3.32s0.29,2.33,0.88,3.32c0.59,0.99,1.4,1.76,2.43,2.32
			C43.26,12.68,44.42,12.96,45.7,12.96L45.7,12.96L45.7,12.96z M45.7,10.91c-0.84,0-1.6-0.19-2.27-0.57
			c-0.67-0.38-1.2-0.91-1.58-1.58c-0.38-0.68-0.58-1.44-0.58-2.28c0-0.84,0.19-1.6,0.58-2.28c0.38-0.68,0.91-1.21,1.58-1.58
			c0.67-0.38,1.43-0.57,2.27-0.57c0.84,0,1.6,0.19,2.27,0.57c0.67,0.38,1.2,0.91,1.58,1.58c0.38,0.68,0.58,1.44,0.58,2.28
			c0,0.84-0.19,1.6-0.58,2.28c-0.38,0.68-0.91,1.21-1.58,1.58C47.3,10.72,46.54,10.91,45.7,10.91L45.7,10.91L45.7,10.91z
			 M65.7,12.78l-2.9-4.14c0.86-0.34,1.53-0.85,1.99-1.53c0.46-0.68,0.69-1.5,0.69-2.45c0-0.92-0.22-1.72-0.65-2.39
			c-0.43-0.67-1.05-1.19-1.86-1.55s-1.76-0.54-2.85-0.54h-5.18v12.6h2.34V9.11h2.84c0.22,0,0.38-0.01,0.49-0.02l2.57,3.69H65.7
			L65.7,12.78z M63.13,4.66c0,0.8-0.26,1.43-0.79,1.86c-0.53,0.44-1.3,0.66-2.32,0.66h-2.74V2.16h2.74c1.02,0,1.79,0.22,2.32,0.65
			C62.86,3.24,63.13,3.86,63.13,4.66L63.13,4.66L63.13,4.66z M71.96,12.96c1.1,0,2.04-0.17,2.81-0.5c0.77-0.34,1.34-0.79,1.72-1.35
			c0.38-0.56,0.57-1.19,0.57-1.89c0-0.82-0.21-1.46-0.64-1.94c-0.43-0.48-0.94-0.84-1.54-1.07c-0.6-0.23-1.37-0.46-2.3-0.68
			c-0.68-0.17-1.22-0.32-1.62-0.45c-0.4-0.13-0.72-0.31-0.98-0.54c-0.26-0.23-0.39-0.52-0.39-0.88c0-0.52,0.23-0.93,0.67-1.24
			c0.45-0.31,1.14-0.47,2.06-0.47c0.56,0,1.15,0.08,1.75,0.25c0.6,0.17,1.18,0.41,1.73,0.74l0.74-1.82
			C76,0.76,75.35,0.48,74.61,0.29C73.87,0.1,73.11,0,72.34,0c-1.1,0-2.04,0.17-2.8,0.5c-0.76,0.34-1.33,0.79-1.71,1.36
			c-0.38,0.57-0.57,1.2-0.57,1.9c0,0.83,0.21,1.49,0.64,1.97c0.43,0.49,0.94,0.84,1.53,1.07c0.59,0.23,1.37,0.46,2.33,0.68
			c0.68,0.17,1.22,0.32,1.62,0.45c0.4,0.13,0.72,0.32,0.98,0.55c0.26,0.23,0.39,0.53,0.39,0.89c0,0.49-0.23,0.89-0.69,1.19
			c-0.46,0.3-1.16,0.45-2.1,0.45c-0.76,0-1.51-0.13-2.26-0.39c-0.75-0.26-1.38-0.59-1.9-1L67,11.45c0.53,0.46,1.24,0.82,2.15,1.1
			C70.05,12.82,70.99,12.96,71.96,12.96L71.96,12.96L71.96,12.96z"/>
	</g>
	<g>
		<rect x="0.82" y="74.08" class="st0" width="81.64" height="81.64"/>
	</g>
	<g>
		<path class="st1" d="M37.02,119.58l-2.25-3.22c0.67-0.26,1.19-0.66,1.55-1.19c0.36-0.53,0.54-1.17,0.54-1.9
			c0-0.72-0.17-1.34-0.5-1.86c-0.34-0.52-0.82-0.92-1.45-1.2c-0.63-0.28-1.37-0.42-2.22-0.42h-4.03v9.8h1.82v-2.86h2.21
			c0.17,0,0.29,0,0.38-0.01l2,2.87H37.02L37.02,119.58z M35.02,113.27c0,0.63-0.21,1.11-0.62,1.45c-0.41,0.34-1.01,0.51-1.81,0.51
			h-2.13v-3.91h2.13c0.79,0,1.4,0.17,1.81,0.5C34.81,112.16,35.02,112.64,35.02,113.27L35.02,113.27L35.02,113.27z M45.75,115.88
			c0-0.77-0.16-1.44-0.48-2.02c-0.32-0.58-0.77-1.04-1.34-1.36c-0.57-0.32-1.23-0.48-1.95-0.48c-0.74,0-1.4,0.16-1.99,0.49
			c-0.59,0.33-1.05,0.78-1.38,1.36c-0.33,0.58-0.5,1.24-0.5,1.97c0,0.74,0.17,1.4,0.51,1.98c0.34,0.58,0.82,1.04,1.45,1.36
			c0.63,0.33,1.35,0.49,2.17,0.49c0.64,0,1.22-0.1,1.74-0.31c0.51-0.21,0.94-0.51,1.27-0.91l-0.94-1.08
			c-0.53,0.54-1.21,0.81-2.03,0.81c-0.64,0-1.18-0.16-1.62-0.48c-0.43-0.32-0.7-0.76-0.8-1.31h5.87
			C45.74,116.18,45.75,116.01,45.75,115.88L45.75,115.88L45.75,115.88z M41.97,113.42c0.57,0,1.05,0.17,1.43,0.5
			c0.38,0.34,0.61,0.77,0.69,1.32h-4.24c0.08-0.55,0.32-0.99,0.71-1.32C40.94,113.59,41.41,113.42,41.97,113.42L41.97,113.42
			L41.97,113.42z"/>
	</g>
	<g>
		<path class="st1" d="M53.05,109.19v3.84c-0.29-0.34-0.64-0.59-1.05-0.76c-0.41-0.17-0.86-0.25-1.36-0.25
			c-0.72,0-1.36,0.16-1.94,0.48c-0.57,0.32-1.02,0.77-1.35,1.34c-0.33,0.58-0.49,1.25-0.49,2c0,0.76,0.16,1.43,0.49,2.01
			c0.33,0.58,0.78,1.03,1.35,1.35c0.57,0.32,1.22,0.48,1.94,0.48c0.51,0,0.98-0.09,1.41-0.27c0.42-0.18,0.78-0.44,1.07-0.8v0.97
			h1.68v-10.39H53.05L53.05,109.19z M50.85,118.18c-0.42,0-0.8-0.1-1.13-0.29c-0.34-0.19-0.6-0.46-0.8-0.82
			c-0.2-0.35-0.29-0.77-0.29-1.23c0-0.47,0.1-0.88,0.29-1.23c0.2-0.35,0.46-0.63,0.8-0.82c0.34-0.19,0.71-0.29,1.13-0.29
			c0.42,0,0.8,0.1,1.13,0.29c0.34,0.19,0.6,0.46,0.8,0.82c0.2,0.35,0.29,0.77,0.29,1.23c0,0.47-0.1,0.88-0.29,1.23
			c-0.2,0.35-0.46,0.63-0.8,0.82C51.65,118.08,51.27,118.18,50.85,118.18L50.85,118.18L50.85,118.18z"/>
	</g>
	<g>
		<rect x="0.82" y="174.29" class="st2" width="81.64" height="81.64"/>
	</g>
	<g>
		<path class="st1" d="M20.41,219.8c1,0,1.9-0.22,2.7-0.65c0.8-0.43,1.43-1.03,1.89-1.8c0.46-0.77,0.69-1.63,0.69-2.59
			c0-0.96-0.23-1.82-0.69-2.59c-0.46-0.77-1.09-1.37-1.89-1.8c-0.8-0.43-1.7-0.65-2.7-0.65c-1,0-1.9,0.22-2.7,0.65
			c-0.8,0.43-1.43,1.04-1.89,1.81c-0.46,0.77-0.69,1.63-0.69,2.58s0.23,1.81,0.69,2.58c0.46,0.77,1.09,1.37,1.89,1.81
			C18.51,219.58,19.41,219.8,20.41,219.8L20.41,219.8L20.41,219.8z M20.41,218.2c-0.65,0-1.24-0.15-1.76-0.44
			c-0.52-0.29-0.93-0.7-1.23-1.23c-0.3-0.53-0.45-1.12-0.45-1.77c0-0.65,0.15-1.24,0.45-1.77c0.3-0.53,0.71-0.94,1.23-1.23
			c0.52-0.29,1.11-0.44,1.76-0.44c0.65,0,1.24,0.15,1.76,0.44c0.52,0.29,0.93,0.7,1.23,1.23c0.3,0.53,0.45,1.12,0.45,1.77
			c0,0.65-0.15,1.24-0.45,1.77c-0.3,0.53-0.71,0.94-1.23,1.23C21.65,218.06,21.07,218.2,20.41,218.2L20.41,218.2L20.41,218.2z
			 M29.12,213.28v-1.09h-1.67v7.48h1.75v-3.63c0-0.75,0.19-1.32,0.57-1.71c0.38-0.4,0.91-0.6,1.6-0.6c0.12,0,0.26,0.01,0.41,0.04
			v-1.67C30.51,212.1,29.62,212.49,29.12,213.28L29.12,213.28L29.12,213.28z M36.19,212.1c-0.62,0-1.2,0.08-1.75,0.24
			c-0.55,0.16-1.02,0.39-1.41,0.69l0.69,1.27c0.28-0.23,0.62-0.42,1.03-0.55c0.41-0.13,0.82-0.2,1.24-0.2
			c0.62,0,1.08,0.14,1.39,0.42c0.31,0.28,0.47,0.68,0.47,1.2v0.11h-1.93c-1.07,0-1.86,0.2-2.36,0.61c-0.5,0.41-0.75,0.94-0.75,1.62
			c0,0.43,0.11,0.81,0.34,1.15c0.23,0.34,0.55,0.61,0.97,0.8c0.42,0.19,0.91,0.29,1.47,0.29s1.04-0.09,1.43-0.26
			c0.4-0.17,0.7-0.42,0.92-0.75v0.91h1.65v-4.38c0-1.06-0.29-1.86-0.88-2.39C38.13,212.36,37.29,212.1,36.19,212.1L36.19,212.1
			L36.19,212.1z M35.95,218.48c-0.45,0-0.8-0.09-1.05-0.28c-0.25-0.19-0.38-0.44-0.38-0.76c0-0.66,0.5-0.99,1.51-0.99h1.81v0.87
			c-0.14,0.37-0.38,0.66-0.72,0.86C36.78,218.38,36.39,218.48,35.95,218.48L35.95,218.48L35.95,218.48z M46.07,212.1
			c-0.55,0-1.05,0.09-1.48,0.27c-0.44,0.18-0.8,0.44-1.09,0.78v-0.97h-1.67v7.48h1.75v-3.78c0-0.73,0.19-1.29,0.56-1.67
			c0.37-0.39,0.88-0.58,1.53-0.58c0.57,0,1.01,0.17,1.32,0.5c0.31,0.33,0.46,0.82,0.46,1.48v4.06h1.75v-4.28
			c0-1.08-0.28-1.9-0.85-2.45C47.77,212.38,47.02,212.1,46.07,212.1L46.07,212.1L46.07,212.1z M57.18,212.18v0.99
			c-0.3-0.36-0.67-0.63-1.11-0.81c-0.44-0.18-0.94-0.27-1.48-0.27c-0.71,0-1.35,0.15-1.93,0.45c-0.57,0.3-1.03,0.72-1.36,1.27
			c-0.33,0.55-0.5,1.17-0.5,1.88c0,0.71,0.17,1.34,0.5,1.89c0.33,0.55,0.78,0.98,1.36,1.28c0.57,0.3,1.22,0.45,1.93,0.45
			c0.51,0,0.98-0.08,1.41-0.25c0.43-0.17,0.79-0.42,1.09-0.74v0.39c0,0.77-0.19,1.33-0.57,1.71c-0.38,0.37-0.98,0.56-1.81,0.56
			c-0.51,0-1.02-0.08-1.52-0.24c-0.5-0.16-0.91-0.38-1.24-0.65l-0.78,1.32c0.42,0.35,0.95,0.61,1.6,0.79
			c0.64,0.18,1.33,0.27,2.04,0.27c2.69,0,4.03-1.32,4.03-3.95v-6.34H57.18L57.18,212.18z M54.85,217.84c-0.67,0-1.22-0.2-1.65-0.6
			c-0.42-0.4-0.64-0.91-0.64-1.55c0-0.63,0.21-1.13,0.64-1.53c0.42-0.39,0.97-0.59,1.65-0.59c0.66,0,1.21,0.2,1.63,0.59
			c0.42,0.39,0.64,0.9,0.64,1.53c0,0.63-0.21,1.15-0.64,1.55C56.06,217.64,55.51,217.84,54.85,217.84L54.85,217.84L54.85,217.84z
			 M68.17,215.96c0-0.77-0.16-1.44-0.48-2.02c-0.32-0.58-0.77-1.04-1.34-1.36c-0.57-0.32-1.23-0.48-1.95-0.48
			c-0.74,0-1.4,0.16-1.99,0.49c-0.59,0.33-1.05,0.78-1.38,1.37c-0.33,0.58-0.5,1.24-0.5,1.97c0,0.74,0.17,1.4,0.51,1.98
			c0.34,0.58,0.82,1.04,1.45,1.36c0.63,0.33,1.35,0.49,2.17,0.49c0.64,0,1.22-0.1,1.74-0.31c0.51-0.21,0.94-0.51,1.27-0.91
			l-0.94-1.08c-0.53,0.54-1.21,0.81-2.03,0.81c-0.64,0-1.18-0.16-1.62-0.48c-0.43-0.32-0.7-0.76-0.8-1.31h5.87
			C68.16,216.26,68.17,216.09,68.17,215.96L68.17,215.96L68.17,215.96z M64.39,213.5c0.57,0,1.05,0.17,1.43,0.5
			c0.38,0.34,0.61,0.77,0.69,1.32h-4.24c0.08-0.55,0.32-0.99,0.71-1.32C63.35,213.67,63.83,213.5,64.39,213.5L64.39,213.5
			L64.39,213.5z"/>
	</g>
	<g>
		<rect x="0.82" y="274.5" width="81.64" height="81.64"/>
	</g>
	<g>
		<path class="st1" d="M29.84,314.88c0.39-0.21,0.7-0.49,0.92-0.87c0.22-0.37,0.34-0.8,0.34-1.29c0-0.79-0.31-1.42-0.94-1.87
			c-0.63-0.45-1.52-0.68-2.67-0.68H22.9v9.8h4.87c1.25,0,2.2-0.23,2.86-0.69c0.65-0.46,0.98-1.12,0.98-1.97
			c0-0.62-0.16-1.13-0.48-1.55C30.81,315.36,30.38,315.06,29.84,314.88L29.84,314.88L29.84,314.88z M27.29,311.61
			c0.63,0,1.12,0.11,1.46,0.34c0.34,0.23,0.51,0.57,0.51,1.02c0,0.44-0.17,0.77-0.51,1c-0.34,0.23-0.83,0.34-1.46,0.34h-2.58v-2.7
			H27.29L27.29,311.61z M27.66,318.55h-2.94v-2.83h2.94c1.41,0,2.11,0.47,2.11,1.41C29.77,318.08,29.07,318.55,27.66,318.55
			L27.66,318.55L27.66,318.55z M33.37,319.98h1.75v-10.39h-1.75V319.98L33.37,319.98z M40.26,312.42c-0.62,0-1.2,0.08-1.75,0.24
			c-0.55,0.16-1.02,0.39-1.41,0.69l0.69,1.27c0.28-0.23,0.62-0.42,1.03-0.55c0.41-0.13,0.82-0.2,1.24-0.2
			c0.62,0,1.08,0.14,1.39,0.42c0.31,0.28,0.47,0.68,0.47,1.2v0.11h-1.93c-1.07,0-1.86,0.2-2.36,0.61c-0.5,0.41-0.75,0.94-0.75,1.62
			c0,0.43,0.11,0.81,0.34,1.15c0.23,0.34,0.55,0.61,0.97,0.8c0.42,0.19,0.91,0.29,1.47,0.29s1.04-0.09,1.43-0.26
			c0.4-0.17,0.7-0.42,0.92-0.75v0.91h1.65v-4.38c0-1.06-0.29-1.86-0.88-2.39C42.2,312.68,41.36,312.42,40.26,312.42L40.26,312.42
			L40.26,312.42z M40.02,318.8c-0.45,0-0.8-0.09-1.05-0.28c-0.25-0.19-0.38-0.44-0.38-0.76c0-0.66,0.5-0.99,1.51-0.99h1.81v0.87
			c-0.14,0.37-0.38,0.66-0.72,0.86C40.85,318.7,40.46,318.8,40.02,318.8L40.02,318.8L40.02,318.8z M49.31,320.08
			c0.73,0,1.37-0.15,1.93-0.45c0.56-0.3,0.98-0.73,1.27-1.29l-1.34-0.78c-0.21,0.35-0.48,0.6-0.8,0.78
			c-0.32,0.17-0.67,0.26-1.06,0.26c-0.66,0-1.21-0.21-1.63-0.64c-0.42-0.42-0.64-0.99-0.64-1.7c0-0.71,0.21-1.28,0.64-1.7
			c0.43-0.42,0.97-0.64,1.62-0.64c0.38,0,0.73,0.09,1.06,0.26c0.32,0.17,0.59,0.43,0.8,0.78l1.34-0.78
			c-0.28-0.56-0.7-0.99-1.25-1.29c-0.56-0.3-1.2-0.45-1.94-0.45c-0.78,0-1.48,0.16-2.09,0.49c-0.61,0.33-1.09,0.78-1.43,1.36
			c-0.35,0.58-0.52,1.24-0.52,1.97c0,0.74,0.17,1.4,0.52,1.98c0.35,0.58,0.83,1.04,1.44,1.36
			C47.84,319.91,48.54,320.08,49.31,320.08L49.31,320.08L49.31,320.08z M59.65,319.98h2.13l-3.42-4.34l3.12-3.14h-2.1l-3.63,3.36
			v-6.27H54v10.39h1.75v-1.97l1.3-1.23L59.65,319.98L59.65,319.98z"/>
	</g>
	<g>
		<rect x="100.62" y="74.08" class="st3" width="81.64" height="81.64"/>
	</g>
	<g>
		<path class="st1" d="M126.89,109.78h-1.79l-2.9,4.77l-2.87-4.77h-1.95l3.85,6.37v3.43h1.82v-3.46L126.89,109.78L126.89,109.78z
			 M134.91,115.88c0-0.77-0.16-1.44-0.48-2.02c-0.32-0.58-0.77-1.04-1.34-1.36c-0.57-0.32-1.23-0.48-1.95-0.48
			c-0.74,0-1.4,0.16-1.99,0.49c-0.59,0.33-1.05,0.78-1.38,1.36c-0.33,0.58-0.5,1.24-0.5,1.97c0,0.74,0.17,1.4,0.51,1.98
			c0.34,0.58,0.82,1.04,1.45,1.36c0.63,0.33,1.35,0.49,2.17,0.49c0.64,0,1.22-0.1,1.74-0.31c0.51-0.21,0.94-0.51,1.27-0.91
			l-0.94-1.08c-0.53,0.54-1.21,0.81-2.03,0.81c-0.64,0-1.18-0.16-1.62-0.48c-0.43-0.32-0.7-0.76-0.8-1.31h5.87
			C134.9,116.18,134.91,116.01,134.91,115.88L134.91,115.88L134.91,115.88z M131.13,113.42c0.57,0,1.05,0.17,1.43,0.5
			c0.38,0.34,0.61,0.77,0.69,1.32H129c0.08-0.55,0.32-0.99,0.71-1.32C130.1,113.59,130.57,113.42,131.13,113.42L131.13,113.42
			L131.13,113.42z M136.56,119.58h1.75v-10.39h-1.75V119.58L136.56,119.58z M140.58,119.58h1.75v-10.39h-1.75V119.58L140.58,119.58z
			 M147.96,119.68c0.77,0,1.45-0.16,2.06-0.49c0.61-0.33,1.08-0.78,1.42-1.36c0.34-0.58,0.51-1.24,0.51-1.98
			c0-0.74-0.17-1.4-0.51-1.97c-0.34-0.58-0.81-1.03-1.42-1.36c-0.61-0.33-1.29-0.49-2.06-0.49c-0.76,0-1.44,0.16-2.04,0.49
			c-0.61,0.33-1.08,0.78-1.42,1.36c-0.34,0.58-0.51,1.24-0.51,1.97c0,0.74,0.17,1.4,0.51,1.98c0.34,0.58,0.81,1.04,1.42,1.36
			C146.52,119.51,147.2,119.68,147.96,119.68L147.96,119.68L147.96,119.68z M147.96,118.18c-0.64,0-1.17-0.21-1.59-0.64
			c-0.42-0.43-0.62-0.99-0.62-1.69c0-0.7,0.21-1.26,0.62-1.69c0.42-0.43,0.95-0.64,1.59-0.64s1.18,0.21,1.6,0.64
			c0.42,0.43,0.63,0.99,0.63,1.69c0,0.7-0.21,1.26-0.63,1.69C149.13,117.97,148.6,118.18,147.96,118.18L147.96,118.18L147.96,118.18
			z"/>
	</g>
	<g>
		<polygon class="st1" points="163.76,112.1 161.73,117.65 159.71,112.1 158.24,112.1 156.18,117.62 154.21,112.1 152.56,112.1 
			155.3,119.58 156.98,119.58 158.94,114.43 160.87,119.58 162.55,119.58 165.31,112.1 163.76,112.1 		"/>
	</g>
	<g>
		<rect x="200.43" y="74.08" class="st4" width="81.64" height="81.64"/>
	</g>
	<g>
		<path class="st1" d="M229.74,119.58h1.82v-8.26h3.25v-1.54h-8.32v1.54h3.25V119.58L229.74,119.58z M243.01,115.88
			c0-0.77-0.16-1.44-0.48-2.02c-0.32-0.58-0.77-1.04-1.34-1.36c-0.57-0.32-1.23-0.48-1.95-0.48c-0.74,0-1.4,0.16-1.99,0.49
			c-0.59,0.33-1.05,0.78-1.38,1.36c-0.33,0.58-0.5,1.24-0.5,1.97c0,0.74,0.17,1.4,0.51,1.98c0.34,0.58,0.82,1.04,1.45,1.36
			c0.63,0.33,1.35,0.49,2.17,0.49c0.64,0,1.22-0.1,1.74-0.31c0.51-0.21,0.94-0.51,1.27-0.91l-0.94-1.08
			c-0.53,0.54-1.21,0.81-2.03,0.81c-0.64,0-1.18-0.16-1.62-0.48c-0.43-0.32-0.7-0.76-0.8-1.31h5.87
			C243,116.18,243.01,116.01,243.01,115.88L243.01,115.88L243.01,115.88z M239.23,113.42c0.57,0,1.05,0.17,1.43,0.5
			c0.38,0.34,0.61,0.77,0.69,1.32h-4.24c0.08-0.55,0.32-0.99,0.71-1.32C238.2,113.59,238.67,113.42,239.23,113.42L239.23,113.42
			L239.23,113.42z M247.52,112.02c-0.62,0-1.2,0.08-1.75,0.24c-0.55,0.16-1.02,0.39-1.41,0.69l0.69,1.27
			c0.28-0.23,0.62-0.42,1.03-0.55c0.41-0.13,0.82-0.2,1.24-0.2c0.62,0,1.08,0.14,1.39,0.42c0.31,0.28,0.47,0.68,0.47,1.2v0.11h-1.93
			c-1.07,0-1.86,0.2-2.36,0.61c-0.5,0.41-0.75,0.95-0.75,1.62c0,0.43,0.11,0.81,0.34,1.15c0.23,0.34,0.55,0.61,0.97,0.8
			s0.91,0.29,1.47,0.29s1.04-0.09,1.43-0.26c0.4-0.17,0.7-0.42,0.92-0.75v0.91h1.65v-4.38c0-1.06-0.29-1.86-0.88-2.39
			C249.46,112.28,248.62,112.02,247.52,112.02L247.52,112.02L247.52,112.02z M247.28,118.4c-0.45,0-0.8-0.09-1.05-0.28
			c-0.25-0.19-0.38-0.44-0.38-0.76c0-0.66,0.5-0.99,1.51-0.99h1.81v0.87c-0.14,0.37-0.38,0.66-0.72,0.86
			C248.11,118.3,247.72,118.4,247.28,118.4L247.28,118.4L247.28,118.4z M253.13,119.58h1.75v-10.39h-1.75V119.58L253.13,119.58z"/>
	</g>
	<g>
		<rect x="100.62" y="274.5" class="st5" width="81.64" height="81.64"/>
	</g>
	<g>
		<path class="st1" d="M127.58,318.02c-0.58,0.34-1.25,0.5-2.02,0.5c-0.68,0-1.29-0.15-1.83-0.45c-0.54-0.3-0.96-0.71-1.26-1.23
			c-0.3-0.52-0.45-1.11-0.45-1.76c0-0.67,0.15-1.27,0.45-1.79c0.3-0.52,0.72-0.93,1.26-1.22c0.54-0.29,1.15-0.43,1.84-0.43
			c1.05,0,1.96,0.37,2.7,1.12l1.15-1.12c-0.46-0.52-1.02-0.92-1.69-1.19c-0.67-0.27-1.42-0.41-2.24-0.41
			c-1.01,0-1.92,0.22-2.72,0.65c-0.81,0.43-1.44,1.03-1.9,1.8c-0.46,0.77-0.69,1.63-0.69,2.59c0,0.96,0.23,1.82,0.69,2.59
			c0.46,0.77,1.09,1.37,1.89,1.8c0.8,0.43,1.7,0.65,2.7,0.65c0.71,0,1.4-0.11,2.07-0.32c0.67-0.21,1.26-0.52,1.76-0.92v-3.91h-1.72
			V318.02L127.58,318.02z M133.21,313.6v-1.09h-1.67v7.48h1.75v-3.63c0-0.75,0.19-1.32,0.57-1.71c0.38-0.4,0.91-0.6,1.6-0.6
			c0.12,0,0.26,0.01,0.41,0.04v-1.67C134.6,312.42,133.71,312.81,133.21,313.6L133.21,313.6L133.21,313.6z M144.46,316.28
			c0-0.77-0.16-1.44-0.48-2.02c-0.32-0.58-0.77-1.04-1.34-1.36c-0.57-0.32-1.23-0.48-1.95-0.48c-0.74,0-1.4,0.16-1.99,0.49
			c-0.59,0.33-1.05,0.78-1.38,1.36c-0.33,0.58-0.5,1.24-0.5,1.97c0,0.74,0.17,1.4,0.51,1.98c0.34,0.58,0.82,1.04,1.45,1.36
			c0.63,0.33,1.35,0.49,2.17,0.49c0.64,0,1.22-0.1,1.74-0.31c0.51-0.21,0.94-0.51,1.27-0.91l-0.94-1.08
			c-0.53,0.54-1.21,0.81-2.03,0.81c-0.64,0-1.18-0.16-1.62-0.48c-0.43-0.32-0.7-0.76-0.8-1.31h5.87
			C144.45,316.58,144.46,316.41,144.46,316.28L144.46,316.28L144.46,316.28z M140.68,313.82c0.57,0,1.05,0.17,1.43,0.5
			c0.38,0.34,0.61,0.77,0.69,1.32h-4.24c0.08-0.55,0.32-0.99,0.71-1.32C139.65,313.99,140.12,313.82,140.68,313.82L140.68,313.82
			L140.68,313.82z M153.18,316.28c0-0.77-0.16-1.44-0.48-2.02c-0.32-0.58-0.77-1.04-1.34-1.36c-0.57-0.32-1.23-0.48-1.95-0.48
			c-0.74,0-1.4,0.16-1.99,0.49c-0.59,0.33-1.05,0.78-1.38,1.36c-0.33,0.58-0.5,1.24-0.5,1.97c0,0.74,0.17,1.4,0.51,1.98
			c0.34,0.58,0.82,1.04,1.45,1.36c0.63,0.33,1.35,0.49,2.17,0.49c0.64,0,1.22-0.1,1.74-0.31c0.51-0.21,0.94-0.51,1.27-0.91
			l-0.94-1.08c-0.53,0.54-1.21,0.81-2.03,0.81c-0.64,0-1.18-0.16-1.62-0.48c-0.43-0.32-0.7-0.76-0.8-1.31h5.87
			C153.17,316.58,153.18,316.41,153.18,316.28L153.18,316.28L153.18,316.28z M149.4,313.82c0.57,0,1.05,0.17,1.43,0.5
			c0.38,0.34,0.61,0.77,0.69,1.32h-4.24c0.08-0.55,0.32-0.99,0.71-1.32C148.37,313.99,148.84,313.82,149.4,313.82L149.4,313.82
			L149.4,313.82z M159.12,312.42c-0.55,0-1.05,0.09-1.48,0.27c-0.44,0.18-0.8,0.44-1.09,0.78v-0.97h-1.67v7.48h1.75v-3.78
			c0-0.73,0.19-1.29,0.56-1.67c0.37-0.39,0.88-0.58,1.53-0.58c0.57,0,1.01,0.17,1.32,0.5c0.31,0.33,0.46,0.82,0.46,1.48v4.06h1.75
			v-4.28c0-1.08-0.28-1.9-0.85-2.45C160.82,312.7,160.06,312.42,159.12,312.42L159.12,312.42L159.12,312.42z"/>
	</g>
	<g>
		<rect x="200.43" y="174.29" class="st6" width="81.64" height="81.64"/>
	</g>
	<g>
		<path class="st1" d="M233.07,214.56c0.39-0.21,0.7-0.49,0.92-0.87c0.22-0.37,0.34-0.8,0.34-1.29c0-0.79-0.31-1.42-0.94-1.87
			c-0.63-0.45-1.52-0.68-2.67-0.68h-4.59v9.8H231c1.25,0,2.2-0.23,2.86-0.69c0.65-0.46,0.98-1.12,0.98-1.97
			c0-0.62-0.16-1.13-0.48-1.55C234.04,215.04,233.61,214.74,233.07,214.56L233.07,214.56L233.07,214.56z M230.52,211.29
			c0.63,0,1.12,0.11,1.46,0.34c0.34,0.23,0.51,0.57,0.51,1.01c0,0.44-0.17,0.77-0.51,1c-0.34,0.23-0.83,0.34-1.46,0.34h-2.58v-2.7
			H230.52L230.52,211.29z M230.88,218.23h-2.94v-2.83h2.94c1.41,0,2.11,0.47,2.11,1.41C233,217.76,232.29,218.23,230.88,218.23
			L230.88,218.23L230.88,218.23z M236.58,219.66h1.75v-10.39h-1.75V219.66L236.58,219.66z M246.09,212.18v3.78
			c0,0.73-0.18,1.29-0.55,1.67c-0.37,0.39-0.87,0.58-1.49,0.58c-0.56,0-0.99-0.17-1.29-0.5c-0.3-0.33-0.46-0.83-0.46-1.5v-4.03
			h-1.75v4.27c0,1.09,0.29,1.92,0.86,2.47c0.57,0.56,1.36,0.83,2.36,0.83c0.49,0,0.94-0.09,1.36-0.27c0.42-0.18,0.77-0.44,1.05-0.78
			v0.95h1.67v-7.48H246.09L246.09,212.18z M257.13,215.96c0-0.77-0.16-1.44-0.48-2.02c-0.32-0.58-0.77-1.04-1.34-1.36
			c-0.57-0.32-1.22-0.48-1.95-0.48c-0.74,0-1.4,0.16-1.99,0.49c-0.59,0.33-1.05,0.78-1.38,1.37c-0.33,0.58-0.5,1.24-0.5,1.97
			c0,0.74,0.17,1.4,0.51,1.98c0.34,0.58,0.82,1.04,1.45,1.36c0.63,0.33,1.35,0.49,2.17,0.49c0.64,0,1.22-0.1,1.74-0.31
			c0.51-0.21,0.94-0.51,1.27-0.91l-0.94-1.08c-0.53,0.54-1.21,0.81-2.03,0.81c-0.64,0-1.18-0.16-1.62-0.48
			c-0.43-0.32-0.7-0.76-0.8-1.31h5.87C257.13,216.26,257.13,216.09,257.13,215.96L257.13,215.96L257.13,215.96z M253.35,213.5
			c0.57,0,1.05,0.17,1.43,0.5c0.38,0.34,0.61,0.77,0.69,1.32h-4.24c0.08-0.55,0.32-0.99,0.71-1.32
			C252.32,213.67,252.79,213.5,253.35,213.5L253.35,213.5L253.35,213.5z"/>
	</g>
	<g>
		<rect x="200.43" y="274.5" class="st7" width="81.64" height="81.64"/>
	</g>
	<g>
		<path class="st6" d="M227.97,310.18h-4.03v9.8h1.82v-2.83h2.21c0.85,0,1.59-0.14,2.22-0.42c0.63-0.28,1.11-0.68,1.45-1.21
			c0.34-0.53,0.5-1.15,0.5-1.86c0-0.72-0.17-1.34-0.5-1.86c-0.34-0.52-0.82-0.92-1.45-1.2
			C229.56,310.32,228.82,310.18,227.97,310.18L227.97,310.18L227.97,310.18z M227.89,315.61h-2.13v-3.89h2.13
			c0.79,0,1.4,0.17,1.81,0.5c0.41,0.34,0.62,0.82,0.62,1.44c0,0.63-0.21,1.11-0.62,1.44C229.28,315.44,228.68,315.61,227.89,315.61
			L227.89,315.61L227.89,315.61z M240.93,316.28c0-0.77-0.16-1.44-0.48-2.02c-0.32-0.58-0.77-1.04-1.34-1.36
			c-0.57-0.32-1.23-0.48-1.95-0.48c-0.74,0-1.4,0.16-1.99,0.49c-0.59,0.33-1.05,0.78-1.38,1.36c-0.33,0.58-0.5,1.24-0.5,1.97
			c0,0.74,0.17,1.4,0.51,1.98c0.34,0.58,0.82,1.04,1.45,1.36c0.63,0.33,1.35,0.49,2.17,0.49c0.64,0,1.22-0.1,1.74-0.31
			c0.51-0.21,0.94-0.51,1.27-0.91l-0.94-1.08c-0.53,0.54-1.21,0.81-2.03,0.81c-0.64,0-1.18-0.16-1.62-0.48
			c-0.43-0.32-0.7-0.76-0.8-1.31h5.87C240.92,316.58,240.93,316.41,240.93,316.28L240.93,316.28L240.93,316.28z M237.15,313.82
			c0.57,0,1.05,0.17,1.43,0.5c0.38,0.34,0.61,0.77,0.69,1.32h-4.24c0.08-0.55,0.32-0.99,0.71-1.32
			C236.12,313.99,236.59,313.82,237.15,313.82L237.15,313.82L237.15,313.82z M245.44,312.42c-0.62,0-1.2,0.08-1.75,0.24
			c-0.55,0.16-1.02,0.39-1.41,0.69l0.69,1.27c0.28-0.23,0.62-0.42,1.03-0.55c0.41-0.13,0.82-0.2,1.24-0.2
			c0.62,0,1.08,0.14,1.39,0.42c0.31,0.28,0.47,0.68,0.47,1.2v0.11h-1.93c-1.07,0-1.86,0.2-2.36,0.61c-0.5,0.41-0.75,0.94-0.75,1.62
			c0,0.43,0.11,0.81,0.34,1.15c0.23,0.34,0.55,0.61,0.97,0.8c0.42,0.19,0.91,0.29,1.47,0.29s1.04-0.09,1.43-0.26
			c0.4-0.17,0.7-0.42,0.92-0.75v0.91h1.65v-4.38c0-1.06-0.29-1.86-0.88-2.39C247.39,312.68,246.54,312.42,245.44,312.42
			L245.44,312.42L245.44,312.42z M245.2,318.8c-0.45,0-0.8-0.09-1.05-0.28c-0.25-0.19-0.38-0.44-0.38-0.76
			c0-0.66,0.5-0.99,1.51-0.99h1.81v0.87c-0.14,0.37-0.38,0.66-0.72,0.86C246.03,318.7,245.64,318.8,245.2,318.8L245.2,318.8
			L245.2,318.8z M252.72,313.6v-1.09h-1.67v7.48h1.75v-3.63c0-0.75,0.19-1.32,0.57-1.71c0.38-0.4,0.91-0.6,1.6-0.6
			c0.12,0,0.26,0.01,0.41,0.04v-1.67C254.11,312.42,253.23,312.81,252.72,313.6L252.72,313.6L252.72,313.6z"/>
	</g>
	<g>
		<polygon class="st6" points="257.02,319.98 258.77,319.98 258.77,309.59 257.02,309.59 257.02,319.98 		"/>
	</g>
</g>
</svg>
