<svg xmlns="http://www.w3.org/2000/svg" viewBox="0 0 220.3 283.3"><path d="M64.4 254.2v-15.7h5c.8 0 1.6.1 2.2.2.7.1 1.3.3 1.8.6s.9.7 1.2 1.2.4 1.1.4 1.8c0 .8-.2 1.4-.6 2.1-.4.6-.9 1.1-1.6 1.3v.1c.9.2 1.6.6 2.1 1.2.6.6.9 1.4.9 2.5 0 .8-.2 1.5-.5 2-.3.6-.7 1.1-1.3 1.4-.5.4-1.2.7-1.9.9s-1.5.3-2.4.3l-5.3.1zm2.7-9.2h2c1.1 0 1.9-.2 2.4-.6s.7-.9.7-1.6c0-.8-.3-1.3-.8-1.6s-1.3-.5-2.3-.5h-2v4.3zm0 7h2.3c1.1 0 2-.2 2.7-.6.6-.4.9-1.1.9-2 0-.8-.3-1.4-.9-1.8s-1.5-.6-2.7-.6h-2.3v5zm16.3 2.4c-.8 0-1.6-.1-2.3-.4s-1.3-.7-1.8-1.2-.9-1.2-1.2-1.9c-.3-.8-.4-1.6-.4-2.6s.2-1.8.5-2.6.7-1.4 1.2-1.9a6.57 6.57 0 0 1 1.7-1.2c.7-.3 1.3-.4 2-.4.8 0 1.5.1 2.1.4s1.1.7 1.5 1.1c.4.5.7 1.1.9 1.8s.3 1.4.3 2.3v.8c0 .2 0 .4-.1.6h-7.5c.1 1.1.5 1.9 1.1 2.4.6.6 1.4.8 2.4.8.5 0 1-.1 1.4-.2l1.3-.6.9 1.7c-.6.4-1.2.7-1.9.9-.6.1-1.3.2-2.1.2zm-3.1-7.2h5.2c0-.9-.2-1.6-.6-2.1s-1-.8-1.8-.8c-.7 0-1.3.2-1.8.7s-.9 1.2-1 2.2zm14.2 7.2c-.7 0-1.3-.1-1.7-.3-.5-.2-.8-.5-1.1-.9s-.5-.8-.6-1.3-.2-1.1-.2-1.7v-5.6H89v-2.1l1.8-.1.3-3.2h2.3v3.2h3v2.2h-3v5.6c0 1.4.6 2.1 1.7 2.1.2 0 .4 0 .6-.1.2 0 .4-.1.6-.2l.5 2c-.3.1-.7.2-1.1.3s-.8.1-1.2.1zm6.4-.2l-3.1-11.8h2.8l1.4 6.1.6 3.4h.1l.3-1.7c.1-.6.3-1.1.4-1.7l1.5-6.1h2.5l1.6 6.1c.1.6.3 1.1.4 1.7s.3 1.1.4 1.7h.1l.6-3.4 1.4-6.1h2.6l-3 11.8h-3.3l-1.4-5.5c-.1-.6-.2-1.1-.4-1.7-.1-.6-.2-1.1-.4-1.8h-.1l-.3 1.8c-.1.6-.2 1.1-.4 1.7l-1.3 5.5h-3zm20.9.2c-.8 0-1.6-.1-2.3-.4s-1.3-.7-1.8-1.2-.9-1.2-1.2-1.9c-.3-.8-.4-1.6-.4-2.6s.2-1.8.5-2.6.7-1.4 1.2-1.9a6.57 6.57 0 0 1 1.7-1.2c.7-.3 1.3-.4 2-.4.8 0 1.5.1 2.1.4s1.1.7 1.5 1.1c.4.5.7 1.1.9 1.8s.3 1.4.3 2.3v.8c0 .2 0 .4-.1.6h-7.5c.1 1.1.5 1.9 1.1 2.4.6.6 1.4.8 2.4.8.5 0 1-.1 1.4-.2l1.3-.6.9 1.7c-.6.4-1.2.7-1.9.9l-2.1.2zm-3.2-7.2h5.2c0-.9-.2-1.6-.6-2.1s-1-.8-1.8-.8c-.7 0-1.3.2-1.8.7s-.8 1.2-1 2.2zm15.3 7.2c-.8 0-1.6-.1-2.3-.4s-1.3-.7-1.8-1.2-.9-1.2-1.2-1.9c-.3-.8-.4-1.6-.4-2.6s.2-1.8.5-2.6.7-1.4 1.2-1.9a6.57 6.57 0 0 1 1.7-1.2c.7-.3 1.3-.4 2-.4.8 0 1.5.1 2.1.4s1.1.7 1.5 1.1c.4.5.7 1.1.9 1.8s.3 1.4.3 2.3v.8c0 .2 0 .4-.1.6h-7.5c.1 1.1.5 1.9 1.1 2.4.6.6 1.4.8 2.4.8.5 0 1-.1 1.4-.2l1.3-.6.9 1.7c-.6.4-1.2.7-1.9.9-.6.1-1.3.2-2.1.2zm-3.1-7.2h5.2c0-.9-.2-1.6-.6-2.1s-1-.8-1.8-.8c-.7 0-1.3.2-1.8.7-.6.5-.9 1.2-1 2.2zm10.2 7v-11.8h2.3l.2 1.6h.1c.5-.5 1.1-.9 1.7-1.3s1.3-.6 2.2-.6c1.3 0 2.2.4 2.8 1.2s.9 1.9.9 3.4v7.4h-2.8v-7c0-1-.1-1.7-.4-2.1s-.8-.6-1.4-.6c-.5 0-1 .1-1.4.4-.4.2-.8.6-1.3 1.1v8.2H141v.1zm-80.6 15.6l-.6 1.9h4l-.6-1.9c-.3-.8-.5-1.7-.7-2.6l-.7-2.6h-.1l-.7 2.6c-.1.9-.4 1.8-.6 2.6zm-5.3 8.4l5.1-15.7h3.3l5.1 15.7h-2.9l-1.2-4.2h-5.3l-1.2 4.2h-2.9zm19.3 5.1c-.7 0-1.4-.1-2-.2s-1.1-.3-1.5-.6-.8-.6-1-1-.4-.8-.4-1.3.1-1 .4-1.4.7-.8 1.2-1.1v-.1c-.3-.2-.6-.4-.8-.8-.2-.3-.3-.7-.3-1.2s.1-.9.4-1.2c.3-.4.6-.7.9-.9v-.1c-.4-.3-.8-.7-1.1-1.2s-.5-1.2-.5-1.9.1-1.3.4-1.8.6-1 1-1.3c.4-.4.9-.6 1.5-.8a5.23 5.23 0 0 1 1.8-.3c.3 0 .6 0 .9.1.3 0 .6.1.8.2h4.2v2h-2.2c.2.2.4.5.5.9.1.3.2.7.2 1.1 0 .7-.1 1.2-.4 1.7a2.73 2.73 0 0 1-.9 1.2c-.4.3-.9.6-1.4.8s-1.1.3-1.7.3c-.3 0-.5 0-.8-.1s-.5-.1-.8-.2c-.2.2-.3.3-.4.5s-.1.4-.1.6c0 .3.1.6.4.8s.8.3 1.5.3h2.1c1.4 0 2.5.2 3.2.7.7.4 1.1 1.2 1.1 2.2 0 .6-.2 1.1-.5 1.6s-.7.9-1.2 1.3-1.2.7-2 .9c-.7.2-1.6.3-2.5.3zm.1-10.6c.6 0 1-.2 1.4-.6s.6-1 .6-1.8c0-.7-.2-1.3-.6-1.7s-.9-.6-1.4-.6c-.6 0-1.1.2-1.5.6s-.6 1-.6 1.7c0 .8.2 1.4.6 1.8s.9.6 1.5.6zm.3 8.9c1 0 1.7-.2 2.3-.6s.9-.8.9-1.3-.2-.8-.6-.9c-.4-.2-.9-.2-1.5-.2h-1.6a6.96 6.96 0 0 1-1.6-.2c-.6.5-.9 1-.9 1.6 0 .5.3.9.8 1.2.5.2 1.3.4 2.2.4zm12.6-3.2c-.8 0-1.6-.1-2.3-.4s-1.3-.7-1.8-1.2-.9-1.2-1.2-1.9c-.3-.8-.4-1.6-.4-2.6s.2-1.8.5-2.6.7-1.4 1.2-1.9a6.57 6.57 0 0 1 1.7-1.2c.7-.3 1.3-.4 2-.4.8 0 1.5.1 2.1.4s1.1.7 1.5 1.1c.4.5.7 1.1.9 1.8s.3 1.4.3 2.3v.8c0 .2 0 .4-.1.6h-7.5c.1 1.1.5 1.9 1.1 2.4.6.6 1.4.8 2.4.8.5 0 1-.1 1.4-.2l1.3-.6.9 1.7c-.6.4-1.2.7-1.9.9l-2.1.2zm-3.2-7.2h5.2c0-.9-.2-1.6-.6-2.1s-1-.8-1.8-.8c-.7 0-1.3.2-1.8.7s-.8 1.2-1 2.2zm13.6 7.2c-.8 0-1.6-.2-2.4-.5s-1.5-.7-2-1.2l1.3-1.8c.5.4 1 .7 1.6 1 .5.2 1.1.3 1.7.3s1.1-.1 1.4-.4.5-.6.5-1c0-.2-.1-.4-.2-.6s-.3-.4-.6-.5c-.2-.1-.5-.3-.8-.4s-.6-.3-.9-.4c-.4-.1-.8-.3-1.2-.5s-.8-.4-1.1-.7-.6-.6-.8-.9c-.2-.4-.3-.8-.3-1.3 0-1 .4-1.9 1.1-2.5.8-.7 1.8-1 3.1-1 .8 0 1.5.1 2.2.4s1.2.6 1.7 1l-1.3 1.7c-.4-.3-.8-.5-1.3-.7a3.08 3.08 0 0 0-1.3-.3c-.6 0-1 .1-1.3.4-.3.2-.4.5-.4.9 0 .2.1.4.2.6s.3.3.6.4c.2.1.5.2.8.4l.9.3c.4.1.8.3 1.2.5s.8.4 1.1.7.6.6.8 1 .3.8.3 1.4c0 .5-.1 1-.3 1.4s-.5.8-.9 1.1-.9.6-1.4.8c-.7.3-1.3.4-2 .4zm10.9-.2v-1.6l2.8-2.8 2.2-2.4c.6-.7 1.1-1.4 1.4-2.1.3-.6.5-1.2.5-1.8 0-.8-.2-1.5-.6-1.9-.4-.5-1.1-.7-1.9-.7-.6 0-1.1.2-1.6.5s-.9.7-1.3 1.2l-1.5-1.5a6.88 6.88 0 0 1 2.2-1.7c.8-.4 1.7-.6 2.7-.6.7 0 1.4.1 2 .3s1.1.5 1.5 1c.4.4.7.9 1 1.5.2.6.4 1.2.4 1.9s-.2 1.4-.5 2.1-.7 1.4-1.2 2.1l-1.7 2.2-2.1 2.3c.4 0 .8-.1 1.3-.1s.9-.1 1.2-.1h3.7v2.3l-10.5-.1zm17.2.2c-1.2 0-2.3-.2-3.1-.6s-1.5-.9-2.1-1.5l1.3-1.8 1.6 1.2c.6.3 1.2.5 2 .5.9 0 1.6-.3 2.1-.8.6-.5.8-1.2.8-2.2 0-.9-.3-1.6-.8-2.1s-1.2-.7-2-.7a3.73 3.73 0 0 0-1.2.2c-.3.1-.7.3-1.2.6l-1.3-.8.5-7.5h8.1v2.3h-5.7l-.3 3.7c.3-.2.6-.3.9-.4s.7-.1 1.1-.1c.7 0 1.3.1 1.8.3.6.2 1.1.5 1.5.9s.8.9 1 1.5c.3.6.4 1.3.4 2.1s-.2 1.6-.5 2.2c-.3.7-.7 1.2-1.2 1.7-.5.4-1.1.8-1.7 1s-1.3.3-2 .3zm7.5-5.3v-2h5.7v2h-5.7zm12.5 5.3c-1.2 0-2.3-.2-3.1-.6s-1.5-.9-2.1-1.5l1.3-1.8c.5.5 1 .9 1.6 1.2s1.3.5 2 .5c.8 0 1.5-.2 2-.6s.8-1 .8-1.7c0-.4-.1-.8-.2-1.1s-.4-.6-.7-.8-.8-.4-1.4-.5-1.3-.2-2.2-.2v-2c.8 0 1.4-.1 1.9-.2s.9-.3 1.2-.5.5-.5.7-.8c.1-.3.2-.6.2-1 0-.6-.2-1.1-.6-1.5s-.9-.6-1.7-.6c-.6 0-1.2.1-1.7.4s-1 .6-1.4 1l-1.4-1.7a9.61 9.61 0 0 1 2.1-1.4c.8-.4 1.6-.5 2.5-.5.7 0 1.4.1 2 .3s1.1.4 1.6.8a3.25 3.25 0 0 1 1 1.3c.2.5.4 1.1.4 1.7 0 .9-.2 1.6-.7 2.2s-1.1 1-1.9 1.3v.1c.9.2 1.7.7 2.3 1.3s.9 1.5.9 2.5c0 .7-.1 1.3-.4 1.9a7.55 7.55 0 0 1-1.1 1.4c-.5.4-1 .7-1.7.9l-2.2.2zm12.3 0c-1.2 0-2.3-.2-3.1-.6s-1.5-.9-2.1-1.5l1.3-1.8 1.6 1.2c.6.3 1.2.5 2 .5.9 0 1.6-.3 2.1-.8.6-.5.8-1.2.8-2.2 0-.9-.3-1.6-.8-2.1s-1.2-.7-2-.7a3.73 3.73 0 0 0-1.2.2c-.3.1-.7.3-1.2.6l-1.3-.8.5-7.5h8.1v2.3H157l-.3 3.7c.3-.2.6-.3.9-.4s.7-.1 1.1-.1c.7 0 1.3.1 1.8.3.6.2 1.1.5 1.5.9s.8.9 1 1.5c.3.6.4 1.3.4 2.1s-.2 1.6-.5 2.2c-.3.7-.7 1.2-1.2 1.7s-1.1.8-1.7 1c-.5.2-1.1.3-1.8.3z"/><path d="M110.2 220.4C49.5 220.4 0 170.9 0 110.2S49.5 0 110.2 0s110.2 49.4 110.2 110.2c0 60.7-49.5 110.2-110.2 110.2zm0-191.6c-44.9 0-81.4 36.5-81.4 81.4s36.5 81.4 81.4 81.4 81.4-36.5 81.4-81.4-36.5-81.4-81.4-81.4z" fill="#484756"/><path d="M181.2 194.5l-18.6-21.9c12.9-10.9 22-25.2 26.3-41.4 4.3-16.3 3.5-33.2-2.2-48.8-5.8-15.8-16.1-29.3-29.9-38.9-13.7-9.6-29.8-14.7-46.6-14.7V0c22.8 0 44.6 6.9 63.2 19.9a110.36 110.36 0 0 1 40.3 52.5c7.8 21.2 8.8 44 3 66.1-5.9 22-18.2 41.3-35.5 56z" fill="#fd920f"/><circle cx="110.2" cy="110.2" r="68" fill="#ed7d31"/><path d="M71.7 95.6c1.4 0 2.7.2 3.9.6a8.72 8.72 0 0 1 3 1.7c.8.7 1.4 1.6 1.9 2.5.4 1 .7 2 .7 3.2 0 1-.1 1.9-.3 2.6s-.5 1.4-1 2c-.4.6-.9 1-1.6 1.4-.6.4-1.3.7-2.1 1 1.9.6 3.3 1.5 4.2 2.7s1.4 2.7 1.4 4.5c0 1.6-.3 2.9-.9 4.1s-1.4 2.2-2.3 3a10.08 10.08 0 0 1-3.4 1.8c-1.3.4-2.6.6-4.1.6a16.42 16.42 0 0 1-4.1-.5c-1.2-.4-2.2-.9-3-1.6s-1.6-1.6-2.2-2.6-1.1-2.2-1.6-3.5l2.3-1c.4-.2.8-.3 1.2-.3s.7.1 1 .2c.3.2.5.4.7.7.3.5.5 1 .8 1.5s.7.9 1.1 1.3.9.7 1.5.9 1.3.3 2.1.3c.9 0 1.7-.1 2.4-.4s1.2-.7 1.7-1.2.8-1 1-1.6.3-1.2.3-1.8c0-.7-.1-1.4-.2-2-.2-.6-.5-1.1-1-1.6-.5-.4-1.2-.8-2.2-1-.9-.2-2.2-.4-3.8-.4v-3.8c1.3 0 2.4-.1 3.3-.4.9-.2 1.5-.5 2-.9s.9-.9 1.1-1.5.3-1.2.3-1.9c0-1.5-.4-2.6-1.2-3.3-.8-.8-1.9-1.1-3.3-1.1-1.3 0-2.3.3-3.1 1s-1.4 1.5-1.7 2.6c-.2.5-.4.9-.7 1.2-.3.2-.7.3-1.2.3-.2 0-.5 0-.7-.1l-2.8-.5c.2-1.5.6-2.8 1.2-3.9s1.4-2.1 2.3-2.8c.9-.8 2-1.3 3.2-1.7l3.9-.3zm24.1 31.9c-1.6 0-3.1-.2-4.4-.6s-2.5-1-3.4-1.8-1.7-1.7-2.2-2.9c-.5-1.1-.8-2.4-.8-3.7 0-1.8.5-3.4 1.4-4.7s2.3-2.2 4.2-2.8c-1.5-.6-2.7-1.5-3.4-2.7s-1.1-2.6-1.1-4.2c0-1.2.2-2.3.7-3.3s1.2-1.9 2-2.7c.9-.8 1.9-1.4 3.1-1.8s2.5-.6 4-.6 2.8.2 3.9.6c1.2.4 2.2 1 3.1 1.8.9.7 1.5 1.6 2 2.7.5 1 .7 2.1.7 3.3 0 1.6-.4 3-1.1 4.2-.8 1.2-1.9 2.1-3.4 2.7 1.9.6 3.3 1.6 4.2 2.8.9 1.3 1.4 2.8 1.4 4.7 0 1.4-.3 2.6-.8 3.7s-1.2 2.1-2.2 2.9c-.9.8-2.1 1.4-3.4 1.8-1.5.3-2.9.6-4.5.6zm0-4.2c.9 0 1.6-.1 2.3-.4s1.2-.6 1.7-1.1c.5-.4.8-1 1-1.6s.3-1.3.3-2c0-1.7-.5-3-1.4-3.9s-2.3-1.3-3.9-1.3c-1.7 0-3 .4-3.9 1.3s-1.4 2.2-1.4 3.9c0 .7.1 1.4.3 2s.6 1.1 1 1.6c.5.4 1 .8 1.7 1.1.6.3 1.4.4 2.3.4zm0-14.4c.9 0 1.6-.1 2.2-.4s1.1-.6 1.4-1.1c.4-.5.6-1 .8-1.6s.2-1.2.2-1.8-.1-1.1-.3-1.7c-.2-.5-.5-1-.8-1.4a5.02 5.02 0 0 0-1.4-1c-.6-.2-1.3-.4-2-.4s-1.5.1-2 .4a2.98 2.98 0 0 0-1.4 1c-.4.4-.7.9-.8 1.4-.2.5-.3 1.1-.3 1.7s.1 1.2.2 1.8c.2.6.4 1.1.8 1.6.4.4.8.8 1.4 1.1.4.3 1.1.4 2 .4zm14 15.3c0-.4.1-.9.2-1.3.2-.4.4-.7.7-1s.7-.5 1.1-.7.8-.3 1.3-.3a3.08 3.08 0 0 1 1.3.3c.4.2.7.4 1 .7s.5.6.7 1 .3.8.3 1.3-.1.9-.3 1.3-.4.7-.7 1-.6.5-1 .7-.8.3-1.3.3-.9-.1-1.3-.3-.8-.4-1.1-.7-.5-.6-.7-1c-.1-.4-.2-.9-.2-1.3zm19.6-9.5c-1.1 0-2.1-.2-3.2-.6-1-.4-2-.9-2.8-1.7s-1.5-1.7-1.9-2.8c-.5-1.1-.7-2.4-.7-3.9 0-1.4.3-2.7.8-3.9s1.2-2.3 2.2-3.2c.9-.9 2.1-1.6 3.4-2.2a12.17 12.17 0 0 1 4.3-.8c1.6 0 3 .3 4.3.8s2.4 1.2 3.3 2.1 1.6 2 2.1 3.3.7 2.7.7 4.2c0 1-.1 1.9-.3 2.7-.2.9-.4 1.7-.7 2.5s-.7 1.6-1.1 2.3l-1.4 2.3-7.1 10.2c-.2.3-.6.6-1.1.9-.5.2-1 .3-1.6.3h-4.9l9.7-12.1c.2-.3.5-.6.7-.9l.6-.9c-.7.5-1.5.8-2.4 1.1-1.1.2-2 .3-2.9.3zm7.2-9.4c0-.8-.1-1.6-.4-2.3s-.6-1.2-1.1-1.7-1-.8-1.7-1.1c-.6-.2-1.4-.4-2.1-.4-.8 0-1.5.1-2.2.4-.6.3-1.2.6-1.7 1.1-.4.5-.8 1-1 1.7-.2.6-.4 1.4-.4 2.1 0 1.7.4 3.1 1.3 4s2.2 1.4 3.8 1.4c.9 0 1.6-.1 2.3-.4s1.2-.6 1.7-1.1.8-1 1-1.7c.4-.5.5-1.2.5-2zm15.3 8.6c0 .6-.1 1.2-.3 1.7s-.5 1-.9 1.4-.8.7-1.3.9-1 .3-1.6.3-1.2-.1-1.7-.3-.9-.5-1.3-.9-.7-.8-.9-1.4c-.2-.5-.3-1.1-.3-1.7 0-.7.1-1.3.3-1.8s.5-1 .9-1.4.8-.7 1.3-.9 1.1-.3 1.7-.3 1.2.1 1.7.3 1 .5 1.3.9c.4.4.7.8.9 1.4.1.5.2 1.1.2 1.8zm-2.9 0c0-.4 0-.7-.1-1s-.2-.5-.3-.6c-.1-.2-.3-.3-.4-.3-.2-.1-.3-.1-.5-.1s-.4 0-.5.1c-.2.1-.3.2-.4.3l-.3.6c-.1.3-.1.6-.1 1s0 .7.1 1 .2.5.3.6c.1.2.2.3.4.3a.9.9 0 0 0 .5.1c.2 0 .4 0 .5-.1.2-.1.3-.2.4-.3l.3-.6c.1-.3.1-.6.1-1zm8.4-3.7l.4-.4c.2-.1.4-.2.7-.2h2.7l-13.1 16.9c-.1.2-.3.3-.5.4s-.4.1-.6.1h-2.8l13.2-16.8zm4.5 12.8c0 .6-.1 1.2-.3 1.8-.2.5-.5 1-.9 1.4s-.8.7-1.3.9-1 .3-1.6.3-1.2-.1-1.7-.3-.9-.5-1.3-.9-.7-.8-.9-1.4c-.2-.5-.3-1.1-.3-1.8s.1-1.3.3-1.8.5-1 .9-1.4.8-.7 1.3-.9 1.1-.3 1.7-.3 1.2.1 1.7.3 1 .5 1.3.9c.4.4.7.8.9 1.4.1.6.2 1.1.2 1.8zm-2.8 0c0-.4 0-.7-.1-1s-.2-.5-.3-.6c-.1-.2-.3-.3-.4-.3-.2-.1-.3-.1-.5-.1s-.4 0-.5.1c-.2.1-.3.2-.4.3l-.3.6c-.1.3-.1.6-.1 1s0 .7.1 1 .2.5.3.6.2.3.4.3a.9.9 0 0 0 .5.1c.2 0 .4 0 .5-.1.2-.1.3-.2.4-.3l.3-.6c0-.3.1-.6.1-1z" fill="#fff"/></svg>