<svg xmlns="http://www.w3.org/2000/svg" viewBox="0 0 220.3 278.4"><path d="M15.5 254.4c-1 0-1.9-.2-2.8-.5-.9-.4-1.6-.9-2.3-1.6-.6-.7-1.1-1.5-1.5-2.5s-.6-2.2-.6-3.4c0-1.3.2-2.4.6-3.4s.9-1.9 1.5-2.6c.7-.7 1.4-1.2 2.3-1.6a6.71 6.71 0 0 1 2.8-.6c1 0 1.9.2 2.6.6.8.4 1.4.9 1.9 1.4l-1.5 1.8c-.4-.4-.9-.7-1.3-1-.5-.3-1-.4-1.6-.4s-1.2.1-1.8.4c-.5.3-1 .6-1.4 1.1s-.7 1.1-.9 1.8-.3 1.5-.3 2.4c0 1.8.4 3.2 1.1 4.2.8 1 1.8 1.5 3.2 1.5.7 0 1.3-.1 1.9-.4.5-.3 1-.7 1.5-1.2l1.5 1.7c-.6.7-1.4 1.3-2.2 1.7s-1.7.6-2.7.6zm12.1 0c-.7 0-1.4-.1-2.1-.4s-1.3-.7-1.8-1.2-.9-1.2-1.2-1.9c-.3-.8-.5-1.6-.5-2.6s.2-1.8.5-2.6.7-1.4 1.2-1.9 1.1-.9 1.8-1.2 1.4-.4 2.1-.4 1.4.1 2.1.4 1.3.7 1.8 1.2.9 1.2 1.2 1.9c.3.8.5 1.6.5 2.6s-.2 1.8-.5 2.6-.7 1.4-1.2 1.9-1.1.9-1.8 1.2c-.6.3-1.3.4-2.1.4zm0-2.2c.9 0 1.5-.4 2-1.1s.7-1.7.7-2.8c0-1.2-.2-2.1-.7-2.9-.5-.7-1.2-1.1-2-1.1-.9 0-1.5.4-2 1.1s-.7 1.7-.7 2.9.2 2.1.7 2.8 1.2 1.1 2 1.1zm13.2 2.2c-.7 0-1.4-.1-2.1-.4s-1.3-.7-1.8-1.2-.9-1.2-1.2-1.9c-.3-.8-.5-1.6-.5-2.6s.2-1.8.5-2.6.7-1.4 1.2-1.9 1.1-.9 1.8-1.2 1.4-.4 2.1-.4 1.4.1 2.1.4 1.3.7 1.8 1.2.9 1.2 1.2 1.9c.3.8.5 1.6.5 2.6s-.2 1.8-.5 2.6-.7 1.4-1.2 1.9-1.1.9-1.8 1.2-1.4.4-2.1.4zm0-2.2c.9 0 1.5-.4 2-1.1s.7-1.7.7-2.8c0-1.2-.2-2.1-.7-2.9-.5-.7-1.2-1.1-2-1.1-.9 0-1.5.4-2 1.1s-.7 1.7-.7 2.9.2 2.1.7 2.8c.4.7 1.1 1.1 2 1.1zm8.3 2v-16.9h2.7v10.6h.1l4.4-5.4h3l-4 4.8 4.4 7h-3l-3-5.1-1.8 2.1v3h-2.8v-.1zm17 .2c-.8 0-1.6-.1-2.3-.4s-1.3-.7-1.8-1.2-.9-1.2-1.2-1.9c-.3-.8-.4-1.6-.4-2.6s.2-1.8.5-2.6.7-1.4 1.2-1.9a6.57 6.57 0 0 1 1.7-1.2c.7-.3 1.3-.4 2-.4.8 0 1.5.1 2.1.4s1.1.7 1.5 1.1c.4.5.7 1.1.9 1.8s.3 1.4.3 2.3v.8c0 .2 0 .4-.1.6H63c.1 1.1.5 1.9 1.1 2.4.6.6 1.4.8 2.4.8.5 0 1-.1 1.4-.2l1.3-.6.9 1.7c-.6.4-1.2.7-1.9.9l-2.1.2zm-3.2-7.2h5.2c0-.9-.2-1.6-.6-2.1s-1-.8-1.8-.8c-.7 0-1.3.2-1.8.7s-.8 1.2-1 2.2zm14.4 7.2c-1.5 0-2.7-.5-3.5-1.6-.9-1.1-1.3-2.6-1.3-4.5 0-1 .1-1.8.4-2.6s.7-1.4 1.1-1.9c.5-.5 1-.9 1.6-1.2s1.2-.4 1.9-.4 1.2.1 1.7.4c.5.2.9.5 1.4.9l-.1-1.9v-4.3h2.8v16.9H81l-.2-1.3h-.1c-.4.4-.9.8-1.5 1.1-.7.3-1.3.4-1.9.4zm.7-2.2c.9 0 1.7-.4 2.5-1.3v-5.5c-.4-.4-.8-.6-1.2-.8-.4-.1-.8-.2-1.2-.2-.8 0-1.4.3-1.9 1s-.8 1.6-.8 2.9.2 2.3.7 2.9c.3.6 1 1 1.9 1zm14 2v-9.6h-1.6v-2.1l1.6-.1v-1.2c0-.6.1-1.2.2-1.7a2.73 2.73 0 0 1 .7-1.3 2.73 2.73 0 0 1 1.2-.9c.5-.2 1.1-.3 1.8-.3.4 0 .8 0 1.2.1l1 .3-.5 2.1a3.08 3.08 0 0 0-1.3-.3c-1 0-1.5.7-1.5 2v1.3H97v2.2h-2.3v9.6H92v-.1zm11.7.2c-.7 0-1.4-.1-2.1-.4s-1.3-.7-1.8-1.2-.9-1.2-1.2-1.9c-.3-.8-.5-1.6-.5-2.6s.2-1.8.5-2.6.7-1.4 1.2-1.9 1.1-.9 1.8-1.2 1.4-.4 2.1-.4 1.4.1 2.1.4 1.3.7 1.8 1.2.9 1.2 1.2 1.9c.3.8.5 1.6.5 2.6s-.2 1.8-.5 2.6-.7 1.4-1.2 1.9-1.1.9-1.8 1.2-1.4.4-2.1.4zm0-2.2c.9 0 1.5-.4 2-1.1s.7-1.7.7-2.8c0-1.2-.2-2.1-.7-2.9-.5-.7-1.2-1.1-2-1.1s-1.5.4-2 1.1-.7 1.7-.7 2.9.2 2.1.7 2.8c.4.7 1.1 1.1 2 1.1zm8.3 2v-11.8h2.3l.2 2.1h.1c.4-.8.9-1.3 1.5-1.7s1.2-.6 1.8-.6 1 .1 1.3.2l-.5 2.4c-.2-.1-.4-.1-.6-.1h-.6c-.5 0-.9.2-1.5.6-.5.4-.9 1-1.3 1.9v7.2H112v-.2zm14 0v-15.7h9.5v2.3h-6.7v4.4h5.7v2.3h-5.7v6.5H126v.2zm13.9.2c-1 0-1.9-.3-2.5-.9s-1-1.5-1-2.5c0-.6.1-1.2.4-1.7s.7-.9 1.2-1.3c.6-.4 1.3-.6 2.2-.9l3.1-.6c0-.3-.1-.6-.1-.9-.1-.3-.2-.5-.4-.7s-.4-.4-.6-.5c-.3-.1-.6-.2-1-.2-.6 0-1.1.1-1.7.3a11.94 11.94 0 0 0-1.6.8l-1-1.8c.7-.4 1.4-.8 2.2-1.1s1.7-.5 2.6-.5c1.5 0 2.6.4 3.3 1.3s1.1 2.1 1.1 3.8v7h-2.3l-.2-1.3h-.1c-.5.4-1.1.8-1.7 1.1-.5.5-1.2.6-1.9.6zm.9-2.1c.5 0 .9-.1 1.3-.3s.8-.5 1.3-1v-2.6c-.8.1-1.5.2-2 .4s-1 .3-1.3.5-.6.4-.7.7-.2.5-.2.8c0 .5.2.9.5 1.1.2.3.6.4 1.1.4zm8.6 1.9v-11.8h2.3l.2 1.6h.1c.5-.5 1-1 1.6-1.3.6-.4 1.3-.6 2-.6.9 0 1.5.2 2.1.6.5.4.9.9 1.2 1.6.6-.6 1.1-1.1 1.7-1.5s1.3-.6 2-.6c1.2 0 2.2.4 2.8 1.2s.9 1.9.9 3.4v7.4h-2.8v-7c0-1-.2-1.7-.5-2.1s-.7-.6-1.3-.6c-.7 0-1.6.5-2.5 1.5v8.2h-2.8v-7c0-1-.2-1.7-.5-2.1s-.7-.6-1.4-.6-1.6.5-2.5 1.5v8.2h-2.6zm20.2 0v-11.8h2.8v11.8h-2.8zm1.4-13.9c-.5 0-.9-.1-1.2-.4s-.5-.7-.5-1.1.2-.8.5-1.1.7-.5 1.2-.5.9.2 1.2.5.5.7.5 1.1-.2.8-.5 1.1-.7.4-1.2.4zm7.5 14.1c-1 0-1.7-.3-2.1-.9s-.6-1.4-.6-2.4v-13.9h2.8v14c0 .3.1.6.2.7a.76.76 0 0 0 .4.2h.5l.4 2.1c-.5.2-.9.2-1.6.2zm4.7 4.6c-.3 0-.6 0-.8-.1-.2 0-.5-.1-.7-.2l.5-2.2c.1 0 .2.1.4.1s.3.1.5.1c.6 0 1.1-.2 1.5-.6s.7-.8.9-1.4l.2-.7-4.6-11.6h2.8l2 5.8c.2.5.3 1.1.5 1.6.2.6.4 1.1.5 1.7h.1l.4-1.7.5-1.7 1.8-5.8h2.7l-4.3 12.3c-.2.7-.5 1.3-.8 1.8s-.6 1-1 1.3c-.4.4-.8.7-1.3.9-.6.3-1.2.4-1.8.4zm19.7-4.6c-.8 0-1.5-.1-2.1-.3s-1.1-.6-1.6-.9c-.4-.4-.8-.9-1-1.4s-.3-1.1-.3-1.7c0-.5.1-1 .2-1.5l.6-1.2a4.74 4.74 0 0 1 1-1l1.1-.9c-.3-.6-.6-1.2-.7-1.8-.2-.6-.3-1.1-.3-1.7 0-.5.1-1 .3-1.5s.5-.9.8-1.2c.4-.4.8-.6 1.2-.8.5-.2 1-.3 1.6-.3 1.1 0 1.9.3 2.5.9s.9 1.4.9 2.4c0 .5-.1 1-.3 1.4s-.4.8-.8 1.2c-.3.4-.7.7-1.1 1l-1.2.9c.5.7 1 1.3 1.6 1.9s1.3 1.2 1.9 1.7c.4-.6.8-1.2 1.1-1.9s.6-1.5.8-2.3h2.5c-.3 1-.7 1.9-1.1 2.8s-1 1.8-1.6 2.6c.5.3 1 .6 1.5.8s.9.4 1.3.4l-.7 2.3c-.6-.1-1.2-.4-1.9-.6-.6-.3-1.3-.6-1.9-1.1-.6.5-1.3.9-2.1 1.2-.3.5-1.2.6-2.2.6zm-.7-12.3c0 .4.1.7.2 1.1s.3.8.5 1.2c.7-.4 1.2-.8 1.7-1.3.4-.4.7-.9.7-1.6 0-.4-.1-.8-.3-1.1s-.5-.4-1-.4-.9.2-1.2.6c-.4.4-.6.9-.6 1.5zm1.1 10.2c.4 0 .9-.1 1.3-.2.4-.2.8-.4 1.2-.7-.7-.6-1.4-1.2-2-1.9l-1.7-2.1-1.1 1.2c-.3.4-.4.8-.4 1.3 0 .7.3 1.3.8 1.8.4.4 1.1.6 1.9.6zM54.1 278.2v-13.3h-4.5v-2.3h11.8v2.3h-4.5v13.3h-2.8zm9.7 0v-16.9h2.8v4.4l-.1 2.3c.5-.5 1-.9 1.6-1.2.6-.4 1.3-.6 2.1-.6 1.3 0 2.2.4 2.8 1.2s.9 1.9.9 3.4v7.4h-2.8v-7c0-1-.1-1.7-.4-2.1s-.8-.6-1.4-.6c-.5 0-1 .1-1.4.4-.4.2-.8.6-1.3 1.1v8.2h-2.8zm18.4.2c-.8 0-1.6-.1-2.3-.4s-1.3-.7-1.8-1.2-.9-1.2-1.2-1.9c-.3-.8-.4-1.6-.4-2.6s.2-1.8.5-2.6.7-1.4 1.2-1.9a6.57 6.57 0 0 1 1.7-1.2c.7-.3 1.3-.4 2-.4.8 0 1.5.1 2.1.4s1.1.7 1.5 1.1c.4.5.7 1.1.9 1.8s.3 1.4.3 2.3v.8c0 .2 0 .4-.1.6h-7.5c.1 1.1.5 1.9 1.1 2.4.6.6 1.4.8 2.4.8.5 0 1-.1 1.4-.2l1.3-.6.9 1.7c-.6.4-1.2.7-1.9.9-.6.1-1.4.2-2.1.2zm-3.2-7.2h5.2c0-.9-.2-1.6-.6-2.1s-1-.8-1.8-.8c-.7 0-1.3.2-1.8.7s-.8 1.2-1 2.2zm10.3 7v-11.8h2.3l.2 1.6h.1c.5-.5 1-1 1.6-1.3.6-.4 1.3-.6 2-.6.9 0 1.5.2 2.1.6.5.4.9.9 1.2 1.6.6-.6 1.1-1.1 1.7-1.5s1.3-.6 2-.6c1.2 0 2.2.4 2.8 1.2s.9 1.9.9 3.4v7.4h-2.8v-7c0-1-.2-1.7-.5-2.1s-.7-.6-1.3-.6c-.7 0-1.6.5-2.5 1.5v8.2h-2.8v-7c0-1-.2-1.7-.5-2.1s-.7-.6-1.4-.6-1.6.5-2.5 1.5v8.2h-2.6zm23.5.2c-.8 0-1.6-.2-2.4-.5s-1.5-.7-2-1.2l1.3-1.8c.5.4 1 .7 1.6 1 .5.2 1.1.3 1.7.3s1.1-.1 1.4-.4.5-.6.5-1c0-.2-.1-.4-.2-.6s-.3-.4-.6-.5c-.2-.1-.5-.3-.8-.4s-.6-.3-.9-.4c-.4-.1-.8-.3-1.2-.5s-.8-.4-1.1-.7-.6-.6-.8-.9c-.2-.4-.3-.8-.3-1.3 0-1 .4-1.9 1.1-2.5.8-.7 1.8-1 3.1-1 .8 0 1.5.1 2.2.4s1.2.6 1.7 1l-1.3 1.7c-.4-.3-.8-.5-1.3-.7a3.08 3.08 0 0 0-1.3-.3c-.6 0-1 .1-1.3.4-.3.2-.4.5-.4.9 0 .2.1.4.2.6s.3.3.6.4c.2.1.5.2.8.4l.9.3c.4.1.8.3 1.2.5s.8.4 1.1.7.6.6.8 1 .3.8.3 1.4c0 .5-.1 1-.3 1.4s-.5.8-.9 1.1-.9.6-1.4.8c-.7.3-1.3.4-2 .4zm12 0c-.8 0-1.6-.1-2.3-.4s-1.3-.7-1.8-1.2-.9-1.2-1.2-1.9c-.3-.8-.4-1.6-.4-2.6s.2-1.8.5-2.6.7-1.4 1.2-1.9a6.57 6.57 0 0 1 1.7-1.2c.7-.3 1.3-.4 2-.4.8 0 1.5.1 2.1.4s1.1.7 1.5 1.1c.4.5.7 1.1.9 1.8s.3 1.4.3 2.3v.8c0 .2 0 .4-.1.6h-7.5c.1 1.1.5 1.9 1.1 2.4.6.6 1.4.8 2.4.8.5 0 1-.1 1.4-.2l1.3-.6.9 1.7c-.6.4-1.2.7-1.9.9-.6.1-1.3.2-2.1.2zm-3.1-7.2h5.2c0-.9-.2-1.6-.6-2.1s-1-.8-1.8-.8c-.7 0-1.3.2-1.8.7-.6.5-.9 1.2-1 2.2zm12.9 7.2c-1 0-1.7-.3-2.1-.9s-.6-1.4-.6-2.4v-13.9h2.8v14c0 .3.1.6.2.7a.76.76 0 0 0 .4.2h.5l.4 2.1c-.5.2-1 .2-1.6.2zm6.5-.2l-4.1-11.8h2.8l1.9 6.1.5 1.7c.2.6.3 1.2.5 1.8h.1c.2-.6.3-1.2.5-1.8l.5-1.7 1.9-6.1h2.7l-4 11.8h-3.3zm14.1.2c-.8 0-1.6-.1-2.3-.4s-1.3-.7-1.8-1.2-.9-1.2-1.2-1.9c-.3-.8-.4-1.6-.4-2.6s.2-1.8.5-2.6.7-1.4 1.2-1.9a6.57 6.57 0 0 1 1.7-1.2c.7-.3 1.3-.4 2-.4.8 0 1.5.1 2.1.4s1.1.7 1.5 1.1c.4.5.7 1.1.9 1.8s.3 1.4.3 2.3v.8c0 .2 0 .4-.1.6h-7.5c.1 1.1.5 1.9 1.1 2.4.6.6 1.4.8 2.4.8.5 0 1-.1 1.4-.2l1.3-.6.9 1.7c-.6.4-1.2.7-1.9.9l-2.1.2zm-3.2-7.2h5.2c0-.9-.2-1.6-.6-2.1s-1-.8-1.8-.8c-.7 0-1.3.2-1.8.7s-.8 1.2-1 2.2zm13.6 7.2c-.8 0-1.6-.2-2.4-.5s-1.5-.7-2-1.2l1.3-1.8c.5.4 1 .7 1.6 1 .5.2 1.1.3 1.7.3s1.1-.1 1.4-.4.5-.6.5-1c0-.2-.1-.4-.2-.6s-.3-.4-.6-.5c-.2-.1-.5-.3-.8-.4s-.6-.3-.9-.4c-.4-.1-.8-.3-1.2-.5s-.8-.4-1.1-.7-.6-.6-.8-.9c-.2-.4-.3-.8-.3-1.3 0-1 .4-1.9 1.1-2.5.8-.7 1.8-1 3.1-1 .8 0 1.5.1 2.2.4s1.2.6 1.7 1l-1.3 1.7c-.4-.3-.8-.5-1.3-.7a3.08 3.08 0 0 0-1.3-.3c-.6 0-1 .1-1.3.4-.3.2-.4.5-.4.9 0 .2.1.4.2.6s.3.3.6.4c.2.1.5.2.8.4l.9.3c.4.1.8.3 1.2.5s.8.4 1.1.7.6.6.8 1 .3.8.3 1.4c0 .5-.1 1-.3 1.4s-.5.8-.9 1.1-.9.6-1.4.8c-.7.3-1.3.4-2 .4z"/><path d="M110.2 220.4C49.5 220.4 0 170.9 0 110.2S49.5 0 110.2 0s110.2 49.4 110.2 110.2c0 60.7-49.5 110.2-110.2 110.2zm0-191.6c-44.9 0-81.4 36.5-81.4 81.4s36.5 81.4 81.4 81.4 81.4-36.5 81.4-81.4-36.5-81.4-81.4-81.4z" fill="#484756"/><path d="M110.6 220.3h-.6c-19.2 0-38.2-5.2-55-15-16.6-9.6-30.5-23.6-40.2-40.5l24.9-14.3c7.2 12.5 17.5 22.8 29.7 29.9 12.4 7.2 26.5 11.1 40.7 11.1 14.3.1 28.4-3.6 40.8-10.8 12.5-7.2 22.8-17.5 29.8-29.7 7.2-12.4 11-26.5 11-40.7 0-14.3-3.8-28.4-10.9-40.7S163.4 46.9 151 39.8l-.1-.1c-12.2-7.1-26.2-10.9-40.6-10.9V0c19.5 0 38.5 5.1 55.1 14.8 16.7 9.6 30.7 23.6 40.3 40.4a110.86 110.86 0 0 1 14.7 55.1c0 19.3-5.1 38.3-14.8 55.1-9.5 16.5-23.5 30.5-40.3 40.2-16.8 9.6-35.6 14.7-54.7 14.7z" fill="#fd920f"/><circle cx="110.2" cy="110.2" r="68" fill="#ed7d31"/><path d="M72.7 107.6c1.2 0 2.3.2 3.4.6s2.1 1 3 1.8c.8.8 1.5 1.7 2 2.9s.8 2.5.8 4.1c0 1.5-.3 2.8-.8 4.1s-1.3 2.4-2.2 3.3c-1 .9-2.1 1.7-3.5 2.2s-2.8.8-4.5.8-3.2-.3-4.5-.8-2.4-1.3-3.4-2.2c-.9-1-1.7-2.1-2.2-3.4-.5-1.4-.7-2.8-.7-4.5 0-1.5.3-3 .9-4.5.6-1.6 1.5-3.2 2.8-4.8l7.4-10c.3-.3.6-.6 1.1-.9.5-.2 1.1-.4 1.7-.4h4.7l-9.2 11.3c-.2.2-.4.5-.6.7s-.3.4-.5.7c.6-.3 1.2-.5 1.9-.7.8-.2 1.6-.3 2.4-.3zm-7.5 9.7c0 .9.1 1.7.3 2.4s.6 1.3 1.1 1.8a6.57 6.57 0 0 0 1.7 1.2c.7.3 1.5.4 2.4.4.8 0 1.6-.1 2.3-.4s1.3-.7 1.8-1.2.9-1.1 1.2-1.8.4-1.5.4-2.3c0-.9-.1-1.7-.4-2.4s-.7-1.3-1.2-1.8-1.1-.9-1.8-1.1c-.7-.3-1.5-.4-2.3-.4s-1.6.1-2.3.4-1.3.7-1.8 1.2-.9 1.1-1.1 1.8c-.1.7-.3 1.4-.3 2.2zm32.5-9.7c1.2 0 2.3.2 3.4.6s2.1 1 3 1.8c.8.8 1.5 1.7 2 2.9s.8 2.5.8 4.1c0 1.5-.3 2.8-.8 4.1s-1.3 2.4-2.2 3.3c-1 .9-2.1 1.7-3.5 2.2s-2.8.8-4.5.8-3.2-.3-4.5-.8-2.4-1.3-3.4-2.2c-.9-1-1.7-2.1-2.2-3.4-.5-1.4-.7-2.8-.7-4.5 0-1.5.3-3 .9-4.5.6-1.6 1.5-3.2 2.8-4.8l7.4-10c.3-.3.6-.6 1.1-.9.5-.2 1.1-.4 1.7-.4h4.7l-9.2 11.3c-.2.2-.4.5-.6.7s-.3.4-.5.7c.6-.3 1.2-.5 1.9-.7.8-.2 1.6-.3 2.4-.3zm-7.5 9.7c0 .9.1 1.7.3 2.4s.6 1.3 1.1 1.8a6.57 6.57 0 0 0 1.7 1.2c.7.3 1.5.4 2.4.4.8 0 1.6-.1 2.3-.4s1.3-.7 1.8-1.2.9-1.1 1.2-1.8.4-1.5.4-2.3c0-.9-.1-1.7-.4-2.4s-.7-1.3-1.2-1.8-1.1-.9-1.8-1.1c-.7-.3-1.5-.4-2.3-.4s-1.6.1-2.3.4-1.3.7-1.8 1.2-.9 1.1-1.1 1.8c-.1.7-.3 1.4-.3 2.2zm19.6 6.9c0-.4.1-.9.2-1.3.2-.4.4-.7.7-1s.7-.5 1.1-.7.8-.3 1.3-.3a3.08 3.08 0 0 1 1.3.3c.4.2.7.4 1 .7s.5.6.7 1 .3.8.3 1.3-.1.9-.3 1.3-.4.7-.7 1-.6.5-1 .7-.8.3-1.3.3-.9-.1-1.3-.3-.8-.4-1.1-.7-.5-.6-.7-1c-.1-.4-.2-.9-.2-1.3zm31.8-28.3v2.3c0 .7-.1 1.2-.2 1.7-.1.4-.3.8-.4 1.1l-11.8 24.3c-.2.5-.6.9-1 1.3-.4.3-1 .5-1.8.5h-3.9l12.1-23.8c.5-1 1.1-1.8 1.7-2.5h-14.9c-.3 0-.6-.1-.9-.4-.2-.2-.4-.5-.4-.9v-3.6h21.5zm10.3 18c0 .6-.1 1.2-.3 1.7s-.5 1-.9 1.4-.8.7-1.3.9-1 .3-1.6.3-1.2-.1-1.7-.3-.9-.5-1.3-.9-.7-.8-.9-1.4c-.2-.5-.3-1.1-.3-1.7 0-.7.1-1.3.3-1.8s.5-1 .9-1.4.8-.7 1.3-.9 1.1-.3 1.7-.3 1.2.1 1.7.3 1 .5 1.3.9c.4.4.7.8.9 1.4.1.5.2 1.1.2 1.8zm-2.9 0c0-.4 0-.7-.1-1s-.2-.5-.3-.6c-.1-.2-.3-.3-.4-.3-.2-.1-.3-.1-.5-.1s-.4 0-.5.1c-.2.1-.3.2-.4.3l-.3.6c-.1.3-.1.6-.1 1s0 .7.1 1 .2.5.3.6c.1.2.2.3.4.3a.9.9 0 0 0 .5.1c.2 0 .4 0 .5-.1.2-.1.3-.2.4-.3l.3-.6c.1-.3.1-.6.1-1zm8.4-3.7l.4-.4c.2-.1.4-.2.7-.2h2.7l-13.1 16.9c-.1.2-.3.3-.5.4s-.4.1-.6.1h-2.8l13.2-16.8zm4.5 12.8c0 .6-.1 1.2-.3 1.8-.2.5-.5 1-.9 1.4s-.8.7-1.3.9-1 .3-1.6.3-1.2-.1-1.7-.3-.9-.5-1.3-.9-.7-.8-.9-1.4c-.2-.5-.3-1.1-.3-1.8s.1-1.3.3-1.8.5-1 .9-1.4.8-.7 1.3-.9 1.1-.3 1.7-.3 1.2.1 1.7.3 1 .5 1.3.9c.4.4.7.8.9 1.4.1.6.2 1.1.2 1.8zm-2.8 0c0-.4 0-.7-.1-1s-.2-.5-.3-.6c-.1-.2-.3-.3-.4-.3-.2-.1-.3-.1-.5-.1s-.4 0-.5.1c-.2.1-.3.2-.4.3l-.3.6c-.1.3-.1.6-.1 1s0 .7.1 1 .2.5.3.6.2.3.4.3a.9.9 0 0 0 .5.1c.2 0 .4 0 .5-.1.2-.1.3-.2.4-.3l.3-.6c0-.3.1-.6.1-1z" fill="#fff"/></svg>