<?xml version="1.0" encoding="utf-8"?>
<!-- Generator: Adobe Illustrator 24.1.0, SVG Export Plug-In . SVG Version: 6.00 Build 0)  -->
<svg version="1.1" id="Layer_1" xmlns="http://www.w3.org/2000/svg" xmlns:xlink="http://www.w3.org/1999/xlink" x="0px" y="0px"
	 viewBox="0 0 220.3 278.4" style="enable-background:new 0 0 220.3 278.4;" xml:space="preserve">
<style type="text/css">
	.st0{fill:#484756;}
	.st1{fill:#FD920F;}
	.st2{fill:#ED7D31;}
	.st3{fill:#FFFFFF;}
</style>
<g>
	<path d="M15.5,254.4c-1,0-1.9-0.2-2.8-0.5c-0.9-0.4-1.6-0.9-2.3-1.6c-0.6-0.7-1.1-1.5-1.5-2.5s-0.6-2.2-0.6-3.4
		c0-1.3,0.2-2.4,0.6-3.4c0.4-1,0.9-1.9,1.5-2.6c0.7-0.7,1.4-1.2,2.3-1.6c0.9-0.4,1.8-0.6,2.8-0.6s1.9,0.2,2.6,0.6
		c0.8,0.4,1.4,0.9,1.9,1.4l-1.5,1.8c-0.4-0.4-0.9-0.7-1.3-1c-0.5-0.3-1-0.4-1.6-0.4s-1.2,0.1-1.8,0.4c-0.5,0.3-1,0.6-1.4,1.1
		s-0.7,1.1-0.9,1.8s-0.3,1.5-0.3,2.4c0,1.8,0.4,3.2,1.1,4.2c0.8,1,1.8,1.5,3.2,1.5c0.7,0,1.3-0.1,1.9-0.4c0.5-0.3,1-0.7,1.5-1.2
		l1.5,1.7c-0.6,0.7-1.4,1.3-2.2,1.7C17.4,254.2,16.5,254.4,15.5,254.4z M27.6,254.4c-0.7,0-1.4-0.1-2.1-0.4
		c-0.7-0.3-1.3-0.7-1.8-1.2s-0.9-1.2-1.2-1.9c-0.3-0.8-0.5-1.6-0.5-2.6s0.2-1.8,0.5-2.6s0.7-1.4,1.2-1.9s1.1-0.9,1.8-1.2
		c0.7-0.3,1.4-0.4,2.1-0.4s1.4,0.1,2.1,0.4c0.7,0.3,1.3,0.7,1.8,1.2s0.9,1.2,1.2,1.9c0.3,0.8,0.5,1.6,0.5,2.6s-0.2,1.8-0.5,2.6
		s-0.7,1.4-1.2,1.9s-1.1,0.9-1.8,1.2C29.1,254.3,28.4,254.4,27.6,254.4z M27.6,252.2c0.9,0,1.5-0.4,2-1.1c0.5-0.7,0.7-1.7,0.7-2.8
		c0-1.2-0.2-2.1-0.7-2.9c-0.5-0.7-1.2-1.1-2-1.1c-0.9,0-1.5,0.4-2,1.1c-0.5,0.7-0.7,1.7-0.7,2.9s0.2,2.1,0.7,2.8
		C26.1,251.8,26.8,252.2,27.6,252.2z M40.8,254.4c-0.7,0-1.4-0.1-2.1-0.4c-0.7-0.3-1.3-0.7-1.8-1.2s-0.9-1.2-1.2-1.9
		c-0.3-0.8-0.5-1.6-0.5-2.6s0.2-1.8,0.5-2.6s0.7-1.4,1.2-1.9s1.1-0.9,1.8-1.2s1.4-0.4,2.1-0.4c0.7,0,1.4,0.1,2.1,0.4
		c0.7,0.3,1.3,0.7,1.8,1.2s0.9,1.2,1.2,1.9c0.3,0.8,0.5,1.6,0.5,2.6s-0.2,1.8-0.5,2.6s-0.7,1.4-1.2,1.9s-1.1,0.9-1.8,1.2
		C42.2,254.3,41.5,254.4,40.8,254.4z M40.8,252.2c0.9,0,1.5-0.4,2-1.1c0.5-0.7,0.7-1.7,0.7-2.8c0-1.2-0.2-2.1-0.7-2.9
		c-0.5-0.7-1.2-1.1-2-1.1c-0.9,0-1.5,0.4-2,1.1c-0.5,0.7-0.7,1.7-0.7,2.9s0.2,2.1,0.7,2.8C39.2,251.8,39.9,252.2,40.8,252.2z
		 M49.1,254.2v-16.9h2.7v10.6h0.1l4.4-5.4h3l-4,4.8l4.4,7h-3l-3-5.1l-1.8,2.1v3h-2.8V254.2z M66.1,254.4c-0.8,0-1.6-0.1-2.3-0.4
		c-0.7-0.3-1.3-0.7-1.8-1.2s-0.9-1.2-1.2-1.9c-0.3-0.8-0.4-1.6-0.4-2.6s0.2-1.8,0.5-2.6s0.7-1.4,1.2-1.9s1.1-0.9,1.7-1.2
		c0.7-0.3,1.3-0.4,2-0.4c0.8,0,1.5,0.1,2.1,0.4c0.6,0.3,1.1,0.7,1.5,1.1c0.4,0.5,0.7,1.1,0.9,1.8c0.2,0.7,0.3,1.4,0.3,2.3
		c0,0.3,0,0.5,0,0.8c0,0.2,0,0.4-0.1,0.6H63c0.1,1.1,0.5,1.9,1.1,2.4c0.6,0.6,1.4,0.8,2.4,0.8c0.5,0,1-0.1,1.4-0.2
		c0.4-0.2,0.9-0.4,1.3-0.6l0.9,1.7c-0.6,0.4-1.2,0.7-1.9,0.9C67.5,254.3,66.8,254.4,66.1,254.4z M62.9,247.2h5.2
		c0-0.9-0.2-1.6-0.6-2.1s-1-0.8-1.8-0.8c-0.7,0-1.3,0.2-1.8,0.7C63.4,245.5,63.1,246.2,62.9,247.2z M77.3,254.4
		c-1.5,0-2.7-0.5-3.5-1.6c-0.9-1.1-1.3-2.6-1.3-4.5c0-1,0.1-1.8,0.4-2.6s0.7-1.4,1.1-1.9c0.5-0.5,1-0.9,1.6-1.2s1.2-0.4,1.9-0.4
		c0.7,0,1.2,0.1,1.7,0.4c0.5,0.2,0.9,0.5,1.4,0.9l-0.1-1.9v-4.3h2.8v16.9H81l-0.2-1.3h-0.1c-0.4,0.4-0.9,0.8-1.5,1.1
		C78.5,254.3,77.9,254.4,77.3,254.4z M78,252.2c0.9,0,1.7-0.4,2.5-1.3v-5.5c-0.4-0.4-0.8-0.6-1.2-0.8c-0.4-0.1-0.8-0.2-1.2-0.2
		c-0.8,0-1.4,0.3-1.9,1s-0.8,1.6-0.8,2.9c0,1.3,0.2,2.3,0.7,2.9C76.4,251.8,77.1,252.2,78,252.2z M92,254.2v-9.6h-1.6v-2.1l1.6-0.1
		v-1.2c0-0.6,0.1-1.2,0.2-1.7s0.4-1,0.7-1.3c0.3-0.4,0.7-0.7,1.2-0.9s1.1-0.3,1.8-0.3c0.4,0,0.8,0,1.2,0.1c0.4,0.1,0.7,0.2,1,0.3
		l-0.5,2.1c-0.4-0.2-0.9-0.3-1.3-0.3c-1,0-1.5,0.7-1.5,2v1.3H97v2.2h-2.3v9.6H92V254.2z M103.7,254.4c-0.7,0-1.4-0.1-2.1-0.4
		c-0.7-0.3-1.3-0.7-1.8-1.2s-0.9-1.2-1.2-1.9c-0.3-0.8-0.5-1.6-0.5-2.6s0.2-1.8,0.5-2.6s0.7-1.4,1.2-1.9s1.1-0.9,1.8-1.2
		c0.7-0.3,1.4-0.4,2.1-0.4s1.4,0.1,2.1,0.4c0.7,0.3,1.3,0.7,1.8,1.2s0.9,1.2,1.2,1.9c0.3,0.8,0.5,1.6,0.5,2.6s-0.2,1.8-0.5,2.6
		s-0.7,1.4-1.2,1.9s-1.1,0.9-1.8,1.2C105.1,254.3,104.4,254.4,103.7,254.4z M103.7,252.2c0.9,0,1.5-0.4,2-1.1
		c0.5-0.7,0.7-1.7,0.7-2.8c0-1.2-0.2-2.1-0.7-2.9c-0.5-0.7-1.2-1.1-2-1.1s-1.5,0.4-2,1.1c-0.5,0.7-0.7,1.7-0.7,2.9s0.2,2.1,0.7,2.8
		C102.1,251.8,102.8,252.2,103.7,252.2z M112,254.2v-11.8h2.3l0.2,2.1h0.1c0.4-0.8,0.9-1.3,1.5-1.7s1.2-0.6,1.8-0.6
		c0.6,0,1,0.1,1.3,0.2l-0.5,2.4c-0.2-0.1-0.4-0.1-0.6-0.1s-0.4,0-0.6,0c-0.5,0-0.9,0.2-1.5,0.6c-0.5,0.4-0.9,1-1.3,1.9v7.2H112
		V254.2z M126,254.2v-15.7h9.5v2.3h-6.7v4.4h5.7v2.3h-5.7v6.5H126V254.2z M139.9,254.4c-1,0-1.9-0.3-2.5-0.9c-0.6-0.6-1-1.5-1-2.5
		c0-0.6,0.1-1.2,0.4-1.7c0.3-0.5,0.7-0.9,1.2-1.3c0.6-0.4,1.3-0.6,2.2-0.9c0.9-0.2,1.9-0.4,3.1-0.6c0-0.3-0.1-0.6-0.1-0.9
		c-0.1-0.3-0.2-0.5-0.4-0.7s-0.4-0.4-0.6-0.5c-0.3-0.1-0.6-0.2-1-0.2c-0.6,0-1.1,0.1-1.7,0.3c-0.5,0.2-1.1,0.5-1.6,0.8l-1-1.8
		c0.7-0.4,1.4-0.8,2.2-1.1s1.7-0.5,2.6-0.5c1.5,0,2.6,0.4,3.3,1.3c0.7,0.9,1.1,2.1,1.1,3.8v7h-2.3l-0.2-1.3h-0.1
		c-0.5,0.4-1.1,0.8-1.7,1.1C141.3,254.3,140.6,254.4,139.9,254.4z M140.8,252.3c0.5,0,0.9-0.1,1.3-0.3c0.4-0.2,0.8-0.5,1.3-1v-2.6
		c-0.8,0.1-1.5,0.2-2,0.4s-1,0.3-1.3,0.5s-0.6,0.4-0.7,0.7c-0.1,0.3-0.2,0.5-0.2,0.8c0,0.5,0.2,0.9,0.5,1.1
		C139.9,252.2,140.3,252.3,140.8,252.3z M149.4,254.2v-11.8h2.3l0.2,1.6h0.1c0.5-0.5,1-1,1.6-1.3c0.6-0.4,1.3-0.6,2-0.6
		c0.9,0,1.5,0.2,2.1,0.6c0.5,0.4,0.9,0.9,1.2,1.6c0.6-0.6,1.1-1.1,1.7-1.5c0.6-0.4,1.3-0.6,2-0.6c1.2,0,2.2,0.4,2.8,1.2
		s0.9,1.9,0.9,3.4v7.4h-2.8v-7c0-1-0.2-1.7-0.5-2.1c-0.3-0.4-0.7-0.6-1.3-0.6c-0.7,0-1.6,0.5-2.5,1.5v8.2h-2.8v-7
		c0-1-0.2-1.7-0.5-2.1c-0.3-0.4-0.7-0.6-1.4-0.6s-1.6,0.5-2.5,1.5v8.2L149.4,254.2L149.4,254.2z M169.6,254.2v-11.8h2.8v11.8H169.6z
		 M171,240.3c-0.5,0-0.9-0.1-1.2-0.4c-0.3-0.3-0.5-0.7-0.5-1.1s0.2-0.8,0.5-1.1s0.7-0.5,1.2-0.5s0.9,0.2,1.2,0.5s0.5,0.7,0.5,1.1
		s-0.2,0.8-0.5,1.1C171.9,240.2,171.5,240.3,171,240.3z M178.5,254.4c-1,0-1.7-0.3-2.1-0.9c-0.4-0.6-0.6-1.4-0.6-2.4v-13.9h2.8v14
		c0,0.3,0.1,0.6,0.2,0.7c0.1,0.1,0.3,0.2,0.4,0.2c0.1,0,0.1,0,0.2,0c0.1,0,0.2,0,0.3,0l0.4,2.1C179.6,254.4,179.2,254.4,178.5,254.4
		z M183.2,259c-0.3,0-0.6,0-0.8-0.1c-0.2,0-0.5-0.1-0.7-0.2l0.5-2.2c0.1,0,0.2,0.1,0.4,0.1s0.3,0.1,0.5,0.1c0.6,0,1.1-0.2,1.5-0.6
		s0.7-0.8,0.9-1.4l0.2-0.7l-4.6-11.6h2.8l2,5.8c0.2,0.5,0.3,1.1,0.5,1.6c0.2,0.6,0.4,1.1,0.5,1.7h0.1c0.1-0.5,0.3-1.1,0.4-1.7
		c0.2-0.6,0.3-1.1,0.5-1.7l1.8-5.8h2.7l-4.3,12.3c-0.2,0.7-0.5,1.3-0.8,1.8s-0.6,1-1,1.3c-0.4,0.4-0.8,0.7-1.3,0.9
		C184.4,258.9,183.8,259,183.2,259z M202.9,254.4c-0.8,0-1.5-0.1-2.1-0.3s-1.1-0.6-1.6-0.9c-0.4-0.4-0.8-0.9-1-1.4s-0.3-1.1-0.3-1.7
		c0-0.5,0.1-1,0.2-1.5c0.2-0.4,0.4-0.8,0.6-1.2c0.3-0.4,0.6-0.7,1-1s0.8-0.6,1.1-0.9c-0.3-0.6-0.6-1.2-0.7-1.8
		c-0.2-0.6-0.3-1.1-0.3-1.7c0-0.5,0.1-1,0.3-1.5s0.5-0.9,0.8-1.2c0.4-0.4,0.8-0.6,1.2-0.8c0.5-0.2,1-0.3,1.6-0.3
		c1.1,0,1.9,0.3,2.5,0.9c0.6,0.6,0.9,1.4,0.9,2.4c0,0.5-0.1,1-0.3,1.4s-0.4,0.8-0.8,1.2c-0.3,0.4-0.7,0.7-1.1,1
		c-0.4,0.3-0.8,0.6-1.2,0.9c0.5,0.7,1,1.3,1.6,1.9c0.6,0.6,1.3,1.2,1.9,1.7c0.4-0.6,0.8-1.2,1.1-1.9s0.6-1.5,0.8-2.3h2.5
		c-0.3,1-0.7,1.9-1.1,2.8c-0.4,0.9-1,1.8-1.6,2.6c0.5,0.3,1,0.6,1.5,0.8s0.9,0.4,1.3,0.4l-0.7,2.3c-0.6-0.1-1.2-0.4-1.9-0.6
		c-0.6-0.3-1.3-0.6-1.9-1.1c-0.6,0.5-1.3,0.9-2.1,1.2C204.8,254.3,203.9,254.4,202.9,254.4z M202.2,242.1c0,0.4,0.1,0.7,0.2,1.1
		c0.1,0.4,0.3,0.8,0.5,1.2c0.7-0.4,1.2-0.8,1.7-1.3c0.4-0.4,0.7-0.9,0.7-1.6c0-0.4-0.1-0.8-0.3-1.1s-0.5-0.4-1-0.4s-0.9,0.2-1.2,0.6
		C202.4,241,202.2,241.5,202.2,242.1z M203.3,252.3c0.4,0,0.9-0.1,1.3-0.2c0.4-0.2,0.8-0.4,1.2-0.7c-0.7-0.6-1.4-1.2-2-1.9
		s-1.2-1.4-1.7-2.1c-0.4,0.4-0.8,0.8-1.1,1.2s-0.4,0.8-0.4,1.3c0,0.7,0.3,1.3,0.8,1.8C201.8,252.1,202.5,252.3,203.3,252.3z
		 M54.1,278.2v-13.3h-4.5v-2.3h11.8v2.3h-4.5v13.3H54.1z M63.8,278.2v-16.9h2.8v4.4l-0.1,2.3c0.5-0.5,1-0.9,1.6-1.2
		c0.6-0.4,1.3-0.6,2.1-0.6c1.3,0,2.2,0.4,2.8,1.2c0.6,0.8,0.9,1.9,0.9,3.4v7.4h-2.8v-7c0-1-0.1-1.7-0.4-2.1s-0.8-0.6-1.4-0.6
		c-0.5,0-1,0.1-1.4,0.4c-0.4,0.2-0.8,0.6-1.3,1.1v8.2L63.8,278.2L63.8,278.2z M82.2,278.4c-0.8,0-1.6-0.1-2.3-0.4
		c-0.7-0.3-1.3-0.7-1.8-1.2s-0.9-1.2-1.2-1.9c-0.3-0.8-0.4-1.6-0.4-2.6s0.2-1.8,0.5-2.6c0.3-0.8,0.7-1.4,1.2-1.9s1.1-0.9,1.7-1.2
		c0.7-0.3,1.3-0.4,2-0.4c0.8,0,1.5,0.1,2.1,0.4s1.1,0.7,1.5,1.1c0.4,0.5,0.7,1.1,0.9,1.8c0.2,0.7,0.3,1.4,0.3,2.3c0,0.3,0,0.5,0,0.8
		c0,0.2,0,0.4-0.1,0.6h-7.5c0.1,1.1,0.5,1.9,1.1,2.4c0.6,0.6,1.4,0.8,2.4,0.8c0.5,0,1-0.1,1.4-0.2c0.4-0.2,0.9-0.4,1.3-0.6l0.9,1.7
		c-0.6,0.4-1.2,0.7-1.9,0.9C83.7,278.3,82.9,278.4,82.2,278.4z M79,271.2h5.2c0-0.9-0.2-1.6-0.6-2.1s-1-0.8-1.8-0.8
		c-0.7,0-1.3,0.2-1.8,0.7C79.5,269.5,79.2,270.2,79,271.2z M89.3,278.2v-11.8h2.3l0.2,1.6h0.1c0.5-0.5,1-1,1.6-1.3
		c0.6-0.4,1.3-0.6,2-0.6c0.9,0,1.5,0.2,2.1,0.6c0.5,0.4,0.9,0.9,1.2,1.6c0.6-0.6,1.1-1.1,1.7-1.5s1.3-0.6,2-0.6
		c1.2,0,2.2,0.4,2.8,1.2c0.6,0.8,0.9,1.9,0.9,3.4v7.4h-2.8v-7c0-1-0.2-1.7-0.5-2.1s-0.7-0.6-1.3-0.6c-0.7,0-1.6,0.5-2.5,1.5v8.2
		h-2.8v-7c0-1-0.2-1.7-0.5-2.1s-0.7-0.6-1.4-0.6c-0.7,0-1.6,0.5-2.5,1.5v8.2L89.3,278.2L89.3,278.2z M112.8,278.4
		c-0.8,0-1.6-0.2-2.4-0.5s-1.5-0.7-2-1.2l1.3-1.8c0.5,0.4,1,0.7,1.6,1c0.5,0.2,1.1,0.3,1.7,0.3s1.1-0.1,1.4-0.4s0.5-0.6,0.5-1
		c0-0.2-0.1-0.4-0.2-0.6s-0.3-0.4-0.6-0.5c-0.2-0.1-0.5-0.3-0.8-0.4s-0.6-0.3-0.9-0.4c-0.4-0.1-0.8-0.3-1.2-0.5
		c-0.4-0.2-0.8-0.4-1.1-0.7c-0.3-0.3-0.6-0.6-0.8-0.9c-0.2-0.4-0.3-0.8-0.3-1.3c0-1,0.4-1.9,1.1-2.5c0.8-0.7,1.8-1,3.1-1
		c0.8,0,1.5,0.1,2.2,0.4s1.2,0.6,1.7,1l-1.3,1.7c-0.4-0.3-0.8-0.5-1.3-0.7c-0.4-0.2-0.9-0.3-1.3-0.3c-0.6,0-1,0.1-1.3,0.4
		c-0.3,0.2-0.4,0.5-0.4,0.9c0,0.2,0.1,0.4,0.2,0.6s0.3,0.3,0.6,0.4c0.2,0.1,0.5,0.2,0.8,0.4c0.3,0.1,0.6,0.2,0.9,0.3
		c0.4,0.1,0.8,0.3,1.2,0.5c0.4,0.2,0.8,0.4,1.1,0.7c0.3,0.3,0.6,0.6,0.8,1c0.2,0.4,0.3,0.8,0.3,1.4c0,0.5-0.1,1-0.3,1.4
		c-0.2,0.4-0.5,0.8-0.9,1.1c-0.4,0.3-0.9,0.6-1.4,0.8C114.1,278.3,113.5,278.4,112.8,278.4z M124.8,278.4c-0.8,0-1.6-0.1-2.3-0.4
		c-0.7-0.3-1.3-0.7-1.8-1.2s-0.9-1.2-1.2-1.9c-0.3-0.8-0.4-1.6-0.4-2.6s0.2-1.8,0.5-2.6c0.3-0.8,0.7-1.4,1.2-1.9s1.1-0.9,1.7-1.2
		c0.7-0.3,1.3-0.4,2-0.4c0.8,0,1.5,0.1,2.1,0.4s1.1,0.7,1.5,1.1c0.4,0.5,0.7,1.1,0.9,1.8c0.2,0.7,0.3,1.4,0.3,2.3c0,0.3,0,0.5,0,0.8
		c0,0.2,0,0.4-0.1,0.6h-7.5c0.1,1.1,0.5,1.9,1.1,2.4c0.6,0.6,1.4,0.8,2.4,0.8c0.5,0,1-0.1,1.4-0.2c0.4-0.2,0.9-0.4,1.3-0.6l0.9,1.7
		c-0.6,0.4-1.2,0.7-1.9,0.9C126.3,278.3,125.6,278.4,124.8,278.4z M121.7,271.2h5.2c0-0.9-0.2-1.6-0.6-2.1s-1-0.8-1.8-0.8
		c-0.7,0-1.3,0.2-1.8,0.7C122.1,269.5,121.8,270.2,121.7,271.2z M134.6,278.4c-1,0-1.7-0.3-2.1-0.9c-0.4-0.6-0.6-1.4-0.6-2.4v-13.9
		h2.8v14c0,0.3,0.1,0.6,0.2,0.7c0.1,0.1,0.3,0.2,0.4,0.2c0.1,0,0.1,0,0.2,0c0.1,0,0.2,0,0.3,0l0.4,2.1
		C135.7,278.4,135.2,278.4,134.6,278.4z M141.1,278.2l-4.1-11.8h2.8l1.9,6.1c0.2,0.6,0.3,1.2,0.5,1.7c0.2,0.6,0.3,1.2,0.5,1.8h0.1
		c0.2-0.6,0.3-1.2,0.5-1.8c0.2-0.6,0.3-1.2,0.5-1.7l1.9-6.1h2.7l-4,11.8H141.1z M155.2,278.4c-0.8,0-1.6-0.1-2.3-0.4
		s-1.3-0.7-1.8-1.2s-0.9-1.2-1.2-1.9c-0.3-0.8-0.4-1.6-0.4-2.6s0.2-1.8,0.5-2.6c0.3-0.8,0.7-1.4,1.2-1.9s1.1-0.9,1.7-1.2
		c0.7-0.3,1.3-0.4,2-0.4c0.8,0,1.5,0.1,2.1,0.4s1.1,0.7,1.5,1.1c0.4,0.5,0.7,1.1,0.9,1.8c0.2,0.7,0.3,1.4,0.3,2.3c0,0.3,0,0.5,0,0.8
		c0,0.2,0,0.4-0.1,0.6h-7.5c0.1,1.1,0.5,1.9,1.1,2.4c0.6,0.6,1.4,0.8,2.4,0.8c0.5,0,1-0.1,1.4-0.2c0.4-0.2,0.9-0.4,1.3-0.6l0.9,1.7
		c-0.6,0.4-1.2,0.7-1.9,0.9C156.6,278.3,155.9,278.4,155.2,278.4z M152,271.2h5.2c0-0.9-0.2-1.6-0.6-2.1c-0.4-0.5-1-0.8-1.8-0.8
		c-0.7,0-1.3,0.2-1.8,0.7C152.5,269.5,152.2,270.2,152,271.2z M165.6,278.4c-0.8,0-1.6-0.2-2.4-0.5c-0.8-0.3-1.5-0.7-2-1.2l1.3-1.8
		c0.5,0.4,1,0.7,1.6,1c0.5,0.2,1.1,0.3,1.7,0.3c0.6,0,1.1-0.1,1.4-0.4c0.3-0.3,0.5-0.6,0.5-1c0-0.2-0.1-0.4-0.2-0.6
		c-0.1-0.2-0.3-0.4-0.6-0.5c-0.2-0.1-0.5-0.3-0.8-0.4s-0.6-0.3-0.9-0.4c-0.4-0.1-0.8-0.3-1.2-0.5s-0.8-0.4-1.1-0.7
		c-0.3-0.3-0.6-0.6-0.8-0.9c-0.2-0.4-0.3-0.8-0.3-1.3c0-1,0.4-1.9,1.1-2.5c0.8-0.7,1.8-1,3.1-1c0.8,0,1.5,0.1,2.2,0.4s1.2,0.6,1.7,1
		l-1.3,1.7c-0.4-0.3-0.8-0.5-1.3-0.7c-0.4-0.2-0.9-0.3-1.3-0.3c-0.6,0-1,0.1-1.3,0.4c-0.3,0.2-0.4,0.5-0.4,0.9
		c0,0.2,0.1,0.4,0.2,0.6c0.1,0.2,0.3,0.3,0.6,0.4c0.2,0.1,0.5,0.2,0.8,0.4c0.3,0.1,0.6,0.2,0.9,0.3c0.4,0.1,0.8,0.3,1.2,0.5
		s0.8,0.4,1.1,0.7c0.3,0.3,0.6,0.6,0.8,1s0.3,0.8,0.3,1.4c0,0.5-0.1,1-0.3,1.4s-0.5,0.8-0.9,1.1c-0.4,0.3-0.9,0.6-1.4,0.8
		C166.9,278.3,166.3,278.4,165.6,278.4z"/>
</g>
<g>
	<path class="st0" d="M110.2,220.4C49.5,220.4,0,170.9,0,110.2C0,49.5,49.5,0,110.2,0c60.7,0,110.2,49.4,110.2,110.2
		C220.4,170.9,170.9,220.4,110.2,220.4z M110.2,28.8c-44.9,0-81.4,36.5-81.4,81.4c0,44.9,36.5,81.4,81.4,81.4
		c44.9,0,81.4-36.5,81.4-81.4C191.6,65.3,155.1,28.8,110.2,28.8z"/>
</g>
<g>
	<path class="st1" d="M110.6,220.3c-0.2,0-0.4,0-0.6,0c-19.2,0-38.2-5.2-55-15c-16.6-9.6-30.5-23.6-40.2-40.5l24.9-14.3
		c7.2,12.5,17.5,22.8,29.7,29.9c12.4,7.2,26.5,11.1,40.7,11.1c14.3,0.1,28.4-3.6,40.8-10.8c12.5-7.2,22.8-17.5,29.8-29.7
		c7.2-12.4,11-26.5,11-40.7c0-14.3-3.8-28.4-10.9-40.7s-17.4-22.7-29.8-29.8l-0.1-0.1c-12.2-7.1-26.2-10.9-40.6-10.9V0
		c19.5,0,38.5,5.1,55.1,14.8c16.7,9.6,30.7,23.6,40.3,40.4c9.6,16.7,14.7,35.8,14.7,55.1c0,19.3-5.1,38.3-14.8,55.1
		c-9.5,16.5-23.5,30.5-40.3,40.2C148.5,215.2,129.7,220.3,110.6,220.3z"/>
</g>
<g>
	<circle class="st2" cx="110.2" cy="110.2" r="68"/>
</g>
<g>
	<path class="st3" d="M72.7,107.6c1.2,0,2.3,0.2,3.4,0.6s2.1,1,3,1.8c0.8,0.8,1.5,1.7,2,2.9c0.5,1.2,0.8,2.5,0.8,4.1
		c0,1.5-0.3,2.8-0.8,4.1c-0.5,1.3-1.3,2.4-2.2,3.3c-1,0.9-2.1,1.7-3.5,2.2s-2.8,0.8-4.5,0.8s-3.2-0.3-4.5-0.8s-2.4-1.3-3.4-2.2
		c-0.9-1-1.7-2.1-2.2-3.4c-0.5-1.4-0.7-2.8-0.7-4.5c0-1.5,0.3-3,0.9-4.5c0.6-1.6,1.5-3.2,2.8-4.8l7.4-10c0.3-0.3,0.6-0.6,1.1-0.9
		c0.5-0.2,1.1-0.4,1.7-0.4h4.7l-9.2,11.3c-0.2,0.2-0.4,0.5-0.6,0.7s-0.3,0.4-0.5,0.7c0.6-0.3,1.2-0.5,1.9-0.7
		C71.1,107.7,71.9,107.6,72.7,107.6z M65.2,117.3c0,0.9,0.1,1.7,0.3,2.4c0.2,0.7,0.6,1.3,1.1,1.8s1.1,0.9,1.7,1.2
		c0.7,0.3,1.5,0.4,2.4,0.4c0.8,0,1.6-0.1,2.3-0.4c0.7-0.3,1.3-0.7,1.8-1.2s0.9-1.1,1.2-1.8c0.3-0.7,0.4-1.5,0.4-2.3
		c0-0.9-0.1-1.7-0.4-2.4c-0.3-0.7-0.7-1.3-1.2-1.8s-1.1-0.9-1.8-1.1c-0.7-0.3-1.5-0.4-2.3-0.4s-1.6,0.1-2.3,0.4
		c-0.7,0.3-1.3,0.7-1.8,1.2s-0.9,1.1-1.1,1.8C65.4,115.8,65.2,116.5,65.2,117.3z M97.7,107.6c1.2,0,2.3,0.2,3.4,0.6s2.1,1,3,1.8
		c0.8,0.8,1.5,1.7,2,2.9c0.5,1.2,0.8,2.5,0.8,4.1c0,1.5-0.3,2.8-0.8,4.1c-0.5,1.3-1.3,2.4-2.2,3.3c-1,0.9-2.1,1.7-3.5,2.2
		s-2.8,0.8-4.5,0.8s-3.2-0.3-4.5-0.8s-2.4-1.3-3.4-2.2c-0.9-1-1.7-2.1-2.2-3.4c-0.5-1.4-0.7-2.8-0.7-4.5c0-1.5,0.3-3,0.9-4.5
		c0.6-1.6,1.5-3.2,2.8-4.8l7.4-10c0.3-0.3,0.6-0.6,1.1-0.9c0.5-0.2,1.1-0.4,1.7-0.4h4.7l-9.2,11.3c-0.2,0.2-0.4,0.5-0.6,0.7
		s-0.3,0.4-0.5,0.7c0.6-0.3,1.2-0.5,1.9-0.7C96.1,107.7,96.9,107.6,97.7,107.6z M90.2,117.3c0,0.9,0.1,1.7,0.3,2.4
		c0.2,0.7,0.6,1.3,1.1,1.8s1.1,0.9,1.7,1.2c0.7,0.3,1.5,0.4,2.4,0.4c0.8,0,1.6-0.1,2.3-0.4c0.7-0.3,1.3-0.7,1.8-1.2s0.9-1.1,1.2-1.8
		c0.3-0.7,0.4-1.5,0.4-2.3c0-0.9-0.1-1.7-0.4-2.4c-0.3-0.7-0.7-1.3-1.2-1.8s-1.1-0.9-1.8-1.1c-0.7-0.3-1.5-0.4-2.3-0.4
		s-1.6,0.1-2.3,0.4c-0.7,0.3-1.3,0.7-1.8,1.2s-0.9,1.1-1.1,1.8C90.4,115.8,90.2,116.5,90.2,117.3z M109.8,124.2
		c0-0.4,0.1-0.9,0.2-1.3c0.2-0.4,0.4-0.7,0.7-1c0.3-0.3,0.7-0.5,1.1-0.7s0.8-0.3,1.3-0.3c0.4,0,0.9,0.1,1.3,0.3
		c0.4,0.2,0.7,0.4,1,0.7c0.3,0.3,0.5,0.6,0.7,1s0.3,0.8,0.3,1.3s-0.1,0.9-0.3,1.3c-0.2,0.4-0.4,0.7-0.7,1c-0.3,0.3-0.6,0.5-1,0.7
		s-0.8,0.3-1.3,0.3s-0.9-0.1-1.3-0.3c-0.4-0.2-0.8-0.4-1.1-0.7c-0.3-0.3-0.5-0.6-0.7-1C109.9,125.1,109.8,124.6,109.8,124.2z
		 M141.6,95.9v2.3c0,0.7-0.1,1.2-0.2,1.7c-0.1,0.4-0.3,0.8-0.4,1.1l-11.8,24.3c-0.2,0.5-0.6,0.9-1,1.3c-0.4,0.3-1,0.5-1.8,0.5h-3.9
		l12.1-23.8c0.5-1,1.1-1.8,1.7-2.5h-14.9c-0.3,0-0.6-0.1-0.9-0.4c-0.2-0.2-0.4-0.5-0.4-0.9v-3.6H141.6z M151.9,113.9
		c0,0.6-0.1,1.2-0.3,1.7s-0.5,1-0.9,1.4s-0.8,0.7-1.3,0.9c-0.5,0.2-1,0.3-1.6,0.3s-1.2-0.1-1.7-0.3c-0.5-0.2-0.9-0.5-1.3-0.9
		c-0.4-0.4-0.7-0.8-0.9-1.4c-0.2-0.5-0.3-1.1-0.3-1.7c0-0.7,0.1-1.3,0.3-1.8s0.5-1,0.9-1.4s0.8-0.7,1.3-0.9c0.5-0.2,1.1-0.3,1.7-0.3
		c0.6,0,1.2,0.1,1.7,0.3c0.5,0.2,1,0.5,1.3,0.9c0.4,0.4,0.7,0.8,0.9,1.4C151.8,112.6,151.9,113.2,151.9,113.9z M149,113.9
		c0-0.4,0-0.7-0.1-1s-0.2-0.5-0.3-0.6c-0.1-0.2-0.3-0.3-0.4-0.3c-0.2-0.1-0.3-0.1-0.5-0.1s-0.4,0-0.5,0.1c-0.2,0.1-0.3,0.2-0.4,0.3
		c-0.1,0.2-0.2,0.4-0.3,0.6c-0.1,0.3-0.1,0.6-0.1,1s0,0.7,0.1,1s0.2,0.5,0.3,0.6c0.1,0.2,0.2,0.3,0.4,0.3c0.2,0.1,0.3,0.1,0.5,0.1
		s0.4,0,0.5-0.1c0.2-0.1,0.3-0.2,0.4-0.3c0.1-0.2,0.2-0.4,0.3-0.6C149,114.6,149,114.3,149,113.9z M157.4,110.2
		c0.1-0.1,0.3-0.3,0.4-0.4c0.2-0.1,0.4-0.2,0.7-0.2h2.7l-13.1,16.9c-0.1,0.2-0.3,0.3-0.5,0.4s-0.4,0.1-0.6,0.1h-2.8L157.4,110.2z
		 M161.9,123c0,0.6-0.1,1.2-0.3,1.8c-0.2,0.5-0.5,1-0.9,1.4s-0.8,0.7-1.3,0.9c-0.5,0.2-1,0.3-1.6,0.3s-1.2-0.1-1.7-0.3
		c-0.5-0.2-0.9-0.5-1.3-0.9c-0.4-0.4-0.7-0.8-0.9-1.4c-0.2-0.5-0.3-1.1-0.3-1.8c0-0.7,0.1-1.3,0.3-1.8s0.5-1,0.9-1.4
		s0.8-0.7,1.3-0.9c0.5-0.2,1.1-0.3,1.7-0.3c0.6,0,1.2,0.1,1.7,0.3c0.5,0.2,1,0.5,1.3,0.9c0.4,0.4,0.7,0.8,0.9,1.4
		C161.8,121.8,161.9,122.3,161.9,123z M159.1,123c0-0.4,0-0.7-0.1-1s-0.2-0.5-0.3-0.6c-0.1-0.2-0.3-0.3-0.4-0.3
		c-0.2-0.1-0.3-0.1-0.5-0.1s-0.4,0-0.5,0.1c-0.2,0.1-0.3,0.2-0.4,0.3c-0.1,0.2-0.2,0.4-0.3,0.6c-0.1,0.3-0.1,0.6-0.1,1s0,0.7,0.1,1
		s0.2,0.5,0.3,0.6s0.2,0.3,0.4,0.3c0.2,0.1,0.3,0.1,0.5,0.1s0.4,0,0.5-0.1c0.2-0.1,0.3-0.2,0.4-0.3c0.1-0.2,0.2-0.4,0.3-0.6
		C159,123.7,159.1,123.4,159.1,123z"/>
</g>
</svg>
