<svg xmlns="http://www.w3.org/2000/svg" viewBox="0 0 220.3 278.4"><path d="M49.3 254.4a8.15 8.15 0 0 1-3.1-.6c-1-.4-1.8-1-2.6-1.7l1.6-1.9c.6.5 1.2 1 1.9 1.3s1.4.5 2.2.5c.9 0 1.6-.2 2-.6.5-.4.7-.9.7-1.5 0-.3-.1-.6-.2-.8s-.3-.4-.5-.6-.5-.3-.8-.5c-.3-.1-.6-.3-1-.4l-2.2-.9-1.1-.6c-.4-.2-.7-.5-1-.9-.3-.3-.6-.7-.7-1.2-.2-.4-.3-1-.3-1.5 0-.6.1-1.2.4-1.7s.6-1 1.1-1.4 1-.7 1.7-.9 1.4-.3 2.1-.3c.9 0 1.8.2 2.6.6s1.6.8 2.2 1.4L53 242c-.5-.4-1-.7-1.6-1-.5-.2-1.1-.4-1.8-.4-.8 0-1.3.2-1.8.5-.4.3-.7.8-.7 1.3 0 .3.1.6.2.8s.3.4.6.6c.2.2.5.3.8.5.3.1.6.3.9.4l2.1.9c.5.2.9.4 1.3.7s.7.6 1 .9.5.7.7 1.2c.2.4.2.9.2 1.5s-.1 1.2-.4 1.8-.6 1.1-1.1 1.5-1.1.8-1.8 1c-.6.1-1.4.2-2.3.2zm8.2-.2v-16.9h2.8v4.4l-.1 2.3c.5-.5 1-.9 1.6-1.2.6-.4 1.3-.6 2.1-.6 1.3 0 2.2.4 2.8 1.2s.9 1.9.9 3.4v7.4h-2.8v-7c0-1-.1-1.7-.4-2.1s-.8-.6-1.4-.6c-.5 0-1 .1-1.4.4-.4.2-.8.6-1.3 1.1v8.2h-2.8zm16.3.2c-1 0-1.9-.3-2.5-.9s-1-1.5-1-2.5c0-.6.1-1.2.4-1.7s.7-.9 1.2-1.3c.6-.4 1.3-.6 2.2-.9l3.1-.6c0-.3-.1-.6-.1-.9-.1-.3-.2-.5-.4-.7s-.4-.4-.6-.5c-.3-.1-.6-.2-1-.2-.6 0-1.1.1-1.7.3a11.94 11.94 0 0 0-1.6.8l-1-1.8c.7-.4 1.4-.8 2.2-1.1s1.7-.5 2.6-.5c1.5 0 2.6.4 3.3 1.3s1.1 2.1 1.1 3.8v7h-2.3l-.2-1.3h-.1c-.5.4-1.1.8-1.7 1.1-.6.5-1.2.6-1.9.6zm.8-2.1c.5 0 .9-.1 1.3-.3s.8-.5 1.3-1v-2.6c-.8.1-1.5.2-2 .4s-1 .3-1.3.5-.6.4-.7.7-.2.5-.2.8c0 .5.2.9.5 1.1.2.3.6.4 1.1.4zm8.6 1.9v-11.8h2.3l.2 2.1h.1c.4-.8.9-1.3 1.5-1.7s1.2-.6 1.8-.6 1 .1 1.3.2l-.5 2.4c-.2-.1-.4-.1-.6-.1h-.6c-.5 0-.9.2-1.5.6-.5.4-.9 1-1.3 1.9v7.2h-2.7v-.2zm13.8.2c-.8 0-1.6-.1-2.3-.4s-1.3-.7-1.8-1.2-.9-1.2-1.2-1.9c-.3-.8-.4-1.6-.4-2.6s.2-1.8.5-2.6.7-1.4 1.2-1.9a6.57 6.57 0 0 1 1.7-1.2c.7-.3 1.3-.4 2-.4.8 0 1.5.1 2.1.4s1.1.7 1.5 1.1c.4.5.7 1.1.9 1.8s.3 1.4.3 2.3v.8c0 .2 0 .4-.1.6h-7.5c.1 1.1.5 1.9 1.1 2.4.6.6 1.4.8 2.4.8.5 0 1-.1 1.4-.2l1.3-.6.9 1.7c-.6.4-1.2.7-1.9.9l-2.1.2zm-3.2-7.2H99c0-.9-.2-1.6-.6-2.1s-1-.8-1.8-.8c-.7 0-1.3.2-1.8.7s-.8 1.2-1 2.2zm14.4 7.2c-1.5 0-2.7-.5-3.5-1.6-.9-1.1-1.3-2.6-1.3-4.5 0-1 .1-1.8.4-2.6s.7-1.4 1.1-1.9c.5-.5 1-.9 1.6-1.2s1.2-.4 1.9-.4 1.2.1 1.7.4c.5.2.9.5 1.4.9l-.1-1.9v-4.3h2.8v16.9h-2.3l-.2-1.3h-.1c-.4.4-.9.8-1.5 1.1-.7.3-1.3.4-1.9.4zm.7-2.2c.9 0 1.7-.4 2.5-1.3v-5.5c-.4-.4-.8-.6-1.2-.8-.4-.1-.8-.2-1.2-.2-.8 0-1.4.3-1.9 1s-.8 1.6-.8 2.9.2 2.3.7 2.9c.3.6 1 1 1.9 1zm13.7 2v-15.7h9.5v2.3h-6.7v4.4h5.7v2.3h-5.7v6.5h-2.8v.2zm16.4.2c-.7 0-1.4-.1-2.1-.4s-1.3-.7-1.8-1.2-.9-1.2-1.2-1.9c-.3-.8-.5-1.6-.5-2.6s.2-1.8.5-2.6.7-1.4 1.2-1.9 1.1-.9 1.8-1.2 1.4-.4 2.1-.4 1.4.1 2.1.4 1.3.7 1.8 1.2.9 1.2 1.2 1.9c.3.8.5 1.6.5 2.6s-.2 1.8-.5 2.6-.7 1.4-1.2 1.9-1.1.9-1.8 1.2c-.6.3-1.3.4-2.1.4zm0-2.2c.9 0 1.5-.4 2-1.1s.7-1.7.7-2.8c0-1.2-.2-2.1-.7-2.9-.5-.7-1.2-1.1-2-1.1s-1.5.4-2 1.1-.7 1.7-.7 2.9.2 2.1.7 2.8 1.2 1.1 2 1.1zm13.2 2.2c-.7 0-1.4-.1-2.1-.4s-1.3-.7-1.8-1.2-.9-1.2-1.2-1.9c-.3-.8-.5-1.6-.5-2.6s.2-1.8.5-2.6.7-1.4 1.2-1.9 1.1-.9 1.8-1.2 1.4-.4 2.1-.4 1.4.1 2.1.4 1.3.7 1.8 1.2.9 1.2 1.2 1.9c.3.8.5 1.6.5 2.6s-.2 1.8-.5 2.6-.7 1.4-1.2 1.9-1.1.9-1.8 1.2-1.4.4-2.1.4zm0-2.2c.9 0 1.5-.4 2-1.1s.7-1.7.7-2.8c0-1.2-.2-2.1-.7-2.9-.5-.7-1.2-1.1-2-1.1s-1.5.4-2 1.1-.7 1.7-.7 2.9.2 2.1.7 2.8c.4.7 1.1 1.1 2 1.1zm12.4 2.2c-1.5 0-2.7-.5-3.5-1.6-.9-1.1-1.3-2.6-1.3-4.5 0-1 .1-1.8.4-2.6s.7-1.4 1.1-1.9c.5-.5 1-.9 1.6-1.2s1.2-.4 1.9-.4 1.2.1 1.7.4c.5.2.9.5 1.4.9l-.1-1.9v-4.3h2.8v16.9h-2.3l-.2-1.3h-.1c-.4.4-.9.8-1.5 1.1s-1.2.4-1.9.4zm.7-2.2c.9 0 1.7-.4 2.5-1.3v-5.5c-.4-.4-.8-.6-1.2-.8-.4-.1-.8-.2-1.2-.2-.8 0-1.4.3-1.9 1s-.8 1.6-.8 2.9.2 2.3.7 2.9c.4.6 1 1 1.9 1zm-110.5 26v-15.7h4.9c.9 0 1.7.1 2.4.2.8.2 1.4.4 1.9.8s1 .9 1.3 1.5.5 1.4.5 2.3-.2 1.6-.5 2.3c-.3.6-.7 1.2-1.3 1.6-.5.4-1.2.7-1.9.9s-1.5.3-2.3.3h-2.3v5.7h-2.7v.1zm2.8-8h2c2.3 0 3.4-1 3.4-2.8 0-1-.3-1.7-.9-2-.6-.4-1.5-.6-2.6-.6h-1.9v5.4zm10.9 8v-11.8h2.8v11.8h-2.8zm1.4-13.9c-.5 0-.9-.1-1.2-.4s-.5-.7-.5-1.1c0-.5.2-.8.5-1.1s.7-.5 1.2-.5.9.2 1.2.5.5.7.5 1.1c0 .5-.2.8-.5 1.1s-.7.4-1.2.4zm9.8 14.1c-.8 0-1.5-.1-2.3-.4-.7-.3-1.3-.7-1.8-1.2s-.9-1.2-1.2-1.9c-.3-.8-.4-1.6-.4-2.6s.2-1.8.5-2.6.8-1.4 1.3-1.9 1.2-.9 1.9-1.2 1.5-.4 2.3-.4 1.4.1 2 .4 1.1.6 1.5.9l-1.3 1.8c-.3-.3-.6-.5-1-.6-.3-.2-.6-.2-1-.2-1 0-1.7.4-2.3 1.1s-.9 1.7-.9 2.9.3 2.1.9 2.8 1.3 1.1 2.3 1.1c.5 0 .9-.1 1.3-.3s.8-.4 1.1-.7l1.1 1.8c-.6.5-1.2.8-1.8 1.1l-2.2.1zm9.4 0c-.8 0-1.6-.2-2.4-.5s-1.5-.7-2-1.2l1.3-1.8c.5.4 1 .7 1.6 1 .5.2 1.1.3 1.7.3s1.1-.1 1.4-.4.5-.6.5-1c0-.2-.1-.4-.2-.6s-.3-.4-.6-.5c-.2-.1-.5-.3-.8-.4s-.6-.3-.9-.4c-.4-.1-.8-.3-1.2-.5s-.8-.4-1.1-.7-.6-.6-.8-.9c-.2-.4-.3-.8-.3-1.3 0-1 .4-1.9 1.1-2.5.8-.7 1.8-1 3.1-1 .8 0 1.5.1 2.2.4s1.2.6 1.7 1l-1.3 1.7c-.4-.3-.8-.5-1.3-.7a3.08 3.08 0 0 0-1.3-.3c-.6 0-1 .1-1.3.4-.3.2-.4.5-.4.9 0 .2.1.4.2.6s.3.3.6.4c.2.1.5.2.8.4l.9.3c.4.1.8.3 1.2.5s.8.4 1.1.7.6.6.8 1 .3.8.3 1.4c0 .5-.1 1-.3 1.4s-.5.8-.9 1.1-.9.6-1.4.8c-.6.3-1.3.4-2 .4zm18.1 0c-1 0-2-.2-2.8-.6s-1.6-.9-2.2-1.6-1.1-1.6-1.4-2.6a11.59 11.59 0 0 1-.5-3.4 11.59 11.59 0 0 1 .5-3.4c.3-1 .8-1.9 1.4-2.5.6-.7 1.3-1.2 2.2-1.6a6.71 6.71 0 0 1 2.8-.6c1 0 2 .2 2.8.6s1.6.9 2.2 1.6 1.1 1.5 1.4 2.5a11.59 11.59 0 0 1 .5 3.4 11.59 11.59 0 0 1-.5 3.4c-.3 1-.8 1.9-1.4 2.6s-1.3 1.2-2.2 1.6c-.8.5-1.7.6-2.8.6zm0-2.4c.6 0 1.2-.1 1.7-.4s.9-.7 1.3-1.1c.4-.5.6-1.1.8-1.8s.3-1.5.3-2.4c0-1.8-.4-3.1-1.1-4.1s-1.7-1.5-2.9-1.5-2.2.5-3 1.5c-.7 1-1.1 2.4-1.1 4.1 0 .9.1 1.7.3 2.4s.5 1.3.8 1.8c.4.5.8.9 1.3 1.1.5.3 1 .4 1.6.4zm9.9 2.2v-11.8h2.3l.2 1.6h.1c.5-.5 1.1-1 1.7-1.3.6-.4 1.3-.6 2.2-.6 1.3 0 2.2.4 2.8 1.2s.9 1.9.9 3.4v7.4h-2.8v-7c0-1-.1-1.7-.4-2.1s-.8-.6-1.4-.6c-.5 0-1 .1-1.4.4-.4.2-.8.6-1.3 1.1v8.2l-2.9.1zm16 .2c-1 0-1.7-.3-2.1-.9s-.6-1.4-.6-2.4v-13.9h2.8v14c0 .3.1.6.2.7a.76.76 0 0 0 .4.2h.5l.4 2.1c-.5.2-.9.2-1.6.2zm3.9-.2v-11.8h2.8v11.8H137zm1.4-13.9c-.5 0-.9-.1-1.2-.4s-.5-.7-.5-1.1c0-.5.2-.8.5-1.1s.7-.5 1.2-.5.9.2 1.2.5.5.7.5 1.1c0 .5-.2.8-.5 1.1s-.8.4-1.2.4zm4.8 13.9v-11.8h2.3l.2 1.6h.1c.5-.5 1.1-1 1.7-1.3.6-.4 1.3-.6 2.2-.6 1.3 0 2.2.4 2.8 1.2s.9 1.9.9 3.4v7.4h-2.8v-7c0-1-.1-1.7-.4-2.1s-.8-.6-1.4-.6c-.5 0-1 .1-1.4.4-.4.2-.8.6-1.3 1.1v8.2l-2.9.1zm18.5.2c-.8 0-1.6-.1-2.3-.4s-1.3-.7-1.8-1.2-.9-1.2-1.2-1.9c-.3-.8-.4-1.6-.4-2.6s.2-1.8.5-2.6.7-1.4 1.2-1.9a6.57 6.57 0 0 1 1.7-1.2c.7-.3 1.3-.4 2-.4.8 0 1.5.1 2.1.4s1.1.7 1.5 1.1c.4.5.7 1.1.9 1.8s.3 1.4.3 2.3v.8c0 .2 0 .4-.1.6h-7.5c.1 1.1.5 1.9 1.1 2.4.6.6 1.4.8 2.4.8.5 0 1-.1 1.4-.2l1.3-.6.9 1.7c-.6.4-1.2.7-1.9.9l-2.1.2zm-3.2-7.2h5.2c0-.9-.2-1.6-.6-2.1s-1-.8-1.8-.8c-.7 0-1.3.2-1.8.7s-.9 1.2-1 2.2z"/><path d="M110.2 220.4C49.5 220.4 0 170.9 0 110.2S49.5 0 110.2 0s110.2 49.4 110.2 110.2c0 60.7-49.5 110.2-110.2 110.2zm0-191.6c-44.9 0-81.4 36.5-81.4 81.4s36.5 81.4 81.4 81.4 81.4-36.5 81.4-81.4-36.5-81.4-81.4-81.4z" fill="#484756"/><path d="M110.2 220.3c-10.7 0-21.5-1.6-31.9-4.7-24.3-7.3-45.5-23-59.6-44.2C4.5 150.2-1.9 124.6.6 99.4c2.4-25.1 13.6-49 31.6-67.1l20.4 20.3C39.3 66 31 83.6 29.2 102.2c-1.9 18.7 2.9 37.6 13.3 53.3C53 171 68.6 182.6 86.6 188s37.5 4.5 54.8-2.7c17.4-7.1 31.8-20.2 40.6-36.8 8.9-16.5 11.7-35.7 8.1-54.3-3.6-18.3-13.6-35.1-28.2-47.1-14.6-11.9-32.9-18.4-51.7-18.4V0c25.3 0 50.1 8.9 69.9 24.9 19.8 16.3 33.3 38.9 38.2 63.8 4.9 25 1.1 51.1-10.9 73.4-12 22.5-31.5 40.2-55 49.8a109.94 109.94 0 0 1-42.2 8.4z" fill="#fd920f"/><circle cx="110.2" cy="110.2" r="68" fill="#ed7d31"/><path d="M70.7 127.5c-1.6 0-3.1-.2-4.4-.6s-2.5-1-3.4-1.8-1.7-1.7-2.2-2.9c-.5-1.1-.8-2.4-.8-3.7 0-1.8.5-3.4 1.4-4.7s2.3-2.2 4.2-2.8c-1.5-.6-2.7-1.5-3.4-2.7s-1.1-2.6-1.1-4.2c0-1.2.2-2.3.7-3.3s1.2-1.9 2-2.7c.9-.8 1.9-1.4 3.1-1.8s2.5-.6 4-.6c1.4 0 2.8.2 3.9.6 1.2.4 2.2 1 3.1 1.8.9.7 1.5 1.6 2 2.7.5 1 .7 2.1.7 3.3 0 1.6-.4 3-1.1 4.2-.8 1.2-1.9 2.1-3.4 2.7 1.9.6 3.3 1.6 4.2 2.8.9 1.3 1.4 2.8 1.4 4.7 0 1.4-.3 2.6-.8 3.7s-1.2 2.1-2.2 2.9c-.9.8-2.1 1.4-3.4 1.8-1.4.3-2.8.6-4.5.6zm0-4.2c.9 0 1.6-.1 2.3-.4s1.2-.6 1.7-1.1c.5-.4.8-1 1-1.6s.3-1.3.3-2c0-1.7-.5-3-1.4-3.9s-2.3-1.3-3.9-1.3c-1.7 0-3 .4-3.9 1.3s-1.4 2.2-1.4 3.9c0 .7.1 1.4.3 2s.6 1.1 1 1.6c.5.4 1 .8 1.7 1.1s1.5.4 2.3.4zm0-14.4c.9 0 1.6-.1 2.2-.4s1.1-.6 1.4-1.1c.4-.5.6-1 .8-1.6s.2-1.2.2-1.8-.1-1.1-.3-1.7c-.2-.5-.5-1-.8-1.4a5.02 5.02 0 0 0-1.4-1c-.6-.2-1.3-.4-2-.4s-1.5.1-2 .4a2.98 2.98 0 0 0-1.4 1c-.4.4-.7.9-.8 1.4-.2.5-.3 1.1-.3 1.7s.1 1.2.2 1.8c.2.6.4 1.1.8 1.6.4.4.8.8 1.4 1.1.5.3 1.2.4 2 .4zm36.2-13v2.3c0 .7-.1 1.2-.2 1.7-.1.4-.3.8-.4 1.1l-11.8 24.3c-.2.5-.6.9-1 1.3-.4.3-1 .5-1.8.5h-3.9l12.1-23.8c.5-1 1.1-1.8 1.7-2.5H86.5c-.3 0-.6-.1-.9-.4-.2-.2-.4-.5-.4-.9v-3.6h21.7zm2.9 28.3c0-.4.1-.9.2-1.3.2-.4.4-.7.7-1s.7-.5 1.1-.7.8-.3 1.3-.3a3.08 3.08 0 0 1 1.3.3c.4.2.7.4 1 .7s.5.6.7 1 .3.8.3 1.3-.1.9-.3 1.3-.4.7-.7 1-.6.5-1 .7-.8.3-1.3.3-.9-.1-1.3-.3-.8-.4-1.1-.7-.5-.6-.7-1c-.1-.4-.2-.9-.2-1.3zm29.5-26c0 .8-.2 1.4-.7 1.9s-1.3.7-2.4.7h-8.6l-1.1 6.5c1.4-.3 2.7-.4 3.9-.4 1.6 0 3.1.2 4.3.7s2.3 1.2 3.1 2c.8.9 1.5 1.9 1.9 3 .4 1.2.6 2.4.6 3.7 0 1.7-.3 3.2-.9 4.5-.6 1.4-1.4 2.5-2.4 3.5s-2.3 1.7-3.7 2.2-2.9.8-4.6.8a12.65 12.65 0 0 1-2.8-.3c-.9-.2-1.7-.5-2.5-.8s-1.5-.7-2.1-1.2a11.51 11.51 0 0 1-1.7-1.4l1.6-2.3c.3-.5.8-.7 1.4-.7.4 0 .7.1 1.1.3s.8.5 1.3.8 1.1.5 1.7.8c.6.2 1.4.3 2.4.3s1.8-.2 2.6-.5 1.4-.8 1.9-1.3c.5-.6.9-1.2 1.1-2 .3-.8.4-1.6.4-2.6 0-1.7-.5-3-1.5-4s-2.4-1.4-4.3-1.4c-1.5 0-3 .3-4.5.8l-3.3-.9 2.6-15.1h15.4v2.4h-.2zm12.6 15.7c0 .6-.1 1.2-.3 1.7s-.5 1-.9 1.4-.8.7-1.3.9-1 .3-1.6.3-1.2-.1-1.7-.3-.9-.5-1.3-.9-.7-.8-.9-1.4c-.2-.5-.3-1.1-.3-1.7 0-.7.1-1.3.3-1.8s.5-1 .9-1.4.8-.7 1.3-.9 1.1-.3 1.7-.3 1.2.1 1.7.3 1 .5 1.3.9c.4.4.7.8.9 1.4.1.5.2 1.1.2 1.8zm-2.9 0c0-.4 0-.7-.1-1s-.2-.5-.3-.6c-.1-.2-.3-.3-.4-.3-.2-.1-.3-.1-.5-.1s-.4 0-.5.1c-.2.1-.3.2-.4.3l-.3.6c-.1.3-.1.6-.1 1s0 .7.1 1 .2.5.3.6c.1.2.2.3.4.3a.9.9 0 0 0 .5.1c.2 0 .4 0 .5-.1.2-.1.3-.2.4-.3l.3-.6c.1-.3.1-.6.1-1zm8.4-3.7l.4-.4c.2-.1.4-.2.7-.2h2.7l-13.1 16.9c-.1.2-.3.3-.5.4s-.4.1-.6.1h-2.8l13.2-16.8zm4.5 12.8c0 .6-.1 1.2-.3 1.8-.2.5-.5 1-.9 1.4s-.8.7-1.3.9-1 .3-1.6.3-1.2-.1-1.7-.3-.9-.5-1.3-.9-.7-.8-.9-1.4c-.2-.5-.3-1.1-.3-1.8s.1-1.3.3-1.8.5-1 .9-1.4.8-.7 1.3-.9 1.1-.3 1.7-.3 1.2.1 1.7.3 1 .5 1.3.9c.4.4.7.8.9 1.4.1.6.2 1.1.2 1.8zm-2.8 0c0-.4 0-.7-.1-1s-.2-.5-.3-.6c-.1-.2-.3-.3-.4-.3-.2-.1-.3-.1-.5-.1s-.4 0-.5.1c-.2.1-.3.2-.4.3l-.3.6c-.1.3-.1.6-.1 1s0 .7.1 1 .2.5.3.6.2.3.4.3a.9.9 0 0 0 .5.1c.2 0 .4 0 .5-.1.2-.1.3-.2.4-.3l.3-.6c0-.3.1-.6.1-1z" fill="#fff"/></svg>