<?xml version="1.0" encoding="utf-8"?>
<!-- Generator: Adobe Illustrator 24.1.0, SVG Export Plug-In . SVG Version: 6.00 Build 0)  -->
<svg version="1.1" id="Layer_1" xmlns="http://www.w3.org/2000/svg" xmlns:xlink="http://www.w3.org/1999/xlink" x="0px" y="0px"
	 viewBox="0 0 95 95" style="enable-background:new 0 0 95 95;" xml:space="preserve">
<style type="text/css">
	.st0{fill:#042149;}
	.st1{fill:#FFFFFF;}
</style>
<circle class="st0" cx="47.5" cy="47.5" r="47.5"/>
<path class="st1" d="M47.5,57.3L47.5,57.3L36.6,46.4v2.8l9.5,9.5l0.6,0.6c0.2,0.2,0.5,0.3,0.8,0.3s0.6-0.1,0.8-0.3l0.6-0.6l9.5-9.5
	v-2.8L47.5,57.3L47.5,57.3z M47.5,7.5c-22.1,0-40,17.9-40,40s17.9,40,40,40s40-17.9,40-40S69.6,7.5,47.5,7.5z M47.5,84
	C27.4,84,11,67.6,11,47.5S27.4,11,47.5,11S84,27.4,84,47.5S67.6,84,47.5,84z M70,35.4L70,35.4c-0.4,0-0.6,0.1-0.8,0.3L65,39.9v2.8
	l3.8-3.8l0.1-0.1v16.1l0,0L62.8,61l-0.1,0.1V31.6c0-0.3-0.1-0.6-0.4-0.8c-0.2-0.1-0.4-0.2-0.6-0.2c-0.3,0-0.5,0.1-0.7,0.3L47.6,44.2
	l-0.1,0.1v-0.1L34.1,30.9c-0.2-0.2-0.5-0.3-0.7-0.3h-0.1c-0.5,0.1-0.9,0.5-0.9,1v29.6l-0.1-0.1L26.2,55l0,0V38.7l0.1,0.1l3.8,3.8
	v-2.8l-4.2-4.2c-0.2-0.2-0.5-0.3-0.7-0.3h-0.1c-0.5,0.1-0.9,0.5-0.9,1v18.9c0,0.3,0.1,0.5,0.3,0.7l8.2,8.2c0.2,0.2,0.4,0.3,0.7,0.3
	c0.2,0,0.5-0.1,0.6-0.2c0.2-0.2,0.3-0.5,0.3-0.8V33.9l0.1,0.1l12.2,12.2c0.2,0.2,0.5,0.3,0.8,0.3s0.6-0.1,0.8-0.3L60.5,34l0.1-0.1
	v29.5c0,0.3,0.1,0.6,0.3,0.8c0.2,0.2,0.4,0.2,0.6,0.2c0.3,0,0.5-0.1,0.7-0.3l8.2-8.2c0.2-0.2,0.3-0.4,0.3-0.7l0,0V36.4
	C70.8,35.9,70.5,35.5,70,35.4z"/>
</svg>
