<?xml version="1.0" encoding="utf-8"?>
<!-- Generator: Adobe Illustrator 24.1.0, SVG Export Plug-In . SVG Version: 6.00 Build 0)  -->
<svg version="1.1" id="Layer_1" xmlns="http://www.w3.org/2000/svg" xmlns:xlink="http://www.w3.org/1999/xlink" x="0px" y="0px"
	 viewBox="0 0 75 75" style="enable-background:new 0 0 75 75;" xml:space="preserve">
<style type="text/css">
	.st0{fill-rule:evenodd;clip-rule:evenodd;fill:#042149;}
	.st1{fill-rule:evenodd;clip-rule:evenodd;fill:#FFFFFF;}
</style>
<circle class="st0" cx="37.5" cy="37.5" r="37.5"/>
<path class="st1" d="M37.5,65.3c15.3,0,27.8-12.4,27.8-27.8S52.8,9.7,37.5,9.7S9.7,22.2,9.7,37.5S22.2,65.3,37.5,65.3z M37.5,67.5
	c16.6,0,30-13.4,30-30s-13.4-30-30-30s-30,13.4-30,30S20.9,67.5,37.5,67.5z"/>
<path class="st1" d="M25.4,46.9l12.1-12.1l12.1,12.1l3.4-3.4L37.6,28.1l-0.1,0.1l-0.1-0.1L22,43.5L25.4,46.9z"/>
</svg>
