<svg width="60" height="60" viewBox="0 0 60 60" fill="none" xmlns="http://www.w3.org/2000/svg">
<path fill-rule="evenodd" clip-rule="evenodd" d="M30 57.754C45.3281 57.754 57.754 45.3281 57.754 30C57.754 14.6719 45.3281 2.24599 30 2.24599C14.6719 2.24599 2.24599 14.6719 2.24599 30C2.24599 45.3281 14.6719 57.754 30 57.754ZM30 60C46.5685 60 60 46.5685 60 30C60 13.4315 46.5685 0 30 0C13.4315 0 0 13.4315 0 30C0 46.5685 13.4315 60 30 60Z" fill="white"/>
<path fill-rule="evenodd" clip-rule="evenodd" d="M14.3411 26.0867L29.7422 41.4877L29.8395 41.3904L29.9369 41.4877L45.3379 26.0867L41.9347 22.6835L29.8395 34.7787L17.7443 22.6835L14.3411 26.0867Z" fill="white"/>
</svg>
