<?xml version="1.0" encoding="utf-8"?>
<!-- Generator: Adobe Illustrator 24.1.0, SVG Export Plug-In . SVG Version: 6.00 Build 0)  -->
<svg version="1.1" id="Layer_1" xmlns="http://www.w3.org/2000/svg" xmlns:xlink="http://www.w3.org/1999/xlink" x="0px" y="0px"
	 viewBox="0 0 100 100" style="enable-background:new 0 0 100 100;" xml:space="preserve">
<style type="text/css">
	.st0{fill:#231F20;}
</style>
<path class="st0" d="M50.5,41.5V0h-1v41.5c0.2,0,0.3,0,0.5,0S50.3,41.5,50.5,41.5z"/>
<path class="st0" d="M49.5,58.5V100h1V58.5c-0.2,0-0.3,0-0.5,0S49.7,58.5,49.5,58.5z"/>
<path class="st0" d="M100,49.5H58.5c0,0.2,0,0.3,0,0.5s0,0.3,0,0.5H100V49.5z"/>
<path class="st0" d="M41.5,49.5H0v1h41.5c0-0.2,0-0.3,0-0.5S41.5,49.7,41.5,49.5z"/>
<path class="st0" d="M51.7,49.6c-0.1-0.6-0.6-1.2-1.3-1.3c-0.1,0-0.2,0-0.4,0s-0.3,0-0.4,0c-0.6,0.1-1.2,0.6-1.3,1.3
	c0,0.1,0,0.2,0,0.4c0,0.1,0,0.3,0,0.4c0.1,0.6,0.6,1.2,1.3,1.3c0.1,0,0.2,0,0.4,0s0.3,0,0.4,0c0.6-0.1,1.2-0.6,1.3-1.3
	c0-0.1,0-0.2,0-0.4C51.7,49.9,51.7,49.7,51.7,49.6z"/>
</svg>
