<?xml version="1.0" encoding="utf-8"?>
<!-- Generator: Adobe Illustrator 24.0.3, SVG Export Plug-In . SVG Version: 6.00 Build 0)  -->
<svg version="1.1" id="Layer_1" xmlns="http://www.w3.org/2000/svg" xmlns:xlink="http://www.w3.org/1999/xlink" x="0px" y="0px"
	 viewBox="0 0 228.28 228.28" style="enable-background:new 0 0 228.28 228.28;" xml:space="preserve">
<path d="M114.14,142.22l-0.16-0.16l-30.94-30.94v7.91l26.98,26.98l1.7,1.7c0.65,0.64,1.5,0.99,2.41,0.99c0.91,0,1.77-0.36,2.41-0.99
	l1.7-1.7l26.98-26.98v-7.91l-30.94,30.94L114.14,142.22z M114.14,0C51.1,0,0,51.1,0,114.14c0,63.04,51.1,114.14,114.14,114.14
	c63.04,0,114.14-51.1,114.14-114.14C228.28,51.1,177.18,0,114.14,0z M114.14,218.23c-57.49,0-104.09-46.6-104.09-104.09
	c0-57.49,46.6-104.09,104.09-104.09c57.49,0,104.09,46.6,104.09,104.09C218.23,171.63,171.63,218.23,114.14,218.23z M178.28,79.65
	c-0.11-0.01-0.22-0.02-0.33-0.02c-0.75,0-1.52,0.35-2.11,0.93l-12.07,12.07v7.91l10.98-10.98l0.38-0.38v45.99l-0.06,0.06
	l-17.38,17.38l-0.38,0.38V68.72c0-0.96-0.41-1.84-1.1-2.35c-0.5-0.37-1.09-0.56-1.69-0.56c-0.74,0-1.45,0.28-1.98,0.82l-38.21,38.21
	l-0.16,0.16l-0.16-0.16L75.9,66.72c-0.6-0.6-1.36-0.93-2.11-0.93c-0.1,0-0.22,0.01-0.33,0.02c-1.41,0.19-2.44,1.36-2.44,2.77v84.39
	l-0.38-0.38l-17.38-17.38l-0.06-0.06V89.17l0.38,0.38l10.98,10.98v-7.91L52.48,80.55c-0.6-0.6-1.36-0.93-2.11-0.93
	c-0.1,0-0.22,0.01-0.33,0.02c-1.41,0.19-2.44,1.36-2.44,2.77v53.89c0,0.75,0.29,1.45,0.82,1.98l23.42,23.42
	c0.52,0.52,1.23,0.82,1.98,0.82c0.66,0,1.29-0.23,1.8-0.66c0.63-0.52,0.99-1.36,0.99-2.29V75.32l0.38,0.38l34.77,34.77
	c0.65,0.64,1.5,0.99,2.41,0.99s1.77-0.36,2.41-0.99l34.77-34.77l0.38-0.38v84.24c0,0.93,0.37,1.77,0.99,2.29
	c0.51,0.43,1.14,0.66,1.8,0.66c0.74,0,1.45-0.29,1.98-0.82l23.41-23.42c0.52-0.53,0.82-1.23,0.82-1.98h0.02V82.42
	C180.72,81.01,179.69,79.85,178.28,79.65z"/>
</svg>
