<svg width="80" height="80" viewBox="0 0 80 80" fill="none" xmlns="http://www.w3.org/2000/svg">
<path d="M40 49.8405L39.9439 49.7845L29.1011 38.9417V41.7137L38.5562 51.1687L39.1519 51.7645C39.3797 51.9888 39.6776 52.1114 39.9965 52.1114C40.3154 52.1114 40.6168 51.9853 40.8411 51.7645L41.4368 51.1687L50.8919 41.7137V38.9417L40.0491 49.7845L40 49.8405ZM40 0C17.9078 0 0 17.9078 0 40C0 62.0922 17.9078 80 40 80C62.0922 80 80 62.0922 80 40C80 17.9078 62.0922 0 40 0ZM40 76.478C19.8528 76.478 3.52199 60.1472 3.52199 40C3.52199 19.8528 19.8528 3.52199 40 3.52199C60.1472 3.52199 76.478 19.8528 76.478 40C76.478 60.1472 60.1472 76.478 40 76.478ZM62.4777 27.9131C62.4391 27.9096 62.4006 27.9061 62.362 27.9061C62.0992 27.9061 61.8293 28.0287 61.6226 28.232L57.3927 32.4619V35.2339L61.2406 31.386L61.3738 31.2528V47.3699L61.3527 47.3909L55.262 53.4817L55.1288 53.6149V24.0827C55.1288 23.7463 54.9851 23.4379 54.7433 23.2592C54.5681 23.1295 54.3613 23.0629 54.151 23.0629C53.8917 23.0629 53.6429 23.161 53.4572 23.3503L40.0666 36.7408L40.0105 36.7969L39.9544 36.7408L26.5989 23.3818C26.3886 23.1715 26.1223 23.0559 25.8595 23.0559C25.8244 23.0559 25.7824 23.0594 25.7438 23.0629C25.2497 23.1295 24.8887 23.5395 24.8887 24.0336V53.6078L24.7556 53.4747L18.6648 47.3839L18.6438 47.3629V31.2493L18.7769 31.3825L22.6248 35.2304V32.4584L18.3914 28.2285C18.1812 28.0182 17.9148 27.9026 17.652 27.9026C17.617 27.9026 17.5749 27.9061 17.5364 27.9096C17.0422 27.9762 16.6813 28.3862 16.6813 28.8803V47.7659C16.6813 48.0287 16.7829 48.274 16.9686 48.4598L25.1761 56.6673C25.3583 56.8495 25.6071 56.9546 25.87 56.9546C26.1013 56.9546 26.3221 56.874 26.5008 56.7233C26.7216 56.5411 26.8477 56.2467 26.8477 55.9208V26.3957L26.9809 26.5288L39.1659 38.7139C39.3937 38.9381 39.6916 39.0608 40.0105 39.0608C40.3294 39.0608 40.6308 38.9346 40.8551 38.7139L53.0401 26.5288L53.1733 26.3957V55.9173C53.1733 56.2432 53.303 56.5376 53.5202 56.7198C53.699 56.8705 53.9198 56.9511 54.151 56.9511C54.4104 56.9511 54.6592 56.8495 54.8449 56.6637L63.0489 48.4563C63.2311 48.2705 63.3363 48.0252 63.3363 47.7624H63.3433V28.8838C63.3327 28.3897 62.9718 27.9832 62.4777 27.9131Z" fill="white"/>
</svg>
