<?xml version="1.0" encoding="utf-8"?>
<!-- Generator: Adobe Illustrator 24.1.0, SVG Export Plug-In . SVG Version: 6.00 Build 0)  -->
<svg version="1.1" id="Layer_1" xmlns="http://www.w3.org/2000/svg" xmlns:xlink="http://www.w3.org/1999/xlink" x="0px" y="0px"
	 viewBox="0 0 99.66 126.55" style="enable-background:new 0 0 99.66 126.55;" xml:space="preserve">
<style type="text/css">
	.st0{fill:#2C3136;}
	.st1{fill:#D9A348;}
</style>
<g>
	<path class="st0" d="M49.97,117.4c-7.1,0-14.19-0.06-21.29,0.04c-1.74,0.03-2.47-0.33-2.23-2.19c0.2-1.57-0.66-3.53,2.35-3.34
		c1.03,0.06,0.38-1.58,0.53-2.44c0.13-0.73-0.16-1.3-1.03-1.15c-1.76,0.31-2.08-0.69-1.79-2.04c0.28-1.28-1.27-3.6,1.94-3.38
		c1.68,0.12,0.71-1.41,0.86-2.18c0.14-0.68,0.37-1.66-1.01-1.62c-0.73,0.02-2.14,0.47-1.76-1.03c0.36-1.41-1.47-3.58,1.25-4.2
		c1.12-0.25,0.64-0.96,0.55-1.45c-0.43-2.37-1.32-4.52-2.8-6.5c-7.31-9.78-12.48-20.57-13.92-32.79
		c-1.5-12.71,3.04-23.45,12.41-31.85C35.13,11.36,48.2,8.62,62.3,13.39c14.22,4.81,22.67,15.1,25.71,29.75
		c1.65,7.94-0.35,15.49-2.93,22.92c-2.53,7.27-6.24,13.93-10.91,20.04c-1.44,1.89-2.29,3.98-2.68,6.28
		c-0.08,0.45-0.53,1.09,0.24,1.44c0.55,0.25,1.59-0.42,1.63,0.79c0.04,1.35,0.17,2.74-0.07,4.05c-0.16,0.89-1.23,0.45-1.87,0.45
		c-11.56,0.03-23.12,0.05-34.68-0.02c-1.57-0.01-2.19,0.23-2.19,2.01c0.01,1.72,0.67,1.87,2.09,1.87
		c11.48-0.05,22.96,0.04,34.44-0.09c2.18-0.03,2.5,0.75,2.33,2.57c-0.14,1.52,0.48,2.97-2.25,2.92c-11.48-0.2-22.96-0.05-34.44-0.12
		c-1.64-0.01-2.1,0.38-2.17,2.08c-0.08,2.01,1.04,1.71,2.23,1.71c11.48-0.01,22.96,0.08,34.44-0.07c2.41-0.03,2.22,1.16,2.18,2.72
		c-0.04,1.48,0.37,2.84-2.14,2.77C64.17,117.27,57.07,117.4,49.97,117.4z M50,93.47c4.7,0,9.4-0.06,14.1,0.03
		c1.42,0.03,1.93-0.42,2.12-1.82c0.47-3.45,1.86-6.52,4.03-9.29c3.15-4.02,5.72-8.42,7.8-13.08c2.91-6.5,5.52-13.26,5.17-20.41
		c-0.68-13.83-7.48-24.13-20.29-29.56c-12.79-5.43-24.92-3.31-35.31,5.95c-8.2,7.31-12.13,16.69-10.67,27.78
		c1.41,10.72,5.92,20.24,12.32,28.86c2.24,3.01,3.89,6.21,4.36,9.92c0.18,1.4,0.78,1.65,2.01,1.64C40.43,93.43,45.22,93.47,50,93.47
		z"/>
	<path class="st0" d="M49.91,121.14c5.09,0,10.19,0.13,15.27-0.06c2.51-0.09,1.87,1.46,1.89,2.76c0.02,1.36,0.48,2.75-1.97,2.71
		c-10.1-0.15-20.2-0.15-30.3,0c-2.89,0.04-1.82-1.8-2.02-3.14c-0.25-1.64,0.16-2.38,2.1-2.32C39.89,121.25,44.9,121.14,49.91,121.14
		z"/>
	<path class="st0" d="M52.58,3.9c0,0.16,0.02,0.32,0,0.48c-0.17,0.97,0.56,2.46-0.47,2.81c-1.28,0.44-2.83,0.14-4.26,0.1
		c-0.49-0.01-0.55-0.48-0.55-0.89c0-1.75,0.02-3.5-0.01-5.25c-0.01-0.84,0.37-1.13,1.16-1.07c0.55,0.04,1.13,0.08,1.67-0.01
		c1.93-0.31,2.85,0.34,2.48,2.4C52.51,2.94,52.58,3.43,52.58,3.9z"/>
	<path class="st0" d="M3.75,52.33c-0.16,0-0.32,0.02-0.47,0c-0.98-0.14-2.49,0.51-2.82-0.4c-0.46-1.26-0.71-3.22-0.04-4.12
		c1.3-1.75,3.61-0.42,5.47-0.72c0.6-0.1,1.58-0.38,1.67,0.73c0.1,1.26,0.04,2.53,0.03,3.79c-0.01,0.65-0.49,0.72-0.99,0.72
		C5.65,52.33,4.7,52.33,3.75,52.33z"/>
	<path class="st0" d="M95.95,52.33c-0.16,0-0.32,0-0.47,0c-3.12,0-4.38-1.48-3.09-4.41c0.88-1.99,3.22-0.56,4.87-0.8
		c0.73-0.11,2.09-0.73,2.31,0.77c0.17,1.16,0.01,2.37,0.05,3.55c0.02,0.8-0.46,0.89-1.07,0.89C97.69,52.33,96.82,52.33,95.95,52.33z
		"/>
	<path class="st0" d="M76.87,8.44c-1.08,1.84-2.05,3.75-3.28,5.47c-0.53,0.74-1.28-0.2-1.84-0.51c-2.99-1.62-2.98-1.64-1.32-4.53
		c0.16-0.27,0.29-0.56,0.48-0.81c0.59-0.81,0.85-2.48,1.74-2.32c1.39,0.25,2.64,1.31,3.92,2.06C76.72,7.89,76.76,8.19,76.87,8.44z"
		/>
	<path class="st0" d="M8.6,22.73c1.91,1.14,4.22,1.94,5.55,3.55c0.71,0.86-1.16,2.68-1.96,4c-0.62,1.01-1.21-0.11-1.76-0.32
		c-0.73-0.28-1.44-0.7-2.06-1.17c-0.84-0.63-2.57-0.73-2.37-1.94c0.21-1.32,1.26-2.52,1.97-3.75C8.07,22.92,8.36,22.86,8.6,22.73z"
		/>
	<path class="st0" d="M9.53,36.85c-0.33,1.22-0.66,2.45-0.99,3.67c-0.02,0.08-0.05,0.19-0.1,0.21c-2.2,0.87-3.98-0.82-6.01-0.99
		c-1.25-0.1-0.9-1.04-0.76-1.81c0.03-0.16,0.07-0.31,0.12-0.46c1.18-3.96,0.44-3.15,3.98-2.37c1.01,0.22,1.98,0.57,2.98,0.83
		C9.24,36.07,9.68,36.18,9.53,36.85z"/>
	<path class="st0" d="M9.47,62.41c0.37,0.83-0.3,0.96-0.8,1.11c-1.06,0.32-2.21,0.45-3.21,0.88c-2.15,0.93-3.03,0.39-3.6-1.97
		c-0.51-2.1-0.08-2.91,1.94-3.1C4.18,59.3,4.55,59.1,4.94,59C8.41,58.07,9.24,58.7,9.47,62.41z"/>
	<path class="st0" d="M91.77,58.16c2.39,0.66,4.15,1.15,5.92,1.62c0.56,0.15,0.82,0.43,0.65,1.02c-0.04,0.15-0.06,0.31-0.08,0.47
		c-0.64,3.92-0.7,3.96-4.52,2.94c-0.31-0.08-0.63-0.13-0.92-0.26c-0.84-0.37-2.42-0.1-2.42-1.08c-0.01-1.45,0.7-2.91,1.16-4.34
		C91.67,58.18,92.07,58.26,91.77,58.16z"/>
	<path class="st0" d="M36.81,9.39c-1.38-1.57-1.19-3.88-2.01-5.75c-0.47-1.08,0.21-1.42,1.09-1.59c0.08-0.02,0.16-0.02,0.23-0.04
		c3.47-1.03,3.47-1.03,4.42,2.45c0.13,0.46,0.18,0.95,0.38,1.37c0.94,1.93,0.15,2.73-1.78,2.92C38.53,8.82,37.93,9.08,36.81,9.39z"
		/>
	<path class="st0" d="M88.41,30.64c-0.92,0.02-0.98-0.77-1.28-1.25c-1.95-3.11-1.93-3.12,1.15-4.89c0.14-0.08,0.28-0.15,0.42-0.23
		c2.85-1.66,4.27-1.06,5.16,2.2c0.07,0.27,0.12,0.76-0.01,0.85C92.04,28.47,90.2,29.56,88.41,30.64z"/>
	<path class="st0" d="M90.32,36.79c0.04,0.12-0.03,0.01,0-0.02c1.55-1.65,3.83-1.41,5.72-2.17c1.09-0.44,1.32,0.34,1.59,1.13
		c1.22,3.64,1.22,3.63-2.58,4.65c-0.46,0.12-0.94,0.21-1.37,0.39c-1.56,0.68-2.52,0.43-2.68-1.49
		C90.93,38.51,90.59,37.75,90.32,36.79z"/>
	<path class="st0" d="M62.55,9.76c-1.3-1.67-4.36-0.25-3.79-2.81c0.42-1.89-0.27-4.93,2.53-5.42c0.99-0.17,3.92-0.44,3.7,1.91
		C64.8,5.46,64.51,7.91,62.55,9.76z"/>
	<path class="st0" d="M14.42,72.87c-0.07,0.53-0.43,0.7-0.77,0.89c-0.89,0.52-1.78,1.02-2.67,1.54c-2.74,1.57-2.61,1.49-4.29-1.07
		c-1.08-1.64-0.79-2.46,0.89-3.17c0.72-0.3,1.35-0.86,2.08-1.14c0.82-0.31,1.61-1.65,2.42-0.81C13.09,70.16,13.68,71.63,14.42,72.87
		z"/>
	<path class="st0" d="M93.94,72.83c-0.64,1.1-1.35,2.33-2.09,3.54c-0.18,0.29-0.53,0.33-0.84,0.15c-1.71-0.99-3.42-1.98-5.13-2.96
		c-0.58-0.34-0.41-0.72-0.13-1.17c0.46-0.74,0.95-1.47,1.28-2.27c0.59-1.41,1.35-1.44,2.52-0.63c1.1,0.76,2.33,1.34,3.48,2.03
		C93.47,71.78,94.13,71.92,93.94,72.83z"/>
	<path class="st0" d="M26.99,5.59c0.67,0.06,0.85,0.52,1.08,0.93c0.48,0.83,0.95,1.66,1.43,2.48c1.58,2.71,1.53,2.63-1.12,4.3
		c-1.45,0.92-2.37,1.06-3.03-0.78c-0.27-0.74-0.85-1.35-1.17-2.07c-0.37-0.83-1.61-1.73-0.9-2.47C24.28,6.92,25.78,6.33,26.99,5.59z
		"/>
	<path class="st0" d="M22.27,17.59c-1.64,1.59-2.64,2.89-3.95,3.71c-0.82,0.52-1.25-0.86-1.89-1.34c-0.63-0.47-1.07-1.19-1.71-1.64
		c-1.83-1.3-1.43-2.26-0.02-3.79c1.64-1.77,2.58-1.59,4,0.11C19.65,15.76,21,16.56,22.27,17.59z"/>
	<path class="st0" d="M86.78,16.57c-0.28,0.3-0.58,0.65-0.9,0.97c-0.72,0.73-1.55,1.38-2.16,2.2c-1.31,1.77-2.25,1.83-3.92,0.14
		c-1.66-1.68-1.71-2.68,0.13-3.96c0.32-0.22,0.55-0.57,0.85-0.83c0.83-0.7,1.63-2.34,2.4-2.02c1.29,0.53,2.24,1.92,3.32,2.96
		C86.61,16.14,86.65,16.31,86.78,16.57z"/>
	<path class="st1" d="M65.3,30.85c-0.08,0.3-0.12,0.45-0.16,0.61c-1.03,4.09-0.5,4.63,3.67,3.39c1.16-0.34,1.76-0.19,2.26,0.89
		c0.43,0.93,0.94,1.86,1.55,2.68c1.11,1.48,1.09,2.67-0.52,3.78c-0.8,0.54-1.38,1.23-1.04,2.41c0.33,1.13,1.04,1.53,2.08,1.57
		c2.14,0.09,2.87,1.2,2.59,3.25c-0.13,0.94-0.07,1.91-0.01,2.86c0.08,1.17-0.35,1.78-1.57,1.89c-1.21,0.11-2.28,0.37-2.62,1.9
		c-0.3,1.36,0.28,2.16,1.24,2.81c1.17,0.79,1.31,1.61,0.48,2.75c-0.61,0.83-1.16,1.73-1.56,2.68c-0.63,1.49-1.42,1.93-3.1,1.38
		c-1.98-0.65-3.69,1.26-3.03,3.33c0.5,1.55,0.07,2.35-1.34,2.98c-1.01,0.45-1.96,1.06-2.88,1.69c-0.94,0.65-1.6,0.59-2.45-0.28
		c-1.64-1.67-4.08-0.96-4.76,1.38c-0.33,1.14-0.9,1.52-2.03,1.44c-1.27-0.08-2.55-0.08-3.82,0c-1.13,0.07-1.67-0.29-2-1.45
		c-0.56-1.96-3.48-2.7-4.83-1.16c-0.94,1.07-1.59,0.92-2.58,0.27c-1.12-0.75-2.32-1.4-3.5-2.05c-0.73-0.41-0.92-0.93-0.78-1.77
		c0.43-2.63-1.25-4.28-3.81-3.67c-0.99,0.24-1.47-0.02-1.91-0.83c-0.56-1.06-1.12-2.12-1.8-3.1c-0.84-1.22-0.9-2.12,0.3-3.26
		c1.43-1.37,0.61-4.04-1.35-4.4c-1.53-0.28-2.02-0.93-1.89-2.39c0.1-1.11,0.09-2.23,0-3.34c-0.11-1.38,0.37-2.1,1.82-2.16
		c1.28-0.05,1.79-0.82,2.19-2.05c0.43-1.34-0.14-2.01-1.02-2.58c-1.36-0.87-1.25-1.8-0.42-2.96c0.51-0.71,0.99-1.47,1.3-2.27
		c0.72-1.83,1.84-2.46,3.63-1.43c1.08,0.62,1.72,0,2.5-0.65c0.75-0.63,0.92-1.25,0.48-2.06c-1.15-2.11-0.4-3.39,1.7-4.2
		c0.66-0.25,1.3-0.63,1.86-1.06c1.27-1,2.21-0.76,3.18,0.49c0.62,0.8,1.12,1.93,2.66,1.41c1.41-0.47,1.48-1.55,1.6-2.61
		c0.17-1.54,0.83-2.3,2.46-2.07c0.62,0.09,1.28,0.09,1.91,0c2.32-0.34,3.88,0.2,3.83,2.95c-0.01,0.88,0.55,1.35,1.41,1.68
		c1.25,0.47,1.67-0.47,2.39-1.05c0.75-0.61,1.13-2.25,2.23-1.75c1.92,0.88,3.91,1.79,5.43,3.35C65.43,30.24,65.3,30.68,65.3,30.85z
		 M63.89,50.68c0.01-8-6.02-14.14-13.91-14.16c-7.87-0.02-14.04,6.15-14.06,14.08c-0.02,7.84,6.27,14.12,14.09,14.08
		C57.78,64.63,63.88,58.48,63.89,50.68z"/>
	<path class="st0" d="M63.89,50.68c-0.01,7.81-6.11,13.96-13.88,13.99c-7.82,0.04-14.11-6.24-14.09-14.08
		c0.02-7.92,6.18-14.1,14.06-14.08C57.86,36.54,63.89,42.68,63.89,50.68z M41.25,50.69c0.04,4.77,3.93,8.64,8.68,8.65
		c4.86,0,8.73-3.96,8.69-8.88c-0.04-4.76-3.95-8.65-8.68-8.65C45.08,41.8,41.21,45.76,41.25,50.69z"/>
</g>
</svg>
