<?xml version="1.0" encoding="utf-8"?>
<!-- Generator: Adobe Illustrator 24.1.0, SVG Export Plug-In . SVG Version: 6.00 Build 0)  -->
<svg version="1.1" id="Layer_1" xmlns="http://www.w3.org/2000/svg" xmlns:xlink="http://www.w3.org/1999/xlink" x="0px" y="0px"
	 viewBox="0 0 139.41 129.59" style="enable-background:new 0 0 139.41 129.59;" xml:space="preserve">
<style type="text/css">
	.st0{fill:#2A2F37;}
	.st1{fill:#3638E5;}
	.st2{fill:#3537E4;}
	.st3{fill:#D8A249;}
	.st4{fill:#FBFBFB;}
</style>
<g>
	<path class="st0" d="M111.69,17.39c4.68-1.72,9.39-3.39,14.04-5.2c1.37-0.53,1.86-0.25,2.36,1.1c3.64,9.82,7.33,19.61,11.09,29.38
		c0.55,1.44,0.11,1.88-1.17,2.34c-3.06,1.09-6.06,2.33-9.09,3.51c-2.32,0.82-4.63,1.65-6.96,2.47c-0.63,0.22-1.47,0.87-1.8-0.19
		c-0.62-1.95-1.8-1.04-2.82-0.65c-12.67,4.75-25.33,9.53-38.01,14.25c-1.34,0.5-1.82,1.18-1.77,2.62c0.1,3.35-1.3,6.11-4.11,7.89
		c-1.55,0.98-1.26,1.64-0.42,2.89c7.87,11.7,15.68,23.45,23.52,35.18c0.44,0.65,0.99,1.22,1.49,1.83c1.72,3.69,4.33,6.83,6.57,10.18
		c1.04,1.56,0.88,2.24-0.69,3.19c-2.88,1.74-2.8,1.83-4.67-0.94c-2.23-3.29-4.48-6.56-6.73-9.84c-0.4-0.69-0.76-1.4-1.2-2.06
		c-6.28-9.42-12.56-18.83-18.85-28.24c-0.42-0.63-0.87-1.23-1.56-2.21c0,12.76,0,25.02,0,37.27c-0.02,0.71-0.07,1.43-0.07,2.14
		c-0.01,3.81-0.01,3.72-3.7,3.78c-1.56,0.02-2.14-0.39-2-1.99c0.12-1.34-0.03-2.7-0.06-4.05c0-12.12,0-24.24,0-36.36
		c-1.11,0.89-1.77,1.86-2.42,2.84c-6.24,9.43-12.47,18.86-18.71,28.29c-2.6,3.81-5.26,7.58-7.76,11.45
		c-0.87,1.35-1.57,1.83-2.86,0.63c-0.29-0.27-0.63-0.5-0.99-0.66c-1.74-0.8-1.98-1.71-0.78-3.39c2.5-3.48,4.76-7.15,7.11-10.73
		c7.54-11.25,15.09-22.5,22.62-33.76c0.84-1.25,2.14-2.51,2.25-3.85c0.11-1.25-2.02-1.49-2.86-2.53c-0.05-0.06-0.13-0.1-0.17-0.16
		c-0.98-1.69-2.27-1.5-3.87-0.88c-7.28,2.81-14.63,5.42-21.87,8.33c-2.17,0.87-3.14,0.61-3.71-1.64c-0.2-0.8-0.17-2.22-1.92-1.52
		c-5.46,2.19-10.97,4.26-16.46,6.37c-1.13,0.36-2.34,0.56-3.36,1.12c-1.91,1.04-2.83,0.67-3.55-1.47C4.1,79.17,2.23,74.27,0.3,69.39
		c-0.58-1.46-0.36-2.08,1.13-2.57c2.26-0.74,4.45-1.7,6.67-2.56c4.4-1.62,8.78-3.3,13.21-4.83c1.65-0.57,1.95-1.46,1.14-2.81
		c-1.29-2.14-0.29-2.85,1.71-3.59c27.5-10.27,54.97-20.63,82.44-30.97c1.11-0.42,2.71-0.53,1.77-2.51c-0.33-0.69,0.41-0.9,0.92-1.12
		C110.09,18.09,110.89,17.74,111.69,17.39z M61.81,61.36c-0.1-0.02-0.47-0.01-0.51-0.13c-0.64-1.53-1.52-3.05-1.72-4.65
		c-0.11-0.86,1.49-0.93,2.33-1.25c16.8-6.35,33.6-12.69,50.43-18.95c1.6-0.6,2.07-1.15,1.27-2.79c-0.87-1.77-1.48-3.67-2.08-5.55
		c-0.38-1.16-0.73-1.6-2.1-1.08C83.1,36.92,56.77,46.82,30.43,56.68c-1.47,0.55-1.43,1.2-0.95,2.44c1.79,4.57,3.56,9.14,5.15,13.78
		c0.63,1.83,1.36,1.91,3.02,1.28c18.19-6.92,36.42-13.75,54.63-20.61c7.81-2.94,15.6-5.92,23.43-8.8c1.45-0.53,1.68-1.03,1.17-2.54
		c-0.64-1.86-1.59-1.01-2.53-0.65C97.4,47.96,80.44,54.34,63.49,60.73C62.97,60.93,62.45,61.12,61.81,61.36z M124.28,31.84
		c0.7-0.17,0.99-0.08,1.12,0.27c0.52,1.41,1.45,2.84,1.42,4.24c-0.02,1.28-1.9,1.02-2.87,1.6c-0.4,0.24-0.88,0.36-1.33,0.51
		c-0.49,0.16-0.93,0.39-0.71,0.99c0.58,1.55,0.91,3.36,1.94,4.52c0.59,0.67,2.12-0.56,3.23-0.92c1.36-0.43,2.66-1.07,4.02-1.48
		c1.1-0.33,1.32-0.83,0.91-1.9c-2.5-6.52-4.98-13.06-7.4-19.61c-0.36-0.98-0.72-1.2-1.7-0.79c-2.05,0.86-4.12,1.68-6.24,2.35
		c-1.18,0.38-1.22,0.92-0.83,1.9c1.13,2.88,2.25,5.77,3.27,8.69c0.4,1.14,0.96,1.26,1.95,0.84
		C122.24,32.59,123.44,32.17,124.28,31.84z M28.22,71.83c-0.94-2.43-1.86-4.88-2.84-7.31c-0.33-0.81-1-0.27-1.43-0.11
		c-5.28,1.96-10.53,4-15.82,5.94c-1.01,0.37-1.19,0.84-0.83,1.75c0.78,1.99,1.58,3.98,2.27,6.01c0.36,1.04,0.82,1.07,1.76,0.71
		c5.26-2.02,10.55-3.96,15.82-5.95C27.63,72.7,28.3,72.63,28.22,71.83z M64.84,69.95c2.84,1.72,5.38,1.27,6.55-0.84
		c0.18-0.32,0.39-0.8,0.27-1.08c-0.22-0.53-0.8-0.41-1.23-0.24C68.68,68.44,66.94,69.13,64.84,69.95z"/>
	<path class="st1" d="M111.69,17.39c-0.8,0.34-1.6,0.69-2.41,1.03c-0.51,0.22-1.24,0.43-0.92,1.12c0.94,1.98-0.66,2.09-1.77,2.51
		C79.13,32.4,51.66,42.75,24.16,53.03c-2,0.75-3,1.45-1.71,3.59c0.82,1.35,0.51,2.24-1.14,2.81c-4.43,1.53-8.81,3.21-13.21,4.83
		c-0.64-12.82,2.29-24.72,9.21-35.58c4.23,6.55,10.08,9.93,18.03,9.35c9.67-0.71,17.53-10.18,16.12-19.52
		c-3.12,6.52-8.22,9.72-14.18,8.9c-5.49-0.76-9.99-4.95-10.93-10.18c9.81-9.2,21.25-15.14,34.66-16.73
		C80.48-1.79,97.51,3.64,111.69,17.39z M70.92,17.96c-2.21-0.65-3.06,0.11-2.95,2.53c0.09,1.94,0.22,3.06,2.63,2.84
		c1.82-0.17,3.35,0.15,3.11-2.6C73.54,18.77,73.7,17.09,70.92,17.96z"/>
	<path class="st2" d="M98.04,114.81c-0.5-0.61-1.06-1.18-1.49-1.83C88.71,101.25,80.9,89.51,73.03,77.8
		c-0.84-1.24-1.12-1.91,0.42-2.89c2.81-1.78,4.21-4.55,4.11-7.89c-0.04-1.44,0.44-2.12,1.77-2.62c12.68-4.72,25.34-9.51,38.01-14.25
		c1.02-0.38,2.2-1.3,2.82,0.65c0.33,1.06,1.17,0.41,1.8,0.19c2.32-0.81,4.64-1.64,6.96-2.47c4.9,25.85-5.56,50.47-27.35,64.29
		C100.44,113.55,99.22,114.15,98.04,114.81z M117.15,65.59c0.57-2.14-0.08-2.95-2.43-2.89c-2.19,0.06-3.23,0.28-3.12,2.91
		c0.09,2.28,0.6,2.94,2.92,2.9C116.82,68.49,117.82,67.93,117.15,65.59z M99.02,86.43c0.64-2.18-0.06-3-2.51-2.99
		c-2.27,0.01-2.96,0.56-2.88,2.87c0.07,2.03,0.17,3.13,2.72,2.98C98.46,89.18,99.81,89.03,99.02,86.43z"/>
	<path class="st2" d="M12.69,84.49c5.49-2.12,11-4.18,16.46-6.37c1.76-0.7,1.72,0.72,1.92,1.52c0.57,2.25,1.54,2.52,3.71,1.64
		c7.23-2.91,14.59-5.52,21.87-8.33c1.6-0.62,2.89-0.81,3.87,0.88c0.04,0.07,0.12,0.1,0.17,0.16c0.84,1.04,2.97,1.28,2.86,2.53
		c-0.12,1.34-1.42,2.59-2.25,3.85c-7.53,11.26-15.08,22.51-22.62,33.76c-11.41-6.7-19.93-16-25.39-28.08
		C13.06,85.54,12.89,85.01,12.69,84.49z M39.08,92.5c0.71-2.4-0.4-2.89-2.63-2.89c-2.15,0-3.03,0.33-2.96,2.78
		c0.07,2.26,0.4,3.19,2.96,3.07C38.69,95.35,39.76,94.89,39.08,92.5z"/>
	<path class="st3" d="M26.34,17.23c0.94,5.23,5.44,9.43,10.93,10.18c5.96,0.82,11.06-2.37,14.18-8.9
		c1.41,9.34-6.44,18.81-16.12,19.52c-7.95,0.58-13.8-2.8-18.03-9.35c-2.08-4.64-2.81-9.39-1.2-14.35c2.6-8.04,9.73-12.95,18.8-12.61
		C28.44,5.14,24.68,9.76,26.34,17.23z"/>
	<path class="st1" d="M70.91,122.16c0-12.25,0-24.51,0-37.27c0.7,0.98,1.15,1.59,1.56,2.21c6.29,9.41,12.57,18.82,18.85,28.24
		c0.44,0.66,0.8,1.37,1.2,2.06C85.65,120.53,78.39,121.83,70.91,122.16z"/>
	<path class="st1" d="M43.95,116.82c6.24-9.43,12.47-18.86,18.71-28.29c0.65-0.98,1.31-1.95,2.42-2.84c0,12.12,0,24.24,0,36.36
		C57.73,121.57,50.69,119.79,43.95,116.82z"/>
	<path class="st4" d="M61.81,61.36c0.64-0.24,1.16-0.43,1.68-0.63c16.95-6.38,33.9-12.77,50.86-19.15c0.94-0.35,1.89-1.21,2.53,0.65
		c0.52,1.5,0.29,2-1.17,2.54c-7.83,2.88-15.62,5.86-23.43,8.8c-18.22,6.86-36.44,13.69-54.63,20.61c-1.66,0.63-2.4,0.55-3.02-1.28
		c-1.58-4.64-3.36-9.22-5.15-13.78c-0.48-1.24-0.52-1.89,0.95-2.44c26.34-9.86,52.67-19.76,78.98-29.71
		c1.37-0.52,1.73-0.09,2.1,1.08c0.61,1.88,1.22,3.78,2.08,5.55c0.8,1.64,0.33,2.19-1.27,2.79C95.5,42.65,78.69,48.98,61.9,55.34
		c-0.84,0.32-2.43,0.39-2.33,1.25c0.2,1.6,1.08,3.12,1.72,4.65C61.34,61.35,61.7,61.34,61.81,61.36z"/>
	<path class="st4" d="M124.28,31.84c-0.85,0.32-2.05,0.75-3.21,1.24c-0.99,0.42-1.56,0.3-1.95-0.84c-1.02-2.92-2.14-5.81-3.27-8.69
		c-0.39-0.99-0.35-1.53,0.83-1.9c2.12-0.67,4.19-1.49,6.24-2.35c0.98-0.41,1.34-0.19,1.7,0.79c2.42,6.55,4.9,13.09,7.4,19.61
		c0.41,1.07,0.19,1.56-0.91,1.9c-1.36,0.41-2.66,1.05-4.02,1.48c-1.11,0.35-2.64,1.58-3.23,0.92c-1.04-1.16-1.36-2.97-1.94-4.52
		c-0.23-0.6,0.22-0.83,0.71-0.99c0.45-0.15,0.93-0.27,1.33-0.51c0.97-0.59,2.85-0.33,2.87-1.6c0.02-1.41-0.9-2.83-1.42-4.24
		C125.27,31.76,124.99,31.67,124.28,31.84z"/>
	<path class="st4" d="M28.22,71.83c0.08,0.81-0.59,0.87-1.07,1.05c-5.27,1.99-10.56,3.93-15.82,5.95c-0.94,0.36-1.41,0.33-1.76-0.71
		c-0.69-2.03-1.49-4.02-2.27-6.01c-0.36-0.92-0.18-1.38,0.83-1.75c5.29-1.94,10.54-3.98,15.82-5.94c0.42-0.16,1.1-0.7,1.43,0.11
		C26.37,66.94,27.29,69.4,28.22,71.83z"/>
	<path class="st2" d="M64.84,69.95c2.1-0.81,3.84-1.5,5.59-2.16c0.44-0.16,1.01-0.29,1.23,0.24c0.12,0.28-0.09,0.76-0.27,1.08
		C70.22,71.22,67.68,71.67,64.84,69.95z"/>
	<path class="st4" d="M70.92,17.96c2.78-0.87,2.62,0.8,2.79,2.76c0.24,2.75-1.3,2.43-3.11,2.6c-2.41,0.22-2.54-0.9-2.63-2.84
		C67.85,18.07,68.71,17.31,70.92,17.96z"/>
	<path class="st4" d="M117.15,65.59c0.66,2.34-0.34,2.9-2.63,2.93c-2.32,0.03-2.83-0.63-2.92-2.9c-0.11-2.64,0.93-2.85,3.12-2.91
		C117.07,62.64,117.72,63.45,117.15,65.59z"/>
	<path class="st4" d="M99.02,86.43c0.79,2.6-0.56,2.75-2.67,2.87c-2.54,0.15-2.64-0.95-2.72-2.98c-0.08-2.31,0.6-2.86,2.88-2.87
		C98.96,83.44,99.66,84.26,99.02,86.43z"/>
	<path class="st4" d="M39.08,92.5c0.68,2.39-0.39,2.85-2.63,2.95c-2.55,0.12-2.89-0.81-2.96-3.07c-0.07-2.45,0.81-2.78,2.96-2.78
		C38.68,89.61,39.79,90.1,39.08,92.5z"/>
</g>
</svg>
