<?xml version="1.0" encoding="utf-8"?>
<!-- Generator: Adobe Illustrator 24.1.0, SVG Export Plug-In . SVG Version: 6.00 Build 0)  -->
<svg version="1.1" id="Layer_1" xmlns="http://www.w3.org/2000/svg" xmlns:xlink="http://www.w3.org/1999/xlink" x="0px" y="0px"
	 viewBox="0 0 135.37 130.73" style="enable-background:new 0 0 135.37 130.73;" xml:space="preserve">
<style type="text/css">
	.st0{fill:#3638E5;}
	.st1{fill:#2B3037;}
	.st2{fill:#D7A149;}
</style>
<g>
	<path class="st0" d="M18.96,81.34c-6.52-1.39-11.87-4.56-15.47-10.29C-4.76,57.93,2.3,40.76,17.42,37.33
		c1.83-0.42,2.36-1.12,2.47-2.89c1.13-17.96,14.36-30.4,28.55-33.56c19.93-4.44,40,8.43,43.88,28.46c0.36,1.86,0.98,2.04,2.63,1.78
		c16.28-2.62,29.63,9,29.44,25.63c-0.02,1.31,0.34,1.76,1.6,2.05c6.01,1.37,9.96,6.56,9.31,12.07c-0.76,6.49-5.35,10.55-11.98,10.57
		c-5.02,0.01-10.05,0-15.07-0.01c0.99-4.71,1.3-9.49,0.78-14.25c-2.67-24.26-24.77-41.15-48.99-37.54
		c-20.43,3.05-35.93,20.82-36.07,41.36c-0.01,0.87,0.09,1.74-0.4,2.55C22.01,76.13,20.49,78.74,18.96,81.34z M32.06,37.22
		c1.09-0.25,2.76,0.9,2.91-1.71c0.66-10.92,8.66-19.51,19.71-20.9c2.81-0.35,3.01-1.43,2.92-3.64c-0.06-1.4-0.29-1.89-1.84-1.83
		C42.42,9.69,30.32,21.6,29.71,34.82C29.63,36.52,29.59,37.99,32.06,37.22z M14.48,57.35c0.88-0.35,2.43,0.78,2.7-1.26
		c0.6-4.52,3.25-7.3,7.59-8.47c0.86-0.23,1.19-0.62,1.02-1.49c-0.15-0.78-0.34-1.57-0.33-2.36c0.01-1.35-0.53-1.52-1.77-1.28
		c-5.73,1.1-10.74,6.32-11.66,12.2C11.73,56.64,12.01,57.89,14.48,57.35z"/>
	<path class="st0" d="M102.65,81.43c-8.58-0.03-17.16-0.06-25.74-0.08c4-5.08,8.01-10.15,12.3-15.6c-1.27,0-2.04,0-2.81,0
		c-5.73,0-11.46,0-17.19,0c-2.69,0-2.68,0-1.8-2.67c2.16-6.56,4.32-13.13,6.48-19.7c0.18-0.54,0.61-1.08-0.04-1.82
		c-0.53,0.6-1.02,1.1-1.45,1.63c-5.01,6.18-10.03,12.36-15.01,18.56c-5.22,6.51-10.39,13.05-15.58,19.58c-5.51,0-11.01,0-16.52,0.01
		c2.74-4.28,4.66-8.79,4.14-14.06c-0.11-1.06,0.29-2.2,0.56-3.28c3.51-14.33,12.17-24.08,26.39-28.11
		c14.51-4.12,27.39-0.44,37.66,10.57C103.26,56.36,106.01,68.23,102.65,81.43z"/>
	<path class="st1" d="M102.65,81.43c3.36-13.2,0.6-25.07-8.64-34.98C83.74,35.45,70.87,31.77,56.36,35.88
		C42.14,39.92,33.48,49.67,29.97,64c-0.26,1.08-0.66,2.21-0.56,3.28c0.52,5.27-1.4,9.77-4.14,14.06c-2.32,3.87-4.63,7.75-7.2,12.05
		c1.45,0,2.51-0.01,3.57,0c3.17,0.02,3.85,0.71,3.85,3.98c0.01,4.54-0.01,9.08,0,13.62c0.01,5.63,3.4,9.05,9.06,9.1
		c5.18,0.05,10.36,0,15.54,0.01c2.53,0.01,3.26,0.72,3.32,3.23c0.04,1.91-0.03,3.83,0.02,5.74c0.03,1.02-0.14,1.55-1.4,1.6
		c-3.66,0.15-3.73,0.23-3.7-3.51c0.01-1.44-0.33-1.95-1.84-1.91c-3.9,0.1-7.81,0.04-11.71,0.03c-8.72-0.01-14.36-5.5-14.54-14.24
		c-0.07-3.58-0.07-7.17,0.02-10.76c0.03-1.32-0.31-1.86-1.7-1.74c-1.42,0.12-2.87,0.04-4.3,0.02c-2.95-0.04-4.03-1.8-2.6-4.38
		c2.39-4.31,4.86-8.57,7.3-12.85c1.54-2.6,3.06-5.21,4.61-7.8c0.49-0.82,0.4-1.68,0.4-2.55c0.14-20.54,15.64-38.31,36.07-41.36
		c24.22-3.61,46.32,13.28,48.99,37.54c0.52,4.76,0.21,9.54-0.78,14.25c-1.86,7.02-4.93,13.41-9.89,18.79
		c-0.8,0.87-0.78,1.84-0.78,2.87c0.01,7.01-0.11,14.02,0.06,21.02c0.07,2.67-1.6,1.86-2.95,2.01c-1.58,0.17-2.39-0.08-2.36-2.08
		c0.14-7.64,0.09-15.29,0.03-22.93c-0.01-1.55,0.47-2.66,1.53-3.79C98.16,92.77,101.29,87.58,102.65,81.43z"/>
	<path class="st2" d="M41.79,81.33c5.19-6.53,10.37-13.07,15.58-19.58c4.98-6.21,10-12.38,15.01-18.56
		c0.44-0.54,0.92-1.04,1.45-1.63c0.65,0.74,0.22,1.28,0.04,1.82c-2.16,6.57-4.31,13.13-6.48,19.7c-0.88,2.67-0.89,2.67,1.8,2.67
		c5.73,0,11.46,0,17.19,0c0.77,0,1.54,0,2.81,0c-4.29,5.45-8.3,10.52-12.3,15.6c-5.23,6.41-10.43,12.83-15.69,19.21
		c-1.48,1.8-2.75,3.82-5.13,5.71c2.63-7.9,5.01-15.17,7.49-22.4c0.64-1.85,0.6-2.57-1.74-2.53C55.16,81.48,48.48,81.35,41.79,81.33z
		"/>
</g>
</svg>
