<?xml version="1.0" encoding="utf-8"?>
<!-- Generator: Adobe Illustrator 24.1.0, SVG Export Plug-In . SVG Version: 6.00 Build 0)  -->
<svg version="1.1" id="Layer_1" xmlns="http://www.w3.org/2000/svg" xmlns:xlink="http://www.w3.org/1999/xlink" x="0px" y="0px"
	 viewBox="0 0 127.42 127.65" style="enable-background:new 0 0 127.42 127.65;" xml:space="preserve">
<style type="text/css">
	.st0{fill:#2D3238;}
	.st1{fill:#D9A348;}
	.st2{fill:#D9A349;}
	.st3{fill:#2A2F36;}
	.st4{fill:#3638E5;}
	.st5{fill:#FDFDFD;}
</style>
<g>
	<path class="st0" d="M98.06,43.07c1.08,1.97,2.95,0.96,4.26,0.76c2.33-0.35,3.06,0.53,3.52,2.57c0.82,3.65,1.8,7.26,2.83,10.85
		c0.4,1.4,0.17,2.2-1.21,2.76c-1.25,0.5-2.44,1.17-3.63,1.8c-1.3,0.69-1.35,1.48-0.07,2.26c0.47,0.29,0.98,0.53,1.47,0.79
		c4.1,2.13,4.1,2.13,2.86,6.62c-0.78,2.84-1.62,5.66-2.31,8.52c-0.41,1.7-1.01,2.69-3.05,2.18c-1.29-0.32-2.69-0.2-4.04-0.29
		c-1.51-0.1-1.69,0.5-0.92,1.67c0.92,1.39,1.76,2.84,2.72,4.21c0.64,0.91,0.76,1.56-0.16,2.44c-3.17,3.02-6.27,6.13-9.36,9.24
		c-0.68,0.69-1.22,0.79-2.04,0.19c-1.48-1.07-3.07-2-4.59-3.02c-1.08-0.72-1.43-0.28-1.37,0.82c0.1,1.91,0.16,3.82,0.35,5.72
		c0.1,1.03-0.31,1.4-1.23,1.63c-4.16,1.06-8.32,2.15-12.46,3.27c-1.18,0.32-1.9,0.11-2.44-1.1c-0.84-1.87-1.85-3.65-3.02-5.92
		c-1.21,2.27-2.3,4.15-3.23,6.11c-0.53,1.11-1.02,1.49-2.34,1.09c-4.03-1.23-8.1-2.32-12.18-3.35c-1.27-0.32-1.69-0.79-1.48-2.12
		c0.23-1.41,0.14-2.86,0.2-4.29c0.08-1.96-0.65-2.13-2.01-0.91c-0.42,0.04-0.77,0.18-0.9,0.63c0,0,0.04-0.02,0.04-0.02
		c-0.32-0.02-0.53,0.09-0.54,0.45c0,0,0.02-0.01,0.02-0.01c-0.72-0.11-1.23,0.36-1.67,0.77c-1.61,1.48-2.71,0.97-4.05-0.54
		c-2.2-2.49-4.56-4.87-7.06-7.06c-1.63-1.42-2.31-2.75-1.13-4.69c0,0-0.01,0.01-0.01,0.01c0.4,0.04,0.48-0.2,0.45-0.53
		c0,0-0.01,0.03-0.01,0.03c0.53-0.12,0.64-0.54,0.68-0.99c0.41-0.78,1.63-1.2,1.11-2.4c-0.59-1.33-1.79-0.79-2.73-0.76
		c-4.61,0.16-4.61,0.19-5.82-4.41c-0.77-2.92-1.45-5.87-2.35-8.75c-0.46-1.48-0.35-2.37,1.25-2.88c0.9-0.29,1.73-0.81,2.56-1.28
		c1.49-0.85,1.52-2.39,0.09-3.26c-0.07-0.04-0.15-0.06-0.22-0.1c-4.34-2.44-4.34-2.44-3.04-7.19c0.78-2.84,1.65-5.65,2.31-8.52
		c0.35-1.52,0.98-2.2,2.57-1.8c0.61,0.15,1.27,0.12,1.9,0.19c0.94,0.1,1.64-0.1,2.1-1.08c0.44-0.91,0.65-1.59,0.02-2.6
		c-2.22-3.58-2.18-3.62,0.8-6.57c2.26-2.24,4.62-4.39,6.8-6.72c1.1-1.17,1.88-1.21,3.19-0.32c0.93,0.63,1.64,2.02,3.28,1.33
		c1.73-0.73,2.16-1.99,1.81-3.61c-0.5-2.3,0.45-3.21,2.67-3.66c3.58-0.73,7.13-1.66,10.62-2.74c1.61-0.5,2.38-0.08,2.89,1.36
		c0.13,0.37,0.37,0.7,0.52,1.07c0.41,0.98,0.81,1.73,2.17,1.75c1.36,0.01,1.97-0.54,2.55-1.63c1.7-3.23,1.74-3.22,5.22-2.26
		c3.22,0.89,6.4,1.93,9.66,2.65c1.7,0.38,2.25,1.09,1.99,2.75c-0.31,2-0.48,4.01,2.05,4.83c-0.97,1.67-2.43,2.88-3.9,4.07
		c-2.57-1.24-4.94-2.58-3.84-6.14c0.19-0.61-0.27-0.95-0.93-1.11c-1.54-0.37-3.07-0.84-4.59-1.29c-0.78-0.23-1.48-0.2-1.71,0.72
		c-0.81,3.15-3.01,3.29-5.67,2.83c-1.15-0.2-2.39-0.04-3.57,0.13c-1.29,0.19-2.26-0.1-2.59-1.41c-0.61-2.48-2.16-2.44-4.08-1.68
		c-0.44,0.17-0.92,0.31-1.38,0.35c-2.1,0.18-2.95,1.26-2.46,3.32c0.3,1.28-0.08,2.06-1.36,2.6c-1.98,0.83-3.82,1.98-5.51,3.3
		c-0.8,0.62-1.5,0.9-2.27,0.1c-1.92-1.98-3.47-1.38-4.94,0.59c-0.52,0.7-1.2,1.28-1.85,1.86c-0.65,0.57-0.86,1.15-0.21,1.8
		c2.14,2.13,1.46,4.09-0.14,6.19c-0.8,1.05-1.29,2.37-1.8,3.62c-0.4,0.98-1.08,1.46-2.03,1.17c-3-0.91-3.95,0.67-4.24,3.26
		c-0.08,0.7-0.27,1.42-0.58,2.06c-0.52,1.09-0.09,1.7,0.9,1.97c2.92,0.82,3.68,2.83,3.23,5.58c-0.09,0.54-0.11,1.16,0.07,1.66
		c0.9,2.58-0.21,3.97-2.59,4.8c-0.8,0.28-1.96,0.45-1.52,1.91c0.49,1.6,0.84,3.23,1.24,4.85c0.18,0.75,0.67,1.12,1.39,0.91
		c3.82-1.14,5.87,0.83,7.25,4.05c0.18,0.43,0.49,0.84,0.83,1.17c1,0.96,0.81,1.78,0.06,2.88c-2.4,3.54-2.35,3.58,0.68,6.67
		c0.28,0.28,0.6,0.54,0.83,0.86c0.73,0.98,1.53,1.02,2.39,0.2c2.68-2.53,5.43-2.79,8.3-0.32c0.18,0.15,0.41,0.26,0.64,0.32
		c1.59,0.42,1.96,1.4,1.85,3.01c-0.3,4.49-0.17,4.36,4.08,5.71c2.1,0.67,3.1,0.14,3.69-1.81c0.87-2.88,2.67-3.81,5.78-3.81
		c2.75,0,4.3,0.65,5.08,3.22c0.18,0.6,0.62,1.12,0.83,1.71c0.34,0.94,0.86,1.08,1.84,0.88c5.48-1.14,5.48-1.11,5.41-6.66
		c0-0.32,0.02-0.64-0.01-0.96c-0.07-0.71,0.22-1.11,0.84-1.52c4.85-3.2,4.87-3.27,9.61-0.14c1.12,0.74,1.76,0.69,2.55-0.27
		c0.45-0.55,0.94-1.12,1.52-1.52c2.2-1.53,2.39-3.17,0.55-5.15c-1.67-1.8-1.61-3.4-0.32-5.76c1.65-3.01,3.51-4.02,6.69-3.31
		c0.66,0.15,1.74,0.63,2.1-0.38c0.66-1.87,1.13-3.81,1.63-5.73c0.18-0.7-0.43-1.03-0.93-1.18c-3.77-1.11-5.36-3.45-4.31-7.37
		c0.06-0.22,0.04-0.49-0.03-0.71c-0.48-1.61,0.25-2.41,1.69-3.09c3.65-1.74,3.62-1.8,2.57-5.7c-0.04-0.15-0.11-0.31-0.11-0.46
		c-0.12-2.17-1.33-2.84-3.32-2.38c-2.11,0.49-3.7,0.04-4.36-2.25C95.11,45.67,96.46,44.24,98.06,43.07z"/>
	<path class="st1" d="M98.06,43.07c-1.6,1.18-2.94,2.61-4.18,4.15c-4.03,3.73-7.95,7.57-11.62,11.66c-1.93,1.52-3.64,3.26-5.17,5.18
		c-4.06,3.65-7.91,7.52-11.58,11.56c-6.85,1.81-14.62-5.27-14.16-12.89c4.46-4.12,8.75-8.4,12.86-12.86
		c1.78-1.41,3.38-3.01,4.79-4.79c4.18-3.82,8.18-7.83,12.01-12c1.47-1.19,2.93-2.4,3.9-4.07c3.43-2.59,6.12-5.94,9.22-8.86
		c1.67-1.57,3.27-3.22,4.9-4.83c4.49,4.39,8.97,8.78,13.46,13.16C107.66,33.31,102.65,37.98,98.06,43.07z"/>
	<path class="st2" d="M27.83,87.08c-1.18,1.95-0.49,3.27,1.13,4.69c2.5,2.19,4.86,4.57,7.06,7.06c1.34,1.51,2.44,2.02,4.05,0.54
		c0.44-0.4,0.95-0.88,1.67-0.77c0.1,0.68-0.45,0.98-0.82,1.35c-5.44,5.44-10.9,10.86-16.35,16.29c-0.6-0.63-1.2-1.25-1.8-1.88
		c-3.71-3.89-7.79-7.42-11.26-11.55c4.93-4.95,9.85-9.9,14.79-14.83C26.72,87.57,27.02,86.86,27.83,87.08z"/>
	<path class="st3" d="M112.49,28.46c-4.49-4.39-8.97-8.77-13.46-13.16c3.5-4.11,7.54-7.69,11.3-11.55c1.63-1.67,1.86,1.02,2.98,1.02
		c3.04,3.28,6.03,6.6,9.56,9.38c1.9,1.84,1.22,3.13-0.58,4.73C118.89,21.92,115.75,25.25,112.49,28.46z M111.9,20.99
		c0.51-0.27,0.74-0.34,0.89-0.49c1.32-1.36,3.08-2.54,3.76-4.17c0.36-0.86-1.73-2.01-2.67-3.07c-0.37-0.42-0.85-0.75-1.16-1.19
		c-1.04-1.46-1.84-1.37-3.09-0.05c-3.07,3.25-3.13,3.16-0.03,6.31C110.43,19.18,111.16,20.13,111.9,20.99z"/>
	<path class="st0" d="M11.52,102.82c3.47,4.13,7.55,7.66,11.26,11.55c0.6,0.63,1.2,1.26,1.8,1.88c-8.04,3.8-16.08,7.6-24.12,11.4
		c-0.15-0.19-0.3-0.38-0.46-0.57c1.14-2.47,2.24-4.95,3.43-7.39C6.16,114.08,8.36,108.22,11.52,102.82z M17.07,113.75
		c-2.85-4.04-3.02-4.04-4.94,0.11c-0.34,0.74-0.64,1.49-1.1,2.55C13.4,115.71,15.22,114.74,17.07,113.75z"/>
	<path class="st4" d="M122.87,14.15c-3.53-2.78-6.52-6.1-9.56-9.38c6.33-6.66,4.24-5.89,9.98-0.49c1.16,1.09,2.26,2.25,3.39,3.37
		c0.97,0.96,1.03,1.89-0.02,2.86C125.38,11.71,124.13,12.94,122.87,14.15z"/>
	<path class="st2" d="M28.94,85.6c-0.04,0.46-0.15,0.87-0.68,0.99C28.11,86.01,28.51,85.79,28.94,85.6z"/>
	<path class="st2" d="M42.23,98.19c0.13-0.45,0.48-0.59,0.9-0.63C42.96,97.95,42.73,98.26,42.23,98.19z"/>
	<path class="st2" d="M28.27,86.56c0.03,0.33-0.05,0.56-0.45,0.53C27.69,86.68,27.88,86.54,28.27,86.56z"/>
	<path class="st2" d="M41.73,98.62c0.01-0.36,0.22-0.47,0.54-0.45C42.25,98.51,42.1,98.69,41.73,98.62z"/>
	<path class="st5" d="M81.01,33.06c-3.83,4.17-7.83,8.18-12.01,12c-2.17-0.67-4.39-0.75-6.63-0.54
		c-9.81,0.92-17.97,9.56-16.61,20.39c1.42,11.27,11.68,18.35,22.21,16.17c9.1-1.88,16.53-11.29,14.28-22.21
		c3.67-4.09,7.59-7.93,11.62-11.66c0.66,2.29,2.25,2.74,4.35,2.25c1.99-0.47,3.2,0.21,3.32,2.38c0.01,0.16,0.07,0.31,0.11,0.46
		c1.05,3.89,1.08,3.96-2.57,5.7c-1.43,0.68-2.17,1.48-1.69,3.09c0.07,0.22,0.09,0.49,0.03,0.71c-1.05,3.92,0.54,6.26,4.31,7.37
		c0.51,0.15,1.12,0.48,0.93,1.18c-0.5,1.92-0.97,3.87-1.63,5.73c-0.36,1.01-1.44,0.53-2.1,0.38c-3.18-0.71-5.04,0.3-6.69,3.31
		c-1.3,2.37-1.35,3.97,0.32,5.76c1.84,1.98,1.65,3.62-0.55,5.15c-0.58,0.4-1.07,0.97-1.52,1.52c-0.78,0.96-1.42,1.02-2.55,0.27
		c-4.73-3.13-4.76-3.06-9.61,0.14c-0.62,0.41-0.92,0.8-0.84,1.52c0.03,0.32,0,0.64,0.01,0.96c0.07,5.55,0.06,5.52-5.41,6.66
		c-0.97,0.2-1.5,0.07-1.84-0.88c-0.21-0.59-0.65-1.11-0.83-1.71c-0.78-2.57-2.32-3.22-5.08-3.22c-3.12,0-4.92,0.93-5.78,3.81
		c-0.59,1.95-1.59,2.48-3.69,1.81c-4.25-1.36-4.38-1.22-4.08-5.71c0.11-1.62-0.27-2.6-1.85-3.01c-0.23-0.06-0.46-0.17-0.64-0.32
		c-2.87-2.47-5.62-2.21-8.3,0.32c-0.86,0.81-1.66,0.78-2.39-0.2c-0.24-0.32-0.56-0.57-0.83-0.86c-3.03-3.09-3.08-3.13-0.68-6.67
		c0.75-1.1,0.94-1.92-0.06-2.88c-0.34-0.33-0.64-0.74-0.83-1.17c-1.38-3.22-3.43-5.19-7.25-4.05c-0.72,0.21-1.21-0.16-1.39-0.91
		c-0.4-1.62-0.75-3.26-1.24-4.85c-0.45-1.46,0.72-1.63,1.52-1.91c2.38-0.83,3.49-2.22,2.59-4.8c-0.18-0.5-0.15-1.12-0.07-1.66
		c0.45-2.76-0.31-4.76-3.23-5.58c-0.99-0.28-1.42-0.89-0.9-1.97c0.3-0.64,0.5-1.36,0.58-2.06c0.29-2.59,1.24-4.17,4.24-3.26
		c0.95,0.29,1.63-0.19,2.03-1.17c0.51-1.25,1-2.57,1.8-3.62c1.6-2.1,2.28-4.06,0.14-6.19c-0.66-0.65-0.44-1.24,0.21-1.8
		c0.66-0.58,1.34-1.17,1.85-1.86c1.47-1.97,3.02-2.56,4.94-0.59c0.77,0.8,1.47,0.52,2.27-0.1c1.69-1.33,3.53-2.47,5.51-3.3
		c1.28-0.54,1.66-1.32,1.36-2.6c-0.49-2.06,0.37-3.14,2.46-3.32c0.47-0.04,0.94-0.18,1.38-0.35c1.91-0.76,3.46-0.8,4.08,1.68
		c0.32,1.31,1.3,1.6,2.59,1.41c1.18-0.17,2.42-0.33,3.57-0.13c2.66,0.45,4.86,0.32,5.67-2.83c0.24-0.92,0.93-0.95,1.71-0.72
		c1.53,0.45,3.05,0.91,4.59,1.29c0.66,0.16,1.12,0.49,0.93,1.11C76.07,30.48,78.43,31.82,81.01,33.06z"/>
	<path class="st0" d="M82.26,58.87c2.25,10.92-5.19,20.33-14.28,22.21c-10.53,2.18-20.8-4.9-22.21-16.17
		c-1.36-10.84,6.81-19.47,16.61-20.39c2.23-0.21,4.46-0.13,6.63,0.54c-1.41,1.78-3.01,3.38-4.79,4.79
		c-7.38,0.22-13.07,5.91-12.86,12.86c-0.46,7.63,7.31,14.71,14.16,12.89c5.98-0.19,11.08-5.29,11.58-11.56
		C78.62,62.13,80.33,60.39,82.26,58.87z"/>
	<path class="st5" d="M51.35,62.72c-0.21-6.95,5.47-12.64,12.86-12.86C60.1,54.32,55.81,58.6,51.35,62.72z"/>
	<path class="st5" d="M77.09,64.05c-0.49,6.28-5.59,11.38-11.58,11.56C69.18,71.57,73.03,67.7,77.09,64.05z"/>
	<path class="st5" d="M111.9,20.99c-0.74-0.86-1.47-1.81-2.31-2.65c-3.1-3.14-3.04-3.06,0.03-6.31c1.25-1.33,2.06-1.41,3.09,0.05
		c0.32,0.45,0.79,0.78,1.16,1.19c0.94,1.06,3.03,2.2,2.67,3.07c-0.68,1.63-2.44,2.81-3.76,4.17
		C112.64,20.65,112.41,20.72,111.9,20.99z"/>
	<path class="st5" d="M17.07,113.75c-1.85,0.99-3.67,1.96-6.04,2.67c0.46-1.06,0.76-1.82,1.1-2.55
		C14.05,109.71,14.21,109.71,17.07,113.75z"/>
</g>
</svg>
