<?xml version="1.0" encoding="utf-8"?>
<!-- Generator: Adobe Illustrator 24.1.0, SVG Export Plug-In . SVG Version: 6.00 Build 0)  -->
<svg version="1.1" id="Layer_1" xmlns="http://www.w3.org/2000/svg" xmlns:xlink="http://www.w3.org/1999/xlink" x="0px" y="0px"
	 viewBox="0 0 129.34 119.11" style="enable-background:new 0 0 129.34 119.11;" xml:space="preserve">
<style type="text/css">
	.st0{fill:#2D3138;}
	.st1{fill:#3537E5;}
	.st2{fill:#DAA44A;}
	.st3{fill:#78B6AA;}
</style>
<g>
	<path class="st0" d="M60.37,0.05c19.13,0,38.27,0.03,57.4-0.05c2.02-0.01,2.72,0.37,2.69,2.58c-0.13,10.04,0.03,20.08-0.12,30.11
		c-0.04,2.41,0.71,3.07,2.94,2.8c1.08-0.13,2.28-0.07,3.3,0.26c1.87,0.6,2.74,2.08,2.74,4.04c0.01,4.46,0.05,8.93-0.02,13.39
		c-0.04,2.86-1.59,4.25-4.55,4.32c-4.35,0.1-4.35,0.1-4.35,4.4c0,18.18-0.03,36.36,0.04,54.53c0.01,1.98-0.31,2.69-2.55,2.68
		c-38.51-0.08-77.02-0.07-115.53-0.02c-1.8,0-2.38-0.35-2.38-2.3C0.07,78.69,0.07,40.58,0,2.47C0,0.45,0.52-0.01,2.49,0
		C21.79,0.08,41.08,0.05,60.37,0.05z M110.59,57.75c-0.95-0.03-1.91-0.07-2.86-0.08c-20.87,0-41.74-0.13-62.61,0.08
		c-5.33,0.05-10.11-0.82-14.74-3.5c-4.8-2.77-9.88-5.07-15.22-7.76c7.46-3.76,14.55-7.34,21.63-10.92c0.68-0.34,1.4-0.26,2.11-0.26
		c3.9,0.01,7.81,0.03,11.71,0.03c19.99-0.02,39.99-0.04,59.98-0.06c0.79,0.05,1.59,0.04,2.37,0.18c2,0.34,2.56-0.43,2.47-2.43
		c-0.18-3.82-0.15-7.65-0.01-11.47c0.07-1.77-0.39-2.24-2.2-2.23c-35.23,0.06-70.47,0.06-105.7,0c-1.96,0-2.3,0.6-2.3,2.39
		c0.05,29.97,0.06,59.94-0.01,89.91c0,1.94,0.42,2.52,2.45,2.52c35.07-0.07,70.15-0.07,105.22,0.01c2.24,0.01,2.54-0.69,2.53-2.67
		c-0.08-16.42-0.04-32.84-0.04-49.26C115.36,57.43,115.36,57.43,110.59,57.75z M60.35,5.1c-16.27,0-32.53-0.01-48.8,0.02
		c-2.05,0-4.84-0.92-5.93,0.4c-1.03,1.25-0.19,3.95-0.4,5.99c-0.23,2.16,0.48,2.73,2.68,2.72c33.65-0.08,67.3-0.05,100.95-0.07
		c2.12,0,5.03,0.94,6.15-0.41c1.07-1.29,0.2-4.1,0.41-6.22c0.2-1.97-0.4-2.49-2.43-2.48C95.43,5.13,77.89,5.1,60.35,5.1z
		 M78.07,43.9c11.31,0,22.62-0.03,33.94,0.04c1.71,0.01,2.21-0.55,2.1-2.19c-0.11-1.79-1.39-1.22-2.27-1.22
		c-22.54-0.03-45.09-0.02-67.63-0.03c-1.27,0-2.28-0.1-2.25,1.78c0.03,2,1.29,1.62,2.42,1.62C55.6,43.9,66.84,43.9,78.07,43.9z
		 M77.92,52.51c11.32,0,22.64-0.04,33.95,0.04c1.82,0.01,2.43-0.52,2.22-2.3c-0.23-1.91-1.65-1.16-2.56-1.16
		c-22.32-0.04-44.63-0.03-66.95-0.03c-0.4,0-0.8,0.03-1.2,0c-1.04-0.08-1.3,0.44-1.4,1.42c-0.19,1.8,0.65,2.08,2.22,2.07
		C55.44,52.49,66.68,52.51,77.92,52.51z M26.46,46.52c3.64,1.8,6.93,3.43,10.32,5.11c0-3.59,0-6.82,0-10.33
		C33.35,43.04,30.12,44.68,26.46,46.52z M120.39,46.33c0,1.58,0.08,3.17-0.02,4.75c-0.12,1.76,1.08,1.35,2.04,1.37
		c1,0.02,2.06,0.3,1.99-1.43c-0.12-3-0.1-6.02,0-9.02c0.04-1.37-0.57-1.45-1.68-1.54c-1.82-0.15-2.6,0.39-2.35,2.31
		C120.52,43.94,120.39,45.14,120.39,46.33z"/>
	<path class="st1" d="M110.58,35.29c-19.99,0.02-39.99,0.05-59.98,0.06c-3.9,0-7.81-0.02-11.71-0.03c-0.71,0-1.43-0.08-2.11,0.26
		c-7.08,3.58-14.17,7.15-21.63,10.92c5.33,2.69,10.41,4.99,15.22,7.76c4.64,2.68,9.41,3.55,14.74,3.5
		c20.87-0.21,41.74-0.09,62.61-0.08c0.95,0,1.91,0.05,2.86,0.07c0,4.22-0.1,8.45,0.04,12.67c0.06,1.85-0.44,2.39-2.35,2.39
		c-31.96-0.06-63.92-0.06-95.88-0.01c-1.81,0-2.43-0.39-2.42-2.34c0.08-14.74,0.08-29.49,0-44.23c-0.01-1.79,0.47-2.27,2.26-2.26
		c10.36,0.09,20.72,0.04,31.08,0.04c21.68,0,43.36,0.02,65.04-0.04c1.76,0,2.36,0.4,2.26,2.23
		C110.46,29.23,110.58,32.26,110.58,35.29z"/>
	<path class="st2" d="M78.07,43.9c-11.23,0-22.46,0-33.7-0.01c-1.13,0-2.38,0.38-2.42-1.62c-0.03-1.88,0.98-1.78,2.25-1.78
		c22.54,0.01,45.09,0,67.63,0.03c0.88,0,2.15-0.57,2.27,1.22c0.1,1.64-0.39,2.2-2.1,2.19C100.69,43.87,89.38,43.9,78.07,43.9z"/>
	<path class="st2" d="M77.92,52.51c-11.24,0-22.48-0.03-33.71,0.03c-1.57,0.01-2.41-0.27-2.22-2.07c0.1-0.98,0.37-1.49,1.4-1.42
		c0.4,0.03,0.8,0,1.2,0c22.32,0,44.63-0.01,66.95,0.03c0.91,0,2.34-0.74,2.56,1.16c0.21,1.78-0.41,2.31-2.22,2.3
		C100.55,52.47,89.23,52.51,77.92,52.51z"/>
	<path class="st3" d="M10.04,93.85c0-4.46,0.07-8.92-0.03-13.38c-0.04-1.71,0.37-2.37,2.23-2.35c8.76,0.09,17.53,0.09,26.29,0
		c1.79-0.02,2.31,0.5,2.29,2.29c-0.08,8.92-0.07,17.85-0.01,26.77c0.01,1.61-0.38,2.22-2.11,2.2c-8.84-0.08-17.69-0.08-26.53,0
		c-1.66,0.01-2.21-0.46-2.17-2.14C10.11,102.77,10.05,98.31,10.04,93.85z"/>
	<path class="st2" d="M76.13,93.63c0,4.54-0.04,9.09,0.02,13.63c0.02,1.43-0.2,2.14-1.91,2.12c-8.69-0.09-17.38-0.08-26.06-0.01
		c-1.59,0.01-2.07-0.5-2.06-2.05c0.05-9.09,0.05-18.17,0-27.26c-0.01-1.49,0.37-2.13,2-2.12c8.77,0.06,17.54,0.06,26.3,0
		c1.39-0.01,1.76,0.49,1.74,1.81C76.09,84.38,76.13,89.01,76.13,93.63z"/>
	<path class="st3" d="M110.58,93.85c0,4.54-0.05,9.09,0.03,13.63c0.03,1.49-0.48,1.89-1.92,1.88c-8.37-0.06-16.75-0.07-25.12,0.01
		c-1.72,0.02-2.17-0.6-2.15-2.22c0.06-8.93,0.06-17.86,0-26.79c-0.01-1.59,0.35-2.25,2.1-2.23c8.37,0.08,16.74,0.08,25.12,0
		c1.65-0.01,1.99,0.61,1.97,2.09C110.54,84.76,110.58,89.31,110.58,93.85z"/>
	<path class="st0" d="M8.14,9.6c-0.39-1.81,0.1-2.53,2.22-2.62c2.44-0.1,2.36,1.05,2.45,2.8c0.11,2-0.56,2.44-2.5,2.5
		C8.05,12.35,7.85,11.32,8.14,9.6z"/>
	<path class="st0" d="M16.12,9.64c-0.4-1.85,0.12-2.55,2.24-2.66c2.47-0.13,2.33,1.06,2.42,2.78c0.1,1.91-0.36,2.54-2.41,2.53
		C16.22,12.28,15.72,11.48,16.12,9.64z"/>
	<path class="st0" d="M28.63,9.82c0.59,2.18-0.61,2.29-2.42,2.46c-2.68,0.25-2.13-1.37-2.28-2.91c-0.2-1.92,0.54-2.27,2.35-2.37
		C28.65,6.87,28.97,7.94,28.63,9.82z"/>
</g>
</svg>
