<?xml version="1.0" encoding="utf-8"?>
<!-- Generator: Adobe Illustrator 24.1.0, SVG Export Plug-In . SVG Version: 6.00 Build 0)  -->
<svg version="1.1" id="Layer_1" xmlns="http://www.w3.org/2000/svg" xmlns:xlink="http://www.w3.org/1999/xlink" x="0px" y="0px"
	 viewBox="0 0 112.81 112.79" style="enable-background:new 0 0 112.81 112.79;" xml:space="preserve">
<style type="text/css">
	.st0{fill:#FFFFFF;}
	.st1{fill:#F34336;}
	.st2{fill:#9CCC65;}
	.st3{fill:#C45E9A;}
	.st4{fill:#030202;}
	.st5{fill:#DFDFDF;}
	.st6{fill:#1BB8DA;}
	.st7{fill:#E0E0E0;}
	.st8{fill:#8CA0A9;}
	.st9{fill:#FACA15;}
</style>
<g>
	<path class="st0" d="M27.34,6.63c0.67-0.01,0.9,0.22,0.89,0.88c-0.05,2.98,0.38,2.38-2.29,2.41c-3.3,0.03-6.59-0.01-9.88,0.03
		c-0.82,0.01-1.07-0.23-1.06-1.05c0.02-2.27-0.02-2.27,2.25-2.27c1.46,0,2.93,0,4.39,0c0,0.01,0,0.01,0,0.01
		C23.53,6.64,25.44,6.67,27.34,6.63z"/>
	<path class="st0" d="M33.35,6.64c1.75-0.01,1.46-0.17,1.48,1.9c0.01,1.4,0,1.4-1.66,1.4c-1.88-0.02-1.64,0.21-1.64-1.74
		C31.53,6.37,31.35,6.64,33.35,6.64z"/>
	<path class="st0" d="M39.74,6.63c1.91,0.02,1.69-0.22,1.69,1.69c0,1.85,0.21,1.61-1.77,1.61c-1.78,0-1.52,0.2-1.53-1.85
		C38.12,6.63,38.14,6.63,39.74,6.63z"/>
	<path class="st0" d="M35.66,80.61c0.1,0.39,0.31,1.1-0.59,1.08c-0.77-0.02-1.54,0-2.31,0c0-0.01,0-0.01,0-0.01
		c-0.29,0-0.59,0.04-0.88-0.01c-0.62-0.1-1.57,0.38-1.8-0.26c-0.29-0.81-0.11-1.8-0.09-2.71c0.01-0.37,0.34-0.31,0.59-0.31
		c1.5,0,3.03-0.16,4.49,0.06C36.37,78.64,35.46,79.87,35.66,80.61z"/>
	<path class="st0" d="M40.89,78.38c1.66,0.01,1.38-0.21,1.41,1.62c0,1.69,0,1.69-1.79,1.69c-1.52,0-1.52,0-1.52-1.85
		C39,78.38,39,78.36,40.89,78.38z"/>
	<path class="st0" d="M46.73,72.66c0.01,2.41,0.04,2.41-2.4,2.41c-4.47,0-8.93-0.02-13.4,0.01c-0.75,0.01-1-0.19-1-0.97
		c0.01-2.35-0.02-2.35,2.35-2.35c2.01,0,4.03,0,6.04,0c2.49,0,4.98,0.02,7.47-0.01C46.5,71.73,46.73,71.92,46.73,72.66z"/>
	<path class="st0" d="M106.25,97.97c-0.14,0.17-0.29,0.38-0.47,0.55c-1.81,1.81-3.64,3.62-5.43,5.45c-0.47,0.47-0.76,0.49-1.25,0.02
		c-1.76-1.69-1.78-1.67-0.03-3.42c0.7-0.7,1.38-1.42,2.1-2.09c0.45-0.42,0.47-0.73,0.01-1.16c-1.06-1.01-2.05-2.1-3.11-3.11
		c-0.5-0.47-0.57-0.79-0.04-1.33c1.63-1.65,1.62-1.69,3.26-0.07c1.49,1.46,2.97,2.94,4.45,4.42
		C105.94,97.42,106.19,97.6,106.25,97.97z"/>
	<path class="st0" d="M93.48,92.58c0.67,0.09,0.41,0.7,0.34,1.08c-0.45,2.33-0.94,4.65-1.42,6.97c-0.05,0.25-0.09,0.5-0.13,0.75
		c-0.5,2.62-0.5,2.61-3.08,1.83c-0.49-0.15-0.66-0.39-0.5-0.86c0.65-3.25,1.3-6.5,1.96-9.75c0.02-0.1,0.05-0.27,0.12-0.3
		C91.71,91.91,92.58,92.47,93.48,92.58z"/>
	<path class="st0" d="M84.96,93.17c0.46,0.3,0.22,0.6-0.08,0.88c-1.12,1.06-2.21,2.14-3.36,3.17c-0.54,0.49-0.55,0.82-0.01,1.31
		c1.12,1,2.17,2.08,3.28,3.09c0.45,0.41,0.52,0.71,0.03,1.14c-0.44,0.38-0.82,0.84-1.24,1.25c-0.15,0.15-0.32,0.28-0.52,0.45
		c-0.17-0.13-0.33-0.23-0.45-0.35c-2.01-1.93-4.01-3.87-6.03-5.79c-0.33-0.31-0.4-0.56-0.04-0.9c2.04-1.95,4.07-3.91,6.1-5.87
		c0.06-0.05,0.11-0.15,0.16-0.14C83.98,91.45,84.19,92.66,84.96,93.17z"/>
	<path class="st0" d="M84.85,60.22c0.42,0.39,0.41,0.62,0.02,1.05c-1.74,1.91-1.73,1.92-3.6,0.11c-1.53-1.47-3.06-2.96-4.6-4.42
		c-0.37-0.35-0.55-0.58-0.08-1.04c1.94-1.89,3.85-3.81,5.77-5.72c0.15-0.15,0.33-0.27,0.44-0.37c0.56,0.01,0.76,0.42,1.03,0.69
		c1.54,1.54,1.54,1.55,0,3.04c-0.76,0.74-1.51,1.51-2.31,2.2c-0.53,0.47-0.6,0.77-0.02,1.28C82.65,58.05,83.72,59.17,84.85,60.22z"
		/>
	<path class="st0" d="M93.35,51.09c0.46,0,0.7,0.22,0.6,0.45c-0.73,3.56-1.4,6.86-2.06,10.17c-0.08,0.39-0.27,0.47-0.61,0.41
		c-0.76-0.15-1.51-0.32-2.26-0.44c-0.41-0.07-0.44-0.27-0.38-0.62c0.67-3.3,1.33-6.6,1.99-9.9c0.01-0.07,0.02-0.17,0.07-0.2
		C91.62,50.27,92.47,51.09,93.35,51.09z"/>
	<path class="st0" d="M105.94,55.9c0.36,0.35,0.43,0.57,0.03,0.96c-1.94,1.9-3.85,3.82-5.75,5.75c-0.36,0.36-0.56,0.39-0.96,0.02
		c-1.95-1.81-1.97-1.8-0.08-3.69c0.62-0.62,1.21-1.28,1.88-1.86c0.58-0.5,0.62-0.89,0.01-1.37c-0.31-0.25-0.55-0.58-0.83-0.87
		c-0.87-0.74-1.67-1.54-2.4-2.41c-0.74-0.55,0-0.88,0.27-1.05c0.67-0.42,0.8-1.62,1.92-1.37c0.08,0.02,0.14,0.16,0.2,0.25
		c0.8,0.65,1.52,1.38,2.18,2.18C103.58,53.6,104.75,54.77,105.94,55.9z"/>
	<path class="st0" d="M106.23,14.81c-0.02,0.35-0.24,0.5-0.41,0.68c-1.83,1.84-3.69,3.66-5.5,5.52c-0.49,0.5-0.78,0.42-1.24-0.03
		c-1.72-1.67-1.74-1.65-0.06-3.33c0.72-0.73,1.43-1.47,2.18-2.17c0.46-0.43,0.43-0.74-0.01-1.16c-1.03-0.98-2-2.04-3.04-3.01
		c-0.57-0.53-0.68-0.88-0.06-1.49c1.65-1.62,1.61-1.64,3.25,0.02c1.44,1.46,2.9,2.89,4.36,4.34
		C105.89,14.39,106.07,14.62,106.23,14.81z"/>
	<path class="st0" d="M91.71,9.26c2.65,0.63,2.34,0.04,1.84,2.72c-0.45,2.41-0.99,4.8-1.49,7.19c-0.08,1.59-0.18,1.7-1.3,1.31
		c-2.25-0.19-2.24-0.18-1.81-2.31c0.55-2.69,1.1-5.37,1.59-8.07C90.67,9.34,90.87,9.05,91.71,9.26z"/>
	<path class="st0" d="M84.79,18.65c0.44,0.41,0.49,0.66,0.04,1.14c-1.76,1.87-1.73,1.89-3.58,0.1c-1.53-1.48-3.06-2.95-4.59-4.43
		c-0.3-0.29-0.6-0.54-0.13-0.98c2.01-1.88,3.99-3.78,5.98-5.67c0.16-0.15,0.33-0.28,0.49-0.41c0.52,0.19,0.77,0.61,1.1,0.94
		c1.25,1.27,1.25,1.28-0.02,2.5c-0.87,0.84-1.74,1.68-2.64,2.49c-0.46,0.41-0.47,0.73-0.01,1.15
		C82.57,16.52,83.65,17.61,84.79,18.65z"/>
	<path class="st1" d="M91.32,44.8C91.32,44.8,91.32,44.8,91.32,44.8c5.69,0.01,11.38,0.02,17.06-0.01c0.82-0.01,1.13,0.15,1.12,1.07
		c-0.04,7.04-0.04,14.09,0,21.14c0,0.84-0.25,1.03-1.05,1.03c-11.41-0.02-22.83-0.02-34.24,0c-0.82,0-1.14-0.14-1.14-1.07
		c0.04-7.05,0.04-14.09,0-21.14c0-0.85,0.26-1.04,1.06-1.03C79.87,44.81,85.59,44.8,91.32,44.8z M105.97,56.87
		c0.4-0.39,0.33-0.62-0.03-0.96c-1.19-1.14-2.36-2.3-3.53-3.46c-0.66-0.8-1.38-1.53-2.18-2.18c-0.07-0.09-0.12-0.23-0.2-0.25
		c-1.12-0.25-1.25,0.94-1.92,1.37c-0.28,0.17-1.01,0.5-0.27,1.05c0.73,0.87,1.54,1.67,2.4,2.41c0.27,0.3,0.51,0.63,0.83,0.87
		c0.62,0.48,0.58,0.87-0.01,1.37c-0.66,0.57-1.25,1.23-1.88,1.86c-1.89,1.89-1.88,1.88,0.08,3.69c0.4,0.37,0.6,0.35,0.96-0.02
		C102.12,60.69,104.04,58.77,105.97,56.87z M93.95,51.54c0.09-0.23-0.14-0.45-0.6-0.45c-0.89,0-1.73-0.83-2.65-0.14
		c-0.05,0.04-0.06,0.13-0.07,0.2c-0.66,3.3-1.33,6.6-1.99,9.9c-0.07,0.34-0.03,0.55,0.38,0.62c0.76,0.12,1.51,0.29,2.26,0.44
		c0.34,0.06,0.53-0.02,0.61-0.41C92.55,58.4,93.23,55.11,93.95,51.54z M84.87,61.26c0.39-0.42,0.4-0.66-0.02-1.05
		c-1.13-1.04-2.2-2.16-3.35-3.19c-0.57-0.51-0.51-0.82,0.02-1.28c0.8-0.7,1.54-1.46,2.31-2.2c1.54-1.49,1.54-1.49,0-3.04
		c-0.27-0.27-0.47-0.68-1.03-0.69c-0.12,0.1-0.29,0.22-0.44,0.37c-1.92,1.91-3.83,3.84-5.77,5.72c-0.47,0.46-0.29,0.69,0.08,1.04
		c1.54,1.46,3.06,2.95,4.6,4.42C83.15,63.18,83.13,63.17,84.87,61.26z"/>
	<path class="st2" d="M108.41,86.3c0.86,0,1.09,0.22,1.09,1.09c-0.04,7.01-0.04,14.01,0,21.02c0,0.88-0.24,1.08-1.09,1.08
		c-5.72-0.04-11.45-0.02-17.17-0.02c-5.68,0-11.37-0.02-17.06,0.02c-0.85,0.01-1.1-0.2-1.1-1.08c0.04-7.01,0.04-14.01,0-21.02
		c-0.01-0.88,0.25-1.08,1.1-1.08C85.6,86.33,97,86.33,108.41,86.3z M105.78,98.52c0.18-0.18,0.33-0.39,0.47-0.55
		c-0.05-0.37-0.31-0.54-0.51-0.75c-1.48-1.48-2.95-2.96-4.45-4.42c-1.65-1.61-1.63-1.58-3.26,0.07c-0.53,0.54-0.46,0.85,0.04,1.33
		c1.06,1.01,2.05,2.09,3.11,3.11c0.46,0.44,0.44,0.75-0.01,1.16c-0.73,0.67-1.41,1.39-2.1,2.09c-1.75,1.75-1.73,1.73,0.03,3.42
		c0.49,0.47,0.78,0.46,1.25-0.02C102.13,102.14,103.96,100.34,105.78,98.52z M93.82,93.65c0.07-0.38,0.33-0.99-0.34-1.08
		c-0.9-0.11-1.77-0.66-2.71-0.27c-0.07,0.03-0.1,0.19-0.12,0.3c-0.65,3.25-1.3,6.5-1.96,9.75c-0.16,0.46,0.01,0.71,0.5,0.86
		c2.58,0.77,2.58,0.78,3.08-1.83c0.05-0.25,0.08-0.5,0.13-0.75C92.88,98.3,93.37,95.98,93.82,93.65z M84.88,94.06
		c0.3-0.28,0.54-0.58,0.08-0.88c-0.77-0.52-0.98-1.72-2.14-1.76c-0.05,0-0.11,0.09-0.16,0.14c-2.03,1.96-4.06,3.92-6.1,5.87
		c-0.36,0.34-0.29,0.59,0.04,0.9c2.01,1.93,4.02,3.86,6.03,5.79c0.12,0.12,0.28,0.22,0.45,0.35c0.2-0.17,0.37-0.3,0.52-0.45
		c0.41-0.42,0.79-0.87,1.24-1.25c0.49-0.42,0.42-0.73-0.03-1.14c-1.11-1.01-2.17-2.09-3.28-3.09c-0.54-0.49-0.53-0.83,0.01-1.31
		C82.67,96.2,83.76,95.11,84.88,94.06z"/>
	<path class="st3" d="M91.29,26.47c-5.65,0-11.31-0.02-16.96,0.02c-0.9,0.01-1.25-0.12-1.25-1.17c0.06-6.97,0.05-13.94,0.01-20.92
		c0-0.87,0.24-1.09,1.09-1.08c11.41,0.03,22.83,0.03,34.24,0c0.91,0,1.06,0.29,1.06,1.11c-0.03,7.01-0.03,14.02,0,21.03
		c0.01,0.83-0.21,1.03-1.03,1.03C102.73,26.45,97.01,26.47,91.29,26.47L91.29,26.47z M105.82,15.49c0.18-0.18,0.4-0.33,0.41-0.68
		c-0.17-0.18-0.34-0.41-0.55-0.62c-1.45-1.45-2.92-2.88-4.36-4.34c-1.64-1.67-1.6-1.64-3.25-0.02c-0.62,0.61-0.51,0.96,0.06,1.49
		c1.05,0.97,2.01,2.02,3.04,3.01c0.44,0.42,0.47,0.73,0.01,1.16c-0.75,0.7-1.46,1.44-2.18,2.17c-1.68,1.68-1.66,1.66,0.06,3.33
		c0.46,0.44,0.76,0.53,1.24,0.03C102.13,19.15,103.99,17.33,105.82,15.49z M93.55,11.98c0.5-2.68,0.81-2.09-1.84-2.72
		c-0.84-0.2-1.04,0.09-1.18,0.85c-0.49,2.7-1.04,5.38-1.59,8.07c-0.43,2.12-0.44,2.12,1.81,2.31c1.12,0.38,1.22,0.28,1.3-1.31
		C92.56,16.77,93.1,14.39,93.55,11.98z M84.83,19.79c0.44-0.47,0.4-0.73-0.04-1.14c-1.14-1.04-2.22-2.13-3.36-3.17
		c-0.47-0.42-0.45-0.74,0.01-1.15c0.9-0.81,1.77-1.65,2.64-2.49c1.27-1.22,1.27-1.24,0.02-2.5C83.77,9,83.51,8.58,83,8.39
		c-0.16,0.14-0.33,0.26-0.49,0.41c-1.99,1.89-3.98,3.8-5.98,5.67c-0.46,0.44-0.17,0.68,0.13,0.98c1.53,1.48,3.06,2.95,4.59,4.43
		C83.1,21.68,83.08,21.66,84.83,19.79z"/>
	<path class="st4" d="M73.09,108.4c-0.01,0.88,0.25,1.09,1.1,1.08c5.68-0.04,11.37-0.02,17.06-0.02c5.72,0,11.45-0.02,17.17,0.02
		c0.85,0.01,1.09-0.2,1.09-1.08c-0.04-7.01-0.04-14.01,0-21.02c0.01-0.87-0.22-1.09-1.09-1.09c-11.41,0.03-22.81,0.03-34.22,0
		c-0.85,0-1.11,0.2-1.1,1.08C73.12,94.39,73.12,101.4,73.09,108.4z M50.93,75.05c1.24,0.01,2.48-0.03,3.72-0.05c0.44,0,0.87,0,1.3,0
		c1.48,0.11,2.96,0.1,4.43,0.01c1.17,0.02,2.35,0.1,3.51,0.02c1.01-0.07,1.26,0.24,1.26,1.25c-0.05,6.23,0.01,12.46-0.06,18.69
		c-0.01,1.1,0.31,1.39,1.34,1.27c0.76-0.09,1.54-0.07,2.31,0c0.81,0.08,1.06-0.16,1.05-1.01c-0.05-3.37-0.02-6.74-0.03-10.12
		C69.77,82.99,69.76,83,71.84,83c5.28-0.01,10.56-0.02,15.83-0.04c1.45,0,2.89,0.01,4.34,0.01c5.09,0,10.17-0.01,15.26-0.01
		c0.89,0.09,1.78,0.09,2.67,0c0.95,0.03,1.9,0.06,2.85,0.08c0,9.65-0.01,19.31,0.02,28.96c0,0.66-0.13,0.79-0.79,0.79
		c-14.06-0.02-28.12-0.02-42.17-0.02c-0.04-2.49-0.08-4.98-0.12-7.47c0.1-1.55,0.11-3.11-0.01-4.66c0.23-0.84-0.01-1.16-0.95-1.12
		c-1.97,0.07-3.95-0.02-5.92,0.04c-0.79,0.02-1.08-0.14-1.05-1c0.06-1.71-0.02-3.43-0.04-5.15c0.12-1.48,0.13-2.96-0.01-4.44
		c0.02-3.32,0.04-6.64,0.07-9.96c0-0.46-0.13-0.66-0.62-0.65c-2.19,0.04-4.38,0.05-6.57,0.07c-0.66-0.02-1.31-0.05-1.97-0.05
		c-2.63-0.02-2.61-0.01-2.46-2.66C50.25,75.18,50.43,75.05,50.93,75.05z"/>
	<polygon class="st4" points="69.89,41.46 69.89,41.47 69.88,41.47 	"/>
	<path class="st4" d="M53.03,42.05c0.1-0.61,0.43-0.62,1.61-0.67h0c0.07,0,0.15,0,0.22,0c1.43,0.07,1.43,0.07,1.43,1.57
		c0.02,3.75,0.04,7.5,0.06,11.26c0.15,1.31-0.48,1.77-1.72,1.56C53,55.7,53,55.7,53,54.05c0-3.65,0-7.31,0-10.96
		c0-0.36,0-0.65,0.02-0.87C53.02,42.16,53.03,42.1,53.03,42.05z"/>
	<path class="st4" d="M52.98,68.53c0-1.71,0-1.71,1.68-1.81c1.65,0.09,1.65,0.09,1.65,1.81c0,0.29,0,0.58,0,0.88
		c0,1.71,0,1.71-1.65,1.81c-1.68-0.1-1.68-0.1-1.68-1.81C52.98,69.11,52.98,68.82,52.98,68.53z"/>
	<path class="st5" d="M54.87,41.38c-0.07,0-0.15,0-0.22,0c0-0.06,0.01-0.12,0.04-0.18C54.75,41.25,54.81,41.32,54.87,41.38z"/>
	<path class="st6" d="M54.66,37.59L54.66,37.59c-0.49-0.01-0.99-0.01-1.48-0.02C53.67,37.58,54.17,37.58,54.66,37.59z"/>
	<path class="st7" d="M27.8,106.14c3.49,0.11,6.28-2.43,6.41-5.83c0.12-3.32-2.45-6.13-5.74-6.26c-3.42-0.14-6.24,2.46-6.37,5.89
		C21.99,102.91,24.67,106.26,27.8,106.14z M3.91,90.73c0.44,0.03,0.88,0,1.32,0c15.52,0,31.04,0.01,46.56-0.03
		c1.05,0,1.23,0.33,1.22,1.28c-0.05,3.89-0.02,7.77-0.02,11.66c0,1.26-0.12,2.49-0.85,3.57c-0.8-0.22-0.82,0.21-0.66,0.79
		l-0.05,0.05c-0.36-0.15-0.49,0.02-0.48,0.36c-0.83,0.71-1.83,0.96-2.89,1.01c-1.93,0.09-3.84,0.09-5.77,0.03
		c-0.29-0.01-0.58-0.02-0.86-0.03c-5.2,0-10.41,0.01-15.61,0.01c-5.95,0.01-11.91,0.09-17.86,0.01c-2.5-0.03-4.42-2.14-4.54-4.61
		c-0.02-4.51-0.04-9.02-0.07-13.53C3.34,90.87,3.48,90.7,3.91,90.73z"/>
	<path class="st7" d="M47.3,3.35c2.31,0.01,4.42,0.68,5.31,3.11c0.75,2.08,0.27,4.29,0.36,6.44c0.02,0.4-0.3,0.34-0.55,0.34
		c-0.55,0.01-1.1,0-1.65,0c-7.55,0-15.11,0-22.67,0c-7.92,0-15.84-0.01-23.77,0.02c-0.82,0-1.07-0.19-1.01-1.02
		c0.08-1.24,0.01-2.49,0.02-3.74c0.04-3.03,2.1-5.16,5.11-5.17C21.41,3.32,34.35,3.31,47.3,3.35z M41.43,8.32
		c0-1.91,0.22-1.67-1.69-1.69c-1.61,0-1.62,0-1.61,1.45c0.02,2.04-0.25,1.85,1.53,1.85C41.64,9.93,41.43,10.17,41.43,8.32z
		 M33.17,9.93c1.66,0,1.67,0,1.66-1.4c-0.02-2.07,0.27-1.91-1.48-1.9c-2,0.01-1.82-0.26-1.82,1.56C31.53,10.14,31.3,9.91,33.17,9.93
		z M28.23,7.51c0.01-0.66-0.22-0.89-0.89-0.88c-1.9,0.04-3.81,0.01-5.71,0.01c0-0.01,0-0.01,0-0.01c-1.46,0-2.93,0-4.39,0
		c-2.26,0-2.23,0-2.25,2.27c-0.01,0.82,0.24,1.06,1.06,1.05c3.29-0.04,6.59,0,9.88-0.03C28.6,9.89,28.18,10.49,28.23,7.51z"/>
	<path class="st4" d="M52.43,13.25c0.25-0.01,0.56,0.05,0.55-0.34c-0.09-2.15,0.39-4.36-0.36-6.44c-0.89-2.43-3-3.11-5.31-3.11
		C34.35,3.31,21.41,3.32,8.46,3.35C5.45,3.35,3.4,5.48,3.35,8.51c-0.02,1.25,0.06,2.5-0.02,3.74c-0.05,0.83,0.19,1.02,1.01,1.02
		c7.92-0.04,15.84-0.02,23.77-0.02c7.56,0,15.11,0,22.67,0C51.33,13.25,51.88,13.26,52.43,13.25z M3.42,104.82
		c0.11,2.47,2.03,4.58,4.54,4.61c5.95,0.08,11.91,0.01,17.86-0.01c5.2,0,10.41,0,15.61,0c0.29,0.01,0.58,0.02,0.86,0.03
		c1.93,0.06,3.84,0.06,5.77-0.03c1.06-0.05,2.06-0.3,2.89-1.01c0.23-0.02,0.37-0.17,0.48-0.36l0.05-0.05
		c0.32-0.18,0.51-0.47,0.66-0.79c0.73-1.08,0.85-2.31,0.85-3.57c0-3.89-0.03-7.78,0.02-11.66c0.01-0.95-0.17-1.28-1.22-1.28
		c-15.52,0.04-31.04,0.03-46.56,0.03c-0.44,0-0.88,0.03-1.32,0c-0.43-0.02-0.57,0.14-0.57,0.57C3.38,95.8,3.39,100.32,3.42,104.82z
		 M3.37,17.49c0.06,0.88-0.02,1.76-0.02,2.64c0,22.06,0,44.11-0.02,66.17c0,0.92,0.24,1.14,1.15,1.13
		c12.7-0.03,25.4-0.02,38.09-0.02c3.16,0,6.31-0.01,9.47,0.01c0.69,0.01,1.01-0.14,0.95-0.91c-0.07-0.84-0.01-1.69-0.01-2.53
		c0-1.74,0-1.74,1.68-1.85c1.65,0.11,1.65,0.11,1.65,1.83c0.01,3.29,0.04,6.58,0.06,9.87c-0.12,1.47-0.13,2.94,0.01,4.4
		c-0.02,1.9-0.06,3.8-0.06,5.7c0,2.96-1.05,5.4-3.44,7.23c-1.05,0.81-2.33,1.08-3.5,1.59c-14.24,0-28.48,0-42.72,0
		c-0.03-0.17-0.17-0.21-0.31-0.25c-4.05-1.08-6.37-4.63-6.33-9.15c0.11-11.63,0.04-23.26,0.04-34.89c0-19.89-0.01-39.77,0-59.65
		c0-5.24,3.52-8.8,8.73-8.8c12.92-0.01,25.83,0,38.74-0.01c1.41,0,2.78,0.19,4.05,0.84c3.32,1.69,4.75,4.49,4.74,8.14
		c-0.01,6.53,0,13.06,0,19.59c0,1.73,0,1.73-1.65,1.84C53,30.32,53,30.32,53,28.67c-0.02-3.67-0.07-7.34-0.03-11.01
		c0.01-0.89-0.26-1.07-1.1-1.07c-10.75,0.03-21.5,0.02-32.26,0.02c-5.1,0-10.2,0.01-15.3-0.02C3.61,16.59,3.32,16.74,3.37,17.49z"/>
	<path class="st8" d="M52.13,107.22c-0.15,0.32-0.34,0.61-0.66,0.79C51.31,107.42,51.34,107,52.13,107.22z"/>
	<path class="st8" d="M51.42,108.05c-0.1,0.19-0.24,0.34-0.48,0.36C50.94,108.07,51.06,107.9,51.42,108.05z"/>
	<path class="st6" d="M6.64,81.88c-0.01,0.74,0.23,0.92,0.93,0.91c0.72-0.01,1.43-0.01,2.15-0.02c2.29-0.01,4.59,0,6.88,0
		c0.79,0,1.59,0,2.38-0.01c0.86,0,1.73,0,2.59,0c1.32,0,2.63,0.01,3.94,0.02c0.74,0.01,1.02-0.15,1.01-0.95
		c-0.04-3.41-0.04-6.83,0-10.24c0.01-0.79-0.25-0.96-1-0.96c-5.98,0.03-11.96,0.02-17.94,0c-0.68,0-0.95,0.13-0.95,0.89
		C6.68,74.98,6.67,78.43,6.64,81.88z M7.67,51.88c13.65-0.03,27.3-0.03,40.95,0c0.92,0,1.07-0.32,1.06-1.13
		c-0.04-4.07,0.01-8.15-0.04-12.22c-0.01-0.84,0.24-1.08,1.06-1.03c0.82,0.05,1.65,0.07,2.47,0.07c0.49,0.01,0.99,0.01,1.48,0.02
		c0.01,1.2,0.02,2.4,0.03,3.6c-0.02,0.06-0.04,0.12-0.04,0.18c-1.18,0.04-1.52,0.06-1.61,0.67c-0.01,0.05-0.01,0.11-0.02,0.17
		C53,42.44,53,42.72,53,43.09c0,3.65,0,7.31,0,10.96c0,1.65,0,1.65,1.65,1.72c0,1.25,0,2.51,0,3.77c-1.43,0.02-2.86,0.04-4.28,0.08
		c-0.52,0.02-0.73-0.17-0.71-0.7c0.03-0.92-0.04-1.84,0.02-2.75c0.05-0.78-0.22-1-0.99-0.99c-3.74,0.03-7.48,0.01-11.23,0.01
		c-9.87,0-19.74,0.02-29.61-0.01c-0.92,0-1.26,0.15-1.24,1.18c0.07,3.34,0.05,6.68,0.01,10.01c-0.01,0.78,0.24,0.97,0.99,0.97
		c13.65-0.02,27.3-0.03,40.95-0.01c0.84,0,1.14-0.2,1.13-1.09c-0.02-1.08-0.49-2.48,0.23-3.16c0.66-0.62,2.03-0.15,3.09-0.18
		c0.54-0.02,1.09,0.04,1.64,0.07c0,1.24,0,2.49,0,3.73c-1.68,0.09-1.68,0.09-1.68,1.81c0,0.29,0,0.58,0,0.88
		c0,1.71,0,1.71,1.68,1.81c0,1.27,0,2.53,0,3.8c-1.24,0.02-2.48,0.06-3.72,0.05c-0.5-0.01-0.68,0.13-0.71,0.67
		c-0.15,2.65-0.17,2.64,2.46,2.66c0.66,0,1.31,0.03,1.97,0.05c0,1.24,0,2.47,0,3.71c-1.68,0.11-1.68,0.11-1.68,1.85
		c0,0.84-0.05,1.69,0.01,2.53c0.06,0.77-0.27,0.91-0.95,0.91c-3.16-0.03-6.31-0.01-9.47-0.01c-12.7,0-25.39-0.01-38.09,0.02
		c-0.91,0-1.15-0.21-1.15-1.13c0.02-22.06,0.02-44.11,0.02-66.17c0-0.88,0.08-1.76,0.02-2.64c-0.05-0.76,0.25-0.9,0.94-0.9
		c5.1,0.03,10.2,0.02,15.3,0.02c10.75,0,21.5,0.01,32.26-0.02c0.84,0,1.11,0.18,1.1,1.07C52.93,21.33,52.98,25,53,28.67
		c0.01,1.66,0,1.66,1.65,1.76c0,1.24,0,2.48,0,3.72c-1.32,0.02-2.64-0.01-3.96,0.07c-0.83,0.05-1.06-0.21-1.05-1.04
		c0.04-4.07,0-8.15,0.04-12.22c0.01-0.83-0.18-1.12-1.08-1.12c-13.65,0.03-27.3,0.03-40.95,0c-0.85,0-1.02,0.25-1.02,1.05
		c0.03,9.98,0.03,19.97,0,29.95C6.63,51.66,6.83,51.88,7.67,51.88z M44.34,75.07c2.43,0,2.4,0,2.4-2.41c0-0.73-0.23-0.93-0.94-0.92
		c-2.49,0.04-4.98,0.01-7.47,0.01c-2.01,0-4.03,0-6.04,0c-2.37,0-2.34,0-2.35,2.35c0,0.78,0.25,0.98,1,0.97
		C35.4,75.05,39.87,75.07,44.34,75.07z M42.31,80c-0.03-1.83,0.25-1.61-1.41-1.62C39,78.36,39,78.38,39,79.84
		c0,1.85,0,1.85,1.52,1.85C42.31,81.68,42.31,81.68,42.31,80z M35.07,81.69c0.9,0.02,0.7-0.7,0.59-1.08
		c-0.2-0.74,0.71-1.96-0.59-2.16c-1.47-0.23-2.99-0.07-4.49-0.06c-0.24,0-0.58-0.06-0.59,0.31c-0.02,0.91-0.2,1.9,0.09,2.71
		c0.23,0.63,1.18,0.16,1.8,0.26c0.29,0.04,0.58,0.01,0.88,0.01c0,0,0,0.01,0,0.01C33.53,81.68,34.3,81.67,35.07,81.69z"/>
	<path class="st4" d="M73.08,25.32c-0.01,1.05,0.35,1.17,1.25,1.17c5.65-0.04,11.31-0.02,16.96-0.02v0c5.72,0,11.45-0.02,17.17,0.02
		c0.82,0.01,1.03-0.2,1.03-1.03c-0.04-7.01-0.03-14.02,0-21.03c0-0.82-0.15-1.11-1.06-1.11c-11.41,0.03-22.83,0.03-34.24,0
		c-0.86,0-1.1,0.21-1.09,1.08C73.13,11.38,73.14,18.35,73.08,25.32z M48.61,19.84c0.9,0,1.09,0.28,1.08,1.12
		c-0.04,4.07,0.01,8.15-0.04,12.22c-0.01,0.83,0.22,1.09,1.05,1.04c1.32-0.08,2.64-0.05,3.96-0.07c0.81,0,1.61,0.01,2.42,0.01
		c1.37,0.02,2.75,0.03,4.13,0.07c0.44,0.01,0.68-0.08,0.66-0.59c-0.05-1.37-0.07-2.75-0.1-4.12c0.02-0.44,0.06-0.87,0.06-1.31
		c0.01-4.66,0.03-9.31-0.02-13.97c-0.01-0.85,0.24-1.03,1.04-1c2.01,0.06,4.03-0.02,6.05,0.04c0.75,0.02,0.9-0.23,0.9-0.93
		c-0.03-3.74,0.02-7.48-0.04-11.22C69.74,0.2,69.98,0,70.89,0c13.97,0.03,27.93,0.02,41.9,0.02c0,9.91,0,19.82,0,29.73
		c-2.64,0.03-5.28,0.06-7.92,0.08c-1.48,0-2.95-0.01-4.43-0.01c-5.13,0-10.26,0.01-15.39,0.01c-1.48,0-2.95-0.01-4.43-0.01
		c-3.3-0.01-6.59-0.05-9.89-0.02c-0.75,0.01-0.99-0.15-0.98-0.95c0.04-3.81,0.01-7.62,0.03-11.43c0-0.65-0.12-0.93-0.84-0.88
		c-0.91,0.07-1.84,0.07-2.75,0c-0.86-0.07-1.09,0.2-1.09,1.07c0.04,6.27,0,12.53,0.04,18.8c0.01,0.95-0.28,1.13-1.17,1.13
		c-3.11-0.03-6.22,0.03-9.34,0.05v0c-0.49-0.01-0.99-0.01-1.48-0.02c-0.82-0.01-1.65-0.02-2.47-0.07c-0.82-0.05-1.06,0.19-1.06,1.03
		c0.04,4.07,0,8.15,0.04,12.22c0.01,0.81-0.15,1.14-1.06,1.13c-13.65-0.03-27.3-0.03-40.95,0c-0.83,0-1.03-0.23-1.03-1.04
		c0.03-9.98,0.03-19.97,0-29.95c0-0.8,0.17-1.05,1.02-1.05C21.3,19.87,34.95,19.87,48.61,19.84z M27.62,33.47
		c0.6,0.44,0.92,0.11,1.33-0.18c4.34-3.14,8.68-6.27,13.02-9.41c0.22-0.16,0.53-0.25,0.65-0.65c-9.67,0-19.26,0-28.86,0
		c-0.02,0.26,0.12,0.29,0.24,0.37C18.54,26.88,23.09,30.15,27.62,33.47z M46.26,46.89c0-7.45,0-14.68,0-22.04
		C41.12,28.56,36.11,32.18,31,35.88C36.12,39.57,41.14,43.2,46.26,46.89z M42.64,48.49c-0.21-0.22-0.27-0.31-0.35-0.37
		c-4.51-3.26-9.04-6.51-13.53-9.8c-0.58-0.43-0.89-0.17-1.32,0.13c-4.13,2.99-8.26,5.97-12.39,8.95c-0.43,0.31-0.85,0.63-1.46,1.09
		C23.37,48.49,32.92,48.49,42.64,48.49z M10,46.96c5.18-3.74,10.21-7.38,15.34-11.08C20.18,32.15,15.16,28.52,10,24.8
		C10,32.26,10,39.5,10,46.96z"/>
	<path class="st9" d="M46.26,24.85c0,7.36,0,14.58,0,22.04C41.14,43.2,36.12,39.57,31,35.88C36.11,32.18,41.12,28.56,46.26,24.85z"
		/>
	<path class="st9" d="M45.67,64.02c-0.04,0-0.07,0-0.11,0c-11.59,0-23.17-0.01-34.76,0.01c-0.7,0-0.87-0.23-0.84-0.89
		c0.05-1.21,0.07-2.42-0.01-3.63c-0.05-0.83,0.2-1.04,1.03-1.04c5.76,0.04,11.51,0.02,17.27,0.02c5.68,0,11.37,0.02,17.05-0.02
		c0.88-0.01,1.13,0.25,1.09,1.11c-0.07,1.24-0.04,2.49-0.01,3.74C46.37,63.84,46.19,64.08,45.67,64.02z"/>
	<path class="st4" d="M73.08,66.95c-0.01,0.92,0.32,1.07,1.14,1.07c11.41-0.02,22.83-0.02,34.24,0c0.81,0,1.05-0.18,1.05-1.03
		c-0.04-7.05-0.04-14.09,0-21.14c0.01-0.91-0.3-1.07-1.12-1.07c-5.69,0.03-11.37,0.02-17.06,0.02c0,0,0-0.01,0-0.01
		c-5.72,0-11.45,0.02-17.17-0.02c-0.8-0.01-1.06,0.18-1.06,1.03C73.12,52.85,73.12,59.9,73.08,66.95z M48.69,55.18
		c0.77-0.01,1.04,0.22,0.99,0.99c-0.06,0.91,0.01,1.83-0.02,2.75c-0.02,0.53,0.19,0.71,0.71,0.7c1.43-0.04,2.85-0.06,4.28-0.08h0
		c0.44,0.13,0.89,0.14,1.33,0.01c1.72,0.02,3.43,0.02,5.15,0.07c0.64,0.02,0.71-0.28,0.7-0.8c-0.02-1.06,0.04-2.12-0.02-3.18
		c-0.05-0.77,0.25-0.92,0.94-0.9c2.09,0.04,4.17,0,6.26,0.02c0.54,0.01,0.79-0.11,0.78-0.73c-0.04-2.81-0.04-5.63-0.06-8.45
		c0.05-1.37,0.11-2.74,0.16-4.11c1.38-0.01,2.76-0.02,4.14-0.02c5.22,0,10.43-0.01,15.64-0.01c1.39,0.11,2.79,0.1,4.18,0.01
		c2.56,0.02,5.11,0.05,7.66,0.04c3.76-0.01,7.52-0.04,11.28-0.06c0,9.98,0,19.97,0,29.95c-3.3-0.11-6.61-0.09-9.91-0.01
		c-1.39-0.11-2.79-0.1-4.18-0.01c-0.4-0.02-0.81-0.04-1.21-0.04c-8.83,0-17.67-0.02-26.5,0.02c-1.05,0.01-1.28-0.31-1.24-1.28
		c0.07-1.46-0.01-2.93-0.02-4.39c0.09-1.48,0.12-2.96-0.01-4.44c0.02-0.84,0.02-1.68,0.07-2.51c0.03-0.56-0.24-0.68-0.73-0.67
		c-1.06,0.02-2.12,0.04-3.18,0c-0.57-0.02-0.78,0.15-0.75,0.74c0.04,1.02-0.05,2.05,0.03,3.07c0.07,0.87-0.21,1.11-1.09,1.09
		c-3.14-0.04-6.28,0.02-9.42,0.04c-0.55-0.02-1.09-0.09-1.64-0.07c-1.06,0.03-2.43-0.44-3.09,0.18c-0.72,0.68-0.25,2.08-0.23,3.16
		c0.01,0.89-0.28,1.09-1.13,1.09c-13.65-0.02-27.3-0.02-40.95,0.01c-0.76,0-1-0.19-0.99-0.97c0.04-3.34,0.07-6.68-0.01-10.01
		c-0.02-1.03,0.32-1.18,1.24-1.18c9.87,0.03,19.74,0.01,29.61,0.01C41.21,55.19,44.95,55.21,48.69,55.18z M9.94,59.52
		c0.08,1.21,0.06,2.42,0.01,3.63c-0.03,0.66,0.14,0.89,0.84,0.89c11.59-0.02,23.17-0.01,34.76-0.01c0.04,0,0.07,0,0.11,0
		c0.53,0.06,0.7-0.18,0.7-0.7c-0.02-1.24-0.06-2.5,0.01-3.74c0.05-0.86-0.21-1.11-1.09-1.11c-5.68,0.04-11.37,0.02-17.05,0.02
		c-5.76,0-11.51,0.02-17.27-0.02C10.14,58.47,9.89,58.68,9.94,59.52z"/>
	<path class="st8" d="M42.29,109.45c-0.29-0.01-0.58-0.02-0.86-0.03c-5.2,0-10.41,0-15.61,0c5.2,0,10.41,0,15.61-0.01
		C41.71,109.43,42,109.44,42.29,109.45z"/>
	<path class="st8" d="M28.12,102.86c-1.41-0.02-2.72-1.35-2.72-2.77c0.01-1.48,1.37-2.78,2.86-2.74c1.47,0.04,2.67,1.33,2.63,2.82
		C30.86,101.64,29.59,102.88,28.12,102.86z"/>
	<path class="st9" d="M28.75,38.32c4.49,3.29,9.02,6.54,13.53,9.8c0.08,0.06,0.14,0.15,0.35,0.37c-9.72,0-19.26,0-29.05,0
		c0.61-0.46,1.03-0.78,1.46-1.09c4.13-2.98,8.26-5.97,12.39-8.95C27.86,38.14,28.17,37.89,28.75,38.32z"/>
	<path class="st4" d="M25.4,100.09c-0.01,1.42,1.3,2.76,2.72,2.77c1.46,0.02,2.74-1.22,2.77-2.69c0.04-1.49-1.16-2.77-2.63-2.82
		C26.77,97.31,25.41,98.61,25.4,100.09z M27.8,106.14c-3.13,0.12-5.81-3.23-5.7-6.2c0.13-3.43,2.94-6.03,6.37-5.89
		c3.29,0.13,5.87,2.94,5.74,6.26C34.08,103.71,31.29,106.25,27.8,106.14z"/>
	<path class="st4" d="M25.52,70.63c0.75,0,1.01,0.17,1,0.96c-0.04,3.41-0.04,6.83,0,10.24c0.01,0.8-0.27,0.97-1.01,0.95
		c-1.32-0.02-2.63-0.02-3.94-0.02c-0.86,0-1.73,0-2.59,0c-0.79,0-1.59,0-2.38,0c-2.29,0-4.59-0.01-6.88,0
		c-0.72,0-1.43,0.01-2.15,0.02c-0.7,0.01-0.94-0.17-0.93-0.91c0.04-3.45,0.04-6.9,0-10.35c-0.01-0.76,0.26-0.9,0.95-0.89
		C13.56,70.66,19.54,70.66,25.52,70.63z M22.44,79.49c0.56,0.01,0.78-0.15,0.76-0.74c-0.04-1.36-0.04-2.72,0-4.07
		c0.02-0.6-0.21-0.73-0.76-0.73c-3.89,0.02-7.78,0.02-11.67,0c-0.6,0-0.85,0.13-0.82,0.78c0.05,1.32,0.05,2.64,0,3.96
		c-0.02,0.64,0.21,0.81,0.82,0.79c1.94-0.03,3.89-0.01,5.83-0.01S20.49,79.46,22.44,79.49z"/>
	<path class="st4" d="M25.51,82.79c-1.31-0.02-2.63-0.02-3.94-0.02C22.88,82.77,24.2,82.77,25.51,82.79z"/>
	<path class="st9" d="M22.44,73.95c0.55,0,0.78,0.13,0.76,0.73c-0.04,1.36-0.04,2.72,0,4.07c0.02,0.59-0.2,0.74-0.76,0.74
		c-1.94-0.03-3.89-0.01-5.84-0.01s-3.89-0.02-5.83,0.01c-0.61,0.01-0.84-0.15-0.82-0.79c0.04-1.32,0.05-2.64,0-3.96
		c-0.02-0.66,0.23-0.79,0.82-0.78C14.66,73.97,18.55,73.97,22.44,73.95z"/>
	<path class="st4" d="M16.6,82.77c-2.29,0-4.59-0.01-6.88,0C12.01,82.76,14.3,82.77,16.6,82.77c0.79,0,1.59-0.01,2.38-0.01
		C18.18,82.77,17.39,82.77,16.6,82.77z"/>
	<path class="st9" d="M13.75,23.22c9.6,0,19.19,0,28.86,0c-0.12,0.39-0.42,0.49-0.65,0.65c-4.34,3.14-8.68,6.27-13.02,9.41
		c-0.41,0.3-0.73,0.62-1.33,0.18c-4.53-3.32-9.08-6.59-13.63-9.87C13.87,23.52,13.72,23.48,13.75,23.22z"/>
	<path class="st9" d="M25.34,35.88c-5.13,3.7-10.16,7.34-15.34,11.08c0-7.46,0-14.7,0-22.16C15.16,28.52,20.18,32.15,25.34,35.88z"
		/>
</g>
</svg>
