<svg width="250" height="130" viewBox="0 0 250 130" fill="none" xmlns="http://www.w3.org/2000/svg">
<path d="M61.8056 73.6199C47.6197 73.6199 36.0814 85.0799 36.0814 99.1697C36.0814 113.259 47.6197 124.719 61.8056 124.719C75.9916 124.719 87.5299 113.259 87.5299 99.1697C87.5299 85.0799 75.9916 73.6199 61.8056 73.6199ZM61.8056 110.398C55.5757 110.398 50.501 105.357 50.501 99.1697C50.501 92.9821 55.5757 87.9417 61.8056 87.9417C68.0355 87.9417 73.1103 92.9821 73.1103 99.1697C73.1232 105.357 68.0485 110.398 61.8056 110.398ZM39.2353 35.0246H18.2743V18.1504H53.6549V0H0V129.386H18.2743V53.175H39.2353V35.0246ZM75.5763 18.0473C61.3903 18.0473 49.852 29.5073 49.852 43.597C49.852 57.6868 61.3903 69.1468 75.5763 69.1468C89.7622 69.1468 101.3 57.6868 101.3 43.597C101.288 29.5073 89.7492 18.0473 75.5763 18.0473ZM75.5763 54.8121C69.3464 54.8121 64.2716 49.7718 64.2716 43.5841C64.2716 37.3965 69.3464 32.3562 75.5763 32.3562C81.8061 32.3562 86.8809 37.3965 86.8809 43.5841C86.8809 49.7718 81.8061 54.8121 75.5763 54.8121ZM126.622 0C126.493 0 126.35 0 126.22 0.0128909V0H107.946V129.386H126.22V129.373C126.35 129.373 126.493 129.386 126.622 129.386C151.503 129.386 170.997 100.974 170.997 64.6865C170.997 28.3987 151.503 0 126.622 0ZM126.622 110.411C126.493 110.411 126.35 110.398 126.22 110.385V18.9883C126.35 18.9883 126.493 18.9625 126.622 18.9625C138.407 18.9625 151.542 37.7317 151.542 64.6865C151.542 91.6414 138.407 110.411 126.622 110.411ZM250 18.1504V0.0128909H208.13V101.799H226.404H250V83.6491H226.404V53.175H236.736V35.0246H226.404V18.1504H250ZM198.474 0H180.199V129.386H235.022V111.236H198.474V0Z" fill="white"/>
</svg>
