<svg xmlns="http://www.w3.org/2000/svg" width="99" height="125" fill="none"><path d="M49.347 115.962c-7.013 0-14.016-.06-21.028.04-1.72.03-2.44-.326-2.203-2.163.198-1.55-.652-3.487 2.32-3.3 1.017.06.375-1.56.523-2.4.128-.72-.158-1.284-1.017-1.136-1.738.306-2.054-.68-1.768-2.015.277-1.264-1.254-3.556 1.916-3.338 1.66.118.7-1.393.85-2.153.138-.672.366-1.64-.998-1.6-.72.02-2.114.464-1.738-1.017.356-1.393-1.452-3.536 1.235-4.148 1.106-.247.632-.948.543-1.432-.425-2.34-1.304-4.465-2.766-6.42-7.22-9.66-12.327-20.317-13.75-32.387C9.984 39.94 14.47 29.33 23.724 21.033 34.7 11.224 47.6 8.518 61.526 13.23c14.044 4.75 22.39 14.914 25.394 29.384 1.63 7.843-.346 15.3-2.894 22.64-2.5 7.18-6.163 13.76-10.776 19.794-1.422 1.867-2.262 3.93-2.647 6.203-.08.444-.523 1.077.237 1.422.543.247 1.57-.415 1.6.78.04 1.333.168 2.706-.07 4-.158.88-1.215.444-1.847.444-11.418.03-22.836.05-34.254-.02-1.55-.01-2.163.227-2.163 1.985.01 1.7.662 1.847 2.064 1.847l34.017-.1c2.153-.03 2.47.74 2.3 2.538-.138 1.502.474 2.934-2.222 2.885l-34.017-.12c-1.62-.01-2.074.375-2.143 2.055-.08 1.985 1.027 1.688 2.203 1.688l34.017-.07c2.38-.03 2.193 1.146 2.153 2.687-.04 1.462.365 2.805-2.114 2.736-7.003-.188-14.016-.06-21.028-.06zm.03-23.636l13.927.03c1.403.03 1.906-.415 2.094-1.798.464-3.408 1.837-6.44 3.98-9.176 3.1-3.97 5.65-8.317 7.704-12.92 2.874-6.42 5.452-13.097 5.107-20.16-.672-13.66-7.388-23.834-20.04-29.197-12.633-5.363-24.614-3.27-34.876 5.877-8.1 7.22-11.98 16.485-10.54 27.44C18.125 63 22.58 72.413 28.9 80.927c2.213 2.973 3.842 6.134 4.307 9.798.178 1.383.77 1.63 1.985 1.62l14.184-.02zm-.09 27.33c5.028 0 10.065.128 15.083-.06 2.48-.088 1.847 1.443 1.867 2.727.02 1.343.474 2.716-1.946 2.676a1008.71 1008.71 0 0 0-29.928 0c-2.854.04-1.798-1.778-1.995-3.1-.247-1.62.158-2.35 2.074-2.292 4.95.158 9.897.05 14.845.05zm2.637-115.8c0 .158.02.316 0 .474-.168.958.553 2.43-.464 2.775-1.264.435-2.795.138-4.208.1-.484-.01-.543-.474-.543-.88V1.14C46.7.3 47.065.023 47.846.082c.543.04 1.116.08 1.65-.01 1.906-.306 2.815.336 2.45 2.37-.1.464-.02.948-.02 1.412zM3.695 51.7c-.158 0-.316.02-.464 0-.968-.138-2.46.504-2.785-.395-.454-1.244-.7-3.18-.04-4.07 1.284-1.73 3.566-.415 5.403-.7.593-.1 1.56-.375 1.65.72.1 1.245.04 2.5.03 3.743-.01.642-.484.7-.978.7H3.695zm91.067-.01h-.464c-3.082 0-4.326-1.462-3.052-4.356.87-1.965 3.18-.553 4.8-.8.72-.1 2.064-.72 2.282.76.168 1.146.01 2.34.05 3.506.02.8-.454.88-1.057.88h-2.568zM75.917 8.34l-3.24 5.403c-.524.73-1.264-.198-1.817-.504-2.953-1.6-2.943-1.62-1.304-4.474.158-.267.286-.553.474-.8.583-.8.84-2.45 1.72-2.3 1.373.247 2.608 1.294 3.872 2.035.148.1.188.385.296.632zM8.485 22.454c1.886 1.126 4.168 1.916 5.482 3.506.7.85-1.146 2.647-1.936 3.95-.612.998-1.195-.1-1.738-.316a8.46 8.46 0 0 1-2.035-1.156c-.83-.622-2.538-.72-2.34-1.916.207-1.304 1.245-2.5 1.946-3.704.1-.178.385-.237.622-.366zm.92 13.946l-.978 3.625c-.02.08-.05.188-.1.207-2.173.86-3.93-.8-5.936-.978-1.235-.1-.9-1.027-.75-1.788a3.36 3.36 0 0 1 .12-.454c1.166-3.9.435-3.1 3.93-2.34.998.217 1.956.563 2.943.82.484.138.92.247.77.9zm-.06 25.247c.365.82-.296.948-.8 1.096-1.047.316-2.183.444-3.17.87-2.124.92-2.993.385-3.556-1.946-.504-2.074-.08-2.874 1.916-3.062.375-.03.74-.227 1.126-.326 3.427-.92 4.247-.296 4.474 3.368zm81.3-4.197l5.847 1.6c.553.148.8.425.642 1.008-.04.148-.06.306-.08.464-.632 3.872-.7 3.9-4.464 2.904-.306-.08-.622-.128-.9-.257-.83-.365-2.4-.1-2.4-1.067-.01-1.432.7-2.874 1.146-4.287.1-.346.504-.267.207-.365zM36.35 9.278c-1.363-1.55-1.175-3.832-1.985-5.68-.464-1.067.208-1.403 1.077-1.57.08-.02.158-.02.227-.04C39.095.972 39.095.972 40.033 4.4c.128.454.178.938.375 1.353.928 1.906.148 2.696-1.758 2.884-.602.07-1.195.326-2.3.632zm50.965 20.99c-.9.02-.968-.76-1.264-1.235-1.926-3.072-1.906-3.082 1.136-4.83l.415-.227c2.815-1.64 4.218-1.047 5.097 2.173.07.267.118.75-.01.84l-5.373 3.28zM89.2 36.34c.04.12-.03.01 0-.02 1.53-1.63 3.783-1.393 5.65-2.143 1.077-.435 1.304.336 1.57 1.116 1.205 3.595 1.205 3.585-2.548 4.593-.454.118-.928.207-1.353.385-1.54.672-2.5.425-2.647-1.472-.07-.76-.405-1.5-.672-2.46zM61.773 9.643c-1.284-1.65-4.306-.247-3.743-2.775.415-1.867-.267-4.87 2.5-5.353.978-.168 3.872-.435 3.654 1.887-.188 1.995-.474 4.415-2.4 6.242zm-47.54 62.335c-.07.523-.425.7-.76.88l-2.637 1.52C8.13 75.928 8.26 75.85 6.6 73.32c-1.067-1.62-.78-2.43.88-3.13.7-.296 1.333-.85 2.054-1.126.8-.306 1.6-1.63 2.4-.8.998 1.037 1.58 2.5 2.3 3.714zm78.543-.038l-2.064 3.496c-.178.286-.523.326-.83.148l-5.067-2.924c-.573-.336-.405-.7-.128-1.156.454-.73.938-1.452 1.264-2.242.583-1.393 1.333-1.422 2.5-.622 1.087.75 2.3 1.323 3.437 2.005.435.257 1.086.395.9 1.294zM26.65 5.524c.662.06.84.514 1.067.92l1.412 2.45c1.56 2.677 1.5 2.598-1.106 4.247-1.432.9-2.34 1.047-2.993-.77-.267-.73-.84-1.333-1.156-2.045-.366-.82-1.6-1.7-.9-2.44.988-1.047 2.47-1.63 3.665-2.36zm-4.663 11.853c-1.62 1.57-2.608 2.855-3.9 3.664-.8.514-1.235-.85-1.867-1.323-.622-.464-1.057-1.175-1.7-1.62-1.808-1.284-1.412-2.232-.02-3.743 1.62-1.748 2.548-1.57 3.95.1.938 1.106 2.272 1.896 3.526 2.914zm63.718-1.007l-.9.958c-.7.72-1.53 1.363-2.133 2.173-1.294 1.748-2.222 1.808-3.872.138-1.64-1.66-1.7-2.647.128-3.9.316-.217.543-.563.84-.82.82-.7 1.6-2.3 2.37-1.995 1.274.524 2.213 1.896 3.28 2.924.1.1.148.277.276.533z" fill="#2c3136"/><path d="M64.49 30.474l-.158.602c-1.017 4.04-.494 4.573 3.625 3.348 1.146-.336 1.738-.188 2.232.88.425.92.928 1.837 1.53 2.647 1.096 1.462 1.077 2.637-.514 3.734-.8.533-1.363 1.215-1.027 2.38.326 1.116 1.027 1.51 2.054 1.55 2.114.09 2.835 1.185 2.558 3.2-.128.93-.07 1.887-.01 2.825.08 1.156-.346 1.758-1.55 1.867-1.195.11-2.252.365-2.588 1.877-.296 1.343.277 2.133 1.225 2.775 1.156.78 1.294 1.6.474 2.716-.603.82-1.146 1.71-1.54 2.647-.622 1.472-1.402 1.906-3.062 1.363-1.956-.642-3.645 1.245-2.993 3.29.494 1.53.07 2.32-1.323 2.943-.998.445-1.936 1.047-2.845 1.67-.928.642-1.58.583-2.42-.277-1.62-1.65-4.03-.948-4.7 1.363-.326 1.126-.89 1.5-2.005 1.422-1.254-.08-2.52-.08-3.773 0-1.116.07-1.65-.287-1.975-1.432-.553-1.936-3.437-2.667-4.77-1.146-.928 1.057-1.57.91-2.548.267-1.106-.74-2.29-1.383-3.457-2.025-.72-.405-.91-.92-.77-1.748.425-2.598-1.235-4.227-3.763-3.625-.978.237-1.452-.02-1.887-.82l-1.778-3.062c-.83-1.205-.89-2.094.296-3.22 1.413-1.353.602-4-1.333-4.346-1.51-.277-1.995-.92-1.867-2.36.1-1.096.09-2.203 0-3.3-.11-1.363.366-2.074 1.798-2.133 1.264-.05 1.768-.8 2.163-2.025.425-1.324-.138-1.985-1.008-2.548-1.343-.86-1.235-1.778-.415-2.924.504-.7.978-1.452 1.284-2.242.71-1.807 1.817-2.43 3.585-1.412 1.067.612 1.7 0 2.47-.642.74-.622.91-1.235.474-2.035-1.136-2.084-.395-3.348 1.68-4.148.652-.247 1.284-.622 1.837-1.047 1.254-.988 2.183-.75 3.14.484.612.8 1.106 1.906 2.627 1.393 1.393-.464 1.462-1.53 1.58-2.578.168-1.52.82-2.272 2.43-2.045.612.09 1.264.09 1.887 0 2.29-.336 3.832.198 3.783 2.914-.01.87.543 1.333 1.393 1.66 1.235.464 1.65-.464 2.36-1.037.74-.602 1.116-2.222 2.203-1.73 1.896.87 3.862 1.768 5.363 3.31.158.168.03.602.03.77zM63.096 50.06c.01-7.902-5.946-13.966-13.74-13.986-7.773-.02-13.868 6.074-13.887 13.907a13.81 13.81 0 0 0 13.917 13.907c7.675-.05 13.7-6.124 13.71-13.828z" fill="#ff8b00"/><path d="M63.096 50.06c-.01 7.714-6.035 13.79-13.7 13.818-7.724.04-13.937-6.163-13.917-13.907.02-7.823 6.104-13.927 13.887-13.907 7.783.03 13.74 6.094 13.74 13.996zm-22.362.01c.04 4.71 3.882 8.534 8.573 8.544 4.8 0 8.623-3.91 8.583-8.77-.04-4.702-3.902-8.544-8.573-8.544-4.8-.01-8.623 3.9-8.583 8.77z" fill="#2c3136"/></svg>