<svg xmlns="http://www.w3.org/2000/svg" width="125" height="125" fill="none"><path d="M96.026 42.175c1.058 1.93 2.89.94 4.17.744 2.282-.343 2.997.52 3.447 2.517.803 3.574 1.763 7.11 2.772 10.625.39 1.37.166 2.154-1.185 2.703-1.224.5-2.4 1.146-3.555 1.763-1.273.676-1.322 1.45-.07 2.213.46.284.96.52 1.44.774 4.015 2.086 4.015 2.086 2.8 6.483l-2.262 8.343c-.402 1.665-.99 2.634-2.987 2.135-1.263-.313-2.634-.196-3.956-.284-1.48-.098-1.655.5-.9 1.635.9 1.36 1.724 2.78 2.664 4.123.627.89.744 1.528-.157 2.39-3.104 2.957-6.14 6.003-9.166 9.048-.666.676-1.195.774-1.998.186-1.45-1.048-3.006-1.96-4.495-2.957-1.058-.705-1.4-.274-1.34.803.098 1.87.157 3.74.343 5.6.098 1.01-.304 1.37-1.204 1.596l-12.2 3.202c-1.156.314-1.86.108-2.39-1.077-.823-1.83-1.812-3.574-2.957-5.797-1.185 2.223-2.252 4.064-3.163 5.983-.52 1.087-1 1.46-2.29 1.068-3.946-1.205-7.932-2.272-11.927-3.28-1.244-.313-1.655-.773-1.45-2.076.225-1.38.137-2.8.196-4.2.078-1.92-.636-2.086-1.968-.89-.41.04-.754.176-.88.617l.04-.02c-.313-.02-.52.088-.53.44l.02-.01c-.705-.108-1.204.353-1.635.754-1.577 1.45-2.654.95-3.966-.53-2.154-2.438-4.465-4.77-6.913-6.913-1.596-1.39-2.262-2.693-1.107-4.593l-.01.01c.392.04.47-.196.44-.52l-.01.03c.52-.118.627-.53.666-.97.402-.764 1.596-1.175 1.087-2.35-.578-1.302-1.753-.774-2.673-.744-4.514.157-4.514.186-5.7-4.318-.754-2.86-1.42-5.748-2.3-8.568-.45-1.45-.343-2.32 1.224-2.82.88-.284 1.694-.793 2.507-1.253 1.46-.832 1.488-2.34.088-3.192-.07-.04-.147-.06-.216-.098-4.25-2.39-4.25-2.39-2.977-7.04.764-2.78 1.616-5.533 2.262-8.343.343-1.49.96-2.154 2.517-1.763.597.147 1.244.117 1.86.186.92.098 1.606-.098 2.057-1.058.43-.89.636-1.557.02-2.546-2.174-3.506-2.135-3.545.783-6.434 2.213-2.193 4.524-4.3 6.66-6.58 1.077-1.146 1.84-1.185 3.124-.313.91.617 1.606 1.978 3.212 1.302 1.694-.715 2.115-1.95 1.772-3.535-.5-2.252.44-3.143 2.615-3.584 3.506-.715 6.982-1.626 10.4-2.683 1.577-.5 2.33-.078 2.83 1.332.127.362.362.686.51 1.048.402.96.793 1.694 2.125 1.714 1.332.01 1.93-.53 2.497-1.596 1.665-3.163 1.704-3.153 5.112-2.213 3.153.872 6.267 1.9 9.46 2.595 1.665.372 2.203 1.067 1.95 2.693-.303 1.96-.47 3.927 2.007 4.73-.95 1.635-2.38 2.82-3.82 3.986-2.517-1.214-4.838-2.526-3.76-6.013.186-.597-.264-.93-.91-1.087-1.508-.362-3.006-.823-4.495-1.263-.764-.225-1.45-.196-1.675.705-.793 3.085-2.948 3.222-5.552 2.77-1.126-.196-2.34-.04-3.496.127-1.263.186-2.213-.098-2.536-1.38-.597-2.428-2.115-2.39-3.995-1.645-.43.166-.9.303-1.35.343-2.056.176-2.89 1.234-2.41 3.25.294 1.253-.078 2.017-1.332 2.546-1.94.813-3.74 1.94-5.396 3.232-.783.607-1.47.88-2.223.098-1.88-1.94-3.398-1.35-4.838.578-.51.685-1.175 1.254-1.812 1.822-.636.558-.842 1.126-.206 1.763 2.096 2.086 1.43 4.005-.137 6.062-.783 1.028-1.263 2.32-1.763 3.545-.392.96-1.058 1.43-1.988 1.146-2.938-.89-3.868.656-4.152 3.192-.078.685-.264 1.39-.568 2.017-.51 1.067-.088 1.665.88 1.93 2.86.803 3.604 2.77 3.163 5.464-.088.53-.108 1.136.07 1.626.88 2.526-.206 3.888-2.536 4.7-.783.274-1.92.44-1.488 1.87.48 1.567.823 3.163 1.214 4.75.176.734.656 1.097 1.36.89 3.74-1.116 5.748.813 7.1 3.966.176.42.48.823.813 1.146.98.94.793 1.743.06 2.82-2.35 3.467-2.3 3.506.666 6.532.274.274.588.53.813.842.715.96 1.498 1 2.34.196 2.624-2.478 5.317-2.732 8.128-.313.176.147.4.255.627.313 1.557.41 1.92 1.37 1.812 2.948-.294 4.397-.166 4.27 3.995 5.592 2.056.656 3.036.137 3.613-1.772.852-2.82 2.615-3.73 5.66-3.73 2.693 0 4.21.636 4.975 3.153.176.588.607 1.097.813 1.674.333.92.842 1.058 1.802.862C76 98.54 76 98.57 75.922 93.135c0-.313.02-.627-.01-.94-.07-.695.216-1.087.823-1.488 4.75-3.134 4.77-3.202 9.41-.137 1.097.725 1.724.676 2.497-.264.44-.54.92-1.097 1.49-1.488 2.154-1.498 2.34-3.104.54-5.043-1.635-1.763-1.577-3.33-.313-5.64 1.616-2.948 3.437-3.937 6.55-3.24.646.147 1.704.617 2.056-.372.646-1.83 1.106-3.73 1.597-5.61.176-.685-.42-1.01-.91-1.156-3.692-1.087-5.25-3.378-4.22-7.217.06-.215.04-.48-.03-.695-.47-1.577.245-2.36 1.655-3.026 3.574-1.704 3.545-1.763 2.517-5.582-.04-.147-.108-.303-.108-.45-.118-2.125-1.302-2.78-3.25-2.33-2.066.48-3.623.04-4.27-2.203 1.195-1.528 2.517-2.928 4.084-4.074z" fill="#2d3238"/><path d="M96.026 42.174c-1.567 1.156-2.88 2.556-4.093 4.064-3.946 3.653-7.785 7.413-11.38 11.418-1.9 1.488-3.564 3.192-5.063 5.073-3.976 3.574-7.746 7.364-11.34 11.32-6.708 1.773-14.317-5.16-13.866-12.623a221.37 221.37 0 0 0 12.593-12.593 28.72 28.72 0 0 0 4.691-4.691 190.17 190.17 0 0 0 11.761-11.751c1.44-1.165 2.87-2.35 3.82-3.986 3.36-2.536 5.993-5.817 9.03-8.676 1.635-1.537 3.202-3.153 4.798-4.73l13.18 12.887c-4.73 4.73-9.636 9.303-14.13 14.287zM27.253 85.272c-1.155 1.9-.48 3.202 1.107 4.593 2.448 2.145 4.76 4.475 6.913 6.914 1.312 1.48 2.4 1.978 3.966.53.43-.392.93-.862 1.635-.754.098.666-.44.96-.803 1.322l-16 15.952-1.763-1.84c-3.633-3.8-7.628-7.266-11.026-11.3l14.483-14.523c.4-.4.705-1.097 1.498-.88z" fill="#f9c686"/><path d="M110.156 27.868L96.975 14.98c3.428-4.025 7.384-7.53 11.066-11.3 1.596-1.635 1.82 1 2.918 1 2.977 3.212 5.905 6.463 9.362 9.185 1.86 1.802 1.194 3.065-.568 4.632-3.33 2.977-6.405 6.238-9.597 9.38zm-.578-7.315c.5-.264.725-.333.872-.48 1.293-1.332 3.016-2.487 3.682-4.084.352-.842-1.694-1.968-2.615-3.006-.362-.41-.832-.735-1.136-1.165-1.018-1.43-1.8-1.342-3.026-.05-3.006 3.183-3.065 3.094-.03 6.18.813.832 1.528 1.763 2.252 2.605z" fill="#2a2f36"/><path d="M11.28 100.685c3.398 4.044 7.393 7.5 11.026 11.3l1.763 1.84L.45 125l-.45-.558 3.36-7.237c2.673-5.494 4.828-11.232 7.922-16.52zm5.435 10.703c-2.79-3.956-2.957-3.956-4.838.108-.333.725-.627 1.46-1.077 2.497 2.32-.685 4.103-1.635 5.915-2.605z" fill="#2d3238"/><path d="M120.32 13.855c-3.457-2.722-6.385-5.973-9.362-9.185 6.2-6.522 4.153-5.768 9.773-.48 1.136 1.067 2.214 2.203 3.32 3.3.95.94 1.01 1.85-.02 2.8l-3.712 3.564z" fill="#f34213"/><g fill="#d9a349"><path d="M28.34 83.822c-.04.45-.147.852-.666.97-.147-.568.245-.783.666-.97zM41.354 96.15c.127-.44.47-.578.88-.617-.166.382-.392.686-.88.617z"/><path d="M27.683 84.762c.03.323-.05.548-.44.52-.127-.4.06-.54.44-.52zm13.182 11.8c.01-.353.215-.46.53-.44-.02.333-.167.5-.53.44z"/></g><path d="M79.33 32.372c-3.75 4.084-7.668 8-11.76 11.75-2.125-.656-4.3-.734-6.492-.53-9.606.9-17.597 9.362-16.265 19.967 1.39 11.036 11.438 17.97 21.75 15.835 8.91-1.84 16.187-11.056 13.984-21.75 3.594-4.005 7.433-7.765 11.38-11.418.646 2.242 2.203 2.683 4.26 2.203 1.95-.46 3.134.206 3.25 2.33.01.157.07.303.108.45 1.028 3.81 1.057 3.878-2.517 5.582-1.4.666-2.125 1.45-1.655 3.026.07.215.088.48.03.695-1.028 3.84.53 6.13 4.22 7.217.5.147 1.097.47.91 1.156-.5 1.88-.95 3.8-1.596 5.61-.353.99-1.4.52-2.056.372-3.114-.695-4.935.294-6.55 3.24-1.273 2.32-1.322 3.888.313 5.64 1.802 1.94 1.616 3.545-.54 5.043-.568.392-1.048.95-1.49 1.488-.764.94-1.39 1-2.497.264-4.632-3.065-4.66-2.997-9.41.137-.607.4-.9.783-.823 1.49.03.313 0 .627.01.94.07 5.435.06 5.406-5.298 6.522-.95.196-1.47.07-1.802-.862-.206-.578-.636-1.087-.813-1.675-.764-2.517-2.272-3.153-4.975-3.153-3.055 0-4.818.91-5.66 3.73-.578 1.9-1.557 2.428-3.614 1.772-4.162-1.332-4.29-1.195-3.995-5.59.108-1.586-.264-2.546-1.812-2.948-.225-.06-.45-.166-.627-.313-2.8-2.42-5.503-2.164-8.128.313-.842.793-1.626.764-2.34-.196-.235-.313-.548-.558-.813-.842-2.967-3.026-3.016-3.065-.666-6.532.734-1.077.92-1.88-.06-2.82-.333-.323-.627-.725-.813-1.146-1.35-3.153-3.36-5.082-7.1-3.966-.705.206-1.185-.157-1.36-.89-.392-1.586-.734-3.192-1.214-4.75-.44-1.43.705-1.596 1.49-1.87 2.33-.813 3.418-2.174 2.536-4.7-.176-.5-.147-1.097-.07-1.626.44-2.703-.303-4.66-3.163-5.464-.97-.274-1.4-.87-.88-1.93a6.6 6.6 0 0 0 .568-2.017c.284-2.536 1.214-4.083 4.152-3.192.93.284 1.596-.186 1.988-1.146.5-1.224.98-2.517 1.763-3.545 1.567-2.056 2.233-3.976.137-6.062-.646-.637-.43-1.214.206-1.763.646-.568 1.312-1.146 1.812-1.82 1.44-1.93 2.957-2.507 4.838-.578.754.783 1.44.51 2.223-.098 1.655-1.302 3.457-2.42 5.396-3.23 1.253-.53 1.626-1.293 1.332-2.546-.48-2.017.362-3.075 2.41-3.25.46-.04.92-.176 1.35-.343 1.87-.744 3.388-.784 3.995 1.645.313 1.283 1.273 1.567 2.536 1.38 1.156-.166 2.37-.323 3.496-.127 2.605.44 4.76.313 5.552-2.77.235-.9.91-.93 1.675-.705 1.498.44 2.987.89 4.495 1.263.646.157 1.097.48.91 1.087-1.058 3.486 1.253 4.798 3.78 6.013z" fill="#fdfdfd"/><path d="M80.554 57.647c2.203 10.693-5.082 19.908-13.984 21.75-10.31 2.135-20.368-4.798-21.75-15.835-1.332-10.615 6.67-19.066 16.265-19.967 2.184-.206 4.368-.127 6.493.53a28.73 28.73 0 0 1-4.691 4.691c-7.227.215-12.8 5.787-12.593 12.593-.45 7.472 7.158 14.405 13.866 12.623 5.856-.186 10.85-5.18 11.34-11.32 1.488-1.87 3.163-3.574 5.053-5.063z" fill="#2d3238"/><path d="M50.285 61.417C50.08 54.6 55.64 49.04 62.878 48.824a221.37 221.37 0 0 1-12.593 12.593zM75.5 62.72c-.48 6.15-5.474 11.144-11.34 11.32 3.594-3.956 7.364-7.746 11.34-11.32zm34.1-42.167l-2.262-2.595c-3.036-3.075-2.977-2.996.03-6.18 1.224-1.302 2.017-1.38 3.026.05.313.44.774.764 1.136 1.165.92 1.038 2.967 2.154 2.614 3.006-.665 1.596-2.4 2.752-3.682 4.083-.137.137-.362.206-.86.47zM16.716 111.4c-1.812.97-3.594 1.92-5.915 2.614l1.077-2.497c1.88-4.074 2.037-4.074 4.837-.117z" fill="#fdfdfd"/></svg>