<svg xmlns="http://www.w3.org/2000/svg" width="135" height="125" fill="none"><path d="M107.736 16.782l13.543-5.016c1.322-.51 1.795-.24 2.277 1.06l10.698 28.34c.53 1.39.106 1.813-1.13 2.257l-8.768 3.386-6.714 2.383c-.608.212-1.418.84-1.737-.183-.598-1.88-1.736-1.003-2.72-.627L76.52 62.13c-1.293.482-1.756 1.138-1.707 2.527.096 3.23-1.254 5.894-3.965 7.61-1.495.945-1.215 1.582-.405 2.788l22.688 33.936c.424.627.955 1.176 1.437 1.765 1.66 3.56 4.177 6.588 6.337 9.82 1.004 1.505.85 2.16-.665 3.077-2.778 1.678-2.7 1.765-4.505-.907l-6.492-9.492c-.386-.665-.733-1.35-1.157-1.987l-18.183-27.24c-.405-.608-.84-1.186-1.505-2.132v35.952c-.02.685-.068 1.38-.068 2.064-.01 3.675-.01 3.59-3.57 3.646-1.505.02-2.064-.376-1.93-1.92.116-1.293-.03-2.605-.058-3.907V82.657c-1.07.86-1.707 1.794-2.334 2.74l-18.048 27.29-7.486 11.045c-.84 1.302-1.514 1.765-2.76.608a3.52 3.52 0 0 0-.955-.637c-1.678-.772-1.9-1.65-.752-3.27 2.412-3.357 4.592-6.897 6.858-10.35l21.82-32.566c.8-1.206 2.064-2.42 2.17-3.714.106-1.206-1.95-1.437-2.76-2.44-.048-.058-.125-.096-.164-.154-.945-1.63-2.2-1.447-3.733-.85l-21.096 8.035c-2.093.84-3.03.588-3.58-1.582-.193-.772-.164-2.142-1.852-1.466L12.228 81.5c-1.1.347-2.257.54-3.24 1.08-1.842 1.003-2.73.646-3.424-1.418-1.61-4.775-3.415-9.502-5.277-14.21-.56-1.408-.347-2.007 1.1-2.48 2.18-.714 4.293-1.64 6.434-2.47l12.743-4.66c1.592-.55 1.88-1.408 1.1-2.71-1.244-2.064-.28-2.75 1.65-3.463l79.524-29.875c1.07-.405 2.614-.51 1.707-2.42-.318-.666.396-.868.888-1.08l2.315-1.003zM59.62 59.197c-.096-.02-.453-.01-.492-.125-.617-1.476-1.466-2.942-1.66-4.486-.106-.83 1.437-.897 2.248-1.206l48.646-18.28c1.543-.58 1.997-1.11 1.225-2.69-.84-1.707-1.428-3.54-2.006-5.354-.367-1.12-.705-1.543-2.026-1.042L29.35 54.683c-1.418.53-1.38 1.158-.916 2.354 1.727 4.408 3.434 8.817 4.968 13.293.608 1.765 1.312 1.843 2.913 1.235l52.698-19.88 22.602-8.49c1.398-.51 1.62-.994 1.128-2.45-.617-1.794-1.533-.974-2.44-.627L61.24 58.6l-1.62.608zm60.26-28.476c.675-.164.955-.077 1.08.26.502 1.36 1.4 2.74 1.37 4.1-.02 1.235-1.833.984-2.77 1.543-.386.232-.85.347-1.283.492-.472.154-.897.376-.685.955.56 1.495.878 3.24 1.872 4.36.57.646 2.045-.54 3.116-.887 1.312-.415 2.566-1.032 3.877-1.428 1.062-.318 1.274-.8.878-1.833L120.2 19.358c-.347-.945-.695-1.158-1.64-.762-1.977.83-3.974 1.62-6.02 2.267-1.138.366-1.177.887-.8 1.833l3.155 8.383c.385 1.1.926 1.215 1.88.8l3.106-1.167zM27.218 69.297l-2.74-7.05c-.318-.78-.965-.26-1.38-.106L7.84 67.87c-.974.357-1.148.8-.8 1.688.752 1.92 1.524 3.84 2.2 5.797.347 1.003.79 1.032 1.698.685l15.26-5.74c.463-.164 1.11-.23 1.032-1.003zm35.325-1.813c2.74 1.66 5.2 1.225 6.318-.8.174-.31.376-.772.26-1.042-.212-.51-.772-.395-1.187-.23l-5.392 2.084z" fill="#2a2f37"/><path d="M107.736 16.782l-2.325.994c-.492.212-1.196.415-.887 1.08.906 1.9-.637 2.016-1.708 2.42L23.302 51.162c-1.93.723-2.894 1.4-1.65 3.463.8 1.302.492 2.16-1.1 2.7-4.273 1.476-8.498 3.096-12.743 4.66-.617-12.367 2.2-23.846 8.884-34.322 4.08 6.318 9.724 9.58 17.392 9.02 9.328-.685 16.9-9.82 15.55-18.83-3 6.3-7.93 9.376-13.678 8.585-5.296-.733-9.637-4.775-10.543-9.82C34.877 7.753 45.913 2.023 58.848.5c18.78-2.2 35.2 3.03 48.888 16.293zm-39.328.55c-2.132-.627-2.952.106-2.846 2.44.087 1.87.212 2.952 2.537 2.74 1.756-.164 3.23.145 3-2.508-.164-1.9-.01-3.5-2.7-2.672zm26.162 93.425l-1.437-1.766-22.688-33.936c-.8-1.196-1.08-1.843.405-2.788 2.7-1.717 4.06-4.4 3.965-7.6-.04-1.4.424-2.045 1.707-2.527l36.666-13.746c.984-.367 2.122-1.254 2.72.627.32 1.023 1.13.396 1.737.183l6.714-2.383c4.726 24.936-5.364 48.685-26.383 62.016-1.1.714-2.267 1.293-3.405 1.93zm18.434-47.48c.55-2.064-.077-2.846-2.344-2.788-2.113.058-3.116.27-3 2.807.087 2.2.58 2.836 2.817 2.797 2.22-.02 3.183-.56 2.537-2.817zm-17.5 20.103c.617-2.103-.058-2.894-2.42-2.884-2.2.01-2.855.54-2.778 2.77.068 1.958.164 3.02 2.624 2.875 2.035-.106 3.338-.25 2.576-2.76zM12.238 81.5l15.878-6.145c1.698-.675 1.66.694 1.852 1.466.55 2.17 1.485 2.43 3.58 1.582 6.974-2.807 14.074-5.325 21.097-8.035 1.543-.598 2.788-.78 3.733.85.04.067.116.096.164.154.8 1.003 2.865 1.235 2.76 2.44-.116 1.293-1.37 2.498-2.17 3.714L37.308 110.1c-11.006-6.463-19.225-15.434-24.492-27.087-.222-.492-.386-1.003-.58-1.505zm25.457 7.727c.685-2.315-.386-2.788-2.537-2.788-2.074 0-2.923.318-2.855 2.682.067 2.18.386 3.077 2.855 2.96 2.16-.106 3.193-.55 2.537-2.855z" fill="#2f496d"/><path d="M25.405 16.628c.907 5.045 5.248 9.096 10.544 9.82 5.75.79 10.67-2.286 13.68-8.585 1.36 9-6.212 18.145-15.55 18.83-7.67.56-13.312-2.7-17.392-9.02-2.006-4.476-2.71-9.058-1.158-13.842 2.508-7.756 9.386-12.492 18.135-12.164-6.232 3.3-9.86 7.756-8.257 14.96z" fill="#ffc003"/><path d="M68.398 117.847V81.895l1.505 2.132 18.183 27.24c.424.637.772 1.322 1.157 1.987-6.627 3.02-13.63 4.274-20.846 4.592zm-26.006-5.15l18.048-27.3c.627-.945 1.264-1.88 2.334-2.74v35.074c-7.1-.463-13.88-2.18-20.383-5.045z" fill="#2f496d"/><path d="M59.62 59.198l1.62-.608 49.06-18.473c.907-.338 1.823-1.167 2.44.627.5 1.447.28 1.93-1.13 2.45l-22.6 8.5-52.698 19.88c-1.6.608-2.315.53-2.913-1.235-1.524-4.476-3.24-8.894-4.968-13.293-.463-1.196-.502-1.823.916-2.354l76.187-28.66c1.32-.502 1.67-.087 2.025 1.042.6 1.814 1.177 3.646 2.007 5.354.772 1.582.318 2.112-1.225 2.7L59.707 53.4c-.8.3-2.344.376-2.248 1.206.193 1.543 1.042 3 1.66 4.485.048.106.395.096.502.116zm60.26-28.476l-3.097 1.196c-.955.405-1.505.3-1.88-.8l-3.154-8.383c-.376-.955-.338-1.476.8-1.833 2.045-.646 4.04-1.437 6.02-2.267.945-.395 1.292-.183 1.64.762l7.138 18.917c.395 1.032.183 1.505-.878 1.833-1.312.395-2.566 1.013-3.878 1.428-1.07.338-2.546 1.524-3.115.888-1.004-1.12-1.312-2.865-1.872-4.36-.222-.58.212-.8.685-.955.434-.145.897-.26 1.283-.492.936-.57 2.75-.318 2.77-1.543.02-1.36-.87-2.73-1.37-4.1-.135-.366-.405-.453-1.1-.3zM27.218 69.297c.077.78-.57.84-1.032 1.013l-15.26 5.74c-.907.347-1.36.318-1.698-.685l-2.2-5.797c-.347-.888-.174-1.33.8-1.688l15.26-5.73c.405-.154 1.06-.675 1.38.106l2.74 7.042z" fill="#fbfbfb"/><path d="M62.543 67.484l5.392-2.084c.424-.154.974-.28 1.186.232.116.27-.087.733-.26 1.042-1.13 2.035-3.58 2.47-6.318.8z" fill="#2f496d"/><path d="M68.408 17.333c2.682-.84 2.527.772 2.7 2.662.23 2.653-1.254 2.344-3 2.508-2.325.212-2.45-.868-2.537-2.74-.116-2.325.714-3.058 2.846-2.43zm44.595 45.944c.637 2.257-.328 2.797-2.537 2.826-2.238.03-2.73-.608-2.817-2.797-.106-2.547.897-2.75 3-2.807 2.267-.067 2.894.714 2.344 2.778zM95.514 83.38c.762 2.508-.54 2.653-2.576 2.77-2.45.145-2.547-.916-2.624-2.875-.077-2.228.58-2.76 2.778-2.77 2.363-.01 3.04.78 2.42 2.875zm-57.82 5.856c.656 2.305-.376 2.75-2.537 2.846-2.46.116-2.788-.78-2.855-2.96-.068-2.363.78-2.682 2.855-2.682 2.15.01 3.222.482 2.537 2.797z" fill="#fbfbfb"/></svg>