<svg xmlns="http://www.w3.org/2000/svg" width="136" height="125" fill="none"><path d="M63.376.053L123.614 0c2.12-.01 2.855.388 2.823 2.708l-.125 31.6c-.042 2.53.745 3.222 3.085 2.938 1.133-.136 2.393-.074 3.463.273 1.963.63 2.876 2.183 2.876 4.24l-.02 14.052c-.042 3-1.67 4.46-4.775 4.534-4.566.105-4.566.105-4.566 4.618l.042 57.226c.01 2.078-.325 2.823-2.676 2.813l-121.242-.02c-1.89 0-2.498-.367-2.498-2.414L.02 2.592C.02.472.567-.01 2.634 0l60.742.052zm52.703 60.553l-3-.084c-21.902 0-43.804-.136-65.706.084-5.594.052-10.6-.86-15.47-3.673-5.037-2.907-10.368-5.32-15.973-8.144l22.7-11.46c.714-.357 1.47-.273 2.214-.273l12.29.032 62.945-.063c.83.052 1.67.042 2.488.19 2.098.357 2.686-.45 2.592-2.55-.19-4.01-.158-8.028-.01-12.037.074-1.858-.41-2.35-2.31-2.34H7.913c-2.057 0-2.414.63-2.414 2.508l-.01 94.356c0 2.036.44 2.645 2.57 2.645l110.423.01c2.35.01 2.665-.724 2.655-2.802l-.042-51.696c-.01-5.037-.01-5.037-5.017-4.7zM63.355 5.352c-17.074 0-34.138-.01-51.213.02-2.15 0-5.08-.965-6.223.42-1.08 1.312-.2 4.145-.42 6.286-.24 2.267.504 2.865 2.813 2.855l105.94-.073c2.225 0 5.28.986 6.454-.43 1.123-1.354.2-4.303.43-6.528.2-2.067-.42-2.613-2.55-2.603l-55.233.052zM81.95 46.07l35.62.042c1.794.01 2.32-.577 2.203-2.298-.115-1.878-1.458-1.28-2.382-1.28l-70.974-.032c-1.333 0-2.393-.105-2.36 1.868.032 2.1 1.354 1.7 2.54 1.7H81.95zm-.158 9.036l35.63.042c1.9.01 2.55-.546 2.33-2.414-.24-2.004-1.73-1.217-2.686-1.217l-70.26-.032c-.42 0-.84.032-1.26 0-1.09-.084-1.364.462-1.47 1.5-.2 1.89.682 2.183 2.33 2.172l35.387-.042zM27.79 48.82l10.83 5.363v-10.84L27.79 48.82zm98.575-.2c0 1.658.084 3.327-.02 4.985-.126 1.847 1.133 1.417 2.14 1.438 1.05.02 2.162.315 2.088-1.5-.126-3.148-.105-6.318 0-9.466.042-1.438-.598-1.522-1.763-1.616-1.9-.157-2.728.41-2.466 2.424.157 1.228.02 2.487.02 3.736z" fill="#2d3138"/><path d="M116.07 37.035l-62.946.063c-4.093 0-8.196-.02-12.29-.03-.745 0-1.5-.084-2.214.273L15.92 48.8c5.594 2.823 10.925 5.237 15.973 8.144 4.87 2.813 9.875 3.726 15.47 3.673l65.706-.084c.997 0 2.005.053 3.002.074l.042 13.296c.063 1.94-.462 2.508-2.467 2.508H13.024c-1.9 0-2.55-.41-2.54-2.456V27.527c-.01-1.878.493-2.382 2.372-2.372l32.617.042 68.256-.042c1.847 0 2.477.42 2.372 2.34-.157 3.18-.03 6.36-.03 9.54z" fill="#3537e5"/><path d="M81.95 46.07c-11.785 0-23.57 0-35.366-.01-1.186 0-2.498.4-2.54-1.7-.032-1.973 1.03-1.868 2.36-1.868l70.975.03c.923 0 2.256-.598 2.382 1.28.105 1.72-.4 2.3-2.204 2.298l-35.607-.03zm-.156 9.037c-11.796 0-23.592-.032-35.377.03-1.648.01-2.53-.283-2.33-2.172.105-1.028.388-1.564 1.47-1.5.42.032.84 0 1.26 0l70.26.032c.955 0 2.456-.777 2.687 1.217.22 1.868-.43 2.424-2.33 2.414l-35.64-.03z" fill="#f9c686"/><path d="M10.558 98.49l-.03-14.042c-.042-1.795.388-2.487 2.34-2.466h27.6c1.88-.02 2.424.525 2.403 2.403l-.01 28.094c.01 1.7-.4 2.33-2.214 2.31a1538.07 1538.07 0 0 0-27.842 0c-1.742.01-2.32-.483-2.277-2.246.116-4.69.053-9.372.042-14.052z" fill="#f34213"/><path d="M79.916 98.26l.02 14.304c.02 1.5-.2 2.246-2.004 2.225l-27.35-.01c-1.67.01-2.172-.524-2.162-2.15V84.02c-.01-1.564.388-2.235 2.1-2.225h27.6c1.46-.01 1.847.514 1.826 1.9l-.032 14.566z" fill="#d68a2a"/><path d="M116.07 98.49l.032 14.304c.03 1.564-.504 1.983-2.015 1.973-8.784-.063-17.58-.074-26.362.01-1.805.02-2.277-.63-2.256-2.33V84.334c-.01-1.67.367-2.36 2.204-2.34h26.362c1.732-.01 2.09.64 2.068 2.193l-.032 14.304z" fill="#f34213"/><path d="M8.564 10.075c-.4-1.9.105-2.655 2.33-2.75 2.56-.105 2.477 1.102 2.57 2.938.115 2.1-.588 2.56-2.624 2.624-2.372.073-2.582-1.008-2.277-2.813zm8.374.042c-.42-1.94.126-2.676 2.35-2.8 2.592-.136 2.445 1.112 2.54 2.917.105 2.004-.378 2.666-2.53 2.655-2.256-.01-2.78-.85-2.36-2.78zm13.13.19c.62 2.288-.64 2.403-2.54 2.582-2.812.262-2.235-1.438-2.393-3.054-.2-2.015.567-2.382 2.466-2.487 2.487-.136 2.823.986 2.466 2.96z" fill="#2d3138"/></svg>