<svg xmlns="http://www.w3.org/2000/svg" width="371" height="371" fill="none"><path d="M89.864 21.808c2.204-.033 2.96.724 2.928 2.895-.165 9.802 1.25 7.83-7.533 7.927-10.855.1-21.676-.033-32.498.1-2.697.033-3.52-.756-3.487-3.454.066-7.467-.066-7.467 7.4-7.467h14.44v.033l18.75-.033zm19.77.032c5.756-.033 4.802-.56 4.868 6.25.033 4.605 0 4.605-5.46 4.605-6.184-.066-5.395.7-5.395-5.723 0-6.02-.592-5.13 5.987-5.13zm21.02-.032c6.283.066 5.56-.724 5.56 5.56 0 6.085.7 5.296-5.822 5.296-5.855 0-5 .658-5.033-6.085-.033-4.77.033-4.77 5.296-4.77zM117.23 265.15c.33 1.283 1.02 3.618-1.94 3.553-2.533-.066-5.066 0-7.6 0v-.033c-.953 0-1.94.13-2.894-.033-2.04-.33-5.164 1.25-5.92-.855-.954-2.665-.362-5.92-.296-8.914.033-1.217 1.118-1.02 1.94-1.02 4.934 0 9.966-.526 14.77.197 4.276.625 1.282 4.67 1.94 7.105zm17.205-7.335c5.46.033 4.54-.7 4.638 5.328 0 5.56 0 5.56-5.888 5.56-5 0-5 0-5-6.085.033-4.802.033-4.868 6.25-4.802zM153.644 239c.033 7.927.132 7.927-7.894 7.927-14.703 0-29.373-.066-44.076.033-2.467.033-3.3-.625-3.3-3.2.033-7.73-.066-7.73 7.73-7.73h19.868l24.57-.032c2.336-.066 3.092.56 3.092 2.993zm195.776 83.252c-.46.56-.953 1.25-1.546 1.8l-17.86 17.926c-1.546 1.546-2.5 1.612-4.112.066-5.8-5.56-5.855-5.493-.1-11.25 2.303-2.303 4.54-4.67 6.908-6.875 1.48-1.38 1.546-2.4.033-3.815-3.487-3.323-6.743-6.908-10.23-10.23-1.644-1.546-1.875-2.6-.13-4.375 5.36-5.427 5.328-5.56 10.723-.23l14.637 14.54c.658.625 1.48 1.217 1.677 2.434zm-42.002-17.73c2.204.297 1.35 2.303 1.118 3.553l-4.67 22.926-.428 2.467c-1.645 8.618-1.645 8.585-10.13 6.02-1.612-.494-2.17-1.283-1.645-2.83l6.447-32.07c.066-.33.165-.888.395-.987 3.092-1.282 5.954.56 8.914.92zm-28.025 1.94c1.513.987.724 1.974-.263 2.895l-11.052 10.427c-1.776 1.612-1.8 2.697-.033 4.3 3.684 3.3 7.138 6.842 10.8 10.164 1.48 1.35 1.7 2.335.1 3.75-1.447 1.25-2.697 2.763-4.08 4.1-.493.494-1.052.92-1.7 1.48-.56-.428-1.086-.757-1.48-1.152l-19.835-19.045c-1.085-1.02-1.315-1.842-.13-2.96l20.064-19.308c.198-.165.362-.494.527-.46 3.88.132 4.572 4.112 7.104 5.8zm-.363-108.38c1.382 1.283 1.35 2.04.066 3.454-5.724 6.282-5.7 6.315-11.842.362l-15.13-14.54c-1.217-1.15-1.8-1.908-.263-3.42l18.98-18.815c.493-.493 1.085-.888 1.447-1.217 1.842.033 2.5 1.382 3.388 2.27 5.065 5.065 5.065 5.098 0 10-2.5 2.434-4.967 4.967-7.598 7.237-1.744 1.546-1.974 2.533-.066 4.2 3.783 3.322 7.302 7.006 11.02 10.46zM307 168.05c1.514 0 2.303.724 1.974 1.48l-6.776 33.452c-.263 1.283-.888 1.546-2.006 1.35l-7.434-1.447c-1.35-.23-1.447-.888-1.25-2.04l6.546-32.564c.032-.23.065-.56.23-.657 3.026-2.27 5.822.427 8.716.427zm41.413 15.822c1.184 1.152 1.414 1.875.098 3.158l-18.913 18.913c-1.184 1.185-1.842 1.283-3.158.066-6.414-5.953-6.48-5.92-.263-12.137 2.04-2.04 3.98-4.2 6.184-6.118 1.908-1.645 2.04-2.928.033-4.507-1.02-.822-1.8-1.907-2.73-2.86-2.862-2.434-5.494-5.066-7.895-7.928-2.434-1.8 0-2.894.888-3.453 2.204-1.382 2.632-5.33 6.316-4.507.263.066.46.527.658.823 2.63 2.138 5 4.54 7.17 7.17l11.612 11.38zm.952-135.158c-.065 1.15-.8 1.645-1.348 2.237l-18.1 18.157c-1.612 1.645-2.566 1.382-4.08-.1-5.657-5.493-5.723-5.427-.197-10.953 2.368-2.4 4.703-4.835 7.17-7.138 1.513-1.414 1.415-2.434-.033-3.816-3.387-3.224-6.578-6.7-10-9.9-1.875-1.743-2.237-2.895-.197-4.9 5.427-5.33 5.295-5.395 10.7.066l14.34 14.276c.625.7 1.217 1.447 1.743 2.072zm-47.76-18.254c8.716 2.072 7.697.132 6.052 8.947-1.48 7.927-3.256 15.8-4.9 23.65-.263 5.23-.592 5.592-4.276 4.3-7.4-.625-7.368-.592-5.954-7.598l5.23-26.545c.428-2.5 1.086-3.454 3.85-2.763zm-22.762 30.886c1.448 1.35 1.612 2.17.132 3.75-5.8 6.15-5.7 6.217-11.776.33l-15.098-14.572c-.986-.954-1.973-1.776-.427-3.223l19.67-18.65c.526-.493 1.085-.92 1.612-1.35 1.7.625 2.532 2.006 3.618 3.092 4.1 4.177 4.1 4.2-.066 8.223l-8.684 8.2c-1.513 1.35-1.546 2.4-.033 3.783 3.75 3.42 7.303 7.006 11.052 10.427z" fill="#fff"/><path d="M300.312 147.36l56.115-.032c2.697-.033 3.717.493 3.684 3.52v69.536c0 2.763-.822 3.388-3.454 3.388-37.53-.066-75.094-.066-112.625 0-2.697 0-3.75-.46-3.75-3.52v-69.535c0-2.796.855-3.42 3.486-3.388l56.543.032zm48.188 39.702c1.316-1.283 1.085-2.04-.1-3.157l-11.61-11.38c-2.17-2.632-4.54-5.033-7.17-7.17-.23-.296-.394-.757-.657-.822-3.684-.823-4.112 3.092-6.316 4.506-.92.56-3.322 1.645-.888 3.454 2.4 2.86 5.066 5.493 7.894 7.927.888.987 1.678 2.072 2.73 2.862 2.04 1.578 1.908 2.86-.032 4.506-2.17 1.875-4.112 4.046-6.184 6.118-6.217 6.217-6.184 6.184.263 12.138 1.316 1.217 1.973 1.15 3.158-.066l18.913-18.914zm-39.537-17.532c.296-.756-.46-1.48-1.974-1.48-2.927 0-5.7-2.73-8.716-.46-.165.13-.198.427-.23.658l-6.545 32.564c-.23 1.118-.1 1.81 1.25 2.04 2.5.395 4.966.954 7.433 1.447 1.12.198 1.744-.066 2.007-1.348l6.776-33.42zm-29.867 31.972c1.283-1.38 1.316-2.17-.066-3.453-3.716-3.42-7.236-7.105-11.02-10.493-1.875-1.678-1.677-2.698.066-4.21 2.632-2.302 5.066-4.802 7.598-7.236 5.066-4.9 5.066-4.9 0-10-.888-.888-1.546-2.236-3.388-2.27-.394.33-.954.724-1.447 1.217l-18.98 18.815c-1.546 1.513-.954 2.27.263 3.42l15.13 14.538c6.184 5.987 6.118 5.954 11.84-.33z" fill="#f34336"/><path d="M356.526 283.867c2.83 0 3.585.724 3.585 3.586v69.14c0 2.894-.79 3.552-3.585 3.552l-56.477-.066c-18.683 0-37.4-.066-56.115.066-2.796.033-3.618-.658-3.618-3.552v-69.14c-.033-2.895.822-3.553 3.618-3.553l112.592-.033zm-8.65 40.195c.592-.592 1.085-1.282 1.546-1.81-.164-1.217-1.02-1.776-1.678-2.467l-14.637-14.538c-5.427-5.296-5.36-5.197-10.723.23-1.743 1.776-1.513 2.796.132 4.375 3.486 3.322 6.743 6.874 10.23 10.23 1.513 1.448 1.448 2.467-.033 3.816-2.4 2.204-4.637 4.572-6.907 6.875-5.756 5.756-5.69 5.7.1 11.25 1.61 1.546 2.565 1.513 4.11-.066l17.86-17.894zm-39.34-16.018c.23-1.25 1.086-3.257-1.118-3.553-2.96-.362-5.822-2.17-8.914-.888-.23.1-.33.625-.395.987l-6.447 32.07c-.526 1.514.033 2.336 1.645 2.83 8.486 2.533 8.486 2.566 10.13-6.02.164-.823.263-1.645.427-2.467l4.67-22.96zm-29.406 1.348c.987-.92 1.776-1.908.263-2.894-2.533-1.71-3.223-5.658-7.04-5.8-.164 0-.362.296-.526.46l-20.065 19.308c-1.184 1.118-.954 1.94.132 2.96l19.834 19.045c.395.395.92.724 1.48 1.152.658-.56 1.217-.987 1.71-1.48 1.348-1.382 2.598-2.862 4.08-4.112 1.61-1.382 1.38-2.4-.1-3.75-3.65-3.322-7.138-6.874-10.79-10.164-1.776-1.612-1.743-2.73.033-4.31 3.717-3.388 7.302-6.973 10.986-10.427z" fill="#9ccc65"/><path d="M300.214 87.068c-18.584 0-37.202-.066-55.786.066-2.96.033-4.112-.395-4.112-3.85l.033-68.812c0-2.862.8-3.585 3.586-3.552H356.56c2.994 0 3.487.954 3.487 3.65v69.174c.033 2.73-.69 3.388-3.388 3.388l-56.444-.066zm47.793-36.116c.592-.592 1.316-1.085 1.35-2.237-.56-.592-1.118-1.35-1.81-2.04L333.206 32.4c-5.395-5.493-5.263-5.395-10.69-.066-2.04 2.007-1.677 3.158.198 4.9 3.454 3.19 6.61 6.644 10 9.9 1.447 1.38 1.546 2.4.033 3.816-2.467 2.302-4.802 4.737-7.17 7.138-5.526 5.526-5.46 5.46.198 10.953 1.513 1.447 2.5 1.743 4.08.1l18.156-18.2zm-40.36-11.545c1.645-8.815 2.664-6.875-6.052-8.947-2.763-.658-3.42.296-3.882 2.796l-5.23 26.545c-1.414 6.973-1.447 6.973 5.954 7.598 3.684 1.25 4.013.92 4.276-4.31l4.934-23.683zm-28.683 25.69c1.448-1.546 1.316-2.4-.13-3.75-3.75-3.42-7.302-7.006-11.052-10.427-1.546-1.38-1.48-2.434.033-3.783 2.96-2.664 5.822-5.427 8.683-8.2 4.178-4.013 4.178-4.08.066-8.223-1.085-1.118-1.94-2.5-3.618-3.125-.526.46-1.085.855-1.612 1.35l-19.67 18.65c-1.513 1.447-.56 2.237.428 3.224L267.2 65.392c6.085 5.92 6.02 5.855 11.775-.296z" fill="#c45e9a"/><path d="M240.35 356.56c-.033 2.894.822 3.585 3.618 3.552l56.115-.065 56.477.065c2.796.033 3.585-.658 3.585-3.552v-69.14c.033-2.862-.723-3.586-3.585-3.586H244c-2.796 0-3.65.658-3.618 3.553l-.033 69.174zm-72.9-109.698c4.08.033 8.158-.1 12.237-.165h4.276c4.868.362 9.736.33 14.57.033 3.85.066 7.73.33 11.546.066 3.322-.23 4.144.8 4.144 4.112l-.197 61.477c-.033 3.618 1.02 4.572 4.407 4.177 2.5-.296 5.066-.23 7.6 0 2.664.263 3.486-.526 3.453-3.322l-.098-33.288c.032-6.973 0-6.94 6.84-6.94l52.07-.132 14.275.033 50.194-.033c2.928.296 5.855.296 8.783 0l9.374.263L371 368.4c0 2.17-.428 2.6-2.6 2.6l-138.708-.066-.395-24.57c.33-5.098.362-10.23-.033-15.328.757-2.763-.033-3.816-3.125-3.684-6.48.23-12.992-.066-19.472.13-2.6.066-3.553-.46-3.454-3.3.197-5.625-.066-11.282-.132-16.94.395-4.868.428-9.736-.033-14.604l.23-32.762c0-1.513-.428-2.17-2.04-2.138l-21.6.23-6.48-.165c-8.65-.066-8.585-.033-8.092-8.75.165-1.777.757-2.204 2.4-2.204zm62.363-110.487v.033h-.033l.033-.033zm-55.457 1.94c.33-2.006 1.415-2.04 5.296-2.204h.724c4.703.23 4.703.23 4.703 5.165l.198 37.037c.493 4.3-1.58 5.822-5.658 5.13-5.36-.23-5.36-.23-5.36-5.657v-36.05l.065-2.862c0-.197.033-.394.033-.56zm-.164 87.102c0-5.625 0-5.625 5.526-5.954 5.427.296 5.427.296 5.427 5.954v2.894c0 5.625 0 5.625-5.427 5.954-5.526-.33-5.526-.33-5.526-5.954v-2.894z" fill="#030202"/><path d="M180.418 136.112h-.723c0-.198.032-.395.13-.592.198.164.395.394.592.592z" fill="#dfdfdf"/><path d="M179.728 123.644l-4.868-.066 4.868.066z" fill="#1bb8da"/><path d="M91.378 349.127c11.48.36 20.657-7.993 21.084-19.177.395-10.92-8.058-20.163-18.88-20.6-11.25-.46-20.525 8.092-20.953 19.374-.362 9.77 8.453 20.788 18.75 20.394zm-78.58-50.688c1.447.098 2.895 0 4.342 0l153.15-.1c3.454 0 4.046 1.085 4.013 4.2l-.066 38.353c0 4.145-.395 8.2-2.796 11.743-2.63-.723-2.697.7-2.17 2.6l-.164.164c-1.184-.493-1.612.066-1.58 1.184-2.73 2.336-6.02 3.158-9.506 3.323-6.348.296-12.63.296-18.98.098l-2.83-.098-110.092.065c-8.223-.098-14.54-7.04-14.933-15.163l-.23-44.505c-.033-1.414.428-1.973 1.842-1.874zm142.72-287.42c7.6.033 14.54 2.237 17.467 10.23 2.467 6.842.888 14.1 1.184 21.183.065 1.316-.987 1.118-1.8 1.118-1.8.033-3.62 0-5.428 0H92.364c-26.05 0-52.102-.033-78.186.066-2.697 0-3.52-.625-3.322-3.355.263-4.08.033-8.2.066-12.302.132-9.967 6.908-16.973 16.808-17.006l127.788.066zM136.2 27.367c0-6.283.724-5.493-5.558-5.56-5.296 0-5.33 0-5.296 4.77.066 6.7-.823 6.085 5.032 6.085 6.513 0 5.822.8 5.822-5.296zm-27.17 5.296c5.46 0 5.493 0 5.46-4.605-.066-6.8.888-6.283-4.868-6.25-6.58.033-5.986-.855-5.986 5.13 0 6.414-.757 5.658 5.394 5.723zm-16.25-7.96c.033-2.17-.724-2.928-2.927-2.895-6.25.132-12.532.033-18.782.033v-.033H56.63c-7.434 0-7.335 0-7.4 7.467-.033 2.697.8 3.487 3.487 3.454l32.498-.1c8.782-.1 7.4 1.875 7.565-7.927z" fill="#e0e0e0"/><path d="M172.393 43.583c.822-.033 1.842.165 1.81-1.118-.296-7.072 1.283-14.34-1.184-21.183-2.928-7.993-9.868-10.23-17.466-10.23l-127.79-.033c-9.9 0-16.644 7.006-16.808 16.973-.066 4.112.197 8.223-.066 12.302-.165 2.73.625 3.355 3.322 3.355l78.186-.066h79.996zm-161.208 301.2c.362 8.125 6.677 15.065 14.933 15.164l58.747-.033h51.346l2.828.1c6.35.197 12.63.197 18.98-.1 3.486-.164 6.775-.987 9.506-3.322.756-.066 1.217-.56 1.578-1.184l.165-.165c1.052-.592 1.677-1.546 2.17-2.598 2.4-3.553 2.796-7.6 2.796-11.743l.066-38.353c.032-3.125-.56-4.21-4.013-4.21l-153.15.1c-1.447 0-2.895.1-4.342 0-1.414-.066-1.875.46-1.875 1.875l.263 44.47zM11.02 57.53c.197 2.895-.066 5.79-.066 8.684l-.066 217.652c0 3.027.79 3.75 3.783 3.717l125.288-.065 31.15.033c2.27.032 3.322-.46 3.125-2.994-.23-2.763-.033-5.56-.033-8.322 0-5.723 0-5.723 5.526-6.085 5.427.362 5.427.362 5.427 6.02l.197 32.465c-.394 4.835-.427 9.67.033 14.473l-.197 18.75c0 9.736-3.454 17.762-11.315 23.78-3.454 2.665-7.664 3.553-11.513 5.23H21.843c-.1-.56-.56-.7-1.02-.822C7.5 366.494-.13 354.817.002 339.95L.133 28.98C.133 11.743 11.712.033 28.85.033L156.275 0c4.638 0 9.144.625 13.322 2.763 10.92 5.56 15.624 14.77 15.59 26.775v64.437c0 5.7 0 5.7-5.427 6.053-5.493-.297-5.493-.297-5.493-5.724l-.1-36.215c.033-2.928-.855-3.52-3.618-3.52l-106.112.066c-16.775 0-33.55.033-50.326-.066-2.302 0-3.256.493-3.092 2.96z" fill="#030202"/><path d="M171.406 352.68c-.494 1.052-1.12 2.006-2.17 2.598-.527-1.94-.428-3.322 2.17-2.598zm-2.336 2.73c-.33.625-.8 1.118-1.58 1.184 0-1.118.395-1.677 1.58-1.184z" fill="#8ca0a9"/><path d="M21.776 269.327c-.033 2.434.756 3.026 3.06 2.993l7.072-.066h22.63l7.828-.032h8.52l12.96.065c2.434.033 3.355-.493 3.322-3.124V235.48c.033-2.598-.822-3.158-3.29-3.158h-59c-2.237 0-3.125.428-3.125 2.928l.033 34.077zm3.388-98.68H159.86c3.026 0 3.52-1.053 3.487-3.717l-.132-40.195c-.033-2.763.8-3.553 3.487-3.388s5.427.23 8.124.23l4.868.066.1 11.84c-.066.198-.132.395-.132.592-3.88.132-5 .198-5.295 2.204-.033.165-.033.362-.066.56l-.033 2.894v36.05c0 5.427 0 5.427 5.427 5.657v12.4l-14.078.263c-1.7.066-2.4-.56-2.335-2.302l.066-9.046c.164-2.566-.724-3.29-3.257-3.256l-36.938.033c-32.466 0-64.93.065-97.396-.033-3.026 0-4.144.493-4.08 3.88.23 10.986.165 21.973.033 32.926-.033 2.566.8 3.19 3.256 3.19l134.696-.033c2.763 0 3.75-.658 3.717-3.586-.066-3.552-1.612-8.157.756-10.394 2.17-2.04 6.677-.493 10.164-.592 1.776-.066 3.585.132 5.394.23v12.27c-5.526.296-5.526.296-5.526 5.954v2.895c0 5.624 0 5.624 5.526 5.953v12.5l-12.236.164c-1.644-.033-2.236.428-2.335 2.204-.494 8.717-.56 8.684 8.09 8.75 2.17 0 4.31.1 6.48.165v12.203c-5.526.362-5.526.362-5.526 6.085 0 2.763-.164 5.56.033 8.322.198 2.533-.888 2.994-3.125 2.994l-31.15-.033c-41.774 0-83.515-.033-125.29.066-2.993 0-3.783-.69-3.783-3.717l.066-217.653c0-2.895.263-5.79.066-8.684-.164-2.5.822-2.96 3.092-2.96l50.326.066 106.112-.066c2.763 0 3.65.592 3.618 3.52l.132 36.182c.033 5.46 0 5.46 5.427 5.8v12.236c-4.34.066-8.683-.033-13.025.23-2.73.164-3.487-.69-3.454-3.42l.132-40.195c.033-2.73-.592-3.684-3.553-3.684H25.098c-2.796 0-3.355.822-3.355 3.454v98.514c0 2.697.658 3.42 3.42 3.42zm120.618 76.28c7.993 0 7.894 0 7.894-7.927 0-2.402-.756-3.06-3.092-3.026l-24.57.032h-19.867c-7.796 0-7.697 0-7.73 7.73 0 2.566.822 3.224 3.3 3.19h44.076zm-6.677 16.216c-.1-6.02.822-5.296-4.638-5.33-6.25-.065-6.25 0-6.25 4.803 0 6.085 0 6.085 5 6.085 5.888-.033 5.888-.033 5.888-5.56zm-23.815 5.56c2.96.066 2.303-2.302 1.94-3.552-.658-2.434 2.335-6.447-1.94-7.105-4.835-.757-9.835-.23-14.77-.198-.79 0-1.907-.197-1.94 1.02-.066 2.993-.658 6.25.296 8.914.757 2.072 3.88.526 5.92.855.954.132 1.908.033 2.895.033v.033h7.598z" fill="#1bb8da"/><path d="M240.317 83.285c-.033 3.454 1.15 3.85 4.11 3.85l55.786-.066 56.477.066c2.697.033 3.388-.658 3.388-3.388V14.572c0-2.697-.493-3.65-3.486-3.65H243.968c-2.83 0-3.62.69-3.586 3.552l-.065 68.812zm-80.49-18.025c2.96 0 3.585.92 3.552 3.684l-.13 40.195c-.033 2.73.723 3.585 3.454 3.42 4.34-.263 8.683-.165 13.025-.23l7.96.032 13.585.23c1.447.033 2.237-.263 2.17-1.94l-.33-13.552c.066-1.447.197-2.862.197-4.31l-.066-45.95c-.032-2.796.8-3.388 3.42-3.29 6.612.197 13.256-.066 19.9.132 2.467.066 2.96-.757 2.96-3.06l-.132-36.906C229.33.658 230.12 0 233.113 0l137.82.066v97.79l-26.05.263c-4.868 0-9.704-.033-14.572-.033l-50.622.033c-4.868 0-9.703-.033-14.57-.033l-32.53-.066c-2.467.033-3.257-.493-3.224-3.125l.1-37.597c0-2.138-.395-3.06-2.763-2.895-2.993.23-6.052.23-9.045 0-2.83-.23-3.586.658-3.586 3.52l.132 61.84c.033 3.125-.92 3.717-3.85 3.717-10.23-.098-20.46.1-30.722.165l-4.868-.066c-2.697-.033-5.427-.066-8.124-.23s-3.487.625-3.487 3.388l.132 40.195c.033 2.664-.494 3.75-3.487 3.717-44.9-.1-89.797-.1-134.696 0-2.73 0-3.388-.757-3.388-3.42V68.713c0-2.63.56-3.454 3.355-3.454h134.762zm-69.042 44.833c1.974 1.447 3.026.362 4.375-.592l42.826-30.953c.724-.526 1.743-.822 2.138-2.138H45.197c-.066.855.395.954.8 1.217l44.8 32.466zm61.312 44.142V81.74l-50.194 36.28 50.194 36.215zm-11.907 5.263c-.69-.724-.888-1.02-1.15-1.217l-44.504-32.235c-1.908-1.414-2.927-.56-4.342.428l-40.754 29.44c-1.414 1.02-2.796 2.072-4.802 3.585h95.554zM32.83 154.465l50.458-36.445L32.83 81.575v72.9z" fill="#030202"/><path d="M152.098 81.738v72.496l-50.195-36.215 50.195-36.28zm-1.94 128.842h-.362c-38.122 0-76.212-.033-114.335.033-2.303 0-2.862-.757-2.763-2.928.164-3.98.23-7.96-.033-11.94-.164-2.73.658-3.42 3.388-3.42l56.806.066 56.082-.066c2.895-.033 3.717.822 3.585 3.65-.23 4.08-.13 8.2-.032 12.302-.033 1.7-.625 2.5-2.336 2.303z" fill="#faca15"/><path d="M240.317 220.218c-.033 3.026 1.052 3.52 3.75 3.52H356.69c2.665 0 3.454-.592 3.454-3.388v-69.536c.033-2.993-.987-3.52-3.684-3.52l-56.115.065v-.033c-18.815 0-37.662.066-56.477-.065-2.63-.033-3.486.592-3.486 3.388l-.066 69.568zm-80.226-38.715c2.533-.033 3.42.724 3.257 3.257-.198 2.993.033 6.02-.066 9.045-.066 1.744.625 2.336 2.335 2.303l14.078-.263c1.448.427 2.928.46 4.375.032l16.94.23c2.105.066 2.335-.92 2.302-2.632-.065-3.486.132-6.973-.065-10.46-.165-2.532.822-3.026 3.092-2.96 6.874.132 13.716 0 20.6.066 1.777.033 2.6-.362 2.566-2.4l-.197-27.795.526-13.52 13.618-.066 51.444-.033c4.572.362 9.177.33 13.75.033l25.196.132 37.103-.198V234.8c-10.855-.362-21.742-.296-32.597-.033-4.572-.362-9.177-.33-13.75-.033-1.316-.066-2.664-.13-3.98-.13-29.044 0-58.12-.066-87.166.065-3.454.033-4.2-1.02-4.08-4.2.23-4.802-.032-9.638-.065-14.44.296-4.868.394-9.736-.033-14.604.066-2.764.066-5.527.23-8.257.1-1.842-.79-2.236-2.4-2.203-3.487.065-6.973.13-10.46 0-1.875-.066-2.566.493-2.467 2.434.132 3.355-.164 6.743.1 10.098.23 2.86-.69 3.65-3.586 3.585-10.328-.13-20.656.066-30.985.132-1.81-.066-3.585-.296-5.394-.23-3.487.1-7.993-1.447-10.164.592-2.368 2.237-.822 6.842-.756 10.395.032 2.927-.92 3.585-3.717 3.585-44.9-.066-89.798-.066-134.696.033-2.5 0-3.29-.625-3.256-3.19l-.033-32.926c-.066-3.388 1.053-3.88 4.08-3.88l134.334-.066zM32.632 195.78c.263 3.98.197 7.96.033 11.94-.1 2.17.46 2.927 2.763 2.927l114.697-.032c1.743.197 2.302-.593 2.302-2.303-.065-4.08-.197-8.223.033-12.302.165-2.83-.69-3.65-3.585-3.65l-56.082.066c-18.946 0-37.86.066-56.806-.066-2.697-.033-3.52.658-3.355 3.42z" fill="#030202"/><path d="M139.04 360.014l-2.83-.098H84.865l51.346-.033 2.83.13zm-46.6-21.676c-4.638-.066-8.947-4.44-8.947-9.1.033-4.87 4.506-9.145 9.407-9.013 4.835.13 8.783 4.375 8.65 9.276-.1 4.835-4.276 8.914-9.1 8.848z" fill="#8ca0a9"/><path d="M94.503 126.046l44.504 32.236c.263.197.46.493 1.15 1.217H44.605l4.802-3.586 40.754-29.44c1.414-1.02 2.434-1.842 4.342-.428z" fill="#faca15"/><path d="M83.483 329.227c-.033 4.67 4.276 9.078 8.947 9.1 4.802.066 9.013-4.013 9.1-8.848.132-4.9-3.815-9.1-8.65-9.276-4.9-.13-9.374 4.145-9.407 9.013zm7.894 19.9c-10.296.395-19.1-10.624-18.75-20.393.428-11.283 9.67-19.835 20.953-19.374 10.822.427 19.308 9.67 18.88 20.6-.428 11.183-9.605 19.538-21.084 19.176zm-7.5-116.803c2.467 0 3.322.56 3.3 3.158v33.682c.033 2.63-.888 3.2-3.322 3.125l-12.96-.066H54.538c-7.532 0-15.098-.033-22.63 0l-7.072.066c-2.302.033-3.092-.56-3.06-2.993V235.25c-.033-2.5.855-2.96 3.125-2.927h58.977zm-10.13 29.143c1.842.033 2.566-.493 2.5-2.434-.132-4.473-.132-8.947 0-13.387.066-1.974-.7-2.402-2.5-2.402H35.36c-1.974 0-2.796.428-2.697 2.566a172.08 172.08 0 0 1 0 13.026c-.066 2.105.7 2.664 2.697 2.598l19.176-.033 19.2.066zm10.097 10.855l-12.96-.066 12.96.066z" fill="#030202"/><path d="M73.747 243.244c1.81 0 2.566.428 2.5 2.4a227.05 227.05 0 0 0 0 13.388c.066 1.94-.658 2.434-2.5 2.434l-19.21-.033c-6.414 0-12.795-.066-19.177.033-2.006.033-2.763-.494-2.697-2.6.132-4.342.164-8.683 0-13.025-.066-2.17.757-2.6 2.697-2.566l38.386-.033z" fill="#faca15"/><path d="M54.538 272.256c-7.532 0-15.098-.033-22.63 0h22.63l7.828-.033-7.828.033z" fill="#030202"/><path d="M45.163 76.377h94.93c-.395 1.283-1.382 1.612-2.138 2.138l-42.827 30.952c-1.35.987-2.4 2.04-4.375.592L45.92 77.594c-.362-.23-.855-.362-.756-1.217zm38.123 41.643L32.83 154.465v-72.9l50.458 36.446z" fill="#faca15"/></svg>