<svg width="371" height="371" viewBox="0 0 371 371" fill="none" xmlns="http://www.w3.org/2000/svg">
<path d="M89.8638 21.8077C92.0676 21.7748 92.8242 22.5313 92.7913 24.7022C92.6268 34.5044 94.0412 32.5308 85.2588 32.6295C74.4042 32.7281 63.5825 32.5966 52.7608 32.7281C50.0636 32.761 49.2412 31.9716 49.2741 29.2744C49.3399 21.8077 49.2083 21.8077 56.675 21.8077C61.4774 21.8077 66.3126 21.8077 71.1149 21.8077C71.1149 21.8406 71.1149 21.8406 71.1149 21.8406C77.3317 21.8406 83.6142 21.9392 89.8638 21.8077Z" fill="white"/>
<path d="M109.633 21.841C115.389 21.8081 114.435 21.2818 114.501 28.0907C114.534 32.6957 114.501 32.6957 109.041 32.6957C102.857 32.6299 103.646 33.3865 103.646 26.9723C103.646 20.9529 103.054 21.841 109.633 21.841Z" fill="white"/>
<path d="M130.652 21.8083C136.935 21.8741 136.211 21.0847 136.211 27.3672C136.211 33.4524 136.902 32.663 130.389 32.663C124.534 32.663 125.389 33.3209 125.356 26.5778C125.323 21.8083 125.389 21.8083 130.652 21.8083Z" fill="white"/>
<path d="M117.231 265.151C117.56 266.434 118.251 268.769 115.291 268.704C112.758 268.638 110.225 268.704 107.692 268.704C107.692 268.671 107.692 268.671 107.692 268.671C106.739 268.671 105.752 268.802 104.798 268.638C102.758 268.309 99.6337 269.888 98.8772 267.783C97.9233 265.118 98.5153 261.862 98.5811 258.869C98.614 257.652 99.6995 257.849 100.522 257.849C105.456 257.849 110.488 257.323 115.291 258.046C119.567 258.671 116.573 262.717 117.231 265.151Z" fill="white"/>
<path d="M134.435 257.815C139.895 257.848 138.974 257.124 139.073 263.143C139.073 268.702 139.073 268.702 133.185 268.702C128.185 268.702 128.185 268.702 128.185 262.617C128.218 257.815 128.218 257.749 134.435 257.815Z" fill="white"/>
<path d="M153.644 239C153.677 246.927 153.776 246.927 145.75 246.927C131.047 246.927 116.377 246.861 101.674 246.96C99.2068 246.993 98.3845 246.335 98.3845 243.769C98.4174 236.039 98.3187 236.039 106.114 236.039C112.726 236.039 119.37 236.039 125.982 236.039C134.172 236.039 142.362 236.105 150.552 236.007C152.888 235.941 153.644 236.566 153.644 239Z" fill="white"/>
<path d="M349.421 322.252C348.961 322.811 348.468 323.502 347.875 324.061C341.922 330.014 335.903 335.968 330.015 341.987C328.469 343.533 327.515 343.599 325.903 342.053C320.114 336.494 320.048 336.56 325.804 330.804C328.107 328.501 330.344 326.133 332.712 323.929C334.192 322.548 334.258 321.528 332.745 320.114C329.258 316.791 326.002 313.206 322.515 309.884C320.871 308.338 320.64 307.285 322.384 305.509C327.745 300.082 327.712 299.95 333.107 305.279C338.008 310.081 342.876 314.949 347.744 319.818C348.402 320.443 349.224 321.035 349.421 322.252Z" fill="white"/>
<path d="M307.418 304.523C309.622 304.82 308.767 306.826 308.536 308.076C307.056 315.74 305.444 323.371 303.866 331.002C303.701 331.825 303.569 332.647 303.438 333.469C301.793 342.087 301.793 342.054 293.307 339.489C291.695 338.995 291.136 338.206 291.662 336.66C293.8 325.97 295.938 315.279 298.109 304.589C298.175 304.26 298.274 303.701 298.504 303.602C301.596 302.32 304.458 304.162 307.418 304.523Z" fill="white"/>
<path d="M279.393 306.463C280.906 307.45 280.117 308.437 279.13 309.358C275.446 312.845 271.861 316.397 268.078 319.785C266.302 321.397 266.269 322.482 268.045 324.094C271.729 327.383 275.183 330.936 278.834 334.258C280.314 335.607 280.545 336.593 278.933 338.008C277.486 339.258 276.236 340.771 274.854 342.119C274.361 342.613 273.802 343.04 273.144 343.6C272.585 343.172 272.058 342.843 271.664 342.448C265.052 336.1 258.474 329.719 251.829 323.403C250.744 322.384 250.514 321.561 251.698 320.443C258.408 314.029 265.085 307.582 271.762 301.135C271.96 300.97 272.124 300.641 272.289 300.674C276.17 300.806 276.861 304.786 279.393 306.463Z" fill="white"/>
<path d="M279.031 198.082C280.413 199.365 280.38 200.121 279.097 201.536C273.373 207.818 273.406 207.851 267.255 201.898C262.223 197.062 257.19 192.161 252.125 187.359C250.908 186.208 250.316 185.451 251.862 183.938C258.243 177.721 264.525 171.406 270.841 165.123C271.334 164.63 271.926 164.235 272.288 163.906C274.13 163.939 274.788 165.288 275.676 166.176C280.741 171.241 280.741 171.274 275.676 176.175C273.176 178.609 270.709 181.142 268.078 183.412C266.334 184.958 266.104 185.945 268.012 187.622C271.795 190.944 275.314 194.628 279.031 198.082Z" fill="white"/>
<path d="M306.989 168.051C308.503 168.051 309.292 168.775 308.963 169.531C306.562 181.241 304.358 192.096 302.187 202.983C301.924 204.266 301.299 204.529 300.181 204.332C297.681 203.839 295.214 203.279 292.747 202.885C291.398 202.655 291.3 201.997 291.497 200.845C293.701 189.991 295.872 179.136 298.043 168.281C298.075 168.051 298.108 167.722 298.273 167.624C301.299 165.354 304.095 168.051 306.989 168.051Z" fill="white"/>
<path d="M348.403 183.872C349.587 185.024 349.817 185.747 348.501 187.03C342.12 193.28 335.837 199.595 329.588 205.943C328.404 207.128 327.746 207.226 326.43 206.009C320.016 200.056 319.95 200.089 326.167 193.872C328.206 191.832 330.147 189.661 332.351 187.754C334.259 186.109 334.39 184.826 332.384 183.247C331.364 182.425 330.575 181.34 329.654 180.386C326.792 177.952 324.16 175.32 321.759 172.458C319.325 170.649 321.759 169.564 322.647 169.005C324.851 167.623 325.279 163.676 328.963 164.498C329.226 164.564 329.423 165.025 329.621 165.321C332.252 167.459 334.62 169.86 336.791 172.491C340.64 176.307 344.488 180.155 348.403 183.872Z" fill="white"/>
<path d="M349.355 48.7137C349.29 49.8649 348.566 50.3583 348.007 50.9504C341.987 57.0027 335.869 62.9892 329.916 69.1073C328.304 70.752 327.35 70.4888 325.837 69.0086C320.18 63.5155 320.114 63.5813 325.64 58.0553C328.008 55.6541 330.343 53.22 332.81 50.9175C334.323 49.5031 334.225 48.4834 332.777 47.1019C329.39 43.8784 326.199 40.3917 322.778 37.2011C320.903 35.4578 320.541 34.3065 322.581 32.3001C328.008 26.9714 327.876 26.9056 333.271 32.3658C338.007 37.1682 342.81 41.8719 347.612 46.6414C348.237 47.3322 348.829 48.0887 349.355 48.7137Z" fill="white"/>
<path d="M301.596 30.4587C310.312 32.531 309.293 30.5903 307.648 39.4056C306.168 47.3328 304.392 55.1943 302.747 63.0557C302.484 68.2857 302.155 68.6475 298.471 67.3647C291.07 66.7397 291.103 66.7726 292.517 59.7664C294.327 50.9182 296.136 42.1029 297.747 33.2218C298.175 30.7219 298.833 29.768 301.596 30.4587Z" fill="white"/>
<path d="M278.834 61.3462C280.282 62.6948 280.446 63.5171 278.966 65.096C273.177 71.247 273.275 71.3127 267.19 65.4249C262.158 60.5567 257.125 55.7215 252.092 50.8533C251.106 49.8994 250.119 49.0771 251.665 47.6298C258.276 41.4459 264.789 35.1962 271.335 28.9795C271.861 28.4861 272.42 28.0585 272.947 27.6309C274.657 28.2558 275.479 29.6373 276.565 30.7228C280.676 34.9002 280.676 34.9331 276.499 38.946C273.637 41.7091 270.776 44.4721 267.815 47.1364C266.302 48.485 266.269 49.5376 267.782 50.9191C271.532 54.34 275.085 57.9253 278.834 61.3462Z" fill="white"/>
<path d="M300.312 147.36C319.028 147.393 337.744 147.426 356.427 147.328C359.124 147.295 360.144 147.821 360.111 150.847C359.979 174.004 359.979 197.193 360.111 220.383C360.111 223.146 359.289 223.771 356.657 223.771C319.127 223.705 281.563 223.705 244.032 223.771C241.335 223.771 240.283 223.31 240.283 220.251C240.414 197.062 240.414 173.905 240.283 150.716C240.283 147.92 241.138 147.295 243.769 147.328C262.65 147.393 281.464 147.36 300.312 147.36ZM348.5 187.062C349.816 185.779 349.585 185.023 348.401 183.905C344.487 180.155 340.639 176.339 336.79 172.524C334.619 169.892 332.251 167.491 329.619 165.353C329.389 165.057 329.225 164.596 328.962 164.531C325.278 163.708 324.85 167.623 322.646 169.037C321.725 169.596 319.324 170.682 321.758 172.491C324.159 175.352 326.824 177.984 329.652 180.418C330.54 181.405 331.33 182.49 332.382 183.28C334.422 184.858 334.29 186.141 332.35 187.786C330.179 189.661 328.238 191.832 326.166 193.904C319.949 200.121 319.982 200.088 326.429 206.042C327.745 207.259 328.402 207.193 329.587 205.976C335.836 199.627 342.152 193.312 348.5 187.062ZM308.963 169.53C309.259 168.774 308.502 168.05 306.989 168.05C304.062 168.05 301.299 165.32 298.273 167.59C298.108 167.721 298.075 168.017 298.042 168.248C295.871 179.102 293.668 189.957 291.497 200.812C291.267 201.93 291.398 202.621 292.747 202.851C295.247 203.246 297.713 203.805 300.18 204.298C301.299 204.496 301.924 204.232 302.187 202.95C304.358 192.095 306.595 181.273 308.963 169.53ZM279.096 201.502C280.379 200.121 280.412 199.331 279.03 198.049C275.314 194.628 271.794 190.944 268.011 187.556C266.136 185.878 266.334 184.858 268.077 183.345C270.709 181.043 273.143 178.543 275.675 176.109C280.741 171.208 280.741 171.208 275.675 166.109C274.787 165.221 274.129 163.873 272.287 163.84C271.893 164.169 271.333 164.564 270.84 165.057C264.525 171.339 258.242 177.688 251.861 183.872C250.315 185.385 250.907 186.141 252.124 187.293C257.19 192.095 262.189 196.996 267.255 201.831C273.439 207.818 273.373 207.785 279.096 201.502Z" fill="#F34336"/>
<path d="M356.526 283.867C359.355 283.867 360.111 284.591 360.111 287.453C359.98 310.51 359.98 333.536 360.111 356.594C360.111 359.488 359.322 360.146 356.526 360.146C337.711 360.014 318.864 360.08 300.049 360.08C281.366 360.08 262.65 360.014 243.934 360.146C241.138 360.179 240.316 359.488 240.316 356.594C240.447 333.536 240.447 310.51 240.316 287.453C240.283 284.558 241.138 283.9 243.934 283.9C281.497 283.966 318.995 283.966 356.526 283.867ZM347.875 324.062C348.467 323.47 348.96 322.78 349.421 322.253C349.257 321.036 348.401 320.477 347.743 319.786C342.875 314.918 338.04 310.05 333.106 305.248C327.679 299.952 327.745 300.051 322.383 305.478C320.64 307.254 320.87 308.274 322.515 309.853C326.001 313.175 329.258 316.727 332.744 320.082C334.257 321.53 334.192 322.549 332.711 323.898C330.31 326.102 328.074 328.47 325.804 330.773C320.048 336.529 320.113 336.463 325.903 342.022C327.514 343.568 328.468 343.535 330.014 341.956C335.869 335.97 341.889 330.049 347.875 324.062ZM308.535 308.044C308.765 306.794 309.621 304.787 307.417 304.491C304.457 304.129 301.595 302.32 298.503 303.603C298.273 303.702 298.174 304.228 298.108 304.59C295.97 315.28 293.832 325.97 291.661 336.66C291.135 338.174 291.694 338.996 293.306 339.489C301.792 342.022 301.792 342.055 303.437 333.47C303.601 332.647 303.7 331.825 303.864 331.003C305.443 323.339 307.055 315.708 308.535 308.044ZM279.129 309.392C280.116 308.471 280.905 307.484 279.392 306.498C276.859 304.787 276.169 300.84 272.353 300.708C272.189 300.708 271.991 301.004 271.827 301.169C265.15 307.616 258.472 314.063 251.762 320.477C250.578 321.595 250.808 322.418 251.894 323.437C258.505 329.786 265.117 336.134 271.728 342.482C272.123 342.877 272.649 343.206 273.208 343.634C273.866 343.075 274.425 342.647 274.919 342.154C276.267 340.772 277.517 339.292 278.998 338.042C280.609 336.66 280.379 335.641 278.899 334.292C275.248 330.97 271.761 327.418 268.11 324.128C266.334 322.516 266.367 321.398 268.143 319.819C271.86 316.431 275.445 312.846 279.129 309.392Z" fill="#9CCC65"/>
<path d="M300.214 87.0682C281.63 87.0682 263.012 87.0024 244.428 87.134C241.468 87.1669 240.316 86.7393 240.316 83.2855C240.514 60.3591 240.481 37.4327 240.349 14.4734C240.349 11.6117 241.139 10.8881 243.935 10.921C281.465 11.0197 319.029 11.0197 356.559 10.921C359.553 10.921 360.046 11.8749 360.046 14.5721C359.947 37.6301 359.947 60.6881 360.046 83.746C360.079 86.4762 359.355 87.134 356.658 87.134C337.843 87.0024 319.029 87.0682 300.214 87.0682ZM348.007 50.9517C348.599 50.3597 349.323 49.8663 349.356 48.715C348.797 48.1229 348.238 47.3664 347.547 46.6757C342.777 41.9062 337.942 37.2025 333.206 32.4001C327.811 26.907 327.943 27.0056 322.515 32.3343C320.476 34.3408 320.838 35.492 322.713 37.2354C326.167 40.426 329.324 43.8797 332.712 47.1362C334.159 48.5177 334.258 49.5373 332.745 50.9517C330.278 53.2542 327.943 55.6883 325.574 58.0895C320.048 63.6155 320.114 63.5498 325.772 69.0429C327.285 70.4902 328.272 70.7862 329.851 69.1416C335.87 62.9906 341.988 57.004 348.007 50.9517ZM307.648 39.4063C309.293 30.591 310.312 32.5317 301.596 30.4594C298.833 29.8016 298.175 30.7554 297.714 33.2553C296.103 42.1364 294.293 50.9517 292.484 59.8C291.07 66.7733 291.037 66.7733 298.438 67.3982C302.122 68.6482 302.451 68.3192 302.714 63.0893C304.392 55.162 306.168 47.3335 307.648 39.4063ZM278.965 65.0957C280.413 63.5498 280.281 62.6945 278.834 61.3459C275.084 57.9251 271.532 54.3397 267.782 50.9188C266.236 49.5373 266.302 48.4848 267.815 47.1362C270.775 44.4718 273.637 41.7088 276.498 38.9458C280.676 34.9329 280.676 34.8671 276.564 30.7226C275.479 29.6042 274.624 28.2227 272.946 27.5977C272.42 28.0582 271.861 28.4529 271.334 28.9463C264.789 35.1631 258.243 41.4457 251.664 47.5967C250.151 49.0439 251.105 49.8334 252.092 50.8202C257.125 55.6883 262.157 60.5236 267.19 65.3918C273.275 71.3125 273.209 71.2467 278.965 65.0957Z" fill="#C45E9A"/>
<path d="M240.35 356.56C240.317 359.454 241.172 360.145 243.968 360.112C262.651 359.981 281.367 360.047 300.083 360.047C318.898 360.047 337.745 359.981 356.56 360.112C359.356 360.145 360.145 359.454 360.145 356.56C360.014 333.502 360.014 310.477 360.145 287.419C360.178 284.557 359.422 283.833 356.56 283.833C319.029 283.932 281.532 283.932 244.001 283.833C241.205 283.833 240.35 284.491 240.383 287.386C240.449 310.477 240.449 333.535 240.35 356.56ZM167.459 246.862C171.538 246.895 175.617 246.763 179.696 246.697C181.143 246.697 182.557 246.697 183.972 246.697C188.84 247.059 193.708 247.026 198.543 246.73C202.392 246.796 206.273 247.059 210.089 246.796C213.411 246.566 214.233 247.585 214.233 250.908C214.069 271.4 214.266 291.892 214.036 312.385C214.003 316.003 215.055 316.957 218.443 316.562C220.943 316.266 223.509 316.332 226.042 316.562C228.706 316.825 229.528 316.036 229.495 313.24C229.331 302.155 229.429 291.07 229.397 279.952C229.429 272.979 229.397 273.012 236.238 273.012C253.606 272.979 270.973 272.946 288.308 272.88C293.077 272.88 297.814 272.913 302.583 272.913C319.325 272.913 336.035 272.88 352.777 272.88C355.705 273.176 358.632 273.176 361.56 272.88C364.685 272.979 367.809 273.077 370.934 273.143C370.934 304.885 370.901 336.66 371 368.401C371 370.572 370.572 371 368.401 371C322.154 370.934 275.907 370.934 229.693 370.934C229.561 362.744 229.43 354.553 229.298 346.363C229.627 341.265 229.66 336.133 229.265 331.035C230.022 328.272 229.232 327.219 226.14 327.351C219.66 327.581 213.148 327.285 206.668 327.482C204.069 327.548 203.115 327.022 203.214 324.193C203.411 318.568 203.148 312.911 203.082 307.253C203.477 302.385 203.51 297.517 203.049 292.649C203.115 281.728 203.181 270.808 203.28 259.887C203.28 258.374 202.852 257.716 201.24 257.749C194.037 257.881 186.833 257.914 179.63 257.98C177.459 257.914 175.321 257.815 173.15 257.815C164.499 257.749 164.565 257.782 165.058 249.066C165.223 247.289 165.815 246.862 167.459 246.862Z" fill="#030202"/>
<path d="M229.823 136.375V136.408H229.79L229.823 136.375Z" fill="#030202"/>
<path d="M174.366 138.315C174.695 136.309 175.781 136.276 179.662 136.111C179.892 136.111 180.155 136.111 180.386 136.111C185.089 136.342 185.089 136.342 185.089 141.276C185.155 153.61 185.221 165.945 185.287 178.313C185.78 182.622 183.708 184.135 179.629 183.444C174.268 183.214 174.268 183.214 174.268 177.787C174.268 165.781 174.268 153.742 174.268 141.736C174.268 140.552 174.268 139.598 174.333 138.874C174.333 138.677 174.366 138.48 174.366 138.315Z" fill="#030202"/>
<path d="M174.202 225.417C174.202 219.792 174.202 219.792 179.728 219.463C185.155 219.759 185.155 219.759 185.155 225.417C185.155 226.37 185.155 227.324 185.155 228.311C185.155 233.936 185.155 233.936 179.728 234.265C174.202 233.936 174.202 233.936 174.202 228.311C174.202 227.324 174.202 226.37 174.202 225.417Z" fill="#030202"/>
<path d="M180.418 136.112C180.188 136.112 179.925 136.112 179.695 136.112C179.695 135.914 179.727 135.717 179.826 135.52C180.024 135.684 180.221 135.914 180.418 136.112Z" fill="#DFDFDF"/>
<path d="M179.728 123.644C178.117 123.611 176.472 123.611 174.86 123.578C176.472 123.611 178.117 123.611 179.728 123.644Z" fill="#1BB8DA"/>
<path d="M91.3781 349.127C102.858 349.488 112.035 341.134 112.462 329.95C112.857 319.03 104.404 309.787 93.5819 309.359C82.3326 308.899 73.0568 317.451 72.6292 328.733C72.2674 338.502 81.0826 349.521 91.3781 349.127ZM12.7972 298.439C14.2445 298.537 15.6918 298.439 17.1391 298.439C68.1887 298.439 119.238 298.471 170.288 298.34C173.742 298.34 174.334 299.425 174.301 302.55C174.136 315.346 174.235 328.108 174.235 340.903C174.235 345.048 173.84 349.094 171.439 352.646C168.808 351.923 168.742 353.337 169.268 355.245L169.104 355.409C167.92 354.916 167.492 355.475 167.525 356.593C164.795 358.929 161.505 359.751 158.019 359.916C151.671 360.212 145.388 360.212 139.04 360.014C138.086 359.981 137.132 359.948 136.211 359.916C119.107 359.916 101.97 359.948 84.8653 359.948C65.2941 359.981 45.69 360.244 26.1188 359.981C17.8956 359.883 11.5802 352.942 11.1855 344.818C11.1197 329.983 11.0539 315.148 10.9552 300.313C10.9223 298.899 11.3828 298.34 12.7972 298.439Z" fill="#E0E0E0"/>
<path d="M155.518 11.019C163.117 11.0519 170.057 13.2558 172.985 21.2488C175.452 28.0905 173.873 35.3598 174.169 42.4318C174.234 43.7476 173.182 43.5502 172.36 43.5502C170.55 43.5831 168.741 43.5502 166.932 43.5502C142.098 43.5502 117.231 43.5502 92.3643 43.5502C66.3133 43.5502 40.2622 43.5173 14.1782 43.616C11.481 43.616 10.6587 42.991 10.856 40.2609C11.1192 36.1822 10.8889 32.0705 10.9218 27.9589C11.0534 17.9923 17.8293 10.9861 27.73 10.9532C70.3591 10.9204 112.922 10.8875 155.518 11.019ZM136.21 27.3668C136.21 21.0843 136.934 21.8737 130.652 21.8079C125.356 21.8079 125.323 21.8079 125.356 26.5774C125.422 33.2876 124.533 32.6626 130.388 32.6626C136.901 32.6626 136.21 33.4521 136.21 27.3668ZM109.041 32.6626C114.501 32.6626 114.534 32.6626 114.501 28.0576C114.435 21.2488 115.389 21.775 109.633 21.8079C103.054 21.8408 103.647 20.9527 103.647 26.9392C103.647 33.3534 102.89 32.5968 109.041 32.6626ZM92.792 24.7025C92.8248 22.5316 92.0683 21.775 89.8645 21.8079C83.6149 21.9395 77.3323 21.8408 71.0827 21.8408C71.0827 21.8079 71.0827 21.8079 71.0827 21.8079C66.2804 21.8079 61.4451 21.8079 56.6428 21.8079C49.209 21.8079 49.3077 21.8079 49.2419 29.2746C49.209 31.9719 50.0313 32.7613 52.7285 32.7284C63.5503 32.5968 74.4049 32.7284 85.2266 32.6297C94.009 32.5311 92.6275 34.5046 92.792 24.7025Z" fill="#E0E0E0"/>
<path d="M172.393 43.5832C173.215 43.5503 174.235 43.7477 174.202 42.4648C173.906 35.3929 175.485 28.1235 173.018 21.2818C170.09 13.2888 163.15 11.052 155.552 11.052C112.923 10.8876 70.3593 10.9205 27.7632 11.0192C17.8625 11.0192 11.1194 18.0254 10.955 27.9919C10.8892 32.1036 11.1523 36.2152 10.8892 40.2939C10.7247 43.024 11.5141 43.649 14.2114 43.649C40.2624 43.5174 66.3135 43.5832 92.3975 43.5832C117.264 43.5832 142.098 43.5832 166.965 43.5832C168.775 43.5832 170.584 43.6161 172.393 43.5832ZM11.1852 344.784C11.547 352.909 17.8625 359.849 26.1185 359.948C45.6897 360.211 65.2938 359.981 84.865 359.915C101.969 359.915 119.106 359.915 136.211 359.915C137.165 359.948 138.118 359.981 139.039 360.014C145.388 360.211 151.67 360.211 158.019 359.915C161.505 359.751 164.794 358.928 167.525 356.593C168.281 356.527 168.742 356.034 169.103 355.409L169.268 355.244C170.32 354.652 170.945 353.698 171.439 352.646C173.84 349.093 174.235 345.047 174.235 340.903C174.235 328.108 174.136 315.312 174.301 302.55C174.333 299.425 173.741 298.339 170.288 298.339C119.238 298.471 68.1884 298.438 17.1388 298.438C15.6915 298.438 14.2442 298.537 12.797 298.438C11.3826 298.372 10.9221 298.899 10.9221 300.313C11.0536 315.115 11.0865 329.982 11.1852 344.784ZM11.0208 57.5298C11.2181 60.4244 10.955 63.319 10.955 66.2136C10.955 138.776 10.955 211.305 10.8892 283.866C10.8892 286.893 11.6786 287.616 14.6719 287.583C56.4457 287.485 98.2195 287.518 139.96 287.518C150.355 287.518 160.716 287.485 171.11 287.551C173.38 287.583 174.432 287.09 174.235 284.557C174.004 281.794 174.202 278.998 174.202 276.235C174.202 270.512 174.202 270.512 179.728 270.15C185.155 270.512 185.155 270.512 185.155 276.17C185.188 286.991 185.287 297.813 185.352 308.635C184.958 313.47 184.925 318.305 185.385 323.108C185.32 329.357 185.188 335.607 185.188 341.857C185.188 351.593 181.734 359.619 173.873 365.638C170.419 368.303 166.209 369.191 162.36 370.868C115.521 370.868 68.6818 370.868 21.8425 370.868C21.7438 370.309 21.2833 370.178 20.8228 370.046C7.50123 366.494 -0.129897 354.817 0.00167378 339.949C0.363494 301.694 0.133245 263.44 0.133245 225.185C0.133245 159.761 0.100352 94.37 0.133245 28.9787C0.133245 11.7428 11.7115 0.032893 28.8486 0.032893C71.3461 0 113.811 0.032893 156.275 0C160.913 0 165.419 0.624967 169.597 2.76301C180.517 8.32193 185.221 17.532 185.188 29.5379C185.155 51.017 185.188 72.4961 185.188 93.9753C185.188 99.6657 185.188 99.6657 179.761 100.028C174.268 99.7315 174.268 99.7315 174.268 94.3042C174.202 82.2325 174.037 70.1607 174.169 58.089C174.202 55.1615 173.314 54.5695 170.551 54.5695C135.191 54.6681 99.8313 54.6353 64.4386 54.6353C47.6633 54.6353 30.888 54.6681 14.1127 54.5695C11.8102 54.5695 10.8563 55.0629 11.0208 57.5298Z" fill="#030202"/>
<path d="M171.406 352.68C170.912 353.732 170.287 354.686 169.235 355.278C168.708 353.337 168.807 351.956 171.406 352.68Z" fill="#8CA0A9"/>
<path d="M169.07 355.409C168.741 356.034 168.281 356.527 167.491 356.593C167.491 355.475 167.886 354.916 169.07 355.409Z" fill="#8CA0A9"/>
<path d="M21.7761 269.327C21.7432 271.761 22.5326 272.353 24.8351 272.32C27.2034 272.287 29.5388 272.287 31.9071 272.254C39.4395 272.222 47.0049 272.254 54.5373 272.254C57.1359 272.254 59.7673 272.254 62.3658 272.222C65.1946 272.222 68.0563 272.222 70.885 272.222C75.2269 272.222 79.5358 272.254 83.8448 272.287C86.2789 272.32 87.1999 271.794 87.167 269.163C87.0354 257.946 87.0354 246.697 87.167 235.48C87.1999 232.882 86.3446 232.322 83.8777 232.322C64.2078 232.421 44.5379 232.388 24.868 232.322C22.6313 232.322 21.7432 232.75 21.7432 235.25C21.9077 246.631 21.8748 257.979 21.7761 269.327ZM25.1641 170.648C70.0627 170.549 114.961 170.549 159.86 170.648C162.886 170.648 163.38 169.595 163.347 166.931C163.215 153.544 163.38 140.123 163.215 126.736C163.182 123.973 164.005 123.183 166.702 123.348C169.399 123.512 172.129 123.578 174.826 123.578C176.438 123.611 178.083 123.611 179.694 123.644C179.727 127.591 179.76 131.538 179.793 135.485C179.727 135.683 179.661 135.88 179.661 136.077C175.78 136.209 174.662 136.275 174.366 138.281C174.333 138.446 174.333 138.643 174.3 138.841C174.267 139.597 174.267 140.518 174.267 141.735C174.267 153.741 174.267 165.78 174.267 177.786C174.267 183.213 174.267 183.213 179.694 183.443C179.694 187.555 179.694 191.7 179.694 195.844C174.991 195.91 170.287 195.976 165.616 196.107C163.906 196.173 163.215 195.548 163.281 193.805C163.38 190.779 163.149 187.752 163.347 184.759C163.511 182.193 162.623 181.47 160.09 181.503C147.788 181.601 135.486 181.536 123.152 181.536C90.6865 181.536 58.2213 181.601 25.7561 181.503C22.73 181.503 21.6117 181.996 21.6774 185.384C21.9077 196.37 21.8419 207.357 21.7103 218.31C21.6774 220.876 22.4998 221.501 24.9667 221.501C69.8654 221.435 114.764 221.402 159.663 221.468C162.426 221.468 163.412 220.81 163.38 217.882C163.314 214.33 161.768 209.725 164.136 207.488C166.307 205.449 170.813 206.995 174.3 206.896C176.076 206.83 177.885 207.028 179.694 207.126C179.694 211.205 179.694 215.317 179.694 219.395C174.168 219.691 174.168 219.691 174.168 225.349C174.168 226.303 174.168 227.257 174.168 228.244C174.168 233.868 174.168 233.868 179.694 234.197C179.694 238.375 179.694 242.519 179.694 246.697C175.616 246.762 171.537 246.894 167.458 246.861C165.814 246.828 165.222 247.289 165.123 249.065C164.629 257.782 164.564 257.749 173.214 257.814C175.385 257.814 177.523 257.913 179.694 257.979C179.694 262.058 179.694 266.103 179.694 270.182C174.168 270.544 174.168 270.544 174.168 276.267C174.168 279.03 174.004 281.826 174.201 284.589C174.399 287.122 173.313 287.583 171.076 287.583C160.682 287.484 150.321 287.55 139.927 287.55C98.1532 287.55 56.4122 287.517 14.6384 287.616C11.6451 287.616 10.8557 286.925 10.8557 283.899C10.9215 211.337 10.9215 138.808 10.9215 66.2457C10.9215 63.3511 11.1846 60.4565 10.9873 57.5619C10.8228 55.0621 11.8096 54.6016 14.0792 54.6016C30.8545 54.7002 47.6298 54.6673 64.4052 54.6673C99.7649 54.6673 135.125 54.7002 170.517 54.6016C173.28 54.6016 174.168 55.1936 174.135 58.1211C174.037 70.1599 174.201 82.2317 174.267 94.3034C174.3 99.7636 174.267 99.7636 179.694 100.093C179.694 104.171 179.694 108.25 179.694 112.329C175.353 112.395 171.011 112.296 166.669 112.559C163.939 112.723 163.182 111.868 163.215 109.138C163.347 95.7507 163.215 82.3303 163.347 68.9429C163.38 66.2128 162.755 65.2589 159.794 65.2589C114.896 65.3576 69.9969 65.3576 25.0983 65.2589C22.3024 65.2589 21.7432 66.0812 21.7432 68.7127C21.8419 101.54 21.8419 134.4 21.7432 167.227C21.7432 169.924 22.4011 170.648 25.1641 170.648ZM145.782 246.927C153.775 246.927 153.676 246.927 153.676 239C153.676 236.598 152.92 235.941 150.584 235.974C142.394 236.105 134.204 236.006 126.013 236.006C119.402 236.006 112.758 236.006 106.146 236.006C98.3505 236.006 98.4492 236.006 98.4163 243.736C98.4163 246.302 99.2386 246.96 101.706 246.927C116.376 246.861 131.079 246.927 145.782 246.927ZM139.105 263.143C139.006 257.124 139.927 257.847 134.467 257.814C128.217 257.749 128.217 257.814 128.217 262.617C128.217 268.702 128.217 268.702 133.217 268.702C139.105 268.669 139.105 268.669 139.105 263.143ZM115.29 268.702C118.251 268.768 117.593 266.4 117.231 265.15C116.573 262.716 119.566 258.703 115.29 258.045C110.455 257.288 105.455 257.814 100.521 257.847C99.732 257.847 98.6136 257.65 98.5808 258.867C98.515 261.86 97.9229 265.117 98.8768 267.781C99.6333 269.853 102.758 268.307 104.797 268.636C105.751 268.768 106.705 268.669 107.692 268.669V268.702C110.225 268.669 112.758 268.636 115.29 268.702Z" fill="#1BB8DA"/>
<path d="M240.317 83.285C240.284 86.7388 241.468 87.1335 244.428 87.1335C263.013 87.0019 281.63 87.0677 300.214 87.0677C319.029 87.0677 337.877 87.0019 356.691 87.1335C359.388 87.1664 360.079 86.4757 360.079 83.7455C359.948 60.6876 359.981 37.6296 360.079 14.5716C360.079 11.8744 359.586 10.9205 356.593 10.9205C319.062 11.0191 281.498 11.0191 243.968 10.9205C241.139 10.9205 240.349 11.6112 240.382 14.4729C240.481 37.4322 240.514 60.3586 240.317 83.285ZM159.828 65.2597C162.788 65.2597 163.413 66.1807 163.38 68.9437C163.249 82.3311 163.413 95.7515 163.249 109.139C163.216 111.869 163.972 112.724 166.703 112.56C171.044 112.297 175.386 112.395 179.728 112.33C182.392 112.33 185.024 112.362 187.688 112.362C192.194 112.428 196.734 112.461 201.273 112.593C202.72 112.626 203.51 112.33 203.444 110.652C203.279 106.146 203.214 101.606 203.115 97.1001C203.181 95.6528 203.312 94.2384 203.312 92.7911C203.345 77.463 203.411 62.1677 203.246 46.8396C203.214 44.0437 204.036 43.4516 206.667 43.5503C213.279 43.7477 219.923 43.4845 226.567 43.6819C229.034 43.7477 229.528 42.9253 229.528 40.6228C229.429 28.3209 229.594 16.0189 229.396 3.71691C229.33 0.65786 230.12 0 233.113 0C279.064 0.098679 324.983 0.065786 370.934 0.065786C370.934 32.6627 370.934 65.2597 370.934 97.8566C362.25 97.9553 353.566 98.054 344.883 98.1198C340.015 98.1198 335.179 98.0869 330.311 98.0869C313.437 98.0869 296.563 98.1198 279.689 98.1198C274.821 98.1198 269.986 98.0869 265.118 98.0869C254.263 98.054 243.441 97.9224 232.587 98.0211C230.12 98.054 229.33 97.5277 229.363 94.8963C229.495 82.364 229.396 69.8318 229.462 57.2996C229.462 55.1615 229.067 54.2405 226.699 54.405C223.706 54.6353 220.647 54.6353 217.654 54.405C214.825 54.1748 214.068 55.0629 214.068 57.9245C214.2 78.5485 214.068 99.1395 214.2 119.763C214.233 122.888 213.279 123.48 210.351 123.48C200.122 123.382 189.892 123.579 179.629 123.645C178.018 123.612 176.373 123.612 174.761 123.579C172.064 123.546 169.334 123.513 166.637 123.349C163.94 123.184 163.15 123.974 163.15 126.737C163.282 140.124 163.15 153.544 163.282 166.932C163.315 169.596 162.788 170.682 159.795 170.649C114.896 170.55 69.9978 170.55 25.0991 170.649C22.369 170.649 21.7112 169.892 21.7112 167.228C21.8099 134.401 21.8099 101.541 21.7112 68.7134C21.7112 66.082 22.2704 65.2597 25.0662 65.2597C69.9978 65.3584 114.896 65.3584 159.828 65.2597ZM90.786 110.093C92.7596 111.54 93.8122 110.455 95.1608 109.501C109.436 99.1724 123.712 88.8768 137.987 78.5484C138.711 78.0222 139.73 77.7261 140.125 76.4104C108.318 76.4104 76.7737 76.4104 45.1966 76.4104C45.1308 77.2656 45.5913 77.3643 45.9861 77.6274C60.9194 88.4163 75.8856 99.1724 90.786 110.093ZM152.098 154.235C152.098 129.73 152.098 105.948 152.098 81.7391C135.191 93.9424 118.712 105.85 101.904 118.02C118.745 130.158 135.257 142.098 152.098 154.235ZM140.191 159.498C139.5 158.774 139.303 158.478 139.04 158.281C124.205 147.558 109.305 136.868 94.5358 126.046C92.628 124.632 91.6083 125.487 90.194 126.474C76.6092 136.309 63.0245 146.111 49.4398 155.913C48.0254 156.932 46.6439 157.985 44.6375 159.498C76.8066 159.498 108.219 159.498 140.191 159.498ZM32.8289 154.465C49.8674 142.163 66.4125 130.19 83.2865 118.02C66.3138 105.751 49.8016 93.8108 32.8289 81.5746C32.8289 106.113 32.8289 129.927 32.8289 154.465Z" fill="#030202"/>
<path d="M152.098 81.7383C152.098 105.948 152.098 129.696 152.098 154.234C135.257 142.097 118.744 130.157 101.903 118.019C118.712 105.849 135.191 93.9416 152.098 81.7383Z" fill="#FACA15"/>
<path d="M150.157 210.581C150.026 210.581 149.927 210.581 149.795 210.581C111.673 210.581 73.5827 210.548 35.46 210.614C33.1575 210.614 32.5983 209.857 32.697 207.686C32.8615 203.706 32.9272 199.726 32.6641 195.746C32.4996 193.016 33.322 192.325 36.0521 192.325C54.9983 192.457 73.9116 192.391 92.8579 192.391C111.541 192.391 130.257 192.457 148.94 192.325C151.835 192.292 152.657 193.147 152.525 195.976C152.295 200.055 152.394 204.167 152.493 208.278C152.46 209.989 151.868 210.778 150.157 210.581Z" fill="#FACA15"/>
<path d="M240.317 220.218C240.284 223.244 241.369 223.738 244.067 223.738C281.597 223.672 319.161 223.672 356.691 223.738C359.356 223.738 360.145 223.146 360.145 220.35C360.014 197.16 360.014 174.004 360.145 150.814C360.178 147.821 359.158 147.295 356.461 147.295C337.745 147.393 319.062 147.36 300.346 147.36V147.327C281.531 147.327 262.684 147.393 243.869 147.262C241.238 147.229 240.383 147.854 240.383 150.65C240.448 173.839 240.448 197.029 240.317 220.218ZM160.091 181.503C162.624 181.47 163.512 182.227 163.348 184.76C163.15 187.753 163.381 190.779 163.282 193.805C163.216 195.549 163.907 196.141 165.617 196.108C170.321 195.976 174.992 195.91 179.695 195.845C181.143 196.272 182.623 196.305 184.07 195.877C189.728 195.943 195.352 195.943 201.01 196.108C203.115 196.174 203.345 195.187 203.312 193.476C203.247 189.99 203.444 186.503 203.247 183.016C203.082 180.484 204.069 179.99 206.339 180.056C213.213 180.188 220.055 180.056 226.929 180.122C228.706 180.155 229.528 179.76 229.495 177.721C229.364 168.478 229.364 159.202 229.298 149.926C229.462 145.42 229.66 140.913 229.824 136.407C234.363 136.374 238.902 136.341 243.442 136.341C260.612 136.341 277.749 136.308 294.886 136.308C299.458 136.67 304.063 136.637 308.635 136.341C317.056 136.407 325.443 136.506 333.831 136.473C346.199 136.44 358.566 136.341 370.934 136.275C370.934 169.103 370.934 201.963 370.934 234.79C360.079 234.428 349.192 234.494 338.337 234.757C333.765 234.395 329.16 234.428 324.588 234.724C323.272 234.658 321.924 234.593 320.608 234.593C291.564 234.593 262.487 234.527 233.442 234.658C229.988 234.691 229.232 233.639 229.363 230.448C229.594 225.646 229.331 220.81 229.298 216.008C229.594 211.14 229.692 206.272 229.265 201.404C229.331 198.64 229.331 195.877 229.495 193.147C229.594 191.305 228.706 190.911 227.094 190.944C223.607 191.009 220.121 191.075 216.634 190.944C214.759 190.878 214.068 191.437 214.167 193.378C214.299 196.733 214.003 200.121 214.266 203.476C214.496 206.337 213.575 207.127 210.68 207.061C200.352 206.93 190.024 207.127 179.695 207.193C177.886 207.127 176.11 206.897 174.301 206.962C170.814 207.061 166.308 205.515 164.137 207.554C161.769 209.791 163.315 214.396 163.381 217.949C163.413 220.876 162.46 221.534 159.664 221.534C114.765 221.468 69.8664 221.468 24.9678 221.567C22.4679 221.567 21.6785 220.942 21.7114 218.376C21.843 207.39 21.9416 196.404 21.6785 185.45C21.6127 182.062 22.7311 181.569 25.7572 181.569C58.2224 181.668 90.6876 181.602 123.153 181.602C135.488 181.536 147.789 181.602 160.091 181.503ZM32.6318 195.779C32.8949 199.759 32.8292 203.739 32.6647 207.719C32.566 209.89 33.1252 210.646 35.4277 210.646C73.5504 210.581 111.64 210.614 149.763 210.614C149.895 210.614 149.993 210.614 150.125 210.614C151.868 210.811 152.427 210.021 152.427 208.311C152.362 204.232 152.23 200.088 152.46 196.009C152.625 193.18 151.769 192.358 148.875 192.358C130.192 192.49 111.476 192.424 92.7927 192.424C73.8465 192.424 54.9331 192.49 35.9869 192.358C33.2897 192.325 32.4673 193.016 32.6318 195.779Z" fill="#030202"/>
<path d="M139.039 360.014C138.085 359.981 137.131 359.949 136.21 359.916C119.106 359.916 101.969 359.916 84.8645 359.916C101.969 359.916 119.106 359.916 136.21 359.883C137.131 359.949 138.085 359.981 139.039 360.014Z" fill="#8CA0A9"/>
<path d="M92.4298 338.338C87.7919 338.272 83.4829 333.897 83.4829 329.227C83.5158 324.358 87.9892 320.082 92.8902 320.214C97.7255 320.345 101.673 324.589 101.541 329.49C101.442 334.325 97.265 338.404 92.4298 338.338Z" fill="#8CA0A9"/>
<path d="M94.5028 126.046C109.272 136.868 124.172 147.558 139.007 158.282C139.27 158.479 139.467 158.775 140.158 159.499C108.186 159.499 76.8065 159.499 44.6045 159.499C46.611 157.986 47.9924 156.933 49.4068 155.913C62.9916 146.111 76.5763 136.276 90.161 126.474C91.5754 125.454 92.5951 124.632 94.5028 126.046Z" fill="#FACA15"/>
<path d="M83.4833 329.227C83.4504 333.898 87.7594 338.305 92.4301 338.338C97.2325 338.404 101.443 334.325 101.541 329.49C101.673 324.589 97.7259 320.379 92.8906 320.214C87.9896 320.083 83.5162 324.359 83.4833 329.227ZM91.3776 349.127C81.0821 349.522 72.2669 338.503 72.6287 328.734C73.0563 317.451 82.2992 308.899 93.5814 309.36C104.403 309.787 112.889 319.03 112.462 329.951C112.034 341.134 102.857 349.489 91.3776 349.127Z" fill="#030202"/>
<path d="M83.8779 232.324C86.3449 232.324 87.2001 232.883 87.1672 235.482C87.0356 246.698 87.0356 257.947 87.1672 269.164C87.2001 271.795 86.2791 272.355 83.845 272.289C79.5032 272.223 75.1942 272.223 70.8853 272.223C68.0565 272.223 65.1948 272.223 62.3661 272.223C59.7675 272.223 57.1361 272.223 54.5376 272.223C47.0051 272.223 39.4398 272.19 31.9073 272.223C29.5391 272.223 27.2037 272.256 24.8354 272.289C22.5329 272.322 21.7435 271.73 21.7764 269.296C21.9079 257.947 21.9079 246.599 21.7764 235.251C21.7435 232.751 22.6316 232.291 24.9012 232.324C44.5382 232.423 64.2081 232.423 83.8779 232.324ZM73.747 261.467C75.589 261.5 76.3126 260.974 76.2468 259.033C76.1152 254.56 76.1152 250.086 76.2468 245.646C76.3126 243.672 75.5561 243.244 73.747 243.244C60.9517 243.31 48.1564 243.31 35.3611 243.244C33.3875 243.244 32.5652 243.672 32.6639 245.81C32.8283 250.152 32.8283 254.494 32.6639 258.836C32.5981 260.941 33.3546 261.5 35.3611 261.434C41.7423 261.335 48.1564 261.401 54.5376 261.401C60.9188 261.401 67.3329 261.368 73.747 261.467Z" fill="#030202"/>
<path d="M83.8445 272.322C79.5356 272.256 75.1937 272.256 70.8848 272.256C75.1937 272.256 79.5356 272.256 83.8445 272.322Z" fill="#030202"/>
<path d="M73.7469 243.244C75.556 243.244 76.3126 243.672 76.2468 245.645C76.1152 250.119 76.1152 254.592 76.2468 259.033C76.3126 260.973 75.5889 261.467 73.7469 261.467C67.3657 261.368 60.9516 261.434 54.5375 261.434C48.1234 261.434 41.7422 261.368 35.361 261.467C33.3546 261.5 32.598 260.973 32.6638 258.868C32.7954 254.526 32.8283 250.185 32.6638 245.843C32.598 243.672 33.4204 243.244 35.361 243.277C48.1563 243.31 60.9516 243.31 73.7469 243.244Z" fill="#FACA15"/>
<path d="M54.5384 272.256C47.006 272.256 39.4406 272.223 31.9082 272.256C39.4406 272.223 46.9731 272.256 54.5384 272.256C57.137 272.256 59.7684 272.223 62.3669 272.223C59.7355 272.256 57.137 272.256 54.5384 272.256Z" fill="#030202"/>
<path d="M45.1632 76.377C76.7402 76.377 108.284 76.377 140.092 76.377C139.697 77.6598 138.71 77.9887 137.954 78.515C123.678 88.8434 109.403 99.1389 95.1273 109.467C93.7787 110.454 92.7261 111.507 90.7526 110.059C75.8521 99.1389 60.8859 88.3829 45.9197 77.594C45.5579 77.3637 45.0645 77.2322 45.1632 76.377Z" fill="#FACA15"/>
<path d="M83.2861 118.02C66.4121 130.19 49.8671 142.163 32.8286 154.465C32.8286 129.927 32.8286 106.112 32.8286 81.5742C49.8013 93.8104 66.3135 105.751 83.2861 118.02Z" fill="#FACA15"/>
</svg>
