<svg xmlns="http://www.w3.org/2000/svg" width="130" height="125" fill="none"><path d="M18.132 77.778c-6.235-1.33-11.35-4.36-14.793-9.84-7.89-12.546-1.14-28.964 13.32-32.244 1.75-.402 2.257-1.07 2.362-2.764 1.08-17.174 13.732-29.07 27.3-32.092 19.058-4.246 38.25 8.06 41.96 27.215.344 1.78.937 1.95 2.515 1.702 15.568-2.505 28.334 8.606 28.152 24.5-.02 1.253.325 1.683 1.53 1.96 5.747 1.3 9.524 6.273 8.903 11.542-.727 6.206-5.116 10.088-11.456 10.108a3624.51 3624.51 0 0 1-14.411-.01c.947-4.504 1.243-9.075.746-13.626-2.553-23.2-23.686-39.35-46.846-35.898-19.536 2.916-34.358 19.9-34.492 39.55-.01.832.086 1.664-.383 2.438l-4.408 7.45zm12.527-42.2c1.042-.24 2.64.86 2.783-1.635.63-10.442 8.28-18.656 18.848-19.985 2.687-.335 2.878-1.367 2.792-3.48-.057-1.34-.277-1.807-1.76-1.75-12.756.526-24.327 11.915-24.9 24.556-.076 1.626-.115 3.03 2.247 2.295zm-16.8 19.25c.84-.335 2.324.746 2.582-1.205.574-4.322 3.108-6.98 7.258-8.1.822-.22 1.138-.593.975-1.425-.143-.746-.325-1.5-.316-2.257.01-1.3-.507-1.453-1.692-1.224-5.48 1.052-10.27 6.044-11.15 11.666-.287 1.865-.02 3.06 2.343 2.544zm84.31 23.036l-24.614-.076L85.308 62.87H66.183c-2.572 0-2.563 0-1.72-2.553L70.66 41.48c.172-.516.583-1.033-.038-1.74l-1.386 1.56L54.88 59.045 39.982 77.77l-15.797.01c2.62-4.093 4.456-8.405 3.96-13.445-.105-1.014.277-2.104.536-3.136 3.356-13.703 11.637-23.026 25.235-26.88 13.875-3.94 26.192-.42 36.012 10.108 8.817 9.467 11.446 20.817 8.233 33.44z" fill="#2f496d"/><path d="M98.16 77.865c3.213-12.623.574-23.973-8.262-33.45-9.82-10.52-22.127-14.038-36.003-10.108-13.598 3.863-21.88 13.187-25.235 26.9-.25 1.033-.63 2.113-.535 3.137.497 5.04-1.34 9.343-3.96 13.445L17.28 89.3h3.414c3.03.02 3.682.68 3.682 3.806v13.024c.01 5.384 3.25 8.654 8.664 8.702l14.86.01c2.42.01 3.117.688 3.175 3.088.038 1.827-.03 3.663.02 5.49.03.975-.134 1.482-1.34 1.53-3.5.144-3.567.22-3.538-3.356.01-1.377-.316-1.865-1.76-1.827-3.73.096-7.468.038-11.198.03-8.34-.01-13.732-5.26-13.904-13.617a230.56 230.56 0 0 1 .019-10.289c.03-1.262-.296-1.78-1.626-1.664-1.358.115-2.745.038-4.112.02-2.82-.038-3.854-1.72-2.486-4.188l6.98-12.288 4.408-7.46c.47-.784.383-1.607.383-2.438.134-19.64 14.956-36.634 34.492-39.55 23.16-3.452 44.294 12.7 46.847 35.898.497 4.552.2 9.123-.746 13.627-1.778 6.713-4.714 12.823-9.457 17.968-.765.832-.746 1.76-.746 2.745l.057 20.1c.067 2.553-1.53 1.78-2.82 1.922-1.51.163-2.285-.076-2.257-1.99.134-7.306.086-14.62.03-21.927-.01-1.482.45-2.544 1.463-3.624 4.083-4.332 7.076-9.295 8.377-15.176z" fill="#2b3037"/><path d="M39.963 77.768l14.898-18.723 14.353-17.748 1.387-1.56c.622.708.2 1.224.038 1.74l-6.196 18.838c-.842 2.553-.85 2.553 1.72 2.553H85.29L73.527 77.787l-15.004 18.37c-1.415 1.72-2.63 3.653-4.906 5.46l7.162-21.42c.612-1.77.574-2.458-1.664-2.42-6.37.134-12.756.01-19.154-.01z" fill="#ffc003"/></svg>