<?xml version="1.0" encoding="utf-8"?>
<!-- Generator: Adobe Illustrator 24.1.0, SVG Export Plug-In . SVG Version: 6.00 Build 0)  -->
<svg version="1.1" id="Layer_1" xmlns="http://www.w3.org/2000/svg" xmlns:xlink="http://www.w3.org/1999/xlink" x="0px" y="0px"
	 viewBox="0 0 250 130" style="enable-background:new 0 0 250 130;" xml:space="preserve">
<style type="text/css">
	.st0{fill:#F34213;}
</style>
<path class="st0" d="M61.8,73.6c-14.2,0-25.7,11.5-25.7,25.5c0,14.1,11.5,25.5,25.7,25.5c14.2,0,25.7-11.5,25.7-25.5
	C87.5,85.1,76,73.6,61.8,73.6z M61.8,110.4c-6.2,0-11.3-5-11.3-11.2c0-6.2,5.1-11.2,11.3-11.2s11.3,5,11.3,11.2
	C73.1,105.4,68,110.4,61.8,110.4z M39.2,35h-21V18.2h35.4V0H0v129.4h18.3V53.2h21V35z M75.6,18c-14.2,0-25.7,11.5-25.7,25.5
	c0,14.1,11.5,25.5,25.7,25.5c14.2,0,25.7-11.5,25.7-25.5C101.3,29.5,89.7,18,75.6,18z M75.6,54.8c-6.2,0-11.3-5-11.3-11.2
	c0-6.2,5.1-11.2,11.3-11.2c6.2,0,11.3,5,11.3,11.2C86.9,49.8,81.8,54.8,75.6,54.8z M126.6,0c-0.1,0-0.3,0-0.4,0v0h-18.3v129.4h18.3
	v0c0.1,0,0.3,0,0.4,0c24.9,0,44.4-28.4,44.4-64.7C171,28.4,151.5,0,126.6,0z M126.6,110.4c-0.1,0-0.3,0-0.4,0V19c0.1,0,0.3,0,0.4,0
	c11.8,0,24.9,18.8,24.9,45.7C151.5,91.6,138.4,110.4,126.6,110.4z M250,18.2V0h-41.9v101.8h18.3H250V83.6h-23.6V53.2h10.3V35h-10.3
	V18.2H250z M198.5,0h-18.3v129.4H235v-18.2h-36.5V0z"/>
</svg>
